<?xml version="1.0" encoding="iso-8859-1"?>
<!-- Uploaded to: SVG Repo, www.svgrepo.com, Generator: SVG Repo Mixer Tools -->
<svg height="800px" width="800px" version="1.1" id="Layer_1" xmlns="http://www.w3.org/2000/svg" xmlns:xlink="http://www.w3.org/1999/xlink" 
	 viewBox="0 0 512 512" xml:space="preserve">
<circle style="fill:#334D5C;" cx="256" cy="256" r="256"/>
<path style="opacity:0.1;enable-background:new    ;" d="M507.755,302.235L319.307,113.781c-0.443-0.523-0.917-0.997-1.44-1.44l0,0
	c-2.171-1.845-4.949-2.997-8.016-2.997H202.155c-6.88,0-12.459,5.579-12.459,12.459v97.024v10.667c0,3.595,1.541,6.805,3.979,9.083
	l31.483,31.483H121.792c-6.88,0-12.459,5.579-12.459,12.459v97.024v10.667c0,3.888,1.819,7.317,4.613,9.6l110.149,110.149
	C234.555,511.253,245.184,512,256,512C381.589,512,485.984,421.536,507.755,302.235z"/>
<path style="fill:#F6C358;" d="M309.845,109.344H202.155c-6.88,0-12.459,5.579-12.459,12.459v107.691
	c0,6.88,5.579,12.459,12.459,12.459h107.691c6.88,0,12.459-5.579,12.459-12.459V121.803
	C322.299,114.923,316.725,109.344,309.845,109.344z"/>
<path style="fill:#FCD462;" d="M309.845,109.344H202.155c-6.88,0-12.459,5.579-12.459,12.459v97.024
	c0,6.88,5.579,12.459,12.459,12.459h107.691c6.88,0,12.459-5.579,12.459-12.459v-97.024
	C322.299,114.923,316.725,109.344,309.845,109.344z"/>
<path style="fill:#3EA69B;" d="M229.477,270.053H121.792c-6.88,0-12.459,5.579-12.459,12.459v107.691
	c0,6.88,5.579,12.459,12.459,12.459h107.691c6.88,0,12.459-5.579,12.459-12.459V282.512
	C241.936,275.632,236.357,270.053,229.477,270.053z"/>
<path style="fill:#44C4A1;" d="M229.477,270.053H121.792c-6.88,0-12.459,5.579-12.459,12.459v97.024
	c0,6.88,5.579,12.459,12.459,12.459h107.691c6.88,0,12.459-5.579,12.459-12.459v-97.024
	C241.936,275.632,236.357,270.053,229.477,270.053z"/>
<path style="fill:#D15241;" d="M390.208,270.053H282.523c-6.88,0-12.459,5.579-12.459,12.459v107.691
	c0,6.88,5.579,12.459,12.459,12.459h107.691c6.88,0,12.459-5.579,12.459-12.459V282.512
	C402.667,275.632,397.088,270.053,390.208,270.053z"/>
<path style="fill:#E56353;" d="M390.208,270.053H282.523c-6.88,0-12.459,5.579-12.459,12.459v97.024
	c0,6.88,5.579,12.459,12.459,12.459h107.691c6.88,0,12.459-5.579,12.459-12.459v-97.024
	C402.667,275.632,397.088,270.053,390.208,270.053z"/>
<path style="fill:#DC8744;" d="M278.779,213.291l-7.003-16.261h-31.557l-7.003,16.261h-17.872L247.872,138h16.261l32.533,75.291
	H278.779z M256.048,160.405l-9.477,21.861h18.848L256.048,160.405z"/>
<g>
	<path style="fill:#FFFFFF;" d="M178.544,374h-32.96v-75.291h29.296c5.099,0,9.493,0.603,13.195,1.829
		c3.701,1.221,6.485,2.869,8.352,4.955c3.376,3.872,5.056,8.256,5.056,13.141c0,5.888-1.904,10.272-5.707,13.141
		c-1.291,1.008-2.192,1.637-2.693,1.883c-0.507,0.256-1.403,0.667-2.693,1.237c4.661,1.008,8.379,3.109,11.141,6.304
		c2.768,3.2,4.149,7.163,4.149,11.904c0,5.243-1.787,9.877-5.381,13.893C196.139,371.669,188.891,374,178.544,374z M162.389,329.189
		h7.968c4.661,0,8.133-0.501,10.395-1.509c2.261-0.997,3.392-3.173,3.392-6.512s-1.045-5.547-3.12-6.629
		c-2.085-1.077-5.6-1.611-10.565-1.611h-8.075v16.261H162.389z M162.389,359.781h11.525c4.805,0,8.416-0.597,10.816-1.781
		c2.411-1.184,3.611-3.515,3.611-6.997c0-3.488-1.269-5.787-3.824-6.896c-2.549-1.115-6.629-1.664-12.229-1.664h-9.904v17.339
		H162.389z"/>
	<path style="fill:#FFFFFF;" d="M340.187,359.568c8.256,0,15.008-3.259,20.251-9.803l10.773,11.099
		c-8.549,9.627-18.619,14.427-30.219,14.427c-11.595,0-21.141-3.653-28.645-10.987c-7.504-7.328-11.253-16.565-11.253-27.733
		s3.824-20.485,11.467-27.952c7.653-7.467,17.008-11.205,28.059-11.205c12.352,0,22.693,4.709,31.024,14.112l-10.448,11.845
		c-5.312-6.603-11.92-9.904-19.819-9.904c-6.32,0-11.723,2.069-16.208,6.197c-4.485,4.128-6.731,9.685-6.731,16.688
		c0,7.003,2.123,12.624,6.357,16.859C329.019,357.456,334.155,359.568,340.187,359.568z"/>
</g>
</svg>