<?xml version="1.0" encoding="iso-8859-1"?>
<!-- Uploaded to: SVG Repo, www.svgrepo.com, Generator: SVG Repo Mixer Tools -->
<svg version="1.1" id="Layer_1" xmlns="http://www.w3.org/2000/svg" xmlns:xlink="http://www.w3.org/1999/xlink" 
	 viewBox="0 0 389.883 389.883" xml:space="preserve">
<g>
	<path style="fill:#FEE050;" d="M194.941,173.896c-47.943,0-86.948-39.005-86.948-86.948S146.998,0,194.941,0
		s86.948,39.005,86.948,86.948C281.89,134.892,242.885,173.896,194.941,173.896z M194.941,9c-42.98,0-77.948,34.968-77.948,77.948
		c0,42.982,34.968,77.948,77.948,77.948s77.948-34.967,77.948-77.948C272.89,43.968,237.922,9,194.941,9z"/>
	<path style="fill:#FEE050;" d="M194.941,148.896c-34.158,0-61.948-27.79-61.948-61.948S160.783,25,194.941,25
		s61.948,27.79,61.948,61.948S229.1,148.896,194.941,148.896z M194.941,34c-29.195,0-52.948,23.753-52.948,52.948
		c0,29.196,23.753,52.948,52.948,52.948s52.948-23.752,52.948-52.948C247.89,57.753,224.137,34,194.941,34z"/>
	<g>
		<g>
			
				<rect x="171.717" y="135.281" transform="matrix(-0.7683 -0.6401 0.6401 -0.7683 203.2397 445.3084)" style="fill:#1E252B;" width="21.001" height="101.178"/>
			
				<rect x="157.075" y="175.369" transform="matrix(-0.6401 -0.7683 0.7683 -0.6401 197.7868 464.3905)" style="fill:#1E252B;" width="101.178" height="21.001"/>
		</g>
		<g>
			
				<rect x="171.194" y="211.017" transform="matrix(-0.5228 -0.8525 0.8525 -0.5228 30.8617 594.0002)" style="fill:#1E252B;" width="21.001" height="154.69"/>
			
				<rect x="130.834" y="277.836" transform="matrix(-0.8524 -0.5228 0.5228 -0.8524 234.8775 642.9618)" style="fill:#1E252B;" width="154.677" height="20.999"/>
		</g>
		
			<rect x="137.483" y="79.458" transform="matrix(-0.9504 -0.3111 0.3111 -0.9504 216.94 495.4499)" style="fill:#333E48;" width="20.999" height="301.932"/>
		
			<rect x="90.934" y="219.923" transform="matrix(-0.3111 -0.9504 0.9504 -0.3111 98.1634 532.0026)" style="fill:#333E48;" width="301.932" height="20.999"/>
		<circle style="fill:#C3C6C8;" cx="194.941" cy="86.948" r="39"/>
		<path style="fill:#1E252B;" d="M134.343,379.883c0,5.5-4.5,10-10,10H77.676c-5.5,0-10-4.5-10-10v-7.334c0-5.5,4.5-10,10-10h46.667
			c5.5,0,10,4.5,10,10V379.883z"/>
		<path style="fill:#1E252B;" d="M255.54,379.883c0,5.5,4.5,10,10,10h46.667c5.5,0,10-4.5,10-10v-7.334c0-5.5-4.5-10-10-10H265.54
			c-5.5,0-10,4.5-10,10L255.54,379.883L255.54,379.883z"/>
	</g>
</g>
</svg>