<?xml version="1.0" encoding="iso-8859-1"?>
<!-- Uploaded to: SVG Repo, www.svgrepo.com, Generator: SVG Repo Mixer Tools -->
<svg height="800px" width="800px" version="1.1" id="Layer_1" xmlns="http://www.w3.org/2000/svg" xmlns:xlink="http://www.w3.org/1999/xlink" 
	 viewBox="0 0 495 495" xml:space="preserve">
<g>
	<polygon style="fill:#EE8700;" points="247.5,0 247.5,40 455,40 455,455 247.5,455 247.5,495 495,495 495,0 	"/>
	<polygon style="fill:#FFA733;" points="40,455 40,40 247.5,40 247.5,0 0,0 0,495 247.5,495 247.5,455 	"/>
	<path style="fill:#FFB655;" d="M247.5,384.025c87.019,0,157.5-48.326,157.5-107.874c0-59.443-70.48-107.715-157.5-107.715
		c-38.024,0-72.951,9.238-100.251,24.62v-82.082H90v168.224h0.277C92.586,337.353,161.992,384.025,247.5,384.025z M247.5,204.411
		c55.375,0,100.262,32.157,100.262,71.779c0,39.652-44.888,71.899-100.262,71.899c-55.362,0-100.251-32.208-100.251-71.899
		C147.25,236.568,192.138,204.411,247.5,204.411z"/>
	<path style="fill:#FFB655;" d="M247.5,323.717c36.605,0,66.201-21.198,66.201-47.526c0-26.221-29.596-47.445-66.201-47.445
		c-36.593,0-66.283,21.224-66.283,47.445C181.217,302.506,210.907,323.769,247.5,323.717z"/>
</g>
</svg>