<?xml version="1.0" encoding="iso-8859-1"?>
<!-- Uploaded to: SVG Repo, www.svgrepo.com, Generator: SVG Repo Mixer Tools -->
<!DOCTYPE svg PUBLIC "-//W3C//DTD SVG 1.1//EN" "http://www.w3.org/Graphics/SVG/1.1/DTD/svg11.dtd">
<svg fill="#000000" version="1.1" id="Capa_1" xmlns="http://www.w3.org/2000/svg" xmlns:xlink="http://www.w3.org/1999/xlink" 
	 width="800px" height="800px" viewBox="0 0 31.12 31.121"
	 xml:space="preserve">
<g>
	<g>
		<path d="M27.505,25.105V7.649h2.548V3.005h-2.548V0.705H17.157v2.301h-3.476V7.65h3.476v17.455h-4.542v4.98H31.12v-4.98H27.505z
			 M14.3,7.032V3.623h15.136v3.409H14.3z"/>
		<polygon points="16.381,6.115 16.911,6.115 16.911,5.461 17.598,5.461 17.598,5.051 16.911,5.051 16.911,4.837 17.71,4.837 
			17.71,4.397 16.381,4.397 		"/>
		<rect x="17.896" y="4.397" width="0.53" height="1.717"/>
		<polygon points="19.75,5.315 19.744,5.315 19.244,4.397 18.702,4.397 18.702,6.115 19.202,6.115 19.202,5.178 19.208,5.178 
			19.734,6.115 20.25,6.115 20.25,4.397 19.75,4.397 		"/>
		<path d="M21.004,4.397L20.37,6.115h0.532l0.078-0.244h0.545l0.072,0.244h0.549l-0.625-1.717H21.004z M21.096,5.501l0.166-0.529
			h0.004l0.154,0.529H21.096z"/>
		<polygon points="23.314,5.315 23.311,5.315 22.811,4.397 22.268,4.397 22.268,6.115 22.768,6.115 22.768,5.178 22.771,5.178 
			23.3,6.115 23.814,6.115 23.814,4.397 23.314,4.397 		"/>
		<path d="M25.146,5.555c-0.015,0.036-0.031,0.067-0.054,0.092c-0.022,0.026-0.048,0.047-0.079,0.062
			c-0.031,0.013-0.07,0.021-0.115,0.021c-0.062,0-0.114-0.015-0.156-0.042c-0.041-0.026-0.075-0.063-0.1-0.107
			c-0.025-0.045-0.043-0.096-0.055-0.152c-0.011-0.057-0.018-0.113-0.018-0.171c0-0.058,0.006-0.115,0.018-0.171
			c0.012-0.055,0.029-0.106,0.055-0.15c0.023-0.046,0.059-0.082,0.1-0.109c0.042-0.027,0.094-0.04,0.156-0.04
			c0.056,0,0.101,0.01,0.134,0.029c0.034,0.022,0.063,0.046,0.084,0.074c0.021,0.026,0.034,0.055,0.043,0.083
			C25.167,5,25.173,5.022,25.175,5.038h0.517c-0.022-0.216-0.099-0.384-0.229-0.502c-0.129-0.117-0.312-0.177-0.55-0.179
			c-0.134,0-0.253,0.022-0.36,0.065s-0.197,0.104-0.275,0.182c-0.075,0.079-0.133,0.174-0.174,0.286
			c-0.041,0.109-0.062,0.232-0.062,0.367c0,0.127,0.02,0.245,0.059,0.355c0.039,0.108,0.096,0.204,0.17,0.285
			c0.076,0.08,0.166,0.144,0.273,0.19s0.23,0.069,0.371,0.069c0.125,0,0.236-0.021,0.335-0.063c0.097-0.042,0.179-0.097,0.246-0.165
			s0.118-0.145,0.151-0.229c0.035-0.086,0.052-0.172,0.052-0.258h-0.521C25.17,5.481,25.16,5.521,25.146,5.555z"/>
		<polygon points="26.449,5.461 27.262,5.461 27.262,5.051 26.449,5.051 26.449,4.837 27.342,4.837 27.342,4.397 25.919,4.397 
			25.919,6.115 27.369,6.115 27.369,5.676 26.449,5.676 		"/>
		<path d="M3.611,11.848c1.391,0,2.518-1.129,2.518-2.519c0-0.711-0.296-1.35-0.77-1.809l0.36-1.497L4.367,6.269L3.813,5.408
			L2.336,6.392L1.292,5.96L1.045,7.191L0,7.806l1.093,1.54C1.103,10.728,2.224,11.848,3.611,11.848z"/>
		<polygon points="5.187,25.578 4.533,21.122 1.189,21.212 2.727,25.578 1.758,29.761 1.641,29.761 1.641,30.416 5.33,30.416 
			5.33,29.761 4.573,29.761 		"/>
		<polygon points="4.533,19.571 1.919,17.351 1.898,17.349 1.898,13.201 3.855,13.231 3.848,15.667 4.533,16.357 4.533,12.184 
			0.879,12.184 0.879,20.837 4.533,20.837 		"/>
		<polygon points="5.709,17.906 3.591,15.861 3.557,13.524 2.229,13.516 2.229,17.09 5.562,20.035 5.688,19.87 6.754,19.87 
			6.754,19.593 5.709,19.593 		"/>
		<polygon points="12.181,15.199 12.181,15.061 12.639,15.061 12.639,14.877 5.98,14.877 5.98,15.061 5.983,15.061 5.983,16.56 
			5.98,16.56 5.98,16.744 12.639,16.744 12.639,16.56 12.181,16.56 12.181,16.478 6.448,16.478 6.448,16.418 6.441,16.418 
			6.441,16.384 12.181,16.384 12.181,16.308 6.443,16.308 6.443,16.279 6.441,16.279 6.441,16.244 6.443,16.244 6.443,16.23 
			12.181,16.23 12.181,16.125 6.434,16.125 6.434,16.105 6.43,16.105 6.43,16.071 6.434,16.071 6.434,16.05 12.181,16.05 
			12.181,15.953 6.428,15.953 6.428,15.878 12.181,15.878 12.181,15.787 6.428,15.787 6.428,15.71 12.181,15.71 12.181,15.615 
			6.438,15.615 6.438,15.539 12.181,15.539 12.181,15.442 6.434,15.442 6.434,15.367 12.181,15.367 12.181,15.275 6.434,15.275 
			6.434,15.199 		"/>
		<polygon points="12.181,17.064 12.181,16.976 12.639,16.976 12.639,16.861 5.98,16.861 5.98,16.976 5.983,16.976 5.983,17.921 
			5.98,17.921 5.98,18.037 12.639,18.037 12.639,17.921 12.181,17.921 12.181,17.818 6.346,17.818 6.346,17.741 12.181,17.741 
			12.181,17.65 6.346,17.65 6.346,17.574 12.181,17.574 12.181,17.478 6.356,17.478 6.356,17.453 6.354,17.453 6.354,17.417 
			6.356,17.417 6.356,17.403 12.181,17.403 12.181,17.306 6.351,17.306 6.351,17.23 12.181,17.23 12.181,17.14 6.351,17.14 
			6.351,17.064 		"/>
		<polygon points="12.181,18.439 12.181,18.339 12.639,18.339 12.639,18.224 5.98,18.224 5.98,18.339 5.983,18.339 5.983,19.283 
			5.98,19.283 5.98,19.398 12.639,19.398 12.639,19.283 12.181,19.283 12.181,19.193 6.312,19.193 6.312,19.117 12.181,19.117 
			12.181,19.027 6.312,19.027 6.312,18.951 12.181,18.951 12.181,18.853 6.323,18.853 6.323,18.834 6.323,18.8 6.323,18.777 
			12.181,18.777 12.181,18.681 6.317,18.681 6.317,18.605 12.181,18.605 12.181,18.515 6.317,18.515 6.317,18.439 		"/>
		<polygon points="11.795,14.658 11.441,14.658 11.441,14.575 6.953,14.575 6.953,14.5 11.441,14.5 11.441,14.409 6.953,14.409 
			6.953,14.333 11.441,14.333 11.441,14.236 6.963,14.236 6.963,14.194 6.957,14.194 6.957,14.16 11.441,14.16 11.441,14.063 
			6.958,14.063 6.958,14.031 6.957,14.031 6.957,13.998 6.958,13.998 6.958,13.988 11.441,13.988 11.441,13.896 6.958,13.896 
			6.958,13.858 6.957,13.858 6.957,13.824 6.958,13.824 6.958,13.821 11.441,13.821 11.441,13.712 11.795,13.712 11.795,13.598 
			6.65,13.598 6.65,13.712 6.653,13.712 6.653,14.658 6.65,14.658 6.65,14.771 11.795,14.771 		"/>
	</g>
</g>
</svg>