<?xml version="1.0" encoding="iso-8859-1"?>
<!-- Uploaded to: SVG Repo, www.svgrepo.com, Generator: SVG Repo Mixer Tools -->
<svg height="800px" width="800px" version="1.1" id="Layer_1" xmlns="http://www.w3.org/2000/svg" xmlns:xlink="http://www.w3.org/1999/xlink" 
	 viewBox="0 0 460.8 460.8" xml:space="preserve">
<g transform="translate(0 -952.36)">
	<path style="fill:#27BEC4;" d="M460.8,1182.76c0,127.2-103.2,230.4-230.4,230.4l0,0c-127.2,0-230.4-103.2-230.4-230.4
		s103.2-230.4,230.4-230.4S460.8,1055.46,460.8,1182.76L460.8,1182.76z"/>
	<g>
		<path style="fill:#F2EBD9;" d="M212.4,988.16c-12.9,0-23.3,7.7-23.3,17.3v77.4c-0.3,4.1-1.8,7.1-4.2,10.1h-6.3
			c-13.5,0-24.5,11-24.5,24.5v131.8c0,13.5,11,24.5,24.5,24.5h7.5c1.7,2.4,2.7,5.2,3,8.1v78.1c0,9.6,10.4,17.3,23.3,17.3h35
			c12.9,0,23.3-7.7,23.3-17.3v-79.2c0.2-2.7,1.3-5.5,2.6-7h3.7c13.5,0,24.5-11,24.5-24.5v-131.8c0-13.5-11-24.5-24.5-24.5h-3.1
			c-2.8-2.4-3.2-4.9-3.2-8.2v-79.2c0-9.6-10.4-17.3-23.3-17.3h-35V988.16z"/>
		<path style="fill:#24566D;" d="M178.6,1100.46h98.5c9.5,0,17,7.5,17,17v131.8c0,9.5-7.5,17-17,17h-98.5c-9.5,0-17-7.5-17-17
			v-131.8C161.7,1107.96,169.2,1100.46,178.6,1100.46z"/>
		<g>
			<path style="fill:#C3C3C3;" d="M299.1,1125.06h1.1c2.1,0,3.7,1.7,3.7,3.7v25.1c0,2.1-1.7,3.7-3.7,3.7h-1.1
				c-2.1,0-3.7-1.7-3.7-3.7v-25.1C295.4,1126.76,297,1125.06,299.1,1125.06L299.1,1125.06z"/>
			<path style="fill:#F2EBD9;" d="M302.1,1125.16c2.5,0,4.5,2.9,4.5,6.4v19.5c0,3.6-2,6.4-4.5,6.4s-4.5-2.9-4.5-6.4v-19.5
				C297.6,1127.96,299.6,1125.16,302.1,1125.16z"/>
		</g>
		<g>
			<path style="fill:#B9B9B9;" d="M297,1178.06v52.4c2.8-2.4,4.6-6,4.6-10.1v-32C301.6,1184.16,299.8,1180.46,297,1178.06z"/>
			<path style="fill:#F2EBD9;" d="M298.4,1178.46v50.5c2.7-2.4,4.4-5.8,4.4-9.8v-30.9C302.8,1184.36,301.1,1180.76,298.4,1178.46z"
				/>
		</g>
		<path style="fill:#FF642F;" d="M208.4,1204.06l-16.2-9.3v-18.7l16.2-9.3l16.2,9.3v18.7L208.4,1204.06z"/>
		<path style="fill:#FFCE35;" d="M243.8,1204.06l-16.2-9.3v-18.7l16.2-9.3l16.2,9.3v18.7L243.8,1204.06z"/>
		<path style="fill:#6FCDA7;" d="M226.1,1234.86l-16.2-9.3v-18.7l16.2-9.3l16.2,9.3v18.7L226.1,1234.86z"/>
		<path style="fill:#27BEC4;" d="M226.1,1173.46l-16.2-9.3v-18.7l16.2-9.3l16.2,9.3v18.7L226.1,1173.46z"/>
		<g>
			<path style="fill:#39677B;" d="M288.5,1106.16c-2.7-1.9-6-3.3-9.6-3.8h-102c-4.7,0.7-8.9,2.8-11.8,5.7c3.6,3.6,8.9,5.8,14.9,5.8
				h92.1C279.1,1113.76,285.1,1110.76,288.5,1106.16z"/>
			<g>
				<path style="fill:#2A5B71;" d="M292.5,1248.16L292.5,1248.16v-125.5c-0.6-5.8-2.3-10.8-4.8-14.4c-3,4.4-4.9,11-4.9,18.4v113.2
					c0,8.6,2.6,16,6.4,20.2C290.9,1256.66,292,1252.66,292.5,1248.16z"/>
				<path style="fill:#2A5B71;" d="M172.7,1248.16L172.7,1248.16c0,0,0-78.2,0-125.6c-0.4-4-1.4-7.6-2.8-10.7
					c-4.4,2.1-6.9,5.1-6.9,14.7v113.2c0,8.6,2.6,16,6.4,20.2C171.1,1256.66,172.2,1252.66,172.7,1248.16z"/>
			</g>
		</g>
	</g>
</g>
</svg>