<?xml version="1.0" encoding="iso-8859-1"?>
<!-- Uploaded to: SVG Repo, www.svgrepo.com, Generator: SVG Repo Mixer Tools -->
<svg version="1.1" id="Layer_1" xmlns="http://www.w3.org/2000/svg" xmlns:xlink="http://www.w3.org/1999/xlink" 
	 viewBox="0 0 512 512" xml:space="preserve">
<path style="fill:#68727E;" d="M358.614,427.557h-94.597v-36.582h-16.033v36.582h-94.597c-4.428,0-8.017,3.589-8.017,8.017v25.653
	c0,4.427,3.588,8.017,8.017,8.017c4.428,0,8.017-3.589,8.017-8.017v-17.637h86.58v17.637c0,4.427,3.588,8.017,8.017,8.017
	c4.428,0,8.017-3.589,8.017-8.017v-17.637h86.58v17.637c0,4.427,3.588,8.017,8.017,8.017c4.428,0,8.017-3.589,8.017-8.017v-25.653
	C366.63,431.147,363.042,427.557,358.614,427.557z"/>
<path style="fill:#FFC44F;" d="M153.386,461.762c-13.851,0-25.119,11.268-25.119,25.119S139.535,512,153.386,512
	c13.851,0,25.119-11.268,25.119-25.119S167.237,461.762,153.386,461.762z"/>
<path style="fill:#F7B14D;" d="M161.403,502.914c-13.851,0-25.119-11.268-25.119-25.119c0-4.172,1.028-8.107,2.836-11.573
	c-6.551,4.539-10.852,12.104-10.852,20.659c0,13.851,11.268,25.119,25.119,25.119c9.679,0,18.09-5.506,22.283-13.546
	C171.614,501.263,166.699,502.914,161.403,502.914z"/>
<path style="fill:#FFC44F;" d="M256,461.762c-13.851,0-25.119,11.268-25.119,25.119S242.149,512,256,512
	c13.851,0,25.119-11.268,25.119-25.119S269.851,461.762,256,461.762z"/>
<path style="fill:#F7B14D;" d="M265.086,502.914c-13.851,0-25.119-11.268-25.119-25.119c0-4.598,1.247-8.908,3.414-12.619
	c-7.467,4.358-12.5,12.453-12.5,21.705C230.881,500.732,242.149,512,256,512c9.252,0,17.347-5.032,21.705-12.5
	C273.994,501.667,269.684,502.914,265.086,502.914z"/>
<path style="fill:#FFC44F;" d="M358.614,461.762c-13.851,0-25.119,11.268-25.119,25.119S344.763,512,358.614,512
	c13.851,0,25.119-11.268,25.119-25.119S372.465,461.762,358.614,461.762z"/>
<path style="fill:#F7B14D;" d="M367.699,502.914c-13.851,0-25.119-11.268-25.119-25.119c0-4.598,1.247-8.908,3.414-12.619
	c-7.467,4.358-12.5,12.453-12.5,21.705c0,13.851,11.268,25.119,25.119,25.119c9.252,0,17.347-5.032,21.705-12.5
	C376.608,501.667,372.298,502.914,367.699,502.914z"/>
<path style="fill:#68727E;" d="M375.716,393.353c-4.428,0-8.017,3.589-8.017,8.017v0.534h-35.273v-17.637
	c0-4.427-3.588-8.017-8.017-8.017h-42.756c-4.428,0-8.017,3.589-8.017,8.017c0,4.427,3.588,8.017,8.017,8.017h34.739v17.637
	c0,4.427,3.588,8.017,8.017,8.017h43.29v0.534c0,4.427,3.588,8.017,8.017,8.017c4.428,0,8.017-3.589,8.017-8.017V401.37
	C383.733,396.942,380.145,393.353,375.716,393.353z"/>
<g>
	<path style="fill:#B3B9BF;" d="M230.881,256.443V401.37c0,4.427,3.588,8.017,8.017,8.017h34.205c4.428,0,8.017-3.589,8.017-8.017
		V256.443H230.881z"/>
	<path style="fill:#B3B9BF;" d="M281.119,230.347c0-4.427-3.588-8.017-8.017-8.017h-34.205c-4.428,0-8.017,3.589-8.017,8.017v54.514
		h50.238V230.347z"/>
</g>
<g>
	<path style="fill:#8E959F;" d="M281.119,230.347c0-4.427-3.588-8.017-8.017-8.017h-34.205c-4.428,0-8.017,3.589-8.017,8.017v54.514
		h50.238V230.347z"/>
	<rect x="230.881" y="341.511" style="fill:#8E959F;" width="50.238" height="28.86"/>
</g>
<path style="fill:#C4DF64;" d="M386.328,13.89C378.339,5.062,366.929,0,355.023,0H156.977c-11.906,0-23.316,5.062-31.305,13.89
	s-11.891,20.685-10.707,32.532l18.813,188.125c2.168,21.675,20.229,38.021,42.013,38.021h160.42
	c21.784,0,39.845-16.345,42.013-38.021l18.813-188.125C398.22,34.576,394.316,22.718,386.328,13.89z"/>
<path style="fill:#AFCA62;" d="M155.007,234.547L136.194,46.422c-1.879-18.792,9.419-37,27.072-43.684
	C168.029,0.935,173.113,0,178.206,0h-21.229c-11.906,0-23.316,5.062-31.305,13.89s-11.891,20.685-10.707,32.532l18.813,188.125
	c2.168,21.675,20.229,38.021,42.013,38.021h21.229C175.235,272.568,157.173,256.222,155.007,234.547z"/>
<path style="fill:#68727E;" d="M419.006,254.6v70.344h-22.429v16.033h30.445c4.428,0,8.017-3.589,8.017-8.017V254.6H419.006z"/>
<path style="fill:#FFC44F;" d="M435.574,230.881h-17.102c-13.851,0-25.119,11.268-25.119,25.119v8.551
	c0,4.427,3.588,8.017,8.017,8.017h51.307c4.428,0,8.017-3.589,8.017-8.017V256C460.693,242.149,449.425,230.881,435.574,230.881z"/>
<path style="fill:#68727E;" d="M92.994,254.6H76.96v78.361c0,4.427,3.588,8.017,8.017,8.017h31.477v-16.033h-23.46V254.6z"/>
<path style="fill:#FFC44F;" d="M93.528,230.881H76.426c-13.851,0-25.119,11.268-25.119,25.119v8.551
	c0,4.427,3.588,8.017,8.017,8.017h51.307c4.428,0,8.017-3.589,8.017-8.017V256C118.647,242.149,107.379,230.881,93.528,230.881z"/>
<g>
	<path style="fill:#F7B14D;" d="M452.676,263.482H401.37c-4.367,0-7.912-3.494-8.008-7.838c-0.002,0.119-0.009,0.236-0.009,0.356
		v8.551c0,4.427,3.588,8.017,8.017,8.017h51.307c4.428,0,8.017-3.589,8.017-8.017V256c0-0.12-0.007-0.236-0.009-0.356
		C460.588,259.988,457.044,263.482,452.676,263.482z"/>
	<path style="fill:#F7B14D;" d="M110.63,263.482H59.324c-4.368,0-7.912-3.494-8.008-7.838c-0.001,0.12-0.009,0.236-0.009,0.356
		v8.551c0,4.427,3.588,8.017,8.017,8.017h51.307c4.428,0,8.017-3.589,8.017-8.017V256c0-0.12-0.007-0.236-0.009-0.356
		C118.542,259.988,114.998,263.482,110.63,263.482z"/>
</g>
<path style="fill:#C4DF64;" d="M375.716,307.841H136.284c-13.851,0-25.119,11.268-25.119,25.119
	c0,13.851,11.268,25.119,25.119,25.119h239.432c13.851,0,25.119-11.268,25.119-25.119
	C400.835,319.11,389.567,307.841,375.716,307.841z"/>
<path style="fill:#AFCA62;" d="M375.716,341.511H136.284c-10.949,0-20.278-7.043-23.709-16.835c-0.91,2.595-1.41,5.382-1.41,8.284
	c0,13.851,11.268,25.119,25.119,25.119h239.432c13.851,0,25.119-11.268,25.119-25.119c0-2.902-0.5-5.689-1.41-8.284
	C395.994,334.469,386.665,341.511,375.716,341.511z"/>
<path style="fill:#ECEDEF;" d="M306.772,0H205.228v102.079c0,4.427,3.589,8.017,8.017,8.017h85.511c4.427,0,8.017-3.589,8.017-8.017
	V0z"/>
<path style="fill:#D9DCDF;" d="M205.228,0v102.079c0,4.427,3.589,8.017,8.017,8.017h55.333L222.093,0H205.228z"/>
<g>
	<path style="fill:#AFCA62;" d="M306.772,160.868H205.228c-4.428,0-8.017-3.589-8.017-8.017s3.588-8.017,8.017-8.017h101.545
		c4.428,0,8.017,3.589,8.017,8.017S311.201,160.868,306.772,160.868z"/>
	<path style="fill:#AFCA62;" d="M306.772,204.159H205.228c-4.428,0-8.017-3.589-8.017-8.017s3.588-8.017,8.017-8.017h101.545
		c4.428,0,8.017,3.589,8.017,8.017S311.201,204.159,306.772,204.159z"/>
	<path style="fill:#AFCA62;" d="M306.772,247.449H205.228c-4.428,0-8.017-3.589-8.017-8.017s3.588-8.017,8.017-8.017h101.545
		c4.428,0,8.017,3.589,8.017,8.017S311.201,247.449,306.772,247.449z"/>
</g>
</svg>