<?xml version="1.0" encoding="iso-8859-1"?>
<!-- Uploaded to: SVG Repo, www.svgrepo.com, Generator: SVG Repo Mixer Tools -->
<svg height="800px" width="800px" version="1.1" id="Layer_1" xmlns="http://www.w3.org/2000/svg" xmlns:xlink="http://www.w3.org/1999/xlink" 
	 viewBox="0 0 512.002 512.002" xml:space="preserve">
<path style="fill:#CFD8DC;" d="M328.07,360.105l-12.814-12.814l32.043-32.043l12.814,12.814c7.077,7.077,7.077,18.55,0,25.627
	l-6.407,6.407C346.619,367.182,335.147,367.182,328.07,360.105z"/>
<path style="fill:#263238;" d="M480.283,512.001c-8.12,0-16.239-3.099-22.428-9.288l-123.94-130.356
	c-12.388-12.388,26.126-50.892,38.513-38.513l130.284,124.013c12.388,12.388,12.388,32.469,0,44.857
	C496.513,508.902,488.394,512.001,480.283,512.001z"/>
<circle style="fill:#BDBDBD;" cx="199.363" cy="199.364" r="199.363"/>
<circle style="fill:#212121;" cx="199.363" cy="199.364" r="190.301"/>
<circle style="fill:#424242;" cx="199.363" cy="199.364" r="154.053"/>
<circle style="fill:#FBE9E7;" cx="226.549" cy="226.55" r="117.805"/>
<circle style="fill:#FFC107;" cx="271.858" cy="271.86" r="45.31"/>
</svg>