<?xml version="1.0" encoding="iso-8859-1"?>
<!-- Uploaded to: SVG Repo, www.svgrepo.com, Generator: SVG Repo Mixer Tools -->
<svg version="1.1" id="Layer_1" xmlns="http://www.w3.org/2000/svg" xmlns:xlink="http://www.w3.org/1999/xlink" 
	 viewBox="0 0 501.551 501.551" xml:space="preserve">
<rect x="231.967" y="342.727" style="fill:#F2F2F2;" width="38.661" height="32.392"/>
<path style="fill:#E2E2E2;" d="M231.967,342.727v20.898c6.269,1.045,12.539,1.045,18.808,1.045c6.269,0,12.539,0,18.808-1.045
	v-20.898H231.967z"/>
<path style="fill:#4CDBC4;" d="M212.114,375.118v87.771c0,21.943,17.763,38.661,38.661,38.661c21.943,0,38.661-17.763,38.661-38.661
	v-87.771H212.114z"/>
<ellipse style="fill:#FFFFFF;" cx="250.776" cy="464.98" rx="8.359" ry="14.629"/>
<circle style="fill:#40596B;" cx="250.776" cy="174.498" r="174.498"/>
<path style="fill:#334A5E;" d="M250.776,333.322c-87.771,0-158.824-71.053-158.824-158.824S163.004,15.673,250.776,15.673
	S409.6,86.727,409.6,174.498S338.547,333.322,250.776,333.322z"/>
<path style="fill:#FFFFFF;" d="M276.898,77.322C262.269,61.649,241.371,51.2,217.339,51.2c-44.931,0-81.502,36.571-81.502,81.502
	c0,13.584,3.135,26.122,9.404,37.616c-1.045,5.224-1.045,10.449-1.045,14.629c0,61.649,49.11,110.759,110.759,110.759
	s110.759-49.11,110.759-110.759C365.714,132.702,328.098,87.771,276.898,77.322z"/>
<circle style="fill:#FFD15C;" cx="260.18" cy="191.216" r="50.155"/>
<path style="fill:#F8B64C;" d="M265.404,230.922c-25.078,0-44.931-19.853-44.931-44.931c0-24.033,18.808-43.886,42.841-44.931
	c-1.045,0-2.09,0-3.135,0c-28.212,0-50.155,22.988-50.155,50.155s22.988,50.155,50.155,50.155c28.212,0,50.155-22.988,50.155-50.155
	c0-1.045,0-2.09,0-3.135C308.245,212.114,289.437,230.922,265.404,230.922z"/>
<circle style="fill:#FFFFFF;" cx="284.212" cy="163.004" r="7.314"/>
</svg>