<?xml version="1.0" encoding="iso-8859-1"?>
<!-- Uploaded to: SVG Repo, www.svgrepo.com, Generator: SVG Repo Mixer Tools -->
<svg version="1.1" id="Layer_1" xmlns="http://www.w3.org/2000/svg" xmlns:xlink="http://www.w3.org/1999/xlink" 
	 viewBox="0 0 512 512" xml:space="preserve">
<rect x="4" y="109.852" style="fill:#FFFFFF;" width="504" height="358.496"/>
<g>
	<polygon style="fill:#D6D6D6;" points="369.968,431.172 142.032,431.172 104.664,459.588 407.336,459.588 	"/>
	<polygon style="fill:#D6D6D6;" points="113.32,431.172 47.632,431.172 10.256,459.588 76.072,459.588 	"/>
	<polygon style="fill:#D6D6D6;" points="464.368,431.172 398.68,431.172 435.928,459.588 501.744,459.588 	"/>
	<polygon style="fill:#D6D6D6;" points="369.968,147.788 142.032,147.788 104.664,119.372 407.336,119.372 	"/>
	<polygon style="fill:#D6D6D6;" points="113.32,147.788 47.632,147.788 10.256,119.372 76.072,119.372 	"/>
	<polygon style="fill:#D6D6D6;" points="464.368,147.788 398.68,147.788 435.928,119.372 501.744,119.372 	"/>
	<path style="fill:#D6D6D6;" d="M504,113.852v350.496H8V113.852H504 M512,105.852H0v366.496h512V105.852L512,105.852z"/>
</g>
<path d="M0,119.372V55.636c0-8.8,7.2-16,16-16h479.96c8.8,0,16,7.2,16,16v63.728H0V119.372z"/>
<polygon style="fill:#FFFFFF;" points="471.624,101.508 171.536,101.508 200.24,57.508 471.624,57.508 "/>
<circle style="fill:#E50914;" cx="53.904" cy="78.908" r="13.608"/>
<circle style="fill:#939393;" cx="89.976" cy="78.908" r="13.608"/>
<circle style="fill:#D6D6D6;" cx="126.056" cy="78.908" r="13.608"/>
<path d="M215.616,71.244l1.912,8.312c0.416,1.952,0.832,3.944,1.168,5.936h0.08c0.376-1.992,0.976-4.024,1.504-5.896l2.368-8.352
	h3.76l2.296,8.128c0.56,2.144,1.048,4.136,1.464,6.128h0.08c0.296-1.992,0.712-3.984,1.2-6.128l2.032-8.128h4.544l-5.752,18.312
	h-4.288l-2.176-7.448c-0.56-1.912-0.976-3.648-1.392-5.864h-0.08c-0.376,2.256-0.856,4.064-1.392,5.864l-2.328,7.448h-4.328
	l-5.408-18.312H215.616z"/>
<path d="M244.384,71.244l1.912,8.312c0.416,1.952,0.832,3.944,1.168,5.936h0.08c0.376-1.992,0.976-4.024,1.504-5.896l2.368-8.352
	h3.76l2.296,8.128c0.56,2.144,1.048,4.136,1.464,6.128h0.08c0.296-1.992,0.712-3.984,1.2-6.128l2.032-8.128h4.544l-5.752,18.312
	h-4.288l-2.176-7.448c-0.56-1.912-0.976-3.648-1.392-5.864h-0.08c-0.376,2.256-0.856,4.064-1.392,5.864l-2.328,7.448h-4.328
	l-5.416-18.312H244.384z"/>
<path d="M273.152,71.244l1.912,8.312c0.416,1.952,0.832,3.944,1.168,5.936h0.08c0.376-1.992,0.976-4.024,1.504-5.896l2.368-8.352
	h3.76l2.296,8.128c0.56,2.144,1.048,4.136,1.464,6.128h0.08c0.296-1.992,0.712-3.984,1.2-6.128l2.032-8.128h4.544l-5.752,18.312
	h-4.288l-2.176-7.448c-0.56-1.912-0.976-3.648-1.392-5.864h-0.08c-0.376,2.256-0.856,4.064-1.392,5.864l-2.328,7.448h-4.328
	l-5.416-18.312H273.152z"/>
<path d="M296.304,86.996c0-1.736,1.2-2.968,2.856-2.968c1.696,0,2.856,1.2,2.856,2.968c0,1.688-1.128,2.968-2.856,2.968
	C297.48,89.964,296.304,88.684,296.304,86.996z"/>
<polygon points="342.688,464.212 169.312,464.212 193.312,445.964 318.688,445.964 "/>
<rect y="459.596" width="512" height="12.768"/>
<polygon points="501.744,459.588 435.928,459.588 407.336,459.588 104.664,459.588 76.072,459.588 10.256,459.588 0,459.588 
	0,472.356 512,472.356 512,459.588 "/>
<polygon points="440.352,92.508 437.496,89.708 447.384,79.548 436.904,69.324 439.696,66.468 453.04,79.468 "/>
<rect x="421.616" y="77.508" width="26.416" height="4"/>
<g>
	<path style="fill:#E50914;" d="M141.392,312.428c-5.24,1.944-15.48,4.624-26.44,4.624c-13.888,0-24.368-3.528-32.168-10.96
		c-7.304-6.944-11.568-17.792-11.456-30.216c0-25.944,18.52-42.632,45.688-42.632c10.112,0,18.032,2.072,21.808,3.896l-3.288,12.056
		c-4.504-1.944-9.984-3.528-18.64-3.528c-17.536,0-29.84,10.36-29.84,29.488c0,18.64,11.456,29.728,28.504,29.728
		c5.36,0,9.384-0.736,11.328-1.712v-20.464h-14.496v-11.824h29V312.428z"/>
	<path style="fill:#E50914;" d="M213.248,285.988c0,21.808-15.352,31.552-30.456,31.552c-16.816,0-29.728-11.576-29.728-30.584
		c0-19.488,12.792-31.432,30.696-31.432C201.424,255.532,213.248,267.956,213.248,285.988z M168.536,286.604
		c0,11.456,5.608,20.104,14.744,20.104c8.528,0,14.496-8.408,14.496-20.344c0-9.264-4.152-19.856-14.376-19.856
		C172.8,266.5,168.536,276.732,168.536,286.604z"/>
	<path style="fill:#E50914;" d="M281.944,285.988c0,21.808-15.352,31.552-30.456,31.552c-16.816,0-29.728-11.576-29.728-30.584
		c0-19.488,12.792-31.432,30.696-31.432C270.128,255.532,281.944,267.956,281.944,285.988z M237.232,286.604
		c0,11.456,5.6,20.104,14.744,20.104c8.528,0,14.496-8.408,14.496-20.344c0-9.264-4.144-19.856-14.376-19.856
		C241.496,266.5,237.232,276.732,237.232,286.604z"/>
	<path style="fill:#E50914;" d="M348.44,256.876c-0.24,4.016-0.488,8.888-0.488,17.056v33.624c0,12.424-2.552,21.32-8.776,26.92
		c-6.208,5.488-14.744,7.184-22.896,7.184c-7.552,0-15.592-1.584-20.712-4.752l3.288-11.328c3.776,2.184,10.112,4.504,17.296,4.504
		c9.752,0,17.056-5.12,17.056-17.912v-5.12h-0.24c-3.416,5.24-9.504,8.776-17.296,8.776c-14.744,0-25.216-12.176-25.216-28.992
		c0-19.496,12.672-31.312,26.92-31.312c9.016,0,14.376,4.392,17.176,9.256h0.24l0.608-7.912L348.44,256.876L348.44,256.876z
		 M332.968,280.628c0-1.344-0.128-2.808-0.488-4.024c-1.584-5.488-5.848-9.624-12.184-9.624c-8.408,0-14.616,7.312-14.616,19.376
		c0,10.112,5.12,18.272,14.496,18.272c5.6,0,10.48-3.656,12.176-9.016c0.368-1.584,0.608-3.656,0.608-5.36L332.968,280.628
		L332.968,280.628z"/>
	<path style="fill:#E50914;" d="M364.024,229.7h15.112v86.496h-15.112V229.7z"/>
	<path style="fill:#E50914;" d="M405.936,290.74c0.368,10.72,8.776,15.352,18.272,15.352c6.944,0,11.936-0.976,16.448-2.68
		l2.192,10.352c-5.12,2.072-12.184,3.656-20.712,3.656c-19.248,0-30.576-11.824-30.576-29.968c0-16.448,9.984-31.92,28.992-31.92
		c19.248,0,25.584,15.832,25.584,28.872c0,2.808-0.24,4.992-0.496,6.336H405.936z M432,280.268
		c0.128-5.488-2.312-14.496-12.304-14.496c-9.256,0-13.16,8.408-13.768,14.496H432z"/>
</g>
</svg>