<?xml version="1.0" encoding="UTF-8" standalone="no"?>
<!-- Uploaded to: SVG Repo, www.svgrepo.com, Generator: SVG Repo Mixer Tools -->

<svg
   height="264.21625"
   width="1399.8342"
   version="1.1"
   id="Layer_1"
   viewBox="0 0 888.42754 167.68914"
   xml:space="preserve"
   sodipodi:docname="goruntuisleme-tools.svg"
   inkscape:version="1.2.2 (b0a8486541, 2022-12-01)"
   xmlns:inkscape="http://www.inkscape.org/namespaces/inkscape"
   xmlns:sodipodi="http://sodipodi.sourceforge.net/DTD/sodipodi-0.dtd"
   xmlns="http://www.w3.org/2000/svg"
   xmlns:svg="http://www.w3.org/2000/svg"><defs
   id="defs27" /><sodipodi:namedview
   id="namedview25"
   pagecolor="#ffffff"
   bordercolor="#000000"
   borderopacity="0.25"
   inkscape:showpageshadow="2"
   inkscape:pageopacity="0.0"
   inkscape:pagecheckerboard="0"
   inkscape:deskcolor="#d1d1d1"
   showgrid="false"
   inkscape:zoom="0.47641319"
   inkscape:cx="752.49805"
   inkscape:cy="283.36747"
   inkscape:window-width="1366"
   inkscape:window-height="675"
   inkscape:window-x="0"
   inkscape:window-y="0"
   inkscape:window-maximized="1"
   inkscape:current-layer="Layer_1" />

<g
   id="g328"
   transform="matrix(0.15934661,0,0,0.12341086,98.218983,7.370541)"><g
     transform="translate(1)"
     id="g20">
	<path
   style="fill:#c49ae9"
   d="m 379.587,127.147 c 10.24,10.24 10.24,26.453 0,35.84 L 268.653,273.92 267.8,273.067 232.813,238.08 l 0.853,-0.853 110.08,-110.08 c 9.387,-10.24 25.601,-10.24 35.841,0"
   id="path2" />
	<path
   style="fill:#ecf4f7"
   d="M 268.653,273.92 46.787,495.787 c -10.24,10.24 -26.453,10.24 -35.84,0 -10.24,-10.24 -10.24,-26.453 0,-35.84 L 232.813,238.08 267.8,273.067 Z"
   id="path4" />
	<circle
   style="fill:#ffd0a1"
   cx="199.533"
   cy="68.266998"
   r="8.533"
   id="circle6" />
	<g
   id="g12">
		<circle
   style="fill:#7ee1e6"
   cx="438.46701"
   cy="179.2"
   r="8.533"
   id="circle8" />
		<circle
   style="fill:#7ee1e6"
   cx="395.79999"
   cy="8.533"
   r="8.533"
   id="circle10" />
	</g>
	<g
   id="g18">
		<circle
   style="fill:#c49ae9"
   cx="498.20001"
   cy="119.467"
   r="8.533"
   id="circle14" />
		<circle
   style="fill:#c49ae9"
   cx="165.39999"
   cy="179.2"
   r="8.533"
   id="circle16" />
	</g>
</g><path
     style="fill:#51565f"
     d="m 29.867,507.733 c -7.68,0 -15.36,-2.56 -21.333,-8.533 C 2.56,493.227 0,486.4 0,477.867 0,469.334 3.413,462.507 8.533,456.534 L 230.4,234.667 c 0.853,-0.853 1.707,-0.853 3.413,-0.853 v 0 c 0.853,0 2.56,0.853 3.413,0.853 l 13.653,13.653 c 1.707,1.707 1.707,4.267 0,5.973 -1.707,1.707 -4.267,1.707 -5.973,0 L 233.813,243.2 15.36,461.654 c -4.267,4.267 -5.973,9.387 -5.973,15.36 0,5.973 2.56,11.093 5.973,15.36 8.533,8.533 22.187,8.533 29.867,0 l 332.8,-332.8 c 4.267,-4.267 5.973,-9.387 5.973,-15.36 0,-5.973 -2.56,-11.093 -5.973,-15.36 -8.533,-8.533 -22.187,-8.533 -29.867,0 l -86.187,86.187 c -1.707,1.707 -4.267,1.707 -5.973,0 -1.706,-1.707 -1.707,-4.267 0,-5.973 l 86.187,-86.187 c 11.947,-11.947 30.72,-11.947 41.813,0 5.973,5.973 8.533,12.8 8.533,21.333 0,8.533 -3.413,15.36 -8.533,21.333 l -332.8,332.8 c -5.973,6.826 -13.653,9.386 -21.333,9.386 z M 320,345.6 c -2.56,0 -4.267,-1.707 -4.267,-4.267 v -4.267 h -4.267 c -2.56,0 -4.267,-1.707 -4.267,-4.267 0,-2.56 1.707,-4.267 4.267,-4.267 h 4.267 v -4.267 c 0,-2.56 1.707,-4.267 4.267,-4.267 2.56,0 4.267,1.707 4.267,4.267 v 4.267 h 4.267 c 2.56,0 4.267,1.707 4.267,4.267 0,2.56 -1.707,4.267 -4.267,4.267 h -4.267 v 4.267 c 0,2.56 -1.707,4.267 -4.267,4.267 z M 482.133,320 c -2.56,0 -4.267,-1.707 -4.267,-4.267 v -12.8 h -12.8 c -2.56,0 -4.267,-1.707 -4.267,-4.267 0,-2.56 1.707,-4.267 4.267,-4.267 h 12.8 v -12.8 c 0,-2.56 1.707,-4.267 4.267,-4.267 2.56,0 4.267,1.707 4.267,4.267 v 12.8 h 12.8 c 2.56,0 4.267,1.707 4.267,4.267 0,2.56 -1.707,4.267 -4.267,4.267 h -12.8 v 12.8 c 0,2.56 -1.707,4.267 -4.267,4.267 z M 362.667,285.867 c -2.56,0 -4.267,-1.707 -4.267,-4.267 v -42.667 c 0,-2.56 1.707,-4.267 4.267,-4.267 2.56,0 4.267,1.707 4.267,4.267 V 281.6 c -0.001,2.56 -1.707,4.267 -4.267,4.267 z m 76.8,-59.734 c -0.853,0 -2.56,0 -3.413,-0.853 l -28.16,-28.16 c -1.707,-1.707 -1.707,-4.267 0,-5.973 1.707,-1.707 4.267,-1.707 5.973,0 l 28.16,28.16 c 1.707,1.707 1.707,4.267 0,5.973 0,0.853 -1.707,0.853 -2.56,0.853 z m 59.733,-76.8 h -68.267 c -2.56,0 -4.267,-1.707 -4.267,-4.267 0,-2.56 1.707,-4.267 4.267,-4.267 H 499.2 c 2.56,0 4.267,1.707 4.267,4.267 0,2.561 -1.707,4.267 -4.267,4.267 z m -230.4,0 h -42.667 c -2.56,0 -4.267,-1.707 -4.267,-4.267 0,-2.56 1.707,-4.267 4.267,-4.267 H 268.8 c 2.56,0 4.267,1.707 4.267,4.267 0,2.561 -1.707,4.267 -4.267,4.267 z m -128,0 c -2.56,0 -4.267,-1.707 -4.267,-4.267 v -12.8 h -12.8 c -2.56,0 -4.267,-1.707 -4.267,-4.267 0,-2.56 1.707,-4.267 4.267,-4.267 h 12.8 v -12.8 c 0,-2.56 1.707,-4.267 4.267,-4.267 2.56,0 4.267,1.707 4.267,4.267 v 12.8 h 12.8 c 2.56,0 4.267,1.707 4.267,4.267 0,2.56 -1.707,4.267 -4.267,4.267 h -12.8 v 12.8 c 0,2.561 -1.707,4.267 -4.267,4.267 z m 270.507,-48.64 c -0.853,0 -2.56,0 -3.413,-0.853 -1.707,-1.707 -1.707,-4.267 0,-5.973 l 28.16,-28.16 c 1.707,-1.707 4.267,-1.707 5.973,0 1.707,1.707 1.707,4.267 0,5.973 l -28.16,28.16 c -0.854,0.853 -1.707,0.853 -2.56,0.853 z m -97.28,0 c -0.853,0 -2.56,0 -3.413,-0.853 l -28.16,-28.16 c -1.707,-1.707 -1.707,-4.267 0,-5.973 1.707,-1.707 4.267,-1.707 5.973,0 l 28.16,28.16 c 1.707,1.707 1.707,4.267 0,5.973 0,0.853 -0.854,0.853 -2.56,0.853 z m 48.64,-19.626 c -2.56,0 -4.267,-1.707 -4.267,-4.267 V 8.533 c 0,-2.56 1.707,-4.267 4.267,-4.267 2.56,0 4.267,1.707 4.267,4.267 V 76.8 c -0.001,2.56 -1.707,4.267 -4.267,4.267 z m 128,-8.534 c -2.56,0 -4.267,-1.707 -4.267,-4.267 V 64 h -4.267 c -2.56,0 -4.267,-1.707 -4.267,-4.267 0,-2.56 1.707,-4.267 4.267,-4.267 H 486.4 V 51.2 c 0,-2.56 1.707,-4.267 4.267,-4.267 2.56,0 4.267,1.707 4.267,4.267 v 4.267 h 4.267 c 2.56,0 4.267,1.707 4.267,4.267 0,2.56 -1.707,4.267 -4.267,4.267 h -4.267 v 4.267 c -0.001,2.559 -1.707,4.265 -4.267,4.265 z M 226.133,38.4 c -2.56,0 -4.267,-1.707 -4.267,-4.267 V 29.866 H 217.6 c -2.56,0 -4.267,-1.707 -4.267,-4.267 0,-2.56 1.707,-4.267 4.267,-4.267 h 4.267 v -4.267 c 0,-2.56 1.707,-4.267 4.267,-4.267 2.56,0 4.267,1.707 4.267,4.267 v 4.267 h 4.267 c 2.56,0 4.267,1.707 4.267,4.267 0,2.56 -1.707,4.267 -4.267,4.267 H 230.4 v 4.267 c 0,2.56 -1.707,4.267 -4.267,4.267 z"
     id="path22" /></g>
<g
   style="fill:none"
   id="g345"
   transform="matrix(4.6014506,0,0,3.2943905,660.66335,1.7829396)"><g
     id="SVGRepo_bgCarrier"
     stroke-width="0" /><g
     id="SVGRepo_tracerCarrier"
     stroke-linecap="round"
     stroke-linejoin="round" /><g
     id="SVGRepo_iconCarrier"><path
       d="m 15.9997,11 h -14 m 8,-7 -2,-2 m 6,20 h -12 m 20,-6 c 0,1.1046 -0.8954,2 -2,2 -1.1046,0 -2,-0.8954 -2,-2 0,-1.1046 2,-3 2,-3 0,0 2,1.8954 2,3 z m -13,-13 6.8686,6.86863 c 0.396,0.39597 0.5941,0.59407 0.6682,0.82237 0.0653,0.2008 0.0653,0.4172 0,0.618 -0.0741,0.2283 -0.2722,0.4264 -0.6682,0.8224 l -4.6059,4.6059 c -0.792,0.792 -1.188,1.188 -1.64467,1.3364 -0.40168,0.1305 -0.83438,0.1305 -1.23607,0 C 7.92501,17.9253 7.52899,17.5293 6.73696,16.7373 L 3.26244,13.2627 C 2.4704,12.4707 2.07439,12.0747 1.92601,11.618 1.7955,11.2163 1.7955,10.7837 1.92601,10.382 2.07439,9.92531 2.47041,9.52929 3.26244,8.73726 Z"
       stroke="#3584e4"
       stroke-width="2"
       stroke-linecap="round"
       stroke-linejoin="round"
       id="path332" /></g></g><g
   id="g351"
   transform="matrix(0.15700415,0,0,0.13991112,309.99924,5.3280152)">
	<path
   style="fill:#c9c6b8"
   d="M 449.12,512 H 71.706 C 50.317,512 31.673,497.443 26.482,476.69 H 494.344 C 489.153,497.443 470.509,512 449.12,512"
   id="path347" />
	<path
   style="fill:#724530"
   d="M 467.862,344.275 H 344.276 c -24.373,0 -44.138,-19.765 -44.138,-44.138 v -14.989 c 0,-49.434 15.431,-96.945 40.095,-139.776 10.549,-18.308 15.281,-40.369 11.679,-63.718 -6.568,-42.54 -41.949,-76.253 -84.727,-81.028 -58.633,-6.55 -108.288,39.168 -108.288,96.477 0,18.856 5.385,36.44 14.698,51.324 26.527,42.364 38.268,92.345 38.268,142.327 v 9.384 c 0,24.373 -19.765,44.138 -44.138,44.138 H 44.138 C 19.765,344.275 0,364.04 0,388.413 v 88.276 h 512 v -88.276 c 0,-24.373 -19.765,-44.138 -44.138,-44.138"
   id="path349" />
</g><g
   style="fill:none"
   id="g370"
   transform="matrix(4.8600197,0,0,2.788537,181.40121,7.2028362)"><path
     d="m 2,6 h 12.8 c 1.1201,0 1.6802,0 2.108,0.21799 0.3763,0.19174 0.6823,0.4977 0.874,0.87403 C 18,7.51984 18,8.07989 18,9.2 V 22 m 4,-4 H 9.2 C 8.07989,18 7.51984,18 7.09202,17.782 6.71569,17.5903 6.40973,17.2843 6.21799,16.908 6,16.4802 6,15.9201 6,14.8 V 2"
     stroke="#000000"
     stroke-width="2"
     stroke-linecap="round"
     stroke-linejoin="round"
     id="path361" /></g><g
   aria-label="A"
   id="text426"
   style="font-weight:bold;font-size:52.2295px;-inkscape-font-specification:'sans-serif, Bold';stroke-width:0.038322"
   transform="matrix(2.0061417,0,0,1.7903841,520.98236,-181.66951)"><path
     d="m 48.057917,141.98642 -2.715934,-8.87902 h -13.57967 l -2.715934,8.87902 H 20.53297 l 13.161834,-37.44855 h 9.662458 l 13.214063,37.44855 z m -7.31213,-24.18226 q -0.261148,-0.8879 -0.678984,-2.24587 -0.417836,-1.35796 -0.835672,-2.76816 -0.417836,-1.4102 -0.678983,-2.45479 -0.261148,1.04459 -0.731213,2.61148 -0.417836,1.51465 -0.835672,2.92485 -0.365607,1.35797 -0.574525,1.93249 l -2.663704,8.6701 h 9.714687 z"
     style="stroke-width:0.0383221"
     id="path428" /></g><g
   id="g463"
   transform="matrix(0.17399512,0,0,0.169663,439.16476,-4.5733816)"><path
     style="fill:#ff7124"
     d="M 41.266,443.45 H 260.473 L 381.138,255.956 H 105.156 L 15.217,395.707 C 1.95,416.322 16.751,443.45 41.266,443.45 Z"
     id="path431" /><polygon
     style="fill:#8ecac1"
     points="501.802,68.461 225.82,68.461 105.156,255.956 381.137,255.956 "
     id="polygon433" /><g
     id="g447">
	<path
   style="fill:#4d3d36"
   d="m 6.641,390.189 c -8.282,12.868 -8.85,28.571 -1.521,42.005 7.331,13.433 20.843,21.454 36.146,21.454 h 219.207 c 3.468,0 6.699,-1.763 8.576,-4.679 L 510.378,73.98 c 2.019,-3.138 2.164,-7.128 0.376,-10.403 -1.787,-3.276 -5.221,-5.313 -8.952,-5.313 H 225.82 c -3.468,0 -6.699,1.763 -8.576,4.679 z m 248.267,43.062 H 41.266 c -7.723,0 -14.542,-4.048 -18.241,-10.827 -3.699,-6.779 -3.412,-14.703 0.767,-21.197 L 110.72,266.154 H 362.445 Z M 375.573,245.757 H 123.847 L 231.385,78.66 h 251.726 z"
   id="path435" />
	<path
   style="fill:#4d3d36"
   d="m 352.668,433.34 h -38.449 c -5.633,0 -10.198,4.566 -10.198,10.198 0,5.633 4.566,10.198 10.198,10.198 h 38.449 c 5.633,0 10.198,-4.566 10.198,-10.198 0,-5.632 -4.566,-10.198 -10.198,-10.198 z"
   id="path437" />
	<path
   style="fill:#4d3d36"
   d="m 413.253,433.34 h -17.477 c -5.633,0 -10.198,4.566 -10.198,10.198 0,5.633 4.566,10.198 10.198,10.198 h 17.477 c 5.633,0 10.198,-4.566 10.198,-10.198 10e-4,-5.632 -4.565,-10.198 -10.198,-10.198 z"
   id="path439" />
	<path
   style="fill:#4d3d36"
   d="m 462.917,433.34 h -6.553 c -5.633,0 -10.198,4.566 -10.198,10.198 0,5.633 4.566,10.198 10.198,10.198 h 6.553 c 5.633,0 10.198,-4.566 10.198,-10.198 0,-5.632 -4.566,-10.198 -10.198,-10.198 z"
   id="path441" />
	<path
   style="fill:#4d3d36"
   d="m 110.958,315.734 c 1.73,1.14 3.678,1.685 5.605,1.685 3.313,0 6.564,-1.612 8.524,-4.585 l 3.073,-4.661 c 3.1,-4.702 1.802,-11.028 -2.9,-14.129 -4.702,-3.099 -11.028,-1.802 -14.129,2.9 l -3.073,4.661 c -3.101,4.704 -1.803,11.029 2.9,14.129 z"
   id="path443" />
	<path
   style="fill:#4d3d36"
   d="m 101.443,330.164 c -4.701,-3.101 -11.028,-1.802 -14.128,2.9 l -46.093,69.907 c -3.1,4.702 -1.802,11.028 2.9,14.128 1.729,1.14 3.677,1.685 5.604,1.685 3.313,0 6.564,-1.612 8.524,-4.586 l 46.093,-69.907 c 3.101,-4.701 1.803,-11.027 -2.9,-14.127 z"
   id="path445" />
</g></g><g
   style="fill:#000000"
   id="g482"
   transform="matrix(0.24473367,0,0,0.18664874,785.83738,8.7095967)"><g
     id="g471">
	<g
   id="g469">
		<path
   d="M 377.314,27.704 C 360.761,0.494 325.283,-8.145 298.076,8.41 l -52.561,31.977 -3.607,-5.932 C 231.424,17.226 208.961,11.755 191.729,22.237 174.5,32.72 169.032,55.184 179.512,72.415 l 7.162,11.771 -126.36,77.466 c -11.612,7.065 -30.483,32.364 -35.989,39.95 -2.97,4.09 -3.191,9.563 -0.565,13.881 l 24.784,40.738 c 2.627,4.317 7.591,6.637 12.587,5.88 9.269,-1.402 40.41,-6.529 52.024,-13.596 l 126.357,-77.467 7.161,11.771 c 10.481,17.229 32.946,22.7 50.178,12.217 17.229,-10.481 22.699,-32.946 12.217,-50.177 l -3.607,-5.93 52.561,-31.978 c 27.207,-16.552 35.846,-52.029 19.292,-79.237 z m -277.19,199.38 -0.694,-59.882 85.469,-52.59 c 0.715,8.641 3.392,17.25 8.204,25.161 4.812,7.911 11.229,14.245 18.571,18.853 z"
   id="path465" />
		<path
   d="m 52.666,276.584 c -1.823,-1.458 -4.413,-1.459 -6.238,-0.003 -1.683,1.341 -41.198,33.239 -41.198,66.973 0,27.909 18.223,47.4 44.314,47.4 26.836,0 46.314,-19.936 46.314,-47.4 10e-4,-32.082 -41.428,-65.559 -43.192,-66.97 z m 2.916,101.818 c -0.414,0.104 -0.829,0.155 -1.237,0.155 -2.231,0 -4.266,-1.506 -4.842,-3.769 -0.68,-2.672 0.931,-5.389 3.6,-6.075 0.915,-0.241 20.916,-5.754 20.913,-25.823 0,-2.762 2.237,-5 4.999,-5.001 2.762,0 5.001,2.238 5.001,4.999 0.004,22.366 -18.599,33.01 -28.434,35.514 z"
   id="path467" />
	</g>
</g></g><g
   style="fill:#000000"
   id="g492"
   transform="matrix(0.130116,0,0,0.12075099,6.3261235,-4.5750548)"><path
     d="m 611.608,334.751 c -0.826,-4.408 -3.857,-8.265 -8.265,-9.918 L 18.996,90.929 C 13.761,89 7.975,90.102 4.118,93.959 0.261,97.816 -0.841,103.602 1.087,108.836 L 234.991,693.46 c 1.653,4.132 5.51,7.439 9.918,8.265 0.827,0.275 1.929,0.275 2.755,0.275 3.582,0 6.888,-1.378 9.367,-3.858 L 383.765,571.41 490.661,678.306 c 5.51,5.51 14.051,5.51 19.561,0 l 77.968,-77.968 c 2.755,-2.48 4.133,-6.061 4.133,-9.643 0,-3.582 -1.653,-7.163 -4.133,-9.643 L 481.018,473.881 607.75,347.149 c 3.307,-3.031 4.684,-7.99 3.858,-12.398 z M 452.09,464.24 c -2.755,2.48 -4.133,6.061 -4.133,9.643 0,3.582 1.653,7.163 4.133,9.643 L 559.262,590.973 500.855,649.38 393.683,542.208 c -5.51,-5.51 -14.051,-5.51 -19.561,0 L 252.624,663.706 38.557,128.399 573.588,342.742 Z M 103.025,189.01 c 3.582,-1.378 7.439,0.276 9.092,3.857 l 153.181,382.677 c 1.378,3.582 -0.275,7.439 -3.857,9.092 -1.102,0.275 -1.929,0.55 -2.755,0.55 -2.755,0 -5.235,-1.653 -6.337,-4.408 L 99.168,198.102 c -1.378,-3.582 0.275,-7.439 3.857,-9.092 z"
     id="path484" /></g><text
   xml:space="preserve"
   style="font-weight:bold;font-size:21.0284px;font-family:sans-serif;-inkscape-font-specification:'sans-serif, Bold';fill:#000000;stroke-width:0.015429"
   x="133.08885"
   y="78.856979"
   id="text496-7"
   transform="scale(0.71083891,1.4067885)"><tspan
     sodipodi:role="line"
     id="tspan494-5"
     style="stroke-width:0.015429"
     x="133.08885"
     y="78.856979">Akıllı Seçim</tspan></text><text
   xml:space="preserve"
   style="font-weight:bold;font-size:21.0284px;font-family:sans-serif;-inkscape-font-specification:'sans-serif, Bold';fill:#000000;stroke-width:0.015429"
   x="296.51645"
   y="77.436539"
   id="text496-7-6"
   transform="scale(0.71083891,1.4067885)"><tspan
     sodipodi:role="line"
     id="tspan494-5-2"
     style="stroke-width:0.015429"
     x="296.51645"
     y="77.436539">Kırp</tspan></text><text
   xml:space="preserve"
   style="font-weight:bold;font-size:21.0284px;font-family:sans-serif;-inkscape-font-specification:'sans-serif, Bold';fill:#000000;stroke-width:0.015429"
   x="450.18033"
   y="77.899849"
   id="text496-7-6-9"
   transform="scale(0.71083891,1.4067885)"><tspan
     sodipodi:role="line"
     id="tspan494-5-2-1"
     style="stroke-width:0.015429"
     x="450.18033"
     y="77.899849">Klon</tspan></text><text
   xml:space="preserve"
   style="font-weight:bold;font-size:21.0284px;font-family:sans-serif;-inkscape-font-specification:'sans-serif, Bold';fill:#000000;stroke-width:0.015429"
   x="614.3075"
   y="79.705368"
   id="text496-7-6-9-2"
   transform="scale(0.71083891,1.4067885)"><tspan
     sodipodi:role="line"
     id="tspan494-5-2-1-7"
     style="stroke-width:0.015429"
     x="614.3075"
     y="79.705368">Silgi</tspan></text><text
   xml:space="preserve"
   style="font-weight:bold;font-size:21.0284px;font-family:sans-serif;-inkscape-font-specification:'sans-serif, Bold';fill:#000000;stroke-width:0.015429"
   x="792.84491"
   y="78.729538"
   id="text496-7-6-9-0"
   transform="scale(0.71083891,1.4067885)"><tspan
     sodipodi:role="line"
     id="tspan494-5-2-1-9"
     style="stroke-width:0.015429"
     x="792.84491"
     y="78.729538">Yazı Ekle</tspan></text><text
   xml:space="preserve"
   style="font-weight:bold;font-size:21.0284px;font-family:sans-serif;-inkscape-font-specification:'sans-serif, Bold';fill:#000000;stroke-width:0.015429"
   x="947.11444"
   y="77.140991"
   id="text496-7-6-9-3"
   transform="scale(0.71083891,1.4067885)"><tspan
     sodipodi:role="line"
     id="tspan494-5-2-1-6"
     style="stroke-width:0.015429"
     x="947.11444"
     y="77.140991">Zemin Rengi</tspan></text><text
   xml:space="preserve"
   style="font-weight:bold;font-size:21.0284px;font-family:sans-serif;-inkscape-font-specification:'sans-serif, Bold';fill:#000000;stroke-width:0.015429"
   x="1120.6051"
   y="78.513405"
   id="text496-7-6-9-06"
   transform="scale(0.71083891,1.4067885)"><tspan
     sodipodi:role="line"
     id="tspan494-5-2-1-2"
     style="stroke-width:0.015429"
     x="1120.6051"
     y="78.513405">Renk Seçici</tspan></text><text
   xml:space="preserve"
   style="font-weight:bold;font-size:21.0284px;font-family:sans-serif;-inkscape-font-specification:'sans-serif, Bold';fill:#000000;stroke-width:0.015429"
   x="41.557922"
   y="81.523842"
   id="text496-7-3"
   transform="scale(0.71083891,1.4067885)"><tspan
     sodipodi:role="line"
     id="tspan494-5-5"
     style="stroke-width:0.015429"
     x="41.557922"
     y="81.523842">Seç</tspan></text></svg>
