<?xml version="1.0" encoding="iso-8859-1"?>
<!-- Uploaded to: SVG Repo, www.svgrepo.com, Generator: SVG Repo Mixer Tools -->
<svg version="1.1" id="Layer_1" xmlns="http://www.w3.org/2000/svg" xmlns:xlink="http://www.w3.org/1999/xlink" 
	 viewBox="0 0 512.696 512.696" xml:space="preserve">
<path d="M274.816,115.768c-74.344,0-104-61.824-105.224-64.456l14.496-6.776c1.064,2.256,26.792,55.224,90.736,55.224
	c64.224,0,89.744-54.008,89.992-54.552l14.544,6.672C378.16,54.496,349.192,115.768,274.816,115.768z"/>
<g>
	<path style="fill:#E50914;" d="M206.696,404.48c0,42.392-29.832,61.336-59.2,61.336c-32.68,0-57.784-22.496-57.784-59.44
		c0-37.888,24.864-61.104,59.68-61.104C183.728,345.272,206.696,369.424,206.696,404.48z M119.792,405.656
		c0,22.256,10.888,39.08,28.648,39.08c16.576,0,28.184-16.344,28.184-39.552c0-17.992-8.056-38.6-27.944-38.6
		C128.08,366.584,119.792,386.488,119.792,405.656z"/>
	<path style="fill:#E50914;" d="M230.592,385.064c0-15.632-0.24-26.76-0.952-37.176h25.344l0.944,22.024h0.944
		c5.688-16.344,19.184-24.632,31.504-24.632c2.84,0,4.496,0.24,6.864,0.712v27.48c-2.368-0.48-4.976-0.952-8.52-0.952
		c-13.976,0-23.448,9-26.056,22.024c-0.472,2.608-0.944,5.688-0.944,9v59.68H230.6L230.592,385.064z"/>
	<path style="fill:#E50914;" d="M418.376,347.872c-0.48,7.816-0.952,17.288-0.952,33.16v65.36c0,24.16-4.968,41.44-17.048,52.336
		c-12.072,10.656-28.656,13.968-44.52,13.968c-14.68,0-30.312-3.08-40.256-9.232l6.4-22.024c7.336,4.264,19.648,8.768,33.624,8.768
		c18.944,0,33.16-9.952,33.16-34.816v-9.944h-0.48c-6.632,10.176-18.472,17.048-33.624,17.048c-28.656,0-49.024-23.68-49.024-56.36
		c0-37.888,24.624-60.864,52.336-60.864c17.52,0,27.944,8.528,33.392,18h0.48l1.176-15.392L418.376,347.872L418.376,347.872z
		 M388.304,394.064c0-2.608-0.232-5.448-0.944-7.824c-3.08-10.656-11.368-18.704-23.688-18.704c-16.336,0-28.416,14.2-28.416,37.648
		c0,19.656,9.944,35.52,28.176,35.52c10.896,0,20.368-7.104,23.68-17.52c0.712-3.08,1.184-7.104,1.184-10.424L388.304,394.064
		L388.304,394.064z"/>
</g>
<path d="M274.992,295.992c-81.608,0-148-66.392-148-148c0-81.6,66.392-147.992,148-147.992c81.6,0,147.992,66.392,147.992,147.992
	C422.984,229.608,356.592,295.992,274.992,295.992z M274.992,16.008c-72.784,0-132,59.208-132,131.992s59.216,132,132,132
	s131.992-59.216,131.992-132S347.768,16.008,274.992,16.008z"/>
<rect x="266.992" y="3.792" width="16" height="281.04"/>
<rect x="134.76" y="140" width="283.216" height="16"/>
<path d="M184.088,252.144l-14.496-6.752c1.224-2.632,30.88-64.456,105.224-64.456c74.376,0,103.344,61.272,104.536,63.88
	l-14.544,6.672c-1.024-2.208-26.096-54.552-89.992-54.552C210.56,196.936,184.352,251.592,184.088,252.144z"/>
<path d="M266.552,294.912c-2.8-2.552-68.496-63.648-68.496-146.912c0-83.408,67.216-142.248,70.08-144.712l10.448,12.12
	c-0.648,0.56-64.52,56.648-64.52,132.592c0,76.296,62.656,134.536,63.288,135.12L266.552,294.912z"/>
<path d="M283.416,294.912l-10.808-11.8c0.632-0.576,63.304-59.016,63.304-135.12c0-75.944-63.872-132.032-64.52-132.592L281.84,3.28
	c2.856,2.464,70.08,61.304,70.08,144.712C351.92,231.264,286.216,292.36,283.416,294.912z"/>
</svg>