<?xml version="1.0" encoding="iso-8859-1"?>
<!-- Uploaded to: SVG Repo, www.svgrepo.com, Generator: SVG Repo Mixer Tools -->
<svg fill="#000000" version="1.1" id="Layer_1" xmlns="http://www.w3.org/2000/svg" xmlns:xlink="http://www.w3.org/1999/xlink" 
	 viewBox="0 0 512 512" xml:space="preserve">
<g>
	<g>
		<path d="M271.175,253.302c-0.52-25.381-21.314-45.871-46.818-45.871H107.754c-9.057,0-16.425-7.368-16.425-16.425
			c0-9.057,7.368-16.425,16.425-16.425H345.26c25.829,0,46.843-21.013,46.843-46.841c0-25.829-21.014-46.843-46.843-46.843H214.524
			c-9.056,0-16.424-7.368-16.424-16.425V37.719h-30.417v26.753c0,25.829,21.013,46.843,46.841,46.843H345.26
			c9.057,0,16.425,7.368,16.425,16.425c0,9.056-7.369,16.424-16.425,16.424H107.754c-25.829,0-46.843,21.013-46.843,46.843
			s21.013,46.843,46.843,46.843h116.601c8.729,0,15.869,6.85,16.376,15.454H0v220.978h512V253.302H271.175z M481.583,443.863H30.417
			V283.719h451.166V443.863z"/>
	</g>
</g>
<g>
	<g>
		<rect x="47.816" y="300.937" width="33.286" height="30.417"/>
	</g>
</g>
<g>
	<g>
		<rect x="102.536" y="300.937" width="33.286" height="30.417"/>
	</g>
</g>
<g>
	<g>
		<rect x="157.267" y="300.937" width="33.287" height="30.417"/>
	</g>
</g>
<g>
	<g>
		<rect x="211.998" y="300.937" width="33.286" height="30.417"/>
	</g>
</g>
<g>
	<g>
		<rect x="266.719" y="300.937" width="33.286" height="30.417"/>
	</g>
</g>
<g>
	<g>
		<rect x="321.449" y="300.937" width="33.286" height="30.417"/>
	</g>
</g>
<g>
	<g>
		<rect x="376.17" y="300.937" width="33.286" height="30.417"/>
	</g>
</g>
<g>
	<g>
		<rect x="430.901" y="300.937" width="33.286" height="30.417"/>
	</g>
</g>
<g>
	<g>
		<rect x="47.816" y="348.581" width="33.286" height="30.417"/>
	</g>
</g>
<g>
	<g>
		<rect x="102.536" y="348.581" width="33.286" height="30.417"/>
	</g>
</g>
<g>
	<g>
		<rect x="157.267" y="348.581" width="33.287" height="30.417"/>
	</g>
</g>
<g>
	<g>
		<rect x="211.998" y="348.581" width="33.286" height="30.417"/>
	</g>
</g>
<g>
	<g>
		<rect x="266.719" y="348.581" width="33.286" height="30.417"/>
	</g>
</g>
<g>
	<g>
		<rect x="321.449" y="348.581" width="33.286" height="30.417"/>
	</g>
</g>
<g>
	<g>
		<rect x="376.17" y="348.581" width="33.286" height="30.417"/>
	</g>
</g>
<g>
	<g>
		<rect x="430.901" y="348.581" width="33.286" height="30.417"/>
	</g>
</g>
<g>
	<g>
		<rect x="47.816" y="396.224" width="33.286" height="30.417"/>
	</g>
</g>
<g>
	<g>
		<rect x="102.536" y="396.224" width="33.286" height="30.417"/>
	</g>
</g>
<g>
	<g>
		<rect x="157.267" y="396.224" width="197.469" height="30.417"/>
	</g>
</g>
<g>
	<g>
		<rect x="376.17" y="396.224" width="33.286" height="30.417"/>
	</g>
</g>
<g>
	<g>
		<rect x="430.901" y="396.224" width="33.286" height="30.417"/>
	</g>
</g>
</svg>