<?xml version="1.0" encoding="UTF-8" standalone="no"?>
<!-- Uploaded to: SVG Repo, www.svgrepo.com, Generator: SVG Repo Mixer Tools -->

<svg
   height="800px"
   width="800px"
   version="1.1"
   id="Layer_1"
   viewBox="0 0 489.7 489.7"
   xml:space="preserve"
   sodipodi:docname="lan.svg"
   inkscape:version="1.2.2 (b0a8486541, 2022-12-01)"
   xmlns:inkscape="http://www.inkscape.org/namespaces/inkscape"
   xmlns:sodipodi="http://sodipodi.sourceforge.net/DTD/sodipodi-0.dtd"
   xmlns="http://www.w3.org/2000/svg"
   xmlns:svg="http://www.w3.org/2000/svg"><defs
   id="defs13" /><sodipodi:namedview
   id="namedview11"
   pagecolor="#ffffff"
   bordercolor="#000000"
   borderopacity="0.25"
   inkscape:showpageshadow="2"
   inkscape:pageopacity="0.0"
   inkscape:pagecheckerboard="0"
   inkscape:deskcolor="#d1d1d1"
   showgrid="false"
   inkscape:zoom="0.78"
   inkscape:cx="400"
   inkscape:cy="400.64103"
   inkscape:window-width="1920"
   inkscape:window-height="985"
   inkscape:window-x="0"
   inkscape:window-y="0"
   inkscape:window-maximized="1"
   inkscape:current-layer="Layer_1" />
<g
   id="g8"
   transform="matrix(0.99679487,0,0,0.95760053,0,19.014042)">
	<g
   id="g6">
		<path
   id="XMLID_1284_"
   style="fill:#3c92ca"
   d="m 17.1,357.45 h 107.7 c 4.4,0 8.1,3.6 8.1,8.1 v 65.8 c 0,4.4 -3.6,8.1 -8.1,8.1 H 17.1 c -4.4,0 -8.1,-3.6 -8.1,-8.1 v -65.8 c 0,-4.5 3.7,-8.1 8.1,-8.1 z" />
		<path
   id="XMLID_1282_"
   style="fill:#3c92ca"
   d="m 365,357.45 h 107.7 c 4.4,0 8.1,3.6 8.1,8.1 v 65.8 c 0,4.4 -3.6,8.1 -8.1,8.1 H 365 c -4.4,0 -8.1,-3.6 -8.1,-8.1 v -65.8 c 0.1,-4.5 3.7,-8.1 8.1,-8.1 z" />
		<path
   d="m 116.6,448.45 c 14,0 25.3,-11.4 25.3,-25.3 v -49.4 c 0,-14 -11.4,-25.3 -25.3,-25.3 H 80 v -67.8 h 155.8 v 67.8 h -36.6 c -14,0 -25.3,11.4 -25.3,25.3 v 49.4 c 0,14 11.4,25.3 25.3,25.3 h 91.3 c 14,0 25.3,-11.4 25.3,-25.3 v -49.4 c 0,-14 -11.4,-25.3 -25.3,-25.3 h -36.6 v -67.8 h 155.8 v 67.8 h -36.6 c -14,0 -25.3,11.4 -25.3,25.3 v 49.4 c 0,14 11.4,25.3 25.3,25.3 h 91.3 c 14,0 25.3,-11.4 25.3,-25.3 v -49.4 c 0,-14 -11.4,-25.3 -25.3,-25.3 h -36.5 v -76.8 c 0,-5 -4.1,-9.1 -9.1,-9.1 H 254 v -47.3 h 74 c 18.3,0 33.2,-14.9 33.2,-33.2 V 74.45 c 0,-18.3 -14.9,-33.2 -33.2,-33.2 H 161.8 c -18.3,0 -33.2,14.9 -33.2,33.2 v 107.5 c 0,18.3 14.9,33.2 33.2,33.2 h 74 v 47.3 H 70.9 c -5,0 -9.1,4.1 -9.1,9.1 v 76.8 H 25.3 c -14,0 -25.3,11.4 -25.3,25.3 v 49.4 c 0,14 11.4,25.3 25.3,25.3 h 91.3 c 0,0 0,0.1 0,0.1 z m 181.1,-74.7 v 49.4 c 0,4 -3.2,7.2 -7.2,7.2 h -91.3 c -4,0 -7.2,-3.2 -7.2,-7.2 v -49.4 c 0,-4 3.2,-7.2 7.2,-7.2 h 91.3 c 4,-0.1 7.2,3.2 7.2,7.2 z m 174,0 v 49.4 c 0,4 -3.2,7.2 -7.2,7.2 h -91.3 c -4,0 -7.2,-3.2 -7.2,-7.2 v -49.4 c 0,-4 3.2,-7.2 7.2,-7.2 h 91.3 c 4,-0.1 7.2,3.2 7.2,7.2 z m -325,-191.8 V 74.45 c 0,-8.3 6.8,-15.1 15.1,-15.1 H 328 c 8.3,0 15.1,6.8 15.1,15.1 v 107.5 c 0,8.3 -6.8,15.1 -15.1,15.1 H 161.8 c -8.3,0 -15.1,-6.8 -15.1,-15.1 z M 18.1,423.15 v -49.4 c 0,-4 3.2,-7.2 7.2,-7.2 h 91.3 c 4,0 7.2,3.2 7.2,7.2 v 49.4 c 0,4 -3.2,7.2 -7.2,7.2 H 25.3 c -4,0 -7.2,-3.2 -7.2,-7.2 z"
   id="path4" />
	</g>
</g>
<text
   xml:space="preserve"
   style="font-size:46.2491px;fill:#000000;stroke-width:3.85409"
   x="275.93143"
   y="97.482742"
   id="text173"
   transform="scale(0.68539843,1.4590054)"><tspan
     sodipodi:role="line"
     id="tspan171"
     style="stroke-width:3.85409"
     x="275.93143"
     y="97.482742">Modem</tspan></text><text
   xml:space="preserve"
   style="font-size:23.4885px;fill:#000000;stroke-width:1.95738"
   x="33.861717"
   y="338.19321"
   id="text231"
   transform="scale(0.82316349,1.2148255)"><tspan
     sodipodi:role="line"
     id="tspan229"
     style="stroke-width:1.95738"
     x="33.861717"
     y="338.19321">Bilgisayar</tspan></text><text
   xml:space="preserve"
   style="font-size:28.562px;fill:#000000;stroke-width:2.38017"
   x="250.45349"
   y="340.97812"
   id="text235"
   transform="scale(0.82344342,1.2144125)"><tspan
     sodipodi:role="line"
     id="tspan233"
     style="stroke-width:2.38017"
     x="250.45349"
     y="340.97812">Telefon</tspan></text><text
   xml:space="preserve"
   style="font-size:29.6856px;fill:#000000;stroke-width:2.4738"
   x="392.07349"
   y="396.28705"
   id="text239"
   transform="scale(0.9642302,1.0370967)"><tspan
     sodipodi:role="line"
     id="tspan237"
     style="stroke-width:2.4738"
     x="392.07349"
     y="396.28705">Tablet</tspan></text><text
   xml:space="preserve"
   style="font-size:20.6427px;fill:#0000ff;stroke-width:1.72023"
   x="10.18193"
   y="27.159405"
   id="text325"
   transform="scale(0.98188944,1.0184446)"><tspan
     sodipodi:role="line"
     id="tspan323"
     style="fill:#0000ff;stroke-width:1.72023"
     x="10.18193"
     y="27.159405">Yerel Alan Ağı</tspan><tspan
     sodipodi:role="line"
     style="fill:#0000ff;stroke-width:1.72023"
     x="10.18193"
     y="52.962776"
     id="tspan333">Local Area Network(LAN)</tspan></text><text
   xml:space="preserve"
   style="font-size:18.9598px;fill:#000000;stroke-width:1.57999"
   x="45.619274"
   y="41.733112"
   id="text329"
   transform="scale(0.77567328,1.2892026)"><tspan
     sodipodi:role="line"
     id="tspan327"
     style="stroke-width:1.57999"
     x="45.619274"
     y="41.733112" /></text></svg>
