<?xml version="1.0" encoding="iso-8859-1"?>
<!-- Uploaded to: SVG Repo, www.svgrepo.com, Generator: SVG Repo Mixer Tools -->
<svg version="1.1" id="Layer_1" xmlns="http://www.w3.org/2000/svg" xmlns:xlink="http://www.w3.org/1999/xlink" 
	 viewBox="0 0 512 512" xml:space="preserve">
<path style="fill:#D9A382;" d="M391.865,438.47L391.865,438.47c8.537-8.537,8.537-22.378,0-30.915l-29.497-29.497l-30.913,30.916
	l29.497,29.497C369.488,447.007,383.328,447.007,391.865,438.47z"/>
<path style="fill:#E6B393;" d="M366.235,364.662h103.141l6.789-20.71h13.975c12.073,0,21.86-9.787,21.86-21.86l0,0
	c0-12.073-9.787-21.86-21.86-21.86h-13.975l-14.866-43.72c12.073,0,21.86-9.787,21.86-21.86c0-12.073-9.787-21.86-21.86-21.86
	h-60.924L366.235,364.662z"/>
<path style="fill:#FFC6A3;" d="M400.375,235.511h60.924c7.908,0,14.812,4.213,18.651,10.502c2.022-3.313,3.209-7.192,3.209-11.358
	c0-12.073-9.787-21.86-21.86-21.86h-60.924l-34.14,151.868h5.107L400.375,235.511z"/>
<g>
	<path style="fill:#D9A382;" d="M498.025,365.812L498.025,365.812c0-12.073-9.787-21.86-21.86-21.86h-75.79l-34.074,20.709
		l34.074,23.009h75.79C488.238,387.672,498.025,377.886,498.025,365.812z"/>
	<path style="fill:#D9A382;" d="M498.025,278.373c0-12.073-9.787-21.86-21.86-21.86H366.301v43.719h109.864
		C488.238,300.233,498.025,290.446,498.025,278.373z"/>
</g>
<path style="fill:#74D6FF;" d="M135.035,130.031c-2.244,0-4.483-0.88-6.157-2.631c-3.252-3.399-3.133-8.792,0.268-12.044
	c32.513-31.101,75.172-48.229,120.119-48.229c44.943,0,87.601,17.126,120.115,48.222c3.4,3.252,3.52,8.645,0.268,12.044
	c-3.252,3.401-8.644,3.52-12.044,0.268C328.276,99.613,289.8,84.164,249.265,84.164c-40.538,0-79.015,15.449-108.343,43.503
	C139.272,129.246,137.151,130.031,135.035,130.031z"/>
<path style="fill:#6FCEF5;" d="M166.44,162.861c-2.244,0-4.483-0.88-6.156-2.631c-3.252-3.399-3.133-8.792,0.267-12.044
	c24.016-22.973,55.522-35.626,88.714-35.626c33.189,0,64.694,12.651,88.712,35.623c3.4,3.252,3.52,8.645,0.268,12.044
	c-3.253,3.399-8.645,3.52-12.044,0.268c-20.832-19.924-48.154-30.898-76.936-30.898c-28.783,0-56.106,10.974-76.937,30.901
	C170.677,162.077,168.557,162.861,166.44,162.861z"/>
<path style="fill:#64B9DC;" d="M197.844,195.691c-2.244,0-4.483-0.881-6.157-2.631c-3.252-3.399-3.131-8.792,0.268-12.044
	c15.522-14.847,35.875-23.024,57.31-23.024c21.434,0,41.787,8.177,57.309,23.023c3.4,3.252,3.52,8.645,0.268,12.044
	c-3.253,3.4-8.645,3.52-12.044,0.268c-12.336-11.8-28.507-18.298-45.533-18.298s-33.197,6.499-45.533,18.299
	C202.082,194.908,199.962,195.691,197.844,195.691z"/>
<rect y="240.953" style="fill:#E6B393;" width="249.266" height="118.557"/>
<rect y="240.953" style="fill:#FFC6A3;" width="249.266" height="22.716"/>
<path style="fill:#5B5D6E;" d="M345.082,422.601l30.915-30.915l-4.015-4.015h28.395V212.795h-63.59
	c-22.771,0-44.304,10.363-58.51,28.159l0,0h-29.01v118.56h29.009l0,0c6.324,7.921,14.105,14.359,22.795,19.076L345.082,422.601z"/>
<path style="fill:#707287;" d="M336.786,212.795c-22.771,0-44.304,10.363-58.51,28.159l0,0h-29.01v22.716h29.01l0,0
	c14.207-17.796,35.74-28.159,58.51-28.159h63.59v-22.716H336.786z"/>
<path style="fill:#464655;" d="M278.275,359.513V240.954c0-16.022-12.988-29.01-29.01-29.01s-29.01,12.988-29.01,29.01v118.56
	c0,16.022,12.988,29.01,29.01,29.01S278.275,375.534,278.275,359.513z"/>
<path style="fill:#5B5D6E;" d="M249.265,211.944c-16.022,0-29.01,12.988-29.01,29.01v22.716c0-16.022,12.988-29.01,29.01-29.01
	s29.01,12.988,29.01,29.01v-22.716C278.275,224.932,265.287,211.944,249.265,211.944z"/>
<circle style="fill:#9BDC6E;" cx="249.266" cy="300.231" r="8.623"/>
<circle style="fill:#FF6465;" cx="249.266" cy="258.49" r="8.623"/>
<circle style="fill:#9BDC6E;" cx="249.266" cy="341.972" r="8.623"/>
<rect x="326.57" y="258.49" style="fill:#E6B393;" width="39.667" height="83.483"/>
</svg>