<?xml version="1.0" encoding="iso-8859-1"?>
<!-- Uploaded to: SVG Repo, www.svgrepo.com, Generator: SVG Repo Mixer Tools -->
<svg height="800px" width="800px" version="1.1" id="Layer_1" xmlns="http://www.w3.org/2000/svg" xmlns:xlink="http://www.w3.org/1999/xlink" 
	 viewBox="0 0 512 512" xml:space="preserve">
<path style="fill:#9E9E9E;" d="M464.142,220.422c-25.646,25.646-59.861,37.485-93.406,35.52
	c-28.829-1.659-57.148-13.507-79.159-35.52c-22.011-22.012-33.861-50.332-35.52-79.159c-1.965-33.545,9.874-67.761,35.52-93.406
	c47.657-47.657,124.919-47.647,172.566,0C511.799,95.513,511.799,172.765,464.142,220.422z"/>
<path style="fill:#ECF0F1;" d="M370.733,255.947c-23.904,19.942-47.953,39.726-72.062,59.45l-102.06-102.06
	c19.724-24.122,39.508-48.171,59.45-72.074c1.648,28.822,13.496,57.148,35.51,79.162
	C313.585,242.438,341.911,254.287,370.733,255.947z"/>
<path style="fill:#2196F3;" d="M298.671,315.397c-63.133,51.636-126.666,102.872-188.988,155.331
	c-16.247,13.678-40.235,12.661-55.258-2.35l-10.807-10.807c-15.011-15.023-16.017-38.999-2.338-55.246
	c52.46-62.321,103.695-125.854,155.331-188.988L298.671,315.397z"/>
<g>
	<path style="fill:#231F20;" d="M456.327,119.157c-1.247-6.573-7.575-10.898-14.16-9.646c-6.574,1.247-10.892,7.587-9.646,14.16
		c2.661,14.031-0.053,28.341-7.644,40.298c-3.585,5.649-1.912,13.135,3.738,16.722c2.012,1.278,4.26,1.889,6.48,1.889
		c4.01,0,7.933-1.989,10.241-5.625C456.234,159.782,460.138,139.256,456.327,119.157z"/>
	<path style="fill:#231F20;" d="M434.992,95.705c4.811-4.65,4.941-12.32,0.291-17.131c-0.308-0.319-0.619-0.634-0.933-0.949
		c-4.736-4.724-12.407-4.719-17.135,0.019c-4.725,4.737-4.718,12.407,0.019,17.134c0.212,0.21,0.419,0.422,0.625,0.635
		c2.377,2.459,5.543,3.695,8.712,3.695C429.604,99.111,432.641,97.979,434.992,95.705z"/>
	<path style="fill:#231F20;" d="M163.449,347.558c-21.676,17.738-39.68,32.562-56.665,46.655c-5.149,4.273-5.86,11.911-1.587,17.061
		c2.396,2.887,5.849,4.38,9.33,4.38c2.725,0,5.468-0.916,7.73-2.793c16.941-14.057,34.907-28.849,56.536-46.551
		c5.178-4.238,5.94-11.871,1.703-17.049C176.26,344.082,168.629,343.32,163.449,347.558z"/>
	<path style="fill:#231F20;" d="M191.902,324.314c-5.184,4.229-5.96,11.862-1.73,17.046c2.395,2.937,5.881,4.458,9.395,4.458
		c2.692,0,5.402-0.893,7.651-2.727l4.328-3.53c5.187-4.227,5.963-11.86,1.736-17.045s-11.861-5.962-17.045-1.736L191.902,324.314z"
		/>
	<path style="fill:#231F20;" d="M460.432,239.843c4.288-3.347,8.39-6.968,12.276-10.854C498.045,203.651,512,169.966,512,134.139
		s-13.954-69.512-39.291-94.85C447.375,13.954,413.691,0.002,377.862,0c-0.001,0-0.002,0-0.002,0
		c-35.831,0-69.517,13.953-94.851,39.288c-3.887,3.888-7.501,7.995-10.848,12.283l-9.05-9.05c-4.732-4.731-12.401-4.731-17.135,0
		c-4.731,4.731-4.731,12.402,0,17.135l12.796,12.795c-10.244,19.789-15.496,42.002-14.996,64.631
		C226.872,157.369,71.417,347.708,32.011,394.522c-16.889,20.063-16.63,48.677,0.017,68.315l-28.48,28.481
		c-4.731,4.731-4.731,12.402,0,17.134C5.915,510.818,9.015,512,12.115,512s6.201-1.184,8.567-3.549l28.482-28.482
		c9.859,8.36,21.976,12.6,34.145,12.6c12.071,0,24.187-4.16,34.177-12.571c46.872-39.455,237.426-195.099,257.443-211.774
		c0.978,0.022,1.955,0.042,2.931,0.042c21.613,0,42.759-5.242,61.688-15.039l12.797,12.797c2.366,2.366,5.466,3.549,8.567,3.549
		s6.201-1.182,8.567-3.549c4.731-4.731,4.731-12.402,0-17.135L460.432,239.843z M101.882,461.46
		c-11.522,9.701-28.242,8.988-38.889-1.649l-5.377-5.376c-0.008-0.008-0.016-0.019-0.025-0.028c-0.01-0.008-0.019-0.016-0.027-0.025
		l-5.376-5.374c-10.635-10.645-11.34-27.36-1.64-38.881c39.53-46.96,137.017-166.569,146.968-178.752l83.116,83.117
		C268.509,324.394,148.901,421.88,101.882,461.46z M342.6,263.576c-13.126,10.87-27.274,22.518-43.119,35.499l-86.55-86.551
		c12.897-15.748,24.541-29.895,35.494-43.121l-0.001-0.023c6.081,22.378,17.919,42.944,34.583,59.609
		c16.666,16.666,37.232,28.503,59.605,34.583L342.6,263.576z M371.431,243.846c-26.888-1.547-52.206-12.909-71.289-31.992
		c-19.083-19.082-30.445-44.399-31.993-71.301c-1.012-17.277,2.095-34.356,8.803-49.923l144.416,144.416
		C405.803,241.755,388.722,244.861,371.431,243.846z M455.575,211.855c-3.896,3.896-8.059,7.461-12.438,10.692L289.45,68.861
		c3.231-4.378,6.795-8.543,10.692-12.439c20.76-20.76,48.361-32.192,77.719-32.191c29.356,0.001,56.956,11.434,77.713,32.192
		C498.428,99.276,498.428,169.002,455.575,211.855L455.575,211.855z"/>
</g>
</svg>