<?xml version="1.0" encoding="utf-8"?>
<!-- Uploaded to: SVG Repo, www.svgrepo.com, Generator: SVG Repo Mixer Tools -->
<!DOCTYPE svg PUBLIC "-//W3C//DTD SVG 1.1//EN" "http://www.w3.org/Graphics/SVG/1.1/DTD/svg11.dtd">
<svg xmlns="http://www.w3.org/2000/svg" xmlns:xlink="http://www.w3.org/1999/xlink" version="1.1" id="Layer_1"  width="512" height="512" viewBox="0 0 512 512" enable-background="new 0 0 512 512" xml:space="preserve">
<g id="network_protection">
	<g>
		<path fill="#5D9CEC" d="M448,234.654c0,123.719-100.281,224-224,224c-123.711,0-224-100.281-224-224    C0,110.951,100.289,10.67,224,10.67C347.719,10.67,448,110.951,448,234.654z"/>
	</g>
	<path fill="#A0D468" d="M405.969,213.17c-45.625,3.469-60.25-23.266-54.25-31.422c10.406-14.172,59.891,20.219,63.172-5.266   c0.547-4.203,10.484-14.781,19.875-17.828C412.812,97.826,365.312,49.232,305.188,25.842c-1.703,5.641-3.172,9.953-4.031,10.375   c-34.789,16.922-75.891,24.766-100.555,57.281c-3.461,4.562-8.039,13.188-3.086,18.625c6.125,6.75,22.484-0.188,30.539,0.391   c22.336,1.609,85.352,16.281,87.383,26.484c2.062,10.219-23.906,29.516-49.273,15.516c-7.469-4.109-37.305-9.234-47.445-11.062   c-7.078-1.281-68.25,6.406-65.523,79.109c1.109,29.484,19.547,48.469,49.297,48.812c24.664,0.281,49.633-2.609,57.711,26.594   c6.844,24.75,4.242,50.375,10.344,75c2.453,9.906,7.672,23.812,20.234,24.906c19.031,1.625,31.844-11.156,43.281-24.453   c9.109-10.594,20.625-19.797,27.422-32.203c10.781-19.688,7.828-43.125,19.219-62.844   C389.891,262.451,420.375,212.076,405.969,213.17z"/>
	<g>
		<path fill="#A0D468" d="M71.883,278.295c-7.016-10.188-15.047-20.062-22.258-30.109c-6.719-9.359-32.945-51.953-45.102-58.5    C1.562,204.217,0,219.264,0,234.654c0,54.531,19.484,104.484,51.859,143.328c0.828,1,20.289-13.453,22.008-14.906    c7.18-6.109,13.203-13.562,15.891-22.719C96.039,318.998,83.695,295.467,71.883,278.295z"/>
	</g>
	<g id="shield_4_">
		<path fill="#FFCE54" d="M512,222.686l-0.062-1.078c0-3.422-2.781-6.219-6.172-6.234c-28.141-1.062-98.734-8.406-149.531-53.672    l-1.016-0.562l0.031-0.188c-0.969-0.609-2.125-0.938-3.281-0.953c-1.469,0.016-2.969,0.609-4.125,1.641    C297,206.967,226.375,214.311,198.383,215.373c-3.539,0.016-6.297,2.812-6.32,6.234L192,223.201    c4.656,127.734,83.781,226.812,156.5,277.062c2.094,1.422,4.906,1.422,6.984,0l1-0.672    C429.031,449.061,507.594,350.076,512,222.686z"/>
	</g>
	<path fill="#F6BB42" d="M362.781,255.998c0-5.891-4.781-10.672-10.672-10.672s-10.672,4.781-10.672,10.672l0,0v149.328l0,0l0,0   c0,5.891,4.781,10.672,10.672,10.672s10.672-4.781,10.672-10.672l0,0l0,0V255.998z"/>
</g>
</svg>