<?xml version="1.0" encoding="UTF-8" standalone="no"?>
<!-- Uploaded to: SVG Repo, www.svgrepo.com, Generator: SVG Repo Mixer Tools -->

<svg
   height="800px"
   width="800px"
   version="1.1"
   id="Layer_1"
   viewBox="0 0 490 490"
   xml:space="preserve"
   sodipodi:docname="networking-svgrepo-com.svg"
   inkscape:version="1.2.2 (b0a8486541, 2022-12-01)"
   xmlns:inkscape="http://www.inkscape.org/namespaces/inkscape"
   xmlns:sodipodi="http://sodipodi.sourceforge.net/DTD/sodipodi-0.dtd"
   xmlns="http://www.w3.org/2000/svg"
   xmlns:svg="http://www.w3.org/2000/svg"><defs
   id="defs2303">
	
</defs><sodipodi:namedview
   id="namedview2301"
   pagecolor="#ffffff"
   bordercolor="#000000"
   borderopacity="0.25"
   inkscape:showpageshadow="2"
   inkscape:pageopacity="0.0"
   inkscape:pagecheckerboard="0"
   inkscape:deskcolor="#d1d1d1"
   showgrid="false"
   inkscape:zoom="0.67375"
   inkscape:cx="330.24119"
   inkscape:cy="295.36178"
   inkscape:window-width="1366"
   inkscape:window-height="675"
   inkscape:window-x="0"
   inkscape:window-y="0"
   inkscape:window-maximized="1"
   inkscape:current-layer="Layer_1" />

<g
   aria-label="MAN(Metropolitan Area Network)"
   transform="matrix(1.0713065,0,0,2.3307954,-1.077314,-49.398013)"
   id="text2539"
   style="font-weight:bold;font-size:22.6747px;-inkscape-font-specification:'sans-serif, Bold';stroke-width:0.016637"><path
     d="M 16.059424,41.564011 12.159376,28.866179 h -0.0907 q 0.02268,0.453494 0.06802,1.360482 0.04535,0.906988 0.0907,1.950024 0.04535,1.020361 0.04535,1.859325 v 7.528001 H 9.2116648 V 25.374275 h 4.6709882 l 3.832024,12.380386 h 0.06802 l 4.058772,-12.380386 h 4.670988 v 16.189736 h -3.197133 v -7.664049 q 0,-0.77094 0.02267,-1.768626 0.04535,-0.997687 0.06802,-1.882001 0.04535,-0.906988 0.06802,-1.360482 h -0.0907 l -4.172145,12.675158 z"
     id="path2772" /><path
     d="m 40.502768,41.564011 -1.179084,-3.854699 h -5.895422 l -1.179085,3.854699 h -3.695976 l 5.714025,-16.25776 h 4.194819 l 5.736699,16.25776 z M 37.32831,31.065625 q -0.113373,-0.38547 -0.294771,-0.975012 -0.181398,-0.589543 -0.362795,-1.20176 -0.181398,-0.612216 -0.294771,-1.06571 -0.113374,0.453494 -0.317446,1.133735 -0.181398,0.657566 -0.362795,1.269783 -0.158723,0.589542 -0.249422,0.838964 l -1.15641,3.764 h 4.217494 z"
     id="path2774" /><path
     d="M 60.592563,41.564011 H 56.23902 L 49.187189,29.319673 h -0.0907 q 0.04535,1.156409 0.0907,2.312819 0.06802,1.15641 0.113373,2.312819 v 7.6187 H 46.239478 V 25.374275 h 4.330867 l 7.029157,12.130964 h 0.06802 q -0.02267,-1.133735 -0.06802,-2.244795 -0.04535,-1.11106 -0.0907,-2.22212 v -7.664049 h 3.083759 z"
     id="path2776" /><path
     d="m 63.540267,35.351143 q 0,-2.766313 0.793615,-5.328555 0.816289,-2.584915 2.539566,-4.648313 h 2.766314 q -1.54188,2.131422 -2.358169,4.693663 -0.793615,2.562241 -0.793615,5.26053 0,2.630265 0.793615,5.192506 0.816289,2.539567 2.335494,4.625639 H 66.873448 Q 65.150171,43.15124 64.333882,40.634348 63.540267,38.094782 63.540267,35.351143 Z"
     id="path2778" /><path
     d="M 79.208503,41.564011 75.308454,28.866179 h -0.0907 q 0.02268,0.453494 0.06802,1.360482 0.04535,0.906988 0.0907,1.950024 0.04535,1.020361 0.04535,1.859325 v 7.528001 H 72.360743 V 25.374275 h 4.670988 l 3.832025,12.380386 h 0.06802 l 4.058771,-12.380386 h 4.670988 v 16.189736 h -3.197133 v -7.664049 q 0,-0.77094 0.02268,-1.768626 0.04535,-0.997687 0.06802,-1.882001 0.04535,-0.906988 0.06802,-1.360482 h -0.0907 l -4.172145,12.675158 z"
     id="path2780" /><path
     d="m 98.57271,28.956878 q 2.56224,0 4.05877,1.473855 1.49653,1.451181 1.49653,4.14947 v 1.632578 h -7.981493 q 0.04535,1.428507 0.838964,2.244796 0.816289,0.816289 2.244795,0.816289 1.201764,0 2.176774,-0.226747 0.97501,-0.249422 2.01805,-0.748265 v 2.60759 q -0.90699,0.453494 -1.92735,0.657567 -0.99769,0.226747 -2.426197,0.226747 -1.859325,0 -3.287831,-0.680241 -1.428506,-0.702916 -2.244796,-2.108747 -0.816289,-1.405832 -0.816289,-3.537254 0,-2.176771 0.725591,-3.605277 0.748265,-1.451181 2.063397,-2.176771 1.315133,-0.72559 3.061085,-0.72559 z m 0.02267,2.403518 q -0.975012,0 -1.632578,0.634891 -0.634891,0.634892 -0.748265,1.972699 h 4.739013 q -0.0227,-1.133735 -0.58954,-1.859325 -0.56687,-0.748265 -1.76863,-0.748265 z"
     id="path2782" /><path
     d="m 112.08682,39.092468 q 0.56687,0 1.08839,-0.113373 0.52152,-0.113374 1.04304,-0.272097 v 2.516892 q -0.5442,0.226747 -1.36049,0.38547 -0.79361,0.181398 -1.74595,0.181398 -1.11106,0 -1.99537,-0.362796 -0.86164,-0.362795 -1.38316,-1.247108 -0.49884,-0.906988 -0.49884,-2.494217 v -5.963446 h -1.6099 v -1.428506 l 1.85932,-1.133735 0.97501,-2.607591 h 2.1541 v 2.630266 h 3.46923 v 2.539566 h -3.46923 v 5.963446 q 0,0.702916 0.40814,1.065711 0.40815,0.34012 1.06571,0.34012 z"
     id="path2784" /><path
     d="m 123.62825,28.956878 q 0.24942,0 0.58954,0.02267 0.34012,0.02267 0.54419,0.06802 l -0.24942,3.174458 q -0.15872,-0.04535 -0.47617,-0.06802 -0.29477,-0.04535 -0.52152,-0.04535 -0.86163,0 -1.65525,0.317446 -0.79361,0.294771 -1.29246,0.975012 -0.47617,0.680241 -0.47617,1.859325 v 6.303567 h -3.37853 V 29.183625 h 2.56225 l 0.49884,2.086072 h 0.15872 q 0.54419,-0.952337 1.49653,-1.632578 0.95234,-0.680241 2.19945,-0.680241 z"
     id="path2786" /><path
     d="m 137.79994,35.351143 q 0,3.083759 -1.63258,4.761687 -1.60991,1.677928 -4.39889,1.677928 -1.72328,0 -3.08376,-0.748265 -1.33781,-0.748266 -2.10875,-2.176772 -0.77094,-1.45118 -0.77094,-3.514578 0,-3.083759 1.6099,-4.739012 1.60991,-1.655253 4.42157,-1.655253 1.74595,0 3.08376,0.748265 1.33781,0.748265 2.10875,2.176771 0.77094,1.405831 0.77094,3.469229 z m -8.54837,0 q 0,1.836651 0.58955,2.788988 0.61221,0.929663 1.97269,0.929663 1.33781,0 1.92735,-0.929663 0.61222,-0.952337 0.61222,-2.788988 0,-1.836651 -0.61222,-2.743639 -0.58954,-0.929662 -1.95002,-0.929662 -1.33781,0 -1.95002,0.929662 -0.58955,0.906988 -0.58955,2.743639 z"
     id="path2788" /><path
     d="m 147.48201,28.956878 q 2.08608,0 3.37854,1.632578 1.29245,1.609904 1.29245,4.761687 0,3.151783 -1.3378,4.807036 -1.33781,1.632579 -3.42388,1.632579 -1.33781,0 -2.13143,-0.476169 -0.79361,-0.498843 -1.29245,-1.11106 h -0.1814 q 0.1814,0.952337 0.1814,1.813976 v 4.988434 h -3.37853 V 29.183625 h 2.74363 l 0.47617,1.609903 h 0.15873 q 0.49884,-0.748265 1.3378,-1.292458 0.83897,-0.544192 2.17677,-0.544192 z m -1.08838,2.698289 q -1.31513,0 -1.85933,0.816289 -0.52151,0.816289 -0.56686,2.494217 v 0.362795 q 0,1.791301 0.52151,2.766314 0.5442,0.952337 1.95003,0.952337 1.15641,0 1.7006,-0.952337 0.56687,-0.975013 0.56687,-2.788989 0,-3.650626 -2.31282,-3.650626 z"
     id="path2790" /><path
     d="m 166.18863,35.351143 q 0,3.083759 -1.63258,4.761687 -1.6099,1.677928 -4.39889,1.677928 -1.72328,0 -3.08376,-0.748265 -1.33781,-0.748266 -2.10875,-2.176772 -0.77094,-1.45118 -0.77094,-3.514578 0,-3.083759 1.60991,-4.739012 1.6099,-1.655253 4.42156,-1.655253 1.74596,0 3.08376,0.748265 1.33781,0.748265 2.10875,2.176771 0.77094,1.405831 0.77094,3.469229 z m -8.54836,0 q 0,1.836651 0.58954,2.788988 0.61222,0.929663 1.9727,0.929663 1.33781,0 1.92735,-0.929663 0.61222,-0.952337 0.61222,-2.788988 0,-1.836651 -0.61222,-2.743639 -0.58954,-0.929662 -1.95003,-0.929662 -1.3378,0 -1.95002,0.929662 -0.58954,0.906988 -0.58954,2.743639 z"
     id="path2792" /><path
     d="m 172.35614,41.564011 h -3.37853 V 24.331239 h 3.37853 z"
     id="path2794" /><path
     d="m 177.594,24.331239 q 0.74826,0 1.29246,0.362795 0.54419,0.34012 0.54419,1.292458 0,0.929663 -0.54419,1.292458 -0.5442,0.362795 -1.29246,0.362795 -0.77094,0 -1.31513,-0.362795 -0.52152,-0.362795 -0.52152,-1.292458 0,-0.952338 0.52152,-1.292458 0.54419,-0.362795 1.31513,-0.362795 z m 1.67793,4.852386 V 41.564011 H 175.8934 V 29.183625 Z"
     id="path2796" /><path
     d="m 188.02438,39.092468 q 0.56687,0 1.08838,-0.113373 0.52152,-0.113374 1.04304,-0.272097 v 2.516892 q -0.54419,0.226747 -1.36048,0.38547 -0.79362,0.181398 -1.74595,0.181398 -1.11106,0 -1.99538,-0.362796 -0.86164,-0.362795 -1.38315,-1.247108 -0.49885,-0.906988 -0.49885,-2.494217 v -5.963446 h -1.6099 v -1.428506 l 1.85932,-1.133735 0.97502,-2.607591 h 2.15409 v 2.630266 h 3.46923 v 2.539566 h -3.46923 v 5.963446 q 0,0.702916 0.40815,1.065711 0.40814,0.34012 1.06571,0.34012 z"
     id="path2798" /><path
     d="m 197.72915,28.934203 q 2.49422,0 3.80935,1.088385 1.33781,1.065711 1.33781,3.287832 v 8.253591 h -2.35817 l -0.65757,-1.677928 h -0.0907 q -0.79361,0.997687 -1.67792,1.451181 -0.88432,0.453494 -2.4262,0.453494 -1.65525,0 -2.74364,-0.952338 -1.08838,-0.975012 -1.08838,-2.970385 0,-1.972699 1.38316,-2.902362 1.38315,-0.952337 4.14947,-1.043036 l 2.15409,-0.06802 V 33.31042 q 0,-0.975012 -0.52152,-1.428506 -0.49884,-0.453494 -1.40583,-0.453494 -0.90699,0 -1.76862,0.272096 -0.86164,0.249422 -1.72328,0.634892 l -1.11106,-2.290145 q 0.99768,-0.521518 2.19944,-0.816289 1.22444,-0.294771 2.53957,-0.294771 z m 0.47617,6.938458 q -1.63258,0.04535 -2.26747,0.589542 -0.63489,0.544193 -0.63489,1.428506 0,0.77094 0.45349,1.111061 0.4535,0.317445 1.17909,0.317445 1.08838,0 1.83665,-0.634891 0.74826,-0.657567 0.74826,-1.836651 v -1.020361 z"
     id="path2800" /><path
     d="m 213.37469,28.956878 q 1.99537,0 3.19713,1.088385 1.20176,1.065711 1.20176,3.446554 v 8.072194 h -3.37853 v -7.23323 q 0,-1.337807 -0.47617,-1.995373 -0.47617,-0.680241 -1.51921,-0.680241 -1.54188,0 -2.10874,1.065711 -0.56687,1.043036 -0.56687,3.015735 v 5.827398 h -3.37853 V 29.183625 h 2.58491 l 0.4535,1.587229 h 0.1814 q 0.58954,-0.952338 1.6099,-1.383157 1.04304,-0.430819 2.19945,-0.430819 z"
     id="path2802" /><path
     d="m 237.31916,41.564011 -1.17908,-3.854699 h -5.89542 l -1.17909,3.854699 h -3.69597 l 5.71402,-16.25776 h 4.19482 l 5.7367,16.25776 z M 234.1447,31.065625 q -0.11337,-0.38547 -0.29477,-0.975012 -0.18139,-0.589543 -0.36279,-1.20176 -0.1814,-0.612216 -0.29477,-1.06571 -0.11338,0.453494 -0.31745,1.133735 -0.1814,0.657566 -0.36279,1.269783 -0.15873,0.589542 -0.24943,0.838964 l -1.1564,3.764 h 4.21749 z"
     id="path2804" /><path
     d="m 249.69956,28.956878 q 0.24942,0 0.58954,0.02267 0.34012,0.02267 0.54419,0.06802 l -0.24942,3.174458 q -0.15872,-0.04535 -0.47617,-0.06802 -0.29477,-0.04535 -0.52151,-0.04535 -0.86164,0 -1.65526,0.317446 -0.79361,0.294771 -1.29245,0.975012 -0.47617,0.680241 -0.47617,1.859325 v 6.303567 h -3.37853 V 29.183625 h 2.56224 l 0.49884,2.086072 h 0.15872 q 0.5442,-0.952337 1.49653,-1.632578 0.95234,-0.680241 2.19945,-0.680241 z"
     id="path2806" /><path
     d="m 257.7264,28.956878 q 2.56225,0 4.05878,1.473855 1.49653,1.451181 1.49653,4.14947 v 1.632578 h -7.9815 q 0.0454,1.428507 0.83896,2.244796 0.81629,0.816289 2.2448,0.816289 1.20176,0 2.17677,-0.226747 0.97501,-0.249422 2.01805,-0.748265 v 2.60759 q -0.90699,0.453494 -1.92735,0.657567 -0.99769,0.226747 -2.42619,0.226747 -1.85933,0 -3.28783,-0.680241 -1.42851,-0.702916 -2.2448,-2.108747 -0.81629,-1.405832 -0.81629,-3.537254 0,-2.176771 0.72559,-3.605277 0.74827,-1.451181 2.0634,-2.176771 1.31513,-0.72559 3.06108,-0.72559 z m 0.0227,2.403518 q -0.97501,0 -1.63258,0.634891 -0.63489,0.634892 -0.74826,1.972699 h 4.73901 q -0.0227,-1.133735 -0.58954,-1.859325 -0.56687,-0.748265 -1.76863,-0.748265 z"
     id="path2808" /><path
     d="m 271.10449,28.934203 q 2.49421,0 3.80935,1.088385 1.3378,1.065711 1.3378,3.287832 v 8.253591 h -2.35817 l -0.65756,-1.677928 h -0.0907 q -0.79362,0.997687 -1.67793,1.451181 -0.88431,0.453494 -2.42619,0.453494 -1.65525,0 -2.74364,-0.952338 -1.08839,-0.975012 -1.08839,-2.970385 0,-1.972699 1.38316,-2.902362 1.38316,-0.952337 4.14947,-1.043036 l 2.1541,-0.06802 V 33.31042 q 0,-0.975012 -0.52152,-1.428506 -0.49884,-0.453494 -1.40583,-0.453494 -0.90699,0 -1.76863,0.272096 -0.86164,0.249422 -1.72328,0.634892 l -1.11106,-2.290145 q 0.99769,-0.521518 2.19945,-0.816289 1.22443,-0.294771 2.53957,-0.294771 z m 0.47616,6.938458 q -1.63257,0.04535 -2.26747,0.589542 -0.63489,0.544193 -0.63489,1.428506 0,0.77094 0.4535,1.111061 0.45349,0.317445 1.17908,0.317445 1.08839,0 1.83665,-0.634891 0.74827,-0.657567 0.74827,-1.836651 v -1.020361 z"
     id="path2810" /><path
     d="m 300.24148,41.564011 h -4.35355 L 288.8361,29.319673 h -0.0907 q 0.0453,1.156409 0.0907,2.312819 0.068,1.15641 0.11338,2.312819 v 7.6187 h -3.06109 V 25.374275 h 4.33087 l 7.02916,12.130964 h 0.068 q -0.0227,-1.133735 -0.068,-2.244795 -0.0453,-1.11106 -0.0907,-2.22212 v -7.664049 h 3.08376 z"
     id="path2812" /><path
     d="m 309.15261,28.956878 q 2.56224,0 4.05877,1.473855 1.49653,1.451181 1.49653,4.14947 v 1.632578 h -7.98149 q 0.0453,1.428507 0.83896,2.244796 0.81629,0.816289 2.2448,0.816289 1.20176,0 2.17677,-0.226747 0.97501,-0.249422 2.01805,-0.748265 v 2.60759 q -0.90699,0.453494 -1.92735,0.657567 -0.99769,0.226747 -2.42619,0.226747 -1.85933,0 -3.28784,-0.680241 -1.4285,-0.702916 -2.24479,-2.108747 -0.81629,-1.405832 -0.81629,-3.537254 0,-2.176771 0.72559,-3.605277 0.74827,-1.451181 2.0634,-2.176771 1.31513,-0.72559 3.06108,-0.72559 z m 0.0227,2.403518 q -0.97501,0 -1.63258,0.634891 -0.63489,0.634892 -0.74827,1.972699 h 4.73902 q -0.0227,-1.133735 -0.58955,-1.859325 -0.56686,-0.748265 -1.76862,-0.748265 z"
     id="path2814" /><path
     d="m 322.66674,39.092468 q 0.56687,0 1.08839,-0.113373 0.52152,-0.113374 1.04303,-0.272097 v 2.516892 q -0.54419,0.226747 -1.36048,0.38547 -0.79361,0.181398 -1.74595,0.181398 -1.11106,0 -1.99537,-0.362796 -0.86164,-0.362795 -1.38316,-1.247108 -0.49884,-0.906988 -0.49884,-2.494217 v -5.963446 h -1.60991 v -1.428506 l 1.85933,-1.133735 0.97501,-2.607591 h 2.1541 v 2.630266 h 3.46923 v 2.539566 h -3.46923 v 5.963446 q 0,0.702916 0.40814,1.065711 0.40815,0.34012 1.06571,0.34012 z"
     id="path2816" /><path
     d="m 336.52098,37.233143 q -0.0907,-0.38547 -0.27209,-1.133735 -0.15872,-0.77094 -0.3628,-1.632578 -0.20407,-0.884314 -0.38547,-1.609904 -0.18139,-0.748265 -0.24942,-1.088386 h -0.0907 q -0.068,0.340121 -0.24942,1.088386 -0.15872,0.72559 -0.36279,1.609904 -0.20408,0.861638 -0.38547,1.632578 -0.1814,0.77094 -0.2721,1.179084 l -0.99769,4.285519 h -3.62795 L 325.7505,29.183625 h 3.35586 l 1.4285,5.487277 q 0.15873,0.566867 0.2721,1.360482 0.13605,0.793614 0.24942,1.541879 0.11338,0.725591 0.15873,1.15641 h 0.0907 q 0.0227,-0.317446 0.0907,-0.838964 0.068,-0.544193 0.15873,-1.11106 0.11337,-0.566868 0.18139,-1.020362 0.0907,-0.476168 0.13605,-0.634891 l 1.51921,-5.940771 h 3.71865 l 1.45118,5.940771 q 0.0907,0.317446 0.20407,1.020361 0.13605,0.702916 0.22675,1.428506 0.11337,0.725591 0.11337,1.15641 h 0.0907 q 0.0453,-0.38547 0.15872,-1.11106 0.11338,-0.748265 0.24942,-1.564554 0.15873,-0.81629 0.31745,-1.383157 l 1.47386,-5.487277 h 3.3105 l -3.55993,12.380386 h -3.6733 z"
     id="path2818" /><path
     d="m 357.94858,35.351143 q 0,3.083759 -1.63258,4.761687 -1.6099,1.677928 -4.39889,1.677928 -1.72328,0 -3.08376,-0.748265 -1.33781,-0.748266 -2.10875,-2.176772 -0.77094,-1.45118 -0.77094,-3.514578 0,-3.083759 1.60991,-4.739012 1.6099,-1.655253 4.42156,-1.655253 1.74595,0 3.08376,0.748265 1.33781,0.748265 2.10875,2.176771 0.77094,1.405831 0.77094,3.469229 z m -8.54836,0 q 0,1.836651 0.58954,2.788988 0.61222,0.929663 1.9727,0.929663 1.33781,0 1.92735,-0.929663 0.61221,-0.952337 0.61221,-2.788988 0,-1.836651 -0.61221,-2.743639 -0.58954,-0.929662 -1.95003,-0.929662 -1.3378,0 -1.95002,0.929662 -0.58954,0.906988 -0.58954,2.743639 z"
     id="path2820" /><path
     d="m 367.65336,28.956878 q 0.24942,0 0.58954,0.02267 0.34012,0.02267 0.54419,0.06802 l -0.24942,3.174458 q -0.15872,-0.04535 -0.47617,-0.06802 -0.29477,-0.04535 -0.52152,-0.04535 -0.86164,0 -1.65525,0.317446 -0.79362,0.294771 -1.29246,0.975012 -0.47617,0.680241 -0.47617,1.859325 v 6.303567 h -3.37853 V 29.183625 h 2.56224 l 0.49885,2.086072 h 0.15872 q 0.54419,-0.952337 1.49653,-1.632578 0.95234,-0.680241 2.19945,-0.680241 z"
     id="path2822" /><path
     d="m 374.41041,32.040637 q 0,0.702915 -0.068,1.405831 -0.0454,0.680241 -0.11337,1.383157 h 0.0453 q 0.34012,-0.476169 0.70291,-0.952338 0.3628,-0.498843 0.77094,-0.929662 l 3.46923,-3.764 h 3.80935 l -4.92041,5.373903 5.21518,7.006483 h -3.90005 l -3.55992,-5.011109 -1.45119,1.15641 v 3.854699 h -3.37853 V 24.331239 h 3.37853 z"
     id="path2824" /><path
     d="m 390.10134,35.351143 q 0,2.743639 -0.81629,5.283205 -0.79361,2.516892 -2.51689,4.512265 h -2.74364 q 1.54188,-2.086072 2.3355,-4.625639 0.79361,-2.562241 0.79361,-5.192506 0,-2.698289 -0.81629,-5.26053 -0.79361,-2.562241 -2.33549,-4.693663 h 2.76631 q 1.72328,2.063398 2.51689,4.648313 0.81629,2.562242 0.81629,5.328555 z"
     id="path2826" /></g><g
   id="g2594"
   transform="matrix(1.0439624,0,0,0.62622304,-13.303247,14.581865)"><ellipse
     style="fill:#24966a;stroke-width:1.08436"
     cx="244.84903"
     cy="147.8735"
     id="circle2541"
     rx="177.52303"
     ry="55.091282" /><circle
     style="fill:#24966a"
     cx="74"
     cy="441.60001"
     r="50.400002"
     id="circle2545" /><path
     style="fill:#006d49"
     d="m 109.2,406.4 c 19.2,19.2 19.2,51.2 0,70.4 C 90,496 58,496 38.8,476.8"
     id="path2547" /><circle
     style="fill:#24966a"
     cx="246"
     cy="441.60001"
     r="50.400002"
     id="circle2549" /><path
     style="fill:#006d49"
     d="m 281.2,406.4 c 19.2,19.2 19.2,51.2 0,70.4 -19.2,19.2 -51.2,19.2 -70.4,0"
     id="path2551" /><circle
     style="fill:#24966a"
     cx="418"
     cy="441.60001"
     r="50.400002"
     id="circle2553" /><path
     style="fill:#006d49"
     d="m 454,406.4 c 19.2,19.2 19.2,51.2 0,70.4 -19.2,19.2 -51.2,19.2 -70.4,0"
     id="path2555" /><g
     id="g2571">
	
	<path
   style="fill:#ea8d1f"
   d="m 254,286.4 c 0,4 -3.2,7.2 -7.2,7.2 h -1.6 c -4,0 -7.2,-3.2 -7.2,-7.2 v -81.6 c 0,-4 3.2,-7.2 7.2,-7.2 h 1.6 c 4,0 7.2,3.2 7.2,7.2 z"
   id="path2561" />
	<path
   style="fill:#ea8d1f"
   d="m 78,366.4 c 0,4 -3.2,7.2 -7.2,7.2 h -1.6 c -4,0 -7.2,-3.2 -7.2,-7.2 v -81.6 c 0,-4 3.2,-7.2 7.2,-7.2 h 1.6 c 4,0 7.2,3.2 7.2,7.2 0,0 0,81.6 0,81.6 z"
   id="path2563" />
	<path
   style="fill:#ea8d1f"
   d="m 430,366.4 c 0,4 -3.2,7.2 -7.2,7.2 h -1.6 c -4,0 -7.2,-3.2 -7.2,-7.2 v -81.6 c 0,-4 3.2,-7.2 7.2,-7.2 h 1.6 c 4,0 7.2,3.2 7.2,7.2 z"
   id="path2565" />
	<path
   style="fill:#ea8d1f"
   d="m 254,366.4 c 0,4 -3.2,7.2 -7.2,7.2 h -1.6 c -4,0 -7.2,-3.2 -7.2,-7.2 v -81.6 c 0,-4 3.2,-7.2 7.2,-7.2 h 1.6 c 4,0 7.2,3.2 7.2,7.2 z"
   id="path2567" />
	<path
   style="fill:#ea8d1f"
   d="m 430,286.4 c 0,4 -3.2,7.2 -7.2,7.2 H 69.2 c -4,0 -7.2,-3.2 -7.2,-7.2 v -1.6 c 0,-4 3.2,-7.2 7.2,-7.2 h 353.6 c 4,0 7.2,3.2 7.2,7.2 z"
   id="path2569" />
</g></g><g
   aria-label="Yönlendirici"
   transform="matrix(0.90502609,0,0,1.1049405,0.98822639,-3.7449906)"
   id="text2431"
   style="font-weight:bold;font-size:41.1536px;-inkscape-font-specification:'sans-serif, Bold';stroke-width:0.0301953"><path
     d="m 157.01332,98.130901 6.13189,-12.099158 h 6.70804 l -9.75341,17.942967 v 11.4407 h -6.17304 v -11.23493 l -9.7534,-18.148737 h 6.74919 z"
     id="path2512" /><path
     d="m 191.41779,104.13933 q 0,5.59689 -2.96306,8.64225 -2.92191,3.04537 -7.9838,3.04537 -3.12768,0 -5.59689,-1.35807 -2.42806,-1.35807 -3.82729,-3.95075 -1.39922,-2.63383 -1.39922,-6.3788 0,-5.596893 2.92191,-8.601105 2.9219,-3.004213 8.02495,-3.004213 3.16883,0 5.59689,1.358069 2.42806,1.358068 3.82728,3.950745 1.39923,2.551524 1.39923,6.296504 z m -15.51491,0 q 0,3.33344 1.06999,5.06189 1.11115,1.6873 3.58037,1.6873 2.42806,0 3.49805,-1.6873 1.11115,-1.72845 1.11115,-5.06189 0,-3.33344 -1.11115,-4.979589 -1.06999,-1.687297 -3.53921,-1.687297 -2.42806,0 -3.53921,1.687297 -1.06999,1.646149 -1.06999,4.979589 z m -2.26345,-16.955286 q 0,-1.440376 0.82307,-2.05768 0.82307,-0.658457 1.97538,-0.658457 1.1523,0 1.97537,0.658457 0.86422,0.617304 0.86422,2.05768 0,1.358069 -0.86422,2.016526 -0.82307,0.658458 -1.97537,0.658458 -1.15231,0 -1.97538,-0.658458 -0.82307,-0.658457 -0.82307,-2.016526 z m 8.10726,0 q 0,-1.440376 0.82307,-2.05768 0.82307,-0.658457 2.01653,-0.658457 1.1523,0 1.97537,0.658457 0.86423,0.617304 0.86423,2.05768 0,1.358069 -0.86423,2.016526 -0.82307,0.658458 -1.97537,0.658458 -1.19346,0 -2.01653,-0.658458 -0.82307,-0.658457 -0.82307,-2.016526 z"
     id="path2514" /><path
     d="m 209.23727,92.534012 q 3.62152,0 5.80266,1.975373 2.18114,1.934219 2.18114,6.255345 v 14.65068 h -6.13189 v -13.128 q 0,-2.428057 -0.86422,-3.621512 -0.86423,-1.234608 -2.75729,-1.234608 -2.79845,0 -3.82729,1.934219 -1.02884,1.893061 -1.02884,5.473431 v 10.57647 h -6.13188 V 92.945548 h 4.69151 l 0.82307,2.880752 h 0.32923 q 1.06999,-1.728451 2.9219,-2.51037 1.89307,-0.781918 3.9919,-0.781918 z"
     id="path2516" /><path
     d="m 229.64944,115.41541 h -6.13189 V 84.138678 h 6.13189 z"
     id="path2518" /><path
     d="m 245.32898,92.534012 q 4.65035,0 7.36649,2.674984 2.71614,2.63383 2.71614,7.531104 v 2.96306 h -14.48607 q 0.0823,2.59268 1.52268,4.07421 1.48153,1.48153 4.07421,1.48153 2.18114,0 3.95075,-0.41154 1.7696,-0.45269 3.66267,-1.35807 v 4.73267 q -1.64615,0.82307 -3.49806,1.19345 -1.81076,0.41154 -4.40343,0.41154 -3.3746,0 -5.96728,-1.23461 -2.59267,-1.27576 -4.0742,-3.82728 -1.48153,-2.55153 -1.48153,-6.41997 0,-3.95074 1.31691,-6.543417 1.35807,-2.633831 3.74498,-3.950746 2.38691,-1.316915 5.55574,-1.316915 z m 0.0411,4.362281 q -1.7696,0 -2.96306,1.152301 -1.1523,1.152301 -1.35807,3.580366 h 8.6011 q -0.0412,-2.057683 -1.06999,-3.374598 -1.02884,-1.358069 -3.20998,-1.358069 z"
     id="path2520" /><path
     d="m 273.14879,92.534012 q 3.62151,0 5.80265,1.975373 2.18114,1.934219 2.18114,6.255345 v 14.65068 h -6.13188 v -13.128 q 0,-2.428057 -0.86423,-3.621512 -0.86422,-1.234608 -2.75729,-1.234608 -2.79844,0 -3.82728,1.934219 -1.02884,1.893061 -1.02884,5.473431 v 10.57647 h -6.13189 V 92.945548 h 4.69151 l 0.82307,2.880752 h 0.32923 q 1.07,-1.728451 2.92191,-2.51037 1.89306,-0.781918 3.9919,-0.781918 z"
     id="path2522" /><path
     d="m 294.54864,115.82695 q -3.74498,0 -6.13189,-2.92191 -2.34575,-2.96306 -2.34575,-8.68341 0,-5.7615 2.38691,-8.724559 2.38691,-2.963059 6.25534,-2.963059 2.42807,0 3.9919,0.946533 1.56384,0.946533 2.46922,2.345755 h 0.20577 q -0.12346,-0.658458 -0.28808,-1.893066 -0.16461,-1.275761 -0.16461,-2.592676 v -7.20188 h 6.13188 v 31.276732 h -4.69151 l -1.19345,-2.9219 h -0.24692 q -0.90538,1.39922 -2.42807,2.38691 -1.52268,0.94653 -3.95074,0.94653 z m 2.13999,-4.89728 q 2.55152,0 3.58036,-1.48153 1.02884,-1.52268 1.06999,-4.52689 v -0.65846 q 0,-3.29229 -1.02884,-5.020741 -0.98768,-1.728452 -3.70382,-1.728452 -2.01653,0 -3.16883,1.769605 -1.1523,1.728448 -1.1523,5.020738 0,3.29229 1.1523,4.97959 1.1523,1.64614 3.25114,1.64614 z"
     id="path2524" /><path
     d="m 316.56579,84.138678 q 1.35807,0 2.34575,0.658457 0.98769,0.617304 0.98769,2.345756 0,1.687297 -0.98769,2.345755 -0.98768,0.658457 -2.34575,0.658457 -1.39922,0 -2.38691,-0.658457 -0.94653,-0.658458 -0.94653,-2.345755 0,-1.728452 0.94653,-2.345756 0.98769,-0.658457 2.38691,-0.658457 z m 3.04536,8.80687 v 22.469862 h -6.13188 V 92.945548 Z"
     id="path2526" /><path
     d="m 338.58298,92.534012 q 0.45269,0 1.06999,0.04115 0.61731,0.04115 0.98769,0.12346 l -0.45269,5.761504 q -0.28807,-0.08231 -0.86423,-0.123461 -0.53499,-0.08231 -0.94653,-0.08231 -1.56383,0 -3.00421,0.576151 -1.44038,0.534996 -2.34576,1.769604 -0.86422,1.23461 -0.86422,3.37459 v 11.4407 h -6.13189 V 92.945548 h 4.65036 l 0.90538,3.786131 h 0.28807 q 0.98769,-1.728451 2.71614,-2.963059 1.72845,-1.234608 3.9919,-1.234608 z"
     id="path2528" /><path
     d="m 347.80141,84.138678 q 1.35807,0 2.34576,0.658457 0.98769,0.617304 0.98769,2.345756 0,1.687297 -0.98769,2.345755 -0.98769,0.658457 -2.34576,0.658457 -1.39922,0 -2.3869,-0.658457 -0.94654,-0.658458 -0.94654,-2.345755 0,-1.728452 0.94654,-2.345756 0.98768,-0.658457 2.3869,-0.658457 z m 3.04537,8.80687 v 22.469862 h -6.13189 V 92.945548 Z"
     id="path2530" /><path
     d="m 366.40284,115.82695 q -5.02074,0 -7.77803,-2.75729 -2.71614,-2.79845 -2.71614,-8.76572 0,-4.11536 1.39923,-6.708035 1.39922,-2.592677 3.86844,-3.827285 2.51036,-1.234608 5.7615,-1.234608 2.3046,0 3.9919,0.45269 1.72845,0.452689 3.00421,1.069993 l -1.81076,4.732664 q -1.44037,-0.57615 -2.71613,-0.946533 -1.23461,-0.370382 -2.46922,-0.370382 -4.77382,0 -4.77382,6.790346 0,3.37459 1.23461,4.97958 1.27576,1.60499 3.53921,1.60499 1.93422,0 3.41575,-0.49384 1.48153,-0.535 2.88075,-1.44038 v 5.22651 q -1.39922,0.90538 -2.96306,1.27576 -1.52268,0.41154 -3.86844,0.41154 z"
     id="path2532" /><path
     d="m 381.50622,84.138678 q 1.35807,0 2.34575,0.658457 0.98769,0.617304 0.98769,2.345756 0,1.687297 -0.98769,2.345755 -0.98768,0.658457 -2.34575,0.658457 -1.39922,0 -2.38691,-0.658457 -0.94653,-0.658458 -0.94653,-2.345755 0,-1.728452 0.94653,-2.345756 0.98769,-0.658457 2.38691,-0.658457 z m 3.04536,8.80687 V 115.41541 H 378.4197 V 92.945548 Z"
     id="path2534" /></g><g
   aria-label="Ev"
   id="text2697"
   style="font-weight:bold;font-size:50.4054px;-inkscape-font-specification:'sans-serif, Bold';stroke-width:0.0369836"><path
     d="M 47.731909,371.15366 H 27.01529 V 335.1642 h 20.716619 v 6.25027 H 34.626505 v 7.91365 h 12.198107 v 6.25027 H 34.626505 v 9.27459 h 13.105404 z"
     id="path2707" /><path
     d="M 61.190124,371.15366 50.705801,343.63231 h 7.863242 l 5.292567,15.67608 q 0.453649,1.41135 0.705676,2.92351 0.302432,1.51216 0.352838,2.72189 h 0.201621 q 0.151216,-2.72189 1.108919,-5.6454 l 5.292567,-15.67608 h 7.863242 L 68.90215,371.15366 Z"
     id="path2709" /></g><g
   aria-label="ofis"
   id="text2701"
   style="font-weight:bold;font-size:50.4054px;-inkscape-font-specification:'sans-serif, Bold';stroke-width:0.0369836"><path
     d="m 228.10009,352.30025 q 0,6.85513 -3.62919,10.58513 -3.57878,3.73 -9.77865,3.73 -3.83081,0 -6.85513,-1.66338 -2.97392,-1.66337 -4.6877,-4.83891 -1.71379,-3.22595 -1.71379,-7.81284 0,-6.85514 3.57879,-10.53473 3.57878,-3.67959 9.82905,-3.67959 3.88121,0 6.85513,1.66337 2.97392,1.66338 4.6877,4.83892 1.71379,3.12514 1.71379,7.71203 z m -19.00284,0 q 0,4.08284 1.31054,6.19986 1.36095,2.06662 4.38527,2.06662 2.97392,0 4.28446,-2.06662 1.36095,-2.11702 1.36095,-6.19986 0,-4.08284 -1.36095,-6.09905 -1.31054,-2.06663 -4.33486,-2.06663 -2.97392,0 -4.33487,2.06663 -1.31054,2.01621 -1.31054,6.09905 z"
     id="path2712" /><path
     d="m 249.52236,344.23538 h -6.5023 v 21.87595 h -7.5104 v -21.87595 h -4.13325 v -3.62918 l 4.13325,-2.01622 v -2.01622 q 0,-3.52837 1.15932,-5.44378 1.20973,-1.96581 3.37716,-2.7723 2.21784,-0.80648 5.19176,-0.80648 2.21784,0 3.98202,0.35284 1.8146,0.35283 2.92352,0.80648 l -1.91541,5.49419 q -0.85689,-0.25203 -1.865,-0.45365 -1.00811,-0.25203 -2.31865,-0.25203 -1.56256,0 -2.31864,0.95771 -0.70568,0.9577 -0.70568,2.41946 v 1.71378 h 6.5023 z m 8.06486,-16.43216 q 1.66338,0 2.87311,0.80649 1.20973,0.75608 1.20973,2.87311 0,2.06662 -1.20973,2.87311 -1.20973,0.80648 -2.87311,0.80648 -1.71378,0 -2.92351,-0.80648 -1.15933,-0.80649 -1.15933,-2.87311 0,-2.11703 1.15933,-2.87311 1.20973,-0.80649 2.92351,-0.80649 z m 3.73,10.78676 v 27.52135 h -7.5104 v -27.52135 z"
     id="path2714" /><path
     d="m 288.38489,357.94565 q 0,4.18365 -2.97392,6.45189 -2.92351,2.21784 -8.77054,2.21784 -2.87311,0 -4.93973,-0.40324 -2.06662,-0.35284 -4.13324,-1.20973 v -6.19986 q 2.21784,1.0081 4.78851,1.66337 2.57068,0.65527 4.53649,0.65527 2.21783,0 3.12513,-0.65527 0.9577,-0.65527 0.9577,-1.71378 0,-0.70568 -0.40324,-1.26014 -0.35284,-0.55445 -1.61297,-1.26013 -1.26014,-0.70568 -3.93162,-1.81459 -2.57068,-1.10892 -4.23406,-2.16744 -1.66337,-1.10892 -2.46986,-2.62108 -0.80649,-1.56256 -0.80649,-3.88121 0,-3.83081 2.97392,-5.74622 2.97392,-1.9154 7.91365,-1.9154 2.57067,0 4.88932,0.50405 2.31865,0.50405 4.78852,1.66338 l -2.26825,5.39338 q -2.01621,-0.8569 -3.83081,-1.41136 -1.81459,-0.60486 -3.67959,-0.60486 -3.32676,0 -3.32676,1.81459 0,0.65527 0.40325,1.20973 0.45364,0.50406 1.66337,1.10892 1.26014,0.60487 3.6796,1.61298 2.36905,0.9577 4.08283,2.01621 1.71379,1.00811 2.62109,2.57068 0.9577,1.51216 0.9577,3.98202 z"
     id="path2716" /></g><g
   aria-label="okul"
   id="text2705"
   style="font-weight:bold;font-size:50.4054px;-inkscape-font-specification:'sans-serif, Bold';stroke-width:0.0369836"><path
     d="m 399.23556,351.23766 q 0,6.85513 -3.62919,10.58513 -3.57879,3.73 -9.77865,3.73 -3.83081,0 -6.85513,-1.66338 -2.97392,-1.66338 -4.68771,-4.83892 -1.71378,-3.22594 -1.71378,-7.81283 0,-6.85514 3.57878,-10.53473 3.57879,-3.6796 9.82906,-3.6796 3.88121,0 6.85513,1.66338 2.97392,1.66338 4.6877,4.83892 1.71379,3.12514 1.71379,7.71203 z m -19.00284,0 q 0,4.08283 1.31054,6.19986 1.36095,2.06662 4.38527,2.06662 2.97392,0 4.28446,-2.06662 1.36094,-2.11703 1.36094,-6.19986 0,-4.08284 -1.36094,-6.09906 -1.31054,-2.06662 -4.33487,-2.06662 -2.97391,0 -4.33486,2.06662 -1.31054,2.01622 -1.31054,6.09906 z"
     id="path2719" /><path
     d="m 412.9458,343.87847 q 0,1.56257 -0.15122,3.12513 -0.10081,1.51217 -0.25202,3.07473 h 0.10081 q 0.75608,-1.05851 1.56256,-2.11702 0.80649,-1.10892 1.71379,-2.06663 l 7.71202,-8.36729 h 8.46811 l -10.93797,11.94608 11.59324,15.57527 h -8.66973 l -7.91365,-11.1396 -3.22594,2.57068 v 8.56892 h -7.51041 v -38.30811 h 7.51041 z"
     id="path2721" /><path
     d="m 461.93989,337.52739 v 27.52135 h -5.74621 l -1.00811,-3.52838 h -0.40325 q -1.31054,2.11703 -3.62918,3.07473 -2.26825,0.9577 -4.83892,0.9577 -4.43568,0 -7.10716,-2.36905 -2.67149,-2.41946 -2.67149,-7.71203 v -17.94432 h 7.5104 v 16.07932 q 0,2.92351 1.05852,4.43568 1.05851,1.51216 3.37716,1.51216 3.42757,0 4.6877,-2.31865 1.26014,-2.36905 1.26014,-6.75432 v -12.95419 z"
     id="path2723" /><path
     d="m 477.31352,365.04874 h -7.51041 v -38.30811 h 7.51041 z"
     id="path2725" /></g></svg>
