<?xml version="1.0" encoding="iso-8859-1"?>
<!-- Uploaded to: SVG Repo, www.svgrepo.com, Generator: SVG Repo Mixer Tools -->
<!DOCTYPE svg PUBLIC "-//W3C//DTD SVG 1.1//EN" "http://www.w3.org/Graphics/SVG/1.1/DTD/svg11.dtd">
<svg fill="#000000" version="1.1" id="Capa_1" xmlns="http://www.w3.org/2000/svg" xmlns:xlink="http://www.w3.org/1999/xlink" 
	 width="800px" height="800px" viewBox="0 0 184.538 184.538"
	 xml:space="preserve">
<g>
	<path d="M146.992,105.095H79.033c-20.529,0-24.516-28.103-24.683-29.352L44.745,6.273c-0.55-3.976-4.215-6.75-8.196-6.205
		c-3.977,0.55-6.754,4.219-6.205,8.196l9.596,69.398c1.86,14.497,12.405,41.893,38.988,41.964
		c1.002,5.859,6.104,10.336,12.245,10.336h5.441v28.028H78.801c-9.037,0-16.39,7.353-16.39,16.389v2.736
		c0,4.014,3.254,7.27,7.269,7.27c4.015,0,7.269-3.255,7.269-7.27v-2.736c0-1.021,0.831-1.852,1.853-1.852h17.812v4.741
		c0,4.014,3.254,7.269,7.27,7.269c4.015,0,7.269-3.254,7.269-7.269v-4.74h17.813c1.021,0,1.852,0.831,1.852,1.852v2.736
		c0,4.014,3.254,7.27,7.269,7.27c4.016,0,7.27-3.255,7.27-7.27v-2.736c0-9.036-7.353-16.389-16.389-16.389h-17.813v-28.028h5.441
		c6.139,0,11.239-4.476,12.242-10.333h18.157c4.015,0,7.27-3.254,7.27-7.269S151.006,105.095,146.992,105.095z"/>
</g>
</svg>