<?xml version="1.0" encoding="iso-8859-1"?>
<!-- Uploaded to: SVG Repo, www.svgrepo.com, Generator: SVG Repo Mixer Tools -->
<svg version="1.1" id="Layer_1" xmlns="http://www.w3.org/2000/svg" xmlns:xlink="http://www.w3.org/1999/xlink" 
	 viewBox="0 0 503.6 503.6" xml:space="preserve">
<path style="fill:#61C2AB;" d="M269.4,94.8c-5.6,0-11.2,2.4-15.2,6.4L37,318.4c0,0.4-0.4,0.8-0.4,1.2c-40.8,40.8-40.8,107.2,0,147.6
	c40.8,40.8,106.8,40.8,147.6,0c0.4-0.4,0.8-0.4,1.2-0.4l217.2-217.2c4-4,6.4-9.2,6.4-15.2s-2.4-11.2-6.4-15.2L284.2,100.8
	C280.6,97.2,275,94.8,269.4,94.8z"/>
<g>
	<path style="fill:#E8E3E3;" d="M497,116L388.2,7.2l-96,96L401,212L497,116z M356.6,129.6c-0.4,0-1.2-0.4-1.2-0.4l-23.6-23.6
		c-0.8-0.8-0.8-2,0-2.8l23.6-23.6c0.4-0.4,0.8-0.4,1.2-0.4s1.2,0.4,1.2,0.4l23.6,23.6c0.8,0.8,0.8,2,0,2.8l-23.6,23.6
		C357.4,129.2,357,129.6,356.6,129.6z M376.2,147.2l23.6-23.6c0.8-0.8,2-0.8,2.8,0l23.6,23.6c0.8,0.8,0.8,2,0,2.8l-23.6,23.6
		c-0.4,0.4-0.8,0.4-1.2,0.4s-1.2-0.4-1.2-0.4L376.6,150C375.4,149.2,375.4,148,376.2,147.2z"/>
	
		<rect x="341.856" y="84.15" transform="matrix(-0.7071 -0.7071 0.7071 -0.7071 541.6817 427.8713)" style="fill:#E8E3E3;" width="35.2" height="35.2"/>
	
		<rect x="385.497" y="131.05" transform="matrix(0.707 0.7072 -0.7072 0.707 223.2305 -241.5196)" style="fill:#E8E3E3;" width="35.2" height="35.2"/>
</g>
<path style="fill:#CCCCCC;" d="M142.6,354L142.6,354L142.6,354z"/>
<path d="M402.2,217.2c-1.2,0-2-0.4-2.8-1.2c-1.6-1.6-1.6-4,0-5.6l94.4-94.4l-106-106l-94.4,94.4c-1.6,1.6-4,1.6-5.6,0s-1.6-4,0-5.6
	L385,1.2c1.6-1.6,4-1.6,5.6,0l111.6,111.6c0.8,0.8,1.2,1.6,1.2,2.8s-0.4,2-1.2,2.8L404.6,216C404.2,216.8,403,217.2,402.2,217.2z"/>
<path d="M356.2,131.6c-1.2,0-2-0.4-2.8-1.2l-23.6-23.6c-1.6-1.6-1.6-4,0-5.6l23.6-23.6c1.6-1.6,4-1.6,5.6,0s1.6,4,0,5.6L338.2,104
	l18,18l18-18l-9.6-9.6c-1.6-1.6-1.6-4,0-5.6s4-1.6,5.6,0l12.4,12.4c1.6,1.6,1.6,4,0,5.6L359,130.4
	C358.2,131.2,357,131.6,356.2,131.6z"/>
<path d="M401,176.4c-1.2,0-2-0.4-2.8-1.2l-23.6-23.6c-1.6-1.6-1.6-4,0-5.6l23.6-23.6c1.6-1.6,4-1.6,5.6,0s1.6,4,0,5.6L383,148.8
	l18,18l18-18l-9.6-9.6c-1.6-1.6-1.6-4,0-5.6s4-1.6,5.6,0l12.4,12.4c1.6,1.6,1.6,4,0,5.6l-23.6,23.6C403,176,402.2,176.4,401,176.4z"
	/>
<path d="M110.6,503.6c-28.4,0-56.4-10.8-78-32.4c-20.8-20.8-32.4-48.4-32.4-78c0-28.8,11.2-56,31.2-76.8c0-0.8,0.4-1.2,0.8-1.6
	l218-218c5.2-5.2,12-8,19.2-8s14,2.8,19.2,8L407,215.2c5.2,5.2,8,12,8,19.2s-2.8,14-8,19.2l-218,218c-0.4,0.4-1.2,0.8-1.6,0.8
	C166.2,493.2,138.2,503.6,110.6,503.6z M39.4,319.2c0,0.4-0.4,1.2-0.8,1.6c-19.2,19.2-30,45.2-30,72.4c0,27.2,10.8,53.2,30,72.4
	c40,40,104.8,40,144.8,0c0.4-0.4,1.2-0.8,1.6-0.8L401.8,248c3.6-3.6,5.6-8.4,5.6-13.6s-2-10-5.6-13.6L283.4,102.4
	c-3.6-3.6-8.4-5.6-13.6-5.6c-5.2,0-10,2-13.6,5.6L39.4,319.2z"/>
<path d="M110.6,475.6L110.6,475.6c-22,0-42.8-8.4-58.4-24c-15.6-15.6-24-36.4-24-58.4s8.4-42.8,24-58.4c1.6-1.6,2.8-3.2,4-4.8
	l0.4-0.4l173.2-173.2c1.6-1.6,4-1.6,5.6,0s1.6,4,0,5.6L62.2,335.2c-1.6,2-3.2,3.6-4.8,5.6c-14,14-21.6,32.8-21.6,52.4
	c0,20,7.6,38.4,21.6,52.4s32.8,21.6,52.4,21.6l0,0c20,0,38.4-7.6,52.4-21.6c1.6-1.6,3.6-3.2,5.6-4.8l206-206l-106-106l-6,6
	c-1.6,1.6-4,1.6-5.6,0s-1.6-4,0-5.6l8.8-8.8c1.6-1.6,4-1.6,5.6,0l0,0L382.2,232c1.6,1.6,1.6,4,0,5.6L173,446.8l-0.4,0.4
	c-1.6,1.2-3.2,2.8-4.8,4C153,467.2,132.6,475.6,110.6,475.6z"/>
<path d="M247.8,274.8c-5.6,0-11.2-2-15.6-6.4c-8.4-8.8-8.4-22.8,0-31.2c8.8-8.4,22.8-8.4,31.2,0l0,0c8.4,8.4,8.4,22.4,0,31.2
	C259,272.4,253.4,274.8,247.8,274.8z M247.8,238.4c-3.6,0-7.2,1.2-10,4c-5.6,5.6-5.6,14.4,0,20s14.4,5.6,20,0s5.6-14.4,0-20
	C255,240,251.4,238.4,247.8,238.4z"/>
<path d="M230.6,346.4c-10,0-18-8-18-18s8-18,18-18s18,8,18,18S240.6,346.4,230.6,346.4z M230.6,318c-5.6,0-10,4.4-10,10
	s4.4,10,10,10s10-4.4,10-10S236.2,318,230.6,318z"/>
<path d="M147.8,356.8c-1.2,0-2-0.4-2.8-1.2c-1.6-1.6-1.6-4,0-5.6l87.2-87.2c1.6-1.6,4-1.6,5.6,0s1.6,4,0,5.6l-87.2,87.2
	C149.8,356.4,148.6,356.8,147.8,356.8z"/>
<path d="M125.8,378.8c-1.2,0-2-0.4-2.8-1.2c-1.2-1.2-1.6-2.8-0.8-4l10.8-32.8c0.4-1.2,1.6-2.4,2.8-2.8s2.8,0,3.6,1.2l22,22
	c0.8,0.8,1.2,2.4,1.2,3.6s-1.2,2.4-2.8,2.8L127,378.4C126.6,378.4,126.2,378.8,125.8,378.8z M138.6,349.2l-6.4,19.2l19.2-6.4
	L138.6,349.2z"/>
<path d="M149.8,322.8L149.8,322.8c-1.2,0-2-0.4-2.8-1.2l-20-20c-1.6-1.6-1.6-4,0-5.6l20-20c0.8-0.8,1.6-1.2,2.8-1.2l0,0
	c1.2,0,2,0.4,2.8,1.2l20,20c1.6,1.6,1.6,4,0,5.6l-20,20C151.8,322.4,151,322.8,149.8,322.8z M135.4,298.8l14.4,14.4l14.4-14.4
	l-14.4-14.4L135.4,298.8z"/>
<path d="M163.4,292.4c-1.2,0-2-0.4-2.8-1.2c-1.6-1.6-1.6-4,0-5.6l19.6-18.4c0.8-0.8,1.6-1.2,2.8-1.2h44c2.4,0,4,1.6,4,4s-1.6,4-4,4
	h-42.4l-18.4,17.2C165.4,292,164.6,292.4,163.4,292.4z"/>
<path d="M230.6,315.6c-2.4,0-4-1.6-4-4v-40.8c0-2.4,1.6-4,4-4s4,1.6,4,4v40.8C234.6,314,232.6,315.6,230.6,315.6z"/>
</svg>