<?xml version="1.0" encoding="iso-8859-1"?>
<!-- Uploaded to: SVG Repo, www.svgrepo.com, Generator: SVG Repo Mixer Tools -->
<svg height="800px" width="800px" version="1.1" id="Layer_1" xmlns="http://www.w3.org/2000/svg" xmlns:xlink="http://www.w3.org/1999/xlink" 
	 viewBox="0 0 512 512" xml:space="preserve">
<g transform="translate(1 1)">
	<path style="fill:#FFDD09;" d="M33.133,255c0,136.533,98.987,247.467,221.867,247.467S476.867,391.533,476.867,255
		S377.88,7.533,255,7.533S33.133,118.467,33.133,255"/>
	<path style="fill:#1CD759;" d="M144.067,468.333l-5.12,5.12C60.44,431.64,7.533,349.72,7.533,255
		C7.533,118.467,118.467,7.533,255,7.533v256L144.067,468.333z"/>
	<path style="fill:#FFFFFF;" d="M33.133,255C33.133,118.467,132.12,7.533,255,7.533C118.467,7.533,7.533,118.467,7.533,255
		S118.467,502.467,255,502.467C132.12,502.467,33.133,391.533,33.133,255"/>
	<path style="fill:#FD9808;" d="M255,7.533c122.88,0,221.867,110.933,221.867,247.467S377.88,502.467,255,502.467
		c136.533,0,247.467-110.933,247.467-247.467S391.533,7.533,255,7.533"/>
	<path style="fill:#54C9FD;" d="M255,263.533l-110.933,204.8l-5.12,5.12c34.133,18.773,74.24,29.013,116.053,29.013
		c85.333,0,160.427-42.667,204.8-108.373L255,263.533z"/>
	<path d="M255,511C114.2,511-1,395.8-1,255S114.2-1,255-1s256,115.2,256,256S395.8,511,255,511z M255,16.067
		C123.587,16.067,16.067,123.587,16.067,255S123.587,493.933,255,493.933S493.933,386.413,493.933,255S386.413,16.067,255,16.067z"
		/>
	<path d="M140.653,483.693l-5.973-2.56C51.053,436.76-1,349.72-1,255C-1,114.2,114.2-1,255-1h8.533v267.093L150.04,474.307
		L140.653,483.693z M246.467,16.067c-128,4.267-230.4,110.08-230.4,238.933c0,86.187,46.08,165.547,121.173,208.213l109.227-202.24
		V16.067z"/>
	<path d="M255,511c-41.813,0-83.627-10.24-120.32-29.867l-10.24-5.12l12.8-12.8l114.347-211.627l220.16,139.947l-5.12,7.68
		C418.84,469.187,339.48,511,255,511z M152.6,470.893c31.573,15.36,67.413,23.04,102.4,23.04c75.947,0,147.627-35.84,192.853-97.28
		L258.413,275.48L152.6,470.893z"/>
</g>
</svg>