<?xml version="1.0" encoding="iso-8859-1"?>
<!-- Uploaded to: SVG Repo, www.svgrepo.com, Generator: SVG Repo Mixer Tools -->
<svg xmlns="http://www.w3.org/2000/svg" xmlns:xlink="http://www.w3.org/1999/xlink" version="1.1" id="Layer_1"  viewBox="0 0 428.086 428.086" xml:space="preserve" width="512" height="512">
<g>
	<path style="fill:#0071CE;" d="M0,171.192c0-9.149,7.416-16.566,16.566-16.566H411.52c9.148,0,16.564,7.416,16.564,16.566   l0.002,16.564c0,47.334-38.371,85.704-85.705,85.704H85.705C38.371,273.461,0,235.091,0,187.757V171.192z"/>
	<path style="fill:#00B3E3;" d="M1.867,205.577c2.343,11.074,6.818,21.358,12.984,30.4h398.383   c6.166-9.043,10.642-19.326,12.984-30.4H1.867z"/>
	<g>
		<path style="fill:#A77F73;" d="M308.749,85.869L183.898,210.72c-5.894,5.894-23.86-6.418-38.003,7.724L76.6,287.74    c-7.778,7.778-7.778,20.506,0,28.284l25.156,25.156c7.778,7.778,20.506,7.778,28.284,0l69.297-69.296    c14.132-14.134,1.848-32.086,7.712-37.991L331.911,109.03L308.749,85.869z"/>
		<path style="fill:#FFC843;" d="M331.911,85.869c-6.396-6.396-16.766-6.396-23.162,0l-53.274,53.273l23.162,23.162l53.273-53.274    C338.307,102.635,338.308,92.264,331.911,85.869z"/>
		
			<rect x="227.517" y="166.385" transform="matrix(0.7071 0.7071 -0.7071 0.7071 194.3903 -121.5294)" style="fill:#FFFFFF;" width="32.755" height="15.001"/>
	</g>
	<path style="fill:#454F58;" d="M315.589,154.627h-15c0-16.922-13.768-30.689-30.689-30.689h-10.994   c-16.922,0-30.689,13.768-30.689,30.689h-15c0-25.193,20.496-45.689,45.689-45.689h10.994   C295.093,108.937,315.589,129.433,315.589,154.627z"/>
	<path style="fill:#FFFFFF;" d="M126.043,190.362h-86c-4.143,0-7.5-3.357-7.5-7.5c0-4.143,3.357-7.5,7.5-7.5h86   c4.143,0,7.5,3.357,7.5,7.5C133.543,187.005,130.186,190.362,126.043,190.362z"/>
</g>















</svg>