<?xml version="1.0" encoding="iso-8859-1"?>
<!-- Uploaded to: SVG Repo, www.svgrepo.com, Generator: SVG Repo Mixer Tools -->
<svg height="800px" width="800px" version="1.1" id="Layer_1" xmlns="http://www.w3.org/2000/svg" xmlns:xlink="http://www.w3.org/1999/xlink" 
	 viewBox="0 0 512 512" xml:space="preserve">
<g>
	<path style="fill:#3D6DEB;" d="M297.934,262.151l-21.898,28.816c-0.23,0.302-0.499,0.572-0.804,0.802l-28.821,21.91
		c1.239,0.287,2.488,0.515,3.742,0.687c0.19,0.012,0.381,0.037,0.571,0.077c4.804,0.581,9.57,0.361,14.218-0.63
		c4.799-1.021,9.347-2.834,13.515-5.387c15.518-9.493,23.399-27.833,19.622-45.633C298.033,262.579,297.984,262.364,297.934,262.151
		z"/>
	<path style="fill:#3D6DEB;" d="M261.828,229.106c-0.158-0.01-0.317-0.03-0.475-0.062c-1.768-0.222-3.55-0.334-5.306-0.334
		c-2.988,0-6.015,0.321-8.994,0.953c-23.196,4.932-38.059,27.816-33.134,51.017c0.045,0.215,0.096,0.43,0.144,0.645l21.902-28.818
		c0.23-0.304,0.499-0.574,0.801-0.804l28.828-21.907C264.346,229.509,263.091,229.279,261.828,229.106z"/>
	<path style="fill:#3D6DEB;" d="M82.355,292.072l36.119,4.858c1.758,0.237,3.178,1.553,3.547,3.287
		c0.368,1.734-0.393,3.515-1.905,4.445l-31.073,19.156c7.95,25.576,21.93,49.229,40.646,68.781c0.138-0.346,0.324-0.678,0.561-0.99
		l69.491-91.436l-51.606-1.333c-1.941-0.05-3.594-1.425-3.997-3.324c-0.403-1.899,0.547-3.826,2.301-4.66l50.466-24.047
		c0.492-6.01,1.902-11.865,4.203-17.473l-20.747-21.848c-1.338-1.407-1.534-3.547-0.475-5.175c1.056-1.628,3.089-2.32,4.922-1.67
		l28.4,10.065c4.18-4.38,8.954-8.049,14.249-10.945l1.442-55.889c0.049-1.941,1.427-3.594,3.324-3.997
		c1.889-0.406,3.822,0.544,4.658,2.298l24.061,50.488c6.918,0.588,13.784,2.422,20.121,5.377l94.807-72.054
		c0.312-0.235,0.643-0.421,0.987-0.559c-32.686-31.313-75.449-48.507-120.861-48.507c-6.765,0-13.592,0.394-20.336,1.175
		l-4.856,36.12c-0.237,1.758-1.551,3.178-3.285,3.547c-1.731,0.371-3.515-0.393-4.445-1.904l-19.161-31.081
		c-26.783,8.333-51.459,23.275-71.531,43.344c-33.02,33.016-51.207,76.918-51.207,123.617
		C81.178,278.473,81.574,285.296,82.355,292.072z"/>
	<path style="fill:#3D6DEB;" d="M312.261,243.302l51.6,1.335c1.941,0.049,3.594,1.424,3.997,3.322
		c0.403,1.899-0.547,3.826-2.301,4.662l-50.463,24.051c-0.489,6.008-1.902,11.863-4.207,17.47l20.747,21.846
		c1.338,1.408,1.534,3.547,0.475,5.177c-1.056,1.627-3.089,2.318-4.922,1.669l-28.4-10.065c-4.177,4.383-8.951,8.053-14.245,10.948
		l-1.445,55.885c-0.049,1.939-1.424,3.594-3.322,3.997c-1.892,0.405-3.826-0.546-4.662-2.3l-24.056-50.487
		c-6.915-0.589-13.78-2.422-20.124-5.378l-94.804,72.054c-0.312,0.237-0.646,0.423-0.994,0.561
		c32.689,31.313,75.452,48.507,120.861,48.507c6.762,0,13.587-0.393,20.339-1.173l4.853-36.122c0.237-1.758,1.551-3.178,3.289-3.547
		c1.734-0.371,3.515,0.395,4.442,1.904l19.161,31.078c26.787-8.33,51.462-23.268,71.531-43.339
		c33.023-33.021,51.207-76.923,51.207-123.615c0-6.735-0.393-13.562-1.177-20.337l-36.119-4.853
		c-1.758-0.237-3.178-1.551-3.544-3.285c-0.371-1.736,0.393-3.515,1.902-4.445l31.076-19.161
		c-7.947-25.563-21.929-49.212-40.646-68.778c-0.138,0.346-0.324,0.678-0.557,0.987L312.261,243.302z"/>
</g>
<path style="fill:#FFFFFF;" d="M278.456,308.425c-4.167,2.553-8.714,4.366-13.515,5.387c-4.65,0.99-9.414,1.21-14.218,0.63
	c-0.19-0.039-0.381-0.065-0.571-0.077c-1.252-0.173-2.501-0.4-3.742-0.687l28.821-21.91l-38.469-40.067
	c-0.302,0.23-0.571,0.5-0.801,0.804l-21.902,28.818c-0.049-0.215-0.099-0.43-0.144-0.645c-4.925-23.199,9.938-46.085,33.134-51.017
	c2.98-0.633,6.006-0.953,8.994-0.953c1.754,0,3.539,0.112,5.306,0.334c0.158,0.032,0.317,0.052,0.475,0.062
	c1.262,0.175,2.518,0.403,3.764,0.69l15.472-11.756c-6.337-2.954-13.203-4.791-20.121-5.377l-24.061-50.488
	c-0.836-1.754-2.77-2.704-4.658-2.298c-1.899,0.403-3.275,2.056-3.324,3.997l-1.442,55.889c-5.295,2.896-10.069,6.564-14.249,10.945
	l-28.4-10.065c-1.833-0.65-3.866,0.042-4.922,1.67c-1.059,1.628-0.863,3.769,0.475,5.175l20.747,21.848
	c-2.301,5.609-3.712,11.464-4.203,17.473l-50.466,24.047c-1.754,0.834-2.704,2.763-2.301,4.66c0.403,1.899,2.056,3.272,3.997,3.324
	l51.606,1.333l-69.489,91.435c-0.237,0.312-0.423,0.645-0.561,0.99l6.443,4.89l94.804-72.054c6.344,2.956,13.21,4.791,20.124,5.379
	l24.056,50.487c0.836,1.754,2.77,2.704,4.662,2.3c1.899-0.403,3.272-2.056,3.322-3.997l1.445-55.885
	c5.295-2.897,10.069-6.565,14.245-10.948l28.4,10.065c1.833,0.65,3.866-0.042,4.922-1.669c1.059-1.63,0.863-3.769-0.475-5.177
	L310.89,294.14c2.305-5.607,3.718-11.462,4.207-17.47l50.463-24.051c1.754-0.836,2.704-2.763,2.301-4.662
	c-0.403-1.899-2.056-3.272-3.997-3.322l-51.6-1.335l-14.183,19.491C301.855,280.593,293.974,298.932,278.456,308.425z"/>
<path style="fill:#DA143A;" d="M382.311,150.879l-5.452-5.452c-0.344,0.138-0.675,0.324-0.987,0.559l-94.807,72.054l-15.472,11.756
	l-28.828,21.907l38.469,40.067c0.306-0.23,0.574-0.5,0.804-0.802l21.898-28.816c0.049,0.213,0.099,0.428,0.144,0.643l14.183-19.491
	l69.491-91.436C381.987,151.557,382.174,151.225,382.311,150.879z"/>
<g>
	<path style="fill:#FFFFFF;" d="M227.521,137.76c1.734-0.371,3.048-1.789,3.285-3.547l4.856-36.12l-31.747,6.683l19.161,31.081
		C224.008,137.367,225.79,138.131,227.521,137.76z"/>
	<path style="fill:#FFFFFF;" d="M389.979,243.262c0.368,1.734,1.786,3.048,3.544,3.285l36.119,4.853l-6.685-31.744l-31.076,19.161
		C390.374,239.747,389.61,241.526,389.979,243.262z"/>
</g>
<path style="fill:#A9A8AE;" d="M393.436,74.786c-38.974-27.277-86.363-43.307-137.438-43.307c-8.622,0-17.287,0.463-25.874,1.383
	c2.886-4.715,3.931-9.98,2.842-15.095C230.709,7.139,219.886,0,206.03,0c-2.83,0-5.714,0.307-8.586,0.913
	c-8.033,1.711-15.085,5.568-19.852,10.87c-5.102,5.671-7.141,12.411-5.744,18.976c1.098,5.169,4.272,9.595,8.941,12.738
	c-22.13,7.307-43.122,17.93-62.241,31.291c-20.262,14.16-38.417,31.397-53.51,51.133c-32.253,42.169-49.3,92.591-49.3,145.818
	C15.738,404.22,123.518,512,255.998,512s240.264-107.78,240.264-240.262C496.262,190.331,455.554,118.262,393.436,74.786z
	 M190.38,21.986c2.528-2.409,6.335-4.291,10.443-5.162c1.758-0.374,3.508-0.564,5.207-0.564c6.256,0,10.525,2.483,11.032,4.883
	c0.285,1.34-0.482,3.074-2.016,4.746c-3.905-1.865-8.39-2.419-12.691-1.504c-4.255,0.905-8.095,3.206-10.925,6.475
	c-2.033-0.905-3.399-2.164-3.678-3.482C187.431,25.874,188.414,23.859,190.38,21.986z M379.612,395.353
	c-20.069,20.07-44.744,35.009-71.531,43.339l-31.744,6.688c-6.75,0.781-13.577,1.173-20.339,1.173
	c-45.409,0-88.171-17.193-120.861-48.507c0.347-0.138,0.682-0.324,0.994-0.561l-6.443-4.89
	c-18.714-19.55-32.696-43.203-40.646-68.781l-6.688-31.744c-0.781-6.775-1.177-13.601-1.177-20.334
	c0-46.698,18.187-90.601,51.207-123.617c20.072-20.069,44.747-35.011,71.531-43.344l31.747-6.683
	c6.745-0.781,13.571-1.175,20.336-1.175c45.41,0,88.175,17.195,120.861,48.507l5.452,5.452
	c18.717,19.563,32.699,43.213,40.646,68.778l6.685,31.744c0.784,6.775,1.177,13.604,1.177,20.337
	C430.819,318.429,412.635,362.331,379.612,395.353z"/>
<g>
	<path style="fill:#FFFFFF;" d="M284.479,405.712c-1.737,0.371-3.052,1.789-3.289,3.547l-4.853,36.122l31.744-6.688l-19.161-31.078
		C287.992,406.107,286.213,405.341,284.479,405.712z"/>
	<path style="fill:#FFFFFF;" d="M122.021,300.217c-0.371-1.734-1.789-3.05-3.547-3.287l-36.119-4.858l6.688,31.744l31.073-19.156
		C121.626,303.732,122.386,301.951,122.021,300.217z"/>
</g>
</svg>