<?xml version="1.0" encoding="iso-8859-1"?>
<!-- Uploaded to: SVG Repo, www.svgrepo.com, Generator: SVG Repo Mixer Tools -->
<svg height="800px" width="800px" version="1.1" id="Layer_1" xmlns="http://www.w3.org/2000/svg" xmlns:xlink="http://www.w3.org/1999/xlink" 
	 viewBox="0 0 512 512" xml:space="preserve">
<g>
	<path style="fill:#FFB655;" d="M400.34,237.204c4.544,4.544,10.501,6.816,16.455,6.816c5.956,0,11.912-2.273,16.457-6.816
		c30.769-30.769,47.715-71.679,47.715-115.194S464.022,37.585,433.252,6.816c-9.087-9.087-23.823-9.087-32.912,0.002
		c-9.089,9.087-9.089,23.823,0,32.912c21.979,21.977,34.082,51.198,34.082,82.279s-12.103,60.304-34.082,82.28
		C391.252,213.379,391.252,228.113,400.34,237.204z"/>
	<path style="fill:#FFB655;" d="M334.515,171.378c4.544,4.544,10.501,6.817,16.457,6.817s11.912-2.273,16.455-6.817
		c13.188-13.188,20.45-30.72,20.45-49.369s-7.263-36.181-20.45-49.369c-9.087-9.087-23.823-9.087-32.912,0
		c-9.089,9.089-9.089,23.823,0,32.913c4.395,4.395,6.817,10.24,6.817,16.455c0,6.217-2.422,12.06-6.817,16.455
		C325.426,147.554,325.426,162.288,334.515,171.378z"/>
</g>
<g>
	<path style="fill:#EE8700;" d="M111.66,6.817c-9.087-9.089-23.823-9.09-32.912-0.002C47.978,37.585,31.033,78.493,31.033,122.008
		s16.945,84.425,47.715,115.194c4.544,4.544,10.501,6.816,16.457,6.816s11.912-2.273,16.455-6.816
		c9.089-9.089,9.089-23.823,0-32.913c-21.978-21.977-34.082-51.199-34.082-82.281s12.103-60.302,34.082-82.279
		C120.748,30.642,120.748,15.906,111.66,6.817z"/>
	<path style="fill:#EE8700;" d="M177.485,72.641c-9.089-9.089-23.823-9.089-32.913-0.002c-13.188,13.186-20.452,30.72-20.452,49.369
		s7.264,36.182,20.452,49.369c4.546,4.544,10.499,6.817,16.455,6.817c5.956,0,11.914-2.273,16.457-6.819
		c9.089-9.087,9.087-23.823-0.002-32.912c-4.397-4.395-6.819-10.24-6.819-16.455c0-6.217,2.422-12.06,6.819-16.455
		C186.572,96.464,186.574,81.73,177.485,72.641z"/>
</g>
<path style="fill:#6E76E5;" d="M371.639,482.965l-83.12-325.558c8.648-8.451,14.026-20.239,14.026-33.287
	c0-25.705-20.84-46.545-46.545-46.545s-46.545,20.84-46.545,46.545c0,13.048,5.378,24.836,14.026,33.287l-83.12,325.558
	c-3.179,12.452,4.34,25.126,16.792,28.305c1.932,0.493,3.868,0.729,5.775,0.729c10.381,0,19.847-6.999,22.532-17.521l23.257-91.088
	H256h47.283l23.257,91.088C329.228,505.001,338.692,512,349.073,512c1.907,0,3.843-0.234,5.775-0.729
	C367.3,508.092,374.818,495.418,371.639,482.965z M256,356.846h-35.399L256,218.198l35.399,138.648H256z"/>
<path style="fill:#424EDE;" d="M220.6,356.846l35.399-138.648V77.575c-25.705,0-46.545,20.84-46.545,46.545
	c0,13.048,5.377,24.836,14.026,33.287l-83.118,325.558c-3.179,12.452,4.34,25.126,16.792,28.305
	c1.932,0.493,3.868,0.729,5.775,0.729c10.381,0,19.847-6.999,22.532-17.521l23.257-91.088H256v-46.545H220.6z"/>
</svg>