<?xml version="1.0" encoding="iso-8859-1"?>
<!-- Uploaded to: SVG Repo, www.svgrepo.com, Generator: SVG Repo Mixer Tools -->
<svg height="800px" width="800px" version="1.1" id="Layer_1" xmlns="http://www.w3.org/2000/svg" xmlns:xlink="http://www.w3.org/1999/xlink" 
	 viewBox="0 0 512 512" xml:space="preserve">
<g>
	<path style="fill:#578CAD;" d="M139.045,443.093c-1.441,0-2.898-0.387-4.212-1.202c-3.765-2.331-4.929-7.272-2.598-11.037
		l35.533-57.407c2.331-3.765,7.272-4.931,11.037-2.598c3.765,2.331,4.929,7.272,2.598,11.037l-35.533,57.407
		C144.352,441.744,141.729,443.093,139.045,443.093z"/>
	<path style="fill:#578CAD;" d="M372.958,443.093c-2.686,0-5.308-1.348-6.825-3.8l-35.533-57.407
		c-2.332-3.765-1.169-8.708,2.598-11.037c3.765-2.333,8.708-1.169,11.037,2.598l35.533,57.407c2.332,3.765,1.169,8.708-2.598,11.037
		C375.856,442.705,374.398,443.093,372.958,443.093z"/>
	<path style="fill:#578CAD;" d="M256.001,443.092c-4.428,0-8.018-3.589-8.018-8.018v-57.407c0-4.429,3.59-8.018,8.018-8.018
		c4.428,0,8.018,3.589,8.018,8.018v57.407C264.019,439.502,260.429,443.092,256.001,443.092z"/>
</g>
<path style="fill:#3A5D74;" d="M155.502,358.588v11.458c0,8.708,7.058,15.765,15.765,15.765h169.469
	c8.706,0,15.765-7.058,15.765-15.765v-11.458H155.502"/>
<path style="opacity:0.1;fill:#231F20;enable-background:new    ;" d="M172.605,370.044v-11.458h-17.103v11.458
	c0,8.708,7.058,15.765,15.765,15.765h17.103C179.663,385.81,172.605,378.752,172.605,370.044z"/>
<g>
	<path style="fill:#DDDBDC;" d="M218.932,215.304H150.51c-4.429,0-8.018-3.589-8.018-8.018v-52.547c0-4.429,3.589-8.018,8.018-8.018
		h68.422c4.429,0,8.018,3.589,8.018,8.018v52.547C226.95,211.715,223.361,215.304,218.932,215.304z M158.528,199.267h52.386v-36.511
		h-52.386V199.267z"/>
	<path style="fill:#DDDBDC;" d="M362.191,215.304h-63.077c-4.429,0-8.018-3.589-8.018-8.018v-52.547
		c0-4.429,3.589-8.018,8.018-8.018h63.077c4.429,0,8.018,3.589,8.018,8.018v52.547C370.21,211.715,366.621,215.304,362.191,215.304z
		 M307.133,199.267h47.04v-36.511h-47.04V199.267z"/>
</g>
<path style="fill:#B1DBF2;" d="M503.982,213.417c0,8.707-7.056,15.764-15.763,15.764H358.468c-8.706,0-15.763-7.058-15.763-15.764
	V141.6c0-8.706,7.058-15.764,15.763-15.764h129.751c8.708,0,15.763,7.059,15.763,15.764V213.417z"/>
<g>
	<path style="fill:#90C8EC;" d="M169.296,213.417c0,8.707-7.056,15.764-15.763,15.764H23.781c-8.708,0-15.763-7.058-15.763-15.764
		V141.6c0-8.706,7.056-15.764,15.763-15.764h129.751c8.708,0,15.763,7.059,15.763,15.764v71.817H169.296z"/>
	<path style="fill:#90C8EC;" d="M488.219,125.836h-64.877v103.344h64.877c8.708,0,15.763-7.058,15.763-15.764V141.6
		C503.982,132.894,496.927,125.836,488.219,125.836z"/>
</g>
<g>
	<path style="fill:#B1DBF2;" d="M88.658,125.836H23.781c-8.708,0-15.763,7.059-15.763,15.764v71.817
		c0,8.707,7.056,15.764,15.763,15.764h64.877C88.658,229.181,88.658,125.836,88.658,125.836z"/>
	<path style="fill:#B1DBF2;" d="M312.928,251.587V125.838c0-31.441-25.485-56.931-56.927-56.931c-31.44,0-56.93,25.489-56.93,56.931
		v125.748H312.928z"/>
</g>
<g>
	<circle style="fill:#578CAD;" cx="255.996" cy="193.71" r="25.399"/>
	<path style="fill:#578CAD;" d="M488.219,237.199H358.468c-13.114,0-23.781-10.669-23.781-23.782V141.6
		c0-13.114,10.669-23.782,23.781-23.782h129.751c13.114,0,23.781,10.669,23.781,23.782v71.817
		C512,226.529,501.333,237.199,488.219,237.199z M358.468,133.854c-4.27,0-7.745,3.475-7.745,7.746v71.817
		c0,4.271,3.475,7.746,7.745,7.746h129.751c4.27,0,7.745-3.475,7.745-7.746V141.6c0-4.271-3.475-7.746-7.745-7.746
		C488.219,133.854,358.468,133.854,358.468,133.854z"/>
	<path style="fill:#578CAD;" d="M488.219,237.199h-64.877c-4.428,0-8.018-3.589-8.018-8.018V125.836c0-4.429,3.59-8.018,8.018-8.018
		h64.877c13.114,0,23.781,10.669,23.781,23.782v71.817C512,226.529,501.333,237.199,488.219,237.199z M431.36,221.162h56.859
		c4.27,0,7.745-3.475,7.745-7.746V141.6c0-4.271-3.475-7.746-7.745-7.746H431.36V221.162z"/>
</g>
<g>
	<path style="opacity:0.1;fill:#231F20;enable-background:new    ;" d="M33.674,213.417V141.6c0-8.706,7.056-15.764,15.763-15.764
		H23.781c-8.708,0-15.763,7.059-15.763,15.764v71.817c0,8.707,7.056,15.764,15.763,15.764h25.656
		C40.731,229.181,33.674,222.122,33.674,213.417z"/>
	<path style="opacity:0.1;fill:#231F20;enable-background:new    ;" d="M264.553,69.548c-2.789-0.421-5.644-0.641-8.552-0.641
		c-31.44,0-56.93,25.489-56.93,56.931v125.748h17.103V125.838C216.175,97.303,237.17,73.675,264.553,69.548z"/>
	<path style="opacity:0.1;fill:#231F20;enable-background:new    ;" d="M247.705,193.712c0-11.026,7.027-20.407,16.848-23.918
		c-2.673-0.956-5.55-1.48-8.552-1.48c-14.028,0-25.4,11.37-25.4,25.398c0,14.026,11.372,25.398,25.4,25.398
		c3.002,0,5.879-0.524,8.552-1.48C254.732,214.118,247.705,204.737,247.705,193.712z"/>
</g>
<g>
	<path style="fill:#578CAD;" d="M153.532,237.199H23.781C10.669,237.199,0,226.529,0,213.417V141.6
		c0-13.114,10.669-23.782,23.781-23.782h129.751c13.114,0,23.781,10.669,23.781,23.782v71.817
		C177.314,226.529,166.646,237.199,153.532,237.199z M23.781,133.854c-4.27,0-7.745,3.475-7.745,7.746v71.817
		c0,4.271,3.475,7.746,7.745,7.746h129.751c4.27,0,7.745-3.475,7.745-7.746V141.6c0-4.271-3.475-7.746-7.745-7.746
		C153.532,133.854,23.781,133.854,23.781,133.854z"/>
	<path style="fill:#578CAD;" d="M88.658,237.199H23.781C10.669,237.199,0,226.529,0,213.417V141.6
		c0-13.114,10.669-23.782,23.781-23.782h64.877c4.428,0,8.018,3.589,8.018,8.018v103.344
		C96.676,233.609,93.085,237.199,88.658,237.199z M23.781,133.854c-4.27,0-7.745,3.475-7.745,7.746v71.817
		c0,4.271,3.475,7.746,7.745,7.746H80.64v-87.308C80.64,133.854,23.781,133.854,23.781,133.854z"/>
</g>
<path style="fill:#3A5D74;" d="M316.243,250.518H195.759c-8.708,0-15.765,7.058-15.765,15.764v18.393h152.011v-18.393
	C332.005,257.575,324.947,250.518,316.243,250.518z"/>
<path style="opacity:0.1;fill:#231F20;enable-background:new    ;" d="M212.863,250.518h-17.103
	c-8.708,0-15.765,7.058-15.765,15.764v18.393h17.103v-18.393C197.098,257.575,204.156,250.518,212.863,250.518z"/>
<path style="fill:#578CAD;" d="M325.372,359.657h70.541c8.704,0,15.763-7.058,15.763-15.764v-24.115
	c0-19.979-16.195-36.173-36.174-36.173H136.498c-19.977,0-36.172,16.194-36.172,36.173v24.115c0,8.706,7.058,15.764,15.765,15.764
	L325.372,359.657"/>
<path style="opacity:0.1;fill:#231F20;enable-background:new    ;" d="M117.43,343.893v-24.115
	c0-19.979,16.195-36.173,36.172-36.173h-17.103c-19.977,0-36.172,16.194-36.172,36.173v24.115c0,8.706,7.058,15.764,15.765,15.764
	h17.103C124.487,359.657,117.43,352.598,117.43,343.893z"/>
<path style="fill:#FF9737;" d="M373.577,329.648H138.424c-4.428,0-8.018-3.589-8.018-8.018s3.59-8.018,8.018-8.018h235.154
	c4.428,0,8.018,3.589,8.018,8.018C381.596,326.059,378.005,329.648,373.577,329.648z"/>
</svg>