<?xml version="1.0" encoding="iso-8859-1"?>
<!-- Uploaded to: SVG Repo, www.svgrepo.com, Generator: SVG Repo Mixer Tools -->
<!DOCTYPE svg PUBLIC "-//W3C//DTD SVG 1.1//EN" "http://www.w3.org/Graphics/SVG/1.1/DTD/svg11.dtd">
<svg fill="#000000" height="800px" width="800px" version="1.1" id="Capa_1" xmlns="http://www.w3.org/2000/svg" xmlns:xlink="http://www.w3.org/1999/xlink" 
	 viewBox="0 0 89.513 89.513" xml:space="preserve">
<g>
	<path d="M63.669,41.786c-0.564-0.571-1.315-0.887-2.116-0.889l-10-0.031c-0.657-0.002-1.424-0.577-1.611-1.208l-4.011-13.56
		c-0.007-0.023-0.019-0.038-0.026-0.061c-0.243-1.412-1.469-2.491-2.949-2.491h-6.385c-1.654,0-3,1.346-3,3v30.86
		c0,1.654,1.346,3,3,3h1.291c0.042,0.001,0.079,0.013,0.122,0.013l12.421-0.011c0.881,0,1.598,0.717,1.598,1.598v18.209
		c0,1.985,1.615,3.6,3.6,3.6h2.41c0.96,0,1.862-0.376,2.54-1.06c0.677-0.684,1.045-1.589,1.036-2.549l-0.244-25.895
		c-0.019-1.979-1.645-3.59-3.625-3.59H45.956v-3.019c0.545,0.321,1.16,0.516,1.781,0.516h13.77c1.649,0,3.002-1.342,3.016-2.992
		l0.01-1.315C64.541,43.112,64.234,42.357,63.669,41.786z"/>
	<path d="M39.764,20.338c5.607,0,10.169-4.562,10.169-10.169S45.371,0,39.764,0S29.595,4.562,29.595,10.169
		S34.156,20.338,39.764,20.338z"/>
	<path d="M46.16,62.482H28.979v-6.064V22.502c0-1.104-0.896-2-2-2s-2,0.896-2,2v33.916v6.064v25.03c0,1.104,0.896,2,2,2s2-0.896,2-2
		v-21.03H46.16v21.03c0,1.104,0.896,2,2,2s2-0.896,2-2v-21.03C50.16,64.277,48.366,62.482,46.16,62.482z"/>
</g>
</svg>