<?xml version="1.0" encoding="iso-8859-1"?>
<!-- Uploaded to: SVG Repo, www.svgrepo.com, Generator: SVG Repo Mixer Tools -->
<svg height="800px" width="800px" version="1.1" id="Layer_1" xmlns="http://www.w3.org/2000/svg" xmlns:xlink="http://www.w3.org/1999/xlink" 
	 viewBox="0 0 495 495" xml:space="preserve">
<g>
	<polygon style="fill:#00D7DF;" points="247.5,0 247.5,40 455,40 455,455 247.5,455 247.5,495 495,495 495,0 	"/>
	<polygon style="fill:#00E7F0;" points="40,455 40,40 247.5,40 247.5,0 0,0 0,495 247.5,495 247.5,455 	"/>
	<path style="fill:#00E7F0;" d="M101.366,247.5c0,80.714,65.42,146.138,146.116,146.138c7.761,0,15.383-0.599,22.816-1.781
		C283.782,400.166,299.659,405,316.677,405C365.454,405,405,365.454,405,316.682c0-17.023-4.821-32.9-13.16-46.384
		c1.181-7.433,1.794-15.037,1.794-22.798c0-80.732-65.419-146.151-146.134-146.151c-7.757,0-15.383,0.63-22.816,1.794
		C211.218,94.821,195.341,90,178.323,90C129.546,90,90,129.528,90,178.322c0,17.019,4.821,32.878,13.143,46.379
		C101.996,232.152,101.366,239.726,101.366,247.5z M279.853,273.632c-3.898-3.71-8.925-6.528-15.159-8.479
		c-6.256-1.999-14.665-4.099-25.191-6.322c-14.136-3.076-25.961-6.663-35.547-10.802c-9.59-4.134-17.229-9.791-22.886-16.953
		c-5.67-7.21-8.492-16.183-8.492-26.814c0-10.132,2.992-19.206,8.956-27.086c5.981-7.914,14.63-13.978,25.891-18.182
		c11.226-4.222,24.456-6.326,39.615-6.326c12.097,0,22.593,1.387,31.461,4.187c8.833,2.805,16.218,6.514,22.098,11.161
		c5.863,4.651,10.185,9.537,12.902,14.682c2.734,5.141,4.099,10.185,4.099,15.089c0,4.563-1.759,8.715-5.211,12.338
		c-3.452,3.64-7.862,5.486-13.007,5.469c-4.646,0-8.286-1.059-10.815-3.329c-2.463-2.205-5.044-5.692-7.844-10.566
		c-3.539-6.781-7.761-12.079-12.683-15.872c-4.799-3.71-12.696-5.644-23.704-5.626c-10.185,0-18.318,2.087-24.469,6.156
		c-6.186,4.134-9.144,8.921-9.161,14.543c0.017,3.522,1.024,6.493,3.058,9.021c2.069,2.564,4.957,4.786,8.649,6.667
		c3.706,1.894,7.468,3.364,11.244,4.428c3.828,1.076,10.185,2.647,19.005,4.716c11.056,2.393,21.105,5.058,30.126,7.963
		c9.008,2.922,16.682,6.445,23.039,10.631c6.392,4.187,11.401,9.516,14.971,15.96c3.587,6.444,5.364,14.324,5.364,23.586
		c0.017,11.174-3.093,21.206-9.279,30.096c-6.186,8.903-15.26,15.859-27.138,20.847c-11.891,5.027-25.939,7.521-42.175,7.521
		c-19.451,0-35.547-3.399-48.265-10.29c-9.021-4.922-16.354-11.515-21.976-19.753c-5.657-8.238-8.509-16.306-8.509-24.185
		c0-4.629,1.776-8.662,5.211-11.961c3.487-3.316,7.963-4.974,13.261-4.974c4.34,0,8.05,1.299,11.091,3.898
		c3.01,2.581,5.539,6.339,7.591,11.296c2.476,5.758,5.176,10.561,8.033,14.389c2.835,3.793,6.834,6.956,12.014,9.432
		c5.128,2.481,11.944,3.71,20.475,3.71c11.686,0,21.123-2.511,28.333-7.503c7.262-5.023,10.749-11.143,10.749-18.541
		C285.576,281.953,283.694,277.272,279.853,273.632z"/>
</g>
</svg>