<?xml version="1.0" encoding="iso-8859-1"?>
<!-- Uploaded to: SVG Repo, www.svgrepo.com, Generator: SVG Repo Mixer Tools -->
<svg height="800px" width="800px" version="1.1" id="Layer_1" xmlns="http://www.w3.org/2000/svg" xmlns:xlink="http://www.w3.org/1999/xlink" 
	 viewBox="0 0 503.467 503.467" xml:space="preserve">
<g transform="translate(9 1)">
	<path style="fill:#AAB1BA;" d="M165.933,498.2H285.4v-68.267H165.933V498.2z M165.933,71.533H285.4V3.267H165.933V71.533z
		 M165.933,429.933V498.2h-42.667L106.2,429.933H165.933z M165.933,3.267v68.267H106.2l17.067-68.267H165.933z M328.067,3.267
		l17.067,68.267H285.4V3.267H328.067z M345.133,429.933L328.067,498.2H285.4v-68.267H345.133z"/>
	<path style="fill:#ECF4F7;" d="M387.8,105.667V395.8c0,18.773-15.36,34.133-34.133,34.133h-8.533H285.4H165.933H106.2h-8.533
		c-18.773,0-34.133-15.36-34.133-34.133V105.667c0-18.773,15.36-34.133,34.133-34.133h8.533h59.733H285.4h59.733h8.533
		C372.44,71.533,387.8,86.893,387.8,105.667"/>
	<path style="fill:#FF7474;" d="M225.667,208.067c23.893,0,42.667,18.773,42.667,42.667S249.56,293.4,225.667,293.4
		c-23.893,0-42.667-18.773-42.667-42.667S201.773,208.067,225.667,208.067"/>
	<path style="fill:#C49AE9;" d="M165.933,310.467c18.773,0,34.133,15.36,34.133,34.133s-15.36,34.133-34.133,34.133
		S131.8,363.373,131.8,344.6S147.16,310.467,165.933,310.467"/>
	<path style="fill:#E4F2DE;" d="M123.267,225.133c14.507,0,25.6,11.093,25.6,25.6c0,14.507-11.093,25.6-25.6,25.6
		c-14.507,0-25.6-11.093-25.6-25.6C97.667,236.227,108.76,225.133,123.267,225.133"/>
	<path style="fill:#F2EDDA;" d="M285.4,310.467c18.773,0,34.133,15.36,34.133,34.133s-15.36,34.133-34.133,34.133
		c-18.773,0-34.133-15.36-34.133-34.133S266.627,310.467,285.4,310.467"/>
	<path style="fill:#FFE079;" d="M285.4,122.733c18.773,0,34.133,15.36,34.133,34.133S304.173,191,285.4,191
		c-18.773,0-34.133-15.36-34.133-34.133S266.627,122.733,285.4,122.733"/>
	<path style="fill:#7EE1E6;" d="M165.933,122.733c18.773,0,34.133,15.36,34.133,34.133S184.707,191,165.933,191
		S131.8,175.64,131.8,156.867S147.16,122.733,165.933,122.733"/>
	<path style="fill:#80D6FA;" d="M328.067,225.133c14.507,0,25.6,11.093,25.6,25.6c0,14.507-11.093,25.6-25.6,25.6
		s-25.6-11.093-25.6-25.6C302.467,236.227,313.56,225.133,328.067,225.133"/>
</g>
<path style="fill:#51565F;" d="M337.067,503.467h-204.8c-1.707,0-3.413-1.707-4.267-3.413l-8.533-34.133
	c-0.853-2.56,0.853-4.267,3.413-5.12c2.56-0.853,4.267,0.853,5.12,3.413l7.68,30.72h34.987v-29.867c0-2.56,1.707-4.267,4.267-4.267
	c2.56,0,4.267,1.707,4.267,4.267v29.867h110.933v-29.867c0-2.56,1.707-4.267,4.267-4.267s4.267,1.707,4.267,4.267v29.867h34.987
	l7.68-30.72c0.853-2.56,2.56-3.413,5.12-3.413c2.56,0.853,3.413,2.56,3.413,5.12l-8.533,34.133
	C340.48,501.76,338.773,503.467,337.067,503.467z M362.667,435.2h-256c-21.333,0-38.4-17.067-38.4-38.4V106.667
	c0-21.333,17.067-38.4,38.4-38.4h256c21.333,0,38.4,17.067,38.4,38.4V396.8C401.067,418.133,384,435.2,362.667,435.2z M106.667,76.8
	C90.453,76.8,76.8,90.453,76.8,106.667V396.8c0,16.213,13.653,29.867,29.867,29.867h256c16.213,0,29.867-13.653,29.867-29.867
	V106.667c0-16.213-13.653-29.867-29.867-29.867H106.667z M294.4,384c-21.333,0-38.4-17.067-38.4-38.4
	c0-21.333,17.067-38.4,38.4-38.4c21.333,0,38.4,17.067,38.4,38.4C332.8,366.933,315.733,384,294.4,384z M294.4,315.733
	c-16.213,0-29.867,13.653-29.867,29.867c0,16.213,13.653,29.867,29.867,29.867s29.867-13.653,29.867-29.867
	C324.267,329.387,310.613,315.733,294.4,315.733z M174.933,384c-21.333,0-38.4-17.067-38.4-38.4c0-21.333,17.067-38.4,38.4-38.4
	s38.4,17.067,38.4,38.4C213.333,366.933,196.267,384,174.933,384z M174.933,315.733c-16.213,0-29.867,13.653-29.867,29.867
	c0,16.213,13.653,29.867,29.867,29.867S204.8,361.813,204.8,345.6C204.8,329.387,191.147,315.733,174.933,315.733z M430.933,349.867
	c-2.56,0-4.267-1.707-4.267-4.267v-85.333c0-2.56,1.707-4.267,4.267-4.267s4.267,1.707,4.267,4.267V345.6
	C435.2,348.16,433.493,349.867,430.933,349.867z M234.667,298.667c-25.6,0-46.933-21.333-46.933-46.933s21.333-46.933,46.933-46.933
	c25.6,0,46.933,21.333,46.933,46.933S260.267,298.667,234.667,298.667z M234.667,213.333c-21.333,0-38.4,17.067-38.4,38.4
	s17.067,38.4,38.4,38.4s38.4-17.067,38.4-38.4S256,213.333,234.667,213.333z M337.067,281.6c-16.213,0-29.867-13.653-29.867-29.867
	s13.653-29.867,29.867-29.867s29.867,13.653,29.867,29.867S353.28,281.6,337.067,281.6z M337.067,230.4
	c-11.947,0-21.333,9.387-21.333,21.333c0,11.947,9.387,21.333,21.333,21.333s21.333-9.387,21.333-21.333
	C358.4,239.787,349.013,230.4,337.067,230.4z M132.267,281.6c-16.213,0-29.867-13.653-29.867-29.867s13.653-29.867,29.867-29.867
	s29.867,13.653,29.867,29.867S148.48,281.6,132.267,281.6z M132.267,230.4c-11.947,0-21.333,9.387-21.333,21.333
	c0,11.947,9.387,21.333,21.333,21.333s21.333-9.387,21.333-21.333C153.6,239.787,144.213,230.4,132.267,230.4z M430.933,213.333
	c-2.56,0-4.267-1.707-4.267-4.267v-51.2c0-2.56,1.707-4.267,4.267-4.267s4.267,1.707,4.267,4.267v51.2
	C435.2,211.627,433.493,213.333,430.933,213.333z M294.4,196.267c-21.333,0-38.4-17.067-38.4-38.4s17.067-38.4,38.4-38.4
	c21.333,0,38.4,17.067,38.4,38.4S315.733,196.267,294.4,196.267z M294.4,128c-16.213,0-29.867,13.653-29.867,29.867
	s13.653,29.867,29.867,29.867s29.867-13.653,29.867-29.867S310.613,128,294.4,128z M174.933,196.267
	c-21.333,0-38.4-17.067-38.4-38.4s17.067-38.4,38.4-38.4s38.4,17.067,38.4,38.4S196.267,196.267,174.933,196.267z M174.933,128
	c-16.213,0-29.867,13.653-29.867,29.867s13.653,29.867,29.867,29.867S204.8,174.08,204.8,157.867S191.147,128,174.933,128z
	 M345.6,42.667c-1.707,0-3.413-1.707-4.267-3.413l-7.68-30.72h-34.987V38.4c0,2.56-1.707,4.267-4.267,4.267
	s-4.267-1.707-4.267-4.267V8.533H179.2V38.4c0,2.56-1.707,4.267-4.267,4.267c-2.56,0-4.267-1.707-4.267-4.267V8.533H135.68
	L128,39.253c-0.853,2.56-2.56,3.413-5.12,3.413c-2.56-0.853-3.413-2.56-3.413-5.12L128,3.413C128.853,1.707,130.56,0,132.267,0
	h204.8c1.707,0,3.413,1.707,4.267,3.413l8.533,34.133c0.853,2.56-0.853,4.267-3.413,5.12H345.6z"/>
</svg>