<?xml version="1.0" encoding="iso-8859-1"?>
<!-- Uploaded to: SVG Repo, www.svgrepo.com, Generator: SVG Repo Mixer Tools -->
<svg version="1.1" id="Layer_1" xmlns="http://www.w3.org/2000/svg" xmlns:xlink="http://www.w3.org/1999/xlink" 
	 viewBox="0 0 365.316 365.316" xml:space="preserve">
<g>
	<path style="fill:#333E48;" d="M287.84,20c0-11-9-20-20-20H97.477c-11,0-20,9-20,20v325.316c0,11,9,20,20,20H267.84
		c11,0,20-9,20-20V20z"/>
	<rect x="77.477" y="36.308" style="fill:#61B4E4;" width="210.363" height="285.343"/>
	<g>
		<path style="fill:#FFFFFF;" d="M241.25,208.13c11.619-13.519,18.658-31.089,18.658-50.313c0-42.664-34.586-77.25-77.25-77.25
			s-77.25,34.586-77.25,77.25s34.586,77.25,77.25,77.25c11.525,0,22.45-2.542,32.273-7.067c8.036,5.003,17.518,7.901,27.68,7.901
			c5.938,0,11.639-1.002,16.961-2.82C251.187,226.857,244.741,218.185,241.25,208.13z"/>
		<g>
			<path style="fill:#333E48;" d="M127.281,173.767c-0.938-0.662-1.6-1.875-1.6-3.199c0-2.206,1.765-3.916,3.971-3.916
				c1.104,0,1.876,0.386,2.427,0.771c2.923,2.151,6.123,3.476,9.874,3.476c3.475,0,5.571-1.379,5.571-3.641v-0.11
				c0-2.151-1.324-3.255-7.777-4.909c-7.778-1.986-12.797-4.137-12.797-11.805v-0.11c0-7.005,5.626-11.639,13.514-11.639
				c4.689,0,8.771,1.214,12.246,3.42c0.938,0.552,1.875,1.71,1.875,3.365c0,2.206-1.765,3.916-3.971,3.916
				c-0.828,0-1.49-0.221-2.151-0.606c-2.814-1.655-5.461-2.593-8.109-2.593c-3.254,0-4.964,1.489-4.964,3.365v0.109
				c0,2.538,1.655,3.365,8.329,5.075c7.833,2.041,12.246,4.855,12.246,11.584v0.11c0,7.667-5.847,11.97-14.176,11.97
				C136.713,178.4,131.583,176.855,127.281,173.767z"/>
			<path style="fill:#333E48;" d="M163.353,143.263c0-2.372,1.876-4.247,4.248-4.247h0.938c1.82,0,3.089,0.938,3.861,2.206
				l10.26,16.714l10.315-16.768c0.883-1.435,2.096-2.151,3.806-2.151h0.938c2.372,0,4.248,1.875,4.248,4.247v30.67
				c0,2.371-1.876,4.247-4.248,4.247c-2.316,0-4.191-1.931-4.191-4.247v-19.251l-7.447,11.473c-0.882,1.324-1.985,2.151-3.53,2.151
				c-1.544,0-2.647-0.827-3.53-2.151l-7.336-11.308v19.196c0,2.316-1.876,4.137-4.192,4.137c-2.317,0-4.137-1.82-4.137-4.137
				v-30.781H163.353z"/>
			<path style="fill:#333E48;" d="M210.457,173.767c-0.938-0.662-1.6-1.875-1.6-3.199c0-2.206,1.765-3.916,3.972-3.916
				c1.102,0,1.875,0.386,2.427,0.771c2.924,2.151,6.123,3.476,9.874,3.476c3.475,0,5.571-1.379,5.571-3.641v-0.11
				c0-2.151-1.324-3.255-7.778-4.909c-7.777-1.986-12.797-4.137-12.797-11.805v-0.11c0-7.005,5.626-11.639,13.515-11.639
				c4.689,0,8.771,1.214,12.245,3.42c0.938,0.552,1.876,1.71,1.876,3.365c0,2.206-1.766,3.916-3.972,3.916
				c-0.827,0-1.489-0.221-2.151-0.606c-2.814-1.655-5.461-2.593-8.108-2.593c-3.255,0-4.965,1.489-4.965,3.365v0.109
				c0,2.538,1.655,3.365,8.329,5.075c7.833,2.041,12.246,4.855,12.246,11.584v0.11c0,7.667-5.848,11.97-14.177,11.97
				C219.89,178.4,214.76,176.855,210.457,173.767z"/>
		</g>
	</g>
	<circle style="fill:#5C6670;" cx="182.658" cy="342.816" r="10"/>
	<g>
		<circle style="fill:#5C6670;" cx="182.658" cy="12.896" r="5.06"/>
		<circle style="fill:#1E252B;" cx="182.658" cy="12.896" r="2.913"/>
	</g>
	<path style="fill:#5C6670;" d="M199.158,27.167h-33c-0.829,0-1.5-0.672-1.5-1.5s0.671-1.5,1.5-1.5h33c0.828,0,1.5,0.672,1.5,1.5
		S199.986,27.167,199.158,27.167z"/>
	<circle style="fill:#1E252B;" cx="153.158" cy="25.667" r="2.5"/>
	<polygon style="opacity:0.1;fill:#FFFFFF;enable-background:new    ;" points="77.477,267.998 77.477,321.65 210.699,321.65 
		287.84,244.51 287.84,57.635 	"/>
</g>
</svg>