<?xml version="1.0" encoding="iso-8859-1"?>
<!-- Uploaded to: SVG Repo, www.svgrepo.com, Generator: SVG Repo Mixer Tools -->
<svg height="800px" width="800px" version="1.1" id="Layer_1" xmlns="http://www.w3.org/2000/svg" xmlns:xlink="http://www.w3.org/1999/xlink" 
	 viewBox="0 0 512 512" xml:space="preserve">
<path style="fill:#F9DE8F;" d="M307.305,503.141H11.841V52.639c0-24.179,19.601-43.779,43.78-43.779h207.905
	c24.179,0,43.779,19.601,43.779,43.779V166.61"/>
<g>
	<path style="fill:#F7CF6D;" d="M263.526,8.86h-40.166c24.179,0,43.779,19.601,43.779,43.779v76.154h-78.133
		c-14.74,0-26.689,11.95-26.689,26.689v347.658h144.989l0,0V166.61v-11.127V52.639C307.305,28.46,287.704,8.86,263.526,8.86z"/>
	<path style="fill:#F7CF6D;" d="M204.889,213.427c-12.813,8.227-28.057,12.999-44.416,12.999c-45.462,0-82.316-36.855-82.316-82.316
		s36.855-82.316,82.316-82.316s82.316,36.855,82.316,82.316c0,7.824-1.092,15.392-3.131,22.562"/>
	<path style="fill:#F7CF6D;" d="M204.889,437.21c-12.813,8.227-28.057,12.999-44.416,12.999c-45.462,0-82.316-36.855-82.316-82.316
		s36.855-82.316,82.316-82.316c16.358,0,31.602,4.772,44.416,12.999"/>
</g>
<g>
	<circle style="fill:#F4C356;" cx="159.567" cy="142.39" r="44.415"/>
	<circle style="fill:#F4C356;" cx="159.567" cy="366.176" r="44.415"/>
</g>
<path style="fill:#F09EA0;" d="M500.159,503.141H204.696V202.734c0-19.951,16.173-36.124,36.124-36.124h223.215
	c19.951,0,36.124,16.173,36.124,36.124L500.159,503.141L500.159,503.141z"/>
<g>
	<path style="fill:#EF8990;" d="M464.035,166.61h-38.592c19.951,0,36.124,16.173,36.124,36.124v300.407h38.592V202.734
		C500.159,182.783,483.986,166.61,464.035,166.61z"/>
	<circle style="fill:#EF8990;" cx="355.366" cy="286.363" r="82.317"/>
</g>
<g>
	<circle style="fill:#ED7782;" cx="354.469" cy="439.468" r="30.437"/>
	<circle style="fill:#ED7782;" cx="354.469" cy="284.638" r="44.415"/>
</g>
<path d="M263.525,0H55.621C26.596,0,2.981,23.614,2.981,52.639v450.5c0,4.894,3.966,8.86,8.86,8.86h157.081
	c4.894,0,8.86-3.966,8.86-8.86c0-4.894-3.966-8.86-8.86-8.86H20.701V52.639c0-19.254,15.665-34.919,34.92-34.919h207.904
	c19.255,0,34.92,15.665,34.92,34.919v72.284c0,4.893,3.966,8.86,8.86,8.86s8.86-3.967,8.86-8.86V52.639
	C316.165,23.614,292.551,0,263.525,0z"/>
<path d="M500.159,512H204.696c-4.894,0-8.86-3.966-8.86-8.86V202.734c0-24.804,20.18-44.984,44.984-44.984h223.215
	c24.804,0,44.984,20.18,44.984,44.984v300.407C509.019,508.034,505.054,512,500.159,512z M213.557,494.28H491.3V202.734
	c0-15.033-12.231-27.264-27.264-27.264H240.82c-15.034,0-27.264,12.231-27.264,27.264V494.28z"/>
<path d="M354.463,377.538c-50.275,0-91.178-40.902-91.178-91.178s40.902-91.177,91.178-91.177s91.177,40.902,91.177,91.177
	S404.738,377.538,354.463,377.538z M354.463,212.904c-40.504,0-73.457,32.952-73.457,73.456s32.953,73.457,73.457,73.457
	c40.503,0,73.456-32.953,73.456-73.457S394.966,212.904,354.463,212.904z"/>
<path d="M354.463,478.761c-21.669,0-39.298-17.628-39.298-39.297s17.63-39.298,39.298-39.298s39.297,17.63,39.297,39.298
	S376.131,478.761,354.463,478.761z M354.463,417.887c-11.898,0-21.578,9.679-21.578,21.578c0,11.896,9.679,21.576,21.578,21.576
	c11.896,0,21.576-9.679,21.576-21.576C376.039,427.567,366.359,417.887,354.463,417.887z"/>
<path d="M354.463,337.919c-29.376,0-53.276-23.898-53.276-53.275c0-29.377,23.899-53.275,53.276-53.275
	c29.377,0,53.275,23.899,53.275,53.275C407.737,314.02,383.838,337.919,354.463,337.919z M354.463,249.09
	c-19.606,0-35.556,15.951-35.556,35.556c0,19.605,15.95,35.554,35.556,35.554c19.605,0,35.554-15.95,35.554-35.554
	C390.017,265.04,374.067,249.09,354.463,249.09z"/>
<path d="M159.573,235.287c-50.275,0-91.178-40.902-91.178-91.178s40.902-91.177,91.178-91.177c20.681,0,40.934,7.115,57.033,20.035
	c15.849,12.722,27.121,30.567,31.736,50.248c1.118,4.764-1.839,9.531-6.603,10.649c-4.76,1.119-9.531-1.838-10.65-6.603
	c-7.817-33.331-37.226-56.609-71.517-56.609c-40.504,0-73.457,32.953-73.457,73.456c0,40.504,32.953,73.457,73.457,73.457
	c4.894,0,8.86,3.967,8.86,8.86C168.432,231.32,164.467,235.287,159.573,235.287z"/>
<path d="M159.573,195.666c-29.376,0-53.275-23.899-53.275-53.275s23.898-53.275,53.275-53.275c21.458,0,40.726,12.771,49.085,32.536
	c1.907,4.507-0.202,9.705-4.708,11.612c-4.507,1.906-9.706-0.201-11.612-4.709c-5.581-13.192-18.44-21.717-32.764-21.717
	c-19.605,0-35.554,15.95-35.554,35.554c0,19.605,15.95,35.554,35.554,35.554c4.894,0,8.86,3.967,8.86,8.86
	C168.434,191.7,164.467,195.666,159.573,195.666z"/>
<path d="M159.573,459.069c-50.275,0-91.178-40.901-91.178-91.177s40.902-91.178,91.178-91.178c4.894,0,8.86,3.966,8.86,8.86
	s-3.966,8.86-8.86,8.86c-40.504,0-73.457,32.953-73.457,73.457c0,40.503,32.953,73.456,73.457,73.456c4.894,0,8.86,3.966,8.86,8.86
	C168.433,455.103,164.467,459.069,159.573,459.069z"/>
<path d="M159.573,419.449c-29.376,0-53.275-23.898-53.275-53.275c0-29.377,23.898-53.275,53.275-53.275
	c4.894,0,8.86,3.966,8.86,8.86c0,4.894-3.966,8.86-8.86,8.86c-19.605,0-35.554,15.95-35.554,35.554
	c0,19.605,15.95,35.554,35.554,35.554c4.894,0,8.86,3.966,8.86,8.86S164.467,419.449,159.573,419.449z"/>
</svg>