<?xml version="1.0" encoding="iso-8859-1"?>
<!-- Uploaded to: SVG Repo, www.svgrepo.com, Generator: SVG Repo Mixer Tools -->
<svg version="1.1" id="Layer_1" xmlns="http://www.w3.org/2000/svg" xmlns:xlink="http://www.w3.org/1999/xlink" 
	 viewBox="0 0 512 512" xml:space="preserve">
<rect x="10.199" y="29.532" style="fill:#ABABAB;" width="225.362" height="355.718"/>
<rect x="10.199" y="385.255" style="fill:#FFFFFF;" width="225.362" height="97.219"/>
<g>
	<circle style="fill:#ABABAB;" cx="84.215" cy="433.864" r="16.571"/>
	<circle style="fill:#ABABAB;" cx="161.545" cy="433.864" r="16.571"/>
	<rect x="276.439" y="29.532" style="fill:#ABABAB;" width="225.362" height="355.718"/>
</g>
<rect x="276.439" y="385.255" style="fill:#FFFFFF;" width="225.362" height="97.219"/>
<path d="M0,482.468c0,5.633,4.566,10.199,10.199,10.199h225.364c5.633,0,10.199-4.566,10.199-10.199V29.532
	c0-5.633-4.566-10.199-10.199-10.199H10.199C4.566,19.333,0,23.899,0,29.532V482.468z M225.364,39.731v335.322H20.398v-39.809
	h176.499c5.633,0,10.199-4.566,10.199-10.199s-4.566-10.199-10.199-10.199H20.398v-38.704h176.499
	c5.633,0,10.199-4.566,10.199-10.199s-4.566-10.199-10.199-10.199H20.398v-38.705h176.499c5.633,0,10.199-4.566,10.199-10.199
	s-4.566-10.199-10.199-10.199H20.398v-38.704h176.499c5.633,0,10.199-4.566,10.199-10.199s-4.566-10.199-10.199-10.199H20.398
	V98.833h176.499c5.633,0,10.199-4.566,10.199-10.199c0-5.633-4.566-10.199-10.199-10.199H20.398V39.731H225.364z M225.364,472.269
	H20.398v-76.817h204.965V472.269z"/>
<path d="M84.216,460.631c14.761,0,26.77-12.009,26.77-26.77c0-14.761-12.009-26.771-26.77-26.771s-26.77,12.009-26.77,26.771
	C57.446,448.621,69.455,460.631,84.216,460.631z M84.216,427.488c3.514,0,6.371,2.859,6.371,6.372s-2.858,6.371-6.371,6.371
	s-6.371-2.858-6.371-6.371S80.702,427.488,84.216,427.488z"/>
<path d="M161.546,460.631c14.761,0,26.77-12.009,26.77-26.77c0-14.761-12.009-26.771-26.77-26.771
	c-14.761,0-26.77,12.009-26.77,26.771C134.776,448.621,146.785,460.631,161.546,460.631z M161.546,427.488
	c3.514,0,6.371,2.859,6.371,6.372s-2.858,6.371-6.371,6.371c-3.514,0-6.371-2.858-6.371-6.371S158.033,427.488,161.546,427.488z"/>
<path d="M512,29.532c0-5.633-4.567-10.199-10.199-10.199H276.437c-5.632,0-10.199,4.566-10.199,10.199v452.936
	c0,5.633,4.567,10.199,10.199,10.199h225.364c5.632,0,10.199-4.566,10.199-10.199V29.532z M491.602,39.731v335.322H286.636v-39.809
	h176.499c5.632,0,10.199-4.566,10.199-10.199s-4.567-10.199-10.199-10.199H286.636v-38.704h176.499
	c5.632,0,10.199-4.566,10.199-10.199s-4.567-10.199-10.199-10.199H286.636v-38.705h176.499c5.632,0,10.199-4.566,10.199-10.199
	s-4.567-10.199-10.199-10.199H286.636v-38.704h176.499c5.632,0,10.199-4.566,10.199-10.199s-4.567-10.199-10.199-10.199H286.636
	V98.833h176.499c5.632,0,10.199-4.566,10.199-10.199c0-5.633-4.567-10.199-10.199-10.199H286.636V39.731H491.602z M491.602,472.269
	H286.636v-76.817h204.965V472.269z"/>
</svg>