<?xml version="1.0" encoding="iso-8859-1"?>
<!-- Uploaded to: SVG Repo, www.svgrepo.com, Generator: SVG Repo Mixer Tools -->
<!DOCTYPE svg PUBLIC "-//W3C//DTD SVG 1.1//EN" "http://www.w3.org/Graphics/SVG/1.1/DTD/svg11.dtd">
<svg fill="#000000" version="1.1" id="Capa_1" xmlns="http://www.w3.org/2000/svg" xmlns:xlink="http://www.w3.org/1999/xlink" 
	 width="800px" height="800px" viewBox="0 0 30.72 30.72" xml:space="preserve"
	>
<g>
	<g>
		<path d="M25.382,25.467V7.25h2.66V2.401h-2.66V0H14.583v2.401h-3.627V7.25h3.627v1.036v4.632v12.549H9.842v5.2h19.314v-5.2H25.382
			z M11.601,6.604V3.047h15.797v3.558L11.601,6.604L11.601,6.604z"/>
		<path d="M15.121,4.718c-0.048-0.04-0.102-0.072-0.163-0.097c-0.06-0.025-0.122-0.047-0.186-0.066
			c-0.064-0.017-0.126-0.032-0.188-0.046c-0.062-0.014-0.116-0.029-0.164-0.044c-0.049-0.017-0.089-0.035-0.12-0.056
			c-0.031-0.021-0.047-0.047-0.049-0.079c0-0.025,0.007-0.046,0.02-0.062c0.014-0.017,0.03-0.028,0.051-0.037
			c0.02-0.009,0.042-0.014,0.065-0.018c0.023-0.003,0.044-0.004,0.063-0.004c0.028,0,0.057,0.003,0.085,0.009
			c0.028,0.007,0.055,0.019,0.078,0.036c0.023,0.015,0.042,0.034,0.054,0.058c0.013,0.023,0.017,0.052,0.011,0.086h0.523
			c-0.004-0.109-0.027-0.201-0.068-0.275c-0.042-0.075-0.097-0.135-0.166-0.181c-0.069-0.046-0.147-0.08-0.236-0.1
			c-0.089-0.02-0.182-0.03-0.279-0.03c-0.092,0-0.182,0.011-0.269,0.034c-0.087,0.022-0.164,0.058-0.23,0.107
			c-0.067,0.048-0.122,0.109-0.162,0.184c-0.042,0.075-0.063,0.164-0.063,0.268c0,0.09,0.019,0.165,0.056,0.223
			c0.037,0.058,0.083,0.106,0.142,0.142c0.057,0.039,0.123,0.069,0.195,0.091c0.073,0.022,0.145,0.044,0.215,0.064
			c0.077,0.021,0.141,0.041,0.191,0.056c0.051,0.017,0.09,0.032,0.118,0.045c0.029,0.015,0.048,0.03,0.061,0.045
			c0.012,0.017,0.018,0.037,0.018,0.06c0,0.033-0.008,0.061-0.022,0.082c-0.016,0.021-0.035,0.038-0.059,0.05
			c-0.022,0.013-0.048,0.021-0.075,0.025s-0.051,0.007-0.073,0.007c-0.052,0-0.104-0.009-0.155-0.025
			c-0.052-0.016-0.088-0.052-0.108-0.105c-0.013-0.036-0.02-0.074-0.02-0.119h-0.553c0,0.096,0.016,0.178,0.045,0.246
			c0.03,0.069,0.069,0.128,0.116,0.176c0.046,0.049,0.1,0.087,0.158,0.115c0.059,0.029,0.118,0.052,0.176,0.068
			c0.059,0.017,0.114,0.027,0.166,0.033c0.052,0.005,0.094,0.008,0.127,0.008c0.101,0,0.201-0.012,0.299-0.033
			c0.099-0.02,0.188-0.055,0.266-0.103c0.079-0.047,0.142-0.111,0.191-0.19c0.049-0.079,0.073-0.177,0.073-0.293
			c0-0.083-0.015-0.152-0.042-0.21C15.207,4.805,15.168,4.756,15.121,4.718z"/>
		<path d="M16.548,5.063c-0.016,0.037-0.033,0.068-0.055,0.096c-0.023,0.026-0.052,0.048-0.084,0.063
			c-0.033,0.016-0.072,0.023-0.119,0.023c-0.065,0-0.121-0.015-0.164-0.042c-0.043-0.028-0.078-0.066-0.104-0.114
			c-0.025-0.046-0.045-0.099-0.057-0.158c-0.012-0.058-0.018-0.118-0.018-0.179c0-0.059,0.006-0.119,0.018-0.177
			c0.012-0.059,0.031-0.111,0.057-0.158s0.061-0.084,0.104-0.113c0.043-0.028,0.099-0.043,0.164-0.043
			c0.058,0,0.104,0.011,0.14,0.033s0.065,0.047,0.086,0.075c0.022,0.028,0.038,0.058,0.046,0.087
			c0.008,0.029,0.014,0.053,0.018,0.069h0.539c-0.023-0.227-0.104-0.401-0.238-0.524s-0.325-0.186-0.573-0.188
			c-0.14,0-0.265,0.023-0.376,0.068s-0.207,0.109-0.287,0.191c-0.08,0.08-0.141,0.178-0.184,0.295
			c-0.042,0.115-0.064,0.244-0.064,0.384c0,0.134,0.02,0.257,0.06,0.371c0.041,0.115,0.099,0.215,0.176,0.298
			c0.078,0.084,0.174,0.151,0.285,0.199c0.113,0.048,0.242,0.074,0.389,0.074c0.13,0,0.246-0.023,0.349-0.066
			s0.188-0.101,0.259-0.171c0.068-0.072,0.121-0.151,0.157-0.24c0.036-0.089,0.054-0.179,0.054-0.27h-0.543
			C16.573,4.987,16.563,5.026,16.548,5.063z"/>
		<rect x="17.356" y="3.854" width="0.552" height="1.794"/>
		<polygon points="18.746,4.965 19.591,4.965 19.591,4.538 18.746,4.538 18.746,4.314 19.677,4.314 19.677,3.854 18.192,3.854 
			18.192,5.648 19.705,5.648 19.705,5.189 18.746,5.189 		"/>
		<polygon points="21.058,4.814 21.052,4.814 20.529,3.854 19.962,3.854 19.962,5.648 20.487,5.648 20.487,4.668 20.492,4.668 
			21.042,5.648 21.58,5.648 21.58,3.854 21.058,3.854 		"/>
		<path d="M22.966,5.063c-0.014,0.037-0.031,0.068-0.053,0.096c-0.023,0.026-0.052,0.048-0.084,0.063
			c-0.033,0.016-0.072,0.023-0.119,0.023c-0.065,0-0.121-0.015-0.164-0.042c-0.043-0.028-0.078-0.066-0.104-0.114
			c-0.025-0.046-0.045-0.099-0.057-0.158c-0.012-0.058-0.018-0.118-0.018-0.179c0-0.059,0.006-0.119,0.018-0.177
			c0.012-0.059,0.031-0.111,0.057-0.158s0.061-0.084,0.104-0.113c0.043-0.028,0.099-0.043,0.164-0.043
			c0.057,0,0.104,0.011,0.139,0.033s0.064,0.047,0.087,0.075c0.021,0.028,0.037,0.058,0.044,0.087
			c0.009,0.029,0.016,0.053,0.018,0.069h0.539c-0.023-0.227-0.104-0.401-0.238-0.524s-0.325-0.186-0.573-0.188
			c-0.14,0-0.265,0.023-0.375,0.068c-0.112,0.045-0.208,0.109-0.287,0.191c-0.079,0.082-0.142,0.18-0.183,0.296
			c-0.043,0.115-0.064,0.244-0.064,0.384c0,0.134,0.021,0.257,0.061,0.371c0.041,0.115,0.099,0.215,0.176,0.298
			c0.078,0.084,0.174,0.151,0.285,0.199c0.113,0.048,0.242,0.074,0.389,0.074c0.13,0,0.247-0.023,0.35-0.066
			c0.102-0.043,0.188-0.101,0.256-0.171c0.069-0.072,0.123-0.151,0.159-0.24c0.036-0.089,0.054-0.179,0.054-0.27h-0.543
			C22.994,4.987,22.982,5.026,22.966,5.063z"/>
		<polygon points="24.328,4.965 25.175,4.965 25.175,4.538 24.328,4.538 24.328,4.314 25.261,4.314 25.261,3.854 23.776,3.854 
			23.776,5.648 25.289,5.648 25.289,5.189 24.328,5.189 		"/>
		<polygon points="13.794,13.503 14.26,13.157 14.26,9.601 12.803,10.682 12.329,10.04 12.38,9.987 12.305,9.914 13.842,8.773 
			14.26,9.336 14.26,7.851 14.077,7.603 11.723,9.349 11.212,8.852 7.506,12.665 6.399,12.665 3.524,12.665 3.524,21.576 
			4.153,21.576 4.594,25.949 4.113,30.72 6.73,30.72 6.986,25.949 6.751,21.576 7.543,21.576 7.543,18.584 7.543,14.961 
			11.704,10.684 		"/>
		<path d="M8.328,9.307c0-0.633-0.206-1.214-0.548-1.693L8.074,6.79L6.976,6.729L6.871,5.654L5.757,6.357L4.855,5.349L4.169,6.667
			C4.142,6.679,4.116,6.696,4.09,6.71L3.053,6.038L3.036,7.382L1.621,7.336l0.804,0.946L1.564,8.821l0.919,0.447
			c0,0.013-0.004,0.025-0.004,0.039c0,1.615,1.312,2.925,2.925,2.925C7.016,12.232,8.328,10.921,8.328,9.307z"/>
	</g>
</g>
</svg>