<?xml version="1.0" encoding="iso-8859-1"?>
<!-- Uploaded to: SVG Repo, www.svgrepo.com, Generator: SVG Repo Mixer Tools -->
<svg version="1.1" id="Layer_1" xmlns="http://www.w3.org/2000/svg" xmlns:xlink="http://www.w3.org/1999/xlink" 
	 viewBox="0 0 512 512" xml:space="preserve">
<rect y="0.12" style="fill:#67BFFF;" width="512" height="326.426"/>
<rect y="162.388" style="fill:#0088FF;" width="512" height="164.164"/>
<rect x="15.412" y="152.2" style="fill:#57555C;" width="20.376" height="20.376"/>
<rect x="15.412" y="162.388" style="fill:#3C3A41;" width="20.376" height="10.188"/>
<rect x="54.387" y="30.736" style="fill:#FFFFFF;" width="407.489" height="263.304"/>
<rect x="54.387" y="162.388" style="fill:#D9D8DB;" width="407.489" height="131.657"/>
<path style="fill:#FFDBA8;" d="M387.062,251.941v140.058c0,19.947-3.553,39.539-10.564,58.222l-23.113,61.659H185.177
	l-42.548-74.428l-11.316-8.955c-20.072-15.882-31.577-39.654-31.577-65.243c0-17.93,5.935-35.694,16.718-50.019l28.327-37.637
	V159.498c0-23.186,18.86-42.047,42.036-42.047c23.186,0,42.047,18.86,42.047,42.047v51.785c3.417-0.899,7.001-1.379,10.689-1.379
	c9.979,0,19.153,3.5,26.363,9.331c0.063-0.052,0.125-0.094,0.188-0.146c7.189-5.747,16.29-9.185,26.185-9.185
	c9.885,0,18.965,3.427,26.143,9.164c0.073,0.052,0.146,0.104,0.219,0.167c7.22-5.831,16.394-9.331,26.363-9.331
	C368.201,209.904,387.062,228.765,387.062,251.941z"/>
<path style="fill:#FFC473;" d="M387.062,251.941v140.058c0,19.947-3.553,39.539-10.564,58.222l-23.113,61.659h-87.28V219.089
	c7.189-5.747,16.29-9.185,26.185-9.185c9.885,0,18.965,3.427,26.143,9.164c0.073,0.052,0.146,0.104,0.219,0.167
	c7.22-5.831,16.394-9.331,26.363-9.331C368.201,209.904,387.062,228.765,387.062,251.941z"/>
</svg>