<?xml version="1.0" encoding="iso-8859-1"?>
<!-- Uploaded to: SVG Repo, www.svgrepo.com, Generator: SVG Repo Mixer Tools -->
<svg version="1.1" id="Layer_1" xmlns="http://www.w3.org/2000/svg" xmlns:xlink="http://www.w3.org/1999/xlink" 
	 viewBox="0 0 512 512" xml:space="preserve">
<path style="fill:#FF405F;" d="M473.801,7.952H28.057C12.561,7.952,0,20.513,0,36.008s12.561,28.057,28.057,28.057h445.744
	L512,36.008L473.801,7.952z"/>
<path style="fill:#FB788A;" d="M256,7.952H28.057C12.561,7.952,0,20.513,0,36.008c0,15.496,12.561,28.058,28.057,28.058H256V7.952z"
	/>
<path style="fill:#3B67AA;" d="M512,469.048c0,19.33-15.67,35-35,35H35c-19.33,0.001-35-15.669-35-35V147.02c0-19.33,15.67-35,35-35
	h442c19.33,0,35,15.67,35,35V469.048z"/>
<path style="fill:#0094E2;" d="M256,112.02H35c-19.33,0-35,15.669-35,35v322.028c0,19.33,15.67,35,35,35h221V112.02z"/>
<rect x="115.001" y="177.017" style="fill:#E0E0E0;" width="331.995" height="262.029"/>
<g>
	<rect x="115.001" y="177.017" style="fill:#F1F1F1;" width="140.999" height="262.029"/>
	<circle style="fill:#F1F1F1;" cx="57.501" cy="308.036" r="22.162"/>
	<rect x="35.333" y="230.599" style="fill:#F1F1F1;" width="44.335" height="31.347"/>
	<rect x="35.333" y="180.601" style="fill:#F1F1F1;" width="44.335" height="31.347"/>
	<rect x="35.333" y="404.125" style="fill:#F1F1F1;" width="44.335" height="31.347"/>
	<rect x="35.333" y="354.127" style="fill:#F1F1F1;" width="44.335" height="31.347"/>
</g>
</svg>