<?xml version="1.0" encoding="iso-8859-1"?>
<!-- Uploaded to: SVG Repo, www.svgrepo.com, Generator: SVG Repo Mixer Tools -->
<svg version="1.1" id="Layer_1" xmlns="http://www.w3.org/2000/svg" xmlns:xlink="http://www.w3.org/1999/xlink" 
	 viewBox="0 0 512 512" xml:space="preserve">
<g>
	<path style="fill:#53CAF9;" d="M137.117,218.004c0,6.847-5.549,12.396-12.396,12.396h-70.11c-6.847,0-12.396-5.549-12.396-12.396
		l0,0c0-6.847,5.549-12.396,12.396-12.396h70.11C131.568,205.608,137.117,211.157,137.117,218.004L137.117,218.004z"/>
	<path style="fill:#53CAF9;" d="M104.419,394.24c0,6.847-5.549,12.396-12.396,12.396H54.612c-6.847,0-12.396-5.549-12.396-12.396
		l0,0c0-6.847,5.549-12.396,12.396-12.396h37.412C98.87,381.844,104.419,387.393,104.419,394.24L104.419,394.24z"/>
</g>
<g>
	<path style="fill:#DBDDDD;" d="M126.199,161.954c0,7.143-5.79,12.935-12.935,12.935H55.15c-7.144,0-12.935-5.792-12.935-12.935
		v-38.804c0-7.143,5.79-12.935,12.935-12.935h58.114c7.144,0,12.935,5.792,12.935,12.935V161.954z"/>
	<path style="fill:#DBDDDD;" d="M108.234,347.352c0,7.143-5.79,12.935-12.935,12.935H55.15c-7.144,0-12.935-5.792-12.935-12.935
		v-82.594c0-7.143,5.79-12.935,12.935-12.935h40.148c7.144,0,12.935,5.792,12.935,12.935V347.352z"/>
</g>
<path style="fill:#EBF25F;" d="M227.687,373.221c0-7.143-5.79-12.935-12.935-12.935h-82.728c-7.144,0-12.935,5.792-12.935,12.935
	v71.896c0,7.144,5.79,12.935,12.935,12.935h82.728c7.144,0,12.935-5.79,12.935-12.935V373.221z"/>
<path style="opacity:0.15;fill:#231F20;enable-background:new    ;" d="M137.117,445.117v-71.896c0-7.143,5.79-12.935,12.935-12.935
	h-18.028c-7.144,0-12.935,5.792-12.935,12.935v71.896c0,7.144,5.79,12.935,12.935,12.935h18.028
	C142.907,458.051,137.117,452.261,137.117,445.117z"/>
<path style="fill:#73C470;" d="M494.799,83.815h-5.12H85.017h-5.12c-7.143,0-12.935,5.792-12.935,12.935V415.25
	c0,7.143,5.792,12.935,12.935,12.935h5.12h404.662h5.12c7.144,0,12.935-5.792,12.935-12.935V96.75
	C507.734,89.606,501.943,83.815,494.799,83.815z"/>
<path style="fill:#EBF25F;" d="M229.155,256c0-26.744,8.504-51.5,22.949-71.718h-122.28c-5.929,0-10.736,4.963-10.736,11.08v122.397
	c0,6.119,4.806,11.081,10.736,11.081h123.098C237.982,308.419,229.155,283.242,229.155,256z"/>
<g>
	<circle style="fill:#DBDDDD;" cx="120.767" cy="132.506" r="16.348"/>
	<circle style="fill:#DBDDDD;" cx="120.767" cy="379.494" r="16.348"/>
	<circle style="fill:#DBDDDD;" cx="459.043" cy="132.506" r="16.348"/>
	<circle style="fill:#DBDDDD;" cx="459.043" cy="379.494" r="16.348"/>
</g>
<path style="fill:#8AACAD;" d="M72.082,512c-4.466,0-8.084-3.618-8.084-8.084V16.168H12.351c-4.465,0-8.084-3.618-8.084-8.084
	S7.886,0,12.351,0h59.732c4.465,0,8.084,3.618,8.084,8.084v495.832C80.166,508.382,76.547,512,72.082,512z"/>
<circle style="fill:#547475;" cx="332.175" cy="256" r="123.505"/>
<circle style="fill:#8AACAD;" cx="332.326" cy="257.11" r="89.163"/>
<circle style="fill:#DBDDDD;" cx="331.56" cy="257.326" r="20.883"/>
<path style="fill:#68D8F2;" d="M313.792,246.363c4.038-6.546,11.152-10.106,18.381-9.899c3.391-3.944,6.294-8.32,8.633-13.025
	c-0.994-20.59-12.079-40.265-31.217-51.383c-19.416,5.243-36.203,16.952-47.895,32.668c8.289,0.954,16.525,3.571,24.212,8.01
	C299.461,220.557,308.995,232.666,313.792,246.363z"/>
<path style="fill:#53CAF9;" d="M270.107,274.565c13.553-7.827,28.808-10.029,43.067-7.336c-3.651-6.769-3.177-14.71,0.618-20.867
	c-1.72-4.91-4.059-9.611-6.964-13.989c-18.044-9.287-40.209-9.657-59.21,0.844c-2.178,7.667-3.346,15.757-3.346,24.114
	c0,12.085,2.443,23.61,6.855,34.111C256.089,284.775,262.452,278.983,270.107,274.565z"/>
<path style="fill:#68D8F2;" d="M330.937,278.197c-7.688-0.224-14.327-4.604-17.763-10.969c-5.112-0.967-10.352-1.29-15.597-0.964
	c-17.14,11.03-28.566,30.158-28.878,51.981c13.636,14.298,32.009,24.039,52.573,26.681c-3.539-7.863-5.518-16.581-5.518-25.765
	C315.756,303.511,321.475,289.2,330.937,278.197z"/>
<path style="fill:#53CAF9;" d="M377.203,301.929c-13.553-7.826-23.089-19.935-27.886-33.63c-4.038,6.546-11.151,10.107-18.38,9.899
	c-3.393,3.944-6.294,8.32-8.633,13.025c0.996,20.643,12.135,40.368,31.364,51.471c0.168,0.098,0.338,0.191,0.509,0.286
	c7.657-1.929,14.918-4.863,21.637-8.65c10.269-6.017,19.431-14.169,26.738-24.266C393.878,309.225,385.241,306.569,377.203,301.929z
	"/>
<path style="fill:#68D8F2;" d="M417.555,280.258c4.861-18.855,3.55-39.312-4.834-58.046c-5.061,7.093-11.679,13.244-19.718,17.886
	c-13.552,7.826-28.808,10.028-43.066,7.335c3.65,6.769,3.177,14.709-0.619,20.867c1.721,4.91,4.06,9.611,6.964,13.989
	c18.377,9.457,41.028,9.676,60.256-1.426C416.881,280.665,417.217,280.462,417.555,280.258z"/>
<path style="fill:#53CAF9;" d="M365.532,248.395c17.38-11.184,28.893-30.693,28.893-52.897c0-0.396-0.008-0.789-0.015-1.184
	c-13.898-13.635-32.27-22.728-52.685-24.836c3.611,7.929,5.63,16.736,5.63,26.019c0,15.651-5.72,29.962-15.181,40.965
	c7.688,0.223,14.326,4.603,17.762,10.969C355.049,248.399,360.288,248.723,365.532,248.395z"/>
<g style="opacity:0.15;">
	<rect x="80.163" y="83.817" style="fill:#231F20;" width="17.246" height="344.366"/>
</g>
<path style="opacity:0.15;fill:#231F20;enable-background:new    ;" d="M260.209,257.057c0-46.398,35.466-84.498,80.766-88.706
	c-2.748-0.254-5.526-0.401-8.341-0.401c-49.212,0-89.107,39.895-89.107,89.107s39.895,89.107,89.107,89.107
	c2.814,0,5.593-0.147,8.341-0.401C295.676,341.556,260.209,303.455,260.209,257.057z"/>
</svg>