<?xml version='1.0' encoding='iso-8859-1'?>
<!DOCTYPE svg PUBLIC '-//W3C//DTD SVG 1.1//EN' 'http://www.w3.org/Graphics/SVG/1.1/DTD/svg11.dtd'>
<!-- Uploaded to: SVG Repo, www.svgrepo.com, Generator: SVG Repo Mixer Tools -->
<svg fill="#000000" height="800px" width="800px" version="1.1" xmlns="http://www.w3.org/2000/svg" viewBox="0 0 297 297" xmlns:xlink="http://www.w3.org/1999/xlink" enable-background="new 0 0 297 297">
  <g>
    <path d="m101.924,119.961v4.818h19.767v-4.818c0-5.458-4.425-9.883-9.883-9.883s-9.884,4.425-9.884,9.883z"/>
    <path d="m267.195,124.779c0.802-1.424 1.266-3.065 1.266-4.818 0-5.458-4.425-9.883-9.883-9.883h-8.463v-100.194c0-5.458-4.426-9.884-9.884-9.884-5.458,0-9.884,4.426-9.884,9.884v100.194h-8.462c-5.459,0-9.884,4.425-9.884,9.883 0,1.753 0.464,3.395 1.266,4.818h53.928z"/>
    <path d="m84.998,119.961c0-5.458-4.425-9.883-9.883-9.883-5.458,0-9.884,4.425-9.884,9.883v4.818h19.767v-4.818z"/>
    <path d="m185.656,54.988c3.28-3.28 3.28-8.6-0.001-11.88-20.485-20.484-53.823-20.486-74.313,0-3.281,3.28-3.281,8.6-0.001,11.88 1.641,1.642 3.791,2.462 5.941,2.462 2.149,0 4.3-0.82 5.939-2.46 13.938-13.938 36.615-13.936 50.553,0 3.281,3.28 8.602,3.281 11.882-0.002z"/>
    <path d="m128.417,59.416c-3.281,3.281-3.281,8.6-0.001,11.881 3.281,3.279 8.601,3.28 11.881,0.001 2.191-2.19 5.104-3.396 8.203-3.396 3.099,0 6.011,1.205 8.2,3.396 1.641,1.641 3.79,2.461 5.94,2.461 2.149,0 4.3-0.82 5.941-2.46 3.281-3.281 3.281-8.601 0.001-11.881-5.364-5.364-12.495-8.317-20.082-8.317s-14.719,2.952-20.083,8.315z"/>
    <path d="m106.007,34.771c11.35-11.35 26.44-17.601 42.493-17.601 16.052,0 31.142,6.251 42.49,17.601 1.64,1.642 3.79,2.462 5.941,2.462 2.15,0 4.3-0.82 5.939-2.46 3.281-3.281 3.281-8.601 0.001-11.881-14.521-14.525-33.831-22.523-54.371-22.523-20.541,2.22045e-16-39.852,7.998-54.375,22.523-3.28,3.28-3.28,8.6 0.001,11.881 3.28,3.28 8.599,3.281 11.881-0.002z"/>
    <path d="m10.192,138.617v124.037c0,18.939 15.408,34.346 34.346,34.346h207.924c18.938,0 34.346-15.407 34.346-34.346v-124.037h-276.616zm64.923,121.691h-18.346c-5.458,0-9.884-4.426-9.884-9.884 0-5.458 4.426-9.883 9.884-9.883h18.347c5.458,0 9.883,4.425 9.883,9.883-0.001,5.458-4.426,9.884-9.884,9.884zm55.038,0h-18.346c-5.458,0-9.884-4.426-9.884-9.884 0-5.458 4.426-9.883 9.884-9.883h18.346c5.459,0 9.884,4.425 9.884,9.883 2.84217e-14,5.458-4.425,9.884-9.884,9.884zm55.039,0h-18.346c-5.459,0-9.884-4.426-9.884-9.884 0-5.458 4.425-9.883 9.884-9.883h18.346c5.458,0 9.884,4.425 9.884,9.883-2.84217e-14,5.458-4.426,9.884-9.884,9.884z"/>
  </g>
</svg>