<?xml version="1.0" encoding="iso-8859-1"?>
<!-- Uploaded to: SVG Repo, www.svgrepo.com, Generator: SVG Repo Mixer Tools -->
<svg version="1.1" id="Layer_1" xmlns="http://www.w3.org/2000/svg" xmlns:xlink="http://www.w3.org/1999/xlink" 
	 viewBox="0 0 393.568 393.568" xml:space="preserve">
<circle style="fill:#F1F3F7;" cx="196.784" cy="196.784" r="196.784"/>
<path style="fill:#646B79;" d="M295.564,190.772h-86.756v-73.632c0-6.788-5.495-12.024-12.024-12.024s-12.024,5.495-12.024,12.024
	v73.632H98.004c-36.396,0-65.745,29.608-65.745,65.745c0,36.396,29.608,65.745,65.745,65.745h197.56
	c36.396,0,65.745-29.608,65.745-65.745C361.568,220.38,331.96,190.772,295.564,190.772z"/>
<g>
	<path style="fill:#6EB1E1;" d="M245.01,68.655c-12.865-12.865-30.125-19.911-48.226-19.911s-35.362,7.046-48.226,19.911
		L136.533,56.63c15.968-15.968,37.495-24.889,60.251-24.889s44.283,8.921,60.251,24.889L245.01,68.655z"/>
	<path style="fill:#6EB1E1;" d="M219.345,94.319c-6.012-6.012-14.158-9.438-22.562-9.438c-8.663,0-16.485,3.426-22.562,9.438
		l-12.024-12.024c9.18-9.18,21.463-14.416,34.844-14.416c13.123,0,25.406,5.236,34.844,14.416L219.345,94.319z"/>
</g>
<circle style="fill:#FBD303;" cx="96.194" cy="256.776" r="16.485"/>
<path style="fill:#D6D6D8;" d="M299.507,240.291H159.03c-9.18,0-16.485,7.305-16.485,16.485s7.305,16.485,16.485,16.485h140.154
	c9.18,0,16.485-7.305,16.485-16.485C315.992,247.596,308.428,240.291,299.507,240.291z"/>
<g>
	<rect x="100.073" y="322.521" style="fill:#333842;" width="44.541" height="13.123"/>
	<rect x="248.63" y="322.521" style="fill:#333842;" width="44.541" height="13.123"/>
</g>
</svg>