<?xml version="1.0" encoding="UTF-8" standalone="no"?>
<!-- Uploaded to: SVG Repo, www.svgrepo.com, Generator: SVG Repo Mixer Tools -->

<svg
   fill="#000000"
   width="799.93835"
   height="443.63797"
   viewBox="0 -27.73 122.87053 68.142792"
   version="1.1"
   id="Layer_1"
   xml:space="preserve"
   sodipodi:docname="bilgisayarsistem-ic.svg"
   inkscape:version="1.2.2 (b0a8486541, 2022-12-01)"
   xmlns:inkscape="http://www.inkscape.org/namespaces/inkscape"
   xmlns:sodipodi="http://sodipodi.sourceforge.net/DTD/sodipodi-0.dtd"
   xmlns="http://www.w3.org/2000/svg"
   xmlns:svg="http://www.w3.org/2000/svg"><defs
   id="defs1875"><clipPath
   clipPathUnits="userSpaceOnUse"
   id="clipPath15564"><g
     id="g15568"
     transform="translate(-2.6856513,-1.5887216)"><g
       inkscape:label="Clip"
       id="use15566"
       transform="translate(2.6856513,1.588721)"
       clip-path="url(#clipPath15564)"><g
         id="g15744"
         clip-path="none"
         transform="translate(2.6856513,1.588721)"><g
           id="g15572"
           transform="matrix(0.31600234,0,0,0.30689409,75.726475,8.9374409)">

<path
   d="m 79.93,51.37 c -0.53,-0.51 -0.32,-1.2 0.48,-1.54 0.8,-0.34 1.87,-0.2 2.41,0.3 3.78,3.6 1.96,6.52 0.21,9.32 -1.32,2.12 -2.59,4.15 -0.25,6.19 0.57,0.5 0.4,1.19 -0.37,1.55 -0.77,0.36 -1.86,0.26 -2.43,-0.24 -3.47,-3.03 -1.86,-5.62 -0.17,-8.32 1.41,-2.27 2.89,-4.63 0.12,-7.26 z M 14.57,28.11 h 73.65 c 0.96,0 1.74,0.78 1.74,1.74 v 12.26 h 24.13 c 1.46,0 2.79,-0.6 3.75,-1.56 0.96,-0.96 1.56,-2.29 1.56,-3.75 v -28 c 0,-1.46 -0.6,-2.79 -1.56,-3.75 -0.96,-0.96 -2.29,-1.56 -3.75,-1.56 H 8.8 C 7.34,3.49 6.01,4.09 5.05,5.05 4.08,6.01 3.48,7.34 3.48,8.8 v 28 c 0,1.46 0.6,2.79 1.56,3.75 0.96,0.96 2.29,1.56 3.75,1.56 h 4.03 V 29.85 c 0.01,-0.96 0.79,-1.74 1.75,-1.74 z m 71.91,3.48 H 16.31 V 41.68 H 86.48 Z M 15.21,13.64 c -0.96,0 -1.74,-0.78 -1.74,-1.74 0,-0.96 0.78,-1.74 1.74,-1.74 h 93.74 c 0.96,0 1.74,0.78 1.74,1.74 0,0.96 -0.78,1.74 -1.74,1.74 z m 83.37,18.35 c 1.36,0 2.46,1.1 2.46,2.46 0,1.36 -1.1,2.46 -2.46,2.46 -1.36,0 -2.46,-1.1 -2.46,-2.46 0,-1.36 1.11,-2.46 2.46,-2.46 z m 10.27,0 c 1.36,0 2.46,1.1 2.46,2.46 0,1.36 -1.1,2.46 -2.46,2.46 -1.36,0 -2.46,-1.1 -2.46,-2.46 0,-1.36 1.1,-2.46 2.46,-2.46 z M 8.8,0 h 105.29 c 2.42,0 4.62,0.99 6.21,2.58 1.59,1.59 2.58,3.79 2.58,6.21 V 36.8 c 0,2.42 -0.99,4.62 -2.58,6.21 -1.59,1.59 -3.79,2.58 -6.21,2.58 H 8.8 C 6.38,45.59 4.18,44.6 2.59,43.01 0.99,41.42 0,39.22 0,36.8 V 8.8 C 0,6.38 0.99,4.18 2.58,2.59 4.18,0.99 6.38,0 8.8,0 Z m 6.41,21.76 c -0.96,0 -1.74,-0.78 -1.74,-1.74 0,-0.96 0.78,-1.74 1.74,-1.74 h 93.74 c 0.96,0 1.74,0.78 1.74,1.74 0,0.96 -0.78,1.74 -1.74,1.74 z m 6.16,29.61 c -0.53,-0.51 -0.32,-1.2 0.48,-1.54 0.8,-0.34 1.87,-0.2 2.41,0.3 3.78,3.6 1.96,6.52 0.21,9.32 -1.32,2.12 -2.59,4.15 -0.25,6.19 0.57,0.5 0.4,1.19 -0.37,1.55 -0.77,0.36 -1.86,0.26 -2.43,-0.24 -3.47,-3.03 -1.86,-5.62 -0.17,-8.32 1.41,-2.27 2.88,-4.63 0.12,-7.26 z m 14.64,0 c -0.53,-0.51 -0.32,-1.2 0.48,-1.54 0.8,-0.34 1.87,-0.2 2.41,0.3 3.78,3.6 1.96,6.52 0.21,9.32 -1.32,2.12 -2.59,4.15 -0.25,6.19 0.57,0.5 0.4,1.19 -0.37,1.55 -0.77,0.36 -1.86,0.26 -2.43,-0.24 -3.47,-3.03 -1.86,-5.62 -0.17,-8.32 1.41,-2.27 2.88,-4.63 0.12,-7.26 z m 14.64,0 c -0.53,-0.51 -0.32,-1.2 0.48,-1.54 0.8,-0.34 1.87,-0.2 2.41,0.3 3.78,3.6 1.96,6.52 0.21,9.32 -1.32,2.12 -2.59,4.15 -0.25,6.19 0.57,0.5 0.4,1.19 -0.37,1.55 -0.77,0.36 -1.86,0.26 -2.43,-0.24 -3.47,-3.03 -1.86,-5.62 -0.17,-8.32 1.41,-2.27 2.89,-4.63 0.12,-7.26 z m 14.64,0 c -0.53,-0.51 -0.32,-1.2 0.48,-1.54 0.8,-0.34 1.87,-0.2 2.41,0.3 3.78,3.6 1.96,6.52 0.21,9.32 -1.32,2.12 -2.59,4.15 -0.25,6.19 0.57,0.5 0.4,1.19 -0.37,1.55 -0.77,0.36 -1.86,0.26 -2.43,-0.24 -3.47,-3.03 -1.85,-5.62 -0.17,-8.32 1.41,-2.27 2.89,-4.63 0.12,-7.26 z"
   id="path15570" />

</g><g
           id="g15584"
           transform="matrix(0.03702094,0,0,0.03373472,-3.5859266,-29.1693)"><path
             d="M 841.8938,97.371494 H 180.39938 c -13.50198,0 -24.45448,10.955576 -24.45448,24.454476 v 431.9762 c 0,1.20921 0.50887,2.22695 0.70136,3.37472 0.7628,11.39892 9.1689,21.20774 20.82583,22.86336 l 65.78361,9.23442 c 50.43966,7.25833 111.76937,16.11084 167.93665,22.16302 v 32.41417 H 186.83347 c -13.50197,0 -24.45447,10.9525 -24.45447,24.45447 V 904.3846 c 0,13.50197 10.9525,24.45447 24.45447,24.45447 h 652.19448 c 13.50198,0 24.45448,-10.9525 24.45448,-24.45447 V 668.30736 c 0,-13.50198 -10.9525,-24.45448 -24.45448,-24.45448 H 602.75617 v -31.07697 c 57.57,-5.85969 121.76659,-15.34804 173.79634,-22.99134 l 68.58803,-9.74329 c 12.41973,-1.78361 21.3347,-12.80164 20.95279,-25.09441 0,-0.38191 0.25393,-0.69829 0.25393,-1.1447 V 121.82699 c 10e-4,-13.4989 -10.95148,-24.455496 -24.45346,-24.455496 z"
             fill="#27323a"
             id="path15574" /><path
             d="m 211.28795,692.76184 h 603.2845 v 187.16828 h -603.2845 z"
             fill="#f4ce73"
             id="path15576" /><path
             d="m 460.10232,643.85186 v -27.89473 c 19.67806,1.46722 38.08444,2.42251 53.8789,2.42251 11.97331,0 25.59918,-0.63891 39.86497,-1.52969 v 27.00191 z m 357.33598,-109.2844 -48.01612,6.81498 c -80.37193,11.84635 -190.35462,28.08722 -255.43994,28.08722 -66.10613,0 -180.29187,-16.56135 -263.65661,-28.59609 L 204.8559,534.505 V 146.28147 h 612.58343 v 388.28599 z"
             fill="#ffffff"
             id="path15578" /><path
             d="m 599.25448,798.41349 h 163.60664 c 13.4989,0 24.45448,-10.9525 24.45448,-24.4555 0,-13.49891 -10.95558,-24.45448 -24.45448,-24.45448 H 599.25448 c -13.50197,0 -24.45447,10.95557 -24.45447,24.45448 0,13.503 10.9525,24.4555 24.45447,24.4555 z M 489.39978,541.12851 c 0,-12.03474 9.80473,-21.84357 21.84357,-21.84357 11.97331,0 21.78111,9.8078 21.78111,21.84357 0,11.97332 -9.8078,21.78112 -21.78111,21.78112 -12.03885,0 -21.84357,-9.80882 -21.84357,-21.78112 z M 250.77204,167.48921 c -8.9805,0 -16.30332,7.26139 -16.30332,16.30332 v 310.01712 c 0,9.04501 7.32282,16.30333 16.30332,16.30333 h 520.87709 c 8.98049,0 16.30332,-7.25832 16.30332,-16.30333 V 183.79253 c 0,-9.04193 -7.32283,-16.30332 -16.30332,-16.30332 z"
             fill="#27323a"
             id="path15580" /><path
             d="M 755.3458,200.09586 V 477.50633 H 267.07537 V 200.09586 Z"
             fill="#79ccbf"
             id="path15582" /></g><g
           id="g15646"
           transform="matrix(0.05673058,0,0,0.05992302,46.198684,8.3646221)"><path
             style="fill:#82afaf"
             d="m 427.2,479.2 c 0,8.8 -7.2,15.2 -15.2,15.2 H 82.4 c -8.8,0 -15.2,-7.2 -15.2,-15.2 V 15.2 C 67.2,6.4 74.4,0 82.4,0 h 328.8 c 8.8,0 15.2,7.2 15.2,15.2 v 464 z"
             id="path15586" /><path
             style="fill:#76a3a2"
             d="M 67.2,15.2 C 67.2,6.4 74.4,0 82.4,0 h 328.8 c 8.8,0 15.2,7.2 15.2,15.2 v 464 c 0,8.8 -7.2,15.2 -15.2,15.2"
             id="path15588" /><g
             id="g15594">
	<polygon
   style="fill:#669694"
   points="427.2,374.4 427.2,262.4 303.2,136.8 192,136.8 "
   id="polygon15590" />
	<path
   style="fill:#669694"
   d="M 412,23.2 H 82.4 c -8.8,0 -15.2,7.2 -15.2,15.2 v 90.4 h 360 V 38.4 c 0,-8 -7.2,-15.2 -15.2,-15.2 z"
   id="path15592" />
</g><path
             style="fill:#a3d0d1"
             d="M 412,0 H 82.4 c -8,0 -15.2,7.2 -15.2,15.2 v 90.4 h 360 V 15.2 C 427.2,7.2 420,0 412,0 Z"
             id="path15596" /><path
             style="fill:#91c4c4"
             d="M 427.2,106.4 V 15.2 C 427.2,6.4 420,0 412,0 H 82.4 c -8,0 -15.2,7.2 -15.2,15.2"
             id="path15598" /><path
             style="fill:#b3e0e0"
             d="M 412,0 H 82.4 c -8,0 -15.2,7.2 -15.2,15.2 v 7.2 c 0,-8.8 7.2,-15.2 15.2,-15.2 h 328.8 c 8.8,0 15.2,7.2 15.2,15.2 V 15.2 C 427.2,7.2 420,0 412,0 Z"
             id="path15600" /><path
             style="fill:#a3d0d1"
             d="m 67.2,464.8 v 14.4 c 0,8.8 7.2,15.2 15.2,15.2 h 328.8 c 8.8,0 15.2,-7.2 15.2,-15.2 v -14.4 z"
             id="path15602" /><rect
             x="67.199997"
             y="99.199997"
             style="fill:#b3e0e0"
             width="360"
             height="7.1999998"
             id="rect15604" /><path
             style="fill:#a3d0d1"
             d="m 308,136.8 c 0,5.6 -4,9.6 -9.6,9.6 H 196 c -5.6,0 -9.6,-4 -9.6,-9.6 v 0 c 0,-5.6 4,-9.6 9.6,-9.6 h 103.2 c 4.8,0 8.8,4.8 8.8,9.6 z"
             id="path15606" /><path
             style="fill:#b3e0e0"
             d="M 298.4,127.2 H 196 c -4,0 -8,2.4 -8.8,6.4 1.6,4 4.8,6.4 8.8,6.4 h 103.2 c 4,0 8,-2.4 8.8,-6.4 -1.6,-3.2 -4.8,-6.4 -9.6,-6.4 z"
             id="path15608" /><path
             style="fill:#137d8e"
             d="m 124,52 c 0,10.4 -8,18.4 -18.4,18.4 -10.4,0 -18.4,-8 -18.4,-18.4 0,-10.4 8,-20 18.4,-20 10.4,0 18.4,9.6 18.4,20 z"
             id="path15610" /><path
             style="fill:#72a2a5"
             d="m 124,52 c 0,10.4 -8,27.2 -18.4,27.2 -10.4,0 -18.4,-17.6 -18.4,-27.2 0,-10.4 8,-17.6 18.4,-17.6 10.4,0 18.4,7.2 18.4,17.6 z"
             id="path15612" /><circle
             style="fill:#185b6b"
             cx="105.6"
             cy="52"
             r="18.4"
             id="circle15614" /><path
             style="fill:#073b44"
             d="m 119.2,38.4 c 7.2,7.2 7.2,19.2 0,26.4 C 112,72 100,72 92.8,64.8"
             id="path15616" /><circle
             style="fill:#b8d7e0"
             cx="115.2"
             cy="42.400002"
             r="1.6"
             id="circle15618" /><path
             style="fill:#137d8e"
             d="m 168.8,52 c 0,10.4 -8,18.4 -18.4,18.4 -10.4,0 -18.4,-8 -18.4,-18.4 0,-10.4 8,-20 18.4,-20 10.4,0 18.4,9.6 18.4,20 z"
             id="path15620" /><path
             style="fill:#72a2a5"
             d="m 168.8,52 c 0,10.4 -8,27.2 -18.4,27.2 C 140,79.2 132,62.4 132,52 c 0,-10.4 8,-17.6 18.4,-17.6 10.4,0 18.4,7.2 18.4,17.6 z"
             id="path15622" /><circle
             style="fill:#185b6b"
             cx="150.39999"
             cy="52"
             r="18.4"
             id="circle15624" /><path
             style="fill:#073b44"
             d="m 163.2,38.4 c 7.2,7.2 7.2,19.2 0,26.4 -7.2,7.2 -19.2,7.2 -26.4,0"
             id="path15626" /><circle
             style="fill:#b8d7e0"
             cx="160"
             cy="42.400002"
             r="1.6"
             id="circle15628" /><path
             style="fill:#137d8e"
             d="m 213.6,52 c 0,10.4 -8,18.4 -18.4,18.4 -10.4,0 -18.4,-8 -18.4,-18.4 0,-10.4 8,-20 18.4,-20 10.4,0 18.4,9.6 18.4,20 z"
             id="path15630" /><path
             style="fill:#72a2a5"
             d="m 213.6,52 c 0,10.4 -8,27.2 -18.4,27.2 -10.4,0 -18.4,-16.8 -18.4,-27.2 0,-10.4 8,-17.6 18.4,-17.6 10.4,0 18.4,7.2 18.4,17.6 z"
             id="path15632" /><circle
             style="fill:#185b6b"
             cx="195.2"
             cy="52"
             r="18.4"
             id="circle15634" /><path
             style="fill:#073b44"
             d="m 208,38.4 c 7.2,7.2 7.2,19.2 0,26.4 -7.2,7.2 -19.2,7.2 -26.4,0"
             id="path15636" /><circle
             style="fill:#b8d7e0"
             cx="204.8"
             cy="42.400002"
             r="1.6"
             id="circle15638" /><path
             style="fill:#53ad8a"
             d="m 398.4,67.2 c 0,4 -3.2,7.2 -7.2,7.2 H 290.4 c -4,0 -7.2,-3.2 -7.2,-7.2 V 41.6 c 0,-4 3.2,-7.2 7.2,-7.2 h 100.8 c 4,0 7.2,3.2 7.2,7.2 z"
             id="path15640" /><path
             style="fill:#3ca589"
             d="M 391.2,34.4 H 290.4 c -4,0 -7.2,3.2 -7.2,7.2 v 23.2 c 0,4 3.2,7.2 7.2,7.2 h 100.8 c 4,0 7.2,-3.2 7.2,-7.2 V 41.6 c 0,-4 -3.2,-7.2 -7.2,-7.2 z"
             id="path15642" /><path
             style="fill:#319385"
             d="m 283.2,64.8 c 0,4 3.2,7.2 7.2,7.2 h 100.8 c 4,0 7.2,-3.2 7.2,-7.2 V 41.6 c 0,-4 -3.2,-7.2 -7.2,-7.2"
             id="path15644" /></g><g
           id="g15682"
           transform="matrix(0.0652863,0,0,0.06406848,83.040057,-28.334524)"><path
             style="fill:#54686c"
             d="M 126.527,136.399 H 41.796 c -17.312,0 -31.347,13.992 -31.347,31.251 v 248.812 c 0,17.26 14.035,31.251 31.347,31.251 h 428.408 c 17.312,0 31.347,-13.689 31.347,-30.948 V 167.651 c 0,-17.259 -14.035,-31.251 -31.347,-31.251 H 385.473 126.527 Z"
             id="path15648" /><g
             id="g15654">
	<path
   style="fill:#87a3aa"
   d="m 10.449,407.051 v 9.411 c 0,17.26 14.035,31.251 31.347,31.251 h 428.408 c 17.312,0 31.347,-13.689 31.347,-30.948 v -9.714 z"
   id="path15650" />
	<path
   style="fill:#87a3aa"
   d="M 470.204,136.399 H 385.473 126.527 41.796 c -17.312,0 -31.347,13.992 -31.347,31.251 v 7.377 h 491.102 v -7.377 c 0,-17.258 -14.035,-31.251 -31.347,-31.251 z"
   id="path15652" />
</g><circle
             style="fill:#54686c"
             cx="327.272"
             cy="292.332"
             r="114.719"
             id="circle15656" /><rect
             x="55.380001"
             y="99.830002"
             style="fill:#faf9f9"
             width="78.366997"
             height="36.570999"
             id="rect15658" /><polygon
             style="fill:#54686c"
             points="418.544,135.37 236.006,135.37 249.59,64.287 403.916,64.287 "
             id="polygon15660" /><circle
             style="fill:#87a3aa"
             cx="327.272"
             cy="292.332"
             r="77.198997"
             id="circle15662" /><circle
             style="fill:#54686c"
             cx="327.272"
             cy="292.332"
             r="42.369999"
             id="circle15664" /><path
             d="m 327.276,167.155 c -69.021,0 -125.173,56.152 -125.173,125.173 0,69.021 56.152,125.172 125.173,125.172 69.021,0 125.172,-56.152 125.172,-125.173 0,-69.021 -56.152,-125.172 -125.172,-125.172 z m 0,229.447 c -57.497,0 -104.275,-46.778 -104.275,-104.275 0,-57.497 46.778,-104.275 104.275,-104.275 57.497,0 104.274,46.779 104.274,104.275 0,57.496 -46.778,104.275 -104.274,104.275 z"
             id="path15666" /><path
             d="m 327.276,204.679 c -48.329,0 -87.648,39.318 -87.648,87.648 0,48.33 39.318,87.648 87.648,87.648 48.33,0 87.648,-39.318 87.648,-87.648 0,-48.33 -39.32,-87.648 -87.648,-87.648 z m 0,154.399 c -36.807,0 -66.75,-29.944 -66.75,-66.75 0,-36.806 29.944,-66.75 66.75,-66.75 36.806,0 66.75,29.944 66.75,66.75 0,36.806 -29.945,66.75 -66.75,66.75 z"
             id="path15668" /><path
             d="m 346.687,266.983 c 0.065,0.051 0.161,0.127 0.227,0.177 1.892,1.441 4.116,2.138 6.324,2.138 3.149,0 6.263,-1.418 8.318,-4.117 3.483,-4.57 2.619,-11.091 -1.919,-14.599 -4.504,-3.511 -11.004,-2.756 -14.582,1.715 -3.605,4.506 -2.874,11.082 1.632,14.686 z"
             id="path15670" /><path
             d="m 359.196,292.327 c 0,17.601 -14.319,31.921 -31.921,31.921 -17.601,0 -31.921,-14.319 -31.921,-31.921 0,-5.771 -4.678,-10.449 -10.449,-10.449 -5.771,0 -10.449,4.678 -10.449,10.449 0,29.124 23.694,52.819 52.819,52.819 29.124,0 52.819,-23.694 52.819,-52.819 0,-5.771 -4.678,-10.449 -10.449,-10.449 -5.771,0 -10.449,4.678 -10.449,10.449 z"
             id="path15672" /><path
             d="m 456.62,167.38 c -5.762,0 -10.449,4.687 -10.449,10.449 0,5.762 4.687,10.449 10.449,10.449 5.762,0 10.449,-4.687 10.449,-10.449 0,-5.762 -4.687,-10.449 -10.449,-10.449 z"
             id="path15674" /><path
             d="m 470.204,125.95 h -42.93 L 414.15,62.18 c -1,-4.857 -5.276,-8.342 -10.235,-8.342 H 249.59 c -5.014,0 -9.322,3.562 -10.263,8.488 l -12.158,63.625 H 144.197 V 99.828 c 0,-5.771 -4.678,-10.449 -10.449,-10.449 H 55.38 c -5.771,0 -10.449,4.678 -10.449,10.449 V 125.95 H 41.796 C 18.75,125.95 0,144.657 0,167.65 v 248.812 c 0,22.993 18.75,41.7 41.796,41.7 h 428.408 c 23.046,0 41.796,-18.57 41.796,-41.397 V 167.651 C 512,144.657 493.25,125.95 470.204,125.95 Z M 258.231,74.736 h 137.168 l 10.328,50.184 H 248.641 Z M 65.829,110.277 h 57.469 V 125.95 H 65.829 Z m 425.273,306.489 c 0,11.495 -9.179,20.499 -20.898,20.499 H 41.796 c -11.171,0 -20.297,-8.777 -20.845,-19.765 h 174.631 c 5.771,0 10.449,-4.678 10.449,-10.449 0,-5.771 -4.678,-10.449 -10.449,-10.449 H 20.898 V 188.053 h 174.683 c 5.771,0 10.449,-4.678 10.449,-10.449 0,-5.771 -4.678,-10.449 -10.449,-10.449 H 20.923 c 0.267,-11.24 9.518,-20.307 20.873,-20.307 h 428.408 c 11.523,0 20.898,9.332 20.898,20.802 z"
             id="path15676" /><path
             d="m 229.522,396.602 h -0.137 c -5.771,0 -10.449,4.678 -10.449,10.449 0,5.771 4.678,10.449 10.449,10.449 h 0.137 c 5.771,0 10.449,-4.678 10.449,-10.449 0,-5.771 -4.678,-10.449 -10.449,-10.449 z"
             id="path15678" /><path
             d="m 229.385,188.053 h 0.137 c 5.771,0 10.449,-4.678 10.449,-10.449 0,-5.771 -4.678,-10.449 -10.449,-10.449 h -0.137 c -5.771,0 -10.449,4.678 -10.449,10.449 0,5.771 4.678,10.449 10.449,10.449 z"
             id="path15680" /></g><g
           id="g15698"
           transform="matrix(0.04785007,0,0,0.05177577,47.739577,-25.414407)"><path
             style="fill:#48cfad"
             d="m 128.007,501.311 c -17.656,0 -31.999,-14.359 -31.999,-32 V 42.654 c 0,-17.64 14.343,-31.999 31.999,-31.999 h 255.984 c 17.654,0 31.998,14.359 31.998,31.999 v 426.657 c 0,17.641 -14.344,32 -31.998,32 z"
             id="path15684" /><path
             style="fill:#5d9cec"
             d="m 371.116,354.878 -0.906,-0.281 c -15.094,-4.094 -26.156,-7.983 -32.844,-10.562 -23.592,-9.078 -29.779,-15.641 -31.342,-18.733 -0.031,-0.109 -0.094,-0.234 -0.156,-0.344 l -0.188,-28.891 -100.911,1.156 -0.203,27.734 c -0.047,0.109 -0.094,0.234 -0.141,0.344 -1.578,3.093 -7.719,9.655 -31.343,18.749 -6.656,2.562 -17.75,6.452 -32.718,10.515 l -1.016,0.312 c -13.625,4.547 -22.78,17.312 -22.78,31.719 v 40.045 h 277.326 v -40.045 c 10e-4,-14.406 -9.153,-27.171 -22.778,-31.718 z"
             id="path15686" /><path
             style="fill:#eac6bb"
             d="m 333.803,243.288 c 0,51.061 -48.686,100.153 -78.583,100.153 -29.905,0 -78.575,-49.093 -78.575,-100.153 0,-51.06 35.186,-84.747 78.575,-84.747 43.398,0 78.583,33.686 78.583,84.747 z"
             id="path15688" /><path
             style="fill:#a85d5d"
             d="m 305.868,149.307 c -13.375,-12.109 -58.177,-26.968 -102.864,0 -22.624,13.64 -39.092,73.95 -39.092,73.95 0,0 44.139,25.015 101.591,-2.016 34.396,-16.187 33.615,-7.703 43.428,7.031 5.844,8.734 24.873,15.015 24.873,15.015 0,0 14.812,-55.278 -27.936,-93.98 z"
             id="path15690" /><path
             style="fill:#434a54"
             d="M 383.991,0 H 128.007 C 104.43,0 85.337,19.093 85.337,42.654 v 426.657 c 0,23.562 19.093,42.671 42.67,42.671 h 255.984 c 23.561,0 42.654,-19.108 42.654,-42.671 V 42.654 C 426.645,19.093 407.552,0 383.991,0 Z m 21.342,469.311 c 0,11.766 -9.594,21.328 -21.342,21.328 H 128.007 c -11.765,0 -21.343,-9.562 -21.343,-21.328 V 42.654 c 0,-11.765 9.578,-21.327 21.343,-21.327 h 255.984 c 11.748,0 21.342,9.562 21.342,21.327 z"
             id="path15692" /><path
             style="fill:#434a54"
             d="m 96.008,405.313 v 63.998 c 0,17.641 14.343,32 31.999,32 h 255.984 c 17.654,0 31.998,-14.359 31.998,-32 v -63.998 z"
             id="path15694" /><path
             style="fill:#656d78"
             d="m 256.002,426.641 c -17.687,0 -31.999,14.328 -31.999,31.999 0,17.671 14.312,31.999 31.999,31.999 17.678,0 31.991,-14.328 31.991,-31.999 0,-17.671 -14.313,-31.999 -31.991,-31.999 z m 0,42.67 c -5.89,0 -10.671,-4.781 -10.671,-10.671 0,-5.875 4.781,-10.656 10.671,-10.656 5.875,0 10.657,4.781 10.657,10.656 0,5.89 -4.781,10.671 -10.657,10.671 z"
             id="path15696" /></g><g
           id="g15720"
           transform="matrix(0.1536,0,0,0.1536,56.9856,8.4284814)"><rect
             y="5.5"
             style="fill:#38454f"
             width="58"
             height="38"
             id="rect15700"
             x="0" /><path
             style="fill:#61b872"
             d="M 13.962,21.5 H 11.038 C 10.465,21.5 10,21.035 10,20.462 V 17.538 C 10,16.965 10.465,16.5 11.038,16.5 h 2.924 c 0.573,0 1.038,0.465 1.038,1.038 v 2.924 c 0,0.573 -0.465,1.038 -1.038,1.038 z"
             id="path15702" /><path
             style="fill:#48a0dc"
             d="M 24.962,21.5 H 22.038 C 21.465,21.5 21,21.035 21,20.462 V 17.538 C 21,16.965 21.465,16.5 22.038,16.5 h 2.924 c 0.573,0 1.038,0.465 1.038,1.038 v 2.924 c 0,0.573 -0.465,1.038 -1.038,1.038 z"
             id="path15704" /><path
             style="fill:#ebba16"
             d="M 35.962,21.5 H 33.038 C 32.465,21.5 32,21.035 32,20.462 V 17.538 C 32,16.965 32.465,16.5 33.038,16.5 h 2.924 c 0.573,0 1.038,0.465 1.038,1.038 v 2.924 c 0,0.573 -0.465,1.038 -1.038,1.038 z"
             id="path15706" /><path
             style="fill:#bf4d90"
             d="M 46.962,21.5 H 44.038 C 43.465,21.5 43,21.035 43,20.462 V 17.538 C 43,16.965 43.465,16.5 44.038,16.5 h 2.924 c 0.573,0 1.038,0.465 1.038,1.038 v 2.924 c 0,0.573 -0.465,1.038 -1.038,1.038 z"
             id="path15708" /><path
             style="fill:#dd352e"
             d="M 13.962,32.5 H 11.038 C 10.465,32.5 10,32.035 10,31.462 V 28.538 C 10,27.965 10.465,27.5 11.038,27.5 h 2.924 c 0.573,0 1.038,0.465 1.038,1.038 v 2.924 c 0,0.573 -0.465,1.038 -1.038,1.038 z"
             id="path15710" /><path
             style="fill:#a4e869"
             d="M 24.962,32.5 H 22.038 C 21.465,32.5 21,32.035 21,31.462 V 28.538 C 21,27.965 21.465,27.5 22.038,27.5 h 2.924 c 0.573,0 1.038,0.465 1.038,1.038 v 2.924 c 0,0.573 -0.465,1.038 -1.038,1.038 z"
             id="path15712" /><path
             style="fill:#50508a"
             d="M 35.962,32.5 H 33.038 C 32.465,32.5 32,32.035 32,31.462 V 28.538 C 32,27.965 32.465,27.5 33.038,27.5 h 2.924 c 0.573,0 1.038,0.465 1.038,1.038 v 2.924 c 0,0.573 -0.465,1.038 -1.038,1.038 z"
             id="path15714" /><path
             style="fill:#be7c6d"
             d="M 46.962,32.5 H 44.038 C 43.465,32.5 43,32.035 43,31.462 V 28.538 C 43,27.965 43.465,27.5 44.038,27.5 h 2.924 c 0.573,0 1.038,0.465 1.038,1.038 v 2.924 c 0,0.573 -0.465,1.038 -1.038,1.038 z"
             id="path15716" /><polygon
             style="fill:#afb6bb"
             points="28,49.5 15,49.5 15,52.5 43,52.5 43,49.5 30,49.5 30,43.5 28,43.5 "
             id="polygon15718" /></g><g
           id="g15742"
           transform="matrix(0.77003571,0,0,0.60848731,2.5230789,4.400439)"><rect
             y="5.5"
             style="fill:#38454f"
             width="58"
             height="38"
             id="rect15722"
             x="0" /><path
             style="fill:#61b872"
             d="M 13.962,21.5 H 11.038 C 10.465,21.5 10,21.035 10,20.462 V 17.538 C 10,16.965 10.465,16.5 11.038,16.5 h 2.924 c 0.573,0 1.038,0.465 1.038,1.038 v 2.924 c 0,0.573 -0.465,1.038 -1.038,1.038 z"
             id="path15724" /><path
             style="fill:#48a0dc"
             d="M 24.962,21.5 H 22.038 C 21.465,21.5 21,21.035 21,20.462 V 17.538 C 21,16.965 21.465,16.5 22.038,16.5 h 2.924 c 0.573,0 1.038,0.465 1.038,1.038 v 2.924 c 0,0.573 -0.465,1.038 -1.038,1.038 z"
             id="path15726" /><path
             style="fill:#ebba16"
             d="M 35.962,21.5 H 33.038 C 32.465,21.5 32,21.035 32,20.462 V 17.538 C 32,16.965 32.465,16.5 33.038,16.5 h 2.924 c 0.573,0 1.038,0.465 1.038,1.038 v 2.924 c 0,0.573 -0.465,1.038 -1.038,1.038 z"
             id="path15728" /><path
             style="fill:#bf4d90"
             d="M 46.962,21.5 H 44.038 C 43.465,21.5 43,21.035 43,20.462 V 17.538 C 43,16.965 43.465,16.5 44.038,16.5 h 2.924 c 0.573,0 1.038,0.465 1.038,1.038 v 2.924 c 0,0.573 -0.465,1.038 -1.038,1.038 z"
             id="path15730" /><path
             style="fill:#dd352e"
             d="M 13.962,32.5 H 11.038 C 10.465,32.5 10,32.035 10,31.462 V 28.538 C 10,27.965 10.465,27.5 11.038,27.5 h 2.924 c 0.573,0 1.038,0.465 1.038,1.038 v 2.924 c 0,0.573 -0.465,1.038 -1.038,1.038 z"
             id="path15732" /><path
             style="fill:#a4e869"
             d="M 24.962,32.5 H 22.038 C 21.465,32.5 21,32.035 21,31.462 V 28.538 C 21,27.965 21.465,27.5 22.038,27.5 h 2.924 c 0.573,0 1.038,0.465 1.038,1.038 v 2.924 c 0,0.573 -0.465,1.038 -1.038,1.038 z"
             id="path15734" /><path
             style="fill:#50508a"
             d="M 35.962,32.5 H 33.038 C 32.465,32.5 32,32.035 32,31.462 V 28.538 C 32,27.965 32.465,27.5 33.038,27.5 h 2.924 c 0.573,0 1.038,0.465 1.038,1.038 v 2.924 c 0,0.573 -0.465,1.038 -1.038,1.038 z"
             id="path15736" /><path
             style="fill:#be7c6d"
             d="M 46.962,32.5 H 44.038 C 43.465,32.5 43,32.035 43,31.462 V 28.538 C 43,27.965 43.465,27.5 44.038,27.5 h 2.924 c 0.573,0 1.038,0.465 1.038,1.038 v 2.924 c 0,0.573 -0.465,1.038 -1.038,1.038 z"
             id="path15738" /><polygon
             style="fill:#afb6bb"
             points="30,49.5 30,43.5 28,43.5 28,49.5 15,49.5 15,52.5 43,52.5 43,49.5 "
             id="polygon15740" /></g></g></g></g></clipPath><style
   id="style30742">.cls-1{fill:#ba9bc9;}.cls-2{fill:#8f6c56;}.cls-3{fill:#838bc5;}.cls-4{fill:#fcdd7c;}.cls-5{fill:#65c8d0;}</style>
	
	
	
	
	
	
	
	
</defs><sodipodi:namedview
   id="namedview1873"
   pagecolor="#ffffff"
   bordercolor="#000000"
   borderopacity="0.25"
   inkscape:showpageshadow="2"
   inkscape:pageopacity="0.79215686"
   inkscape:pagecheckerboard="0"
   inkscape:deskcolor="#d1d1d1"
   showgrid="false"
   inkscape:zoom="0.59"
   inkscape:cx="287.28814"
   inkscape:cy="120.33898"
   inkscape:window-width="1366"
   inkscape:window-height="675"
   inkscape:window-x="0"
   inkscape:window-y="0"
   inkscape:window-maximized="1"
   inkscape:current-layer="g12439" />



<g
   id="g12350"
   transform="translate(2.156201,-2.9135431)" /><g
   id="g12439"
   clip-path="none"
   transform="translate(2.2384625,-1.5851611)"><g
     id="hdd"
     transform="matrix(0.07055709,0,0,0.05843976,39.053561,-23.244395)">
	<g
   id="g598">
		<path
   fill="#967adc"
   d="M 458.672,469.344 C 458.672,492.906 439.562,512 416,512 H 96 C 72.438,512 53.328,492.906 53.328,469.344 V 64.008 C 53.328,40.438 72.437,21.336 96,21.336 h 320 c 23.562,0 42.672,19.102 42.672,42.672 z"
   id="path596" />
	</g>
	<g
   id="g602">
		<path
   fill="#ac92eb"
   d="m 458.672,448 c 0,23.562 -19.109,42.672 -42.672,42.672 H 96 C 72.438,490.672 53.328,471.563 53.328,448 V 42.672 C 53.328,19.109 72.438,0 96,0 h 320 c 23.562,0 42.672,19.109 42.672,42.672 z"
   id="path600" />
	</g>
	<path
   fill="#e6e9ed"
   d="m 256,362.672 c -39.891,0 -77.391,-15.531 -105.594,-43.734 -28.203,-28.219 -43.734,-65.71 -43.734,-105.602 0,-39.883 15.531,-77.391 43.734,-105.594 C 178.609,79.539 216.109,64.008 256,64.008 c 39.891,0 77.391,15.531 105.594,43.734 28.203,28.203 43.734,65.711 43.734,105.594 0,39.891 -15.531,77.383 -43.734,105.602 -28.203,28.203 -65.703,43.734 -105.594,43.734 z"
   id="path604" />
	<path
   fill="#ccd1d9"
   d="m 256,53.336 c -88.359,0 -160,71.633 -160,160 0,88.367 71.641,160.008 160,160.008 88.359,0 160,-71.641 160,-160.008 0,-88.367 -71.641,-160 -160,-160 z m 98.047,258.055 c -12.734,12.734 -27.562,22.734 -44.078,29.734 C 292.891,348.344 274.734,352 256,352 c -18.734,0 -36.891,-3.656 -53.969,-10.875 -16.516,-7 -31.344,-17 -44.078,-29.734 -12.75,-12.733 -22.75,-27.578 -29.734,-44.086 -7.219,-17.078 -10.891,-35.234 -10.891,-53.969 0,-18.727 3.672,-36.883 10.891,-53.969 6.984,-16.508 16.984,-31.336 29.734,-44.078 12.734,-12.742 27.562,-22.75 44.078,-29.727 17.078,-7.227 35.234,-10.891 53.969,-10.891 18.734,0 36.891,3.664 53.969,10.891 16.517,6.977 31.344,16.984 44.078,29.727 12.75,12.742 22.75,27.57 29.734,44.078 7.219,17.086 10.891,35.242 10.891,53.969 0,18.734 -3.672,36.891 -10.891,53.969 -6.984,16.507 -16.984,31.351 -29.734,44.086 z"
   id="path606" />
	<path
   fill="#434a54"
   d="m 426.672,42.672 c 0,5.891 -4.781,10.664 -10.672,10.664 -5.891,0 -10.672,-4.773 -10.672,-10.664 C 405.328,36.781 410.109,32 416,32 c 5.891,0 10.672,4.781 10.672,10.672 z"
   id="path608" />
	<path
   fill="#434a54"
   d="m 426.672,448 c 0,5.891 -4.781,10.672 -10.672,10.672 -5.891,0 -10.672,-4.781 -10.672,-10.672 0,-5.891 4.781,-10.656 10.672,-10.656 5.891,0 10.672,4.765 10.672,10.656 z"
   id="path610" />
	<path
   fill="#5d9cec"
   d="m 256,256.008 c -23.531,0 -42.672,-19.141 -42.672,-42.672 0,-23.523 19.141,-42.664 42.672,-42.664 23.531,0 42.672,19.141 42.672,42.664 0,23.531 -19.141,42.672 -42.672,42.672 z"
   id="path612" />
	<path
   fill="#4a89dc"
   d="m 256,160.008 c -29.453,0 -53.328,23.875 -53.328,53.328 0,29.453 23.875,53.336 53.328,53.336 29.453,0 53.328,-23.883 53.328,-53.336 0,-29.453 -23.875,-53.328 -53.328,-53.328 z m 0,85.328 c -17.641,0 -32,-14.352 -32,-32 0,-17.641 14.359,-32 32,-32 17.641,0 32,14.359 32,32 0,17.648 -14.359,32 -32,32 z"
   id="path614" />
	<path
   fill="#434a54"
   d="m 106.672,42.672 c 0,5.891 -4.781,10.664 -10.672,10.664 -5.891,0 -10.672,-4.773 -10.672,-10.664 C 85.328,36.781 90.109,32 96,32 c 5.891,0 10.672,4.781 10.672,10.672 z"
   id="path616" />
	<path
   fill="#e6e9ed"
   d="M 90.359,320 H 53.328 v 128 c 0,23.562 19.109,42.672 42.672,42.672 H 256 V 405.344 C 187.688,405.344 127.25,371.656 90.359,320 Z"
   id="path618" />
	<path
   fill="#434a54"
   d="m 266.672,213.336 c 0,5.891 -4.781,10.672 -10.672,10.672 -5.891,0 -10.672,-4.781 -10.672,-10.672 0,-5.891 4.781,-10.664 10.672,-10.664 5.891,0 10.672,4.773 10.672,10.664 z"
   id="path620" />
	<g
   id="g628">
		<path
   fill="#967adc"
   d="m 306.203,419.125 c -4.156,-4.156 -10.906,-4.156 -15.078,0 -2.078,2.094 -3.125,4.812 -3.125,7.562 v 31.969 c 0,2.75 1.047,5.469 3.125,7.562 4.172,4.156 10.922,4.156 15.078,0 2.094,-2.094 3.125,-4.812 3.125,-7.547 v 0 -32 0 c 0,-2.733 -1.031,-5.452 -3.125,-7.546 z"
   id="path622" />
		<path
   fill="#967adc"
   d="m 338.203,419.125 c -4.156,-4.156 -10.906,-4.156 -15.078,0 -2.078,2.094 -3.125,4.812 -3.125,7.562 v 31.969 c 0,2.75 1.047,5.469 3.125,7.562 4.172,4.156 10.922,4.156 15.078,0 2.094,-2.094 3.125,-4.812 3.125,-7.547 v 0 -32 0 c 0,-2.733 -1.031,-5.452 -3.125,-7.546 z"
   id="path624" />
		<path
   fill="#967adc"
   d="m 373.328,426.688 c 0,-2.75 -1.031,-5.469 -3.125,-7.562 -4.156,-4.156 -10.922,-4.156 -15.078,0 -2.078,2.094 -3.125,4.812 -3.125,7.562 v 31.97 c 0,2.75 1.047,5.469 3.125,7.562 4.156,4.156 10.922,4.156 15.078,0 2.094,-2.094 3.125,-4.812 3.125,-7.562 z"
   id="path626" />
	</g>
	<g
   id="g632">
		<path
   fill="#434a54"
   d="M 175.078,435 285.469,294.906 C 287.047,293.031 288,290.625 288,288 c 0,-5.875 -4.781,-10.656 -10.672,-10.656 -2.625,0 -5.031,0.938 -6.891,2.531 L 130.328,390.266 c -7.891,5.828 -13,15.188 -13,25.734 0,17.688 14.328,32 32,32 10.563,0 19.922,-5.109 25.75,-13 z"
   id="path630" />
	</g>
</g><g
     id="cpu"
     transform="matrix(0.06563325,0,0,0.06497904,3.5109584,-24.706143)">
	<g
   id="g754">
		<path
   fill="#ffce54"
   d="m 512,42.66 c 0,5.891 -4.781,10.672 -10.656,10.672 -5.906,0 -10.688,-4.781 -10.688,-10.672 0,-5.891 4.781,-10.664 10.688,-10.664 5.875,0 10.656,4.774 10.656,10.664 z"
   id="path660" />
		<path
   fill="#ffce54"
   d="m 512,85.332 c 0,5.891 -4.781,10.664 -10.656,10.664 -5.906,0 -10.688,-4.773 -10.688,-10.664 0,-5.891 4.781,-10.672 10.688,-10.672 5.875,0 10.656,4.781 10.656,10.672 z"
   id="path662" />
		<path
   fill="#ffce54"
   d="m 512,127.996 c 0,5.891 -4.781,10.664 -10.656,10.664 -5.906,0 -10.688,-4.773 -10.688,-10.664 0,-5.891 4.781,-10.664 10.688,-10.664 5.875,0 10.656,4.773 10.656,10.664 z"
   id="path664" />
		<path
   fill="#ffce54"
   d="m 512,170.66 c 0,5.891 -4.781,10.672 -10.656,10.672 -5.906,0 -10.688,-4.781 -10.688,-10.672 0,-5.891 4.781,-10.664 10.688,-10.664 5.875,0 10.656,4.774 10.656,10.664 z"
   id="path666" />
		<path
   fill="#ffce54"
   d="m 512,213.332 c 0,5.891 -4.781,10.664 -10.656,10.664 -5.906,0 -10.688,-4.773 -10.688,-10.664 0,-5.891 4.781,-10.672 10.688,-10.672 5.875,0 10.656,4.781 10.656,10.672 z"
   id="path668" />
		<path
   fill="#ffce54"
   d="m 512,255.996 c 0,5.891 -4.781,10.664 -10.656,10.664 -5.906,0 -10.688,-4.773 -10.688,-10.664 0,-5.891 4.781,-10.664 10.688,-10.664 5.875,0 10.656,4.773 10.656,10.664 z"
   id="path670" />
		<path
   fill="#ffce54"
   d="m 512,298.652 c 0,5.906 -4.781,10.688 -10.656,10.688 -5.906,0 -10.688,-4.781 -10.688,-10.688 0,-5.875 4.781,-10.656 10.688,-10.656 5.875,0 10.656,4.781 10.656,10.656 z"
   id="path672" />
		<path
   fill="#ffce54"
   d="m 512,341.34 c 0,5.875 -4.781,10.656 -10.656,10.656 -5.906,0 -10.688,-4.781 -10.688,-10.656 0,-5.906 4.781,-10.688 10.688,-10.688 5.875,0 10.656,4.782 10.656,10.688 z"
   id="path674" />
		<path
   fill="#ffce54"
   d="m 512,383.996 c 0,5.891 -4.781,10.656 -10.656,10.656 -5.906,0 -10.688,-4.766 -10.688,-10.656 0,-5.89 4.781,-10.656 10.688,-10.656 5.875,0 10.656,4.765 10.656,10.656 z"
   id="path676" />
		<path
   fill="#ffce54"
   d="m 512,426.652 c 0,5.906 -4.781,10.688 -10.656,10.688 -5.906,0 -10.688,-4.781 -10.688,-10.688 0,-5.875 4.781,-10.656 10.688,-10.656 5.875,0 10.656,4.781 10.656,10.656 z"
   id="path678" />
		<path
   fill="#ffce54"
   d="m 512,469.34 c 0,5.875 -4.781,10.656 -10.656,10.656 -5.906,0 -10.688,-4.781 -10.688,-10.656 0,-5.906 4.781,-10.688 10.688,-10.688 5.875,0 10.656,4.782 10.656,10.688 z"
   id="path680" />
		<g
   id="g704">
			<path
   fill="#ffce54"
   d="m 469.344,501.34 c -5.906,0 -10.688,-4.781 -10.688,-10.688 0,-5.875 4.781,-10.656 10.688,-10.656 5.875,0 10.656,4.781 10.656,10.656 0,5.907 -4.781,10.688 -10.656,10.688 z"
   id="path682" />
			<path
   fill="#ffce54"
   d="m 426.656,501.34 c -5.875,0 -10.656,-4.781 -10.656,-10.688 0,-5.875 4.781,-10.656 10.656,-10.656 5.906,0 10.688,4.781 10.688,10.656 0,5.907 -4.782,10.688 -10.688,10.688 z"
   id="path684" />
			<path
   fill="#ffce54"
   d="m 384,501.34 c -5.891,0 -10.656,-4.781 -10.656,-10.688 0,-5.875 4.766,-10.656 10.656,-10.656 5.89,0 10.656,4.781 10.656,10.656 0,5.907 -4.765,10.688 -10.656,10.688 z"
   id="path686" />
			<path
   fill="#ffce54"
   d="m 341.344,501.34 c -5.906,0 -10.688,-4.781 -10.688,-10.688 0,-5.875 4.781,-10.656 10.688,-10.656 5.875,0 10.656,4.781 10.656,10.656 0,5.907 -4.781,10.688 -10.656,10.688 z"
   id="path688" />
			<path
   fill="#ffce54"
   d="m 298.656,501.34 c -5.875,0 -10.656,-4.781 -10.656,-10.688 0,-5.875 4.781,-10.656 10.656,-10.656 5.906,0 10.688,4.781 10.688,10.656 0,5.907 -4.782,10.688 -10.688,10.688 z"
   id="path690" />
			<path
   fill="#ffce54"
   d="m 256,501.34 c -5.891,0 -10.664,-4.781 -10.664,-10.688 0,-5.875 4.773,-10.656 10.664,-10.656 5.891,0 10.664,4.781 10.664,10.656 0,5.907 -4.773,10.688 -10.664,10.688 z"
   id="path692" />
			<path
   fill="#ffce54"
   d="m 213.336,501.34 c -5.891,0 -10.672,-4.781 -10.672,-10.688 0,-5.875 4.781,-10.656 10.672,-10.656 5.891,0 10.664,4.781 10.664,10.656 0,5.907 -4.773,10.688 -10.664,10.688 z"
   id="path694" />
			<path
   fill="#ffce54"
   d="m 170.664,501.34 c -5.891,0 -10.664,-4.781 -10.664,-10.688 0,-5.875 4.773,-10.656 10.664,-10.656 5.891,0 10.672,4.781 10.672,10.656 0,5.907 -4.781,10.688 -10.672,10.688 z"
   id="path696" />
			<path
   fill="#ffce54"
   d="m 128,501.34 c -5.891,0 -10.664,-4.781 -10.664,-10.688 0,-5.875 4.773,-10.656 10.664,-10.656 5.891,0 10.664,4.781 10.664,10.656 0,5.907 -4.773,10.688 -10.664,10.688 z"
   id="path698" />
			<path
   fill="#ffce54"
   d="m 85.336,501.34 c -5.891,0 -10.672,-4.781 -10.672,-10.688 0,-5.875 4.781,-10.656 10.672,-10.656 5.891,0 10.664,4.781 10.664,10.656 0,5.907 -4.773,10.688 -10.664,10.688 z"
   id="path700" />
			<path
   fill="#ffce54"
   d="M 42.664,501.34 C 36.773,501.34 32,496.559 32,490.652 c 0,-5.875 4.773,-10.656 10.664,-10.656 5.891,0 10.672,4.781 10.672,10.656 0,5.907 -4.781,10.688 -10.672,10.688 z"
   id="path702" />
		</g>
		<g
   id="g728">
			<path
   fill="#ffce54"
   d="m 469.344,31.996 c -5.891,0 -10.656,-4.773 -10.656,-10.664 0,-5.891 4.766,-10.672 10.656,-10.672 5.89,0 10.672,4.781 10.672,10.672 0,5.891 -4.782,10.664 -10.672,10.664 z"
   id="path706" />
			<path
   fill="#ffce54"
   d="M 426.688,31.996 C 420.782,31.996 416,27.223 416,21.332 c 0,-5.891 4.781,-10.672 10.688,-10.672 5.875,0 10.656,4.781 10.656,10.672 0,5.891 -4.782,10.664 -10.656,10.664 z"
   id="path708" />
			<path
   fill="#ffce54"
   d="m 384,31.996 c -5.875,0 -10.656,-4.773 -10.656,-10.664 0,-5.891 4.781,-10.672 10.656,-10.672 5.906,0 10.688,4.781 10.688,10.672 0,5.891 -4.782,10.664 -10.688,10.664 z"
   id="path710" />
			<path
   fill="#ffce54"
   d="m 341.344,31.996 c -5.891,0 -10.656,-4.773 -10.656,-10.664 0,-5.891 4.766,-10.672 10.656,-10.672 5.89,0 10.656,4.781 10.656,10.672 0,5.891 -4.766,10.664 -10.656,10.664 z"
   id="path712" />
			<path
   fill="#ffce54"
   d="m 298.688,31.996 c -5.906,0 -10.672,-4.773 -10.672,-10.664 0,-5.891 4.766,-10.672 10.672,-10.672 5.875,0 10.656,4.781 10.656,10.672 0,5.891 -4.782,10.664 -10.656,10.664 z"
   id="path714" />
			<path
   fill="#ffce54"
   d="m 256.016,31.996 c -5.891,0 -10.672,-4.773 -10.672,-10.664 0,-5.891 4.781,-10.672 10.672,-10.672 5.891,0 10.664,4.781 10.664,10.672 0,5.891 -4.774,10.664 -10.664,10.664 z"
   id="path716" />
			<path
   fill="#ffce54"
   d="m 213.344,31.996 c -5.891,0 -10.664,-4.773 -10.664,-10.664 0,-5.891 4.773,-10.672 10.664,-10.672 5.891,0 10.672,4.781 10.672,10.672 0,5.891 -4.782,10.664 -10.672,10.664 z"
   id="path718" />
			<path
   fill="#ffce54"
   d="m 170.68,31.996 c -5.891,0 -10.672,-4.773 -10.672,-10.664 0,-5.891 4.781,-10.672 10.672,-10.672 5.891,0 10.664,4.781 10.664,10.672 0,5.891 -4.774,10.664 -10.664,10.664 z"
   id="path720" />
			<path
   fill="#ffce54"
   d="m 128.008,31.996 c -5.891,0 -10.664,-4.773 -10.664,-10.664 0,-5.891 4.773,-10.672 10.664,-10.672 5.891,0 10.672,4.781 10.672,10.672 0,5.891 -4.782,10.664 -10.672,10.664 z"
   id="path722" />
			<path
   fill="#ffce54"
   d="m 85.344,31.996 c -5.891,0 -10.664,-4.773 -10.664,-10.664 0,-5.891 4.773,-10.672 10.664,-10.672 5.891,0 10.664,4.781 10.664,10.672 0,5.891 -4.774,10.664 -10.664,10.664 z"
   id="path724" />
			<path
   fill="#ffce54"
   d="m 42.68,31.996 c -5.891,0 -10.672,-4.773 -10.672,-10.664 0,-5.891 4.781,-10.672 10.672,-10.672 5.891,0 10.664,4.781 10.664,10.672 0,5.891 -4.774,10.664 -10.664,10.664 z"
   id="path726" />
		</g>
		<g
   id="g752">
			<path
   fill="#ffce54"
   d="m 21.336,42.66 c 0,5.891 -4.781,10.672 -10.672,10.672 C 4.773,53.332 0,48.551 0,42.66 0,36.769 4.773,31.996 10.664,31.996 c 5.891,0 10.672,4.774 10.672,10.664 z"
   id="path730" />
			<path
   fill="#ffce54"
   d="m 21.336,85.332 c 0,5.891 -4.781,10.664 -10.672,10.664 C 4.773,95.996 0,91.223 0,85.332 0,79.441 4.773,74.66 10.664,74.66 c 5.891,0 10.672,4.781 10.672,10.672 z"
   id="path732" />
			<path
   fill="#ffce54"
   d="m 21.336,127.996 c 0,5.891 -4.781,10.664 -10.672,10.664 C 4.773,138.66 0,133.887 0,127.996 c 0,-5.891 4.773,-10.664 10.664,-10.664 5.891,0 10.672,4.773 10.672,10.664 z"
   id="path734" />
			<path
   fill="#ffce54"
   d="m 21.336,170.66 c 0,5.891 -4.781,10.672 -10.672,10.672 C 4.773,181.332 0,176.551 0,170.66 c 0,-5.891 4.773,-10.664 10.664,-10.664 5.891,0 10.672,4.774 10.672,10.664 z"
   id="path736" />
			<path
   fill="#ffce54"
   d="m 21.336,213.332 c 0,5.891 -4.781,10.664 -10.672,10.664 C 4.773,223.996 0,219.223 0,213.332 0,207.441 4.773,202.66 10.664,202.66 c 5.891,0 10.672,4.781 10.672,10.672 z"
   id="path738" />
			<path
   fill="#ffce54"
   d="m 21.336,255.996 c 0,5.891 -4.781,10.664 -10.672,10.664 C 4.773,266.66 0,261.887 0,255.996 c 0,-5.891 4.773,-10.664 10.664,-10.664 5.891,0 10.672,4.773 10.672,10.664 z"
   id="path740" />
			<path
   fill="#ffce54"
   d="m 21.336,298.652 c 0,5.906 -4.781,10.688 -10.672,10.688 C 4.773,309.34 0,304.559 0,298.652 c 0,-5.875 4.773,-10.656 10.664,-10.656 5.891,0 10.672,4.781 10.672,10.656 z"
   id="path742" />
			<path
   fill="#ffce54"
   d="m 21.336,341.34 c 0,5.875 -4.781,10.656 -10.672,10.656 C 4.773,351.996 0,347.215 0,341.34 c 0,-5.906 4.773,-10.688 10.664,-10.688 5.891,0 10.672,4.782 10.672,10.688 z"
   id="path744" />
			<path
   fill="#ffce54"
   d="m 21.336,383.996 c 0,5.891 -4.781,10.656 -10.672,10.656 C 4.773,394.652 0,389.887 0,383.996 0,378.105 4.773,373.34 10.664,373.34 c 5.891,0 10.672,4.765 10.672,10.656 z"
   id="path746" />
			<path
   fill="#ffce54"
   d="m 21.336,426.652 c 0,5.906 -4.781,10.688 -10.672,10.688 C 4.773,437.34 0,432.559 0,426.652 c 0,-5.875 4.773,-10.656 10.664,-10.656 5.891,0 10.672,4.781 10.672,10.656 z"
   id="path748" />
			<path
   fill="#ffce54"
   d="m 21.336,469.34 c 0,5.875 -4.781,10.656 -10.672,10.656 C 4.773,479.996 0,475.215 0,469.34 c 0,-5.906 4.773,-10.688 10.664,-10.688 5.891,0 10.672,4.782 10.672,10.688 z"
   id="path750" />
		</g>
	</g>
	<rect
   x="21.336"
   y="31.996"
   fill="#a0d468"
   width="469.32001"
   height="448"
   id="rect756" />
	<polygon
   fill="#434a54"
   points="21.336,426.652 21.336,479.996 51.109,479.996 82.211,472.465 28.875,419.121 "
   id="polygon758" />
	<path
   fill="#8cc153"
   d="m 10.664,21.332 v 469.32 h 490.68 V 21.332 Z M 480,469.34 H 32 V 42.66 h 448 z"
   id="path760" />
	<g
   id="g764">
		<path
   fill="#ccd1d9"
   d="M 448,170.66 V 85.332 C 448,73.551 438.438,63.996 426.656,63.996 H 85.359 c -11.789,0 -21.336,9.555 -21.336,21.336 v 85.328 l -10.688,21.336 v 128 l 10.688,21.344 v 85.312 c 0,11.781 9.547,21.344 21.336,21.344 h 96 L 202.687,437.34 H 320 l 21.344,10.656 h 85.312 c 11.781,0 21.344,-9.562 21.344,-21.344 V 341.34 l 10.688,-21.344 v -128 z"
   id="path762" />
	</g>
	<path
   fill="#8cc153"
   d="m 490.656,117.332 c 0,5.891 -4.766,10.664 -10.656,10.664 -5.89,0 -10.656,-4.773 -10.656,-10.664 0,-5.891 4.765,-10.672 10.656,-10.672 5.891,0 10.656,4.781 10.656,10.672 z"
   id="path766" />
	<path
   fill="#8cc153"
   d="m 42.664,117.332 c 0,5.891 -4.773,10.664 -10.664,10.664 -5.891,0 -10.664,-4.773 -10.664,-10.664 0,-5.891 4.773,-10.672 10.664,-10.672 5.891,0 10.664,4.781 10.664,10.672 z"
   id="path768" />
	<path
   fill="#8cc153"
   d="m 224,458.652 c 0,5.906 -4.773,10.688 -10.664,10.688 -5.891,0 -10.672,-4.781 -10.672,-10.688 0,-5.875 4.781,-10.656 10.672,-10.656 5.891,0 10.664,4.781 10.664,10.656 z"
   id="path770" />
	<path
   fill="#8cc153"
   d="m 266.664,458.652 c 0,5.906 -4.773,10.688 -10.664,10.688 -5.891,0 -10.664,-4.781 -10.664,-10.688 0,-5.875 4.773,-10.656 10.664,-10.656 5.891,0 10.664,4.781 10.664,10.656 z"
   id="path772" />
	<path
   fill="#8cc153"
   d="m 309.344,458.652 c 0,5.906 -4.781,10.688 -10.688,10.688 -5.875,0 -10.656,-4.781 -10.656,-10.688 0,-5.875 4.781,-10.656 10.656,-10.656 5.906,0 10.688,4.781 10.688,10.656 z"
   id="path774" />
	<g
   id="g778">
		<rect
   x="106.664"
   y="106.66"
   fill="#e6e9ed"
   width="298.67999"
   height="298.67999"
   id="rect776" />
	</g>
	<g
   id="g786">
		<path
   fill="#434a54"
   d="m 187.383,285.715 c -10.945,0 -17.891,-8.938 -17.891,-22.938 0,-11.336 5.039,-23.039 18.086,-23.039 7.992,0 13.516,4.375 15.039,11.805 h 14.562 c -1.141,-14 -13.039,-24.281 -29.32,-24.281 -20.75,0 -33.32,15.711 -33.32,35.414 0,21.414 13.047,35.602 32.75,35.602 18.562,0 28.844,-11.219 30.367,-27.789 h -14.75 c -1.242,9.898 -6.57,15.226 -15.523,15.226 z"
   id="path780" />
		<path
   fill="#434a54"
   d="m 261.961,228.887 h -29.227 v 67.781 h 14.758 v -24.375 h 15.234 c 13.617,0 24.086,-6.852 24.086,-21.609 0,-14.946 -10.187,-21.797 -24.851,-21.797 z m -1.234,31.695 h -13.234 v -19.516 h 13.328 c 6.57,0 11.523,2.57 11.523,9.805 0,7.524 -4.953,9.711 -11.617,9.711 z"
   id="path782" />
		<path
   fill="#434a54"
   d="m 342.719,228.887 v 40.555 c 0,9.992 -2.375,16.273 -13.812,16.273 -11.609,0 -14.562,-5.906 -14.562,-16.273 V 228.887 H 299.5 v 40.555 c 0,19.32 9.031,28.555 29.219,28.555 19.812,0 28.844,-9.031 28.844,-28.367 v -40.742 h -14.844 z"
   id="path784" />
	</g>
</g><g
     id="g975"
     transform="matrix(0.08196892,0,0,0.06420178,74.729065,-24.647657)"><polyline
       style="fill:#73c470"
       points="454.641,83.815 503.692,83.815 503.692,428.185 68.039,428.185 68.039,83.815   428.769,83.815 "
       id="polyline859" /><circle
       style="fill:#547475"
       cx="328.133"
       cy="256"
       r="123.494"
       id="circle861" /><circle
       style="fill:#8aacad"
       cx="328.284"
       cy="257.10999"
       r="89.163002"
       id="circle863" /><circle
       style="fill:#dbdddd"
       cx="327.51801"
       cy="257.32599"
       r="20.882"
       id="circle865" /><path
       style="fill:#68d8f2"
       d="m 309.75,246.363 c 4.038,-6.546 11.152,-10.106 18.381,-9.899 3.391,-3.944 6.293,-8.32 8.632,-13.025 -0.994,-20.59 -12.078,-40.265 -31.217,-51.383 -19.415,5.243 -36.202,16.952 -47.895,32.668 8.29,0.954 16.526,3.571 24.213,8.01 13.554,7.823 23.089,19.932 27.886,33.629 z"
       id="path867" /><path
       style="fill:#53caf9"
       d="m 266.064,274.565 c 13.553,-7.827 28.809,-10.029 43.067,-7.336 -3.651,-6.769 -3.177,-14.71 0.619,-20.867 -1.72,-4.91 -4.059,-9.611 -6.964,-13.989 -18.044,-9.287 -40.209,-9.657 -59.211,0.844 -2.178,7.667 -3.346,15.757 -3.346,24.114 0,12.085 2.443,23.61 6.854,34.111 4.964,-6.667 11.326,-12.459 18.981,-16.877 z"
       id="path869" /><path
       style="fill:#68d8f2"
       d="m 326.893,278.197 c -7.686,-0.224 -14.326,-4.604 -17.762,-10.969 -5.111,-0.967 -10.351,-1.29 -15.596,-0.964 -17.141,11.03 -28.566,30.158 -28.878,51.981 13.635,14.298 32.008,24.039 52.572,26.681 -3.539,-7.863 -5.518,-16.581 -5.518,-25.765 10e-4,-15.65 5.721,-29.961 15.182,-40.964 z"
       id="path871" /><path
       style="fill:#53caf9"
       d="m 373.161,301.929 c -13.553,-7.826 -23.089,-19.935 -27.886,-33.63 -4.038,6.546 -11.152,10.107 -18.381,9.899 -3.391,3.944 -6.293,8.32 -8.632,13.025 0.996,20.643 12.135,40.368 31.362,51.471 0.168,0.098 0.338,0.191 0.51,0.286 7.657,-1.929 14.918,-4.863 21.635,-8.65 10.269,-6.017 19.431,-14.169 26.739,-24.266 -8.673,-0.839 -17.309,-3.495 -25.347,-8.135 z"
       id="path873" /><path
       style="fill:#68d8f2"
       d="m 413.513,280.258 c 4.861,-18.855 3.549,-39.312 -4.835,-58.046 -5.061,7.093 -11.678,13.244 -19.718,17.886 -13.551,7.826 -28.807,10.028 -43.065,7.335 3.649,6.769 3.177,14.709 -0.619,20.867 1.72,4.91 4.059,9.611 6.964,13.989 18.377,9.457 41.028,9.676 60.256,-1.426 0.343,-0.198 0.679,-0.401 1.017,-0.605 z"
       id="path875" /><path
       style="fill:#53caf9"
       d="m 361.489,248.395 c 17.381,-11.184 28.893,-30.693 28.893,-52.897 0,-0.396 -0.007,-0.789 -0.015,-1.184 -13.897,-13.635 -32.27,-22.728 -52.684,-24.836 3.611,7.929 5.63,16.736 5.63,26.019 0,15.651 -5.72,29.962 -15.181,40.965 7.686,0.223 14.326,4.603 17.762,10.969 5.112,0.968 10.351,1.292 15.595,0.964 z"
       id="path877" /><g
       id="g883">
	<path
   style="fill:#ebf25f"
   d="m 204.633,256 c 0,-26.744 8.504,-51.5 22.949,-71.718 h -101.8 c -5.928,0 -10.735,4.963 -10.735,11.08 v 122.397 c 0,6.119 4.806,11.081 10.735,11.081 H 228.401 C 213.46,308.419 204.633,283.242 204.633,256 Z"
   id="path879" />
	<polyline
   style="fill:#ebf25f"
   points="176.191,458.051 115.047,458.051 115.047,428.185 223.645,428.185 223.645,458.051    203.136,458.051  "
   id="polyline881" />
</g><g
       style="opacity:0.2"
       id="g887">
	<rect
   x="115.044"
   y="428.18301"
   style="fill:#231f20"
   width="25.598"
   height="29.865999"
   id="rect885" />
</g><g
       id="g897">
	<circle
   style="fill:#8aacad"
   cx="116.725"
   cy="132.506"
   r="16.35"
   id="circle889" />
	<circle
   style="fill:#8aacad"
   cx="116.725"
   cy="379.49399"
   r="16.35"
   id="circle891" />
	<circle
   style="fill:#8aacad"
   cx="455.00101"
   cy="132.506"
   r="16.35"
   id="circle893" />
	<circle
   style="fill:#8aacad"
   cx="455.00101"
   cy="379.49399"
   r="16.35"
   id="circle895" />
</g><rect
       x="38.174"
       y="205.608"
       style="fill:#53caf9"
       width="29.865"
       height="24.792"
       id="rect899" /><g
       id="g905">
	<rect
   x="38.174"
   y="110.215"
   style="fill:#dbdddd"
   width="29.865"
   height="64.674004"
   id="rect901" />
	<rect
   x="38.174"
   y="251.81799"
   style="fill:#dbdddd"
   width="29.865"
   height="108.598"
   id="rect903" />
</g><rect
       x="38.174"
       y="381.84399"
       style="fill:#53caf9"
       width="29.865"
       height="24.792"
       id="rect907" /><g
       id="g923">
	<path
   style="fill:#231f20"
   d="m 503.692,75.731 h -49.051 c -4.466,0 -8.084,3.618 -8.084,8.084 0,4.466 3.618,8.084 8.084,8.084 h 40.966 V 420.101 H 223.645 115.047 76.123 V 406.636 381.844 360.421 251.823 230.4 205.608 174.888 110.214 91.899 h 352.646 c 4.466,0 8.084,-3.618 8.084,-8.084 0,-4.466 -3.618,-8.084 -8.084,-8.084 H 76.123 V 8.084 C 76.123,3.618 72.505,0 68.039,0 H 8.308 C 3.843,0 0.224,3.618 0.224,8.084 c 0,4.466 3.618,8.084 8.084,8.084 h 51.646 v 67.647 18.316 h -21.78 c -4.466,0 -8.084,3.618 -8.084,8.084 v 64.674 c 0,4.466 3.618,8.084 8.084,8.084 h 21.781 v 14.552 H 38.174 c -4.466,0 -8.084,3.618 -8.084,8.084 V 230.4 c 0,4.466 3.618,8.084 8.084,8.084 h 21.781 v 5.255 H 38.174 c -4.466,0 -8.084,3.618 -8.084,8.084 v 108.598 c 0,4.466 3.618,8.084 8.084,8.084 h 21.781 v 5.255 H 38.174 c -4.466,0 -8.084,3.618 -8.084,8.084 v 24.792 c 0,4.466 3.618,8.084 8.084,8.084 h 21.781 v 13.465 75.731 c 0,4.466 3.618,8.084 8.084,8.084 4.466,0 8.084,-3.618 8.084,-8.084 v -67.647 h 30.84 v 21.782 c 0,4.466 3.618,8.084 8.084,8.084 h 61.144 c 4.466,0 8.084,-3.618 8.084,-8.084 0,-4.466 -3.618,-8.084 -8.084,-8.084 h -53.059 v -13.698 h 92.429 v 13.698 h -12.425 c -4.466,0 -8.084,3.618 -8.084,8.084 0,4.466 3.618,8.084 8.084,8.084 h 20.509 c 4.466,0 8.084,-3.618 8.084,-8.084 v -21.782 h 271.963 c 4.466,0 8.084,-3.618 8.084,-8.084 V 83.815 c 0,-4.466 -3.619,-8.084 -8.084,-8.084 z M 46.258,166.804 v -48.505 h 13.697 v 48.505 z m 0,55.512 v -8.623 h 13.697 v 8.623 z m 0,130.021 v -92.429 h 13.697 v 92.429 z m 0,46.215 v -8.623 h 13.697 v 8.623 z"
   id="path909" />
	<path
   style="fill:#231f20"
   d="m 116.725,156.934 c 13.473,0 24.434,-10.96 24.434,-24.433 0,-13.473 -10.961,-24.434 -24.434,-24.434 -13.473,0 -24.434,10.961 -24.434,24.434 0,13.473 10.962,24.433 24.434,24.433 z m 0,-32.698 c 4.558,0 8.265,3.707 8.265,8.265 0,4.556 -3.707,8.264 -8.265,8.264 -4.558,0 -8.265,-3.708 -8.265,-8.264 0,-4.558 3.708,-8.265 8.265,-8.265 z"
   id="path911" />
	<path
   style="fill:#231f20"
   d="m 116.725,403.932 c 13.473,0 24.434,-10.96 24.434,-24.433 0,-13.473 -10.961,-24.434 -24.434,-24.434 -13.473,0 -24.433,10.962 -24.433,24.435 0,13.472 10.961,24.432 24.433,24.432 z m 0,-32.698 c 4.558,0 8.265,3.708 8.265,8.265 0,4.556 -3.707,8.264 -8.265,8.264 -4.558,0 -8.265,-3.708 -8.265,-8.264 0,-4.557 3.708,-8.265 8.265,-8.265 z"
   id="path913" />
	<path
   style="fill:#231f20"
   d="m 455.005,108.068 c -13.473,0 -24.434,10.961 -24.434,24.434 0,13.473 10.961,24.433 24.434,24.433 13.473,0 24.434,-10.96 24.434,-24.433 0,-13.473 -10.961,-24.434 -24.434,-24.434 z m 0,32.698 c -4.558,0 -8.265,-3.708 -8.265,-8.264 0,-4.558 3.707,-8.265 8.265,-8.265 4.558,0 8.265,3.707 8.265,8.265 0.001,4.556 -3.706,8.264 -8.265,8.264 z"
   id="path915" />
	<path
   style="fill:#231f20"
   d="m 455.005,403.932 c 13.473,0 24.434,-10.96 24.434,-24.433 0,-13.473 -10.961,-24.434 -24.434,-24.434 -13.473,0 -24.434,10.961 -24.434,24.434 0,13.473 10.962,24.433 24.434,24.433 z m 0,-32.698 c 4.558,0 8.265,3.708 8.265,8.265 0,4.556 -3.707,8.264 -8.265,8.264 -4.558,0 -8.265,-3.708 -8.265,-8.264 0,-4.557 3.708,-8.265 8.265,-8.265 z"
   id="path917" />
	<path
   style="fill:#231f20"
   d="m 328.279,354.359 c 53.623,0 97.249,-43.625 97.249,-97.247 0,-53.622 -43.626,-97.247 -97.249,-97.247 -53.622,0 -97.247,43.625 -97.247,97.247 0,53.622 43.625,97.247 97.247,97.247 z M 260.134,213.266 c 4.481,0.801 8.815,2.147 12.956,4.036 -5.6,0.066 -11.176,0.801 -16.594,2.181 1.122,-2.132 2.338,-4.203 3.638,-6.217 z m 135.883,88.328 c -4.872,-0.766 -9.577,-2.185 -14.068,-4.232 6.128,-0.071 12.213,-0.946 18.094,-2.582 -1.233,2.342 -2.576,4.615 -4.026,6.814 z M 319.62,247.277 c 0.19,-0.149 0.382,-0.295 0.58,-0.433 0.212,-0.149 0.432,-0.285 0.653,-0.419 0.18,-0.11 0.355,-0.227 0.54,-0.329 0.402,-0.219 0.815,-0.416 1.238,-0.59 0.125,-0.052 0.257,-0.093 0.384,-0.141 0.352,-0.132 0.71,-0.252 1.076,-0.354 0.122,-0.033 0.245,-0.065 0.369,-0.095 0.417,-0.101 0.84,-0.184 1.27,-0.245 0.07,-0.01 0.138,-0.024 0.208,-0.032 0.525,-0.065 1.057,-0.101 1.596,-0.101 l 0.147,0.002 c 0.124,0.002 0.245,0.013 0.366,0.018 0.469,0.019 0.933,0.064 1.393,0.134 0.08,0.012 0.161,0.023 0.24,0.037 1.067,0.184 2.102,0.498 3.077,0.939 0.009,0.003 0.016,0.008 0.024,0.012 0.472,0.215 0.929,0.46 1.372,0.731 0.044,0.027 0.088,0.053 0.132,0.08 0.896,0.561 1.721,1.231 2.459,1.998 0.055,0.057 0.107,0.117 0.161,0.176 0.301,0.326 0.585,0.668 0.853,1.026 0.06,0.081 0.124,0.161 0.182,0.244 0.302,0.425 0.585,0.866 0.836,1.33 0,0.001 10e-4,0.002 10e-4,0.003 0.253,0.47 0.469,0.954 0.659,1.445 0.029,0.074 0.055,0.15 0.082,0.224 0.168,0.462 0.314,0.931 0.427,1.407 0.008,0.031 0.017,0.063 0.024,0.094 0.247,1.071 0.356,2.168 0.323,3.261 0,0.006 -10e-4,0.012 -10e-4,0.018 -0.016,0.539 -0.068,1.076 -0.152,1.609 -0.002,0.018 -0.005,0.037 -0.009,0.054 -0.175,1.079 -0.487,2.139 -0.937,3.152 -0.011,0.026 -0.025,0.05 -0.037,0.075 -0.197,0.438 -0.427,0.862 -0.676,1.279 -0.058,0.097 -0.115,0.195 -0.177,0.29 -0.233,0.366 -0.483,0.717 -0.747,1.054 -0.054,0.069 -0.102,0.143 -0.157,0.211 -0.291,0.357 -0.605,0.689 -0.928,1.009 -0.161,0.157 -0.331,0.305 -0.5,0.454 -0.183,0.163 -0.371,0.321 -0.563,0.473 -0.192,0.151 -0.387,0.3 -0.587,0.44 -0.207,0.144 -0.42,0.277 -0.635,0.409 -0.185,0.114 -0.366,0.235 -0.558,0.34 -0.399,0.217 -0.808,0.412 -1.229,0.585 -0.133,0.055 -0.271,0.098 -0.405,0.149 -0.345,0.128 -0.694,0.247 -1.051,0.345 -0.127,0.036 -0.257,0.068 -0.386,0.099 -0.41,0.099 -0.825,0.181 -1.246,0.24 -0.077,0.011 -0.151,0.026 -0.227,0.034 -0.523,0.064 -1.053,0.1 -1.59,0.1 l -0.147,-0.002 c -0.124,-10e-4 -0.245,-0.014 -0.368,-0.018 -0.472,-0.019 -0.939,-0.065 -1.4,-0.135 -0.077,-0.012 -0.153,-0.022 -0.229,-0.035 -1.072,-0.185 -2.112,-0.5 -3.09,-0.943 0,0 -10e-4,0 -10e-4,-0.001 -0.482,-0.218 -0.946,-0.469 -1.397,-0.744 -0.039,-0.024 -0.078,-0.046 -0.115,-0.07 -0.899,-0.562 -1.729,-1.234 -2.467,-2.005 -0.054,-0.056 -0.103,-0.115 -0.156,-0.172 -0.302,-0.326 -0.586,-0.669 -0.854,-1.027 -0.061,-0.082 -0.124,-0.162 -0.183,-0.245 -0.296,-0.416 -0.572,-0.848 -0.819,-1.303 -0.027,-0.051 -0.053,-0.103 -0.081,-0.153 -0.077,-0.144 -0.142,-0.294 -0.213,-0.441 -0.186,-0.391 -0.354,-0.789 -0.497,-1.193 -0.026,-0.071 -0.054,-0.142 -0.079,-0.215 -0.336,-0.998 -0.549,-2.029 -0.631,-3.068 -10e-4,-0.01 -10e-4,-0.02 -10e-4,-0.03 -0.039,-0.504 -0.045,-1.012 -0.024,-1.518 0.002,-0.046 0.004,-0.093 0.008,-0.138 0.026,-0.506 0.079,-1.01 0.165,-1.511 10e-4,-0.006 0.002,-0.013 0.003,-0.019 0.181,-1.04 0.493,-2.062 0.929,-3.04 0.021,-0.045 0.044,-0.089 0.065,-0.135 0.186,-0.404 0.399,-0.799 0.63,-1.185 0.059,-0.099 0.119,-0.199 0.18,-0.296 0.233,-0.368 0.484,-0.719 0.748,-1.056 0.054,-0.068 0.101,-0.141 0.156,-0.209 0.292,-0.357 0.606,-0.69 0.93,-1.01 0.158,-0.156 0.327,-0.302 0.494,-0.449 0.186,-0.161 0.375,-0.322 0.57,-0.475 z m 22.409,-16.561 c 0.653,-1.143 1.276,-2.3 1.864,-3.474 0.035,-0.069 0.075,-0.135 0.11,-0.205 0.023,-0.046 0.038,-0.095 0.059,-0.141 4.784,-9.695 7.335,-20.43 7.335,-31.397 0,-5.292 -0.572,-10.492 -1.711,-15.564 12.016,3.305 23.223,9.418 32.565,17.842 -0.702,17.12 -9.283,32.785 -23.355,42.623 -0.212,0.005 -0.424,0.018 -0.636,0.022 -0.44,0.005 -0.881,0.012 -1.319,0.006 -0.181,-0.002 -0.362,-0.009 -0.543,-0.013 -0.784,-0.016 -1.565,-0.052 -2.345,-0.101 -0.456,-0.029 -0.912,-0.055 -1.368,-0.096 -0.296,-0.026 -0.592,-0.064 -0.888,-0.094 -0.363,-0.039 -0.727,-0.082 -1.09,-0.127 -0.06,-0.081 -0.126,-0.157 -0.188,-0.237 -0.236,-0.307 -0.473,-0.612 -0.721,-0.91 -0.108,-0.129 -0.221,-0.253 -0.33,-0.382 -0.221,-0.257 -0.443,-0.512 -0.673,-0.76 -0.106,-0.114 -0.215,-0.225 -0.322,-0.338 -0.249,-0.261 -0.501,-0.52 -0.76,-0.771 -0.089,-0.086 -0.179,-0.171 -0.269,-0.257 -0.296,-0.281 -0.597,-0.556 -0.905,-0.825 -0.056,-0.05 -0.113,-0.098 -0.169,-0.148 -0.366,-0.316 -0.742,-0.622 -1.124,-0.919 v 0 c -1.224,-0.952 -2.523,-1.812 -3.893,-2.561 0.148,-0.248 0.286,-0.5 0.431,-0.749 0.082,-0.14 0.164,-0.282 0.245,-0.424 z m 64.428,44.243 c -7.824,4.095 -16.528,6.249 -25.32,6.249 h -0.003 c -8.011,0 -16.015,-1.783 -23.283,-5.17 -0.181,-0.296 -0.359,-0.596 -0.535,-0.896 -0.157,-0.269 -0.319,-0.536 -0.472,-0.807 -0.348,-0.621 -0.687,-1.247 -1.011,-1.882 -0.123,-0.238 -0.235,-0.482 -0.354,-0.722 -0.217,-0.439 -0.432,-0.879 -0.638,-1.325 -0.124,-0.269 -0.241,-0.542 -0.361,-0.813 -0.122,-0.277 -0.239,-0.556 -0.357,-0.834 1.512,-3.509 2.354,-7.372 2.354,-11.428 0,-0.244 -0.012,-0.484 -0.018,-0.726 0.377,0.005 0.756,0.009 1.132,0.009 12.385,0 24.63,-3.29 35.408,-9.514 4.585,-2.646 8.803,-5.742 12.625,-9.263 3.147,12.058 3.458,24.819 0.833,37.122 z m -93.46,8.984 c -0.654,1.144 -1.278,2.303 -1.866,3.479 -0.035,0.068 -0.074,0.133 -0.108,0.202 -0.023,0.045 -0.037,0.094 -0.058,0.139 -4.784,9.695 -7.336,20.431 -7.336,31.399 0,5.069 0.527,10.057 1.573,14.928 -12.037,-3.683 -23.156,-10.204 -32.314,-19.03 1.218,-16.392 9.712,-31.333 23.242,-40.798 0.213,-0.005 0.427,-0.018 0.641,-0.022 0.437,-0.005 0.872,-0.012 1.307,-0.006 0.194,0.002 0.387,0.01 0.581,0.014 0.681,0.014 1.361,0.041 2.04,0.081 0.552,0.033 1.105,0.067 1.656,0.116 0.283,0.025 0.565,0.06 0.848,0.091 0.373,0.04 0.745,0.084 1.117,0.13 0.054,0.072 0.113,0.14 0.168,0.212 0.241,0.317 0.487,0.629 0.742,0.936 0.107,0.128 0.218,0.251 0.327,0.377 0.222,0.258 0.444,0.514 0.675,0.763 0.106,0.115 0.216,0.226 0.323,0.34 0.248,0.261 0.5,0.518 0.758,0.77 0.089,0.087 0.18,0.172 0.271,0.259 0.295,0.28 0.596,0.555 0.903,0.822 0.057,0.05 0.114,0.1 0.172,0.15 1.541,1.326 3.219,2.497 5.015,3.478 -0.148,0.248 -0.287,0.501 -0.432,0.751 -0.083,0.137 -0.164,0.278 -0.245,0.419 z m -15.824,-45.32 c 0.181,0.298 0.359,0.596 0.535,0.897 0.157,0.268 0.318,0.534 0.471,0.805 0.349,0.621 0.688,1.249 1.013,1.884 0.12,0.233 0.229,0.47 0.345,0.704 0.221,0.446 0.44,0.894 0.649,1.347 0.121,0.261 0.234,0.525 0.349,0.788 0.125,0.283 0.245,0.568 0.365,0.854 -1.512,3.509 -2.354,7.372 -2.354,11.428 0,0.244 0.012,0.484 0.018,0.727 -0.313,-0.004 -0.625,0.003 -0.938,0.003 -0.149,0 -0.297,10e-4 -0.446,0.002 -0.516,0.003 -1.034,0.01 -1.55,0.025 -0.415,0.011 -0.83,0.028 -1.245,0.046 -0.279,0.013 -0.558,0.024 -0.838,0.039 -0.172,0.01 -0.345,0.014 -0.516,0.025 -0.073,0.004 -0.144,0.022 -0.218,0.028 -10.792,0.731 -21.355,3.889 -30.793,9.339 -4.154,2.398 -8.013,5.173 -11.552,8.301 -1.434,-6.033 -2.156,-12.23 -2.156,-18.533 0,-6.285 0.729,-12.518 2.17,-18.575 7.318,-3.475 15.347,-5.298 23.422,-5.298 8.009,-0.002 16.007,1.779 23.269,5.164 z m -31.56,45.84 c -2.683,4.785 -4.803,9.88 -6.318,15.19 -1.244,-2.009 -2.394,-4.081 -3.462,-6.201 2.889,-3.393 6.155,-6.402 9.78,-8.989 z m 61.318,7.688 c 0.178,-0.314 0.351,-0.629 0.536,-0.94 0.292,-0.492 0.595,-0.977 0.902,-1.459 0.244,-0.383 0.495,-0.761 0.748,-1.137 0.235,-0.35 0.47,-0.701 0.714,-1.046 0.196,-0.279 0.4,-0.552 0.601,-0.827 0.161,-0.218 0.323,-0.434 0.487,-0.65 0.06,-0.008 0.12,-0.018 0.18,-0.026 0.397,-0.05 0.791,-0.105 1.184,-0.169 0.177,-0.029 0.352,-0.063 0.528,-0.095 0.29,-0.054 0.578,-0.11 0.864,-0.172 0.264,-0.057 0.527,-0.119 0.788,-0.182 0.175,-0.043 0.349,-0.087 0.523,-0.134 0.358,-0.095 0.712,-0.195 1.066,-0.303 0.047,-0.015 0.095,-0.03 0.142,-0.045 2.266,-0.706 4.43,-1.676 6.439,-2.906 0.101,0.182 0.211,0.36 0.314,0.541 0.169,0.297 0.342,0.593 0.516,0.888 0.207,0.351 0.416,0.703 0.63,1.051 0.204,0.333 0.412,0.662 0.621,0.992 0.19,0.299 0.379,0.598 0.573,0.895 0.072,0.11 0.14,0.223 0.213,0.333 0.029,0.044 0.066,0.083 0.096,0.127 6.004,8.988 14.024,16.563 23.52,22.045 4.591,2.651 9.388,4.756 14.355,6.307 -4.692,4.647 -9.953,8.69 -15.735,12.083 -5.203,2.928 -10.708,5.258 -16.406,6.948 -14.262,-9.196 -23.388,-24.347 -24.854,-41.31 0.152,-0.272 0.303,-0.54 0.455,-0.809 z m 62.518,-61.983 c 3.004,-5.364 5.31,-11.114 6.834,-17.126 1.442,2.218 2.778,4.51 4.002,6.869 -3.129,3.917 -6.76,7.344 -10.836,10.257 z m -61.36,-7.648 c -0.176,0.309 -0.347,0.622 -0.528,0.928 -0.294,0.497 -0.602,0.986 -0.912,1.475 -0.24,0.378 -0.489,0.75 -0.738,1.122 -0.236,0.351 -0.471,0.703 -0.716,1.049 -0.195,0.277 -0.398,0.549 -0.598,0.822 -0.161,0.22 -0.326,0.437 -0.489,0.654 -0.06,0.006 -0.119,0.018 -0.179,0.026 -0.398,0.05 -0.793,0.105 -1.186,0.17 -0.177,0.029 -0.351,0.063 -0.527,0.095 -0.29,0.054 -0.579,0.11 -0.866,0.172 -0.264,0.057 -0.527,0.119 -0.789,0.182 -0.175,0.043 -0.348,0.087 -0.521,0.134 -0.359,0.095 -0.716,0.196 -1.07,0.305 -0.045,0.014 -0.091,0.028 -0.136,0.043 -2.268,0.706 -4.432,1.676 -6.444,2.908 -0.101,-0.182 -0.21,-0.359 -0.314,-0.54 -0.17,-0.299 -0.343,-0.596 -0.517,-0.893 -0.206,-0.35 -0.414,-0.7 -0.626,-1.046 -0.206,-0.336 -0.416,-0.669 -0.627,-1.002 -0.188,-0.295 -0.375,-0.591 -0.567,-0.884 -0.073,-0.112 -0.142,-0.225 -0.217,-0.337 -0.029,-0.044 -0.067,-0.083 -0.097,-0.127 -6.004,-8.986 -14.023,-16.562 -23.519,-22.044 -4.231,-2.443 -8.644,-4.424 -13.209,-5.934 8.939,-8.664 19.81,-15.205 31.655,-18.968 13.878,9.233 22.749,24.185 24.192,40.873 -0.148,0.273 -0.301,0.545 -0.455,0.817 z m -4.938,115.492 c -1.599,-4.347 -2.635,-8.847 -3.085,-13.461 2.928,4.923 6.453,9.483 10.514,13.581 -0.766,0.022 -1.53,0.058 -2.301,0.058 -1.724,10e-4 -3.431,-0.072 -5.128,-0.178 z m 8.532,-161.89 c 1.712,4.511 2.809,9.193 3.275,14 -3.02,-5.079 -6.676,-9.777 -10.902,-13.976 1.398,-0.072 2.806,-0.11 4.222,-0.11 1.143,-0.002 2.276,0.038 3.405,0.086 z"
   id="path919" />
	<path
   style="fill:#231f20"
   d="m 328.132,387.583 c 72.555,0 131.583,-59.029 131.583,-131.583 0,-72.554 -59.029,-131.583 -131.583,-131.583 -42.571,0 -80.48,20.328 -104.546,51.781 h -97.804 c -10.377,0 -18.819,8.597 -18.819,19.164 v 122.397 c 0,10.568 8.442,19.165 18.819,19.165 h 98.664 c 24.105,30.816 61.621,50.659 103.686,50.659 z m 0,-246.998 c 63.64,0 115.415,51.775 115.415,115.415 0,63.64 -51.775,115.415 -115.415,115.415 -56.541,0 -103.713,-40.869 -113.534,-94.619 -0.05,-0.275 -0.099,-0.55 -0.148,-0.826 -0.181,-1.037 -0.347,-2.078 -0.501,-3.125 -0.115,-0.792 -0.23,-1.586 -0.329,-2.381 -0.073,-0.58 -0.136,-1.163 -0.201,-1.745 -0.096,-0.882 -0.184,-1.764 -0.26,-2.651 -0.033,-0.378 -0.072,-0.756 -0.101,-1.135 -0.096,-1.268 -0.168,-2.54 -0.224,-3.815 -0.015,-0.355 -0.028,-0.709 -0.041,-1.065 -0.046,-1.348 -0.079,-2.699 -0.079,-4.055 0,-1.332 0.031,-2.661 0.077,-3.987 0.012,-0.356 0.025,-0.71 0.041,-1.065 0.054,-1.257 0.123,-2.511 0.217,-3.762 0.024,-0.313 0.056,-0.622 0.082,-0.933 0.08,-0.954 0.172,-1.906 0.276,-2.856 0.06,-0.555 0.122,-1.11 0.191,-1.663 0.092,-0.749 0.197,-1.496 0.304,-2.243 0.154,-1.068 0.32,-2.131 0.503,-3.189 0.063,-0.363 0.125,-0.727 0.191,-1.089 9.818,-53.752 56.991,-94.626 113.536,-94.626 z M 213.558,320.756 h -87.776 c -1.461,0 -2.651,-1.344 -2.651,-2.997 V 195.362 c 0,-1.651 1.19,-2.995 2.651,-2.995 h 87.145 c -8.422,15.191 -13.682,31.814 -15.573,49.122 -0.047,0.433 -0.1,0.864 -0.143,1.299 -0.064,0.644 -0.117,1.29 -0.172,1.936 -0.056,0.664 -0.11,1.328 -0.156,1.995 -0.039,0.558 -0.074,1.117 -0.107,1.676 -0.046,0.807 -0.083,1.617 -0.114,2.428 -0.017,0.449 -0.039,0.899 -0.052,1.348 -0.037,1.273 -0.059,2.549 -0.059,3.83 0,1.298 0.024,2.59 0.061,3.879 0.013,0.458 0.035,0.915 0.053,1.373 0.032,0.815 0.07,1.629 0.116,2.44 0.033,0.575 0.069,1.148 0.109,1.72 0.046,0.653 0.1,1.303 0.156,1.953 0.057,0.675 0.112,1.35 0.18,2.022 0.017,0.174 0.04,0.347 0.058,0.521 1.878,17.964 7.38,35.18 16.274,50.847 z"
   id="path921" />
</g><g
       style="opacity:0.2"
       id="g927">
	<rect
   x="76.121002"
   y="90.813004"
   style="fill:#231f20"
   width="17.246"
   height="337.37"
   id="rect925" />
</g><g
       style="opacity:0.2"
       id="g931">
	<path
   style="fill:#231f20"
   d="m 263.624,256.539 c 0,-42.225 32.052,-76.96 73.154,-81.211 -2.794,-0.289 -5.628,-0.44 -8.497,-0.44 -45.095,0 -81.651,36.556 -81.651,81.651 0,45.095 36.556,81.651 81.651,81.651 2.869,0 5.703,-0.152 8.497,-0.44 -41.101,-4.252 -73.154,-38.986 -73.154,-81.211 z"
   id="path929" />
</g></g><g
     id="g1256"
     transform="matrix(0.66731256,0,0,0.5815989,79.039296,8.6340753)"><circle
       style="fill:#1081e0"
       cx="7"
       cy="41.5"
       r="1"
       id="circle1080" /><path
       style="fill:#28812f"
       d="m 4,12.5 v 32 h 8 v 4 h 24 v -4 h 23 v -32 z m 52,30 c -0.552,0 -1,-0.448 -1,-1 0,-0.552 0.448,-1 1,-1 0.552,0 1,0.448 1,1 0,0.552 -0.448,1 -1,1 z m 0,-26 c -0.552,0 -1,-0.448 -1,-1 0,-0.552 0.448,-1 1,-1 0.552,0 1,0.448 1,1 0,0.552 -0.448,1 -1,1 z"
       id="path1082" /><path
       style="fill:#cbd4d8"
       d="M 4,7.5 H 1 c -0.553,0 -1,0.447 -1,1 0,0.553 0.447,1 1,1 h 2 v 41 c 0,0.553 0.447,1 1,1 0.553,0 1,-0.447 1,-1 V 8.5 C 5,7.947 4.553,7.5 4,7.5 Z"
       id="path1084" /><rect
       y="15.5"
       style="fill:#ebba16"
       width="3"
       height="4"
       id="rect1086"
       x="0" /><rect
       x="5"
       y="15.5"
       style="fill:#38454f"
       width="4"
       height="4"
       id="rect1088" /><rect
       y="22.5"
       style="fill:#dc691d"
       width="3"
       height="4"
       id="rect1090"
       x="0" /><rect
       x="5"
       y="22.5"
       style="fill:#38454f"
       width="4"
       height="4"
       id="rect1092" /><rect
       y="29.5"
       style="fill:#43b05c"
       width="3"
       height="4"
       id="rect1094"
       x="0" /><rect
       x="5"
       y="29.5"
       style="fill:#38454f"
       width="4"
       height="4"
       id="rect1096" /><g
       id="g1112">
	<rect
   x="14"
   y="46.5"
   style="fill:#f3cc6d"
   width="2"
   height="2"
   id="rect1098" />
	<rect
   x="17"
   y="46.5"
   style="fill:#f3cc6d"
   width="2"
   height="2"
   id="rect1100" />
	<rect
   x="20"
   y="46.5"
   style="fill:#f3cc6d"
   width="2"
   height="2"
   id="rect1102" />
	<rect
   x="23"
   y="46.5"
   style="fill:#f3cc6d"
   width="2"
   height="2"
   id="rect1104" />
	<rect
   x="26"
   y="46.5"
   style="fill:#f3cc6d"
   width="2"
   height="2"
   id="rect1106" />
	<rect
   x="29"
   y="46.5"
   style="fill:#f3cc6d"
   width="2"
   height="2"
   id="rect1108" />
	<rect
   x="32"
   y="46.5"
   style="fill:#f3cc6d"
   width="2"
   height="2"
   id="rect1110" />
</g><g
       id="g1122">
	<rect
   x="51"
   y="15.5"
   style="fill:#153a17"
   width="2"
   height="21"
   id="rect1114" />
	<rect
   x="48"
   y="15.5"
   style="fill:#153a17"
   width="2"
   height="21"
   id="rect1116" />
	<rect
   x="45"
   y="15.5"
   style="fill:#153a17"
   width="2"
   height="21"
   id="rect1118" />
	<rect
   x="42"
   y="15.5"
   style="fill:#153a17"
   width="2"
   height="21"
   id="rect1120" />
</g><rect
       x="29"
       y="15.5"
       style="fill:#f3cc6d"
       width="2"
       height="3"
       id="rect1124" /><rect
       x="32"
       y="15.5"
       style="fill:#f3cc6d"
       width="2"
       height="3"
       id="rect1126" /><rect
       x="35"
       y="15.5"
       style="fill:#f3cc6d"
       width="2"
       height="3"
       id="rect1128" /><rect
       x="29"
       y="24.5"
       style="fill:#f3cc6d"
       width="2"
       height="3"
       id="rect1130" /><rect
       x="32"
       y="24.5"
       style="fill:#f3cc6d"
       width="2"
       height="3"
       id="rect1132" /><rect
       x="35"
       y="24.5"
       style="fill:#f3cc6d"
       width="2"
       height="3"
       id="rect1134" /><rect
       x="14"
       y="15.5"
       style="fill:#f3cc6d"
       width="2"
       height="3"
       id="rect1136" /><rect
       x="17"
       y="15.5"
       style="fill:#f3cc6d"
       width="2"
       height="3"
       id="rect1138" /><rect
       x="20"
       y="15.5"
       style="fill:#f3cc6d"
       width="2"
       height="3"
       id="rect1140" /><rect
       x="14"
       y="24.5"
       style="fill:#f3cc6d"
       width="2"
       height="3"
       id="rect1142" /><rect
       x="17"
       y="24.5"
       style="fill:#f3cc6d"
       width="2"
       height="3"
       id="rect1144" /><rect
       x="20"
       y="24.5"
       style="fill:#f3cc6d"
       width="2"
       height="3"
       id="rect1146" /><circle
       style="fill:#f3cc6d"
       cx="21"
       cy="29.5"
       r="1"
       id="circle1148" /><circle
       style="fill:#f3cc6d"
       cx="7"
       cy="38.5"
       r="1"
       id="circle1150" /><circle
       style="fill:#f3cc6d"
       cx="18"
       cy="29.5"
       r="1"
       id="circle1152" /><circle
       style="fill:#f3cc6d"
       cx="15"
       cy="29.5"
       r="1"
       id="circle1154" /><path
       style="fill:#f3cc6d"
       d="m 23,35.5 h -2 c -0.553,0 -1,-0.447 -1,-1 0,-0.553 0.447,-1 1,-1 h 2 c 0.553,0 1,0.447 1,1 0,0.553 -0.447,1 -1,1 z"
       id="path1156" /><path
       style="fill:#f3cc6d"
       d="m 23,38.5 h -2 c -0.553,0 -1,-0.447 -1,-1 0,-0.553 0.447,-1 1,-1 h 2 c 0.553,0 1,0.447 1,1 0,0.553 -0.447,1 -1,1 z"
       id="path1158" /><path
       style="fill:#f3cc6d"
       d="m 15,35.5 h -2 c -0.553,0 -1,-0.447 -1,-1 0,-0.553 0.447,-1 1,-1 h 2 c 0.553,0 1,0.447 1,1 0,0.553 -0.447,1 -1,1 z"
       id="path1160" /><path
       style="fill:#f3cc6d"
       d="m 15,38.5 h -2 c -0.553,0 -1,-0.447 -1,-1 0,-0.553 0.447,-1 1,-1 h 2 c 0.553,0 1,0.447 1,1 0,0.553 -0.447,1 -1,1 z"
       id="path1162" /><circle
       style="fill:#f3cc6d"
       cx="36"
       cy="29.5"
       r="1"
       id="circle1164" /><circle
       style="fill:#f3cc6d"
       cx="33"
       cy="29.5"
       r="1"
       id="circle1166" /><circle
       style="fill:#f3cc6d"
       cx="43"
       cy="39.5"
       r="1"
       id="circle1168" /><circle
       style="fill:#f3cc6d"
       cx="46"
       cy="39.5"
       r="1"
       id="circle1170" /><circle
       style="fill:#f3cc6d"
       cx="49"
       cy="39.5"
       r="1"
       id="circle1172" /><circle
       style="fill:#f3cc6d"
       cx="52"
       cy="39.5"
       r="1"
       id="circle1174" /><circle
       style="fill:#f3cc6d"
       cx="30"
       cy="29.5"
       r="1"
       id="circle1176" /><path
       style="fill:#f3cc6d"
       d="m 38,35.5 h -2 c -0.553,0 -1,-0.447 -1,-1 0,-0.553 0.447,-1 1,-1 h 2 c 0.553,0 1,0.447 1,1 0,0.553 -0.447,1 -1,1 z"
       id="path1178" /><path
       style="fill:#f3cc6d"
       d="m 38,38.5 h -2 c -0.553,0 -1,-0.447 -1,-1 0,-0.553 0.447,-1 1,-1 h 2 c 0.553,0 1,0.447 1,1 0,0.553 -0.447,1 -1,1 z"
       id="path1180" /><path
       style="fill:#f3cc6d"
       d="m 30,35.5 h -2 c -0.553,0 -1,-0.447 -1,-1 0,-0.553 0.447,-1 1,-1 h 2 c 0.553,0 1,0.447 1,1 0,0.553 -0.447,1 -1,1 z"
       id="path1182" /><path
       style="fill:#f3cc6d"
       d="m 30,38.5 h -2 c -0.553,0 -1,-0.447 -1,-1 0,-0.553 0.447,-1 1,-1 h 2 c 0.553,0 1,0.447 1,1 0,0.553 -0.447,1 -1,1 z"
       id="path1184" /><rect
       x="28"
       y="18.5"
       style="fill:#38454f"
       width="10"
       height="6"
       id="rect1186" /><rect
       x="13"
       y="18.5"
       style="fill:#38454f"
       width="10"
       height="6"
       id="rect1188" /><rect
       x="15"
       y="32.5"
       style="fill:#38454f"
       width="6"
       height="7"
       id="rect1190" /><rect
       x="30"
       y="32.5"
       style="fill:#38454f"
       width="6"
       height="7"
       id="rect1192" /></g><g
     id="ram"
     transform="matrix(0.06941919,0,0,0.05268699,1.463805,9.591789)">
	<g
   id="g1260">
		<path
   fill="#a0d468"
   d="M 278.625,361.594 256,338.969 v 0 c -4.172,-4.156 -4.172,-10.922 0,-15.094 4.156,-4.156 10.922,-4.156 15.078,0 v 0 L 293.703,346.516 512,128.227 459.203,75.43 c -4.172,4.164 -10.922,4.164 -15.094,0 -4.156,-4.164 -4.156,-10.922 0,-15.086 l -7.531,-7.539 c -4.172,4.164 -10.922,4.164 -15.094,-0.008 -4.156,-4.164 -4.156,-10.914 0,-15.078 L 383.781,0 0,383.781 37.703,421.5 c 4.172,-4.172 10.922,-4.172 15.094,0 4.156,4.156 4.156,10.906 0,15.078 l 7.531,7.547 c 4.172,-4.172 10.922,-4.172 15.094,0 4.156,4.156 4.172,10.906 0,15.078 L 128.219,512 Z"
   id="path1258" />
	</g>
	<g
   id="g1266">
		<polygon
   fill="#8cc153"
   points="128.219,512 278.625,361.594 256,338.969 105.594,489.375 "
   id="polygon1262" />
		<polygon
   fill="#8cc153"
   points="271.078,323.875 293.703,346.516 512,128.227 489.375,105.602 "
   id="polygon1264" />
	</g>
	<g
   id="g1298">
		<path
   fill="#ffce54"
   d="m 482.266,142.867 c -4.156,4.164 -4.156,10.922 0,15.086 l 15.094,-15.086 c -4.172,-4.164 -10.922,-4.164 -15.094,0 z"
   id="path1268" />
		<path
   fill="#ffce54"
   d="m 459.641,165.492 c -4.156,4.164 -4.156,10.922 0,15.086 l 15.094,-15.086 c -4.173,-4.164 -10.923,-4.164 -15.094,0 z"
   id="path1270" />
		<path
   fill="#ffce54"
   d="m 437.016,188.117 c -4.172,4.172 -4.172,10.922 0,15.086 l 15.078,-15.086 c -4.156,-4.164 -10.906,-4.164 -15.078,0 z"
   id="path1272" />
		<path
   fill="#ffce54"
   d="m 414.391,210.75 c -4.172,4.164 -4.172,10.922 0,15.086 l 15.078,-15.086 c -4.157,-4.164 -10.922,-4.164 -15.078,0 z"
   id="path1274" />
		<path
   fill="#ffce54"
   d="m 391.766,233.375 c -4.172,4.164 -4.172,10.922 0,15.086 l 15.078,-15.086 c -4.156,-4.164 -10.922,-4.164 -15.078,0 z"
   id="path1276" />
		<path
   fill="#ffce54"
   d="m 369.125,256 c -4.156,4.172 -4.156,10.922 0,15.086 L 384.219,256 c -4.172,-4.164 -10.922,-4.164 -15.094,0 z"
   id="path1278" />
		<path
   fill="#ffce54"
   d="m 346.5,278.625 c -4.156,4.172 -4.156,10.938 0,15.094 l 15.094,-15.094 c -4.172,-4.156 -10.922,-4.156 -15.094,0 z"
   id="path1280" />
		<path
   fill="#ffce54"
   d="m 323.875,301.25 c -4.156,4.172 -4.156,10.938 0,15.094 l 15.094,-15.094 c -4.172,-4.156 -10.922,-4.156 -15.094,0 z"
   id="path1282" />
		<path
   fill="#ffce54"
   d="m 301.25,323.875 c -4.156,4.188 -4.172,10.938 0,15.094 l 15.094,-15.094 c -4.172,-4.156 -10.922,-4.156 -15.094,0 z"
   id="path1284" />
		<path
   fill="#ffce54"
   d="m 256,369.141 c -4.172,4.172 -4.172,10.922 0,15.078 l 15.078,-15.078 c -4.156,-4.172 -10.922,-4.172 -15.078,0 z"
   id="path1286" />
		<path
   fill="#ffce54"
   d="m 233.375,391.766 c -4.172,4.172 -4.172,10.922 0,15.078 l 15.078,-15.078 c -4.172,-4.172 -10.922,-4.172 -15.078,0 z"
   id="path1288" />
		<path
   fill="#ffce54"
   d="m 210.734,414.406 c -4.156,4.156 -4.156,10.906 0,15.078 l 15.094,-15.078 c -4.172,-4.187 -10.922,-4.187 -15.094,0 z"
   id="path1290" />
		<path
   fill="#ffce54"
   d="m 188.109,437.031 c -4.156,4.156 -4.156,10.906 0,15.078 l 15.094,-15.078 c -4.172,-4.172 -10.922,-4.172 -15.094,0 z"
   id="path1292" />
		<path
   fill="#ffce54"
   d="m 165.484,459.656 c -4.156,4.156 -4.156,10.906 0,15.078 l 15.094,-15.078 c -4.172,-4.172 -10.922,-4.172 -15.094,0 z"
   id="path1294" />
		<path
   fill="#ffce54"
   d="m 142.859,482.281 c -4.172,4.156 -4.172,10.906 0,15.078 l 15.078,-15.078 c -4.156,-4.172 -10.906,-4.172 -15.078,0 z"
   id="path1296" />
	</g>
	
		<rect
   x="84.259003"
   y="362.44699"
   transform="matrix(0.7071,0.7071,-0.7071,0.7071,302.302,37.7409)"
   fill="#656d78"
   width="42.668999"
   height="42.668999"
   id="rect1300" />
	<polygon
   fill="#656d78"
   points="165.938,293.281 196.094,323.438 165.938,353.609 135.766,323.438 "
   id="polygon1302" />
	<polygon
   fill="#656d78"
   points="256.438,202.766 286.609,232.93 256.438,263.102 226.266,232.93 "
   id="polygon1304" />
	
		<rect
   x="295.44699"
   y="151.259"
   transform="matrix(0.7071,0.7071,-0.7071,0.7071,214.8253,-173.4466)"
   fill="#656d78"
   width="42.668999"
   height="42.668999"
   id="rect1306" />
	<g
   id="g1316">
		<path
   fill="#434a54"
   d="m 60.328,383.781 45.266,45.25 45.25,-45.25 -45.25,-45.25 z m 45.266,15.094 -15.094,-15.094 15.094,-15.094 15.078,15.094 z"
   id="path1308" />
		<path
   fill="#434a54"
   d="m 120.672,323.438 45.266,45.25 45.25,-45.25 -45.25,-45.25 z m 45.266,15.093 -15.094,-15.094 15.094,-15.078 15.078,15.078 z"
   id="path1310" />
		<path
   fill="#434a54"
   d="m 211.188,232.93 45.25,45.258 45.25,-45.258 -45.25,-45.25 z m 45.25,15.086 -15.078,-15.086 15.078,-15.086 15.094,15.086 z"
   id="path1312" />
		<path
   fill="#434a54"
   d="m 316.781,127.336 -45.25,45.258 45.25,45.25 45.25,-45.25 z m -15.093,45.258 15.094,-15.086 15.078,15.086 -15.078,15.086 z"
   id="path1314" />
	</g>
	<polygon
   fill="#656d78"
   points="377.125,82.086 407.281,112.25 377.125,142.422 346.953,112.25 "
   id="polygon1318" />
	<path
   fill="#434a54"
   d="m 377.125,67 -45.266,45.25 45.266,45.258 45.25,-45.258 z m 0,60.336 -15.094,-15.086 15.094,-15.078 15.078,15.078 z"
   id="path1320" />
</g><g
     id="cooler"
     transform="matrix(0.06333904,0,0,0.05437325,40.942535,11.588402)">
	<g
   id="g1363">
		<rect
   x="21.327999"
   y="21.336"
   fill="#434a54"
   width="469.328"
   height="469.336"
   id="rect1361" />
	</g>
	<path
   fill="#aab2bc"
   d="m 458.656,64 c 0,5.898 -4.781,10.672 -10.656,10.672 -5.906,0 -10.672,-4.773 -10.672,-10.672 0,-5.883 4.766,-10.664 10.672,-10.664 5.875,0 10.656,4.781 10.656,10.664 z"
   id="path1365" />
	<path
   fill="#aab2bc"
   d="m 74.656,64 c 0,5.898 -4.781,10.672 -10.656,10.672 -5.906,0 -10.672,-4.773 -10.672,-10.672 0,-5.883 4.766,-10.664 10.672,-10.664 5.875,0 10.656,4.781 10.656,10.664 z"
   id="path1367" />
	<path
   fill="#aab2bc"
   d="m 74.656,448 c 0,5.891 -4.781,10.672 -10.656,10.672 -5.906,0 -10.672,-4.781 -10.672,-10.672 0,-5.875 4.766,-10.656 10.672,-10.656 5.875,0 10.656,4.781 10.656,10.656 z"
   id="path1369" />
	<path
   fill="#aab2bc"
   d="m 458.656,448 c 0,5.891 -4.781,10.672 -10.656,10.672 -5.906,0 -10.672,-4.781 -10.672,-10.672 0,-5.875 4.766,-10.656 10.672,-10.656 5.875,0 10.656,4.781 10.656,10.656 z"
   id="path1371" />
	<path
   fill="#e6e9ed"
   d="m 256,501.344 c -33.125,0 -65.266,-6.5 -95.5,-19.281 -29.219,-12.359 -55.453,-30.047 -77.984,-52.578 -22.531,-22.547 -40.219,-48.766 -52.578,-77.984 -12.797,-30.25 -19.281,-62.375 -19.281,-95.5 0,-33.117 6.484,-65.25 19.281,-95.484 C 42.297,131.298 59.985,105.064 82.516,82.525 105.047,59.994 131.282,42.306 160.5,29.947 190.734,17.158 222.875,10.674 256,10.674 c 33.109,0 65.25,6.484 95.484,19.273 29.219,12.359 55.453,30.047 77.984,52.578 22.531,22.539 40.219,48.773 52.578,77.992 12.797,30.234 19.281,62.367 19.281,95.484 0,33.125 -6.484,65.25 -19.281,95.5 -12.359,29.219 -30.047,55.438 -52.578,77.984 -22.531,22.531 -48.766,40.219 -77.984,52.578 -30.234,12.781 -62.375,19.281 -95.484,19.281 z"
   id="path1373" />
	<path
   fill="#656d78"
   d="M 256,0 C 114.609,0 0,114.617 0,256 0,397.391 114.609,512 256,512 397.375,512 512,397.391 512,256 512,114.617 397.375,0 256,0 Z m 165.922,421.938 c -21.547,21.562 -46.656,38.484 -74.594,50.312 -28.922,12.219 -59.641,18.422 -91.328,18.422 -31.703,0 -62.422,-6.203 -91.344,-18.422 C 136.718,460.422 111.609,443.5 90.062,421.938 68.5,400.375 51.578,375.281 39.75,347.344 27.531,318.422 21.328,287.688 21.328,256 c 0,-31.688 6.203,-62.414 18.422,-91.328 C 51.578,136.727 68.5,111.625 90.062,90.07 111.609,68.508 136.718,51.586 164.656,39.773 193.578,27.539 224.297,21.336 256,21.336 c 31.688,0 62.406,6.203 91.328,18.438 27.938,11.812 53.047,28.734 74.594,50.297 21.562,21.555 38.484,46.656 50.297,74.602 12.234,28.914 18.438,59.641 18.438,91.328 0,31.687 -6.203,62.422 -18.438,91.344 -11.813,27.936 -28.735,53.03 -50.297,74.593 z"
   id="path1375" />
	<g
   id="g1381">
		<path
   fill="#48cfad"
   d="m 255.875,458.688 c -0.594,0 -1.188,-0.016 -1.781,-0.016 -11.078,-28.359 -20.312,-65.766 -26.844,-108.766 l -6.75,-44.594 -13.938,42.891 c -12.125,37.312 -18.875,73.578 -22.391,97.359 -21.016,-7.969 -40.453,-19.312 -57.922,-33.875 -18.984,-15.812 -34.688,-34.625 -46.75,-55.953 19.031,-23.797 46.812,-50.516 80.812,-77.672 l 35.234,-28.141 -44.109,9.383 c -38.359,8.148 -73.125,20.43 -95.469,29.258 -0.641,-3.906 -1.172,-7.844 -1.578,-11.781 -2.375,-23.109 -0.844,-46.18 4.594,-68.547 4.703,-19.422 12.25,-37.961 22.438,-55.203 30.109,4.586 67.125,15.281 107.625,31.141 l 41.984,16.438 -30.172,-33.508 c -26.25,-29.148 -54.281,-53.125 -73.109,-68.062 30.672,-25.156 67.562,-40.516 107.453,-44.633 6.922,-0.711 13.953,-1.078 20.922,-1.078 0.594,0 1.172,0.008 1.766,0.008 11.078,28.367 20.328,65.773 26.844,108.773 l 6.75,44.586 13.938,-42.891 c 12.109,-37.312 18.859,-73.578 22.391,-97.367 21.016,7.969 40.453,19.328 57.922,33.875 18.984,15.82 34.688,34.625 46.75,55.961 -19.031,23.797 -46.812,50.516 -80.797,77.664 l -35.25,28.148 44.125,-9.383 c 38.344,-8.148 73.109,-20.43 95.453,-29.266 0.641,3.93 1.172,7.859 1.578,11.773 2.375,23.125 0.844,46.195 -4.594,68.57 -4.703,19.422 -12.25,37.969 -22.438,55.188 -30.109,-4.578 -67.125,-15.281 -107.625,-31.125 l -41.984,-16.438 30.172,33.5 c 26.25,29.156 54.281,53.125 73.109,68.062 -30.672,25.156 -67.562,40.516 -107.453,44.625 -6.906,0.72 -13.953,1.096 -20.906,1.096 z"
   id="path1377" />
		<path
   fill="#37bc9b"
   d="m 468.203,234.125 c -0.891,-8.68 -2.312,-17.172 -4.188,-25.469 -21.266,8.953 -60.906,24.102 -105.672,33.617 28.781,-23 63.047,-53.547 86.844,-84.953 C 418.875,106.906 373.219,68.922 319,52.141 c -2.875,22.883 -9.578,64.812 -23.719,108.367 -5.531,-36.43 -14.844,-81.352 -30.141,-117.656 -2.984,-0.125 -5.984,-0.188 -9.016,-0.188 -7.266,0 -14.625,0.367 -22.016,1.133 -47.859,4.938 -90.391,25.336 -123.125,55.727 18.375,13.945 51.312,40.703 81.953,74.711 -34.312,-13.43 -77.875,-27.82 -116.953,-32.727 -24.922,39.133 -37.328,86.641 -32.203,136.383 0.906,8.672 2.312,17.172 4.188,25.453 21.266,-8.938 60.906,-24.094 105.688,-33.609 -28.797,23 -63.062,53.547 -86.859,84.953 26.312,50.406 71.969,88.406 126.188,105.188 2.875,-22.891 9.578,-64.812 23.734,-108.375 5.516,36.438 14.828,81.344 30.125,117.656 3,0.125 6,0.188 9.031,0.188 7.266,0 14.609,-0.375 22,-1.125 47.859,-4.938 90.391,-25.344 123.125,-55.734 -18.391,-13.953 -51.312,-40.703 -81.938,-74.703 34.297,13.42 77.86,27.811 116.938,32.717 24.922,-39.125 37.328,-86.641 32.203,-136.375 z m -141.375,83.781 -83.969,-32.875 60.344,67.016 c 22.141,24.609 45.516,45.562 63.781,60.672 -9.688,6.875 -19.969,12.812 -30.781,17.781 -19.062,8.781 -39.422,14.312 -60.516,16.5 -4.703,0.469 -9.469,0.781 -14.234,0.938 -9.656,-26.719 -17.766,-60.812 -23.656,-99.625 l -13.516,-89.188 -27.859,85.781 c -10.234,31.484 -16.703,62.219 -20.656,85.594 -15.281,-7.047 -29.562,-16.062 -42.688,-27 C 116.969,390.062 103.359,374.375 92.484,356.734 110.781,335 136.25,310.937 166.968,286.406 l 70.469,-56.297 -88.219,18.758 c -32.375,6.883 -62.203,16.633 -84.406,24.883 -1.984,-21.25 -0.453,-42.438 4.531,-63 3.891,-16.055 9.828,-31.461 17.688,-45.977 27.969,4.984 61.547,15.008 98.125,29.328 l 83.984,32.883 -60.359,-67.023 C 186.64,135.367 163.265,114.399 145,99.289 c 9.688,-6.867 19.969,-12.82 30.781,-17.789 19.062,-8.766 39.422,-14.312 60.516,-16.484 4.703,-0.484 9.469,-0.797 14.234,-0.938 9.656,26.711 17.766,60.797 23.656,99.625 l 13.5,89.18 27.875,-85.781 c 10.219,-31.477 16.703,-62.211 20.656,-85.586 15.281,7.039 29.562,16.07 42.688,26.992 16.109,13.43 29.719,29.117 40.594,46.766 -18.297,21.727 -43.781,45.805 -74.484,70.328 l -70.469,56.305 88.234,-18.766 c 32.359,-6.883 62.188,-16.633 84.391,-24.891 1.984,21.258 0.453,42.438 -4.531,63 -3.891,16.062 -9.828,31.469 -17.688,46 -27.969,-5 -61.547,-15.031 -98.125,-29.344 z"
   id="path1379" />
	</g>
	<path
   fill="#e6e9ed"
   d="m 256,330.672 c -41.172,0 -74.672,-33.5 -74.672,-74.672 0,-41.164 33.5,-74.664 74.672,-74.664 41.156,0 74.656,33.5 74.656,74.664 0,41.172 -33.5,74.672 -74.656,74.672 z"
   id="path1383" />
	<path
   fill="#37bc9b"
   d="m 256,170.672 c -47.141,0 -85.344,38.203 -85.344,85.328 0,47.125 38.203,85.344 85.344,85.344 47.125,0 85.328,-38.219 85.328,-85.344 0,-47.125 -38.203,-85.328 -85.328,-85.328 z M 256,320 c -35.297,0 -64,-28.719 -64,-64 0,-35.289 28.703,-63.992 64,-63.992 35.281,0 63.984,28.703 63.984,63.992 0,35.281 -28.703,64 -63.984,64 z"
   id="path1385" />
	<path
   d="m 266.656,256 c 0,5.898 -4.781,10.672 -10.656,10.672 -5.906,0 -10.672,-4.773 -10.672,-10.672 0,-5.883 4.766,-10.664 10.672,-10.664 5.875,0 10.656,4.781 10.656,10.664 z"
   id="path1387" />
</g></g><style
   type="text/css"
   id="style32261">
	.st0{fill:#BF7D2C;}
	.st1{fill:#C9942C;}
	.st2{fill:#656A73;}
	.st3{fill:#7D828C;}
	.st4{fill:#5C6373;}
	.st5{fill:#4F4228;}
	.st6{fill:#91AAB4;}
	.st7{fill:#A88C55;}
	.st8{fill:#6B5936;}
	.st9{fill:#3E606F;}
</style></svg>
