<?xml version="1.0" encoding="UTF-8" standalone="no"?>
<!-- Uploaded to: SVG Repo, www.svgrepo.com, Generator: SVG Repo Mixer Tools -->

<svg
   height="264.21625"
   width="1399.8342"
   version="1.1"
   id="Layer_1"
   viewBox="0 0 888.42754 167.68914"
   xml:space="preserve"
   sodipodi:docname="goruntuisleme-tools.svg"
   inkscape:version="1.2.2 (b0a8486541, 2022-12-01)"
   xmlns:inkscape="http://www.inkscape.org/namespaces/inkscape"
   xmlns:sodipodi="http://sodipodi.sourceforge.net/DTD/sodipodi-0.dtd"
   xmlns="http://www.w3.org/2000/svg"
   xmlns:svg="http://www.w3.org/2000/svg"><defs
   id="defs27" /><sodipodi:namedview
   id="namedview25"
   pagecolor="#ffffff"
   bordercolor="#000000"
   borderopacity="0.25"
   inkscape:showpageshadow="2"
   inkscape:pageopacity="0.0"
   inkscape:pagecheckerboard="0"
   inkscape:deskcolor="#d1d1d1"
   showgrid="false"
   inkscape:zoom="0.47641319"
   inkscape:cx="676.9334"
   inkscape:cy="283.36747"
   inkscape:window-width="1366"
   inkscape:window-height="675"
   inkscape:window-x="0"
   inkscape:window-y="0"
   inkscape:window-maximized="1"
   inkscape:current-layer="Layer_1" />

<g
   id="g328"
   transform="matrix(0.15934661,0,0,0.12341086,98.218983,7.370541)"><g
     transform="translate(1)"
     id="g20">
	<path
   style="fill:#c49ae9"
   d="m 379.587,127.147 c 10.24,10.24 10.24,26.453 0,35.84 L 268.653,273.92 267.8,273.067 232.813,238.08 l 0.853,-0.853 110.08,-110.08 c 9.387,-10.24 25.601,-10.24 35.841,0"
   id="path2" />
	<path
   style="fill:#ecf4f7"
   d="M 268.653,273.92 46.787,495.787 c -10.24,10.24 -26.453,10.24 -35.84,0 -10.24,-10.24 -10.24,-26.453 0,-35.84 L 232.813,238.08 267.8,273.067 Z"
   id="path4" />
	<circle
   style="fill:#ffd0a1"
   cx="199.533"
   cy="68.266998"
   r="8.533"
   id="circle6" />
	<g
   id="g12">
		<circle
   style="fill:#7ee1e6"
   cx="438.46701"
   cy="179.2"
   r="8.533"
   id="circle8" />
		<circle
   style="fill:#7ee1e6"
   cx="395.79999"
   cy="8.533"
   r="8.533"
   id="circle10" />
	</g>
	<g
   id="g18">
		<circle
   style="fill:#c49ae9"
   cx="498.20001"
   cy="119.467"
   r="8.533"
   id="circle14" />
		<circle
   style="fill:#c49ae9"
   cx="165.39999"
   cy="179.2"
   r="8.533"
   id="circle16" />
	</g>
</g><path
     style="fill:#51565f"
     d="m 29.867,507.733 c -7.68,0 -15.36,-2.56 -21.333,-8.533 C 2.56,493.227 0,486.4 0,477.867 0,469.334 3.413,462.507 8.533,456.534 L 230.4,234.667 c 0.853,-0.853 1.707,-0.853 3.413,-0.853 v 0 c 0.853,0 2.56,0.853 3.413,0.853 l 13.653,13.653 c 1.707,1.707 1.707,4.267 0,5.973 -1.707,1.707 -4.267,1.707 -5.973,0 L 233.813,243.2 15.36,461.654 c -4.267,4.267 -5.973,9.387 -5.973,15.36 0,5.973 2.56,11.093 5.973,15.36 8.533,8.533 22.187,8.533 29.867,0 l 332.8,-332.8 c 4.267,-4.267 5.973,-9.387 5.973,-15.36 0,-5.973 -2.56,-11.093 -5.973,-15.36 -8.533,-8.533 -22.187,-8.533 -29.867,0 l -86.187,86.187 c -1.707,1.707 -4.267,1.707 -5.973,0 -1.706,-1.707 -1.707,-4.267 0,-5.973 l 86.187,-86.187 c 11.947,-11.947 30.72,-11.947 41.813,0 5.973,5.973 8.533,12.8 8.533,21.333 0,8.533 -3.413,15.36 -8.533,21.333 l -332.8,332.8 c -5.973,6.826 -13.653,9.386 -21.333,9.386 z M 320,345.6 c -2.56,0 -4.267,-1.707 -4.267,-4.267 v -4.267 h -4.267 c -2.56,0 -4.267,-1.707 -4.267,-4.267 0,-2.56 1.707,-4.267 4.267,-4.267 h 4.267 v -4.267 c 0,-2.56 1.707,-4.267 4.267,-4.267 2.56,0 4.267,1.707 4.267,4.267 v 4.267 h 4.267 c 2.56,0 4.267,1.707 4.267,4.267 0,2.56 -1.707,4.267 -4.267,4.267 h -4.267 v 4.267 c 0,2.56 -1.707,4.267 -4.267,4.267 z M 482.133,320 c -2.56,0 -4.267,-1.707 -4.267,-4.267 v -12.8 h -12.8 c -2.56,0 -4.267,-1.707 -4.267,-4.267 0,-2.56 1.707,-4.267 4.267,-4.267 h 12.8 v -12.8 c 0,-2.56 1.707,-4.267 4.267,-4.267 2.56,0 4.267,1.707 4.267,4.267 v 12.8 h 12.8 c 2.56,0 4.267,1.707 4.267,4.267 0,2.56 -1.707,4.267 -4.267,4.267 h -12.8 v 12.8 c 0,2.56 -1.707,4.267 -4.267,4.267 z M 362.667,285.867 c -2.56,0 -4.267,-1.707 -4.267,-4.267 v -42.667 c 0,-2.56 1.707,-4.267 4.267,-4.267 2.56,0 4.267,1.707 4.267,4.267 V 281.6 c -0.001,2.56 -1.707,4.267 -4.267,4.267 z m 76.8,-59.734 c -0.853,0 -2.56,0 -3.413,-0.853 l -28.16,-28.16 c -1.707,-1.707 -1.707,-4.267 0,-5.973 1.707,-1.707 4.267,-1.707 5.973,0 l 28.16,28.16 c 1.707,1.707 1.707,4.267 0,5.973 0,0.853 -1.707,0.853 -2.56,0.853 z m 59.733,-76.8 h -68.267 c -2.56,0 -4.267,-1.707 -4.267,-4.267 0,-2.56 1.707,-4.267 4.267,-4.267 H 499.2 c 2.56,0 4.267,1.707 4.267,4.267 0,2.561 -1.707,4.267 -4.267,4.267 z m -230.4,0 h -42.667 c -2.56,0 -4.267,-1.707 -4.267,-4.267 0,-2.56 1.707,-4.267 4.267,-4.267 H 268.8 c 2.56,0 4.267,1.707 4.267,4.267 0,2.561 -1.707,4.267 -4.267,4.267 z m -128,0 c -2.56,0 -4.267,-1.707 -4.267,-4.267 v -12.8 h -12.8 c -2.56,0 -4.267,-1.707 -4.267,-4.267 0,-2.56 1.707,-4.267 4.267,-4.267 h 12.8 v -12.8 c 0,-2.56 1.707,-4.267 4.267,-4.267 2.56,0 4.267,1.707 4.267,4.267 v 12.8 h 12.8 c 2.56,0 4.267,1.707 4.267,4.267 0,2.56 -1.707,4.267 -4.267,4.267 h -12.8 v 12.8 c 0,2.561 -1.707,4.267 -4.267,4.267 z m 270.507,-48.64 c -0.853,0 -2.56,0 -3.413,-0.853 -1.707,-1.707 -1.707,-4.267 0,-5.973 l 28.16,-28.16 c 1.707,-1.707 4.267,-1.707 5.973,0 1.707,1.707 1.707,4.267 0,5.973 l -28.16,28.16 c -0.854,0.853 -1.707,0.853 -2.56,0.853 z m -97.28,0 c -0.853,0 -2.56,0 -3.413,-0.853 l -28.16,-28.16 c -1.707,-1.707 -1.707,-4.267 0,-5.973 1.707,-1.707 4.267,-1.707 5.973,0 l 28.16,28.16 c 1.707,1.707 1.707,4.267 0,5.973 0,0.853 -0.854,0.853 -2.56,0.853 z m 48.64,-19.626 c -2.56,0 -4.267,-1.707 -4.267,-4.267 V 8.533 c 0,-2.56 1.707,-4.267 4.267,-4.267 2.56,0 4.267,1.707 4.267,4.267 V 76.8 c -0.001,2.56 -1.707,4.267 -4.267,4.267 z m 128,-8.534 c -2.56,0 -4.267,-1.707 -4.267,-4.267 V 64 h -4.267 c -2.56,0 -4.267,-1.707 -4.267,-4.267 0,-2.56 1.707,-4.267 4.267,-4.267 H 486.4 V 51.2 c 0,-2.56 1.707,-4.267 4.267,-4.267 2.56,0 4.267,1.707 4.267,4.267 v 4.267 h 4.267 c 2.56,0 4.267,1.707 4.267,4.267 0,2.56 -1.707,4.267 -4.267,4.267 h -4.267 v 4.267 c -0.001,2.559 -1.707,4.265 -4.267,4.265 z M 226.133,38.4 c -2.56,0 -4.267,-1.707 -4.267,-4.267 V 29.866 H 217.6 c -2.56,0 -4.267,-1.707 -4.267,-4.267 0,-2.56 1.707,-4.267 4.267,-4.267 h 4.267 v -4.267 c 0,-2.56 1.707,-4.267 4.267,-4.267 2.56,0 4.267,1.707 4.267,4.267 v 4.267 h 4.267 c 2.56,0 4.267,1.707 4.267,4.267 0,2.56 -1.707,4.267 -4.267,4.267 H 230.4 v 4.267 c 0,2.56 -1.707,4.267 -4.267,4.267 z"
     id="path22" /></g>
<g
   style="fill:none"
   id="g345"
   transform="matrix(4.6014506,0,0,3.2943905,660.66335,1.7829396)"><g
     id="SVGRepo_bgCarrier"
     stroke-width="0" /><g
     id="SVGRepo_tracerCarrier"
     stroke-linecap="round"
     stroke-linejoin="round" /><g
     id="SVGRepo_iconCarrier"><path
       d="m 15.9997,11 h -14 m 8,-7 -2,-2 m 6,20 h -12 m 20,-6 c 0,1.1046 -0.8954,2 -2,2 -1.1046,0 -2,-0.8954 -2,-2 0,-1.1046 2,-3 2,-3 0,0 2,1.8954 2,3 z m -13,-13 6.8686,6.86863 c 0.396,0.39597 0.5941,0.59407 0.6682,0.82237 0.0653,0.2008 0.0653,0.4172 0,0.618 -0.0741,0.2283 -0.2722,0.4264 -0.6682,0.8224 l -4.6059,4.6059 c -0.792,0.792 -1.188,1.188 -1.64467,1.3364 -0.40168,0.1305 -0.83438,0.1305 -1.23607,0 C 7.92501,17.9253 7.52899,17.5293 6.73696,16.7373 L 3.26244,13.2627 C 2.4704,12.4707 2.07439,12.0747 1.92601,11.618 1.7955,11.2163 1.7955,10.7837 1.92601,10.382 2.07439,9.92531 2.47041,9.52929 3.26244,8.73726 Z"
       stroke="#3584e4"
       stroke-width="2"
       stroke-linecap="round"
       stroke-linejoin="round"
       id="path332" /></g></g><g
   id="g351"
   transform="matrix(0.15700415,0,0,0.13991112,309.99924,5.3280152)">
	<path
   style="fill:#c9c6b8"
   d="M 449.12,512 H 71.706 C 50.317,512 31.673,497.443 26.482,476.69 H 494.344 C 489.153,497.443 470.509,512 449.12,512"
   id="path347" />
	<path
   style="fill:#724530"
   d="M 467.862,344.275 H 344.276 c -24.373,0 -44.138,-19.765 -44.138,-44.138 v -14.989 c 0,-49.434 15.431,-96.945 40.095,-139.776 10.549,-18.308 15.281,-40.369 11.679,-63.718 -6.568,-42.54 -41.949,-76.253 -84.727,-81.028 -58.633,-6.55 -108.288,39.168 -108.288,96.477 0,18.856 5.385,36.44 14.698,51.324 26.527,42.364 38.268,92.345 38.268,142.327 v 9.384 c 0,24.373 -19.765,44.138 -44.138,44.138 H 44.138 C 19.765,344.275 0,364.04 0,388.413 v 88.276 h 512 v -88.276 c 0,-24.373 -19.765,-44.138 -44.138,-44.138"
   id="path349" />
</g><g
   style="fill:none"
   id="g370"
   transform="matrix(4.8600197,0,0,2.788537,181.40121,7.2028362)"><path
     d="m 2,6 h 12.8 c 1.1201,0 1.6802,0 2.108,0.21799 0.3763,0.19174 0.6823,0.4977 0.874,0.87403 C 18,7.51984 18,8.07989 18,9.2 V 22 m 4,-4 H 9.2 C 8.07989,18 7.51984,18 7.09202,17.782 6.71569,17.5903 6.40973,17.2843 6.21799,16.908 6,16.4802 6,15.9201 6,14.8 V 2"
     stroke="#000000"
     stroke-width="2"
     stroke-linecap="round"
     stroke-linejoin="round"
     id="path361" /></g><g
   aria-label="A"
   id="text426"
   style="font-weight:bold;font-size:52.2295px;-inkscape-font-specification:'sans-serif, Bold';stroke-width:0.038322"
   transform="matrix(2.0061417,0,0,1.7903841,520.98236,-181.66951)"><path
     d="m 48.057917,141.98642 -2.715934,-8.87902 h -13.57967 l -2.715934,8.87902 H 20.53297 l 13.161834,-37.44855 h 9.662458 l 13.214063,37.44855 z m -7.31213,-24.18226 q -0.261148,-0.8879 -0.678984,-2.24587 -0.417836,-1.35796 -0.835672,-2.76816 -0.417836,-1.4102 -0.678983,-2.45479 -0.261148,1.04459 -0.731213,2.61148 -0.417836,1.51465 -0.835672,2.92485 -0.365607,1.35797 -0.574525,1.93249 l -2.663704,8.6701 h 9.714687 z"
     style="stroke-width:0.0383221"
     id="path428" /></g><g
   id="g463"
   transform="matrix(0.17399512,0,0,0.169663,439.16476,-4.5733816)"><path
     style="fill:#ff7124"
     d="M 41.266,443.45 H 260.473 L 381.138,255.956 H 105.156 L 15.217,395.707 C 1.95,416.322 16.751,443.45 41.266,443.45 Z"
     id="path431" /><polygon
     style="fill:#8ecac1"
     points="501.802,68.461 225.82,68.461 105.156,255.956 381.137,255.956 "
     id="polygon433" /><g
     id="g447">
	<path
   style="fill:#4d3d36"
   d="m 6.641,390.189 c -8.282,12.868 -8.85,28.571 -1.521,42.005 7.331,13.433 20.843,21.454 36.146,21.454 h 219.207 c 3.468,0 6.699,-1.763 8.576,-4.679 L 510.378,73.98 c 2.019,-3.138 2.164,-7.128 0.376,-10.403 -1.787,-3.276 -5.221,-5.313 -8.952,-5.313 H 225.82 c -3.468,0 -6.699,1.763 -8.576,4.679 z m 248.267,43.062 H 41.266 c -7.723,0 -14.542,-4.048 -18.241,-10.827 -3.699,-6.779 -3.412,-14.703 0.767,-21.197 L 110.72,266.154 H 362.445 Z M 375.573,245.757 H 123.847 L 231.385,78.66 h 251.726 z"
   id="path435" />
	<path
   style="fill:#4d3d36"
   d="m 352.668,433.34 h -38.449 c -5.633,0 -10.198,4.566 -10.198,10.198 0,5.633 4.566,10.198 10.198,10.198 h 38.449 c 5.633,0 10.198,-4.566 10.198,-10.198 0,-5.632 -4.566,-10.198 -10.198,-10.198 z"
   id="path437" />
	<path
   style="fill:#4d3d36"
   d="m 413.253,433.34 h -17.477 c -5.633,0 -10.198,4.566 -10.198,10.198 0,5.633 4.566,10.198 10.198,10.198 h 17.477 c 5.633,0 10.198,-4.566 10.198,-10.198 10e-4,-5.632 -4.565,-10.198 -10.198,-10.198 z"
   id="path439" />
	<path
   style="fill:#4d3d36"
   d="m 462.917,433.34 h -6.553 c -5.633,0 -10.198,4.566 -10.198,10.198 0,5.633 4.566,10.198 10.198,10.198 h 6.553 c 5.633,0 10.198,-4.566 10.198,-10.198 0,-5.632 -4.566,-10.198 -10.198,-10.198 z"
   id="path441" />
	<path
   style="fill:#4d3d36"
   d="m 110.958,315.734 c 1.73,1.14 3.678,1.685 5.605,1.685 3.313,0 6.564,-1.612 8.524,-4.585 l 3.073,-4.661 c 3.1,-4.702 1.802,-11.028 -2.9,-14.129 -4.702,-3.099 -11.028,-1.802 -14.129,2.9 l -3.073,4.661 c -3.101,4.704 -1.803,11.029 2.9,14.129 z"
   id="path443" />
	<path
   style="fill:#4d3d36"
   d="m 101.443,330.164 c -4.701,-3.101 -11.028,-1.802 -14.128,2.9 l -46.093,69.907 c -3.1,4.702 -1.802,11.028 2.9,14.128 1.729,1.14 3.677,1.685 5.604,1.685 3.313,0 6.564,-1.612 8.524,-4.586 l 46.093,-69.907 c 3.101,-4.701 1.803,-11.027 -2.9,-14.127 z"
   id="path445" />
</g></g><g
   style="fill:#000000"
   id="g482"
   transform="matrix(0.24473367,0,0,0.18664874,785.83738,8.7095967)"><g
     id="g471">
	<g
   id="g469">
		<path
   d="M 377.314,27.704 C 360.761,0.494 325.283,-8.145 298.076,8.41 l -52.561,31.977 -3.607,-5.932 C 231.424,17.226 208.961,11.755 191.729,22.237 174.5,32.72 169.032,55.184 179.512,72.415 l 7.162,11.771 -126.36,77.466 c -11.612,7.065 -30.483,32.364 -35.989,39.95 -2.97,4.09 -3.191,9.563 -0.565,13.881 l 24.784,40.738 c 2.627,4.317 7.591,6.637 12.587,5.88 9.269,-1.402 40.41,-6.529 52.024,-13.596 l 126.357,-77.467 7.161,11.771 c 10.481,17.229 32.946,22.7 50.178,12.217 17.229,-10.481 22.699,-32.946 12.217,-50.177 l -3.607,-5.93 52.561,-31.978 c 27.207,-16.552 35.846,-52.029 19.292,-79.237 z m -277.19,199.38 -0.694,-59.882 85.469,-52.59 c 0.715,8.641 3.392,17.25 8.204,25.161 4.812,7.911 11.229,14.245 18.571,18.853 z"
   id="path465" />
		<path
   d="m 52.666,276.584 c -1.823,-1.458 -4.413,-1.459 -6.238,-0.003 -1.683,1.341 -41.198,33.239 -41.198,66.973 0,27.909 18.223,47.4 44.314,47.4 26.836,0 46.314,-19.936 46.314,-47.4 10e-4,-32.082 -41.428,-65.559 -43.192,-66.97 z m 2.916,101.818 c -0.414,0.104 -0.829,0.155 -1.237,0.155 -2.231,0 -4.266,-1.506 -4.842,-3.769 -0.68,-2.672 0.931,-5.389 3.6,-6.075 0.915,-0.241 20.916,-5.754 20.913,-25.823 0,-2.762 2.237,-5 4.999,-5.001 2.762,0 5.001,2.238 5.001,4.999 0.004,22.366 -18.599,33.01 -28.434,35.514 z"
   id="path467" />
	</g>
</g></g><g
   style="fill:#000000"
   id="g492"
   transform="matrix(0.130116,0,0,0.12075099,6.3261235,-4.5750548)"><path
     d="m 611.608,334.751 c -0.826,-4.408 -3.857,-8.265 -8.265,-9.918 L 18.996,90.929 C 13.761,89 7.975,90.102 4.118,93.959 0.261,97.816 -0.841,103.602 1.087,108.836 L 234.991,693.46 c 1.653,4.132 5.51,7.439 9.918,8.265 0.827,0.275 1.929,0.275 2.755,0.275 3.582,0 6.888,-1.378 9.367,-3.858 L 383.765,571.41 490.661,678.306 c 5.51,5.51 14.051,5.51 19.561,0 l 77.968,-77.968 c 2.755,-2.48 4.133,-6.061 4.133,-9.643 0,-3.582 -1.653,-7.163 -4.133,-9.643 L 481.018,473.881 607.75,347.149 c 3.307,-3.031 4.684,-7.99 3.858,-12.398 z M 452.09,464.24 c -2.755,2.48 -4.133,6.061 -4.133,9.643 0,3.582 1.653,7.163 4.133,9.643 L 559.262,590.973 500.855,649.38 393.683,542.208 c -5.51,-5.51 -14.051,-5.51 -19.561,0 L 252.624,663.706 38.557,128.399 573.588,342.742 Z M 103.025,189.01 c 3.582,-1.378 7.439,0.276 9.092,3.857 l 153.181,382.677 c 1.378,3.582 -0.275,7.439 -3.857,9.092 -1.102,0.275 -1.929,0.55 -2.755,0.55 -2.755,0 -5.235,-1.653 -6.337,-4.408 L 99.168,198.102 c -1.378,-3.582 0.275,-7.439 3.857,-9.092 z"
     id="path484" /></g><g
   aria-label="Akıllı Seçim"
   transform="scale(0.71083891,1.4067885)"
   id="text496-7"
   style="font-weight:bold;font-size:21.0284px;-inkscape-font-specification:'sans-serif, Bold';stroke-width:0.015429"><path
     d="m 144.17082,78.856979 -1.09348,-3.574828 h -5.46738 l -1.09348,3.574828 h -3.42763 l 5.29916,-15.077363 h 3.89025 l 5.32019,15.077363 z m -2.94398,-9.736149 q -0.10514,-0.357483 -0.27337,-0.904221 -0.16822,-0.546739 -0.33645,-1.114505 -0.16823,-0.567767 -0.27337,-0.988335 -0.10514,0.420568 -0.2944,1.05142 -0.16822,0.609823 -0.33645,1.17759 -0.1472,0.546739 -0.23131,0.778051 l -1.07245,3.490714 h 3.91128 z"
     id="path350" /><path
     d="m 152.37191,70.025051 q 0,0.651881 -0.0631,1.303761 -0.0421,0.630852 -0.10514,1.282732 h 0.0421 q 0.31542,-0.441596 0.65188,-0.883192 0.33645,-0.462625 0.71496,-0.862165 l 3.21735,-3.490714 h 3.53277 l -4.56316,4.983731 4.83653,6.497775 h -3.61689 l -3.30146,-4.647276 -1.34581,1.072448 v 3.574828 h -3.13324 V 62.875395 h 3.13324 z"
     id="path352" /><path
     d="M 165.40953,78.856979 H 162.2763 V 67.375473 h 3.13323 z"
     id="path354" /><path
     d="m 171.8232,78.856979 h -3.13323 V 62.875395 h 3.13323 z"
     id="path356" /><path
     d="m 178.23687,78.856979 h -3.13323 V 62.875395 h 3.13323 z"
     id="path358" /><path
     d="m 184.65054,78.856979 h -3.13323 V 67.375473 h 3.13323 z"
     id="path360" /><path
     d="m 202.50366,74.693356 q 0,1.997698 -1.45096,3.196317 -1.42993,1.17759 -4.07951,1.17759 -2.37621,0 -4.24774,-0.904221 v -2.965004 q 1.07245,0.462625 2.20799,0.862164 1.15656,0.378511 2.29209,0.378511 1.17759,0 1.66125,-0.441596 0.50468,-0.462625 0.50468,-1.156562 0,-0.567767 -0.39954,-0.967307 -0.37851,-0.399539 -1.03039,-0.735994 -0.65188,-0.357482 -1.49302,-0.757022 -0.52571,-0.252341 -1.13553,-0.588795 -0.60983,-0.357483 -1.17759,-0.862165 -0.54674,-0.52571 -0.90423,-1.261704 -0.35748,-0.735994 -0.35748,-1.766385 0,-2.018727 1.36685,-3.133232 1.36684,-1.135534 3.72202,-1.135534 1.1776,0 2.22902,0.27337 1.07244,0.273369 2.22901,0.77805 l -1.0304,2.481352 q -1.03039,-0.420568 -1.8505,-0.651881 -0.8201,-0.231312 -1.68227,-0.231312 -0.90422,0 -1.38787,0.420568 -0.48365,0.420568 -0.48365,1.093477 0,0.799079 0.71496,1.261704 0.71497,0.462625 2.12387,1.135533 1.15656,0.546739 1.95564,1.135534 0.82011,0.588795 1.2617,1.387874 0.4416,0.79908 0.4416,1.97667 z"
     id="path362" /><path
     d="m 209.71642,67.165189 q 2.37621,0 3.76408,1.366846 1.38787,1.345817 1.38787,3.848197 v 1.514045 h -7.40199 q 0.0421,1.324789 0.77805,2.081812 0.75702,0.757022 2.08181,0.757022 1.1145,0 2.01873,-0.210284 0.90422,-0.231312 1.87152,-0.693937 v 2.418266 q -0.84113,0.420568 -1.78741,0.609823 -0.92525,0.210284 -2.25004,0.210284 -1.72433,0 -3.04912,-0.630852 -1.32479,-0.65188 -2.08181,-1.955641 -0.75702,-1.303761 -0.75702,-3.28043 0,-2.018727 0.67291,-3.343516 0.69393,-1.345818 1.91358,-2.018726 1.21965,-0.672909 2.83884,-0.672909 z m 0.021,2.22901 q -0.90422,0 -1.51404,0.588795 -0.5888,0.588796 -0.69394,1.829471 h 4.39494 q -0.021,-1.05142 -0.54674,-1.724329 -0.52571,-0.693937 -1.64022,-0.693937 z"
     id="path364" /><path
     d="m 222.0811,79.067263 q -2.56546,0 -3.97436,-1.408902 -1.38788,-1.429932 -1.38788,-4.47905 0,-2.10284 0.71497,-3.427629 0.71496,-1.324789 1.97667,-1.955641 1.28273,-0.630852 2.94397,-0.630852 1.17759,0 2.03976,0.231312 0.88319,0.231313 1.53507,0.546739 l -0.92525,2.418266 q -0.73599,-0.294398 -1.38787,-0.483654 -0.63086,-0.189255 -1.26171,-0.189255 -2.43929,0 -2.43929,3.469686 0,1.724329 0.63085,2.544436 0.65188,0.820108 1.80844,0.820108 0.98834,0 1.74536,-0.252341 0.75702,-0.273369 1.47199,-0.735994 v 2.670607 q -0.71497,0.462625 -1.51405,0.65188 -0.77805,0.210284 -1.97667,0.210284 z m 2.25004,2.355181 q 0,1.177591 -0.69394,1.829471 -0.6729,0.65188 -2.48135,0.65188 -0.46262,0 -0.84113,-0.06309 -0.35749,-0.06309 -0.65188,-0.147199 v -1.724328 q 0.29439,0.08411 0.71496,0.147198 0.4416,0.06309 0.75703,0.06309 0.29439,0 0.50468,-0.147199 0.23131,-0.126171 0.23131,-0.483653 0,-0.378512 -0.37851,-0.672909 -0.37851,-0.294398 -1.32479,-0.441597 l 0.79908,-1.57713 h 1.97667 l -0.27337,0.630852 q 0.63085,0.210284 1.13553,0.672909 0.52571,0.483653 0.52571,1.261704 z"
     id="path366" /><path
     d="m 229.79853,62.875395 q 0.69394,0 1.19862,0.336454 0.50468,0.315426 0.50468,1.198619 0,0.862165 -0.50468,1.198619 -0.50468,0.336455 -1.19862,0.336455 -0.71497,0 -1.21965,-0.336455 -0.48365,-0.336454 -0.48365,-1.198619 0,-0.883193 0.48365,-1.198619 0.50468,-0.336454 1.21965,-0.336454 z m 1.5561,4.500078 V 78.856979 H 228.2214 V 67.375473 Z"
     id="path368" /><path
     d="m 248.11427,67.165189 q 1.95564,0 2.94398,1.009363 1.00936,0.988335 1.00936,3.196317 v 7.48611 h -3.13323 V 72.14892 q 0,-2.481352 -1.72433,-2.481352 -1.24068,0 -1.76639,0.883193 -0.52571,0.883193 -0.52571,2.544437 v 5.761781 h -3.13323 V 72.14892 q 0,-2.481352 -1.72433,-2.481352 -1.30376,0 -1.80844,0.988335 -0.48365,0.967307 -0.48365,2.796777 v 5.404299 h -3.13323 V 67.375473 h 2.39723 l 0.42057,1.471988 h 0.16823 q 0.52571,-0.883193 1.42993,-1.282733 0.92525,-0.399539 1.91358,-0.399539 1.26171,0 2.1449,0.420568 0.88319,0.399539 1.34582,1.261704 h 0.27337 q 0.52571,-0.883193 1.45096,-1.282733 0.94628,-0.399539 1.93461,-0.399539 z"
     id="path370" /></g><g
   aria-label="Kırp"
   transform="scale(0.71083891,1.4067885)"
   id="text496-7-6"
   style="font-weight:bold;font-size:21.0284px;-inkscape-font-specification:'sans-serif, Bold';stroke-width:0.015429"><path
     d="m 310.47931,77.436539 h -3.61689 l -3.93231,-6.329549 -1.34582,0.967307 v 5.362242 h -3.17528 V 62.422261 h 3.17528 v 6.876287 q 0.31543,-0.441597 0.63086,-0.883193 0.31542,-0.441596 0.63085,-0.883193 l 4.05848,-5.109901 h 3.53277 l -5.23607,6.644974 z"
     id="path380" /><path
     d="m 315.25274,77.436539 h -3.13323 V 65.955032 h 3.13323 z"
     id="path382" /><path
     d="m 324.94684,65.744748 q 0.23132,0 0.54674,0.02103 0.31543,0.02103 0.50468,0.06309 l -0.23131,2.943976 q -0.1472,-0.04206 -0.44159,-0.06308 -0.27337,-0.04206 -0.48366,-0.04206 -0.79908,0 -1.53507,0.294397 -0.73599,0.27337 -1.19862,0.904222 -0.4416,0.630852 -0.4416,1.724328 v 5.845896 h -3.13323 V 65.955032 h 2.37621 l 0.46263,1.934613 h 0.1472 q 0.50468,-0.883193 1.38787,-1.514045 0.88319,-0.630852 2.03975,-0.630852 z"
     id="path384" /><path
     d="m 334.47272,65.744748 q 1.93461,0 3.13323,1.514045 1.19862,1.493016 1.19862,4.415964 0,2.922948 -1.24068,4.458021 -1.24067,1.514045 -3.17529,1.514045 -1.24067,0 -1.97667,-0.441597 -0.73599,-0.462625 -1.19861,-1.030391 h -0.16823 q 0.16823,0.883192 0.16823,1.682272 v 4.626248 h -3.13324 V 65.955032 h 2.54444 l 0.4416,1.493016 h 0.1472 q 0.46262,-0.693937 1.24067,-1.198618 0.77805,-0.504682 2.01873,-0.504682 z m -1.00937,2.50238 q -1.21964,0 -1.72432,0.757022 -0.48366,0.757023 -0.52571,2.313124 v 0.336455 q 0,1.661243 0.48365,2.565464 0.50468,0.883193 1.80844,0.883193 1.07245,0 1.57713,-0.883193 0.52571,-0.904221 0.52571,-2.586493 0,-3.385572 -2.1449,-3.385572 z"
     id="path386" /></g><text
   xml:space="preserve"
   style="font-weight:bold;font-size:21.0284px;font-family:sans-serif;-inkscape-font-specification:'sans-serif, Bold';fill:#000000;stroke-width:0.015429"
   x="450.18033"
   y="77.899849"
   id="text496-7-6-9"
   transform="scale(0.71083891,1.4067885)"><tspan
     sodipodi:role="line"
     id="tspan494-5-2-1"
     style="stroke-width:0.015429"
     x="450.18033"
     y="77.899849">Klon</tspan></text><text
   xml:space="preserve"
   style="font-weight:bold;font-size:21.0284px;font-family:sans-serif;-inkscape-font-specification:'sans-serif, Bold';fill:#000000;stroke-width:0.015429"
   x="614.3075"
   y="79.705368"
   id="text496-7-6-9-2"
   transform="scale(0.71083891,1.4067885)"><tspan
     sodipodi:role="line"
     id="tspan494-5-2-1-7"
     style="stroke-width:0.015429"
     x="614.3075"
     y="79.705368">Silgi</tspan></text><g
   aria-label="Yazı Ekle"
   transform="scale(0.71083891,1.4067885)"
   id="text496-7-6-9-0"
   style="font-weight:bold;font-size:21.0284px;-inkscape-font-specification:'sans-serif, Bold';stroke-width:0.015429"><path
     d="m 799.40577,69.89761 3.13323,-6.18235 h 3.42763 l -4.98373,9.168383 v 5.845895 h -3.15426 v -5.740753 l -4.98373,-9.273525 h 3.44866 z"
     id="path389" /><path
     d="m 811.26582,67.016719 q 2.31312,0 3.53277,1.009363 1.24067,0.988335 1.24067,3.049118 v 7.654338 h -2.18695 l -0.60982,-1.556102 h -0.0841 q -0.73599,0.92525 -1.5561,1.345818 -0.82011,0.420568 -2.25004,0.420568 -1.53507,0 -2.54443,-0.883193 -1.00937,-0.904221 -1.00937,-2.75472 0,-1.829471 1.28273,-2.691636 1.28274,-0.883192 3.8482,-0.967306 l 1.9977,-0.06309 V 71.0752 q 0,-0.904221 -0.48365,-1.324789 -0.46263,-0.420568 -1.30376,-0.420568 -0.84114,0 -1.64022,0.252341 -0.79908,0.231312 -1.59816,0.588795 l -1.03039,-2.123868 q 0.92525,-0.483654 2.03976,-0.757023 1.13553,-0.273369 2.35518,-0.273369 z m 0.44159,6.43469 q -1.51404,0.04206 -2.10284,0.546739 -0.58879,0.504681 -0.58879,1.324789 0,0.714966 0.42057,1.030392 0.42056,0.294397 1.09347,0.294397 1.00937,0 1.7033,-0.588795 0.69394,-0.609824 0.69394,-1.7033 v -0.946278 z"
     id="path391" /><path
     d="m 827.2474,78.729538 h -9.06324 v -1.850499 l 5.32019,-7.23377 h -5.00476 v -2.397238 h 8.55856 v 2.039755 l -5.17299,7.044514 h 5.36224 z"
     id="path393" /><path
     d="m 832.65172,78.729538 h -3.13323 V 67.248031 h 3.13323 z"
     id="path395" /><path
     d="m 850.29456,78.729538 h -8.64267 V 63.71526 h 8.64267 v 2.607522 h -5.46738 v 3.301459 h 5.08887 v 2.607521 h -5.08887 v 3.869226 h 5.46738 z"
     id="path397" /><path
     d="m 856.30867,69.89761 q 0,0.65188 -0.0631,1.303761 -0.0421,0.630852 -0.10515,1.282732 h 0.0421 q 0.31543,-0.441596 0.65188,-0.883193 0.33646,-0.462625 0.71497,-0.862164 l 3.21734,-3.490715 h 3.53277 l -4.56316,4.983731 4.83653,6.497776 h -3.61688 l -3.30146,-4.647277 -1.34582,1.072449 v 3.574828 h -3.13323 V 62.747954 h 3.13323 z"
     id="path399" /><path
     d="m 869.3463,78.729538 h -3.13323 V 62.747954 h 3.13323 z"
     id="path401" /><path
     d="m 877.35812,67.037747 q 2.37621,0 3.76409,1.366846 1.38787,1.345818 1.38787,3.848198 v 1.514044 h -7.40199 q 0.0421,1.32479 0.77805,2.081812 0.75702,0.757023 2.08181,0.757023 1.1145,0 2.01872,-0.210284 0.90423,-0.231313 1.87153,-0.693938 v 2.418266 q -0.84113,0.420568 -1.78741,0.609824 -0.92525,0.210284 -2.25004,0.210284 -1.72433,0 -3.04912,-0.630852 -1.32479,-0.65188 -2.08181,-1.955641 -0.75702,-1.303761 -0.75702,-3.280431 0,-2.018726 0.67291,-3.343515 0.69393,-1.345818 1.91358,-2.018727 1.21965,-0.672909 2.83883,-0.672909 z m 0.021,2.229011 q -0.90422,0 -1.51404,0.588795 -0.5888,0.588795 -0.69394,1.829471 h 4.39494 q -0.021,-1.05142 -0.54674,-1.724329 -0.52571,-0.693937 -1.64022,-0.693937 z"
     id="path403" /></g><text
   xml:space="preserve"
   style="font-weight:bold;font-size:21.0284px;font-family:sans-serif;-inkscape-font-specification:'sans-serif, Bold';fill:#000000;stroke-width:0.015429"
   x="947.11444"
   y="77.140991"
   id="text496-7-6-9-3"
   transform="scale(0.71083891,1.4067885)"><tspan
     sodipodi:role="line"
     id="tspan494-5-2-1-6"
     style="stroke-width:0.015429"
     x="947.11444"
     y="77.140991">Zemin Rengi</tspan></text><g
   aria-label="Renk Seçici"
   transform="scale(0.71083891,1.4067885)"
   id="text496-7-6-9-06"
   style="font-weight:bold;font-size:21.0284px;-inkscape-font-specification:'sans-serif, Bold';stroke-width:0.015429"><path
     d="m 1126.8716,63.499127 q 3.0701,0 4.5211,1.114505 1.472,1.114505 1.472,3.385573 0,1.030391 -0.3996,1.808442 -0.3785,0.757022 -1.0304,1.303761 -0.6308,0.52571 -1.3668,0.862164 l 4.4159,6.539833 h -3.5327 l -3.5749,-5.761782 h -1.7033 v 5.761782 h -3.1752 V 63.499127 Z m -0.2313,2.607522 h -0.9674 v 4.058481 h 1.0304 q 1.5772,0 2.2501,-0.52571 0.6939,-0.52571 0.6939,-1.556102 0,-1.072448 -0.736,-1.514045 -0.7149,-0.462624 -2.271,-0.462624 z"
     id="path406" /><path
     d="m 1140.8554,66.821614 q 2.3763,0 3.7641,1.366846 1.3879,1.345818 1.3879,3.848198 v 1.514044 h -7.402 q 0.042,1.32479 0.7781,2.081812 0.757,0.757022 2.0818,0.757022 1.1145,0 2.0187,-0.210284 0.9042,-0.231312 1.8715,-0.693937 v 2.418266 q -0.8411,0.420568 -1.7874,0.609824 -0.9252,0.210284 -2.25,0.210284 -1.7244,0 -3.0491,-0.630852 -1.3248,-0.651881 -2.0819,-1.955641 -0.757,-1.303761 -0.757,-3.280431 0,-2.018726 0.6729,-3.343516 0.694,-1.345817 1.9136,-2.018726 1.2197,-0.672909 2.8388,-0.672909 z m 0.021,2.229011 q -0.9042,0 -1.5141,0.588795 -0.5888,0.588795 -0.6939,1.829471 h 4.3949 q -0.021,-1.05142 -0.5467,-1.724329 -0.5257,-0.693937 -1.6402,-0.693937 z"
     id="path408" /><path
     d="m 1155.0706,66.821614 q 1.8505,0 2.965,1.009363 1.1146,0.988335 1.1146,3.196317 v 7.486111 h -3.1333 v -6.70806 q 0,-1.240676 -0.4416,-1.850499 -0.4416,-0.630852 -1.4089,-0.630852 -1.4299,0 -1.9556,0.988335 -0.5257,0.967306 -0.5257,2.796777 v 5.404299 h -3.1333 V 67.031898 h 2.3973 l 0.4205,1.471988 h 0.1683 q 0.5467,-0.883193 1.493,-1.282732 0.9673,-0.39954 2.0397,-0.39954 z"
     id="path410" /><path
     d="m 1165.5007,69.681477 q 0,0.65188 -0.063,1.30376 -0.042,0.630853 -0.1051,1.282733 h 0.042 q 0.3155,-0.441596 0.6519,-0.883193 0.3365,-0.462625 0.715,-0.862164 l 3.2173,-3.490715 h 3.5328 l -4.5632,4.983731 4.8366,6.497776 h -3.6169 l -3.3015,-4.647277 -1.3458,1.072449 v 3.574828 h -3.1332 V 62.531821 h 3.1332 z"
     id="path412" /><path
     d="m 1189.9778,74.349782 q 0,1.997698 -1.451,3.196316 -1.4299,1.177591 -4.0795,1.177591 -2.3762,0 -4.2477,-0.904221 v -2.965005 q 1.0724,0.462625 2.208,0.862165 1.1565,0.378511 2.2921,0.378511 1.1776,0 1.6612,-0.441597 0.5047,-0.462624 0.5047,-1.156562 0,-0.567766 -0.3995,-0.967306 -0.3786,-0.39954 -1.0304,-0.735994 -0.6519,-0.357483 -1.4931,-0.757022 -0.5257,-0.252341 -1.1355,-0.588796 -0.6098,-0.357483 -1.1776,-0.862164 -0.5467,-0.52571 -0.9042,-1.261704 -0.3575,-0.735994 -0.3575,-1.766386 0,-2.018726 1.3669,-3.133231 1.3668,-1.135534 3.722,-1.135534 1.1776,0 2.229,0.273369 1.0724,0.273369 2.229,0.778051 l -1.0304,2.481351 q -1.0304,-0.420568 -1.8505,-0.65188 -0.8201,-0.231313 -1.6823,-0.231313 -0.9042,0 -1.3878,0.420568 -0.4837,0.420568 -0.4837,1.093477 0,0.799079 0.715,1.261704 0.715,0.462625 2.1239,1.135534 1.1565,0.546738 1.9556,1.135533 0.8201,0.588796 1.2617,1.387875 0.4416,0.799079 0.4416,1.97667 z"
     id="path414" /><path
     d="m 1197.1906,66.821614 q 2.3762,0 3.764,1.366846 1.3879,1.345818 1.3879,3.848198 v 1.514044 h -7.402 q 0.042,1.32479 0.7781,2.081812 0.757,0.757022 2.0818,0.757022 1.1145,0 2.0187,-0.210284 0.9042,-0.231312 1.8715,-0.693937 v 2.418266 q -0.8411,0.420568 -1.7874,0.609824 -0.9252,0.210284 -2.25,0.210284 -1.7244,0 -3.0491,-0.630852 -1.3248,-0.651881 -2.0819,-1.955641 -0.757,-1.303761 -0.757,-3.280431 0,-2.018726 0.6729,-3.343516 0.694,-1.345817 1.9136,-2.018726 1.2197,-0.672909 2.8389,-0.672909 z m 0.021,2.229011 q -0.9042,0 -1.5141,0.588795 -0.5888,0.588795 -0.6939,1.829471 h 4.3949 q -0.021,-1.05142 -0.5467,-1.724329 -0.5257,-0.693937 -1.6402,-0.693937 z"
     id="path416" /><path
     d="m 1209.5552,78.723689 q -2.5654,0 -3.9743,-1.408903 -1.3879,-1.429931 -1.3879,-4.479049 0,-2.10284 0.715,-3.42763 0.7149,-1.324789 1.9766,-1.955641 1.2828,-0.630852 2.944,-0.630852 1.1776,0 2.0398,0.231313 0.8832,0.231312 1.535,0.546738 l -0.9252,2.418266 q -0.736,-0.294398 -1.3879,-0.483653 -0.6308,-0.189256 -1.2617,-0.189256 -2.4393,0 -2.4393,3.469686 0,1.724329 0.6309,2.544437 0.6518,0.820107 1.8084,0.820107 0.9883,0 1.7454,-0.25234 0.757,-0.27337 1.472,-0.735994 v 2.670606 q -0.715,0.462625 -1.5141,0.651881 -0.778,0.210284 -1.9767,0.210284 z m 2.2501,2.355181 q 0,1.17759 -0.694,1.829471 -0.6729,0.65188 -2.4813,0.65188 -0.4626,0 -0.8411,-0.06309 -0.3575,-0.06309 -0.6519,-0.147199 v -1.724329 q 0.2944,0.08411 0.7149,0.147199 0.4416,0.06309 0.7571,0.06309 0.2944,0 0.5046,-0.147199 0.2314,-0.12617 0.2314,-0.483653 0,-0.378511 -0.3786,-0.672909 -0.3785,-0.294397 -1.3247,-0.441596 l 0.799,-1.57713 h 1.9767 l -0.2734,0.630852 q 0.6309,0.210284 1.1356,0.672909 0.5257,0.483653 0.5257,1.261704 z"
     id="path418" /><path
     d="m 1217.2727,62.531821 q 0.6939,0 1.1986,0.336454 0.5047,0.315426 0.5047,1.198619 0,0.862164 -0.5047,1.198619 -0.5047,0.336454 -1.1986,0.336454 -0.715,0 -1.2197,-0.336454 -0.4836,-0.336455 -0.4836,-1.198619 0,-0.883193 0.4836,-1.198619 0.5047,-0.336454 1.2197,-0.336454 z m 1.5561,4.500077 v 11.481507 h -3.1333 V 67.031898 Z"
     id="path420" /><path
     d="m 1226.7775,78.723689 q -2.5655,0 -3.9744,-1.408903 -1.3878,-1.429931 -1.3878,-4.479049 0,-2.10284 0.7149,-3.42763 0.715,-1.324789 1.9767,-1.955641 1.2827,-0.630852 2.944,-0.630852 1.1776,0 2.0397,0.231313 0.8832,0.231312 1.5351,0.546738 l -0.9252,2.418266 q -0.736,-0.294398 -1.3879,-0.483653 -0.6309,-0.189256 -1.2617,-0.189256 -2.4393,0 -2.4393,3.469686 0,1.724329 0.6308,2.544437 0.6519,0.820107 1.8085,0.820107 0.9883,0 1.7453,-0.25234 0.7571,-0.27337 1.472,-0.735994 v 2.670606 q -0.7149,0.462625 -1.514,0.651881 -0.7781,0.210284 -1.9767,0.210284 z"
     id="path422" /><path
     d="m 1234.4949,62.531821 q 0.694,0 1.1987,0.336454 0.5046,0.315426 0.5046,1.198619 0,0.862164 -0.5046,1.198619 -0.5047,0.336454 -1.1987,0.336454 -0.7149,0 -1.2196,-0.336454 -0.4837,-0.336455 -0.4837,-1.198619 0,-0.883193 0.4837,-1.198619 0.5047,-0.336454 1.2196,-0.336454 z m 1.5561,4.500077 v 11.481507 h -3.1332 V 67.031898 Z"
     id="path424" /></g><g
   aria-label="Seç"
   transform="scale(0.71083891,1.4067885)"
   id="text496-7-3"
   style="font-weight:bold;font-size:21.0284px;-inkscape-font-specification:'sans-serif, Bold';stroke-width:0.015429"><path
     d="m 52.303435,77.360219 q 0,1.997698 -1.45096,3.196316 -1.429931,1.177591 -4.079509,1.177591 -2.37621,0 -4.247737,-0.904221 V 77.8649 q 1.072448,0.462625 2.207982,0.862165 1.156562,0.378511 2.292095,0.378511 1.177591,0 1.661244,-0.441597 0.504682,-0.462624 0.504682,-1.156562 0,-0.567766 -0.39954,-0.967306 -0.378511,-0.39954 -1.030392,-0.735994 -0.65188,-0.357483 -1.493016,-0.757022 -0.52571,-0.252341 -1.135534,-0.588796 -0.609823,-0.357482 -1.17759,-0.862164 -0.546738,-0.52571 -0.904221,-1.261704 -0.357483,-0.735994 -0.357483,-1.766386 0,-2.018726 1.366846,-3.133231 1.366846,-1.135534 3.722027,-1.135534 1.17759,0 2.22901,0.273369 1.072449,0.273369 2.229011,0.778051 l -1.030392,2.481351 q -1.030391,-0.420568 -1.850499,-0.65188 -0.820108,-0.231313 -1.682272,-0.231313 -0.904221,0 -1.387875,0.420568 -0.483653,0.420568 -0.483653,1.093477 0,0.799079 0.714966,1.261704 0.714965,0.462625 2.123868,1.135534 1.156562,0.546738 1.955642,1.135534 0.820107,0.588795 1.261704,1.387874 0.441596,0.799079 0.441596,1.97667 z"
     id="path373" /><path
     d="m 59.516189,69.832051 q 2.376209,0 3.764084,1.366846 1.387874,1.345818 1.387874,3.848198 v 1.514044 H 57.26615 q 0.04206,1.32479 0.778051,2.081812 0.757022,0.757022 2.081812,0.757022 1.114505,0 2.018726,-0.210284 0.904221,-0.231312 1.871528,-0.693937 v 2.418266 q -0.841136,0.420568 -1.787414,0.609824 -0.92525,0.210284 -2.250039,0.210284 -1.724329,0 -3.049118,-0.630852 -1.324789,-0.651881 -2.081812,-1.955641 -0.757022,-1.303761 -0.757022,-3.280431 0,-2.018726 0.672909,-3.343516 0.693937,-1.345817 1.913584,-2.018726 1.219647,-0.672909 2.838834,-0.672909 z m 0.02103,2.229011 q -0.904221,0 -1.514044,0.588795 -0.588796,0.588795 -0.693938,1.829471 h 4.394936 q -0.02103,-1.05142 -0.546738,-1.724329 -0.52571,-0.693937 -1.640216,-0.693937 z"
     id="path375" /><path
     d="m 71.880881,81.734126 q -2.565465,0 -3.974368,-1.408903 -1.387874,-1.429931 -1.387874,-4.479049 0,-2.10284 0.714966,-3.42763 0.714965,-1.324789 1.976669,-1.955641 1.282733,-0.630852 2.943976,-0.630852 1.177591,0 2.039755,0.231313 0.883193,0.231312 1.535073,0.546738 l -0.925249,2.418266 q -0.735994,-0.294398 -1.387875,-0.483653 -0.630852,-0.189256 -1.261704,-0.189256 -2.439294,0 -2.439294,3.469686 0,1.724329 0.630852,2.544437 0.65188,0.820107 1.808442,0.820107 0.988335,0 1.745358,-0.25234 0.757022,-0.27337 1.471988,-0.735994 v 2.670606 q -0.714966,0.462625 -1.514045,0.651881 -0.778051,0.210284 -1.97667,0.210284 z m 2.250039,2.355181 q 0,1.17759 -0.693937,1.829471 -0.672909,0.65188 -2.481351,0.65188 -0.462625,0 -0.841137,-0.06309 -0.357482,-0.06308 -0.65188,-0.147199 v -1.724329 q 0.294398,0.08411 0.714966,0.147199 0.441596,0.06309 0.757022,0.06309 0.294398,0 0.504682,-0.147199 0.231312,-0.12617 0.231312,-0.483653 0,-0.378511 -0.378511,-0.672909 -0.378511,-0.294397 -1.324789,-0.441596 l 0.799079,-1.57713 h 1.97667 l -0.27337,0.630852 q 0.630852,0.210284 1.135534,0.672909 0.52571,0.483653 0.52571,1.261704 z"
     id="path377" /></g></svg>
