<?xml version="1.0" encoding="UTF-8" standalone="no"?>
<!-- Uploaded to: SVG Repo, www.svgrepo.com, Generator: SVG Repo Mixer Tools -->

<svg
   version="1.1"
   id="Layer_1"
   viewBox="0 0 227.93372 172.08734"
   xml:space="preserve"
   width="461.88092"
   height="348.71478"
   sodipodi:docname="color-palette-svgrepo-com.svg"
   inkscape:version="1.2.2 (b0a8486541, 2022-12-01)"
   xmlns:inkscape="http://www.inkscape.org/namespaces/inkscape"
   xmlns:sodipodi="http://sodipodi.sourceforge.net/DTD/sodipodi-0.dtd"
   xmlns="http://www.w3.org/2000/svg"
   xmlns:svg="http://www.w3.org/2000/svg"><defs
   id="defs21" /><sodipodi:namedview
   id="namedview19"
   pagecolor="#ffffff"
   bordercolor="#000000"
   borderopacity="0.25"
   inkscape:showpageshadow="2"
   inkscape:pageopacity="0.0"
   inkscape:pagecheckerboard="0"
   inkscape:deskcolor="#d1d1d1"
   showgrid="false"
   inkscape:zoom="1.0527344"
   inkscape:cx="380.9128"
   inkscape:cy="181.43228"
   inkscape:window-width="1366"
   inkscape:window-height="675"
   inkscape:window-x="0"
   inkscape:window-y="0"
   inkscape:window-maximized="1"
   inkscape:current-layer="Layer_1" />
<g
   id="g16"
   transform="matrix(0.64491361,0,0,0.67403276,27.132359,1.7821798)">
	<circle
   style="fill:#2b8a9a"
   cx="126.333"
   cy="126.333"
   r="126.333"
   id="circle2" />
	<g
   id="g14">
		<path
   style="fill:#1c7287"
   d="m 215.664,37.002 c -49.336,-49.336 -129.326,-49.336 -178.662,0 l 89.331,89.331 z"
   id="path4" />
		<path
   style="fill:#165c6c"
   d="M 126.334,0 C 94.002,0 61.67,12.334 37.002,37.002 l 89.331,89.331 z"
   id="path6" />
		<path
   style="fill:#f8b242"
   d="M 37.002,215.664 C 86.338,265 166.328,265 215.664,215.664 L 126.333,126.333 Z"
   id="path8" />
		<path
   style="fill:#d09838"
   d="m 37.003,215.664 c 24.668,24.668 57.331,37.002 89.331,37.002 V 126.333 Z"
   id="path10" />
		<path
   style="fill:#e45527"
   d="m 215.664,37.002 -89.331,89.331 89.331,89.331 c 49.337,-49.336 49.337,-129.326 0,-178.662 z"
   id="path12" />
	</g>
</g>















<g
   aria-label="Sıcak"
   transform="matrix(0.97899183,0,0,1.021459,-12.39821,-36.833273)"
   id="text365"
   style="font-weight:bold;font-size:17.0894px;-inkscape-font-specification:'sans-serif, Bold';stroke-width:0.610731"><path
     d="m 209.89194,160.74247 q 0,1.6235 -1.17917,2.59759 -1.16208,0.95701 -3.31534,0.95701 -1.93111,0 -3.45206,-0.73485 v -2.4096 q 0.87156,0.37597 1.79439,0.70066 0.93991,0.30761 1.86274,0.30761 0.95701,0 1.35006,-0.35887 0.41015,-0.37597 0.41015,-0.93992 0,-0.46141 -0.3247,-0.78611 -0.30761,-0.3247 -0.83738,-0.59813 -0.52977,-0.29052 -1.21335,-0.61522 -0.42723,-0.20507 -0.92283,-0.4785 -0.49559,-0.29052 -0.957,-0.70067 -0.44433,-0.42723 -0.73485,-1.02536 -0.29052,-0.59813 -0.29052,-1.43551 0,-1.64058 1.11081,-2.54632 1.11082,-0.92283 3.02483,-0.92283 0.957,0 1.81147,0.22216 0.87156,0.22216 1.81148,0.63231 l -0.83738,2.01655 q -0.83738,-0.34179 -1.50387,-0.52977 -0.66648,-0.18799 -1.36715,-0.18799 -0.73484,0 -1.1279,0.34179 -0.39306,0.34179 -0.39306,0.88865 0,0.6494 0.58104,1.02536 0.58104,0.37597 1.72603,0.92283 0.93992,0.44433 1.58932,0.92283 0.66648,0.4785 1.02536,1.1279 0.35888,0.6494 0.35888,1.6064 z"
     id="path461" /><path
     d="m 214.45482,164.12617 h -2.54632 v -9.33081 h 2.54632 z"
     id="path463" /><path
     d="m 220.91462,164.29707 q -2.08491,0 -3.2299,-1.14499 -1.1279,-1.16208 -1.1279,-3.64004 0,-1.70894 0.58104,-2.78557 0.58104,-1.07664 1.6064,-1.58932 1.04246,-0.51268 2.39252,-0.51268 0.95701,0 1.65767,0.18798 0.71776,0.18799 1.24753,0.44433 l -0.75194,1.96528 q -0.59812,-0.23925 -1.1279,-0.39306 -0.51268,-0.1538 -1.02536,-0.1538 -1.98237,0 -1.98237,2.81975 0,1.40133 0.51268,2.06782 0.52977,0.66648 1.46969,0.66648 0.8032,0 1.41842,-0.20507 0.61522,-0.22216 1.19626,-0.59813 v 2.17035 q -0.58104,0.37597 -1.23044,0.52977 -0.63231,0.1709 -1.6064,0.1709 z"
     id="path465" /><path
     d="m 229.73275,154.60738 q 1.87983,0 2.87101,0.82029 1.00828,0.8032 1.00828,2.47796 v 6.22054 h -1.7773 l -0.49559,-1.26461 h -0.0684 q -0.59813,0.75193 -1.26461,1.09372 -0.66649,0.34179 -1.82857,0.34179 -1.24753,0 -2.06782,-0.71776 -0.82029,-0.73484 -0.82029,-2.23871 0,-1.48677 1.04245,-2.18744 1.04246,-0.71776 3.12737,-0.78611 l 1.62349,-0.0513 v -0.41015 q 0,-0.73484 -0.39306,-1.07663 -0.37596,-0.34179 -1.05954,-0.34179 -0.68358,0 -1.33297,0.20508 -0.6494,0.18798 -1.2988,0.4785 l -0.83738,-1.72603 q 0.75193,-0.39306 1.65767,-0.61522 0.92283,-0.22216 1.91402,-0.22216 z m 0.35887,5.22936 q -1.23043,0.0342 -1.70894,0.44432 -0.4785,0.41015 -0.4785,1.07663 0,0.58104 0.34179,0.83738 0.34179,0.23925 0.88865,0.23925 0.82029,0 1.38424,-0.4785 0.56395,-0.49559 0.56395,-1.38424 v -0.76902 z"
     id="path467" /><path
     d="m 238.77304,156.94863 q 0,0.52977 -0.0513,1.05954 -0.0342,0.51268 -0.0854,1.04245 h 0.0342 q 0.25634,-0.35887 0.52977,-0.71775 0.27343,-0.37597 0.58104,-0.70067 l 2.61468,-2.83684 h 2.87102 l -3.7084,4.05019 3.93056,5.28062 h -2.93937 l -2.68304,-3.77675 -1.09372,0.87156 v 2.90519 h -2.54632 v -12.98794 h 2.54632 z"
     id="path469" /></g><g
   aria-label="Soğuk"
   transform="matrix(0.97899182,0,0,1.021459,-9.1168204,-32.145574)"
   id="text365-3"
   style="font-weight:bold;font-size:17.0894px;-inkscape-font-specification:'sans-serif, Bold';stroke-width:0.610731"><path
     d="m 20.610834,45.8517 q 0,1.623493 -1.179169,2.597589 -1.162079,0.957006 -3.315343,0.957006 -1.931102,0 -3.452059,-0.734844 v -2.409605 q 0.87156,0.375966 1.794387,0.700665 0.939917,0.307609 1.862745,0.307609 0.957006,0 1.350062,-0.358877 0.410146,-0.375967 0.410146,-0.939917 0,-0.461414 -0.324699,-0.786112 -0.307609,-0.324699 -0.83738,-0.598129 -0.529772,-0.29052 -1.213348,-0.615219 -0.427235,-0.205073 -0.922827,-0.478503 -0.495593,-0.29052 -0.957007,-0.700665 -0.444324,-0.427235 -0.734844,-1.025364 -0.290519,-0.598129 -0.290519,-1.43551 0,-1.640582 1.11081,-2.54632 1.110811,-0.922828 3.024824,-0.922828 0.957007,0 1.811476,0.222162 0.87156,0.222162 1.811477,0.632308 l -0.837381,2.016549 q -0.83738,-0.341788 -1.503867,-0.529771 -0.666486,-0.187984 -1.367152,-0.187984 -0.734844,0 -1.1279,0.341788 -0.393056,0.341788 -0.393056,0.888649 0,0.649397 0.581039,1.025364 0.58104,0.375967 1.72603,0.922828 0.939916,0.444324 1.589314,0.922827 0.666486,0.478503 1.025364,1.127901 0.358877,0.649397 0.358877,1.606403 z"
     id="path450" /><path
     d="m 31.103735,44.552906 q 0,2.324158 -1.230436,3.588774 -1.213348,1.264615 -3.315344,1.264615 -1.298794,0 -2.324158,-0.56395 -1.008275,-0.56395 -1.589314,-1.640582 -0.58104,-1.093722 -0.58104,-2.648857 0,-2.324159 1.213348,-3.571685 1.213347,-1.247526 3.332432,-1.247526 1.315884,0 2.324159,0.56395 1.008274,0.56395 1.589314,1.640583 0.581039,1.059542 0.581039,2.614678 z m -6.442703,0 q 0,1.384241 0.444324,2.101996 0.461414,0.700665 1.486778,0.700665 1.008275,0 1.452599,-0.700665 0.461414,-0.717755 0.461414,-2.101996 0,-1.384242 -0.461414,-2.067818 -0.444324,-0.700665 -1.469688,-0.700665 -1.008275,0 -1.469689,0.700665 -0.444324,0.683576 -0.444324,2.067818 z"
     id="path452" /><path
     d="m 36.230546,39.733695 q 1.726029,0 2.700125,1.367152 h 0.06836 l 0.205073,-1.196258 h 2.153264 v 9.347902 q 0,1.999459 -1.179169,3.041913 -1.179168,1.042453 -3.486237,1.042453 -0.991185,0 -1.845655,-0.119626 -0.837381,-0.119626 -1.640583,-0.427235 v -2.033638 q 1.72603,0.717754 3.640043,0.717754 1.96528,0 1.96528,-2.119085 v -0.187983 q 0,-0.29052 0.01709,-0.598129 0.03418,-0.30761 0.05127,-0.546861 h -0.06836 q -0.478503,0.734844 -1.144989,1.059543 -0.666487,0.324698 -1.503867,0.324698 -1.657672,0 -2.597589,-1.264615 -0.922828,-1.281705 -0.922828,-3.554595 0,-2.28998 0.957007,-3.571685 0.957006,-1.281705 2.631767,-1.281705 z m 0.803202,2.067817 q -1.794387,0 -1.794387,2.819751 0,2.785572 1.828566,2.785572 0.974095,0 1.435509,-0.54686 0.478503,-0.563951 0.478503,-1.948192 v -0.307609 q 0,-1.503867 -0.461413,-2.153264 -0.461414,-0.649398 -1.486778,-0.649398 z m 3.537506,-5.742038 q -0.08545,1.247526 -0.991186,2.033639 -0.905738,0.786112 -2.324158,0.786112 -1.469688,0 -2.324158,-0.769023 -0.85447,-0.769023 -0.922828,-2.050728 h 1.41842 q 0.05127,0.478503 0.29052,0.700666 0.256341,0.222162 0.666487,0.290519 0.410145,0.05127 0.888649,0.05127 0.410145,0 0.803201,-0.06836 0.410146,-0.08545 0.700666,-0.307609 0.290519,-0.222162 0.341788,-0.666487 z"
     id="path454" /><path
     d="m 52.585093,39.904589 v 9.330812 h -1.948192 l -0.341788,-1.196258 h -0.136715 q -0.444324,0.717755 -1.230437,1.042454 -0.769023,0.324698 -1.640582,0.324698 -1.503867,0 -2.409605,-0.803202 -0.905739,-0.820291 -0.905739,-2.614678 v -6.083826 h 2.546321 v 5.451519 q 0,0.991185 0.358877,1.503867 0.358878,0.512682 1.14499,0.512682 1.162079,0 1.589314,-0.786113 0.427235,-0.803202 0.427235,-2.289979 v -4.391976 z"
     id="path456" /><path
     d="m 57.79735,42.057853 q 0,0.529772 -0.05127,1.059543 -0.03418,0.512682 -0.08545,1.042454 h 0.03418 q 0.256341,-0.358878 0.529771,-0.717755 0.273431,-0.375967 0.58104,-0.700666 l 2.614678,-2.83684 h 2.871019 l -3.7084,4.050188 3.930562,5.280624 h -2.939377 l -2.683035,-3.776757 -1.093722,0.871559 v 2.905198 H 55.25103 V 36.247458 h 2.54632 z"
     id="path458" /></g></svg>
