<?xml version="1.0" encoding="UTF-8" standalone="no"?>
<!-- Uploaded to: SVG Repo, www.svgrepo.com, Generator: SVG Repo Mixer Tools -->

<svg
   fill="#000000"
   width="799.93835"
   height="443.63797"
   viewBox="0 -27.73 122.87053 68.142792"
   version="1.1"
   id="Layer_1"
   xml:space="preserve"
   sodipodi:docname="bilgisayarsistem-dis.svg"
   inkscape:version="1.2.2 (b0a8486541, 2022-12-01)"
   xmlns:inkscape="http://www.inkscape.org/namespaces/inkscape"
   xmlns:sodipodi="http://sodipodi.sourceforge.net/DTD/sodipodi-0.dtd"
   xmlns="http://www.w3.org/2000/svg"
   xmlns:svg="http://www.w3.org/2000/svg"><defs
   id="defs1875"><clipPath
   clipPathUnits="userSpaceOnUse"
   id="clipPath15564"><g
     id="g15568"
     transform="translate(-2.6856513,-1.5887216)"><g
       inkscape:label="Clip"
       id="use15566"
       transform="translate(2.6856513,1.588721)"
       clip-path="url(#clipPath15564)"><g
         id="g15744"
         clip-path="none"
         transform="translate(2.6856513,1.588721)"><g
           id="g15572"
           transform="matrix(0.31600234,0,0,0.30689409,75.726475,8.9374409)">

<path
   d="m 79.93,51.37 c -0.53,-0.51 -0.32,-1.2 0.48,-1.54 0.8,-0.34 1.87,-0.2 2.41,0.3 3.78,3.6 1.96,6.52 0.21,9.32 -1.32,2.12 -2.59,4.15 -0.25,6.19 0.57,0.5 0.4,1.19 -0.37,1.55 -0.77,0.36 -1.86,0.26 -2.43,-0.24 -3.47,-3.03 -1.86,-5.62 -0.17,-8.32 1.41,-2.27 2.89,-4.63 0.12,-7.26 z M 14.57,28.11 h 73.65 c 0.96,0 1.74,0.78 1.74,1.74 v 12.26 h 24.13 c 1.46,0 2.79,-0.6 3.75,-1.56 0.96,-0.96 1.56,-2.29 1.56,-3.75 v -28 c 0,-1.46 -0.6,-2.79 -1.56,-3.75 -0.96,-0.96 -2.29,-1.56 -3.75,-1.56 H 8.8 C 7.34,3.49 6.01,4.09 5.05,5.05 4.08,6.01 3.48,7.34 3.48,8.8 v 28 c 0,1.46 0.6,2.79 1.56,3.75 0.96,0.96 2.29,1.56 3.75,1.56 h 4.03 V 29.85 c 0.01,-0.96 0.79,-1.74 1.75,-1.74 z m 71.91,3.48 H 16.31 V 41.68 H 86.48 Z M 15.21,13.64 c -0.96,0 -1.74,-0.78 -1.74,-1.74 0,-0.96 0.78,-1.74 1.74,-1.74 h 93.74 c 0.96,0 1.74,0.78 1.74,1.74 0,0.96 -0.78,1.74 -1.74,1.74 z m 83.37,18.35 c 1.36,0 2.46,1.1 2.46,2.46 0,1.36 -1.1,2.46 -2.46,2.46 -1.36,0 -2.46,-1.1 -2.46,-2.46 0,-1.36 1.11,-2.46 2.46,-2.46 z m 10.27,0 c 1.36,0 2.46,1.1 2.46,2.46 0,1.36 -1.1,2.46 -2.46,2.46 -1.36,0 -2.46,-1.1 -2.46,-2.46 0,-1.36 1.1,-2.46 2.46,-2.46 z M 8.8,0 h 105.29 c 2.42,0 4.62,0.99 6.21,2.58 1.59,1.59 2.58,3.79 2.58,6.21 V 36.8 c 0,2.42 -0.99,4.62 -2.58,6.21 -1.59,1.59 -3.79,2.58 -6.21,2.58 H 8.8 C 6.38,45.59 4.18,44.6 2.59,43.01 0.99,41.42 0,39.22 0,36.8 V 8.8 C 0,6.38 0.99,4.18 2.58,2.59 4.18,0.99 6.38,0 8.8,0 Z m 6.41,21.76 c -0.96,0 -1.74,-0.78 -1.74,-1.74 0,-0.96 0.78,-1.74 1.74,-1.74 h 93.74 c 0.96,0 1.74,0.78 1.74,1.74 0,0.96 -0.78,1.74 -1.74,1.74 z m 6.16,29.61 c -0.53,-0.51 -0.32,-1.2 0.48,-1.54 0.8,-0.34 1.87,-0.2 2.41,0.3 3.78,3.6 1.96,6.52 0.21,9.32 -1.32,2.12 -2.59,4.15 -0.25,6.19 0.57,0.5 0.4,1.19 -0.37,1.55 -0.77,0.36 -1.86,0.26 -2.43,-0.24 -3.47,-3.03 -1.86,-5.62 -0.17,-8.32 1.41,-2.27 2.88,-4.63 0.12,-7.26 z m 14.64,0 c -0.53,-0.51 -0.32,-1.2 0.48,-1.54 0.8,-0.34 1.87,-0.2 2.41,0.3 3.78,3.6 1.96,6.52 0.21,9.32 -1.32,2.12 -2.59,4.15 -0.25,6.19 0.57,0.5 0.4,1.19 -0.37,1.55 -0.77,0.36 -1.86,0.26 -2.43,-0.24 -3.47,-3.03 -1.86,-5.62 -0.17,-8.32 1.41,-2.27 2.88,-4.63 0.12,-7.26 z m 14.64,0 c -0.53,-0.51 -0.32,-1.2 0.48,-1.54 0.8,-0.34 1.87,-0.2 2.41,0.3 3.78,3.6 1.96,6.52 0.21,9.32 -1.32,2.12 -2.59,4.15 -0.25,6.19 0.57,0.5 0.4,1.19 -0.37,1.55 -0.77,0.36 -1.86,0.26 -2.43,-0.24 -3.47,-3.03 -1.86,-5.62 -0.17,-8.32 1.41,-2.27 2.89,-4.63 0.12,-7.26 z m 14.64,0 c -0.53,-0.51 -0.32,-1.2 0.48,-1.54 0.8,-0.34 1.87,-0.2 2.41,0.3 3.78,3.6 1.96,6.52 0.21,9.32 -1.32,2.12 -2.59,4.15 -0.25,6.19 0.57,0.5 0.4,1.19 -0.37,1.55 -0.77,0.36 -1.86,0.26 -2.43,-0.24 -3.47,-3.03 -1.85,-5.62 -0.17,-8.32 1.41,-2.27 2.89,-4.63 0.12,-7.26 z"
   id="path15570" />

</g><g
           id="g15584"
           transform="matrix(0.03702094,0,0,0.03373472,-3.5859266,-29.1693)"><path
             d="M 841.8938,97.371494 H 180.39938 c -13.50198,0 -24.45448,10.955576 -24.45448,24.454476 v 431.9762 c 0,1.20921 0.50887,2.22695 0.70136,3.37472 0.7628,11.39892 9.1689,21.20774 20.82583,22.86336 l 65.78361,9.23442 c 50.43966,7.25833 111.76937,16.11084 167.93665,22.16302 v 32.41417 H 186.83347 c -13.50197,0 -24.45447,10.9525 -24.45447,24.45447 V 904.3846 c 0,13.50197 10.9525,24.45447 24.45447,24.45447 h 652.19448 c 13.50198,0 24.45448,-10.9525 24.45448,-24.45447 V 668.30736 c 0,-13.50198 -10.9525,-24.45448 -24.45448,-24.45448 H 602.75617 v -31.07697 c 57.57,-5.85969 121.76659,-15.34804 173.79634,-22.99134 l 68.58803,-9.74329 c 12.41973,-1.78361 21.3347,-12.80164 20.95279,-25.09441 0,-0.38191 0.25393,-0.69829 0.25393,-1.1447 V 121.82699 c 10e-4,-13.4989 -10.95148,-24.455496 -24.45346,-24.455496 z"
             fill="#27323a"
             id="path15574" /><path
             d="m 211.28795,692.76184 h 603.2845 v 187.16828 h -603.2845 z"
             fill="#f4ce73"
             id="path15576" /><path
             d="m 460.10232,643.85186 v -27.89473 c 19.67806,1.46722 38.08444,2.42251 53.8789,2.42251 11.97331,0 25.59918,-0.63891 39.86497,-1.52969 v 27.00191 z m 357.33598,-109.2844 -48.01612,6.81498 c -80.37193,11.84635 -190.35462,28.08722 -255.43994,28.08722 -66.10613,0 -180.29187,-16.56135 -263.65661,-28.59609 L 204.8559,534.505 V 146.28147 h 612.58343 v 388.28599 z"
             fill="#ffffff"
             id="path15578" /><path
             d="m 599.25448,798.41349 h 163.60664 c 13.4989,0 24.45448,-10.9525 24.45448,-24.4555 0,-13.49891 -10.95558,-24.45448 -24.45448,-24.45448 H 599.25448 c -13.50197,0 -24.45447,10.95557 -24.45447,24.45448 0,13.503 10.9525,24.4555 24.45447,24.4555 z M 489.39978,541.12851 c 0,-12.03474 9.80473,-21.84357 21.84357,-21.84357 11.97331,0 21.78111,9.8078 21.78111,21.84357 0,11.97332 -9.8078,21.78112 -21.78111,21.78112 -12.03885,0 -21.84357,-9.80882 -21.84357,-21.78112 z M 250.77204,167.48921 c -8.9805,0 -16.30332,7.26139 -16.30332,16.30332 v 310.01712 c 0,9.04501 7.32282,16.30333 16.30332,16.30333 h 520.87709 c 8.98049,0 16.30332,-7.25832 16.30332,-16.30333 V 183.79253 c 0,-9.04193 -7.32283,-16.30332 -16.30332,-16.30332 z"
             fill="#27323a"
             id="path15580" /><path
             d="M 755.3458,200.09586 V 477.50633 H 267.07537 V 200.09586 Z"
             fill="#79ccbf"
             id="path15582" /></g><g
           id="g15646"
           transform="matrix(0.05673058,0,0,0.05992302,46.198684,8.3646221)"><path
             style="fill:#82afaf"
             d="m 427.2,479.2 c 0,8.8 -7.2,15.2 -15.2,15.2 H 82.4 c -8.8,0 -15.2,-7.2 -15.2,-15.2 V 15.2 C 67.2,6.4 74.4,0 82.4,0 h 328.8 c 8.8,0 15.2,7.2 15.2,15.2 v 464 z"
             id="path15586" /><path
             style="fill:#76a3a2"
             d="M 67.2,15.2 C 67.2,6.4 74.4,0 82.4,0 h 328.8 c 8.8,0 15.2,7.2 15.2,15.2 v 464 c 0,8.8 -7.2,15.2 -15.2,15.2"
             id="path15588" /><g
             id="g15594">
	<polygon
   style="fill:#669694"
   points="427.2,374.4 427.2,262.4 303.2,136.8 192,136.8 "
   id="polygon15590" />
	<path
   style="fill:#669694"
   d="M 412,23.2 H 82.4 c -8.8,0 -15.2,7.2 -15.2,15.2 v 90.4 h 360 V 38.4 c 0,-8 -7.2,-15.2 -15.2,-15.2 z"
   id="path15592" />
</g><path
             style="fill:#a3d0d1"
             d="M 412,0 H 82.4 c -8,0 -15.2,7.2 -15.2,15.2 v 90.4 h 360 V 15.2 C 427.2,7.2 420,0 412,0 Z"
             id="path15596" /><path
             style="fill:#91c4c4"
             d="M 427.2,106.4 V 15.2 C 427.2,6.4 420,0 412,0 H 82.4 c -8,0 -15.2,7.2 -15.2,15.2"
             id="path15598" /><path
             style="fill:#b3e0e0"
             d="M 412,0 H 82.4 c -8,0 -15.2,7.2 -15.2,15.2 v 7.2 c 0,-8.8 7.2,-15.2 15.2,-15.2 h 328.8 c 8.8,0 15.2,7.2 15.2,15.2 V 15.2 C 427.2,7.2 420,0 412,0 Z"
             id="path15600" /><path
             style="fill:#a3d0d1"
             d="m 67.2,464.8 v 14.4 c 0,8.8 7.2,15.2 15.2,15.2 h 328.8 c 8.8,0 15.2,-7.2 15.2,-15.2 v -14.4 z"
             id="path15602" /><rect
             x="67.199997"
             y="99.199997"
             style="fill:#b3e0e0"
             width="360"
             height="7.1999998"
             id="rect15604" /><path
             style="fill:#a3d0d1"
             d="m 308,136.8 c 0,5.6 -4,9.6 -9.6,9.6 H 196 c -5.6,0 -9.6,-4 -9.6,-9.6 v 0 c 0,-5.6 4,-9.6 9.6,-9.6 h 103.2 c 4.8,0 8.8,4.8 8.8,9.6 z"
             id="path15606" /><path
             style="fill:#b3e0e0"
             d="M 298.4,127.2 H 196 c -4,0 -8,2.4 -8.8,6.4 1.6,4 4.8,6.4 8.8,6.4 h 103.2 c 4,0 8,-2.4 8.8,-6.4 -1.6,-3.2 -4.8,-6.4 -9.6,-6.4 z"
             id="path15608" /><path
             style="fill:#137d8e"
             d="m 124,52 c 0,10.4 -8,18.4 -18.4,18.4 -10.4,0 -18.4,-8 -18.4,-18.4 0,-10.4 8,-20 18.4,-20 10.4,0 18.4,9.6 18.4,20 z"
             id="path15610" /><path
             style="fill:#72a2a5"
             d="m 124,52 c 0,10.4 -8,27.2 -18.4,27.2 -10.4,0 -18.4,-17.6 -18.4,-27.2 0,-10.4 8,-17.6 18.4,-17.6 10.4,0 18.4,7.2 18.4,17.6 z"
             id="path15612" /><circle
             style="fill:#185b6b"
             cx="105.6"
             cy="52"
             r="18.4"
             id="circle15614" /><path
             style="fill:#073b44"
             d="m 119.2,38.4 c 7.2,7.2 7.2,19.2 0,26.4 C 112,72 100,72 92.8,64.8"
             id="path15616" /><circle
             style="fill:#b8d7e0"
             cx="115.2"
             cy="42.400002"
             r="1.6"
             id="circle15618" /><path
             style="fill:#137d8e"
             d="m 168.8,52 c 0,10.4 -8,18.4 -18.4,18.4 -10.4,0 -18.4,-8 -18.4,-18.4 0,-10.4 8,-20 18.4,-20 10.4,0 18.4,9.6 18.4,20 z"
             id="path15620" /><path
             style="fill:#72a2a5"
             d="m 168.8,52 c 0,10.4 -8,27.2 -18.4,27.2 C 140,79.2 132,62.4 132,52 c 0,-10.4 8,-17.6 18.4,-17.6 10.4,0 18.4,7.2 18.4,17.6 z"
             id="path15622" /><circle
             style="fill:#185b6b"
             cx="150.39999"
             cy="52"
             r="18.4"
             id="circle15624" /><path
             style="fill:#073b44"
             d="m 163.2,38.4 c 7.2,7.2 7.2,19.2 0,26.4 -7.2,7.2 -19.2,7.2 -26.4,0"
             id="path15626" /><circle
             style="fill:#b8d7e0"
             cx="160"
             cy="42.400002"
             r="1.6"
             id="circle15628" /><path
             style="fill:#137d8e"
             d="m 213.6,52 c 0,10.4 -8,18.4 -18.4,18.4 -10.4,0 -18.4,-8 -18.4,-18.4 0,-10.4 8,-20 18.4,-20 10.4,0 18.4,9.6 18.4,20 z"
             id="path15630" /><path
             style="fill:#72a2a5"
             d="m 213.6,52 c 0,10.4 -8,27.2 -18.4,27.2 -10.4,0 -18.4,-16.8 -18.4,-27.2 0,-10.4 8,-17.6 18.4,-17.6 10.4,0 18.4,7.2 18.4,17.6 z"
             id="path15632" /><circle
             style="fill:#185b6b"
             cx="195.2"
             cy="52"
             r="18.4"
             id="circle15634" /><path
             style="fill:#073b44"
             d="m 208,38.4 c 7.2,7.2 7.2,19.2 0,26.4 -7.2,7.2 -19.2,7.2 -26.4,0"
             id="path15636" /><circle
             style="fill:#b8d7e0"
             cx="204.8"
             cy="42.400002"
             r="1.6"
             id="circle15638" /><path
             style="fill:#53ad8a"
             d="m 398.4,67.2 c 0,4 -3.2,7.2 -7.2,7.2 H 290.4 c -4,0 -7.2,-3.2 -7.2,-7.2 V 41.6 c 0,-4 3.2,-7.2 7.2,-7.2 h 100.8 c 4,0 7.2,3.2 7.2,7.2 z"
             id="path15640" /><path
             style="fill:#3ca589"
             d="M 391.2,34.4 H 290.4 c -4,0 -7.2,3.2 -7.2,7.2 v 23.2 c 0,4 3.2,7.2 7.2,7.2 h 100.8 c 4,0 7.2,-3.2 7.2,-7.2 V 41.6 c 0,-4 -3.2,-7.2 -7.2,-7.2 z"
             id="path15642" /><path
             style="fill:#319385"
             d="m 283.2,64.8 c 0,4 3.2,7.2 7.2,7.2 h 100.8 c 4,0 7.2,-3.2 7.2,-7.2 V 41.6 c 0,-4 -3.2,-7.2 -7.2,-7.2"
             id="path15644" /></g><g
           id="g15682"
           transform="matrix(0.0652863,0,0,0.06406848,83.040057,-28.334524)"><path
             style="fill:#54686c"
             d="M 126.527,136.399 H 41.796 c -17.312,0 -31.347,13.992 -31.347,31.251 v 248.812 c 0,17.26 14.035,31.251 31.347,31.251 h 428.408 c 17.312,0 31.347,-13.689 31.347,-30.948 V 167.651 c 0,-17.259 -14.035,-31.251 -31.347,-31.251 H 385.473 126.527 Z"
             id="path15648" /><g
             id="g15654">
	<path
   style="fill:#87a3aa"
   d="m 10.449,407.051 v 9.411 c 0,17.26 14.035,31.251 31.347,31.251 h 428.408 c 17.312,0 31.347,-13.689 31.347,-30.948 v -9.714 z"
   id="path15650" />
	<path
   style="fill:#87a3aa"
   d="M 470.204,136.399 H 385.473 126.527 41.796 c -17.312,0 -31.347,13.992 -31.347,31.251 v 7.377 h 491.102 v -7.377 c 0,-17.258 -14.035,-31.251 -31.347,-31.251 z"
   id="path15652" />
</g><circle
             style="fill:#54686c"
             cx="327.272"
             cy="292.332"
             r="114.719"
             id="circle15656" /><rect
             x="55.380001"
             y="99.830002"
             style="fill:#faf9f9"
             width="78.366997"
             height="36.570999"
             id="rect15658" /><polygon
             style="fill:#54686c"
             points="418.544,135.37 236.006,135.37 249.59,64.287 403.916,64.287 "
             id="polygon15660" /><circle
             style="fill:#87a3aa"
             cx="327.272"
             cy="292.332"
             r="77.198997"
             id="circle15662" /><circle
             style="fill:#54686c"
             cx="327.272"
             cy="292.332"
             r="42.369999"
             id="circle15664" /><path
             d="m 327.276,167.155 c -69.021,0 -125.173,56.152 -125.173,125.173 0,69.021 56.152,125.172 125.173,125.172 69.021,0 125.172,-56.152 125.172,-125.173 0,-69.021 -56.152,-125.172 -125.172,-125.172 z m 0,229.447 c -57.497,0 -104.275,-46.778 -104.275,-104.275 0,-57.497 46.778,-104.275 104.275,-104.275 57.497,0 104.274,46.779 104.274,104.275 0,57.496 -46.778,104.275 -104.274,104.275 z"
             id="path15666" /><path
             d="m 327.276,204.679 c -48.329,0 -87.648,39.318 -87.648,87.648 0,48.33 39.318,87.648 87.648,87.648 48.33,0 87.648,-39.318 87.648,-87.648 0,-48.33 -39.32,-87.648 -87.648,-87.648 z m 0,154.399 c -36.807,0 -66.75,-29.944 -66.75,-66.75 0,-36.806 29.944,-66.75 66.75,-66.75 36.806,0 66.75,29.944 66.75,66.75 0,36.806 -29.945,66.75 -66.75,66.75 z"
             id="path15668" /><path
             d="m 346.687,266.983 c 0.065,0.051 0.161,0.127 0.227,0.177 1.892,1.441 4.116,2.138 6.324,2.138 3.149,0 6.263,-1.418 8.318,-4.117 3.483,-4.57 2.619,-11.091 -1.919,-14.599 -4.504,-3.511 -11.004,-2.756 -14.582,1.715 -3.605,4.506 -2.874,11.082 1.632,14.686 z"
             id="path15670" /><path
             d="m 359.196,292.327 c 0,17.601 -14.319,31.921 -31.921,31.921 -17.601,0 -31.921,-14.319 -31.921,-31.921 0,-5.771 -4.678,-10.449 -10.449,-10.449 -5.771,0 -10.449,4.678 -10.449,10.449 0,29.124 23.694,52.819 52.819,52.819 29.124,0 52.819,-23.694 52.819,-52.819 0,-5.771 -4.678,-10.449 -10.449,-10.449 -5.771,0 -10.449,4.678 -10.449,10.449 z"
             id="path15672" /><path
             d="m 456.62,167.38 c -5.762,0 -10.449,4.687 -10.449,10.449 0,5.762 4.687,10.449 10.449,10.449 5.762,0 10.449,-4.687 10.449,-10.449 0,-5.762 -4.687,-10.449 -10.449,-10.449 z"
             id="path15674" /><path
             d="m 470.204,125.95 h -42.93 L 414.15,62.18 c -1,-4.857 -5.276,-8.342 -10.235,-8.342 H 249.59 c -5.014,0 -9.322,3.562 -10.263,8.488 l -12.158,63.625 H 144.197 V 99.828 c 0,-5.771 -4.678,-10.449 -10.449,-10.449 H 55.38 c -5.771,0 -10.449,4.678 -10.449,10.449 V 125.95 H 41.796 C 18.75,125.95 0,144.657 0,167.65 v 248.812 c 0,22.993 18.75,41.7 41.796,41.7 h 428.408 c 23.046,0 41.796,-18.57 41.796,-41.397 V 167.651 C 512,144.657 493.25,125.95 470.204,125.95 Z M 258.231,74.736 h 137.168 l 10.328,50.184 H 248.641 Z M 65.829,110.277 h 57.469 V 125.95 H 65.829 Z m 425.273,306.489 c 0,11.495 -9.179,20.499 -20.898,20.499 H 41.796 c -11.171,0 -20.297,-8.777 -20.845,-19.765 h 174.631 c 5.771,0 10.449,-4.678 10.449,-10.449 0,-5.771 -4.678,-10.449 -10.449,-10.449 H 20.898 V 188.053 h 174.683 c 5.771,0 10.449,-4.678 10.449,-10.449 0,-5.771 -4.678,-10.449 -10.449,-10.449 H 20.923 c 0.267,-11.24 9.518,-20.307 20.873,-20.307 h 428.408 c 11.523,0 20.898,9.332 20.898,20.802 z"
             id="path15676" /><path
             d="m 229.522,396.602 h -0.137 c -5.771,0 -10.449,4.678 -10.449,10.449 0,5.771 4.678,10.449 10.449,10.449 h 0.137 c 5.771,0 10.449,-4.678 10.449,-10.449 0,-5.771 -4.678,-10.449 -10.449,-10.449 z"
             id="path15678" /><path
             d="m 229.385,188.053 h 0.137 c 5.771,0 10.449,-4.678 10.449,-10.449 0,-5.771 -4.678,-10.449 -10.449,-10.449 h -0.137 c -5.771,0 -10.449,4.678 -10.449,10.449 0,5.771 4.678,10.449 10.449,10.449 z"
             id="path15680" /></g><g
           id="g15698"
           transform="matrix(0.04785007,0,0,0.05177577,47.739577,-25.414407)"><path
             style="fill:#48cfad"
             d="m 128.007,501.311 c -17.656,0 -31.999,-14.359 -31.999,-32 V 42.654 c 0,-17.64 14.343,-31.999 31.999,-31.999 h 255.984 c 17.654,0 31.998,14.359 31.998,31.999 v 426.657 c 0,17.641 -14.344,32 -31.998,32 z"
             id="path15684" /><path
             style="fill:#5d9cec"
             d="m 371.116,354.878 -0.906,-0.281 c -15.094,-4.094 -26.156,-7.983 -32.844,-10.562 -23.592,-9.078 -29.779,-15.641 -31.342,-18.733 -0.031,-0.109 -0.094,-0.234 -0.156,-0.344 l -0.188,-28.891 -100.911,1.156 -0.203,27.734 c -0.047,0.109 -0.094,0.234 -0.141,0.344 -1.578,3.093 -7.719,9.655 -31.343,18.749 -6.656,2.562 -17.75,6.452 -32.718,10.515 l -1.016,0.312 c -13.625,4.547 -22.78,17.312 -22.78,31.719 v 40.045 h 277.326 v -40.045 c 10e-4,-14.406 -9.153,-27.171 -22.778,-31.718 z"
             id="path15686" /><path
             style="fill:#eac6bb"
             d="m 333.803,243.288 c 0,51.061 -48.686,100.153 -78.583,100.153 -29.905,0 -78.575,-49.093 -78.575,-100.153 0,-51.06 35.186,-84.747 78.575,-84.747 43.398,0 78.583,33.686 78.583,84.747 z"
             id="path15688" /><path
             style="fill:#a85d5d"
             d="m 305.868,149.307 c -13.375,-12.109 -58.177,-26.968 -102.864,0 -22.624,13.64 -39.092,73.95 -39.092,73.95 0,0 44.139,25.015 101.591,-2.016 34.396,-16.187 33.615,-7.703 43.428,7.031 5.844,8.734 24.873,15.015 24.873,15.015 0,0 14.812,-55.278 -27.936,-93.98 z"
             id="path15690" /><path
             style="fill:#434a54"
             d="M 383.991,0 H 128.007 C 104.43,0 85.337,19.093 85.337,42.654 v 426.657 c 0,23.562 19.093,42.671 42.67,42.671 h 255.984 c 23.561,0 42.654,-19.108 42.654,-42.671 V 42.654 C 426.645,19.093 407.552,0 383.991,0 Z m 21.342,469.311 c 0,11.766 -9.594,21.328 -21.342,21.328 H 128.007 c -11.765,0 -21.343,-9.562 -21.343,-21.328 V 42.654 c 0,-11.765 9.578,-21.327 21.343,-21.327 h 255.984 c 11.748,0 21.342,9.562 21.342,21.327 z"
             id="path15692" /><path
             style="fill:#434a54"
             d="m 96.008,405.313 v 63.998 c 0,17.641 14.343,32 31.999,32 h 255.984 c 17.654,0 31.998,-14.359 31.998,-32 v -63.998 z"
             id="path15694" /><path
             style="fill:#656d78"
             d="m 256.002,426.641 c -17.687,0 -31.999,14.328 -31.999,31.999 0,17.671 14.312,31.999 31.999,31.999 17.678,0 31.991,-14.328 31.991,-31.999 0,-17.671 -14.313,-31.999 -31.991,-31.999 z m 0,42.67 c -5.89,0 -10.671,-4.781 -10.671,-10.671 0,-5.875 4.781,-10.656 10.671,-10.656 5.875,0 10.657,4.781 10.657,10.656 0,5.89 -4.781,10.671 -10.657,10.671 z"
             id="path15696" /></g><g
           id="g15720"
           transform="matrix(0.1536,0,0,0.1536,56.9856,8.4284814)"><rect
             y="5.5"
             style="fill:#38454f"
             width="58"
             height="38"
             id="rect15700"
             x="0" /><path
             style="fill:#61b872"
             d="M 13.962,21.5 H 11.038 C 10.465,21.5 10,21.035 10,20.462 V 17.538 C 10,16.965 10.465,16.5 11.038,16.5 h 2.924 c 0.573,0 1.038,0.465 1.038,1.038 v 2.924 c 0,0.573 -0.465,1.038 -1.038,1.038 z"
             id="path15702" /><path
             style="fill:#48a0dc"
             d="M 24.962,21.5 H 22.038 C 21.465,21.5 21,21.035 21,20.462 V 17.538 C 21,16.965 21.465,16.5 22.038,16.5 h 2.924 c 0.573,0 1.038,0.465 1.038,1.038 v 2.924 c 0,0.573 -0.465,1.038 -1.038,1.038 z"
             id="path15704" /><path
             style="fill:#ebba16"
             d="M 35.962,21.5 H 33.038 C 32.465,21.5 32,21.035 32,20.462 V 17.538 C 32,16.965 32.465,16.5 33.038,16.5 h 2.924 c 0.573,0 1.038,0.465 1.038,1.038 v 2.924 c 0,0.573 -0.465,1.038 -1.038,1.038 z"
             id="path15706" /><path
             style="fill:#bf4d90"
             d="M 46.962,21.5 H 44.038 C 43.465,21.5 43,21.035 43,20.462 V 17.538 C 43,16.965 43.465,16.5 44.038,16.5 h 2.924 c 0.573,0 1.038,0.465 1.038,1.038 v 2.924 c 0,0.573 -0.465,1.038 -1.038,1.038 z"
             id="path15708" /><path
             style="fill:#dd352e"
             d="M 13.962,32.5 H 11.038 C 10.465,32.5 10,32.035 10,31.462 V 28.538 C 10,27.965 10.465,27.5 11.038,27.5 h 2.924 c 0.573,0 1.038,0.465 1.038,1.038 v 2.924 c 0,0.573 -0.465,1.038 -1.038,1.038 z"
             id="path15710" /><path
             style="fill:#a4e869"
             d="M 24.962,32.5 H 22.038 C 21.465,32.5 21,32.035 21,31.462 V 28.538 C 21,27.965 21.465,27.5 22.038,27.5 h 2.924 c 0.573,0 1.038,0.465 1.038,1.038 v 2.924 c 0,0.573 -0.465,1.038 -1.038,1.038 z"
             id="path15712" /><path
             style="fill:#50508a"
             d="M 35.962,32.5 H 33.038 C 32.465,32.5 32,32.035 32,31.462 V 28.538 C 32,27.965 32.465,27.5 33.038,27.5 h 2.924 c 0.573,0 1.038,0.465 1.038,1.038 v 2.924 c 0,0.573 -0.465,1.038 -1.038,1.038 z"
             id="path15714" /><path
             style="fill:#be7c6d"
             d="M 46.962,32.5 H 44.038 C 43.465,32.5 43,32.035 43,31.462 V 28.538 C 43,27.965 43.465,27.5 44.038,27.5 h 2.924 c 0.573,0 1.038,0.465 1.038,1.038 v 2.924 c 0,0.573 -0.465,1.038 -1.038,1.038 z"
             id="path15716" /><polygon
             style="fill:#afb6bb"
             points="28,49.5 15,49.5 15,52.5 43,52.5 43,49.5 30,49.5 30,43.5 28,43.5 "
             id="polygon15718" /></g><g
           id="g15742"
           transform="matrix(0.77003571,0,0,0.60848731,2.5230789,4.400439)"><rect
             y="5.5"
             style="fill:#38454f"
             width="58"
             height="38"
             id="rect15722"
             x="0" /><path
             style="fill:#61b872"
             d="M 13.962,21.5 H 11.038 C 10.465,21.5 10,21.035 10,20.462 V 17.538 C 10,16.965 10.465,16.5 11.038,16.5 h 2.924 c 0.573,0 1.038,0.465 1.038,1.038 v 2.924 c 0,0.573 -0.465,1.038 -1.038,1.038 z"
             id="path15724" /><path
             style="fill:#48a0dc"
             d="M 24.962,21.5 H 22.038 C 21.465,21.5 21,21.035 21,20.462 V 17.538 C 21,16.965 21.465,16.5 22.038,16.5 h 2.924 c 0.573,0 1.038,0.465 1.038,1.038 v 2.924 c 0,0.573 -0.465,1.038 -1.038,1.038 z"
             id="path15726" /><path
             style="fill:#ebba16"
             d="M 35.962,21.5 H 33.038 C 32.465,21.5 32,21.035 32,20.462 V 17.538 C 32,16.965 32.465,16.5 33.038,16.5 h 2.924 c 0.573,0 1.038,0.465 1.038,1.038 v 2.924 c 0,0.573 -0.465,1.038 -1.038,1.038 z"
             id="path15728" /><path
             style="fill:#bf4d90"
             d="M 46.962,21.5 H 44.038 C 43.465,21.5 43,21.035 43,20.462 V 17.538 C 43,16.965 43.465,16.5 44.038,16.5 h 2.924 c 0.573,0 1.038,0.465 1.038,1.038 v 2.924 c 0,0.573 -0.465,1.038 -1.038,1.038 z"
             id="path15730" /><path
             style="fill:#dd352e"
             d="M 13.962,32.5 H 11.038 C 10.465,32.5 10,32.035 10,31.462 V 28.538 C 10,27.965 10.465,27.5 11.038,27.5 h 2.924 c 0.573,0 1.038,0.465 1.038,1.038 v 2.924 c 0,0.573 -0.465,1.038 -1.038,1.038 z"
             id="path15732" /><path
             style="fill:#a4e869"
             d="M 24.962,32.5 H 22.038 C 21.465,32.5 21,32.035 21,31.462 V 28.538 C 21,27.965 21.465,27.5 22.038,27.5 h 2.924 c 0.573,0 1.038,0.465 1.038,1.038 v 2.924 c 0,0.573 -0.465,1.038 -1.038,1.038 z"
             id="path15734" /><path
             style="fill:#50508a"
             d="M 35.962,32.5 H 33.038 C 32.465,32.5 32,32.035 32,31.462 V 28.538 C 32,27.965 32.465,27.5 33.038,27.5 h 2.924 c 0.573,0 1.038,0.465 1.038,1.038 v 2.924 c 0,0.573 -0.465,1.038 -1.038,1.038 z"
             id="path15736" /><path
             style="fill:#be7c6d"
             d="M 46.962,32.5 H 44.038 C 43.465,32.5 43,32.035 43,31.462 V 28.538 C 43,27.965 43.465,27.5 44.038,27.5 h 2.924 c 0.573,0 1.038,0.465 1.038,1.038 v 2.924 c 0,0.573 -0.465,1.038 -1.038,1.038 z"
             id="path15738" /><polygon
             style="fill:#afb6bb"
             points="30,49.5 30,43.5 28,43.5 28,49.5 15,49.5 15,52.5 43,52.5 43,49.5 "
             id="polygon15740" /></g></g></g></g></clipPath><style
   id="style30742">.cls-1{fill:#ba9bc9;}.cls-2{fill:#8f6c56;}.cls-3{fill:#838bc5;}.cls-4{fill:#fcdd7c;}.cls-5{fill:#65c8d0;}</style>
	
	
	
	
	
	
	
	
</defs><sodipodi:namedview
   id="namedview1873"
   pagecolor="#ffffff"
   bordercolor="#000000"
   borderopacity="0.25"
   inkscape:showpageshadow="2"
   inkscape:pageopacity="0.79215686"
   inkscape:pagecheckerboard="0"
   inkscape:deskcolor="#d1d1d1"
   showgrid="false"
   inkscape:zoom="0.59"
   inkscape:cx="347.45763"
   inkscape:cy="120.33898"
   inkscape:window-width="1366"
   inkscape:window-height="675"
   inkscape:window-x="0"
   inkscape:window-y="0"
   inkscape:window-maximized="1"
   inkscape:current-layer="g12439" />



<g
   id="g12350"
   transform="translate(2.156201,-2.9135431)" /><g
   id="g12439"
   clip-path="none"
   transform="translate(2.2384625,-1.5851611)"><g
     id="g60547"
     transform="matrix(0.06021168,0,0,0.05199205,82.187057,-15.842429)"><rect
       x="10.199"
       y="29.532"
       style="fill:#ababab"
       width="225.362"
       height="355.71799"
       id="rect60509" /><rect
       x="10.199"
       y="385.255"
       style="fill:#ffffff"
       width="225.362"
       height="97.219002"
       id="rect60511" /><g
       id="g60519">
	<circle
   style="fill:#ababab"
   cx="84.214996"
   cy="433.86401"
   r="16.570999"
   id="circle60513" />
	<circle
   style="fill:#ababab"
   cx="161.545"
   cy="433.86401"
   r="16.570999"
   id="circle60515" />
	<rect
   x="276.439"
   y="29.532"
   style="fill:#ababab"
   width="225.362"
   height="355.71799"
   id="rect60517" />
</g><rect
       x="276.439"
       y="385.255"
       style="fill:#ffffff"
       width="225.362"
       height="97.219002"
       id="rect60521" /><path
       d="m 0,482.468 c 0,5.633 4.566,10.199 10.199,10.199 h 225.364 c 5.633,0 10.199,-4.566 10.199,-10.199 V 29.532 c 0,-5.633 -4.566,-10.199 -10.199,-10.199 H 10.199 C 4.566,19.333 0,23.899 0,29.532 Z M 225.364,39.731 V 375.053 H 20.398 v -39.809 h 176.499 c 5.633,0 10.199,-4.566 10.199,-10.199 0,-5.633 -4.566,-10.199 -10.199,-10.199 H 20.398 v -38.704 h 176.499 c 5.633,0 10.199,-4.566 10.199,-10.199 0,-5.633 -4.566,-10.199 -10.199,-10.199 H 20.398 v -38.705 h 176.499 c 5.633,0 10.199,-4.566 10.199,-10.199 0,-5.633 -4.566,-10.199 -10.199,-10.199 H 20.398 v -38.704 h 176.499 c 5.633,0 10.199,-4.566 10.199,-10.199 0,-5.633 -4.566,-10.199 -10.199,-10.199 H 20.398 V 98.833 h 176.499 c 5.633,0 10.199,-4.566 10.199,-10.199 0,-5.633 -4.566,-10.199 -10.199,-10.199 H 20.398 V 39.731 Z m 0,432.538 H 20.398 v -76.817 h 204.965 v 76.817 z"
       id="path60523" /><path
       d="m 84.216,460.631 c 14.761,0 26.77,-12.009 26.77,-26.77 0,-14.761 -12.009,-26.771 -26.77,-26.771 -14.761,0 -26.77,12.009 -26.77,26.771 0,14.76 12.009,26.77 26.77,26.77 z m 0,-33.143 c 3.514,0 6.371,2.859 6.371,6.372 0,3.513 -2.858,6.371 -6.371,6.371 -3.513,0 -6.371,-2.858 -6.371,-6.371 0,-3.513 2.857,-6.372 6.371,-6.372 z"
       id="path60525" /><path
       d="m 161.546,460.631 c 14.761,0 26.77,-12.009 26.77,-26.77 0,-14.761 -12.009,-26.771 -26.77,-26.771 -14.761,0 -26.77,12.009 -26.77,26.771 0,14.76 12.009,26.77 26.77,26.77 z m 0,-33.143 c 3.514,0 6.371,2.859 6.371,6.372 0,3.513 -2.858,6.371 -6.371,6.371 -3.514,0 -6.371,-2.858 -6.371,-6.371 0,-3.513 2.858,-6.372 6.371,-6.372 z"
       id="path60527" /><path
       d="m 512,29.532 c 0,-5.633 -4.567,-10.199 -10.199,-10.199 H 276.437 c -5.632,0 -10.199,4.566 -10.199,10.199 v 452.936 c 0,5.633 4.567,10.199 10.199,10.199 h 225.364 c 5.632,0 10.199,-4.566 10.199,-10.199 z M 491.602,39.731 V 375.053 H 286.636 v -39.809 h 176.499 c 5.632,0 10.199,-4.566 10.199,-10.199 0,-5.633 -4.567,-10.199 -10.199,-10.199 H 286.636 v -38.704 h 176.499 c 5.632,0 10.199,-4.566 10.199,-10.199 0,-5.633 -4.567,-10.199 -10.199,-10.199 H 286.636 v -38.705 h 176.499 c 5.632,0 10.199,-4.566 10.199,-10.199 0,-5.633 -4.567,-10.199 -10.199,-10.199 H 286.636 v -38.704 h 176.499 c 5.632,0 10.199,-4.566 10.199,-10.199 0,-5.633 -4.567,-10.199 -10.199,-10.199 H 286.636 V 98.833 h 176.499 c 5.632,0 10.199,-4.566 10.199,-10.199 0,-5.633 -4.567,-10.199 -10.199,-10.199 H 286.636 V 39.731 Z m 0,432.538 H 286.636 v -76.817 h 204.965 v 76.817 z"
       id="path60529" /></g><g
     id="g60567"
     transform="matrix(0.06949013,0,0,0.05780306,7.3743942,-13.402881)">
	<g
   id="g60565">
		<rect
   x="113.161"
   y="34.716999"
   style="fill:none"
   width="202.957"
   height="114.953"
   id="rect60549" />
		<path
   style="fill:none"
   d="m 405.279,198.475 c 0,-13.677 -11.127,-24.805 -24.805,-24.805 H 48.805 C 35.127,173.67 24,184.797 24,198.475 v 7.961 h 381.279 z m -21.156,0.067 c -2.23,2.23 -5.33,3.51 -8.48,3.51 -3.16,0 -6.25,-1.28 -8.49,-3.51 -2.23,-2.24 -3.51,-5.33 -3.51,-8.49 0,-3.16 1.28,-6.25 3.51,-8.48 2.24,-2.24 5.33,-3.52 8.49,-3.52 3.15,0 6.25,1.28 8.48,3.52 2.24,2.23 3.52,5.32 3.52,8.48 -10e-4,3.16 -1.28,6.25 -3.52,8.49 z"
   id="path60551" />
		<path
   style="fill:none"
   d="M 110.846,394.563 H 318.434 V 266.533 H 110.846 Z m 31.152,-101.655 h 140.514 c 6.627,0 12,5.372 12,12 0,6.627 -5.373,12 -12,12 H 141.998 c -6.627,0 -12,-5.373 -12,-12 0,-6.627 5.373,-12 12,-12 z m 0,51.281 h 65.641 c 6.628,0 12,5.373 12,12 0,6.627 -5.372,12 -12,12 h -65.641 c -6.627,0 -12,-5.373 -12,-12 0,-6.627 5.373,-12 12,-12 z"
   id="path60553" />
		<path
   style="fill:#73d0f4"
   d="m 24,327.508 c 0,13.676 11.127,24.803 24.805,24.803 h 38.041 v -97.777 c 0,-6.628 5.372,-12 12,-12 h 231.588 c 6.628,0 12,5.372 12,12 v 97.777 h 38.041 c 13.678,0 24.805,-11.126 24.805,-24.803 V 230.436 H 24 Z"
   id="path60555" />
		<path
   style="fill:#3d6889"
   d="M 380.475,149.67 H 340.118 V 22.717 c 0,-6.627 -5.372,-12 -12,-12 H 101.161 c -6.628,0 -12,5.373 -12,12 V 149.67 H 48.805 C 21.893,149.67 0,171.563 0,198.475 v 129.033 c 0,26.91 21.893,48.803 48.805,48.803 h 38.041 v 30.252 c 0,6.627 5.372,12 12,12 h 231.588 c 6.628,0 12,-5.373 12,-12 V 376.31 h 38.041 c 26.911,0 48.805,-21.893 48.805,-48.803 V 198.475 C 429.279,171.563 407.386,149.67 380.475,149.67 Z m 24.804,177.838 c 0,13.676 -11.127,24.803 -24.805,24.803 h -38.041 v -97.777 c 0,-6.628 -5.372,-12 -12,-12 H 98.846 c -6.628,0 -12,5.372 -12,12 v 97.777 H 48.805 C 35.127,352.31 24,341.184 24,327.508 V 230.436 H 405.279 Z M 113.161,34.717 H 316.118 V 149.67 H 113.161 Z M 24,198.475 C 24,184.798 35.127,173.67 48.805,173.67 h 331.67 c 13.678,0 24.805,11.127 24.805,24.805 v 7.961 H 24 Z M 318.434,394.563 H 110.846 v -128.03 h 207.588 z"
   id="path60557" />
		<path
   style="fill:#3d6889"
   d="m 375.642,178.052 c -3.16,0 -6.25,1.28 -8.49,3.52 -2.23,2.23 -3.51,5.32 -3.51,8.48 0,3.16 1.28,6.25 3.51,8.49 2.24,2.23 5.33,3.51 8.49,3.51 3.15,0 6.25,-1.28 8.48,-3.51 2.24,-2.24 3.52,-5.33 3.52,-8.49 0,-3.16 -1.279,-6.25 -3.52,-8.48 -2.23,-2.24 -5.329,-3.52 -8.48,-3.52 z"
   id="path60559" />
		<path
   style="fill:#3d6889"
   d="m 141.998,316.908 h 140.514 c 6.627,0 12,-5.373 12,-12 0,-6.628 -5.373,-12 -12,-12 H 141.998 c -6.627,0 -12,5.372 -12,12 0,6.628 5.373,12 12,12 z"
   id="path60561" />
		<path
   style="fill:#3d6889"
   d="m 141.998,368.189 h 65.641 c 6.628,0 12,-5.373 12,-12 0,-6.627 -5.372,-12 -12,-12 h -65.641 c -6.627,0 -12,5.373 -12,12 0,6.628 5.373,12 12,12 z"
   id="path60563" />
	</g>
</g><g
     id="g60610"
     transform="matrix(0.03809686,0,0,0.04192241,31.780125,8.5065548)"><path
       style="fill:#ff8c78"
       d="M 332.96,503.983 H 230.347 c -37.781,0 -68.409,-30.628 -68.409,-68.409 V 264.551 c 0,-56.672 45.942,-102.614 102.614,-102.614 h 34.205 c 56.672,0 102.614,45.942 102.614,102.614 v 171.023 c -10e-4,37.781 -30.63,68.409 -68.411,68.409 z"
       id="path60584" /><path
       style="fill:#df7a6e"
       d="M 204.693,435.574 V 264.551 c 0,-55.239 43.65,-100.276 98.338,-102.519 -1.418,-0.059 -2.842,-0.095 -4.276,-0.095 H 264.55 c -56.672,0 -102.614,45.942 -102.614,102.614 v 171.023 c 0,37.781 30.628,68.409 68.409,68.409 h 42.756 c -37.78,0 -68.408,-30.628 -68.408,-68.409 z"
       id="path60586" /><path
       style="fill:#ffc44f"
       d="m 281.653,264.551 v 0 c -9.446,0 -17.102,-7.656 -17.102,-17.102 v -34.205 c 0,-9.446 7.656,-17.102 17.102,-17.102 v 0 c 9.446,0 17.102,7.656 17.102,17.102 v 34.205 c 10e-4,9.446 -7.656,17.102 -17.102,17.102 z"
       id="path60588" /><path
       d="m 298.756,153.921 h -9.086 v -26.188 c 0,-14.441 11.748,-26.188 26.188,-26.188 h 34.205 c 23.28,0 42.221,-18.941 42.221,-42.221 V 8.017 C 392.284,3.589 388.695,0 384.267,0 379.84,0 376.25,3.588 376.25,8.017 v 51.307 c 0,14.441 -11.748,26.188 -26.188,26.188 h -34.205 c -23.28,0 -42.221,18.941 -42.221,42.221 v 26.188 h -9.086 c -61.002,0 -110.63,49.629 -110.63,110.63 v 94.063 c 0,4.428 3.589,8.017 8.017,8.017 4.428,0 8.017,-3.588 8.017,-8.017 v -51.841 h 154.455 c 4.427,0 8.017,-3.588 8.017,-8.017 0,-4.429 -3.589,-8.017 -8.017,-8.017 H 289.67 v -19.49 c 9.93,-3.354 17.102,-12.752 17.102,-23.8 v -34.205 c 0,-11.048 -7.172,-20.446 -17.102,-23.8 v -19.49 h 9.086 c 52.161,0 94.597,42.436 94.597,94.597 v 26.188 h -26.188 c -4.427,0 -8.017,3.588 -8.017,8.017 0,4.429 3.589,8.017 8.017,8.017 h 26.188 v 128.802 c 0,33.3 -27.092,60.392 -60.392,60.392 H 230.347 c -33.3,0 -60.392,-27.092 -60.392,-60.392 V 401.37 c 0,-4.428 -3.589,-8.017 -8.017,-8.017 -4.428,0 -8.017,3.588 -8.017,8.017 v 34.205 c 0,42.141 34.285,76.426 76.426,76.426 H 332.96 c 42.141,0 76.426,-34.285 76.426,-76.426 V 264.551 c 0,-61.002 -49.628,-110.63 -110.63,-110.63 z m -8.017,93.528 c 0,5.01 -4.076,9.086 -9.086,9.086 -5.01,0 -9.086,-4.076 -9.086,-9.086 v -34.205 c 0,-5.01 4.076,-9.086 9.086,-9.086 5.01,0 9.086,4.076 9.086,9.086 z m -17.102,-58.005 c -9.93,3.354 -17.102,12.752 -17.102,23.8 v 34.205 c 0,11.048 7.172,20.446 17.102,23.8 v 19.49 H 169.954 v -26.188 c 0,-52.161 42.436,-94.597 94.597,-94.597 h 9.086 z"
       id="path60590" /><path
       d="m 133.401,113.512 c -3.131,-3.13 -8.207,-3.13 -11.337,0 -3.131,3.132 -3.131,8.207 0,11.338 l 17.102,17.102 c 3.26,3.259 8.766,3.041 11.763,-0.461 2.687,-3.138 2.493,-7.959 -0.426,-10.878 z"
       id="path60592" /><path
       d="m 179.04,135.749 c 4.427,0 8.017,-3.588 8.017,-8.017 v -25.653 c 0,-4.428 -3.589,-8.017 -8.017,-8.017 -4.428,0 -8.017,3.588 -8.017,8.017 v 25.653 c 0,4.429 3.589,8.017 8.017,8.017 z"
       id="path60594" /><path
       d="M 136.284,162.472 H 110.63 c -4.427,0 -8.017,3.588 -8.017,8.017 0,4.428 3.589,8.017 8.017,8.017 h 25.653 c 4.427,0 8.017,-3.588 8.017,-8.017 10e-4,-4.429 -3.589,-8.017 -8.016,-8.017 z"
       id="path60596" /></g><g
     id="g60764"
     transform="matrix(0.07135637,0,0,0.05434292,48.674703,3.9017085)"><path
       style="fill:#d5dced"
       d="M 486.881,418.472 H 25.119 c -9.446,0 -17.102,-7.656 -17.102,-17.102 V 204.693 c 0,-9.446 7.656,-17.102 17.102,-17.102 h 461.762 c 9.446,0 17.102,7.656 17.102,17.102 V 401.37 c 0,9.445 -7.656,17.102 -17.102,17.102 z"
       id="path60612" /><path
       style="fill:#c7cfe2"
       d="M 136.284,392.818 C 79.612,392.818 33.67,346.876 33.67,290.204 V 187.591 h -8.551 c -9.446,0 -17.102,7.656 -17.102,17.102 V 401.37 c 0,9.446 7.656,17.102 17.102,17.102 h 461.762 c 9.446,0 17.102,-7.656 17.102,-17.102 v -8.551 H 136.284 Z"
       id="path60614" /><path
       d="M 486.881,179.574 H 264.017 v -9.086 c 0,-13.851 -11.268,-25.119 -25.119,-25.119 H 110.63 c -5.01,0 -9.086,-4.076 -9.086,-9.086 0,-5.01 4.076,-9.086 9.086,-9.086 h 256.534 c 13.851,0 25.119,-11.268 25.119,-25.119 v -8.551 c 0,-4.427 -3.589,-8.017 -8.017,-8.017 -4.427,0 -8.017,3.589 -8.017,8.017 v 8.551 c 0,5.01 -4.076,9.086 -9.086,9.086 H 110.63 c -13.851,0 -25.119,11.268 -25.119,25.119 0,13.851 11.268,25.119 25.119,25.119 h 128.267 c 5.01,0 9.086,4.076 9.086,9.086 v 9.086 H 25.119 C 11.268,179.574 0,190.842 0,204.693 V 401.37 c 0,13.851 11.268,25.119 25.119,25.119 H 486.881 C 500.732,426.489 512,415.221 512,401.37 V 204.693 c 0,-13.851 -11.268,-25.119 -25.119,-25.119 z m 9.086,221.796 c 0,5.01 -4.076,9.086 -9.086,9.086 H 25.119 c -5.01,0 -9.086,-4.076 -9.086,-9.086 V 204.693 c 0,-5.01 4.076,-9.086 9.086,-9.086 h 461.762 c 5.01,0 9.086,4.076 9.086,9.086 z"
       id="path60616" /><path
       d="m 50.772,238.363 h 59.858 c 4.427,0 8.017,-3.589 8.017,-8.017 0,-4.428 -3.589,-8.017 -8.017,-8.017 H 50.772 c -4.427,0 -8.017,3.589 -8.017,8.017 0,4.428 3.59,8.017 8.017,8.017 z"
       id="path60618" /><path
       d="m 144.835,238.363 h 8.551 c 4.427,0 8.017,-3.589 8.017,-8.017 0,-4.428 -3.589,-8.017 -8.017,-8.017 h -8.551 c -4.427,0 -8.017,3.589 -8.017,8.017 0,4.428 3.59,8.017 8.017,8.017 z"
       id="path60620" /><path
       d="m 230.347,238.363 h 8.551 c 4.427,0 8.017,-3.589 8.017,-8.017 0,-4.428 -3.589,-8.017 -8.017,-8.017 h -8.551 c -4.427,0 -8.017,3.589 -8.017,8.017 0,4.428 3.589,8.017 8.017,8.017 z"
       id="path60622" /><path
       d="m 187.591,238.363 h 8.551 c 4.427,0 8.017,-3.589 8.017,-8.017 0,-4.428 -3.589,-8.017 -8.017,-8.017 h -8.551 c -4.427,0 -8.017,3.589 -8.017,8.017 0,4.428 3.589,8.017 8.017,8.017 z"
       id="path60624" /><path
       d="m 273.102,238.363 h 8.551 c 4.427,0 8.017,-3.589 8.017,-8.017 0,-4.428 -3.589,-8.017 -8.017,-8.017 h -8.551 c -4.427,0 -8.017,3.589 -8.017,8.017 0,4.428 3.59,8.017 8.017,8.017 z"
       id="path60626" /><path
       d="m 358.614,238.363 h 8.551 c 4.427,0 8.017,-3.589 8.017,-8.017 0,-4.428 -3.589,-8.017 -8.017,-8.017 h -8.551 c -4.427,0 -8.017,3.589 -8.017,8.017 0,4.428 3.589,8.017 8.017,8.017 z"
       id="path60628" /><path
       d="m 461.228,222.33 h -17.102 c -4.427,0 -8.017,3.589 -8.017,8.017 0,4.428 3.589,8.017 8.017,8.017 h 17.102 c 4.427,0 8.017,-3.589 8.017,-8.017 0,-4.428 -3.59,-8.017 -8.017,-8.017 z"
       id="path60630" /><path
       d="m 401.37,238.363 h 8.551 c 4.427,0 8.017,-3.589 8.017,-8.017 0,-4.428 -3.589,-8.017 -8.017,-8.017 h -8.551 c -4.427,0 -8.017,3.589 -8.017,8.017 0,4.428 3.589,8.017 8.017,8.017 z"
       id="path60632" /><path
       d="m 315.858,238.363 h 8.551 c 4.427,0 8.017,-3.589 8.017,-8.017 0,-4.428 -3.589,-8.017 -8.017,-8.017 h -8.551 c -4.427,0 -8.017,3.589 -8.017,8.017 0,4.428 3.59,8.017 8.017,8.017 z"
       id="path60634" /><path
       d="m 127.733,256.534 h -8.551 c -4.427,0 -8.017,3.589 -8.017,8.017 0,4.427 3.589,8.017 8.017,8.017 h 8.551 c 4.427,0 8.017,-3.589 8.017,-8.017 -0.001,-4.427 -3.59,-8.017 -8.017,-8.017 z"
       id="path60636" /><path
       d="m 213.244,256.534 h -8.551 c -4.427,0 -8.017,3.589 -8.017,8.017 0,4.427 3.589,8.017 8.017,8.017 h 8.551 c 4.427,0 8.017,-3.589 8.017,-8.017 0,-4.427 -3.589,-8.017 -8.017,-8.017 z"
       id="path60638" /><path
       d="m 170.489,256.534 h -8.551 c -4.427,0 -8.017,3.589 -8.017,8.017 0,4.427 3.589,8.017 8.017,8.017 h 8.551 c 4.427,0 8.017,-3.589 8.017,-8.017 -0.001,-4.427 -3.59,-8.017 -8.017,-8.017 z"
       id="path60640" /><path
       d="m 256,256.534 h -8.551 c -4.427,0 -8.017,3.589 -8.017,8.017 0,4.427 3.589,8.017 8.017,8.017 H 256 c 4.427,0 8.017,-3.589 8.017,-8.017 0,-4.427 -3.59,-8.017 -8.017,-8.017 z"
       id="path60642" /><path
       d="m 341.511,256.534 h -8.551 c -4.427,0 -8.017,3.589 -8.017,8.017 0,4.427 3.589,8.017 8.017,8.017 h 8.551 c 4.427,0 8.017,-3.589 8.017,-8.017 0,-4.427 -3.589,-8.017 -8.017,-8.017 z"
       id="path60644" /><path
       d="m 384.267,256.534 h -8.551 c -4.427,0 -8.017,3.589 -8.017,8.017 0,4.427 3.589,8.017 8.017,8.017 h 8.551 c 4.427,0 8.017,-3.589 8.017,-8.017 0,-4.427 -3.589,-8.017 -8.017,-8.017 z"
       id="path60646" /><path
       d="m 298.756,256.534 h -8.551 c -4.427,0 -8.017,3.589 -8.017,8.017 0,4.427 3.589,8.017 8.017,8.017 h 8.551 c 4.427,0 8.017,-3.589 8.017,-8.017 -0.001,-4.427 -3.59,-8.017 -8.017,-8.017 z"
       id="path60648" /><path
       d="m 144.835,306.772 h 8.551 c 4.427,0 8.017,-3.589 8.017,-8.017 0,-4.427 -3.589,-8.017 -8.017,-8.017 h -8.551 c -4.427,0 -8.017,3.589 -8.017,8.017 0,4.428 3.59,8.017 8.017,8.017 z"
       id="path60650" /><path
       d="m 230.347,306.772 h 8.551 c 4.427,0 8.017,-3.589 8.017,-8.017 0,-4.427 -3.589,-8.017 -8.017,-8.017 h -8.551 c -4.427,0 -8.017,3.589 -8.017,8.017 0,4.428 3.589,8.017 8.017,8.017 z"
       id="path60652" /><path
       d="m 187.591,306.772 h 8.551 c 4.427,0 8.017,-3.589 8.017,-8.017 0,-4.427 -3.589,-8.017 -8.017,-8.017 h -8.551 c -4.427,0 -8.017,3.589 -8.017,8.017 0,4.428 3.589,8.017 8.017,8.017 z"
       id="path60654" /><path
       d="m 273.102,306.772 h 8.551 c 4.427,0 8.017,-3.589 8.017,-8.017 0,-4.427 -3.589,-8.017 -8.017,-8.017 h -8.551 c -4.427,0 -8.017,3.589 -8.017,8.017 0.001,4.428 3.59,8.017 8.017,8.017 z"
       id="path60656" /><path
       d="m 358.614,306.772 h 8.551 c 4.427,0 8.017,-3.589 8.017,-8.017 0,-4.427 -3.589,-8.017 -8.017,-8.017 h -8.551 c -4.427,0 -8.017,3.589 -8.017,8.017 0,4.428 3.589,8.017 8.017,8.017 z"
       id="path60658" /><path
       d="m 401.37,306.772 h 8.551 c 4.427,0 8.017,-3.589 8.017,-8.017 0,-4.427 -3.589,-8.017 -8.017,-8.017 h -8.551 c -4.427,0 -8.017,3.589 -8.017,8.017 0,4.428 3.589,8.017 8.017,8.017 z"
       id="path60660" /><path
       d="m 315.858,306.772 h 8.551 c 4.427,0 8.017,-3.589 8.017,-8.017 0,-4.427 -3.589,-8.017 -8.017,-8.017 h -8.551 c -4.427,0 -8.017,3.589 -8.017,8.017 0,4.428 3.59,8.017 8.017,8.017 z"
       id="path60662" /><path
       d="m 127.733,324.944 h -8.551 c -4.427,0 -8.017,3.589 -8.017,8.017 0,4.427 3.589,8.017 8.017,8.017 h 8.551 c 4.427,0 8.017,-3.589 8.017,-8.017 -0.001,-4.428 -3.59,-8.017 -8.017,-8.017 z"
       id="path60664" /><path
       d="M 84.977,324.944 H 50.772 c -4.427,0 -8.017,3.589 -8.017,8.017 0,4.427 3.589,8.017 8.017,8.017 h 34.205 c 4.427,0 8.017,-3.589 8.017,-8.017 0,-4.428 -3.59,-8.017 -8.017,-8.017 z"
       id="path60666" /><path
       d="m 461.228,324.944 h -42.756 c -4.427,0 -8.017,3.589 -8.017,8.017 0,4.427 3.589,8.017 8.017,8.017 h 42.756 c 4.427,0 8.017,-3.589 8.017,-8.017 -10e-4,-4.428 -3.59,-8.017 -8.017,-8.017 z"
       id="path60668" /><path
       d="m 50.772,306.772 h 59.858 c 4.427,0 8.017,-3.589 8.017,-8.017 0,-4.427 -3.589,-8.017 -8.017,-8.017 H 50.772 c -4.427,0 -8.017,3.589 -8.017,8.017 10e-4,4.428 3.59,8.017 8.017,8.017 z"
       id="path60670" /><path
       d="m 461.228,290.739 h -17.102 c -4.427,0 -8.017,3.589 -8.017,8.017 0,4.427 3.589,8.017 8.017,8.017 h 17.102 c 4.427,0 8.017,-3.589 8.017,-8.017 -10e-4,-4.428 -3.59,-8.017 -8.017,-8.017 z"
       id="path60672" /><path
       d="m 50.772,272.568 h 34.205 c 4.427,0 8.017,-3.589 8.017,-8.017 0,-4.427 -3.589,-8.017 -8.017,-8.017 H 50.772 c -4.427,0 -8.017,3.589 -8.017,8.017 10e-4,4.428 3.59,8.017 8.017,8.017 z"
       id="path60674" /><path
       d="m 461.228,256.534 h -42.756 c -4.427,0 -8.017,3.589 -8.017,8.017 0,4.427 3.589,8.017 8.017,8.017 h 42.756 c 4.427,0 8.017,-3.589 8.017,-8.017 -10e-4,-4.427 -3.59,-8.017 -8.017,-8.017 z"
       id="path60676" /><path
       d="m 213.244,324.944 h -8.551 c -4.427,0 -8.017,3.589 -8.017,8.017 0,4.427 3.589,8.017 8.017,8.017 h 8.551 c 4.427,0 8.017,-3.589 8.017,-8.017 0,-4.428 -3.589,-8.017 -8.017,-8.017 z"
       id="path60678" /><path
       d="m 170.489,324.944 h -8.551 c -4.427,0 -8.017,3.589 -8.017,8.017 0,4.427 3.589,8.017 8.017,8.017 h 8.551 c 4.427,0 8.017,-3.589 8.017,-8.017 -0.001,-4.428 -3.59,-8.017 -8.017,-8.017 z"
       id="path60680" /><path
       d="m 256,324.944 h -8.551 c -4.427,0 -8.017,3.589 -8.017,8.017 0,4.427 3.589,8.017 8.017,8.017 H 256 c 4.427,0 8.017,-3.589 8.017,-8.017 0,-4.428 -3.59,-8.017 -8.017,-8.017 z"
       id="path60682" /><path
       d="m 341.511,324.944 h -8.551 c -4.427,0 -8.017,3.589 -8.017,8.017 0,4.427 3.589,8.017 8.017,8.017 h 8.551 c 4.427,0 8.017,-3.589 8.017,-8.017 0,-4.428 -3.589,-8.017 -8.017,-8.017 z"
       id="path60684" /><path
       d="m 384.267,324.944 h -8.551 c -4.427,0 -8.017,3.589 -8.017,8.017 0,4.427 3.589,8.017 8.017,8.017 h 8.551 c 4.427,0 8.017,-3.589 8.017,-8.017 0,-4.428 -3.589,-8.017 -8.017,-8.017 z"
       id="path60686" /><path
       d="m 298.756,324.944 h -8.551 c -4.427,0 -8.017,3.589 -8.017,8.017 0,4.427 3.589,8.017 8.017,8.017 h 8.551 c 4.427,0 8.017,-3.589 8.017,-8.017 -0.001,-4.428 -3.59,-8.017 -8.017,-8.017 z"
       id="path60688" /><path
       d="m 153.386,359.148 h -8.551 c -4.427,0 -8.017,3.589 -8.017,8.017 0,4.427 3.589,8.017 8.017,8.017 h 8.551 c 4.427,0 8.017,-3.589 8.017,-8.017 0,-4.427 -3.589,-8.017 -8.017,-8.017 z"
       id="path60690" /><path
       d="m 110.63,359.148 h -8.551 c -4.427,0 -8.017,3.589 -8.017,8.017 0,4.427 3.589,8.017 8.017,8.017 h 8.551 c 4.427,0 8.017,-3.589 8.017,-8.017 0,-4.427 -3.589,-8.017 -8.017,-8.017 z"
       id="path60692" /><path
       d="M 67.875,359.148 H 50.772 c -4.427,0 -8.017,3.589 -8.017,8.017 0,4.427 3.589,8.017 8.017,8.017 h 17.102 c 4.427,0 8.017,-3.589 8.017,-8.017 0,-4.427 -3.589,-8.017 -8.016,-8.017 z"
       id="path60694" /><path
       d="m 461.228,359.148 h -17.102 c -4.427,0 -8.017,3.589 -8.017,8.017 0,4.427 3.589,8.017 8.017,8.017 h 17.102 c 4.427,0 8.017,-3.589 8.017,-8.017 -10e-4,-4.427 -3.59,-8.017 -8.017,-8.017 z"
       id="path60696" /><path
       d="m 238.898,359.148 h -8.551 c -4.427,0 -8.017,3.589 -8.017,8.017 0,4.427 3.589,8.017 8.017,8.017 h 8.551 c 4.427,0 8.017,-3.589 8.017,-8.017 -0.001,-4.427 -3.59,-8.017 -8.017,-8.017 z"
       id="path60698" /><path
       d="m 196.142,359.148 h -8.551 c -4.427,0 -8.017,3.589 -8.017,8.017 0,4.427 3.589,8.017 8.017,8.017 h 8.551 c 4.427,0 8.017,-3.589 8.017,-8.017 0,-4.427 -3.59,-8.017 -8.017,-8.017 z"
       id="path60700" /><path
       d="m 281.653,359.148 h -8.551 c -4.427,0 -8.017,3.589 -8.017,8.017 0,4.427 3.589,8.017 8.017,8.017 h 8.551 c 4.427,0 8.017,-3.589 8.017,-8.017 0,-4.427 -3.589,-8.017 -8.017,-8.017 z"
       id="path60702" /><path
       d="m 367.165,359.148 h -8.551 c -4.427,0 -8.017,3.589 -8.017,8.017 0,4.427 3.589,8.017 8.017,8.017 h 8.551 c 4.427,0 8.017,-3.589 8.017,-8.017 0,-4.427 -3.59,-8.017 -8.017,-8.017 z"
       id="path60704" /><path
       d="m 409.921,359.148 h -8.551 c -4.427,0 -8.017,3.589 -8.017,8.017 0,4.427 3.589,8.017 8.017,8.017 h 8.551 c 4.427,0 8.017,-3.589 8.017,-8.017 -10e-4,-4.427 -3.59,-8.017 -8.017,-8.017 z"
       id="path60706" /><path
       d="m 324.409,359.148 h -8.551 c -4.427,0 -8.017,3.589 -8.017,8.017 0,4.427 3.589,8.017 8.017,8.017 h 8.551 c 4.427,0 8.017,-3.589 8.017,-8.017 0,-4.427 -3.589,-8.017 -8.017,-8.017 z"
       id="path60708" /></g><g
     id="g60787"
     transform="matrix(0.04715117,0,0,0.03979775,36.194784,-28.158124)"><path
       d="M 841.8938,97.371494 H 180.39938 c -13.50198,0 -24.45448,10.955576 -24.45448,24.454476 v 431.9762 c 0,1.20921 0.50887,2.22695 0.70136,3.37472 0.7628,11.39892 9.1689,21.20774 20.82583,22.86336 l 65.78361,9.23442 c 50.43966,7.25833 111.76937,16.11084 167.93665,22.16302 v 32.41417 H 186.83347 c -13.50197,0 -24.45447,10.9525 -24.45447,24.45447 V 904.3846 c 0,13.50197 10.9525,24.45447 24.45447,24.45447 h 652.19448 c 13.50198,0 24.45448,-10.9525 24.45448,-24.45447 V 668.30736 c 0,-13.50198 -10.9525,-24.45448 -24.45448,-24.45448 H 602.75617 v -31.07697 c 57.57,-5.85969 121.76659,-15.34804 173.79634,-22.99134 l 68.58803,-9.74329 c 12.41973,-1.78361 21.3347,-12.80164 20.95279,-25.09441 0,-0.38191 0.25393,-0.69829 0.25393,-1.1447 V 121.82699 c 10e-4,-13.4989 -10.95148,-24.455496 -24.45346,-24.455496 z"
       fill="#27323a"
       id="path60766" /><path
       d="m 211.28795,692.76184 h 603.2845 v 187.16828 h -603.2845 z"
       fill="#f4ce73"
       id="path60768" /><path
       d="m 460.10232,643.85186 v -27.89473 c 19.67806,1.46722 38.08444,2.42251 53.8789,2.42251 11.97331,0 25.59918,-0.63891 39.86497,-1.52969 v 27.00191 z m 357.33598,-109.2844 -48.01612,6.81498 c -80.37193,11.84635 -190.35462,28.08722 -255.43994,28.08722 -66.10613,0 -180.29187,-16.56135 -263.65661,-28.59609 L 204.8559,534.505 V 146.28147 h 612.58343 v 388.28599 z"
       fill="#ffffff"
       id="path60770" /><path
       d="m 599.25448,798.41349 h 163.60664 c 13.4989,0 24.45448,-10.9525 24.45448,-24.4555 0,-13.49891 -10.95558,-24.45448 -24.45448,-24.45448 H 599.25448 c -13.50197,0 -24.45447,10.95557 -24.45447,24.45448 0,13.503 10.9525,24.4555 24.45447,24.4555 z M 489.39978,541.12851 c 0,-12.03474 9.80473,-21.84357 21.84357,-21.84357 11.97331,0 21.78111,9.8078 21.78111,21.84357 0,11.97332 -9.8078,21.78112 -21.78111,21.78112 -12.03885,0 -21.84357,-9.80882 -21.84357,-21.78112 z M 250.77204,167.48921 c -8.9805,0 -16.30332,7.26139 -16.30332,16.30332 v 310.01712 c 0,9.04501 7.32282,16.30333 16.30332,16.30333 h 520.87709 c 8.98049,0 16.30332,-7.25832 16.30332,-16.30333 V 183.79253 c 0,-9.04193 -7.32283,-16.30332 -16.30332,-16.30332 z"
       fill="#27323a"
       id="path60772" /><path
       d="M 755.3458,200.09586 V 477.50633 H 267.07537 V 200.09586 Z"
       fill="#79ccbf"
       id="path60774" /></g></g><style
   type="text/css"
   id="style32261">
	.st0{fill:#BF7D2C;}
	.st1{fill:#C9942C;}
	.st2{fill:#656A73;}
	.st3{fill:#7D828C;}
	.st4{fill:#5C6373;}
	.st5{fill:#4F4228;}
	.st6{fill:#91AAB4;}
	.st7{fill:#A88C55;}
	.st8{fill:#6B5936;}
	.st9{fill:#3E606F;}
</style></svg>
