<?xml version="1.0" encoding="UTF-8" standalone="no"?>
<!-- Uploaded to: SVG Repo, www.svgrepo.com, Generator: SVG Repo Mixer Tools -->

<svg
   fill="#000000"
   width="799.93835"
   height="443.63797"
   viewBox="0 -27.73 122.87053 68.142792"
   version="1.1"
   id="Layer_1"
   xml:space="preserve"
   sodipodi:docname="bilgisayarsistem-ic.svg"
   inkscape:version="1.2.2 (b0a8486541, 2022-12-01)"
   xmlns:inkscape="http://www.inkscape.org/namespaces/inkscape"
   xmlns:sodipodi="http://sodipodi.sourceforge.net/DTD/sodipodi-0.dtd"
   xmlns="http://www.w3.org/2000/svg"
   xmlns:svg="http://www.w3.org/2000/svg"><defs
   id="defs1875"><clipPath
   clipPathUnits="userSpaceOnUse"
   id="clipPath15564"><g
     id="g15568"
     transform="translate(-2.6856513,-1.5887216)"><g
       inkscape:label="Clip"
       id="use15566"
       transform="translate(2.6856513,1.588721)"
       clip-path="url(#clipPath15564)"><g
         id="g15744"
         clip-path="none"
         transform="translate(2.6856513,1.588721)"><g
           id="g15572"
           transform="matrix(0.31600234,0,0,0.30689409,75.726475,8.9374409)">

<path
   d="m 79.93,51.37 c -0.53,-0.51 -0.32,-1.2 0.48,-1.54 0.8,-0.34 1.87,-0.2 2.41,0.3 3.78,3.6 1.96,6.52 0.21,9.32 -1.32,2.12 -2.59,4.15 -0.25,6.19 0.57,0.5 0.4,1.19 -0.37,1.55 -0.77,0.36 -1.86,0.26 -2.43,-0.24 -3.47,-3.03 -1.86,-5.62 -0.17,-8.32 1.41,-2.27 2.89,-4.63 0.12,-7.26 z M 14.57,28.11 h 73.65 c 0.96,0 1.74,0.78 1.74,1.74 v 12.26 h 24.13 c 1.46,0 2.79,-0.6 3.75,-1.56 0.96,-0.96 1.56,-2.29 1.56,-3.75 v -28 c 0,-1.46 -0.6,-2.79 -1.56,-3.75 -0.96,-0.96 -2.29,-1.56 -3.75,-1.56 H 8.8 C 7.34,3.49 6.01,4.09 5.05,5.05 4.08,6.01 3.48,7.34 3.48,8.8 v 28 c 0,1.46 0.6,2.79 1.56,3.75 0.96,0.96 2.29,1.56 3.75,1.56 h 4.03 V 29.85 c 0.01,-0.96 0.79,-1.74 1.75,-1.74 z m 71.91,3.48 H 16.31 V 41.68 H 86.48 Z M 15.21,13.64 c -0.96,0 -1.74,-0.78 -1.74,-1.74 0,-0.96 0.78,-1.74 1.74,-1.74 h 93.74 c 0.96,0 1.74,0.78 1.74,1.74 0,0.96 -0.78,1.74 -1.74,1.74 z m 83.37,18.35 c 1.36,0 2.46,1.1 2.46,2.46 0,1.36 -1.1,2.46 -2.46,2.46 -1.36,0 -2.46,-1.1 -2.46,-2.46 0,-1.36 1.11,-2.46 2.46,-2.46 z m 10.27,0 c 1.36,0 2.46,1.1 2.46,2.46 0,1.36 -1.1,2.46 -2.46,2.46 -1.36,0 -2.46,-1.1 -2.46,-2.46 0,-1.36 1.1,-2.46 2.46,-2.46 z M 8.8,0 h 105.29 c 2.42,0 4.62,0.99 6.21,2.58 1.59,1.59 2.58,3.79 2.58,6.21 V 36.8 c 0,2.42 -0.99,4.62 -2.58,6.21 -1.59,1.59 -3.79,2.58 -6.21,2.58 H 8.8 C 6.38,45.59 4.18,44.6 2.59,43.01 0.99,41.42 0,39.22 0,36.8 V 8.8 C 0,6.38 0.99,4.18 2.58,2.59 4.18,0.99 6.38,0 8.8,0 Z m 6.41,21.76 c -0.96,0 -1.74,-0.78 -1.74,-1.74 0,-0.96 0.78,-1.74 1.74,-1.74 h 93.74 c 0.96,0 1.74,0.78 1.74,1.74 0,0.96 -0.78,1.74 -1.74,1.74 z m 6.16,29.61 c -0.53,-0.51 -0.32,-1.2 0.48,-1.54 0.8,-0.34 1.87,-0.2 2.41,0.3 3.78,3.6 1.96,6.52 0.21,9.32 -1.32,2.12 -2.59,4.15 -0.25,6.19 0.57,0.5 0.4,1.19 -0.37,1.55 -0.77,0.36 -1.86,0.26 -2.43,-0.24 -3.47,-3.03 -1.86,-5.62 -0.17,-8.32 1.41,-2.27 2.88,-4.63 0.12,-7.26 z m 14.64,0 c -0.53,-0.51 -0.32,-1.2 0.48,-1.54 0.8,-0.34 1.87,-0.2 2.41,0.3 3.78,3.6 1.96,6.52 0.21,9.32 -1.32,2.12 -2.59,4.15 -0.25,6.19 0.57,0.5 0.4,1.19 -0.37,1.55 -0.77,0.36 -1.86,0.26 -2.43,-0.24 -3.47,-3.03 -1.86,-5.62 -0.17,-8.32 1.41,-2.27 2.88,-4.63 0.12,-7.26 z m 14.64,0 c -0.53,-0.51 -0.32,-1.2 0.48,-1.54 0.8,-0.34 1.87,-0.2 2.41,0.3 3.78,3.6 1.96,6.52 0.21,9.32 -1.32,2.12 -2.59,4.15 -0.25,6.19 0.57,0.5 0.4,1.19 -0.37,1.55 -0.77,0.36 -1.86,0.26 -2.43,-0.24 -3.47,-3.03 -1.86,-5.62 -0.17,-8.32 1.41,-2.27 2.89,-4.63 0.12,-7.26 z m 14.64,0 c -0.53,-0.51 -0.32,-1.2 0.48,-1.54 0.8,-0.34 1.87,-0.2 2.41,0.3 3.78,3.6 1.96,6.52 0.21,9.32 -1.32,2.12 -2.59,4.15 -0.25,6.19 0.57,0.5 0.4,1.19 -0.37,1.55 -0.77,0.36 -1.86,0.26 -2.43,-0.24 -3.47,-3.03 -1.85,-5.62 -0.17,-8.32 1.41,-2.27 2.89,-4.63 0.12,-7.26 z"
   id="path15570" />

</g><g
           id="g15584"
           transform="matrix(0.03702094,0,0,0.03373472,-3.5859266,-29.1693)"><path
             d="M 841.8938,97.371494 H 180.39938 c -13.50198,0 -24.45448,10.955576 -24.45448,24.454476 v 431.9762 c 0,1.20921 0.50887,2.22695 0.70136,3.37472 0.7628,11.39892 9.1689,21.20774 20.82583,22.86336 l 65.78361,9.23442 c 50.43966,7.25833 111.76937,16.11084 167.93665,22.16302 v 32.41417 H 186.83347 c -13.50197,0 -24.45447,10.9525 -24.45447,24.45447 V 904.3846 c 0,13.50197 10.9525,24.45447 24.45447,24.45447 h 652.19448 c 13.50198,0 24.45448,-10.9525 24.45448,-24.45447 V 668.30736 c 0,-13.50198 -10.9525,-24.45448 -24.45448,-24.45448 H 602.75617 v -31.07697 c 57.57,-5.85969 121.76659,-15.34804 173.79634,-22.99134 l 68.58803,-9.74329 c 12.41973,-1.78361 21.3347,-12.80164 20.95279,-25.09441 0,-0.38191 0.25393,-0.69829 0.25393,-1.1447 V 121.82699 c 10e-4,-13.4989 -10.95148,-24.455496 -24.45346,-24.455496 z"
             fill="#27323a"
             id="path15574" /><path
             d="m 211.28795,692.76184 h 603.2845 v 187.16828 h -603.2845 z"
             fill="#f4ce73"
             id="path15576" /><path
             d="m 460.10232,643.85186 v -27.89473 c 19.67806,1.46722 38.08444,2.42251 53.8789,2.42251 11.97331,0 25.59918,-0.63891 39.86497,-1.52969 v 27.00191 z m 357.33598,-109.2844 -48.01612,6.81498 c -80.37193,11.84635 -190.35462,28.08722 -255.43994,28.08722 -66.10613,0 -180.29187,-16.56135 -263.65661,-28.59609 L 204.8559,534.505 V 146.28147 h 612.58343 v 388.28599 z"
             fill="#ffffff"
             id="path15578" /><path
             d="m 599.25448,798.41349 h 163.60664 c 13.4989,0 24.45448,-10.9525 24.45448,-24.4555 0,-13.49891 -10.95558,-24.45448 -24.45448,-24.45448 H 599.25448 c -13.50197,0 -24.45447,10.95557 -24.45447,24.45448 0,13.503 10.9525,24.4555 24.45447,24.4555 z M 489.39978,541.12851 c 0,-12.03474 9.80473,-21.84357 21.84357,-21.84357 11.97331,0 21.78111,9.8078 21.78111,21.84357 0,11.97332 -9.8078,21.78112 -21.78111,21.78112 -12.03885,0 -21.84357,-9.80882 -21.84357,-21.78112 z M 250.77204,167.48921 c -8.9805,0 -16.30332,7.26139 -16.30332,16.30332 v 310.01712 c 0,9.04501 7.32282,16.30333 16.30332,16.30333 h 520.87709 c 8.98049,0 16.30332,-7.25832 16.30332,-16.30333 V 183.79253 c 0,-9.04193 -7.32283,-16.30332 -16.30332,-16.30332 z"
             fill="#27323a"
             id="path15580" /><path
             d="M 755.3458,200.09586 V 477.50633 H 267.07537 V 200.09586 Z"
             fill="#79ccbf"
             id="path15582" /></g><g
           id="g15646"
           transform="matrix(0.05673058,0,0,0.05992302,46.198684,8.3646221)"><path
             style="fill:#82afaf"
             d="m 427.2,479.2 c 0,8.8 -7.2,15.2 -15.2,15.2 H 82.4 c -8.8,0 -15.2,-7.2 -15.2,-15.2 V 15.2 C 67.2,6.4 74.4,0 82.4,0 h 328.8 c 8.8,0 15.2,7.2 15.2,15.2 v 464 z"
             id="path15586" /><path
             style="fill:#76a3a2"
             d="M 67.2,15.2 C 67.2,6.4 74.4,0 82.4,0 h 328.8 c 8.8,0 15.2,7.2 15.2,15.2 v 464 c 0,8.8 -7.2,15.2 -15.2,15.2"
             id="path15588" /><g
             id="g15594">
	<polygon
   style="fill:#669694"
   points="427.2,374.4 427.2,262.4 303.2,136.8 192,136.8 "
   id="polygon15590" />
	<path
   style="fill:#669694"
   d="M 412,23.2 H 82.4 c -8.8,0 -15.2,7.2 -15.2,15.2 v 90.4 h 360 V 38.4 c 0,-8 -7.2,-15.2 -15.2,-15.2 z"
   id="path15592" />
</g><path
             style="fill:#a3d0d1"
             d="M 412,0 H 82.4 c -8,0 -15.2,7.2 -15.2,15.2 v 90.4 h 360 V 15.2 C 427.2,7.2 420,0 412,0 Z"
             id="path15596" /><path
             style="fill:#91c4c4"
             d="M 427.2,106.4 V 15.2 C 427.2,6.4 420,0 412,0 H 82.4 c -8,0 -15.2,7.2 -15.2,15.2"
             id="path15598" /><path
             style="fill:#b3e0e0"
             d="M 412,0 H 82.4 c -8,0 -15.2,7.2 -15.2,15.2 v 7.2 c 0,-8.8 7.2,-15.2 15.2,-15.2 h 328.8 c 8.8,0 15.2,7.2 15.2,15.2 V 15.2 C 427.2,7.2 420,0 412,0 Z"
             id="path15600" /><path
             style="fill:#a3d0d1"
             d="m 67.2,464.8 v 14.4 c 0,8.8 7.2,15.2 15.2,15.2 h 328.8 c 8.8,0 15.2,-7.2 15.2,-15.2 v -14.4 z"
             id="path15602" /><rect
             x="67.199997"
             y="99.199997"
             style="fill:#b3e0e0"
             width="360"
             height="7.1999998"
             id="rect15604" /><path
             style="fill:#a3d0d1"
             d="m 308,136.8 c 0,5.6 -4,9.6 -9.6,9.6 H 196 c -5.6,0 -9.6,-4 -9.6,-9.6 v 0 c 0,-5.6 4,-9.6 9.6,-9.6 h 103.2 c 4.8,0 8.8,4.8 8.8,9.6 z"
             id="path15606" /><path
             style="fill:#b3e0e0"
             d="M 298.4,127.2 H 196 c -4,0 -8,2.4 -8.8,6.4 1.6,4 4.8,6.4 8.8,6.4 h 103.2 c 4,0 8,-2.4 8.8,-6.4 -1.6,-3.2 -4.8,-6.4 -9.6,-6.4 z"
             id="path15608" /><path
             style="fill:#137d8e"
             d="m 124,52 c 0,10.4 -8,18.4 -18.4,18.4 -10.4,0 -18.4,-8 -18.4,-18.4 0,-10.4 8,-20 18.4,-20 10.4,0 18.4,9.6 18.4,20 z"
             id="path15610" /><path
             style="fill:#72a2a5"
             d="m 124,52 c 0,10.4 -8,27.2 -18.4,27.2 -10.4,0 -18.4,-17.6 -18.4,-27.2 0,-10.4 8,-17.6 18.4,-17.6 10.4,0 18.4,7.2 18.4,17.6 z"
             id="path15612" /><circle
             style="fill:#185b6b"
             cx="105.6"
             cy="52"
             r="18.4"
             id="circle15614" /><path
             style="fill:#073b44"
             d="m 119.2,38.4 c 7.2,7.2 7.2,19.2 0,26.4 C 112,72 100,72 92.8,64.8"
             id="path15616" /><circle
             style="fill:#b8d7e0"
             cx="115.2"
             cy="42.400002"
             r="1.6"
             id="circle15618" /><path
             style="fill:#137d8e"
             d="m 168.8,52 c 0,10.4 -8,18.4 -18.4,18.4 -10.4,0 -18.4,-8 -18.4,-18.4 0,-10.4 8,-20 18.4,-20 10.4,0 18.4,9.6 18.4,20 z"
             id="path15620" /><path
             style="fill:#72a2a5"
             d="m 168.8,52 c 0,10.4 -8,27.2 -18.4,27.2 C 140,79.2 132,62.4 132,52 c 0,-10.4 8,-17.6 18.4,-17.6 10.4,0 18.4,7.2 18.4,17.6 z"
             id="path15622" /><circle
             style="fill:#185b6b"
             cx="150.39999"
             cy="52"
             r="18.4"
             id="circle15624" /><path
             style="fill:#073b44"
             d="m 163.2,38.4 c 7.2,7.2 7.2,19.2 0,26.4 -7.2,7.2 -19.2,7.2 -26.4,0"
             id="path15626" /><circle
             style="fill:#b8d7e0"
             cx="160"
             cy="42.400002"
             r="1.6"
             id="circle15628" /><path
             style="fill:#137d8e"
             d="m 213.6,52 c 0,10.4 -8,18.4 -18.4,18.4 -10.4,0 -18.4,-8 -18.4,-18.4 0,-10.4 8,-20 18.4,-20 10.4,0 18.4,9.6 18.4,20 z"
             id="path15630" /><path
             style="fill:#72a2a5"
             d="m 213.6,52 c 0,10.4 -8,27.2 -18.4,27.2 -10.4,0 -18.4,-16.8 -18.4,-27.2 0,-10.4 8,-17.6 18.4,-17.6 10.4,0 18.4,7.2 18.4,17.6 z"
             id="path15632" /><circle
             style="fill:#185b6b"
             cx="195.2"
             cy="52"
             r="18.4"
             id="circle15634" /><path
             style="fill:#073b44"
             d="m 208,38.4 c 7.2,7.2 7.2,19.2 0,26.4 -7.2,7.2 -19.2,7.2 -26.4,0"
             id="path15636" /><circle
             style="fill:#b8d7e0"
             cx="204.8"
             cy="42.400002"
             r="1.6"
             id="circle15638" /><path
             style="fill:#53ad8a"
             d="m 398.4,67.2 c 0,4 -3.2,7.2 -7.2,7.2 H 290.4 c -4,0 -7.2,-3.2 -7.2,-7.2 V 41.6 c 0,-4 3.2,-7.2 7.2,-7.2 h 100.8 c 4,0 7.2,3.2 7.2,7.2 z"
             id="path15640" /><path
             style="fill:#3ca589"
             d="M 391.2,34.4 H 290.4 c -4,0 -7.2,3.2 -7.2,7.2 v 23.2 c 0,4 3.2,7.2 7.2,7.2 h 100.8 c 4,0 7.2,-3.2 7.2,-7.2 V 41.6 c 0,-4 -3.2,-7.2 -7.2,-7.2 z"
             id="path15642" /><path
             style="fill:#319385"
             d="m 283.2,64.8 c 0,4 3.2,7.2 7.2,7.2 h 100.8 c 4,0 7.2,-3.2 7.2,-7.2 V 41.6 c 0,-4 -3.2,-7.2 -7.2,-7.2"
             id="path15644" /></g><g
           id="g15682"
           transform="matrix(0.0652863,0,0,0.06406848,83.040057,-28.334524)"><path
             style="fill:#54686c"
             d="M 126.527,136.399 H 41.796 c -17.312,0 -31.347,13.992 -31.347,31.251 v 248.812 c 0,17.26 14.035,31.251 31.347,31.251 h 428.408 c 17.312,0 31.347,-13.689 31.347,-30.948 V 167.651 c 0,-17.259 -14.035,-31.251 -31.347,-31.251 H 385.473 126.527 Z"
             id="path15648" /><g
             id="g15654">
	<path
   style="fill:#87a3aa"
   d="m 10.449,407.051 v 9.411 c 0,17.26 14.035,31.251 31.347,31.251 h 428.408 c 17.312,0 31.347,-13.689 31.347,-30.948 v -9.714 z"
   id="path15650" />
	<path
   style="fill:#87a3aa"
   d="M 470.204,136.399 H 385.473 126.527 41.796 c -17.312,0 -31.347,13.992 -31.347,31.251 v 7.377 h 491.102 v -7.377 c 0,-17.258 -14.035,-31.251 -31.347,-31.251 z"
   id="path15652" />
</g><circle
             style="fill:#54686c"
             cx="327.272"
             cy="292.332"
             r="114.719"
             id="circle15656" /><rect
             x="55.380001"
             y="99.830002"
             style="fill:#faf9f9"
             width="78.366997"
             height="36.570999"
             id="rect15658" /><polygon
             style="fill:#54686c"
             points="418.544,135.37 236.006,135.37 249.59,64.287 403.916,64.287 "
             id="polygon15660" /><circle
             style="fill:#87a3aa"
             cx="327.272"
             cy="292.332"
             r="77.198997"
             id="circle15662" /><circle
             style="fill:#54686c"
             cx="327.272"
             cy="292.332"
             r="42.369999"
             id="circle15664" /><path
             d="m 327.276,167.155 c -69.021,0 -125.173,56.152 -125.173,125.173 0,69.021 56.152,125.172 125.173,125.172 69.021,0 125.172,-56.152 125.172,-125.173 0,-69.021 -56.152,-125.172 -125.172,-125.172 z m 0,229.447 c -57.497,0 -104.275,-46.778 -104.275,-104.275 0,-57.497 46.778,-104.275 104.275,-104.275 57.497,0 104.274,46.779 104.274,104.275 0,57.496 -46.778,104.275 -104.274,104.275 z"
             id="path15666" /><path
             d="m 327.276,204.679 c -48.329,0 -87.648,39.318 -87.648,87.648 0,48.33 39.318,87.648 87.648,87.648 48.33,0 87.648,-39.318 87.648,-87.648 0,-48.33 -39.32,-87.648 -87.648,-87.648 z m 0,154.399 c -36.807,0 -66.75,-29.944 -66.75,-66.75 0,-36.806 29.944,-66.75 66.75,-66.75 36.806,0 66.75,29.944 66.75,66.75 0,36.806 -29.945,66.75 -66.75,66.75 z"
             id="path15668" /><path
             d="m 346.687,266.983 c 0.065,0.051 0.161,0.127 0.227,0.177 1.892,1.441 4.116,2.138 6.324,2.138 3.149,0 6.263,-1.418 8.318,-4.117 3.483,-4.57 2.619,-11.091 -1.919,-14.599 -4.504,-3.511 -11.004,-2.756 -14.582,1.715 -3.605,4.506 -2.874,11.082 1.632,14.686 z"
             id="path15670" /><path
             d="m 359.196,292.327 c 0,17.601 -14.319,31.921 -31.921,31.921 -17.601,0 -31.921,-14.319 -31.921,-31.921 0,-5.771 -4.678,-10.449 -10.449,-10.449 -5.771,0 -10.449,4.678 -10.449,10.449 0,29.124 23.694,52.819 52.819,52.819 29.124,0 52.819,-23.694 52.819,-52.819 0,-5.771 -4.678,-10.449 -10.449,-10.449 -5.771,0 -10.449,4.678 -10.449,10.449 z"
             id="path15672" /><path
             d="m 456.62,167.38 c -5.762,0 -10.449,4.687 -10.449,10.449 0,5.762 4.687,10.449 10.449,10.449 5.762,0 10.449,-4.687 10.449,-10.449 0,-5.762 -4.687,-10.449 -10.449,-10.449 z"
             id="path15674" /><path
             d="m 470.204,125.95 h -42.93 L 414.15,62.18 c -1,-4.857 -5.276,-8.342 -10.235,-8.342 H 249.59 c -5.014,0 -9.322,3.562 -10.263,8.488 l -12.158,63.625 H 144.197 V 99.828 c 0,-5.771 -4.678,-10.449 -10.449,-10.449 H 55.38 c -5.771,0 -10.449,4.678 -10.449,10.449 V 125.95 H 41.796 C 18.75,125.95 0,144.657 0,167.65 v 248.812 c 0,22.993 18.75,41.7 41.796,41.7 h 428.408 c 23.046,0 41.796,-18.57 41.796,-41.397 V 167.651 C 512,144.657 493.25,125.95 470.204,125.95 Z M 258.231,74.736 h 137.168 l 10.328,50.184 H 248.641 Z M 65.829,110.277 h 57.469 V 125.95 H 65.829 Z m 425.273,306.489 c 0,11.495 -9.179,20.499 -20.898,20.499 H 41.796 c -11.171,0 -20.297,-8.777 -20.845,-19.765 h 174.631 c 5.771,0 10.449,-4.678 10.449,-10.449 0,-5.771 -4.678,-10.449 -10.449,-10.449 H 20.898 V 188.053 h 174.683 c 5.771,0 10.449,-4.678 10.449,-10.449 0,-5.771 -4.678,-10.449 -10.449,-10.449 H 20.923 c 0.267,-11.24 9.518,-20.307 20.873,-20.307 h 428.408 c 11.523,0 20.898,9.332 20.898,20.802 z"
             id="path15676" /><path
             d="m 229.522,396.602 h -0.137 c -5.771,0 -10.449,4.678 -10.449,10.449 0,5.771 4.678,10.449 10.449,10.449 h 0.137 c 5.771,0 10.449,-4.678 10.449,-10.449 0,-5.771 -4.678,-10.449 -10.449,-10.449 z"
             id="path15678" /><path
             d="m 229.385,188.053 h 0.137 c 5.771,0 10.449,-4.678 10.449,-10.449 0,-5.771 -4.678,-10.449 -10.449,-10.449 h -0.137 c -5.771,0 -10.449,4.678 -10.449,10.449 0,5.771 4.678,10.449 10.449,10.449 z"
             id="path15680" /></g><g
           id="g15698"
           transform="matrix(0.04785007,0,0,0.05177577,47.739577,-25.414407)"><path
             style="fill:#48cfad"
             d="m 128.007,501.311 c -17.656,0 -31.999,-14.359 -31.999,-32 V 42.654 c 0,-17.64 14.343,-31.999 31.999,-31.999 h 255.984 c 17.654,0 31.998,14.359 31.998,31.999 v 426.657 c 0,17.641 -14.344,32 -31.998,32 z"
             id="path15684" /><path
             style="fill:#5d9cec"
             d="m 371.116,354.878 -0.906,-0.281 c -15.094,-4.094 -26.156,-7.983 -32.844,-10.562 -23.592,-9.078 -29.779,-15.641 -31.342,-18.733 -0.031,-0.109 -0.094,-0.234 -0.156,-0.344 l -0.188,-28.891 -100.911,1.156 -0.203,27.734 c -0.047,0.109 -0.094,0.234 -0.141,0.344 -1.578,3.093 -7.719,9.655 -31.343,18.749 -6.656,2.562 -17.75,6.452 -32.718,10.515 l -1.016,0.312 c -13.625,4.547 -22.78,17.312 -22.78,31.719 v 40.045 h 277.326 v -40.045 c 10e-4,-14.406 -9.153,-27.171 -22.778,-31.718 z"
             id="path15686" /><path
             style="fill:#eac6bb"
             d="m 333.803,243.288 c 0,51.061 -48.686,100.153 -78.583,100.153 -29.905,0 -78.575,-49.093 -78.575,-100.153 0,-51.06 35.186,-84.747 78.575,-84.747 43.398,0 78.583,33.686 78.583,84.747 z"
             id="path15688" /><path
             style="fill:#a85d5d"
             d="m 305.868,149.307 c -13.375,-12.109 -58.177,-26.968 -102.864,0 -22.624,13.64 -39.092,73.95 -39.092,73.95 0,0 44.139,25.015 101.591,-2.016 34.396,-16.187 33.615,-7.703 43.428,7.031 5.844,8.734 24.873,15.015 24.873,15.015 0,0 14.812,-55.278 -27.936,-93.98 z"
             id="path15690" /><path
             style="fill:#434a54"
             d="M 383.991,0 H 128.007 C 104.43,0 85.337,19.093 85.337,42.654 v 426.657 c 0,23.562 19.093,42.671 42.67,42.671 h 255.984 c 23.561,0 42.654,-19.108 42.654,-42.671 V 42.654 C 426.645,19.093 407.552,0 383.991,0 Z m 21.342,469.311 c 0,11.766 -9.594,21.328 -21.342,21.328 H 128.007 c -11.765,0 -21.343,-9.562 -21.343,-21.328 V 42.654 c 0,-11.765 9.578,-21.327 21.343,-21.327 h 255.984 c 11.748,0 21.342,9.562 21.342,21.327 z"
             id="path15692" /><path
             style="fill:#434a54"
             d="m 96.008,405.313 v 63.998 c 0,17.641 14.343,32 31.999,32 h 255.984 c 17.654,0 31.998,-14.359 31.998,-32 v -63.998 z"
             id="path15694" /><path
             style="fill:#656d78"
             d="m 256.002,426.641 c -17.687,0 -31.999,14.328 -31.999,31.999 0,17.671 14.312,31.999 31.999,31.999 17.678,0 31.991,-14.328 31.991,-31.999 0,-17.671 -14.313,-31.999 -31.991,-31.999 z m 0,42.67 c -5.89,0 -10.671,-4.781 -10.671,-10.671 0,-5.875 4.781,-10.656 10.671,-10.656 5.875,0 10.657,4.781 10.657,10.656 0,5.89 -4.781,10.671 -10.657,10.671 z"
             id="path15696" /></g><g
           id="g15720"
           transform="matrix(0.1536,0,0,0.1536,56.9856,8.4284814)"><rect
             y="5.5"
             style="fill:#38454f"
             width="58"
             height="38"
             id="rect15700"
             x="0" /><path
             style="fill:#61b872"
             d="M 13.962,21.5 H 11.038 C 10.465,21.5 10,21.035 10,20.462 V 17.538 C 10,16.965 10.465,16.5 11.038,16.5 h 2.924 c 0.573,0 1.038,0.465 1.038,1.038 v 2.924 c 0,0.573 -0.465,1.038 -1.038,1.038 z"
             id="path15702" /><path
             style="fill:#48a0dc"
             d="M 24.962,21.5 H 22.038 C 21.465,21.5 21,21.035 21,20.462 V 17.538 C 21,16.965 21.465,16.5 22.038,16.5 h 2.924 c 0.573,0 1.038,0.465 1.038,1.038 v 2.924 c 0,0.573 -0.465,1.038 -1.038,1.038 z"
             id="path15704" /><path
             style="fill:#ebba16"
             d="M 35.962,21.5 H 33.038 C 32.465,21.5 32,21.035 32,20.462 V 17.538 C 32,16.965 32.465,16.5 33.038,16.5 h 2.924 c 0.573,0 1.038,0.465 1.038,1.038 v 2.924 c 0,0.573 -0.465,1.038 -1.038,1.038 z"
             id="path15706" /><path
             style="fill:#bf4d90"
             d="M 46.962,21.5 H 44.038 C 43.465,21.5 43,21.035 43,20.462 V 17.538 C 43,16.965 43.465,16.5 44.038,16.5 h 2.924 c 0.573,0 1.038,0.465 1.038,1.038 v 2.924 c 0,0.573 -0.465,1.038 -1.038,1.038 z"
             id="path15708" /><path
             style="fill:#dd352e"
             d="M 13.962,32.5 H 11.038 C 10.465,32.5 10,32.035 10,31.462 V 28.538 C 10,27.965 10.465,27.5 11.038,27.5 h 2.924 c 0.573,0 1.038,0.465 1.038,1.038 v 2.924 c 0,0.573 -0.465,1.038 -1.038,1.038 z"
             id="path15710" /><path
             style="fill:#a4e869"
             d="M 24.962,32.5 H 22.038 C 21.465,32.5 21,32.035 21,31.462 V 28.538 C 21,27.965 21.465,27.5 22.038,27.5 h 2.924 c 0.573,0 1.038,0.465 1.038,1.038 v 2.924 c 0,0.573 -0.465,1.038 -1.038,1.038 z"
             id="path15712" /><path
             style="fill:#50508a"
             d="M 35.962,32.5 H 33.038 C 32.465,32.5 32,32.035 32,31.462 V 28.538 C 32,27.965 32.465,27.5 33.038,27.5 h 2.924 c 0.573,0 1.038,0.465 1.038,1.038 v 2.924 c 0,0.573 -0.465,1.038 -1.038,1.038 z"
             id="path15714" /><path
             style="fill:#be7c6d"
             d="M 46.962,32.5 H 44.038 C 43.465,32.5 43,32.035 43,31.462 V 28.538 C 43,27.965 43.465,27.5 44.038,27.5 h 2.924 c 0.573,0 1.038,0.465 1.038,1.038 v 2.924 c 0,0.573 -0.465,1.038 -1.038,1.038 z"
             id="path15716" /><polygon
             style="fill:#afb6bb"
             points="28,49.5 15,49.5 15,52.5 43,52.5 43,49.5 30,49.5 30,43.5 28,43.5 "
             id="polygon15718" /></g><g
           id="g15742"
           transform="matrix(0.77003571,0,0,0.60848731,2.5230789,4.400439)"><rect
             y="5.5"
             style="fill:#38454f"
             width="58"
             height="38"
             id="rect15722"
             x="0" /><path
             style="fill:#61b872"
             d="M 13.962,21.5 H 11.038 C 10.465,21.5 10,21.035 10,20.462 V 17.538 C 10,16.965 10.465,16.5 11.038,16.5 h 2.924 c 0.573,0 1.038,0.465 1.038,1.038 v 2.924 c 0,0.573 -0.465,1.038 -1.038,1.038 z"
             id="path15724" /><path
             style="fill:#48a0dc"
             d="M 24.962,21.5 H 22.038 C 21.465,21.5 21,21.035 21,20.462 V 17.538 C 21,16.965 21.465,16.5 22.038,16.5 h 2.924 c 0.573,0 1.038,0.465 1.038,1.038 v 2.924 c 0,0.573 -0.465,1.038 -1.038,1.038 z"
             id="path15726" /><path
             style="fill:#ebba16"
             d="M 35.962,21.5 H 33.038 C 32.465,21.5 32,21.035 32,20.462 V 17.538 C 32,16.965 32.465,16.5 33.038,16.5 h 2.924 c 0.573,0 1.038,0.465 1.038,1.038 v 2.924 c 0,0.573 -0.465,1.038 -1.038,1.038 z"
             id="path15728" /><path
             style="fill:#bf4d90"
             d="M 46.962,21.5 H 44.038 C 43.465,21.5 43,21.035 43,20.462 V 17.538 C 43,16.965 43.465,16.5 44.038,16.5 h 2.924 c 0.573,0 1.038,0.465 1.038,1.038 v 2.924 c 0,0.573 -0.465,1.038 -1.038,1.038 z"
             id="path15730" /><path
             style="fill:#dd352e"
             d="M 13.962,32.5 H 11.038 C 10.465,32.5 10,32.035 10,31.462 V 28.538 C 10,27.965 10.465,27.5 11.038,27.5 h 2.924 c 0.573,0 1.038,0.465 1.038,1.038 v 2.924 c 0,0.573 -0.465,1.038 -1.038,1.038 z"
             id="path15732" /><path
             style="fill:#a4e869"
             d="M 24.962,32.5 H 22.038 C 21.465,32.5 21,32.035 21,31.462 V 28.538 C 21,27.965 21.465,27.5 22.038,27.5 h 2.924 c 0.573,0 1.038,0.465 1.038,1.038 v 2.924 c 0,0.573 -0.465,1.038 -1.038,1.038 z"
             id="path15734" /><path
             style="fill:#50508a"
             d="M 35.962,32.5 H 33.038 C 32.465,32.5 32,32.035 32,31.462 V 28.538 C 32,27.965 32.465,27.5 33.038,27.5 h 2.924 c 0.573,0 1.038,0.465 1.038,1.038 v 2.924 c 0,0.573 -0.465,1.038 -1.038,1.038 z"
             id="path15736" /><path
             style="fill:#be7c6d"
             d="M 46.962,32.5 H 44.038 C 43.465,32.5 43,32.035 43,31.462 V 28.538 C 43,27.965 43.465,27.5 44.038,27.5 h 2.924 c 0.573,0 1.038,0.465 1.038,1.038 v 2.924 c 0,0.573 -0.465,1.038 -1.038,1.038 z"
             id="path15738" /><polygon
             style="fill:#afb6bb"
             points="30,49.5 30,43.5 28,43.5 28,49.5 15,49.5 15,52.5 43,52.5 43,49.5 "
             id="polygon15740" /></g></g></g></g></clipPath><style
   id="style30742">.cls-1{fill:#ba9bc9;}.cls-2{fill:#8f6c56;}.cls-3{fill:#838bc5;}.cls-4{fill:#fcdd7c;}.cls-5{fill:#65c8d0;}</style>
	
	
	
	
	
	
	
	
</defs><sodipodi:namedview
   id="namedview1873"
   pagecolor="#ffffff"
   bordercolor="#000000"
   borderopacity="0.25"
   inkscape:showpageshadow="2"
   inkscape:pageopacity="0.79215686"
   inkscape:pagecheckerboard="0"
   inkscape:deskcolor="#d1d1d1"
   showgrid="false"
   inkscape:zoom="0.59"
   inkscape:cx="347.45763"
   inkscape:cy="120.33898"
   inkscape:window-width="1366"
   inkscape:window-height="675"
   inkscape:window-x="0"
   inkscape:window-y="0"
   inkscape:window-maximized="1"
   inkscape:current-layer="g12439" />



<g
   id="g12350"
   transform="translate(2.156201,-2.9135431)" /><g
   id="g12439"
   clip-path="none"
   transform="translate(2.2384625,-1.5851611)"><g
     id="g47998"
     transform="matrix(0.10053915,0,0,0.07839995,1.7958034,-24.238015)">
	<g
   id="g47936">
		<path
   style="fill:#333e48"
   d="m 176.102,59.459 c -2.764,0 -5.005,-2.241 -5.005,-5.005 V 15.017 c 0,-2.765 2.241,-5.006 5.005,-5.006 2.765,0 5.006,2.241 5.006,5.006 v 39.437 c -0.001,2.764 -2.242,5.005 -5.006,5.005 z"
   id="path47922" />
		<path
   style="fill:#333e48"
   d="m 150.316,59.459 c -2.764,0 -5.006,-2.241 -5.006,-5.005 V 15.017 c 0,-2.765 2.242,-5.006 5.006,-5.006 2.764,0 5.005,2.241 5.005,5.006 v 39.437 c 0,2.764 -2.241,5.005 -5.005,5.005 z"
   id="path47924" />
		<path
   style="fill:#333e48"
   d="m 124.531,59.459 c -2.765,0 -5.006,-2.241 -5.006,-5.005 V 15.017 c 0,-2.765 2.241,-5.006 5.006,-5.006 2.764,0 5.005,2.241 5.005,5.006 v 39.437 c 0,2.764 -2.241,5.005 -5.005,5.005 z"
   id="path47926" />
		<path
   style="fill:#333e48"
   d="m 98.745,59.459 c -2.764,0 -5.005,-2.241 -5.005,-5.005 V 15.017 c 0,-2.765 2.241,-5.006 5.005,-5.006 2.765,0 5.006,2.241 5.006,5.006 v 39.437 c 0,2.764 -2.241,5.005 -5.006,5.005 z"
   id="path47928" />
		<path
   style="fill:#333e48"
   d="m 201.888,59.459 c -2.765,0 -5.006,-2.241 -5.006,-5.005 V 15.017 c 0,-2.765 2.241,-5.006 5.006,-5.006 2.764,0 5.005,2.241 5.005,5.006 v 39.437 c 0,2.764 -2.242,5.005 -5.005,5.005 z"
   id="path47930" />
		<path
   style="fill:#333e48"
   d="m 227.673,59.459 c -2.764,0 -5.006,-2.241 -5.006,-5.005 V 15.017 c 0,-2.765 2.242,-5.006 5.006,-5.006 2.764,0 5.006,2.241 5.006,5.006 v 39.437 c 0,2.764 -2.243,5.005 -5.006,5.005 z"
   id="path47932" />
		<path
   style="fill:#333e48"
   d="m 253.458,59.459 c -2.764,0 -5.005,-2.241 -5.005,-5.005 V 15.017 c 0,-2.765 2.241,-5.006 5.005,-5.006 2.765,0 5.006,2.241 5.006,5.006 v 39.437 c 0,2.764 -2.241,5.005 -5.006,5.005 z"
   id="path47934" />
	</g>
	<g
   id="g47952">
		<path
   style="fill:#333e48"
   d="m 176.102,323.991 c -2.764,0 -5.005,-2.241 -5.005,-5.006 v -39.438 c 0,-2.765 2.241,-5.005 5.005,-5.005 2.765,0 5.006,2.241 5.006,5.005 v 39.438 c -0.001,2.765 -2.242,5.006 -5.006,5.006 z"
   id="path47938" />
		<path
   style="fill:#333e48"
   d="m 201.888,323.991 c -2.765,0 -5.006,-2.241 -5.006,-5.006 v -39.438 c 0,-2.765 2.241,-5.005 5.006,-5.005 2.764,0 5.005,2.241 5.005,5.005 v 39.438 c 0,2.765 -2.242,5.006 -5.005,5.006 z"
   id="path47940" />
		<path
   style="fill:#333e48"
   d="m 227.673,323.991 c -2.764,0 -5.006,-2.241 -5.006,-5.006 v -39.438 c 0,-2.765 2.242,-5.005 5.006,-5.005 2.764,0 5.006,2.241 5.006,5.005 v 39.438 c 0,2.765 -2.243,5.006 -5.006,5.006 z"
   id="path47942" />
		<path
   style="fill:#333e48"
   d="m 253.458,323.991 c -2.764,0 -5.005,-2.241 -5.005,-5.006 v -39.438 c 0,-2.765 2.241,-5.005 5.005,-5.005 2.765,0 5.006,2.241 5.006,5.005 v 39.438 c 0,2.765 -2.241,5.006 -5.006,5.006 z"
   id="path47944" />
		<path
   style="fill:#333e48"
   d="m 150.316,323.991 c -2.764,0 -5.006,-2.241 -5.006,-5.006 v -39.438 c 0,-2.765 2.242,-5.005 5.006,-5.005 2.764,0 5.005,2.241 5.005,5.005 v 39.438 c 0,2.765 -2.241,5.006 -5.005,5.006 z"
   id="path47946" />
		<path
   style="fill:#333e48"
   d="m 124.531,323.991 c -2.765,0 -5.006,-2.241 -5.006,-5.006 v -39.438 c 0,-2.765 2.241,-5.005 5.006,-5.005 2.764,0 5.005,2.241 5.005,5.005 v 39.438 c 0,2.765 -2.241,5.006 -5.005,5.006 z"
   id="path47948" />
		<path
   style="fill:#333e48"
   d="m 98.745,323.991 c -2.764,0 -5.005,-2.241 -5.005,-5.006 v -39.438 c 0,-2.765 2.241,-5.005 5.005,-5.005 2.765,0 5.006,2.241 5.006,5.005 v 39.438 c 0,2.765 -2.241,5.006 -5.006,5.006 z"
   id="path47950" />
	</g>
	<g
   id="g47968">
		<path
   style="fill:#333e48"
   d="m 328.996,172.006 h -39.438 c -2.764,0 -5.005,-2.241 -5.005,-5.005 0,-2.765 2.241,-5.005 5.005,-5.005 h 39.438 c 2.765,0 5.006,2.241 5.006,5.005 0,2.765 -2.241,5.005 -5.006,5.005 z"
   id="path47954" />
		<path
   style="fill:#333e48"
   d="m 328.996,146.221 h -39.438 c -2.764,0 -5.005,-2.241 -5.005,-5.005 0,-2.764 2.241,-5.005 5.005,-5.005 h 39.438 c 2.765,0 5.006,2.241 5.006,5.005 0,2.764 -2.241,5.005 -5.006,5.005 z"
   id="path47956" />
		<path
   style="fill:#333e48"
   d="m 328.996,120.436 h -39.438 c -2.764,0 -5.005,-2.241 -5.005,-5.006 0,-2.764 2.241,-5.005 5.005,-5.005 h 39.438 c 2.765,0 5.006,2.241 5.006,5.005 0,2.764 -2.241,5.006 -5.006,5.006 z"
   id="path47958" />
		<path
   style="fill:#333e48"
   d="m 328.996,94.65 h -39.438 c -2.764,0 -5.005,-2.241 -5.005,-5.005 0,-2.765 2.241,-5.005 5.005,-5.005 h 39.438 c 2.765,0 5.006,2.241 5.006,5.005 0,2.764 -2.241,5.005 -5.006,5.005 z"
   id="path47960" />
		<path
   style="fill:#333e48"
   d="m 328.996,197.792 h -39.438 c -2.764,0 -5.005,-2.241 -5.005,-5.005 0,-2.765 2.241,-5.005 5.005,-5.005 h 39.438 c 2.765,0 5.006,2.241 5.006,5.005 0,2.764 -2.241,5.005 -5.006,5.005 z"
   id="path47962" />
		<path
   style="fill:#333e48"
   d="m 328.996,223.578 h -39.438 c -2.764,0 -5.005,-2.242 -5.005,-5.006 0,-2.765 2.241,-5.006 5.005,-5.006 h 39.438 c 2.765,0 5.006,2.241 5.006,5.006 0,2.764 -2.241,5.006 -5.006,5.006 z"
   id="path47964" />
		<path
   style="fill:#333e48"
   d="m 328.996,249.363 h -39.438 c -2.764,0 -5.005,-2.241 -5.005,-5.005 0,-2.765 2.241,-5.005 5.005,-5.005 h 39.438 c 2.765,0 5.006,2.241 5.006,5.005 0,2.764 -2.241,5.005 -5.006,5.005 z"
   id="path47966" />
	</g>
	<path
   style="fill:#009638"
   d="m 285.711,57.439 c 0,-7.508 -6.143,-13.651 -13.651,-13.651 H 52.937 c -7.508,0 -13.65,6.143 -13.65,13.651 v 219.123 c 0,7.508 6.142,13.651 13.65,13.651 H 272.06 c 7.509,0 13.651,-6.143 13.651,-13.651 z"
   id="path47970" />
	<g
   id="g47986">
		<path
   style="fill:#333e48"
   d="M 44.443,172.006 H 5.006 C 2.241,172.006 0,169.765 0,167.001 c 0,-2.765 2.241,-5.005 5.006,-5.005 h 39.438 c 2.764,0 5.005,2.241 5.005,5.005 -10e-4,2.765 -2.242,5.005 -5.006,5.005 z"
   id="path47972" />
		<path
   style="fill:#333e48"
   d="M 44.443,197.792 H 5.006 C 2.241,197.792 0,195.551 0,192.787 c 0,-2.765 2.241,-5.005 5.006,-5.005 h 39.438 c 2.764,0 5.005,2.241 5.005,5.005 -10e-4,2.764 -2.242,5.005 -5.006,5.005 z"
   id="path47974" />
		<path
   style="fill:#333e48"
   d="M 44.443,223.578 H 5.006 C 2.241,223.578 0,221.336 0,218.572 c 0,-2.765 2.241,-5.006 5.006,-5.006 h 39.438 c 2.764,0 5.005,2.241 5.005,5.006 -10e-4,2.764 -2.242,5.006 -5.006,5.006 z"
   id="path47976" />
		<path
   style="fill:#333e48"
   d="M 44.443,249.363 H 5.006 C 2.241,249.363 0,247.122 0,244.358 c 0,-2.765 2.241,-5.005 5.006,-5.005 h 39.438 c 2.764,0 5.005,2.241 5.005,5.005 -10e-4,2.764 -2.242,5.005 -5.006,5.005 z"
   id="path47978" />
		<path
   style="fill:#333e48"
   d="M 44.443,146.221 H 5.006 C 2.241,146.221 0,143.98 0,141.216 c 0,-2.764 2.241,-5.005 5.006,-5.005 h 39.438 c 2.764,0 5.005,2.241 5.005,5.005 -10e-4,2.764 -2.242,5.005 -5.006,5.005 z"
   id="path47980" />
		<path
   style="fill:#333e48"
   d="M 44.443,120.436 H 5.006 C 2.241,120.436 0,118.195 0,115.43 c 0,-2.764 2.241,-5.005 5.006,-5.005 h 39.438 c 2.764,0 5.005,2.241 5.005,5.005 -10e-4,2.764 -2.242,5.006 -5.006,5.006 z"
   id="path47982" />
		<path
   style="fill:#333e48"
   d="M 44.443,94.65 H 5.006 C 2.241,94.65 0,92.409 0,89.645 0,86.88 2.241,84.64 5.006,84.64 h 39.438 c 2.764,0 5.005,2.241 5.005,5.005 -10e-4,2.764 -2.242,5.005 -5.006,5.005 z"
   id="path47984" />
	</g>
	<path
   style="fill:#00af41"
   d="m 302.955,57.439 c 0,-7.508 -6.144,-13.651 -13.651,-13.651 H 70.181 c -7.508,0 -13.651,6.143 -13.651,13.651 v 219.123 c 0,7.508 6.144,13.651 13.651,13.651 h 219.123 c 7.508,0 13.651,-6.143 13.651,-13.651 z"
   id="path47988" />
	<path
   style="fill:#c3c6c8"
   d="m 265.595,90.501 c 0,-10.011 -8.191,-18.202 -18.202,-18.202 H 103.241 c -10.011,0 -18.201,8.19 -18.201,18.202 v 136.442 c 0,10.011 8.19,18.202 18.201,18.202 h 144.151 c 10.011,0 18.202,-8.191 18.202,-18.202 V 90.501 Z"
   id="path47990" />
	<rect
   x="284.55399"
   y="72.299004"
   style="fill:#ffc843"
   width="18.400999"
   height="116.848"
   id="rect47992" />
	<rect
   x="108.693"
   y="115.68"
   style="fill:#333e48"
   width="133.24699"
   height="19.593"
   id="rect47994" />
	<rect
   x="121.618"
   y="145.588"
   style="fill:#333e48"
   width="107.397"
   height="9.7959995"
   id="rect47996" />
</g><g
     id="g49567"
     transform="matrix(0.06110706,0,0,0.06007446,41.198772,-23.585868)"><path
       style="fill:#363f3e"
       d="m 424.4,473.6 c 0,12 -9.6,22.4 -21.6,22.4 H 94 C 82,496 72.4,485.6 72.4,473.6 V 22.4 C 72.4,10.4 82,0 94,0 h 308.8 c 12,0 21.6,10.4 21.6,22.4 z"
       id="path49496" /><g
       id="g49504">
	<path
   style="fill:#151918"
   d="m 299.6,308 c 1.6,0 2.4,-0.8 3.2,-1.6 3.2,-3.2 3.2,-8 0,-12 L 290,281.6 c -3.2,-3.2 -8.8,-3.2 -12,0 -0.8,0.8 -1.6,2.4 -1.6,3.2 -32,16.8 -160,132 -168,140.8 l -12,12 c -8.8,8.8 -8.8,24 0,32.8 L 114,488 c 8.8,8.8 24,8.8 32.8,0 l 12,-12 c 8.8,-8 124,-136 140.8,-168 z"
   id="path49498" />
	<path
   style="fill:#151918"
   d="M 72.4,21.6 C 72.4,9.6 82,0 94,0 h 308.8 c 12,0 21.6,10.4 21.6,22.4 v 452 c 0,12 -9.6,22.4 -21.6,22.4"
   id="path49500" />
	<circle
   style="fill:#151918"
   cx="248.39999"
   cy="246.39999"
   r="135.2"
   id="circle49502" />
</g><circle
       style="fill:#1bceb8"
       cx="248.39999"
       cy="223.2"
       r="135.2"
       id="circle49506" /><g
       id="g49512">
	<path
   style="fill:#0dbfba"
   d="m 290,281.6 c -3.2,-3.2 -8.8,-3.2 -12,0 -0.8,0.8 -1.6,2.4 -1.6,3.2 -14.4,7.2 -48,34.4 -80.8,63.2 16,7.2 34.4,10.4 52.8,10.4 4.8,0 9.6,0 14.4,-0.8 17.6,-21.6 32,-40 36.8,-50.4 1.6,0 2.4,-0.8 3.2,-1.6 3.2,-3.2 3.2,-8 0,-12 z"
   id="path49508" />
	<path
   style="fill:#0dbfba"
   d="m 152.4,128 c 52.8,-52.8 138.4,-52.8 191.2,0 52.8,52.8 52.8,138.4 0,191.2"
   id="path49510" />
</g><circle
       style="fill:#151918"
       cx="248.39999"
       cy="223.2"
       r="24.799999"
       id="circle49514" /><path
       style="fill:#c5c9c9"
       d="m 291.6,300 c 1.6,0 2.4,-0.8 3.2,-1.6 3.2,-3.2 3.2,-8.8 0,-12 L 282,273.6 c -3.2,-3.2 -8.8,-3.2 -12,0 -0.8,0.8 -1.6,2.4 -1.6,3.2 -32,16.8 -160,132 -168,140.8 l -12,11.2 c -8.8,8.8 -8.8,24 0,32.8 l 17.6,17.6 c 8.8,8.8 24,8.8 32.8,0 l 12,-12 c 8,-8 124,-135.2 140.8,-167.2 z"
       id="path49516" /><g
       id="g49532">
	<path
   style="fill:#b6b7b7"
   d="m 106,480 c 8.8,8.8 24,8.8 32.8,0 l 12,-12 c 8,-8 124,-135.2 140.8,-168 1.6,0 2.4,-0.8 3.2,-1.6 3.2,-3.2 3.2,-8.8 0,-12 L 282,273.6 c -3.2,-3.2 -8.8,-3.2 -12,0 -0.8,0.8 -1.6,2.4 -1.6,3.2"
   id="path49518" />
	<path
   style="fill:#b6b7b7"
   d="m 103.6,33.6 c -4,4.8 -3.2,12 1.6,16.8 4.8,4.8 12,4.8 16.8,1.6 z"
   id="path49520" />
	<path
   style="fill:#b6b7b7"
   d="m 106,31.2 17.6,17.6 c 4,-4.8 3.2,-12 -1.6,-16.8 -3.2,-4.8 -10.4,-4.8 -16,-0.8 z"
   id="path49522" />
	<path
   style="fill:#b6b7b7"
   d="m 370.8,40 c 0.8,8 6.4,11.2 12.8,11.2 6.4,0 12,-3.2 12.8,-11.2 z"
   id="path49524" />
	<path
   style="fill:#b6b7b7"
   d="m 370.8,36.8 h 25.6 c -0.8,-8 -6.4,-11.2 -12.8,-11.2 -7.2,0 -12,3.2 -12.8,11.2 z"
   id="path49526" />
	<path
   style="fill:#b6b7b7"
   d="m 393.2,462.4 c 4,-4.8 3.2,-12 -1.6,-16.8 -4.8,-4.8 -12,-4.8 -16.8,-1.6 z"
   id="path49528" />
	<path
   style="fill:#b6b7b7"
   d="m 390.8,464.8 -17.6,-17.6 c -4,4.8 -3.2,12 1.6,16.8 3.2,4.8 10.4,4.8 16,0.8 z"
   id="path49530" />
</g><g
       id="g49538">
	<path
   style="fill:#151918"
   d="m 126,453.6 c -0.8,-8 -6.4,-11.2 -12.8,-11.2 -6.4,0 -12,3.2 -12.8,11.2 z"
   id="path49534" />
	<path
   style="fill:#151918"
   d="m 126,456 h -25.6 c 0.8,8 6.4,11.2 12.8,11.2 7.2,0 12,-3.2 12.8,-11.2 z"
   id="path49536" />
</g></g><g
     id="g51836"
     transform="matrix(0.06835205,0,0,0.05822829,77.05888,-24.693571)"><g
       id="g51751">
	<path
   style="fill:#53caf9"
   d="m 137.117,218.004 c 0,6.847 -5.549,12.396 -12.396,12.396 h -70.11 c -6.847,0 -12.396,-5.549 -12.396,-12.396 v 0 c 0,-6.847 5.549,-12.396 12.396,-12.396 h 70.11 c 6.847,0 12.396,5.549 12.396,12.396 z"
   id="path51747" />
	<path
   style="fill:#53caf9"
   d="m 104.419,394.24 c 0,6.847 -5.549,12.396 -12.396,12.396 H 54.612 c -6.847,0 -12.396,-5.549 -12.396,-12.396 v 0 c 0,-6.847 5.549,-12.396 12.396,-12.396 h 37.412 c 6.846,0 12.395,5.549 12.395,12.396 z"
   id="path51749" />
</g><g
       id="g51757">
	<path
   style="fill:#dbdddd"
   d="m 126.199,161.954 c 0,7.143 -5.79,12.935 -12.935,12.935 H 55.15 c -7.144,0 -12.935,-5.792 -12.935,-12.935 V 123.15 c 0,-7.143 5.79,-12.935 12.935,-12.935 h 58.114 c 7.144,0 12.935,5.792 12.935,12.935 z"
   id="path51753" />
	<path
   style="fill:#dbdddd"
   d="m 108.234,347.352 c 0,7.143 -5.79,12.935 -12.935,12.935 H 55.15 c -7.144,0 -12.935,-5.792 -12.935,-12.935 v -82.594 c 0,-7.143 5.79,-12.935 12.935,-12.935 h 40.148 c 7.144,0 12.935,5.792 12.935,12.935 v 82.594 z"
   id="path51755" />
</g><path
       style="fill:#ebf25f"
       d="m 227.687,373.221 c 0,-7.143 -5.79,-12.935 -12.935,-12.935 h -82.728 c -7.144,0 -12.935,5.792 -12.935,12.935 v 71.896 c 0,7.144 5.79,12.935 12.935,12.935 h 82.728 c 7.144,0 12.935,-5.79 12.935,-12.935 z"
       id="path51759" /><path
       style="opacity:0.15;fill:#231f20;enable-background:new"
       d="m 137.117,445.117 v -71.896 c 0,-7.143 5.79,-12.935 12.935,-12.935 h -18.028 c -7.144,0 -12.935,5.792 -12.935,12.935 v 71.896 c 0,7.144 5.79,12.935 12.935,12.935 h 18.028 c -7.145,-0.001 -12.935,-5.791 -12.935,-12.935 z"
       id="path51761" /><path
       style="fill:#73c470"
       d="m 494.799,83.815 h -5.12 -404.662 -5.12 c -7.143,0 -12.935,5.792 -12.935,12.935 v 318.5 c 0,7.143 5.792,12.935 12.935,12.935 h 5.12 404.662 5.12 c 7.144,0 12.935,-5.792 12.935,-12.935 V 96.75 c 0,-7.144 -5.791,-12.935 -12.935,-12.935 z"
       id="path51763" /><path
       style="fill:#ebf25f"
       d="m 229.155,256 c 0,-26.744 8.504,-51.5 22.949,-71.718 h -122.28 c -5.929,0 -10.736,4.963 -10.736,11.08 v 122.397 c 0,6.119 4.806,11.081 10.736,11.081 H 252.922 C 237.982,308.419 229.155,283.242 229.155,256 Z"
       id="path51765" /><g
       id="g51775">
	<circle
   style="fill:#dbdddd"
   cx="120.767"
   cy="132.506"
   r="16.348"
   id="circle51767" />
	<circle
   style="fill:#dbdddd"
   cx="120.767"
   cy="379.49399"
   r="16.348"
   id="circle51769" />
	<circle
   style="fill:#dbdddd"
   cx="459.043"
   cy="132.506"
   r="16.348"
   id="circle51771" />
	<circle
   style="fill:#dbdddd"
   cx="459.043"
   cy="379.49399"
   r="16.348"
   id="circle51773" />
</g><path
       style="fill:#8aacad"
       d="m 72.082,512 c -4.466,0 -8.084,-3.618 -8.084,-8.084 V 16.168 H 12.351 C 7.886,16.168 4.267,12.55 4.267,8.084 4.267,3.618 7.886,0 12.351,0 h 59.732 c 4.465,0 8.084,3.618 8.084,8.084 V 503.916 C 80.166,508.382 76.547,512 72.082,512 Z"
       id="path51777" /><circle
       style="fill:#547475"
       cx="332.17499"
       cy="256"
       r="123.505"
       id="circle51779" /><circle
       style="fill:#8aacad"
       cx="332.32599"
       cy="257.10999"
       r="89.163002"
       id="circle51781" /><circle
       style="fill:#dbdddd"
       cx="331.56"
       cy="257.32599"
       r="20.882999"
       id="circle51783" /><path
       style="fill:#68d8f2"
       d="m 313.792,246.363 c 4.038,-6.546 11.152,-10.106 18.381,-9.899 3.391,-3.944 6.294,-8.32 8.633,-13.025 -0.994,-20.59 -12.079,-40.265 -31.217,-51.383 -19.416,5.243 -36.203,16.952 -47.895,32.668 8.289,0.954 16.525,3.571 24.212,8.01 13.555,7.823 23.089,19.932 27.886,33.629 z"
       id="path51785" /><path
       style="fill:#53caf9"
       d="m 270.107,274.565 c 13.553,-7.827 28.808,-10.029 43.067,-7.336 -3.651,-6.769 -3.177,-14.71 0.618,-20.867 -1.72,-4.91 -4.059,-9.611 -6.964,-13.989 -18.044,-9.287 -40.209,-9.657 -59.21,0.844 -2.178,7.667 -3.346,15.757 -3.346,24.114 0,12.085 2.443,23.61 6.855,34.111 4.962,-6.667 11.325,-12.459 18.98,-16.877 z"
       id="path51787" /><path
       style="fill:#68d8f2"
       d="m 330.937,278.197 c -7.688,-0.224 -14.327,-4.604 -17.763,-10.969 -5.112,-0.967 -10.352,-1.29 -15.597,-0.964 -17.14,11.03 -28.566,30.158 -28.878,51.981 13.636,14.298 32.009,24.039 52.573,26.681 -3.539,-7.863 -5.518,-16.581 -5.518,-25.765 0.002,-15.65 5.721,-29.961 15.183,-40.964 z"
       id="path51789" /><path
       style="fill:#53caf9"
       d="m 377.203,301.929 c -13.553,-7.826 -23.089,-19.935 -27.886,-33.63 -4.038,6.546 -11.151,10.107 -18.38,9.899 -3.393,3.944 -6.294,8.32 -8.633,13.025 0.996,20.643 12.135,40.368 31.364,51.471 0.168,0.098 0.338,0.191 0.509,0.286 7.657,-1.929 14.918,-4.863 21.637,-8.65 10.269,-6.017 19.431,-14.169 26.738,-24.266 -8.674,-0.839 -17.311,-3.495 -25.349,-8.135 z"
       id="path51791" /><path
       style="fill:#68d8f2"
       d="m 417.555,280.258 c 4.861,-18.855 3.55,-39.312 -4.834,-58.046 -5.061,7.093 -11.679,13.244 -19.718,17.886 -13.552,7.826 -28.808,10.028 -43.066,7.335 3.65,6.769 3.177,14.709 -0.619,20.867 1.721,4.91 4.06,9.611 6.964,13.989 18.377,9.457 41.028,9.676 60.256,-1.426 0.343,-0.198 0.679,-0.401 1.017,-0.605 z"
       id="path51793" /><path
       style="fill:#53caf9"
       d="m 365.532,248.395 c 17.38,-11.184 28.893,-30.693 28.893,-52.897 0,-0.396 -0.008,-0.789 -0.015,-1.184 -13.898,-13.635 -32.27,-22.728 -52.685,-24.836 3.611,7.929 5.63,16.736 5.63,26.019 0,15.651 -5.72,29.962 -15.181,40.965 7.688,0.223 14.326,4.603 17.762,10.969 5.113,0.968 10.352,1.292 15.596,0.964 z"
       id="path51795" /><g
       style="opacity:0.15"
       id="g51799">
	<rect
   x="80.163002"
   y="83.817001"
   style="fill:#231f20"
   width="17.246"
   height="344.366"
   id="rect51797" />
</g><path
       style="opacity:0.15;fill:#231f20;enable-background:new"
       d="m 260.209,257.057 c 0,-46.398 35.466,-84.498 80.766,-88.706 -2.748,-0.254 -5.526,-0.401 -8.341,-0.401 -49.212,0 -89.107,39.895 -89.107,89.107 0,49.212 39.895,89.107 89.107,89.107 2.814,0 5.593,-0.147 8.341,-0.401 -45.299,-4.207 -80.766,-42.308 -80.766,-88.706 z"
       id="path51801" /></g><g
     id="g53412"
     transform="matrix(-2.9823605e-5,0.0602032,0.0862163,2.0825254e-5,-2.0630129,10.415336)"><g
       id="g53294">
	<path
   style="fill:#8aacad"
   d="m 189.536,24.931 c 0,7.376 -5.98,13.357 -13.357,13.357 h -56.304 c -7.376,0 -13.357,-5.98 -13.357,-13.357 V 13.357 C 106.518,5.98 112.499,0 119.875,0 h 56.304 c 7.376,0 13.357,5.979 13.357,13.357 z"
   id="path53290" />
	<path
   style="fill:#8aacad"
   d="m 207.889,498.643 c 0,7.376 -5.979,13.357 -13.357,13.357 h -74.657 c -7.376,0 -13.357,-5.98 -13.357,-13.357 V 487.07 c 0,-7.376 5.98,-13.357 13.357,-13.357 h 74.657 c 7.377,0 13.357,5.98 13.357,13.357 z"
   id="path53292" />
</g><path
       style="fill:#73c470"
       d="m 378.769,0 h -227.52 v 512 h 75.706 26.713 125.101 c 14.755,0 26.713,-11.96 26.713,-26.713 V 172.522 146.922 26.713 C 405.482,11.96 393.523,0 378.769,0 Z"
       id="path53296" /><g
       id="g53304">
	<path
   style="fill:#ebf25f"
   d="m 324.557,104.023 h -92.383 c -3.074,0 -5.565,2.492 -5.565,5.565 v 40.07 c 0,3.073 2.491,5.565 5.565,5.565 h 92.383 c 3.074,0 5.565,-2.492 5.565,-5.565 v -40.07 c 0,-3.074 -2.492,-5.565 -5.565,-5.565 z"
   id="path53298" />
	<path
   style="fill:#ebf25f"
   d="m 324.557,231.304 h -92.383 c -3.074,0 -5.565,2.492 -5.565,5.565 v 40.07 c 0,3.073 2.491,5.565 5.565,5.565 h 92.383 c 3.074,0 5.565,-2.492 5.565,-5.565 v -40.07 c 0,-3.074 -2.492,-5.565 -5.565,-5.565 z"
   id="path53300" />
	<path
   style="fill:#ebf25f"
   d="m 324.557,358.585 h -92.383 c -3.074,0 -5.565,2.492 -5.565,5.565 v 40.07 c 0,3.073 2.491,5.565 5.565,5.565 h 92.383 c 3.074,0 5.565,-2.492 5.565,-5.565 v -40.07 c 0,-3.073 -2.492,-5.565 -5.565,-5.565 z"
   id="path53302" />
</g><rect
       x="151.25101"
       style="fill:#547475"
       width="38.285999"
       height="512"
       id="rect53306"
       y="0" /><g
       id="g53312">
	<circle
   style="fill:#dbdddd"
   cx="359.836"
   cy="45.657001"
   r="16.325001"
   id="circle53308" />
	<circle
   style="fill:#dbdddd"
   cx="359.836"
   cy="470.77301"
   r="16.325001"
   id="circle53310" />
</g><g
       id="g53338">
	<path
   style="fill:#547475"
   d="m 278.365,116.128 c -4.61,0 -8.348,-3.738 -8.348,-8.348 V 89.415 c 0,-4.61 3.738,-8.348 8.348,-8.348 4.61,0 8.348,3.738 8.348,8.348 v 18.365 c 0,4.611 -3.738,8.348 -8.348,8.348 z"
   id="path53314" />
	<path
   style="fill:#547475"
   d="m 306.192,116.128 c -4.61,0 -8.348,-3.738 -8.348,-8.348 V 89.415 c 0,-4.61 3.738,-8.348 8.348,-8.348 4.61,0 8.348,3.738 8.348,8.348 v 18.365 c -0.001,4.611 -3.739,8.348 -8.348,8.348 z"
   id="path53316" />
	<path
   style="fill:#547475"
   d="m 278.365,176.371 c -4.61,0 -8.348,-3.738 -8.348,-8.348 v -18.365 c 0,-4.61 3.738,-8.348 8.348,-8.348 4.61,0 8.348,3.738 8.348,8.348 v 18.365 c 0,4.61 -3.738,8.348 -8.348,8.348 z"
   id="path53318" />
	<path
   style="fill:#547475"
   d="m 306.192,176.371 c -4.61,0 -8.348,-3.738 -8.348,-8.348 v -18.365 c 0,-4.61 3.738,-8.348 8.348,-8.348 4.61,0 8.348,3.738 8.348,8.348 v 18.365 c -0.001,4.61 -3.739,8.348 -8.348,8.348 z"
   id="path53320" />
	<path
   style="fill:#547475"
   d="m 278.365,243.409 c -4.61,0 -8.348,-3.738 -8.348,-8.348 v -18.365 c 0,-4.61 3.738,-8.348 8.348,-8.348 4.61,0 8.348,3.738 8.348,8.348 v 18.365 c 0,4.611 -3.738,8.348 -8.348,8.348 z"
   id="path53322" />
	<path
   style="fill:#547475"
   d="m 306.192,243.409 c -4.61,0 -8.348,-3.738 -8.348,-8.348 v -18.365 c 0,-4.61 3.738,-8.348 8.348,-8.348 4.61,0 8.348,3.738 8.348,8.348 v 18.365 c -0.001,4.611 -3.739,8.348 -8.348,8.348 z"
   id="path53324" />
	<path
   style="fill:#547475"
   d="m 278.365,303.652 c -4.61,0 -8.348,-3.738 -8.348,-8.348 v -18.365 c 0,-4.61 3.738,-8.348 8.348,-8.348 4.61,0 8.348,3.738 8.348,8.348 v 18.365 c 0,4.61 -3.738,8.348 -8.348,8.348 z"
   id="path53326" />
	<path
   style="fill:#547475"
   d="m 306.192,303.652 c -4.61,0 -8.348,-3.738 -8.348,-8.348 v -18.365 c 0,-4.61 3.738,-8.348 8.348,-8.348 4.61,0 8.348,3.738 8.348,8.348 v 18.365 c -0.001,4.61 -3.739,8.348 -8.348,8.348 z"
   id="path53328" />
	<path
   style="fill:#547475"
   d="m 278.365,370.69 c -4.61,0 -8.348,-3.738 -8.348,-8.348 v -18.365 c 0,-4.61 3.738,-8.348 8.348,-8.348 4.61,0 8.348,3.738 8.348,8.348 v 18.365 c 0,4.611 -3.738,8.348 -8.348,8.348 z"
   id="path53330" />
	<path
   style="fill:#547475"
   d="m 306.192,370.69 c -4.61,0 -8.348,-3.738 -8.348,-8.348 v -18.365 c 0,-4.61 3.738,-8.348 8.348,-8.348 4.61,0 8.348,3.738 8.348,8.348 v 18.365 c -0.001,4.611 -3.739,8.348 -8.348,8.348 z"
   id="path53332" />
	<path
   style="fill:#547475"
   d="m 278.365,430.933 c -4.61,0 -8.348,-3.738 -8.348,-8.348 V 404.22 c 0,-4.61 3.738,-8.348 8.348,-8.348 4.61,0 8.348,3.738 8.348,8.348 v 18.365 c 0,4.61 -3.738,8.348 -8.348,8.348 z"
   id="path53334" />
	<path
   style="fill:#547475"
   d="m 306.192,430.933 c -4.61,0 -8.348,-3.738 -8.348,-8.348 V 404.22 c 0,-4.61 3.738,-8.348 8.348,-8.348 4.61,0 8.348,3.738 8.348,8.348 v 18.365 c -0.001,4.61 -3.739,8.348 -8.348,8.348 z"
   id="path53336" />
</g><path
       style="fill:#ebf25f"
       d="m 380.551,104.279 c -7.376,0 -13.357,5.98 -13.357,13.357 v 276.729 c 0,7.376 5.98,13.357 13.357,13.357 h 24.931 v -235.2 -25.6 -42.643 z"
       id="path53340" /><g
       style="opacity:0.15"
       id="g53344">
	<rect
   x="189.53999"
   style="fill:#231f20"
   width="17.809"
   height="512"
   id="rect53342"
   y="0" />
</g><g
       id="g53358">
	<path
   style="fill:#547475"
   d="m 250.539,116.128 c -4.61,0 -8.348,-3.738 -8.348,-8.348 V 89.415 c 0,-4.61 3.738,-8.348 8.348,-8.348 4.61,0 8.348,3.738 8.348,8.348 v 18.365 c 0,4.611 -3.738,8.348 -8.348,8.348 z"
   id="path53346" />
	<path
   style="fill:#547475"
   d="m 250.539,176.371 c -4.61,0 -8.348,-3.738 -8.348,-8.348 v -18.365 c 0,-4.61 3.738,-8.348 8.348,-8.348 4.61,0 8.348,3.738 8.348,8.348 v 18.365 c 0,4.61 -3.738,8.348 -8.348,8.348 z"
   id="path53348" />
	<path
   style="fill:#547475"
   d="m 250.539,243.409 c -4.61,0 -8.348,-3.738 -8.348,-8.348 v -18.365 c 0,-4.61 3.738,-8.348 8.348,-8.348 4.61,0 8.348,3.738 8.348,8.348 v 18.365 c 0,4.611 -3.738,8.348 -8.348,8.348 z"
   id="path53350" />
	<path
   style="fill:#547475"
   d="m 250.539,303.652 c -4.61,0 -8.348,-3.738 -8.348,-8.348 v -18.365 c 0,-4.61 3.738,-8.348 8.348,-8.348 4.61,0 8.348,3.738 8.348,8.348 v 18.365 c 0,4.61 -3.738,8.348 -8.348,8.348 z"
   id="path53352" />
	<path
   style="fill:#547475"
   d="m 250.539,370.69 c -4.61,0 -8.348,-3.738 -8.348,-8.348 v -18.365 c 0,-4.61 3.738,-8.348 8.348,-8.348 4.61,0 8.348,3.738 8.348,8.348 v 18.365 c 0,4.611 -3.738,8.348 -8.348,8.348 z"
   id="path53354" />
	<path
   style="fill:#547475"
   d="m 250.539,430.933 c -4.61,0 -8.348,-3.738 -8.348,-8.348 V 404.22 c 0,-4.61 3.738,-8.348 8.348,-8.348 4.61,0 8.348,3.738 8.348,8.348 v 18.365 c 0,4.61 -3.738,8.348 -8.348,8.348 z"
   id="path53356" />
</g><g
       id="g53366">
	<path
   style="opacity:0.15;fill:#231f20;enable-background:new"
   d="m 244.418,149.658 v -40.07 c 0,-3.073 2.491,-5.565 5.565,-5.565 h -17.809 c -3.074,0 -5.565,2.492 -5.565,5.565 v 40.07 c 0,3.073 2.491,5.565 5.565,5.565 h 17.809 c -3.074,0 -5.565,-2.492 -5.565,-5.565 z"
   id="path53360" />
	<path
   style="opacity:0.15;fill:#231f20;enable-background:new"
   d="m 244.418,276.939 v -40.07 c 0,-3.073 2.491,-5.565 5.565,-5.565 h -17.809 c -3.074,0 -5.565,2.492 -5.565,5.565 v 40.07 c 0,3.073 2.491,5.565 5.565,5.565 h 17.809 c -3.074,0 -5.565,-2.492 -5.565,-5.565 z"
   id="path53362" />
	<path
   style="opacity:0.15;fill:#231f20;enable-background:new"
   d="m 244.418,404.22 v -40.07 c 0,-3.073 2.491,-5.565 5.565,-5.565 h -17.809 c -3.074,0 -5.565,2.492 -5.565,5.565 v 40.07 c 0,3.073 2.491,5.565 5.565,5.565 h 17.809 c -3.074,0 -5.565,-2.492 -5.565,-5.565 z"
   id="path53364" />
</g></g><g
     id="g57103"
     transform="matrix(0.05208342,0,0,0.03944632,44.429241,16.76244)"><path
       style="fill:#547475"
       d="m 168.127,511.998 h 227 v 0.001 h 79.337 c 17.339,0 32.215,-10.542 38.569,-25.566 2.119,-5.008 3.289,-10.514 3.289,-16.294 V 366.807 h -10e-4 V 121.196 h 10e-4 V 41.859 c 0,-12.56 -5.541,-23.821 -14.3,-31.492 C 496.169,5.242 488.884,1.714 480.838,0.483 480.734,0.468 480.629,0.459 480.528,0.443 478.547,0.156 476.524,0 474.464,0 H 395.127 149.514 46.183 46.182 C 23.064,0 4.323,18.74 4.323,41.859 v 79.337 H 4.324 V 366.808 H 4.323 V 470.14 c 0,13.003 5.929,24.622 15.234,32.3 0.349,0.289 0.71,0.564 1.071,0.842 0.17,0.133 0.337,0.271 0.509,0.401 6.985,5.223 15.655,8.317 25.046,8.317 h 96.537"
       id="path57044" /><g
       style="opacity:0.15"
       id="g57050">
	<path
   style="fill:#231f20"
   d="m 37.919,503.281 c -0.36,-0.277 -0.721,-0.553 -1.071,-0.842 -9.304,-7.678 -15.234,-19.297 -15.234,-32.3 V 366.808 h 10e-4 V 121.196 H 21.614 V 41.859 C 21.614,18.74 40.354,0 63.473,0 H 46.183 46.182 C 23.064,0 4.323,18.74 4.323,41.859 v 79.337 H 4.324 V 366.808 H 4.323 V 470.14 c 0,13.003 5.929,24.622 15.234,32.3 0.349,0.289 0.71,0.564 1.071,0.842 0.17,0.133 0.337,0.271 0.509,0.401 6.985,5.223 15.655,8.317 25.046,8.317 h 17.29 c -9.391,0 -18.061,-3.094 -25.046,-8.318 -0.171,-0.13 -0.338,-0.269 -0.508,-0.401 z"
   id="path57046" />
	<rect
   x="403.76901"
   y="503.35501"
   style="fill:#231f20"
   width="0"
   height="17.290001"
   id="rect57048" />
</g><circle
       style="fill:#53caf9"
       cx="260.32599"
       cy="254.058"
       r="12.335"
       id="circle57052" /><path
       style="fill:#b4cccb"
       d="m 227.126,233.558 c 7.547,-12.235 20.84,-18.889 34.353,-18.5 6.34,-7.373 11.763,-15.552 16.135,-24.344 -1.858,-38.483 -22.576,-75.256 -58.344,-96.035 -36.288,9.799 -67.665,31.681 -89.517,61.055 15.492,1.782 30.886,6.675 45.253,14.97 25.332,14.624 43.153,37.257 52.12,62.854 z"
       id="path57054" /><path
       style="fill:#8aacad"
       d="m 145.476,286.267 c 25.333,-14.626 53.843,-18.743 80.494,-13.71 -6.823,-12.653 -5.938,-27.492 1.155,-39.001 -3.215,-9.177 -7.587,-17.962 -13.017,-26.145 -33.726,-17.359 -75.152,-18.048 -110.664,1.578 -4.074,14.331 -6.254,29.45 -6.254,45.069 0,22.588 4.565,44.128 12.813,63.753 9.273,-12.457 21.167,-23.284 35.473,-31.544 z"
       id="path57056" /><path
       style="fill:#b4cccb"
       d="m 259.168,293.058 c -14.369,-0.419 -26.778,-8.604 -33.199,-20.501 -9.555,-1.805 -19.35,-2.411 -29.152,-1.801 -32.033,20.616 -53.39,56.367 -53.973,97.154 25.488,26.721 59.827,44.929 98.262,49.867 -6.614,-14.698 -10.314,-30.992 -10.314,-48.156 0.001,-29.248 10.691,-55.998 28.376,-76.563 z"
       id="path57058" /><path
       style="fill:#8aacad"
       d="M 345.639,337.415 C 320.307,322.79 302.488,300.157 293.52,274.56 c -7.547,12.235 -20.841,18.889 -34.353,18.5 -6.34,7.373 -11.763,15.552 -16.135,24.344 1.863,38.583 22.68,75.451 58.619,96.2 0.315,0.182 0.633,0.356 0.95,0.532 14.31,-3.608 27.88,-9.09 40.439,-16.167 19.192,-11.247 36.317,-26.483 49.972,-45.353 -16.206,-1.565 -32.349,-6.528 -47.373,-15.201 z"
       id="path57060" /><path
       style="fill:#b4cccb"
       d="m 421.057,296.91 c 9.085,-35.24 6.634,-73.474 -9.036,-108.486 -9.46,13.254 -21.83,24.753 -36.853,33.426 -25.332,14.625 -53.842,18.742 -80.493,13.709 6.823,12.653 5.938,27.492 -1.155,39.001 3.216,9.177 7.587,17.962 13.017,26.145 34.345,17.678 76.681,18.083 112.621,-2.665 0.64,-0.37 1.27,-0.75 1.899,-1.13 z"
       id="path57062" /><path
       style="fill:#8aacad"
       d="m 323.828,237.36 c 32.482,-20.905 54.002,-57.366 54.002,-98.865 0,-0.739 -0.014,-1.475 -0.028,-2.21 -25.977,-25.488 -60.313,-42.482 -98.47,-46.419 6.748,14.82 10.521,31.281 10.521,48.629 0,29.25 -10.69,56 -28.375,76.564 14.369,0.419 26.778,8.604 33.199,20.501 9.555,1.803 19.35,2.41 29.151,1.8 z"
       id="path57064" /><path
       style="fill:#53caf9"
       d="m 443.823,161.673 -12.49,-21.167 -0.181,-0.285 C 393.092,83.932 329.956,50.326 262.264,50.326 c -112.34,0 -203.735,91.395 -203.735,203.733 0,112.339 91.395,203.733 203.734,203.733 112.339,0 203.735,-91.394 203.735,-203.733 0,-32.499 -7.462,-63.583 -22.175,-92.386 z M 262.264,413.608 c -87.977,0 -159.55,-71.574 -159.55,-159.549 0,-87.976 71.574,-159.548 159.55,-159.548 87.976,0 159.55,71.573 159.55,159.547 0,87.976 -71.574,159.55 -159.55,159.55 z"
       id="path57066" /><g
       id="g57076">
	<circle
   style="fill:#8aacad"
   cx="457.01099"
   cy="58.175999"
   r="25.775"
   id="circle57068" />
	<circle
   style="fill:#8aacad"
   cx="457.01099"
   cy="453.505"
   r="25.775"
   id="circle57070" />
	<circle
   style="fill:#8aacad"
   cx="65.231003"
   cy="58.175999"
   r="25.775"
   id="circle57072" />
	<circle
   style="fill:#8aacad"
   cx="65.231003"
   cy="453.505"
   r="25.775"
   id="circle57074" />
</g><path
       style="opacity:0.15;fill:#231f20;enable-background:new"
       d="m 120.753,254.042 c 0,-85.082 66.607,-154.6 150.522,-159.273 -2.984,-0.166 -5.986,-0.258 -9.01,-0.258 -88.107,0 -159.532,71.425 -159.532,159.532 0,88.107 71.425,159.532 159.532,159.532 3.024,0 6.027,-0.092 9.01,-0.258 C 187.36,408.641 120.753,339.123 120.753,254.042 Z"
       id="path57078" /></g><g
     id="g57281"
     transform="matrix(0.63892875,0,0,0.57403805,78.242781,8.3913418)"><circle
       style="fill:#1081e0"
       cx="7"
       cy="41.5"
       r="1"
       id="circle57105" /><path
       style="fill:#28812f"
       d="m 4,12.5 v 32 h 8 v 4 h 24 v -4 h 23 v -32 z m 52,30 c -0.552,0 -1,-0.448 -1,-1 0,-0.552 0.448,-1 1,-1 0.552,0 1,0.448 1,1 0,0.552 -0.448,1 -1,1 z m 0,-26 c -0.552,0 -1,-0.448 -1,-1 0,-0.552 0.448,-1 1,-1 0.552,0 1,0.448 1,1 0,0.552 -0.448,1 -1,1 z"
       id="path57107" /><path
       style="fill:#cbd4d8"
       d="M 4,7.5 H 1 c -0.553,0 -1,0.447 -1,1 0,0.553 0.447,1 1,1 h 2 v 41 c 0,0.553 0.447,1 1,1 0.553,0 1,-0.447 1,-1 V 8.5 C 5,7.947 4.553,7.5 4,7.5 Z"
       id="path57109" /><rect
       y="15.5"
       style="fill:#ebba16"
       width="3"
       height="4"
       id="rect57111"
       x="0" /><rect
       x="5"
       y="15.5"
       style="fill:#38454f"
       width="4"
       height="4"
       id="rect57113" /><rect
       y="22.5"
       style="fill:#dc691d"
       width="3"
       height="4"
       id="rect57115"
       x="0" /><rect
       x="5"
       y="22.5"
       style="fill:#38454f"
       width="4"
       height="4"
       id="rect57117" /><rect
       y="29.5"
       style="fill:#43b05c"
       width="3"
       height="4"
       id="rect57119"
       x="0" /><rect
       x="5"
       y="29.5"
       style="fill:#38454f"
       width="4"
       height="4"
       id="rect57121" /><g
       id="g57137">
	<rect
   x="14"
   y="46.5"
   style="fill:#f3cc6d"
   width="2"
   height="2"
   id="rect57123" />
	<rect
   x="17"
   y="46.5"
   style="fill:#f3cc6d"
   width="2"
   height="2"
   id="rect57125" />
	<rect
   x="20"
   y="46.5"
   style="fill:#f3cc6d"
   width="2"
   height="2"
   id="rect57127" />
	<rect
   x="23"
   y="46.5"
   style="fill:#f3cc6d"
   width="2"
   height="2"
   id="rect57129" />
	<rect
   x="26"
   y="46.5"
   style="fill:#f3cc6d"
   width="2"
   height="2"
   id="rect57131" />
	<rect
   x="29"
   y="46.5"
   style="fill:#f3cc6d"
   width="2"
   height="2"
   id="rect57133" />
	<rect
   x="32"
   y="46.5"
   style="fill:#f3cc6d"
   width="2"
   height="2"
   id="rect57135" />
</g><g
       id="g57147">
	<rect
   x="51"
   y="15.5"
   style="fill:#153a17"
   width="2"
   height="21"
   id="rect57139" />
	<rect
   x="48"
   y="15.5"
   style="fill:#153a17"
   width="2"
   height="21"
   id="rect57141" />
	<rect
   x="45"
   y="15.5"
   style="fill:#153a17"
   width="2"
   height="21"
   id="rect57143" />
	<rect
   x="42"
   y="15.5"
   style="fill:#153a17"
   width="2"
   height="21"
   id="rect57145" />
</g><rect
       x="29"
       y="15.5"
       style="fill:#f3cc6d"
       width="2"
       height="3"
       id="rect57149" /><rect
       x="32"
       y="15.5"
       style="fill:#f3cc6d"
       width="2"
       height="3"
       id="rect57151" /><rect
       x="35"
       y="15.5"
       style="fill:#f3cc6d"
       width="2"
       height="3"
       id="rect57153" /><rect
       x="29"
       y="24.5"
       style="fill:#f3cc6d"
       width="2"
       height="3"
       id="rect57155" /><rect
       x="32"
       y="24.5"
       style="fill:#f3cc6d"
       width="2"
       height="3"
       id="rect57157" /><rect
       x="35"
       y="24.5"
       style="fill:#f3cc6d"
       width="2"
       height="3"
       id="rect57159" /><rect
       x="14"
       y="15.5"
       style="fill:#f3cc6d"
       width="2"
       height="3"
       id="rect57161" /><rect
       x="17"
       y="15.5"
       style="fill:#f3cc6d"
       width="2"
       height="3"
       id="rect57163" /><rect
       x="20"
       y="15.5"
       style="fill:#f3cc6d"
       width="2"
       height="3"
       id="rect57165" /><rect
       x="14"
       y="24.5"
       style="fill:#f3cc6d"
       width="2"
       height="3"
       id="rect57167" /><rect
       x="17"
       y="24.5"
       style="fill:#f3cc6d"
       width="2"
       height="3"
       id="rect57169" /><rect
       x="20"
       y="24.5"
       style="fill:#f3cc6d"
       width="2"
       height="3"
       id="rect57171" /><circle
       style="fill:#f3cc6d"
       cx="21"
       cy="29.5"
       r="1"
       id="circle57173" /><circle
       style="fill:#f3cc6d"
       cx="7"
       cy="38.5"
       r="1"
       id="circle57175" /><circle
       style="fill:#f3cc6d"
       cx="18"
       cy="29.5"
       r="1"
       id="circle57177" /><circle
       style="fill:#f3cc6d"
       cx="15"
       cy="29.5"
       r="1"
       id="circle57179" /><path
       style="fill:#f3cc6d"
       d="m 23,35.5 h -2 c -0.553,0 -1,-0.447 -1,-1 0,-0.553 0.447,-1 1,-1 h 2 c 0.553,0 1,0.447 1,1 0,0.553 -0.447,1 -1,1 z"
       id="path57181" /><path
       style="fill:#f3cc6d"
       d="m 23,38.5 h -2 c -0.553,0 -1,-0.447 -1,-1 0,-0.553 0.447,-1 1,-1 h 2 c 0.553,0 1,0.447 1,1 0,0.553 -0.447,1 -1,1 z"
       id="path57183" /><path
       style="fill:#f3cc6d"
       d="m 15,35.5 h -2 c -0.553,0 -1,-0.447 -1,-1 0,-0.553 0.447,-1 1,-1 h 2 c 0.553,0 1,0.447 1,1 0,0.553 -0.447,1 -1,1 z"
       id="path57185" /><path
       style="fill:#f3cc6d"
       d="m 15,38.5 h -2 c -0.553,0 -1,-0.447 -1,-1 0,-0.553 0.447,-1 1,-1 h 2 c 0.553,0 1,0.447 1,1 0,0.553 -0.447,1 -1,1 z"
       id="path57187" /><circle
       style="fill:#f3cc6d"
       cx="36"
       cy="29.5"
       r="1"
       id="circle57189" /><circle
       style="fill:#f3cc6d"
       cx="33"
       cy="29.5"
       r="1"
       id="circle57191" /><circle
       style="fill:#f3cc6d"
       cx="43"
       cy="39.5"
       r="1"
       id="circle57193" /><circle
       style="fill:#f3cc6d"
       cx="46"
       cy="39.5"
       r="1"
       id="circle57195" /><circle
       style="fill:#f3cc6d"
       cx="49"
       cy="39.5"
       r="1"
       id="circle57197" /><circle
       style="fill:#f3cc6d"
       cx="52"
       cy="39.5"
       r="1"
       id="circle57199" /><circle
       style="fill:#f3cc6d"
       cx="30"
       cy="29.5"
       r="1"
       id="circle57201" /><path
       style="fill:#f3cc6d"
       d="m 38,35.5 h -2 c -0.553,0 -1,-0.447 -1,-1 0,-0.553 0.447,-1 1,-1 h 2 c 0.553,0 1,0.447 1,1 0,0.553 -0.447,1 -1,1 z"
       id="path57203" /><path
       style="fill:#f3cc6d"
       d="m 38,38.5 h -2 c -0.553,0 -1,-0.447 -1,-1 0,-0.553 0.447,-1 1,-1 h 2 c 0.553,0 1,0.447 1,1 0,0.553 -0.447,1 -1,1 z"
       id="path57205" /><path
       style="fill:#f3cc6d"
       d="m 30,35.5 h -2 c -0.553,0 -1,-0.447 -1,-1 0,-0.553 0.447,-1 1,-1 h 2 c 0.553,0 1,0.447 1,1 0,0.553 -0.447,1 -1,1 z"
       id="path57207" /><path
       style="fill:#f3cc6d"
       d="m 30,38.5 h -2 c -0.553,0 -1,-0.447 -1,-1 0,-0.553 0.447,-1 1,-1 h 2 c 0.553,0 1,0.447 1,1 0,0.553 -0.447,1 -1,1 z"
       id="path57209" /><rect
       x="28"
       y="18.5"
       style="fill:#38454f"
       width="10"
       height="6"
       id="rect57211" /><rect
       x="13"
       y="18.5"
       style="fill:#38454f"
       width="10"
       height="6"
       id="rect57213" /><rect
       x="15"
       y="32.5"
       style="fill:#38454f"
       width="6"
       height="7"
       id="rect57215" /><rect
       x="30"
       y="32.5"
       style="fill:#38454f"
       width="6"
       height="7"
       id="rect57217" /></g></g><style
   type="text/css"
   id="style32261">
	.st0{fill:#BF7D2C;}
	.st1{fill:#C9942C;}
	.st2{fill:#656A73;}
	.st3{fill:#7D828C;}
	.st4{fill:#5C6373;}
	.st5{fill:#4F4228;}
	.st6{fill:#91AAB4;}
	.st7{fill:#A88C55;}
	.st8{fill:#6B5936;}
	.st9{fill:#3E606F;}
</style></svg>
