<?xml version="1.0" encoding="UTF-8" standalone="no"?>
<!-- Uploaded to: SVG Repo, www.svgrepo.com, Generator: SVG Repo Mixer Tools -->

<svg
   fill="#000000"
   width="799.93835"
   height="443.63797"
   viewBox="0 -27.73 122.87053 68.142792"
   version="1.1"
   id="Layer_1"
   xml:space="preserve"
   sodipodi:docname="bilgisayarsistem-dis.svg"
   inkscape:version="1.2.2 (b0a8486541, 2022-12-01)"
   xmlns:inkscape="http://www.inkscape.org/namespaces/inkscape"
   xmlns:sodipodi="http://sodipodi.sourceforge.net/DTD/sodipodi-0.dtd"
   xmlns="http://www.w3.org/2000/svg"
   xmlns:svg="http://www.w3.org/2000/svg"><defs
   id="defs1875"><clipPath
   clipPathUnits="userSpaceOnUse"
   id="clipPath15564"><g
     id="g15568"
     transform="translate(-2.6856513,-1.5887216)"><g
       inkscape:label="Clip"
       id="use15566"
       transform="translate(2.6856513,1.588721)"
       clip-path="url(#clipPath15564)"><g
         id="g15744"
         clip-path="none"
         transform="translate(2.6856513,1.588721)"><g
           id="g15572"
           transform="matrix(0.31600234,0,0,0.30689409,75.726475,8.9374409)">

<path
   d="m 79.93,51.37 c -0.53,-0.51 -0.32,-1.2 0.48,-1.54 0.8,-0.34 1.87,-0.2 2.41,0.3 3.78,3.6 1.96,6.52 0.21,9.32 -1.32,2.12 -2.59,4.15 -0.25,6.19 0.57,0.5 0.4,1.19 -0.37,1.55 -0.77,0.36 -1.86,0.26 -2.43,-0.24 -3.47,-3.03 -1.86,-5.62 -0.17,-8.32 1.41,-2.27 2.89,-4.63 0.12,-7.26 z M 14.57,28.11 h 73.65 c 0.96,0 1.74,0.78 1.74,1.74 v 12.26 h 24.13 c 1.46,0 2.79,-0.6 3.75,-1.56 0.96,-0.96 1.56,-2.29 1.56,-3.75 v -28 c 0,-1.46 -0.6,-2.79 -1.56,-3.75 -0.96,-0.96 -2.29,-1.56 -3.75,-1.56 H 8.8 C 7.34,3.49 6.01,4.09 5.05,5.05 4.08,6.01 3.48,7.34 3.48,8.8 v 28 c 0,1.46 0.6,2.79 1.56,3.75 0.96,0.96 2.29,1.56 3.75,1.56 h 4.03 V 29.85 c 0.01,-0.96 0.79,-1.74 1.75,-1.74 z m 71.91,3.48 H 16.31 V 41.68 H 86.48 Z M 15.21,13.64 c -0.96,0 -1.74,-0.78 -1.74,-1.74 0,-0.96 0.78,-1.74 1.74,-1.74 h 93.74 c 0.96,0 1.74,0.78 1.74,1.74 0,0.96 -0.78,1.74 -1.74,1.74 z m 83.37,18.35 c 1.36,0 2.46,1.1 2.46,2.46 0,1.36 -1.1,2.46 -2.46,2.46 -1.36,0 -2.46,-1.1 -2.46,-2.46 0,-1.36 1.11,-2.46 2.46,-2.46 z m 10.27,0 c 1.36,0 2.46,1.1 2.46,2.46 0,1.36 -1.1,2.46 -2.46,2.46 -1.36,0 -2.46,-1.1 -2.46,-2.46 0,-1.36 1.1,-2.46 2.46,-2.46 z M 8.8,0 h 105.29 c 2.42,0 4.62,0.99 6.21,2.58 1.59,1.59 2.58,3.79 2.58,6.21 V 36.8 c 0,2.42 -0.99,4.62 -2.58,6.21 -1.59,1.59 -3.79,2.58 -6.21,2.58 H 8.8 C 6.38,45.59 4.18,44.6 2.59,43.01 0.99,41.42 0,39.22 0,36.8 V 8.8 C 0,6.38 0.99,4.18 2.58,2.59 4.18,0.99 6.38,0 8.8,0 Z m 6.41,21.76 c -0.96,0 -1.74,-0.78 -1.74,-1.74 0,-0.96 0.78,-1.74 1.74,-1.74 h 93.74 c 0.96,0 1.74,0.78 1.74,1.74 0,0.96 -0.78,1.74 -1.74,1.74 z m 6.16,29.61 c -0.53,-0.51 -0.32,-1.2 0.48,-1.54 0.8,-0.34 1.87,-0.2 2.41,0.3 3.78,3.6 1.96,6.52 0.21,9.32 -1.32,2.12 -2.59,4.15 -0.25,6.19 0.57,0.5 0.4,1.19 -0.37,1.55 -0.77,0.36 -1.86,0.26 -2.43,-0.24 -3.47,-3.03 -1.86,-5.62 -0.17,-8.32 1.41,-2.27 2.88,-4.63 0.12,-7.26 z m 14.64,0 c -0.53,-0.51 -0.32,-1.2 0.48,-1.54 0.8,-0.34 1.87,-0.2 2.41,0.3 3.78,3.6 1.96,6.52 0.21,9.32 -1.32,2.12 -2.59,4.15 -0.25,6.19 0.57,0.5 0.4,1.19 -0.37,1.55 -0.77,0.36 -1.86,0.26 -2.43,-0.24 -3.47,-3.03 -1.86,-5.62 -0.17,-8.32 1.41,-2.27 2.88,-4.63 0.12,-7.26 z m 14.64,0 c -0.53,-0.51 -0.32,-1.2 0.48,-1.54 0.8,-0.34 1.87,-0.2 2.41,0.3 3.78,3.6 1.96,6.52 0.21,9.32 -1.32,2.12 -2.59,4.15 -0.25,6.19 0.57,0.5 0.4,1.19 -0.37,1.55 -0.77,0.36 -1.86,0.26 -2.43,-0.24 -3.47,-3.03 -1.86,-5.62 -0.17,-8.32 1.41,-2.27 2.89,-4.63 0.12,-7.26 z m 14.64,0 c -0.53,-0.51 -0.32,-1.2 0.48,-1.54 0.8,-0.34 1.87,-0.2 2.41,0.3 3.78,3.6 1.96,6.52 0.21,9.32 -1.32,2.12 -2.59,4.15 -0.25,6.19 0.57,0.5 0.4,1.19 -0.37,1.55 -0.77,0.36 -1.86,0.26 -2.43,-0.24 -3.47,-3.03 -1.85,-5.62 -0.17,-8.32 1.41,-2.27 2.89,-4.63 0.12,-7.26 z"
   id="path15570" />

</g><g
           id="g15584"
           transform="matrix(0.03702094,0,0,0.03373472,-3.5859266,-29.1693)"><path
             d="M 841.8938,97.371494 H 180.39938 c -13.50198,0 -24.45448,10.955576 -24.45448,24.454476 v 431.9762 c 0,1.20921 0.50887,2.22695 0.70136,3.37472 0.7628,11.39892 9.1689,21.20774 20.82583,22.86336 l 65.78361,9.23442 c 50.43966,7.25833 111.76937,16.11084 167.93665,22.16302 v 32.41417 H 186.83347 c -13.50197,0 -24.45447,10.9525 -24.45447,24.45447 V 904.3846 c 0,13.50197 10.9525,24.45447 24.45447,24.45447 h 652.19448 c 13.50198,0 24.45448,-10.9525 24.45448,-24.45447 V 668.30736 c 0,-13.50198 -10.9525,-24.45448 -24.45448,-24.45448 H 602.75617 v -31.07697 c 57.57,-5.85969 121.76659,-15.34804 173.79634,-22.99134 l 68.58803,-9.74329 c 12.41973,-1.78361 21.3347,-12.80164 20.95279,-25.09441 0,-0.38191 0.25393,-0.69829 0.25393,-1.1447 V 121.82699 c 10e-4,-13.4989 -10.95148,-24.455496 -24.45346,-24.455496 z"
             fill="#27323a"
             id="path15574" /><path
             d="m 211.28795,692.76184 h 603.2845 v 187.16828 h -603.2845 z"
             fill="#f4ce73"
             id="path15576" /><path
             d="m 460.10232,643.85186 v -27.89473 c 19.67806,1.46722 38.08444,2.42251 53.8789,2.42251 11.97331,0 25.59918,-0.63891 39.86497,-1.52969 v 27.00191 z m 357.33598,-109.2844 -48.01612,6.81498 c -80.37193,11.84635 -190.35462,28.08722 -255.43994,28.08722 -66.10613,0 -180.29187,-16.56135 -263.65661,-28.59609 L 204.8559,534.505 V 146.28147 h 612.58343 v 388.28599 z"
             fill="#ffffff"
             id="path15578" /><path
             d="m 599.25448,798.41349 h 163.60664 c 13.4989,0 24.45448,-10.9525 24.45448,-24.4555 0,-13.49891 -10.95558,-24.45448 -24.45448,-24.45448 H 599.25448 c -13.50197,0 -24.45447,10.95557 -24.45447,24.45448 0,13.503 10.9525,24.4555 24.45447,24.4555 z M 489.39978,541.12851 c 0,-12.03474 9.80473,-21.84357 21.84357,-21.84357 11.97331,0 21.78111,9.8078 21.78111,21.84357 0,11.97332 -9.8078,21.78112 -21.78111,21.78112 -12.03885,0 -21.84357,-9.80882 -21.84357,-21.78112 z M 250.77204,167.48921 c -8.9805,0 -16.30332,7.26139 -16.30332,16.30332 v 310.01712 c 0,9.04501 7.32282,16.30333 16.30332,16.30333 h 520.87709 c 8.98049,0 16.30332,-7.25832 16.30332,-16.30333 V 183.79253 c 0,-9.04193 -7.32283,-16.30332 -16.30332,-16.30332 z"
             fill="#27323a"
             id="path15580" /><path
             d="M 755.3458,200.09586 V 477.50633 H 267.07537 V 200.09586 Z"
             fill="#79ccbf"
             id="path15582" /></g><g
           id="g15646"
           transform="matrix(0.05673058,0,0,0.05992302,46.198684,8.3646221)"><path
             style="fill:#82afaf"
             d="m 427.2,479.2 c 0,8.8 -7.2,15.2 -15.2,15.2 H 82.4 c -8.8,0 -15.2,-7.2 -15.2,-15.2 V 15.2 C 67.2,6.4 74.4,0 82.4,0 h 328.8 c 8.8,0 15.2,7.2 15.2,15.2 v 464 z"
             id="path15586" /><path
             style="fill:#76a3a2"
             d="M 67.2,15.2 C 67.2,6.4 74.4,0 82.4,0 h 328.8 c 8.8,0 15.2,7.2 15.2,15.2 v 464 c 0,8.8 -7.2,15.2 -15.2,15.2"
             id="path15588" /><g
             id="g15594">
	<polygon
   style="fill:#669694"
   points="427.2,374.4 427.2,262.4 303.2,136.8 192,136.8 "
   id="polygon15590" />
	<path
   style="fill:#669694"
   d="M 412,23.2 H 82.4 c -8.8,0 -15.2,7.2 -15.2,15.2 v 90.4 h 360 V 38.4 c 0,-8 -7.2,-15.2 -15.2,-15.2 z"
   id="path15592" />
</g><path
             style="fill:#a3d0d1"
             d="M 412,0 H 82.4 c -8,0 -15.2,7.2 -15.2,15.2 v 90.4 h 360 V 15.2 C 427.2,7.2 420,0 412,0 Z"
             id="path15596" /><path
             style="fill:#91c4c4"
             d="M 427.2,106.4 V 15.2 C 427.2,6.4 420,0 412,0 H 82.4 c -8,0 -15.2,7.2 -15.2,15.2"
             id="path15598" /><path
             style="fill:#b3e0e0"
             d="M 412,0 H 82.4 c -8,0 -15.2,7.2 -15.2,15.2 v 7.2 c 0,-8.8 7.2,-15.2 15.2,-15.2 h 328.8 c 8.8,0 15.2,7.2 15.2,15.2 V 15.2 C 427.2,7.2 420,0 412,0 Z"
             id="path15600" /><path
             style="fill:#a3d0d1"
             d="m 67.2,464.8 v 14.4 c 0,8.8 7.2,15.2 15.2,15.2 h 328.8 c 8.8,0 15.2,-7.2 15.2,-15.2 v -14.4 z"
             id="path15602" /><rect
             x="67.199997"
             y="99.199997"
             style="fill:#b3e0e0"
             width="360"
             height="7.1999998"
             id="rect15604" /><path
             style="fill:#a3d0d1"
             d="m 308,136.8 c 0,5.6 -4,9.6 -9.6,9.6 H 196 c -5.6,0 -9.6,-4 -9.6,-9.6 v 0 c 0,-5.6 4,-9.6 9.6,-9.6 h 103.2 c 4.8,0 8.8,4.8 8.8,9.6 z"
             id="path15606" /><path
             style="fill:#b3e0e0"
             d="M 298.4,127.2 H 196 c -4,0 -8,2.4 -8.8,6.4 1.6,4 4.8,6.4 8.8,6.4 h 103.2 c 4,0 8,-2.4 8.8,-6.4 -1.6,-3.2 -4.8,-6.4 -9.6,-6.4 z"
             id="path15608" /><path
             style="fill:#137d8e"
             d="m 124,52 c 0,10.4 -8,18.4 -18.4,18.4 -10.4,0 -18.4,-8 -18.4,-18.4 0,-10.4 8,-20 18.4,-20 10.4,0 18.4,9.6 18.4,20 z"
             id="path15610" /><path
             style="fill:#72a2a5"
             d="m 124,52 c 0,10.4 -8,27.2 -18.4,27.2 -10.4,0 -18.4,-17.6 -18.4,-27.2 0,-10.4 8,-17.6 18.4,-17.6 10.4,0 18.4,7.2 18.4,17.6 z"
             id="path15612" /><circle
             style="fill:#185b6b"
             cx="105.6"
             cy="52"
             r="18.4"
             id="circle15614" /><path
             style="fill:#073b44"
             d="m 119.2,38.4 c 7.2,7.2 7.2,19.2 0,26.4 C 112,72 100,72 92.8,64.8"
             id="path15616" /><circle
             style="fill:#b8d7e0"
             cx="115.2"
             cy="42.400002"
             r="1.6"
             id="circle15618" /><path
             style="fill:#137d8e"
             d="m 168.8,52 c 0,10.4 -8,18.4 -18.4,18.4 -10.4,0 -18.4,-8 -18.4,-18.4 0,-10.4 8,-20 18.4,-20 10.4,0 18.4,9.6 18.4,20 z"
             id="path15620" /><path
             style="fill:#72a2a5"
             d="m 168.8,52 c 0,10.4 -8,27.2 -18.4,27.2 C 140,79.2 132,62.4 132,52 c 0,-10.4 8,-17.6 18.4,-17.6 10.4,0 18.4,7.2 18.4,17.6 z"
             id="path15622" /><circle
             style="fill:#185b6b"
             cx="150.39999"
             cy="52"
             r="18.4"
             id="circle15624" /><path
             style="fill:#073b44"
             d="m 163.2,38.4 c 7.2,7.2 7.2,19.2 0,26.4 -7.2,7.2 -19.2,7.2 -26.4,0"
             id="path15626" /><circle
             style="fill:#b8d7e0"
             cx="160"
             cy="42.400002"
             r="1.6"
             id="circle15628" /><path
             style="fill:#137d8e"
             d="m 213.6,52 c 0,10.4 -8,18.4 -18.4,18.4 -10.4,0 -18.4,-8 -18.4,-18.4 0,-10.4 8,-20 18.4,-20 10.4,0 18.4,9.6 18.4,20 z"
             id="path15630" /><path
             style="fill:#72a2a5"
             d="m 213.6,52 c 0,10.4 -8,27.2 -18.4,27.2 -10.4,0 -18.4,-16.8 -18.4,-27.2 0,-10.4 8,-17.6 18.4,-17.6 10.4,0 18.4,7.2 18.4,17.6 z"
             id="path15632" /><circle
             style="fill:#185b6b"
             cx="195.2"
             cy="52"
             r="18.4"
             id="circle15634" /><path
             style="fill:#073b44"
             d="m 208,38.4 c 7.2,7.2 7.2,19.2 0,26.4 -7.2,7.2 -19.2,7.2 -26.4,0"
             id="path15636" /><circle
             style="fill:#b8d7e0"
             cx="204.8"
             cy="42.400002"
             r="1.6"
             id="circle15638" /><path
             style="fill:#53ad8a"
             d="m 398.4,67.2 c 0,4 -3.2,7.2 -7.2,7.2 H 290.4 c -4,0 -7.2,-3.2 -7.2,-7.2 V 41.6 c 0,-4 3.2,-7.2 7.2,-7.2 h 100.8 c 4,0 7.2,3.2 7.2,7.2 z"
             id="path15640" /><path
             style="fill:#3ca589"
             d="M 391.2,34.4 H 290.4 c -4,0 -7.2,3.2 -7.2,7.2 v 23.2 c 0,4 3.2,7.2 7.2,7.2 h 100.8 c 4,0 7.2,-3.2 7.2,-7.2 V 41.6 c 0,-4 -3.2,-7.2 -7.2,-7.2 z"
             id="path15642" /><path
             style="fill:#319385"
             d="m 283.2,64.8 c 0,4 3.2,7.2 7.2,7.2 h 100.8 c 4,0 7.2,-3.2 7.2,-7.2 V 41.6 c 0,-4 -3.2,-7.2 -7.2,-7.2"
             id="path15644" /></g><g
           id="g15682"
           transform="matrix(0.0652863,0,0,0.06406848,83.040057,-28.334524)"><path
             style="fill:#54686c"
             d="M 126.527,136.399 H 41.796 c -17.312,0 -31.347,13.992 -31.347,31.251 v 248.812 c 0,17.26 14.035,31.251 31.347,31.251 h 428.408 c 17.312,0 31.347,-13.689 31.347,-30.948 V 167.651 c 0,-17.259 -14.035,-31.251 -31.347,-31.251 H 385.473 126.527 Z"
             id="path15648" /><g
             id="g15654">
	<path
   style="fill:#87a3aa"
   d="m 10.449,407.051 v 9.411 c 0,17.26 14.035,31.251 31.347,31.251 h 428.408 c 17.312,0 31.347,-13.689 31.347,-30.948 v -9.714 z"
   id="path15650" />
	<path
   style="fill:#87a3aa"
   d="M 470.204,136.399 H 385.473 126.527 41.796 c -17.312,0 -31.347,13.992 -31.347,31.251 v 7.377 h 491.102 v -7.377 c 0,-17.258 -14.035,-31.251 -31.347,-31.251 z"
   id="path15652" />
</g><circle
             style="fill:#54686c"
             cx="327.272"
             cy="292.332"
             r="114.719"
             id="circle15656" /><rect
             x="55.380001"
             y="99.830002"
             style="fill:#faf9f9"
             width="78.366997"
             height="36.570999"
             id="rect15658" /><polygon
             style="fill:#54686c"
             points="418.544,135.37 236.006,135.37 249.59,64.287 403.916,64.287 "
             id="polygon15660" /><circle
             style="fill:#87a3aa"
             cx="327.272"
             cy="292.332"
             r="77.198997"
             id="circle15662" /><circle
             style="fill:#54686c"
             cx="327.272"
             cy="292.332"
             r="42.369999"
             id="circle15664" /><path
             d="m 327.276,167.155 c -69.021,0 -125.173,56.152 -125.173,125.173 0,69.021 56.152,125.172 125.173,125.172 69.021,0 125.172,-56.152 125.172,-125.173 0,-69.021 -56.152,-125.172 -125.172,-125.172 z m 0,229.447 c -57.497,0 -104.275,-46.778 -104.275,-104.275 0,-57.497 46.778,-104.275 104.275,-104.275 57.497,0 104.274,46.779 104.274,104.275 0,57.496 -46.778,104.275 -104.274,104.275 z"
             id="path15666" /><path
             d="m 327.276,204.679 c -48.329,0 -87.648,39.318 -87.648,87.648 0,48.33 39.318,87.648 87.648,87.648 48.33,0 87.648,-39.318 87.648,-87.648 0,-48.33 -39.32,-87.648 -87.648,-87.648 z m 0,154.399 c -36.807,0 -66.75,-29.944 -66.75,-66.75 0,-36.806 29.944,-66.75 66.75,-66.75 36.806,0 66.75,29.944 66.75,66.75 0,36.806 -29.945,66.75 -66.75,66.75 z"
             id="path15668" /><path
             d="m 346.687,266.983 c 0.065,0.051 0.161,0.127 0.227,0.177 1.892,1.441 4.116,2.138 6.324,2.138 3.149,0 6.263,-1.418 8.318,-4.117 3.483,-4.57 2.619,-11.091 -1.919,-14.599 -4.504,-3.511 -11.004,-2.756 -14.582,1.715 -3.605,4.506 -2.874,11.082 1.632,14.686 z"
             id="path15670" /><path
             d="m 359.196,292.327 c 0,17.601 -14.319,31.921 -31.921,31.921 -17.601,0 -31.921,-14.319 -31.921,-31.921 0,-5.771 -4.678,-10.449 -10.449,-10.449 -5.771,0 -10.449,4.678 -10.449,10.449 0,29.124 23.694,52.819 52.819,52.819 29.124,0 52.819,-23.694 52.819,-52.819 0,-5.771 -4.678,-10.449 -10.449,-10.449 -5.771,0 -10.449,4.678 -10.449,10.449 z"
             id="path15672" /><path
             d="m 456.62,167.38 c -5.762,0 -10.449,4.687 -10.449,10.449 0,5.762 4.687,10.449 10.449,10.449 5.762,0 10.449,-4.687 10.449,-10.449 0,-5.762 -4.687,-10.449 -10.449,-10.449 z"
             id="path15674" /><path
             d="m 470.204,125.95 h -42.93 L 414.15,62.18 c -1,-4.857 -5.276,-8.342 -10.235,-8.342 H 249.59 c -5.014,0 -9.322,3.562 -10.263,8.488 l -12.158,63.625 H 144.197 V 99.828 c 0,-5.771 -4.678,-10.449 -10.449,-10.449 H 55.38 c -5.771,0 -10.449,4.678 -10.449,10.449 V 125.95 H 41.796 C 18.75,125.95 0,144.657 0,167.65 v 248.812 c 0,22.993 18.75,41.7 41.796,41.7 h 428.408 c 23.046,0 41.796,-18.57 41.796,-41.397 V 167.651 C 512,144.657 493.25,125.95 470.204,125.95 Z M 258.231,74.736 h 137.168 l 10.328,50.184 H 248.641 Z M 65.829,110.277 h 57.469 V 125.95 H 65.829 Z m 425.273,306.489 c 0,11.495 -9.179,20.499 -20.898,20.499 H 41.796 c -11.171,0 -20.297,-8.777 -20.845,-19.765 h 174.631 c 5.771,0 10.449,-4.678 10.449,-10.449 0,-5.771 -4.678,-10.449 -10.449,-10.449 H 20.898 V 188.053 h 174.683 c 5.771,0 10.449,-4.678 10.449,-10.449 0,-5.771 -4.678,-10.449 -10.449,-10.449 H 20.923 c 0.267,-11.24 9.518,-20.307 20.873,-20.307 h 428.408 c 11.523,0 20.898,9.332 20.898,20.802 z"
             id="path15676" /><path
             d="m 229.522,396.602 h -0.137 c -5.771,0 -10.449,4.678 -10.449,10.449 0,5.771 4.678,10.449 10.449,10.449 h 0.137 c 5.771,0 10.449,-4.678 10.449,-10.449 0,-5.771 -4.678,-10.449 -10.449,-10.449 z"
             id="path15678" /><path
             d="m 229.385,188.053 h 0.137 c 5.771,0 10.449,-4.678 10.449,-10.449 0,-5.771 -4.678,-10.449 -10.449,-10.449 h -0.137 c -5.771,0 -10.449,4.678 -10.449,10.449 0,5.771 4.678,10.449 10.449,10.449 z"
             id="path15680" /></g><g
           id="g15698"
           transform="matrix(0.04785007,0,0,0.05177577,47.739577,-25.414407)"><path
             style="fill:#48cfad"
             d="m 128.007,501.311 c -17.656,0 -31.999,-14.359 -31.999,-32 V 42.654 c 0,-17.64 14.343,-31.999 31.999,-31.999 h 255.984 c 17.654,0 31.998,14.359 31.998,31.999 v 426.657 c 0,17.641 -14.344,32 -31.998,32 z"
             id="path15684" /><path
             style="fill:#5d9cec"
             d="m 371.116,354.878 -0.906,-0.281 c -15.094,-4.094 -26.156,-7.983 -32.844,-10.562 -23.592,-9.078 -29.779,-15.641 -31.342,-18.733 -0.031,-0.109 -0.094,-0.234 -0.156,-0.344 l -0.188,-28.891 -100.911,1.156 -0.203,27.734 c -0.047,0.109 -0.094,0.234 -0.141,0.344 -1.578,3.093 -7.719,9.655 -31.343,18.749 -6.656,2.562 -17.75,6.452 -32.718,10.515 l -1.016,0.312 c -13.625,4.547 -22.78,17.312 -22.78,31.719 v 40.045 h 277.326 v -40.045 c 10e-4,-14.406 -9.153,-27.171 -22.778,-31.718 z"
             id="path15686" /><path
             style="fill:#eac6bb"
             d="m 333.803,243.288 c 0,51.061 -48.686,100.153 -78.583,100.153 -29.905,0 -78.575,-49.093 -78.575,-100.153 0,-51.06 35.186,-84.747 78.575,-84.747 43.398,0 78.583,33.686 78.583,84.747 z"
             id="path15688" /><path
             style="fill:#a85d5d"
             d="m 305.868,149.307 c -13.375,-12.109 -58.177,-26.968 -102.864,0 -22.624,13.64 -39.092,73.95 -39.092,73.95 0,0 44.139,25.015 101.591,-2.016 34.396,-16.187 33.615,-7.703 43.428,7.031 5.844,8.734 24.873,15.015 24.873,15.015 0,0 14.812,-55.278 -27.936,-93.98 z"
             id="path15690" /><path
             style="fill:#434a54"
             d="M 383.991,0 H 128.007 C 104.43,0 85.337,19.093 85.337,42.654 v 426.657 c 0,23.562 19.093,42.671 42.67,42.671 h 255.984 c 23.561,0 42.654,-19.108 42.654,-42.671 V 42.654 C 426.645,19.093 407.552,0 383.991,0 Z m 21.342,469.311 c 0,11.766 -9.594,21.328 -21.342,21.328 H 128.007 c -11.765,0 -21.343,-9.562 -21.343,-21.328 V 42.654 c 0,-11.765 9.578,-21.327 21.343,-21.327 h 255.984 c 11.748,0 21.342,9.562 21.342,21.327 z"
             id="path15692" /><path
             style="fill:#434a54"
             d="m 96.008,405.313 v 63.998 c 0,17.641 14.343,32 31.999,32 h 255.984 c 17.654,0 31.998,-14.359 31.998,-32 v -63.998 z"
             id="path15694" /><path
             style="fill:#656d78"
             d="m 256.002,426.641 c -17.687,0 -31.999,14.328 -31.999,31.999 0,17.671 14.312,31.999 31.999,31.999 17.678,0 31.991,-14.328 31.991,-31.999 0,-17.671 -14.313,-31.999 -31.991,-31.999 z m 0,42.67 c -5.89,0 -10.671,-4.781 -10.671,-10.671 0,-5.875 4.781,-10.656 10.671,-10.656 5.875,0 10.657,4.781 10.657,10.656 0,5.89 -4.781,10.671 -10.657,10.671 z"
             id="path15696" /></g><g
           id="g15720"
           transform="matrix(0.1536,0,0,0.1536,56.9856,8.4284814)"><rect
             y="5.5"
             style="fill:#38454f"
             width="58"
             height="38"
             id="rect15700"
             x="0" /><path
             style="fill:#61b872"
             d="M 13.962,21.5 H 11.038 C 10.465,21.5 10,21.035 10,20.462 V 17.538 C 10,16.965 10.465,16.5 11.038,16.5 h 2.924 c 0.573,0 1.038,0.465 1.038,1.038 v 2.924 c 0,0.573 -0.465,1.038 -1.038,1.038 z"
             id="path15702" /><path
             style="fill:#48a0dc"
             d="M 24.962,21.5 H 22.038 C 21.465,21.5 21,21.035 21,20.462 V 17.538 C 21,16.965 21.465,16.5 22.038,16.5 h 2.924 c 0.573,0 1.038,0.465 1.038,1.038 v 2.924 c 0,0.573 -0.465,1.038 -1.038,1.038 z"
             id="path15704" /><path
             style="fill:#ebba16"
             d="M 35.962,21.5 H 33.038 C 32.465,21.5 32,21.035 32,20.462 V 17.538 C 32,16.965 32.465,16.5 33.038,16.5 h 2.924 c 0.573,0 1.038,0.465 1.038,1.038 v 2.924 c 0,0.573 -0.465,1.038 -1.038,1.038 z"
             id="path15706" /><path
             style="fill:#bf4d90"
             d="M 46.962,21.5 H 44.038 C 43.465,21.5 43,21.035 43,20.462 V 17.538 C 43,16.965 43.465,16.5 44.038,16.5 h 2.924 c 0.573,0 1.038,0.465 1.038,1.038 v 2.924 c 0,0.573 -0.465,1.038 -1.038,1.038 z"
             id="path15708" /><path
             style="fill:#dd352e"
             d="M 13.962,32.5 H 11.038 C 10.465,32.5 10,32.035 10,31.462 V 28.538 C 10,27.965 10.465,27.5 11.038,27.5 h 2.924 c 0.573,0 1.038,0.465 1.038,1.038 v 2.924 c 0,0.573 -0.465,1.038 -1.038,1.038 z"
             id="path15710" /><path
             style="fill:#a4e869"
             d="M 24.962,32.5 H 22.038 C 21.465,32.5 21,32.035 21,31.462 V 28.538 C 21,27.965 21.465,27.5 22.038,27.5 h 2.924 c 0.573,0 1.038,0.465 1.038,1.038 v 2.924 c 0,0.573 -0.465,1.038 -1.038,1.038 z"
             id="path15712" /><path
             style="fill:#50508a"
             d="M 35.962,32.5 H 33.038 C 32.465,32.5 32,32.035 32,31.462 V 28.538 C 32,27.965 32.465,27.5 33.038,27.5 h 2.924 c 0.573,0 1.038,0.465 1.038,1.038 v 2.924 c 0,0.573 -0.465,1.038 -1.038,1.038 z"
             id="path15714" /><path
             style="fill:#be7c6d"
             d="M 46.962,32.5 H 44.038 C 43.465,32.5 43,32.035 43,31.462 V 28.538 C 43,27.965 43.465,27.5 44.038,27.5 h 2.924 c 0.573,0 1.038,0.465 1.038,1.038 v 2.924 c 0,0.573 -0.465,1.038 -1.038,1.038 z"
             id="path15716" /><polygon
             style="fill:#afb6bb"
             points="28,49.5 15,49.5 15,52.5 43,52.5 43,49.5 30,49.5 30,43.5 28,43.5 "
             id="polygon15718" /></g><g
           id="g15742"
           transform="matrix(0.77003571,0,0,0.60848731,2.5230789,4.400439)"><rect
             y="5.5"
             style="fill:#38454f"
             width="58"
             height="38"
             id="rect15722"
             x="0" /><path
             style="fill:#61b872"
             d="M 13.962,21.5 H 11.038 C 10.465,21.5 10,21.035 10,20.462 V 17.538 C 10,16.965 10.465,16.5 11.038,16.5 h 2.924 c 0.573,0 1.038,0.465 1.038,1.038 v 2.924 c 0,0.573 -0.465,1.038 -1.038,1.038 z"
             id="path15724" /><path
             style="fill:#48a0dc"
             d="M 24.962,21.5 H 22.038 C 21.465,21.5 21,21.035 21,20.462 V 17.538 C 21,16.965 21.465,16.5 22.038,16.5 h 2.924 c 0.573,0 1.038,0.465 1.038,1.038 v 2.924 c 0,0.573 -0.465,1.038 -1.038,1.038 z"
             id="path15726" /><path
             style="fill:#ebba16"
             d="M 35.962,21.5 H 33.038 C 32.465,21.5 32,21.035 32,20.462 V 17.538 C 32,16.965 32.465,16.5 33.038,16.5 h 2.924 c 0.573,0 1.038,0.465 1.038,1.038 v 2.924 c 0,0.573 -0.465,1.038 -1.038,1.038 z"
             id="path15728" /><path
             style="fill:#bf4d90"
             d="M 46.962,21.5 H 44.038 C 43.465,21.5 43,21.035 43,20.462 V 17.538 C 43,16.965 43.465,16.5 44.038,16.5 h 2.924 c 0.573,0 1.038,0.465 1.038,1.038 v 2.924 c 0,0.573 -0.465,1.038 -1.038,1.038 z"
             id="path15730" /><path
             style="fill:#dd352e"
             d="M 13.962,32.5 H 11.038 C 10.465,32.5 10,32.035 10,31.462 V 28.538 C 10,27.965 10.465,27.5 11.038,27.5 h 2.924 c 0.573,0 1.038,0.465 1.038,1.038 v 2.924 c 0,0.573 -0.465,1.038 -1.038,1.038 z"
             id="path15732" /><path
             style="fill:#a4e869"
             d="M 24.962,32.5 H 22.038 C 21.465,32.5 21,32.035 21,31.462 V 28.538 C 21,27.965 21.465,27.5 22.038,27.5 h 2.924 c 0.573,0 1.038,0.465 1.038,1.038 v 2.924 c 0,0.573 -0.465,1.038 -1.038,1.038 z"
             id="path15734" /><path
             style="fill:#50508a"
             d="M 35.962,32.5 H 33.038 C 32.465,32.5 32,32.035 32,31.462 V 28.538 C 32,27.965 32.465,27.5 33.038,27.5 h 2.924 c 0.573,0 1.038,0.465 1.038,1.038 v 2.924 c 0,0.573 -0.465,1.038 -1.038,1.038 z"
             id="path15736" /><path
             style="fill:#be7c6d"
             d="M 46.962,32.5 H 44.038 C 43.465,32.5 43,32.035 43,31.462 V 28.538 C 43,27.965 43.465,27.5 44.038,27.5 h 2.924 c 0.573,0 1.038,0.465 1.038,1.038 v 2.924 c 0,0.573 -0.465,1.038 -1.038,1.038 z"
             id="path15738" /><polygon
             style="fill:#afb6bb"
             points="30,49.5 30,43.5 28,43.5 28,49.5 15,49.5 15,52.5 43,52.5 43,49.5 "
             id="polygon15740" /></g></g></g></g></clipPath><style
   id="style30742">.cls-1{fill:#ba9bc9;}.cls-2{fill:#8f6c56;}.cls-3{fill:#838bc5;}.cls-4{fill:#fcdd7c;}.cls-5{fill:#65c8d0;}</style>
	
	
	
	
	
	
	
	
</defs><sodipodi:namedview
   id="namedview1873"
   pagecolor="#ffffff"
   bordercolor="#000000"
   borderopacity="0.25"
   inkscape:showpageshadow="2"
   inkscape:pageopacity="0.79215686"
   inkscape:pagecheckerboard="0"
   inkscape:deskcolor="#d1d1d1"
   showgrid="false"
   inkscape:zoom="0.59"
   inkscape:cx="300"
   inkscape:cy="125.42373"
   inkscape:window-width="1273"
   inkscape:window-height="617"
   inkscape:window-x="127"
   inkscape:window-y="58"
   inkscape:window-maximized="0"
   inkscape:current-layer="g12439" />



<g
   id="g12350"
   transform="translate(2.156201,-2.9135431)" /><g
   id="g12439"
   clip-path="none"
   transform="translate(2.2384625,-1.5851611)"><g
     id="g551"
     transform="matrix(0.04707963,0,0,0.03415663,89.388503,-11.396868)"><path
       style="fill:#f9de8f"
       d="M 307.305,503.141 H 11.841 V 52.639 C 11.841,28.46 31.442,8.86 55.621,8.86 h 207.905 c 24.179,0 43.779,19.601 43.779,43.779 V 166.61"
       id="path474" /><g
       id="g482">
	<path
   style="fill:#f7cf6d"
   d="M 263.526,8.86 H 223.36 c 24.179,0 43.779,19.601 43.779,43.779 v 76.154 h -78.133 c -14.74,0 -26.689,11.95 -26.689,26.689 V 503.14 h 144.989 v 0 V 166.61 155.483 52.639 C 307.305,28.46 287.704,8.86 263.526,8.86 Z"
   id="path476" />
	<path
   style="fill:#f7cf6d"
   d="m 204.889,213.427 c -12.813,8.227 -28.057,12.999 -44.416,12.999 -45.462,0 -82.316,-36.855 -82.316,-82.316 0,-45.461 36.855,-82.316 82.316,-82.316 45.461,0 82.316,36.855 82.316,82.316 0,7.824 -1.092,15.392 -3.131,22.562"
   id="path478" />
	<path
   style="fill:#f7cf6d"
   d="m 204.889,437.21 c -12.813,8.227 -28.057,12.999 -44.416,12.999 -45.462,0 -82.316,-36.855 -82.316,-82.316 0,-45.461 36.855,-82.316 82.316,-82.316 16.358,0 31.602,4.772 44.416,12.999"
   id="path480" />
</g><g
       id="g488">
	<circle
   style="fill:#f4c356"
   cx="159.567"
   cy="142.39"
   r="44.415001"
   id="circle484" />
	<circle
   style="fill:#f4c356"
   cx="159.567"
   cy="366.17599"
   r="44.415001"
   id="circle486" />
</g><path
       style="fill:#f09ea0"
       d="M 500.159,503.141 H 204.696 V 202.734 c 0,-19.951 16.173,-36.124 36.124,-36.124 h 223.215 c 19.951,0 36.124,16.173 36.124,36.124 z"
       id="path490" /><g
       id="g496">
	<path
   style="fill:#ef8990"
   d="m 464.035,166.61 h -38.592 c 19.951,0 36.124,16.173 36.124,36.124 v 300.407 h 38.592 V 202.734 c 0,-19.951 -16.173,-36.124 -36.124,-36.124 z"
   id="path492" />
	<circle
   style="fill:#ef8990"
   cx="355.366"
   cy="286.36301"
   r="82.317001"
   id="circle494" />
</g><g
       id="g502">
	<circle
   style="fill:#ed7782"
   cx="354.46899"
   cy="439.46799"
   r="30.437"
   id="circle498" />
	<circle
   style="fill:#ed7782"
   cx="354.46899"
   cy="284.638"
   r="44.415001"
   id="circle500" />
</g><path
       d="M 263.525,0 H 55.621 C 26.596,0 2.981,23.614 2.981,52.639 v 450.5 c 0,4.894 3.966,8.86 8.86,8.86 h 157.081 c 4.894,0 8.86,-3.966 8.86,-8.86 0,-4.894 -3.966,-8.86 -8.86,-8.86 H 20.701 V 52.639 c 0,-19.254 15.665,-34.919 34.92,-34.919 h 207.904 c 19.255,0 34.92,15.665 34.92,34.919 v 72.284 c 0,4.893 3.966,8.86 8.86,8.86 4.894,0 8.86,-3.967 8.86,-8.86 V 52.639 C 316.165,23.614 292.551,0 263.525,0 Z"
       id="path504" /><path
       d="M 500.159,512 H 204.696 c -4.894,0 -8.86,-3.966 -8.86,-8.86 V 202.734 c 0,-24.804 20.18,-44.984 44.984,-44.984 h 223.215 c 24.804,0 44.984,20.18 44.984,44.984 v 300.407 c 0,4.893 -3.965,8.859 -8.86,8.859 z M 213.557,494.28 H 491.3 V 202.734 c 0,-15.033 -12.231,-27.264 -27.264,-27.264 H 240.82 c -15.034,0 -27.264,12.231 -27.264,27.264 V 494.28 Z"
       id="path506" /><path
       d="m 354.463,377.538 c -50.275,0 -91.178,-40.902 -91.178,-91.178 0,-50.276 40.902,-91.177 91.178,-91.177 50.276,0 91.177,40.902 91.177,91.177 0,50.275 -40.902,91.178 -91.177,91.178 z m 0,-164.634 c -40.504,0 -73.457,32.952 -73.457,73.456 0,40.504 32.953,73.457 73.457,73.457 40.503,0 73.456,-32.953 73.456,-73.457 0,-40.504 -32.953,-73.456 -73.456,-73.456 z"
       id="path508" /><path
       d="m 354.463,478.761 c -21.669,0 -39.298,-17.628 -39.298,-39.297 0,-21.669 17.63,-39.298 39.298,-39.298 21.668,0 39.297,17.63 39.297,39.298 0,21.668 -17.629,39.297 -39.297,39.297 z m 0,-60.874 c -11.898,0 -21.578,9.679 -21.578,21.578 0,11.896 9.679,21.576 21.578,21.576 11.896,0 21.576,-9.679 21.576,-21.576 0,-11.898 -9.68,-21.578 -21.576,-21.578 z"
       id="path510" /><path
       d="m 354.463,337.919 c -29.376,0 -53.276,-23.898 -53.276,-53.275 0,-29.377 23.899,-53.275 53.276,-53.275 29.377,0 53.275,23.899 53.275,53.275 -10e-4,29.376 -23.9,53.275 -53.275,53.275 z m 0,-88.829 c -19.606,0 -35.556,15.951 -35.556,35.556 0,19.605 15.95,35.554 35.556,35.554 19.605,0 35.554,-15.95 35.554,-35.554 0,-19.606 -15.95,-35.556 -35.554,-35.556 z"
       id="path512" /><path
       d="m 159.573,235.287 c -50.275,0 -91.178,-40.902 -91.178,-91.178 0,-50.276 40.902,-91.177 91.178,-91.177 20.681,0 40.934,7.115 57.033,20.035 15.849,12.722 27.121,30.567 31.736,50.248 1.118,4.764 -1.839,9.531 -6.603,10.649 -4.76,1.119 -9.531,-1.838 -10.65,-6.603 -7.817,-33.331 -37.226,-56.609 -71.517,-56.609 -40.504,0 -73.457,32.953 -73.457,73.456 0,40.504 32.953,73.457 73.457,73.457 4.894,0 8.86,3.967 8.86,8.86 0,4.895 -3.965,8.862 -8.859,8.862 z"
       id="path514" /><path
       d="m 159.573,195.666 c -29.376,0 -53.275,-23.899 -53.275,-53.275 0,-29.376 23.898,-53.275 53.275,-53.275 21.458,0 40.726,12.771 49.085,32.536 1.907,4.507 -0.202,9.705 -4.708,11.612 -4.507,1.906 -9.706,-0.201 -11.612,-4.709 -5.581,-13.192 -18.44,-21.717 -32.764,-21.717 -19.605,0 -35.554,15.95 -35.554,35.554 0,19.605 15.95,35.554 35.554,35.554 4.894,0 8.86,3.967 8.86,8.86 0,4.894 -3.967,8.86 -8.861,8.86 z"
       id="path516" /><path
       d="m 159.573,459.069 c -50.275,0 -91.178,-40.901 -91.178,-91.177 0,-50.276 40.902,-91.178 91.178,-91.178 4.894,0 8.86,3.966 8.86,8.86 0,4.894 -3.966,8.86 -8.86,8.86 -40.504,0 -73.457,32.953 -73.457,73.457 0,40.503 32.953,73.456 73.457,73.456 4.894,0 8.86,3.966 8.86,8.86 0,4.896 -3.966,8.862 -8.86,8.862 z"
       id="path518" /><path
       d="m 159.573,419.449 c -29.376,0 -53.275,-23.898 -53.275,-53.275 0,-29.377 23.898,-53.275 53.275,-53.275 4.894,0 8.86,3.966 8.86,8.86 0,4.894 -3.966,8.86 -8.86,8.86 -19.605,0 -35.554,15.95 -35.554,35.554 0,19.605 15.95,35.554 35.554,35.554 4.894,0 8.86,3.966 8.86,8.86 0,4.894 -3.966,8.862 -8.86,8.862 z"
       id="path520" /></g><g
     id="g619"
     transform="matrix(0.03645883,0,0,0.02957867,2.6059338,-15.596025)"><path
       d="m 418.9,667.6 h 185.4 v 20.6 H 418.9 Z"
       fill="#79acf9"
       id="path553" /><path
       d="m 212.9,399.9 h 20.6 v 309 h -20.6 z"
       fill="#446eb1"
       id="path555" /><path
       d="m 233.5,564.6 h 556.1 v 20.6 H 233.5 Z"
       fill="#ffffff"
       id="path557" /><path
       d="m 789.6,399.9 h 20.6 v 309 h -20.6 z"
       fill="#446eb1"
       id="path559" /><path
       d="m 233.5,399.9 h 576.7 v 20.6 H 233.5 Z"
       fill="#446eb1"
       id="path561" /><path
       d="m 233.5,420.5 h 556.1 v 82.4 H 233.5 Z"
       fill="#f8fcff"
       id="path563" /><path
       d="m 233.5,502.8 h 556.1 v 82.4 H 233.5 Z"
       fill="#e1f0ff"
       id="path565" /><path
       d="m 686.6,441 h 41.2 v 41.2 h -41.2 z"
       fill="#79acf9"
       id="path567" /><path
       d="m 315.9,255.7 h 20.6 v 144.2 h -20.6 z m 391.3,0 h 20.6 v 144.2 h -20.6 z"
       fill="#446eb1"
       id="path569" /><path
       d="M 336.5,276.3 H 707.2 V 399.9 H 336.5 Z"
       fill="#ffffff"
       id="path571" /><path
       d="m 336.5,255.7 h 391.3 v 20.6 H 336.5 Z m -61.8,103 h 20.6 v 41.2 h -20.6 z"
       fill="#446eb1"
       id="path573" /><path
       d="m 274.7,358.7 h 41.2 v 20.6 h -41.2 z m 453.1,0 H 769 v 20.6 h -41.2 z"
       fill="#446eb1"
       id="path575" /><path
       d="M 748.4,358.7 H 769 v 41.2 h -20.6 z"
       fill="#446eb1"
       id="path577" /><path
       d="m 233.5,585.2 h 556.1 v 20.6 H 233.5 Z"
       fill="#79acf9"
       id="path579" /><path
       d="m 233.5,605.8 h 556.1 v 20.6 H 233.5 Z"
       fill="#6d9ee8"
       id="path581" /><path
       d="m 233.5,626.4 h 61.8 v 61.8 h -61.8 z m 494.3,0 h 61.8 v 61.8 h -61.8 z m -432.5,0 H 727.8 V 647 H 295.3 Z"
       fill="#446eb1"
       id="path583" /><path
       d="m 212.9,688.2 h 103 v 20.6 h -103 z m 494.3,0 h 103 v 20.6 h -103 z"
       fill="#6d9ee8"
       id="path585" /><path
       d="m 295.3,647 h 20.6 v 144.2 h -20.6 z m 411.9,0 h 20.6 v 144.2 h -20.6 z"
       fill="#446eb1"
       id="path587" /><path
       d="m 315.9,770.6 h 391.3 v 20.6 H 315.9 Z"
       fill="#446eb1"
       id="path589" /><path
       d="m 398.3,708.8 h 226.6 v 20.6 H 398.3 Z"
       fill="#79acf9"
       id="path591" /></g><g
     style="fill:#000000"
     id="g632"
     transform="matrix(0.03269885,0,0,0.03497362,66.938928,9.392904)"><g
       id="g623">
	<path
   d="m 237.298,99.533 c -0.301,-0.34 -0.562,-0.677 -0.916,-0.999 -3.937,-3.535 -4.043,-2.491 0.266,-6.463 3.192,-2.929 7.063,-5.222 10.574,-7.755 C 256.508,77.605 262.62,68.617 266.751,57.96 276.02,34.033 248.707,17.503 235,3.344 c -9.904,-10.247 -25.496,5.382 -15.604,15.604 7.643,7.912 17.489,14.328 24.14,23.123 7.453,9.848 -3.901,20.712 -11.68,26.194 -12.026,8.473 -22.423,19.727 -20.02,31.794 -53.971,5.042 -103.87,34.623 -103.87,86.767 V 333.2 c 0,64.664 52.603,117.27 117.27,117.27 64.663,0 117.27,-52.605 117.27,-117.27 V 186.817 c 0.004,-56.929 -52.963,-84.5 -105.208,-87.284 z m -107.254,87.284 c 0,-38.707 42.017,-61.117 85.535,-64.841 v 135.005 c -39.697,-1.998 -71.928,-11.042 -85.535,-15.457 z m 190.389,146.377 c 0,52.5 -42.705,95.199 -95.192,95.199 -52.488,0 -95.196,-42.699 -95.196,-95.199 V 264.73 c 19.713,5.958 56.817,14.995 100.676,14.995 28.088,0 58.93,-3.759 89.713,-14.352 v 67.821 z m 0,-91.298 c -27.916,10.675 -56.424,14.849 -82.78,15.415 v -135.66 c 42.569,2.553 82.78,22.969 82.78,65.175 z M 206.072,133.429 v 111.973 c -17.153,3.027 -67.583,-11.094 -67.583,-11.094 -7.44,-78.496 21.94,-92.303 67.583,-100.879 z"
   id="path621" />
</g></g><g
     style="fill:#000000"
     id="g837"
     transform="matrix(-0.07177297,0,0,0.05230787,69.643938,0.22004118)"><g
       id="g638">
	<g
   id="g636">
		<path
   d="m 271.175,253.302 c -0.52,-25.381 -21.314,-45.871 -46.818,-45.871 H 107.754 c -9.057,0 -16.425,-7.368 -16.425,-16.425 0,-9.057 7.368,-16.425 16.425,-16.425 H 345.26 c 25.829,0 46.843,-21.013 46.843,-46.841 0,-25.829 -21.014,-46.843 -46.843,-46.843 H 214.524 c -9.056,0 -16.424,-7.368 -16.424,-16.425 V 37.719 h -30.417 v 26.753 c 0,25.829 21.013,46.843 46.841,46.843 H 345.26 c 9.057,0 16.425,7.368 16.425,16.425 0,9.056 -7.369,16.424 -16.425,16.424 H 107.754 c -25.829,0 -46.843,21.013 -46.843,46.843 0,25.83 21.013,46.843 46.843,46.843 h 116.601 c 8.729,0 15.869,6.85 16.376,15.454 H 0 V 474.282 H 512 V 253.302 Z M 481.583,443.863 H 30.417 V 283.719 h 451.166 z"
   id="path634" />
	</g>
</g><g
       id="g644">
	<g
   id="g642">
		<rect
   x="47.816002"
   y="300.93701"
   width="33.285999"
   height="30.417"
   id="rect640" />
	</g>
</g><g
       id="g650">
	<g
   id="g648">
		<rect
   x="102.536"
   y="300.93701"
   width="33.285999"
   height="30.417"
   id="rect646" />
	</g>
</g><g
       id="g656">
	<g
   id="g654">
		<rect
   x="157.267"
   y="300.93701"
   width="33.286999"
   height="30.417"
   id="rect652" />
	</g>
</g><g
       id="g662">
	<g
   id="g660">
		<rect
   x="211.998"
   y="300.93701"
   width="33.285999"
   height="30.417"
   id="rect658" />
	</g>
</g><g
       id="g668">
	<g
   id="g666">
		<rect
   x="266.71899"
   y="300.93701"
   width="33.285999"
   height="30.417"
   id="rect664" />
	</g>
</g><g
       id="g674">
	<g
   id="g672">
		<rect
   x="321.44901"
   y="300.93701"
   width="33.285999"
   height="30.417"
   id="rect670" />
	</g>
</g><g
       id="g680">
	<g
   id="g678">
		<rect
   x="376.17001"
   y="300.93701"
   width="33.285999"
   height="30.417"
   id="rect676" />
	</g>
</g><g
       id="g686">
	<g
   id="g684">
		<rect
   x="430.901"
   y="300.93701"
   width="33.285999"
   height="30.417"
   id="rect682" />
	</g>
</g><g
       id="g692">
	<g
   id="g690">
		<rect
   x="47.816002"
   y="348.58099"
   width="33.285999"
   height="30.417"
   id="rect688" />
	</g>
</g><g
       id="g698">
	<g
   id="g696">
		<rect
   x="102.536"
   y="348.58099"
   width="33.285999"
   height="30.417"
   id="rect694" />
	</g>
</g><g
       id="g704">
	<g
   id="g702">
		<rect
   x="157.267"
   y="348.58099"
   width="33.286999"
   height="30.417"
   id="rect700" />
	</g>
</g><g
       id="g710">
	<g
   id="g708">
		<rect
   x="211.998"
   y="348.58099"
   width="33.285999"
   height="30.417"
   id="rect706" />
	</g>
</g><g
       id="g716">
	<g
   id="g714">
		<rect
   x="266.71899"
   y="348.58099"
   width="33.285999"
   height="30.417"
   id="rect712" />
	</g>
</g><g
       id="g722">
	<g
   id="g720">
		<rect
   x="321.44901"
   y="348.58099"
   width="33.285999"
   height="30.417"
   id="rect718" />
	</g>
</g><g
       id="g728">
	<g
   id="g726">
		<rect
   x="376.17001"
   y="348.58099"
   width="33.285999"
   height="30.417"
   id="rect724" />
	</g>
</g><g
       id="g734">
	<g
   id="g732">
		<rect
   x="430.901"
   y="348.58099"
   width="33.285999"
   height="30.417"
   id="rect730" />
	</g>
</g><g
       id="g740">
	<g
   id="g738">
		<rect
   x="47.816002"
   y="396.224"
   width="33.285999"
   height="30.417"
   id="rect736" />
	</g>
</g><g
       id="g746">
	<g
   id="g744">
		<rect
   x="102.536"
   y="396.224"
   width="33.285999"
   height="30.417"
   id="rect742" />
	</g>
</g><g
       id="g752">
	<g
   id="g750">
		<rect
   x="157.267"
   y="396.224"
   width="197.46899"
   height="30.417"
   id="rect748" />
	</g>
</g><g
       id="g758">
	<g
   id="g756">
		<rect
   x="376.17001"
   y="396.224"
   width="33.285999"
   height="30.417"
   id="rect754" />
	</g>
</g><g
       id="g764">
	<g
   id="g762">
		<rect
   x="430.901"
   y="396.224"
   width="33.285999"
   height="30.417"
   id="rect760" />
	</g>
</g></g><g
     id="g907"
     transform="matrix(0.09821678,0,0,0.0771844,33.4972,-22.718483)"><g
       id="g1017"
       transform="matrix(1.0621268,0,0,1.2823449,5.3010031,-6.7458959)"><polygon
         style="fill:#434a54"
         points="127.938,224.072 213.357,224.04 234.661,298.654 106.665,298.654 "
         id="polygon841" /><path
         style="fill:#5d9cec"
         d="m 21.34,234.664 c -5.883,0 -10.672,-4.781 -10.672,-10.687 V 21.328 c 0,-5.875 4.789,-10.656 10.672,-10.656 h 298.654 c 5.875,0 10.656,4.781 10.656,10.656 v 202.65 c 0,5.906 -4.781,10.687 -10.656,10.687 z"
         id="path843" /><g
         id="g849">
	<path
   style="fill:#656d78"
   d="M 319.994,0 H 21.34 C 9.559,0 0.005,9.547 0.005,21.328 v 202.65 c 0,11.78 9.554,21.343 21.335,21.343 h 298.654 c 11.781,0 21.342,-9.562 21.342,-21.343 V 21.328 C 341.336,9.547 331.775,0 319.994,0 Z m 0,223.978 H 21.34 V 21.328 h 298.654 z"
   id="path845" />
	<rect
   x="15.949"
   y="181.326"
   style="fill:#656d78"
   width="309.44"
   height="53.34"
   id="rect847" />
</g><path
         style="fill:#aab2bc"
         d="m 181.334,213.322 c 0,5.906 -4.781,10.656 -10.671,10.656 -5.891,0 -10.664,-4.75 -10.664,-10.656 0,-5.875 4.773,-10.656 10.664,-10.656 5.89,0 10.671,4.781 10.671,10.656 z"
         id="path851" /><path
         style="fill:#656d78"
         d="M 234.661,277.312 H 106.665 c -5.891,0 -10.664,4.781 -10.664,10.654 0,5.906 4.773,10.688 10.664,10.688 h 127.996 c 5.89,0 10.671,-4.781 10.671,-10.688 0,-5.872 -4.781,-10.654 -10.671,-10.654 z"
         id="path853" /><path
         style="fill:#ccd1d9"
         d="m 511.988,287.967 c 0,5.906 -4.781,10.688 -10.656,10.688 H 373.336 c -5.906,0 -10.688,-4.781 -10.688,-10.688 V 10.672 C 362.648,4.766 367.429,0 373.336,0 h 127.996 c 5.875,0 10.656,4.766 10.656,10.672 z"
         id="path855" /><g
         id="g863">
	<path
   style="fill:#aab2bc"
   d="m 405.334,63.998 h 63.998 c 5.875,0 10.656,-4.766 10.656,-10.672 0,-5.875 -4.781,-10.655 -10.656,-10.655 h -63.998 c -5.904,0 -10.686,4.781 -10.686,10.655 0,5.907 4.782,10.672 10.686,10.672 z"
   id="path857" />
	<path
   style="fill:#aab2bc"
   d="m 469.332,85.326 h -63.998 c -5.904,0 -10.686,4.781 -10.686,10.672 0,5.891 4.781,10.671 10.686,10.671 h 63.998 c 5.875,0 10.656,-4.781 10.656,-10.671 0,-5.89 -4.781,-10.672 -10.656,-10.672 z"
   id="path859" />
	<path
   style="fill:#aab2bc"
   d="m 469.332,127.981 h -63.998 c -5.904,0 -10.686,4.781 -10.686,10.687 0,5.875 4.781,10.656 10.686,10.656 h 63.998 c 5.875,0 10.656,-4.781 10.656,-10.656 0,-5.906 -4.781,-10.687 -10.656,-10.687 z"
   id="path861" />
</g><path
         style="fill:#ed5564"
         d="m 447.99,213.322 c 0,5.906 -4.781,10.656 -10.656,10.656 -5.906,0 -10.688,-4.75 -10.688,-10.656 0,-5.875 4.781,-10.656 10.688,-10.656 5.875,0 10.656,4.781 10.656,10.656 z"
         id="path865" /><polygon
         style="opacity:0.1;fill:#ffffff;enable-background:new"
         points="191.998,21.328 253.332,21.328 189.334,181.323 128,181.323 "
         id="polygon867" /></g></g><g
     id="g920"
     transform="matrix(0.05476654,0,0,0.05091748,73.430579,-0.35567517)"><path
       style="fill:#aab2bc;stroke-width:1.67412"
       d="m 209.33358,110.34626 c -2.18266,1.40125 -54.44085,35.38495 -81.20278,97.88475 -21.9384,51.35888 -20.20338,105.72457 5.19303,161.64689 l 34.5243,-22.45809 c -14.23946,-31.33399 -20.0743,-61.87711 -17.3821,-90.7639 2.04241,-22.24222 9.2141,-43.6449 21.27734,-63.63251 20.93463,-34.59954 50.00822,-53.81029 50.31835,-53.99679 z"
       id="path839" /><path
       style="fill:#ed5564"
       d="m 394.555,351.621 c -0.469,-1.438 -1.234,-2.719 -2.25,-3.842 L 371.274,324.81 c -2.016,-2.219 -4.875,-3.469 -7.875,-3.469 h -24.186 c -2.344,0 -4.641,0.781 -6.5,2.219 l -9.219,7.094 H 209.81 l -9.21,-7.094 c -1.867,-1.438 -4.156,-2.219 -6.516,-2.219 H 169.89 c -2.992,0 -5.844,1.25 -7.867,3.469 l -21.03,22.969 c -1.008,1.123 -1.781,2.404 -2.25,3.842 -24.648,74.061 -28.405,121.465 -11.492,144.934 7.289,10.094 18.132,15.438 31.351,15.438 11.484,0 27.733,-5.719 39.944,-32.969 3.344,-7.469 5.625,-14.873 7.07,-20.373 h 122.067 c 1.438,5.5 3.734,12.904 7.062,20.373 12.217,27.25 28.467,32.969 39.967,32.969 13.219,0 24.062,-5.344 31.342,-15.438 16.905,-23.469 13.155,-70.873 -11.499,-144.934 z"
       id="path869" /><path
       style="fill:#434a54"
       d="m 223.559,469.336 c -17.648,0 -31.999,-14.373 -31.999,-31.998 0,-17.656 14.351,-32 31.999,-32 17.64,0 31.999,14.344 31.999,32 0,17.625 -14.358,31.998 -31.999,31.998 z m 0,-42.686 c -5.882,0 -10.671,4.781 -10.671,10.688 0,5.875 4.789,10.656 10.671,10.656 5.883,0 10.664,-4.781 10.664,-10.656 10e-4,-5.906 -4.781,-10.688 -10.664,-10.688 z"
       id="path873" /><path
       style="fill:#434a54"
       d="m 308.885,469.336 c -17.641,0 -31.998,-14.373 -31.998,-31.998 0,-17.656 14.357,-32 31.998,-32 17.641,0 32,14.344 32,32 0,17.625 -14.36,31.998 -32,31.998 z m 0,-42.686 c -5.891,0 -10.672,4.781 -10.672,10.688 0,5.875 4.781,10.656 10.672,10.656 5.891,0 10.672,-4.781 10.672,-10.656 0,-5.906 -4.782,-10.688 -10.672,-10.688 z"
       id="path877" /><polygon
       style="fill:#ffce54"
       points="209.81,361.777 323.525,361.777 323.494,330.654 209.81,330.654 "
       id="polygon879" /></g></g><style
   type="text/css"
   id="style32261">
	.st0{fill:#BF7D2C;}
	.st1{fill:#C9942C;}
	.st2{fill:#656A73;}
	.st3{fill:#7D828C;}
	.st4{fill:#5C6373;}
	.st5{fill:#4F4228;}
	.st6{fill:#91AAB4;}
	.st7{fill:#A88C55;}
	.st8{fill:#6B5936;}
	.st9{fill:#3E606F;}
</style></svg>
