<?xml version="1.0" encoding="UTF-8" standalone="no"?>
<!-- Uploaded to: SVG Repo, www.svgrepo.com, Generator: SVG Repo Mixer Tools -->

<svg
   fill="#000000"
   width="799.93835"
   height="443.63797"
   viewBox="0 -27.73 122.87053 68.142792"
   version="1.1"
   id="Layer_1"
   xml:space="preserve"
   sodipodi:docname="bilisimonemi-alanlar.svg"
   inkscape:version="1.2.2 (b0a8486541, 2022-12-01)"
   xmlns:inkscape="http://www.inkscape.org/namespaces/inkscape"
   xmlns:sodipodi="http://sodipodi.sourceforge.net/DTD/sodipodi-0.dtd"
   xmlns="http://www.w3.org/2000/svg"
   xmlns:svg="http://www.w3.org/2000/svg"><defs
   id="defs1875"><clipPath
   clipPathUnits="userSpaceOnUse"
   id="clipPath15564"><g
     id="g15568"
     transform="translate(-2.6856513,-1.5887216)"><g
       inkscape:label="Clip"
       id="use15566"
       transform="translate(2.6856513,1.588721)"
       clip-path="url(#clipPath15564)"><g
         id="g15744"
         clip-path="none"
         transform="translate(2.6856513,1.588721)"><g
           id="g15572"
           transform="matrix(0.31600234,0,0,0.30689409,75.726475,8.9374409)">

<path
   d="m 79.93,51.37 c -0.53,-0.51 -0.32,-1.2 0.48,-1.54 0.8,-0.34 1.87,-0.2 2.41,0.3 3.78,3.6 1.96,6.52 0.21,9.32 -1.32,2.12 -2.59,4.15 -0.25,6.19 0.57,0.5 0.4,1.19 -0.37,1.55 -0.77,0.36 -1.86,0.26 -2.43,-0.24 -3.47,-3.03 -1.86,-5.62 -0.17,-8.32 1.41,-2.27 2.89,-4.63 0.12,-7.26 z M 14.57,28.11 h 73.65 c 0.96,0 1.74,0.78 1.74,1.74 v 12.26 h 24.13 c 1.46,0 2.79,-0.6 3.75,-1.56 0.96,-0.96 1.56,-2.29 1.56,-3.75 v -28 c 0,-1.46 -0.6,-2.79 -1.56,-3.75 -0.96,-0.96 -2.29,-1.56 -3.75,-1.56 H 8.8 C 7.34,3.49 6.01,4.09 5.05,5.05 4.08,6.01 3.48,7.34 3.48,8.8 v 28 c 0,1.46 0.6,2.79 1.56,3.75 0.96,0.96 2.29,1.56 3.75,1.56 h 4.03 V 29.85 c 0.01,-0.96 0.79,-1.74 1.75,-1.74 z m 71.91,3.48 H 16.31 V 41.68 H 86.48 Z M 15.21,13.64 c -0.96,0 -1.74,-0.78 -1.74,-1.74 0,-0.96 0.78,-1.74 1.74,-1.74 h 93.74 c 0.96,0 1.74,0.78 1.74,1.74 0,0.96 -0.78,1.74 -1.74,1.74 z m 83.37,18.35 c 1.36,0 2.46,1.1 2.46,2.46 0,1.36 -1.1,2.46 -2.46,2.46 -1.36,0 -2.46,-1.1 -2.46,-2.46 0,-1.36 1.11,-2.46 2.46,-2.46 z m 10.27,0 c 1.36,0 2.46,1.1 2.46,2.46 0,1.36 -1.1,2.46 -2.46,2.46 -1.36,0 -2.46,-1.1 -2.46,-2.46 0,-1.36 1.1,-2.46 2.46,-2.46 z M 8.8,0 h 105.29 c 2.42,0 4.62,0.99 6.21,2.58 1.59,1.59 2.58,3.79 2.58,6.21 V 36.8 c 0,2.42 -0.99,4.62 -2.58,6.21 -1.59,1.59 -3.79,2.58 -6.21,2.58 H 8.8 C 6.38,45.59 4.18,44.6 2.59,43.01 0.99,41.42 0,39.22 0,36.8 V 8.8 C 0,6.38 0.99,4.18 2.58,2.59 4.18,0.99 6.38,0 8.8,0 Z m 6.41,21.76 c -0.96,0 -1.74,-0.78 -1.74,-1.74 0,-0.96 0.78,-1.74 1.74,-1.74 h 93.74 c 0.96,0 1.74,0.78 1.74,1.74 0,0.96 -0.78,1.74 -1.74,1.74 z m 6.16,29.61 c -0.53,-0.51 -0.32,-1.2 0.48,-1.54 0.8,-0.34 1.87,-0.2 2.41,0.3 3.78,3.6 1.96,6.52 0.21,9.32 -1.32,2.12 -2.59,4.15 -0.25,6.19 0.57,0.5 0.4,1.19 -0.37,1.55 -0.77,0.36 -1.86,0.26 -2.43,-0.24 -3.47,-3.03 -1.86,-5.62 -0.17,-8.32 1.41,-2.27 2.88,-4.63 0.12,-7.26 z m 14.64,0 c -0.53,-0.51 -0.32,-1.2 0.48,-1.54 0.8,-0.34 1.87,-0.2 2.41,0.3 3.78,3.6 1.96,6.52 0.21,9.32 -1.32,2.12 -2.59,4.15 -0.25,6.19 0.57,0.5 0.4,1.19 -0.37,1.55 -0.77,0.36 -1.86,0.26 -2.43,-0.24 -3.47,-3.03 -1.86,-5.62 -0.17,-8.32 1.41,-2.27 2.88,-4.63 0.12,-7.26 z m 14.64,0 c -0.53,-0.51 -0.32,-1.2 0.48,-1.54 0.8,-0.34 1.87,-0.2 2.41,0.3 3.78,3.6 1.96,6.52 0.21,9.32 -1.32,2.12 -2.59,4.15 -0.25,6.19 0.57,0.5 0.4,1.19 -0.37,1.55 -0.77,0.36 -1.86,0.26 -2.43,-0.24 -3.47,-3.03 -1.86,-5.62 -0.17,-8.32 1.41,-2.27 2.89,-4.63 0.12,-7.26 z m 14.64,0 c -0.53,-0.51 -0.32,-1.2 0.48,-1.54 0.8,-0.34 1.87,-0.2 2.41,0.3 3.78,3.6 1.96,6.52 0.21,9.32 -1.32,2.12 -2.59,4.15 -0.25,6.19 0.57,0.5 0.4,1.19 -0.37,1.55 -0.77,0.36 -1.86,0.26 -2.43,-0.24 -3.47,-3.03 -1.85,-5.62 -0.17,-8.32 1.41,-2.27 2.89,-4.63 0.12,-7.26 z"
   id="path15570" />

</g><g
           id="g15584"
           transform="matrix(0.03702094,0,0,0.03373472,-3.5859266,-29.1693)"><path
             d="M 841.8938,97.371494 H 180.39938 c -13.50198,0 -24.45448,10.955576 -24.45448,24.454476 v 431.9762 c 0,1.20921 0.50887,2.22695 0.70136,3.37472 0.7628,11.39892 9.1689,21.20774 20.82583,22.86336 l 65.78361,9.23442 c 50.43966,7.25833 111.76937,16.11084 167.93665,22.16302 v 32.41417 H 186.83347 c -13.50197,0 -24.45447,10.9525 -24.45447,24.45447 V 904.3846 c 0,13.50197 10.9525,24.45447 24.45447,24.45447 h 652.19448 c 13.50198,0 24.45448,-10.9525 24.45448,-24.45447 V 668.30736 c 0,-13.50198 -10.9525,-24.45448 -24.45448,-24.45448 H 602.75617 v -31.07697 c 57.57,-5.85969 121.76659,-15.34804 173.79634,-22.99134 l 68.58803,-9.74329 c 12.41973,-1.78361 21.3347,-12.80164 20.95279,-25.09441 0,-0.38191 0.25393,-0.69829 0.25393,-1.1447 V 121.82699 c 10e-4,-13.4989 -10.95148,-24.455496 -24.45346,-24.455496 z"
             fill="#27323a"
             id="path15574" /><path
             d="m 211.28795,692.76184 h 603.2845 v 187.16828 h -603.2845 z"
             fill="#f4ce73"
             id="path15576" /><path
             d="m 460.10232,643.85186 v -27.89473 c 19.67806,1.46722 38.08444,2.42251 53.8789,2.42251 11.97331,0 25.59918,-0.63891 39.86497,-1.52969 v 27.00191 z m 357.33598,-109.2844 -48.01612,6.81498 c -80.37193,11.84635 -190.35462,28.08722 -255.43994,28.08722 -66.10613,0 -180.29187,-16.56135 -263.65661,-28.59609 L 204.8559,534.505 V 146.28147 h 612.58343 v 388.28599 z"
             fill="#ffffff"
             id="path15578" /><path
             d="m 599.25448,798.41349 h 163.60664 c 13.4989,0 24.45448,-10.9525 24.45448,-24.4555 0,-13.49891 -10.95558,-24.45448 -24.45448,-24.45448 H 599.25448 c -13.50197,0 -24.45447,10.95557 -24.45447,24.45448 0,13.503 10.9525,24.4555 24.45447,24.4555 z M 489.39978,541.12851 c 0,-12.03474 9.80473,-21.84357 21.84357,-21.84357 11.97331,0 21.78111,9.8078 21.78111,21.84357 0,11.97332 -9.8078,21.78112 -21.78111,21.78112 -12.03885,0 -21.84357,-9.80882 -21.84357,-21.78112 z M 250.77204,167.48921 c -8.9805,0 -16.30332,7.26139 -16.30332,16.30332 v 310.01712 c 0,9.04501 7.32282,16.30333 16.30332,16.30333 h 520.87709 c 8.98049,0 16.30332,-7.25832 16.30332,-16.30333 V 183.79253 c 0,-9.04193 -7.32283,-16.30332 -16.30332,-16.30332 z"
             fill="#27323a"
             id="path15580" /><path
             d="M 755.3458,200.09586 V 477.50633 H 267.07537 V 200.09586 Z"
             fill="#79ccbf"
             id="path15582" /></g><g
           id="g15646"
           transform="matrix(0.05673058,0,0,0.05992302,46.198684,8.3646221)"><path
             style="fill:#82afaf"
             d="m 427.2,479.2 c 0,8.8 -7.2,15.2 -15.2,15.2 H 82.4 c -8.8,0 -15.2,-7.2 -15.2,-15.2 V 15.2 C 67.2,6.4 74.4,0 82.4,0 h 328.8 c 8.8,0 15.2,7.2 15.2,15.2 v 464 z"
             id="path15586" /><path
             style="fill:#76a3a2"
             d="M 67.2,15.2 C 67.2,6.4 74.4,0 82.4,0 h 328.8 c 8.8,0 15.2,7.2 15.2,15.2 v 464 c 0,8.8 -7.2,15.2 -15.2,15.2"
             id="path15588" /><g
             id="g15594">
	<polygon
   style="fill:#669694"
   points="427.2,374.4 427.2,262.4 303.2,136.8 192,136.8 "
   id="polygon15590" />
	<path
   style="fill:#669694"
   d="M 412,23.2 H 82.4 c -8.8,0 -15.2,7.2 -15.2,15.2 v 90.4 h 360 V 38.4 c 0,-8 -7.2,-15.2 -15.2,-15.2 z"
   id="path15592" />
</g><path
             style="fill:#a3d0d1"
             d="M 412,0 H 82.4 c -8,0 -15.2,7.2 -15.2,15.2 v 90.4 h 360 V 15.2 C 427.2,7.2 420,0 412,0 Z"
             id="path15596" /><path
             style="fill:#91c4c4"
             d="M 427.2,106.4 V 15.2 C 427.2,6.4 420,0 412,0 H 82.4 c -8,0 -15.2,7.2 -15.2,15.2"
             id="path15598" /><path
             style="fill:#b3e0e0"
             d="M 412,0 H 82.4 c -8,0 -15.2,7.2 -15.2,15.2 v 7.2 c 0,-8.8 7.2,-15.2 15.2,-15.2 h 328.8 c 8.8,0 15.2,7.2 15.2,15.2 V 15.2 C 427.2,7.2 420,0 412,0 Z"
             id="path15600" /><path
             style="fill:#a3d0d1"
             d="m 67.2,464.8 v 14.4 c 0,8.8 7.2,15.2 15.2,15.2 h 328.8 c 8.8,0 15.2,-7.2 15.2,-15.2 v -14.4 z"
             id="path15602" /><rect
             x="67.199997"
             y="99.199997"
             style="fill:#b3e0e0"
             width="360"
             height="7.1999998"
             id="rect15604" /><path
             style="fill:#a3d0d1"
             d="m 308,136.8 c 0,5.6 -4,9.6 -9.6,9.6 H 196 c -5.6,0 -9.6,-4 -9.6,-9.6 v 0 c 0,-5.6 4,-9.6 9.6,-9.6 h 103.2 c 4.8,0 8.8,4.8 8.8,9.6 z"
             id="path15606" /><path
             style="fill:#b3e0e0"
             d="M 298.4,127.2 H 196 c -4,0 -8,2.4 -8.8,6.4 1.6,4 4.8,6.4 8.8,6.4 h 103.2 c 4,0 8,-2.4 8.8,-6.4 -1.6,-3.2 -4.8,-6.4 -9.6,-6.4 z"
             id="path15608" /><path
             style="fill:#137d8e"
             d="m 124,52 c 0,10.4 -8,18.4 -18.4,18.4 -10.4,0 -18.4,-8 -18.4,-18.4 0,-10.4 8,-20 18.4,-20 10.4,0 18.4,9.6 18.4,20 z"
             id="path15610" /><path
             style="fill:#72a2a5"
             d="m 124,52 c 0,10.4 -8,27.2 -18.4,27.2 -10.4,0 -18.4,-17.6 -18.4,-27.2 0,-10.4 8,-17.6 18.4,-17.6 10.4,0 18.4,7.2 18.4,17.6 z"
             id="path15612" /><circle
             style="fill:#185b6b"
             cx="105.6"
             cy="52"
             r="18.4"
             id="circle15614" /><path
             style="fill:#073b44"
             d="m 119.2,38.4 c 7.2,7.2 7.2,19.2 0,26.4 C 112,72 100,72 92.8,64.8"
             id="path15616" /><circle
             style="fill:#b8d7e0"
             cx="115.2"
             cy="42.400002"
             r="1.6"
             id="circle15618" /><path
             style="fill:#137d8e"
             d="m 168.8,52 c 0,10.4 -8,18.4 -18.4,18.4 -10.4,0 -18.4,-8 -18.4,-18.4 0,-10.4 8,-20 18.4,-20 10.4,0 18.4,9.6 18.4,20 z"
             id="path15620" /><path
             style="fill:#72a2a5"
             d="m 168.8,52 c 0,10.4 -8,27.2 -18.4,27.2 C 140,79.2 132,62.4 132,52 c 0,-10.4 8,-17.6 18.4,-17.6 10.4,0 18.4,7.2 18.4,17.6 z"
             id="path15622" /><circle
             style="fill:#185b6b"
             cx="150.39999"
             cy="52"
             r="18.4"
             id="circle15624" /><path
             style="fill:#073b44"
             d="m 163.2,38.4 c 7.2,7.2 7.2,19.2 0,26.4 -7.2,7.2 -19.2,7.2 -26.4,0"
             id="path15626" /><circle
             style="fill:#b8d7e0"
             cx="160"
             cy="42.400002"
             r="1.6"
             id="circle15628" /><path
             style="fill:#137d8e"
             d="m 213.6,52 c 0,10.4 -8,18.4 -18.4,18.4 -10.4,0 -18.4,-8 -18.4,-18.4 0,-10.4 8,-20 18.4,-20 10.4,0 18.4,9.6 18.4,20 z"
             id="path15630" /><path
             style="fill:#72a2a5"
             d="m 213.6,52 c 0,10.4 -8,27.2 -18.4,27.2 -10.4,0 -18.4,-16.8 -18.4,-27.2 0,-10.4 8,-17.6 18.4,-17.6 10.4,0 18.4,7.2 18.4,17.6 z"
             id="path15632" /><circle
             style="fill:#185b6b"
             cx="195.2"
             cy="52"
             r="18.4"
             id="circle15634" /><path
             style="fill:#073b44"
             d="m 208,38.4 c 7.2,7.2 7.2,19.2 0,26.4 -7.2,7.2 -19.2,7.2 -26.4,0"
             id="path15636" /><circle
             style="fill:#b8d7e0"
             cx="204.8"
             cy="42.400002"
             r="1.6"
             id="circle15638" /><path
             style="fill:#53ad8a"
             d="m 398.4,67.2 c 0,4 -3.2,7.2 -7.2,7.2 H 290.4 c -4,0 -7.2,-3.2 -7.2,-7.2 V 41.6 c 0,-4 3.2,-7.2 7.2,-7.2 h 100.8 c 4,0 7.2,3.2 7.2,7.2 z"
             id="path15640" /><path
             style="fill:#3ca589"
             d="M 391.2,34.4 H 290.4 c -4,0 -7.2,3.2 -7.2,7.2 v 23.2 c 0,4 3.2,7.2 7.2,7.2 h 100.8 c 4,0 7.2,-3.2 7.2,-7.2 V 41.6 c 0,-4 -3.2,-7.2 -7.2,-7.2 z"
             id="path15642" /><path
             style="fill:#319385"
             d="m 283.2,64.8 c 0,4 3.2,7.2 7.2,7.2 h 100.8 c 4,0 7.2,-3.2 7.2,-7.2 V 41.6 c 0,-4 -3.2,-7.2 -7.2,-7.2"
             id="path15644" /></g><g
           id="g15682"
           transform="matrix(0.0652863,0,0,0.06406848,83.040057,-28.334524)"><path
             style="fill:#54686c"
             d="M 126.527,136.399 H 41.796 c -17.312,0 -31.347,13.992 -31.347,31.251 v 248.812 c 0,17.26 14.035,31.251 31.347,31.251 h 428.408 c 17.312,0 31.347,-13.689 31.347,-30.948 V 167.651 c 0,-17.259 -14.035,-31.251 -31.347,-31.251 H 385.473 126.527 Z"
             id="path15648" /><g
             id="g15654">
	<path
   style="fill:#87a3aa"
   d="m 10.449,407.051 v 9.411 c 0,17.26 14.035,31.251 31.347,31.251 h 428.408 c 17.312,0 31.347,-13.689 31.347,-30.948 v -9.714 z"
   id="path15650" />
	<path
   style="fill:#87a3aa"
   d="M 470.204,136.399 H 385.473 126.527 41.796 c -17.312,0 -31.347,13.992 -31.347,31.251 v 7.377 h 491.102 v -7.377 c 0,-17.258 -14.035,-31.251 -31.347,-31.251 z"
   id="path15652" />
</g><circle
             style="fill:#54686c"
             cx="327.272"
             cy="292.332"
             r="114.719"
             id="circle15656" /><rect
             x="55.380001"
             y="99.830002"
             style="fill:#faf9f9"
             width="78.366997"
             height="36.570999"
             id="rect15658" /><polygon
             style="fill:#54686c"
             points="418.544,135.37 236.006,135.37 249.59,64.287 403.916,64.287 "
             id="polygon15660" /><circle
             style="fill:#87a3aa"
             cx="327.272"
             cy="292.332"
             r="77.198997"
             id="circle15662" /><circle
             style="fill:#54686c"
             cx="327.272"
             cy="292.332"
             r="42.369999"
             id="circle15664" /><path
             d="m 327.276,167.155 c -69.021,0 -125.173,56.152 -125.173,125.173 0,69.021 56.152,125.172 125.173,125.172 69.021,0 125.172,-56.152 125.172,-125.173 0,-69.021 -56.152,-125.172 -125.172,-125.172 z m 0,229.447 c -57.497,0 -104.275,-46.778 -104.275,-104.275 0,-57.497 46.778,-104.275 104.275,-104.275 57.497,0 104.274,46.779 104.274,104.275 0,57.496 -46.778,104.275 -104.274,104.275 z"
             id="path15666" /><path
             d="m 327.276,204.679 c -48.329,0 -87.648,39.318 -87.648,87.648 0,48.33 39.318,87.648 87.648,87.648 48.33,0 87.648,-39.318 87.648,-87.648 0,-48.33 -39.32,-87.648 -87.648,-87.648 z m 0,154.399 c -36.807,0 -66.75,-29.944 -66.75,-66.75 0,-36.806 29.944,-66.75 66.75,-66.75 36.806,0 66.75,29.944 66.75,66.75 0,36.806 -29.945,66.75 -66.75,66.75 z"
             id="path15668" /><path
             d="m 346.687,266.983 c 0.065,0.051 0.161,0.127 0.227,0.177 1.892,1.441 4.116,2.138 6.324,2.138 3.149,0 6.263,-1.418 8.318,-4.117 3.483,-4.57 2.619,-11.091 -1.919,-14.599 -4.504,-3.511 -11.004,-2.756 -14.582,1.715 -3.605,4.506 -2.874,11.082 1.632,14.686 z"
             id="path15670" /><path
             d="m 359.196,292.327 c 0,17.601 -14.319,31.921 -31.921,31.921 -17.601,0 -31.921,-14.319 -31.921,-31.921 0,-5.771 -4.678,-10.449 -10.449,-10.449 -5.771,0 -10.449,4.678 -10.449,10.449 0,29.124 23.694,52.819 52.819,52.819 29.124,0 52.819,-23.694 52.819,-52.819 0,-5.771 -4.678,-10.449 -10.449,-10.449 -5.771,0 -10.449,4.678 -10.449,10.449 z"
             id="path15672" /><path
             d="m 456.62,167.38 c -5.762,0 -10.449,4.687 -10.449,10.449 0,5.762 4.687,10.449 10.449,10.449 5.762,0 10.449,-4.687 10.449,-10.449 0,-5.762 -4.687,-10.449 -10.449,-10.449 z"
             id="path15674" /><path
             d="m 470.204,125.95 h -42.93 L 414.15,62.18 c -1,-4.857 -5.276,-8.342 -10.235,-8.342 H 249.59 c -5.014,0 -9.322,3.562 -10.263,8.488 l -12.158,63.625 H 144.197 V 99.828 c 0,-5.771 -4.678,-10.449 -10.449,-10.449 H 55.38 c -5.771,0 -10.449,4.678 -10.449,10.449 V 125.95 H 41.796 C 18.75,125.95 0,144.657 0,167.65 v 248.812 c 0,22.993 18.75,41.7 41.796,41.7 h 428.408 c 23.046,0 41.796,-18.57 41.796,-41.397 V 167.651 C 512,144.657 493.25,125.95 470.204,125.95 Z M 258.231,74.736 h 137.168 l 10.328,50.184 H 248.641 Z M 65.829,110.277 h 57.469 V 125.95 H 65.829 Z m 425.273,306.489 c 0,11.495 -9.179,20.499 -20.898,20.499 H 41.796 c -11.171,0 -20.297,-8.777 -20.845,-19.765 h 174.631 c 5.771,0 10.449,-4.678 10.449,-10.449 0,-5.771 -4.678,-10.449 -10.449,-10.449 H 20.898 V 188.053 h 174.683 c 5.771,0 10.449,-4.678 10.449,-10.449 0,-5.771 -4.678,-10.449 -10.449,-10.449 H 20.923 c 0.267,-11.24 9.518,-20.307 20.873,-20.307 h 428.408 c 11.523,0 20.898,9.332 20.898,20.802 z"
             id="path15676" /><path
             d="m 229.522,396.602 h -0.137 c -5.771,0 -10.449,4.678 -10.449,10.449 0,5.771 4.678,10.449 10.449,10.449 h 0.137 c 5.771,0 10.449,-4.678 10.449,-10.449 0,-5.771 -4.678,-10.449 -10.449,-10.449 z"
             id="path15678" /><path
             d="m 229.385,188.053 h 0.137 c 5.771,0 10.449,-4.678 10.449,-10.449 0,-5.771 -4.678,-10.449 -10.449,-10.449 h -0.137 c -5.771,0 -10.449,4.678 -10.449,10.449 0,5.771 4.678,10.449 10.449,10.449 z"
             id="path15680" /></g><g
           id="g15698"
           transform="matrix(0.04785007,0,0,0.05177577,47.739577,-25.414407)"><path
             style="fill:#48cfad"
             d="m 128.007,501.311 c -17.656,0 -31.999,-14.359 -31.999,-32 V 42.654 c 0,-17.64 14.343,-31.999 31.999,-31.999 h 255.984 c 17.654,0 31.998,14.359 31.998,31.999 v 426.657 c 0,17.641 -14.344,32 -31.998,32 z"
             id="path15684" /><path
             style="fill:#5d9cec"
             d="m 371.116,354.878 -0.906,-0.281 c -15.094,-4.094 -26.156,-7.983 -32.844,-10.562 -23.592,-9.078 -29.779,-15.641 -31.342,-18.733 -0.031,-0.109 -0.094,-0.234 -0.156,-0.344 l -0.188,-28.891 -100.911,1.156 -0.203,27.734 c -0.047,0.109 -0.094,0.234 -0.141,0.344 -1.578,3.093 -7.719,9.655 -31.343,18.749 -6.656,2.562 -17.75,6.452 -32.718,10.515 l -1.016,0.312 c -13.625,4.547 -22.78,17.312 -22.78,31.719 v 40.045 h 277.326 v -40.045 c 10e-4,-14.406 -9.153,-27.171 -22.778,-31.718 z"
             id="path15686" /><path
             style="fill:#eac6bb"
             d="m 333.803,243.288 c 0,51.061 -48.686,100.153 -78.583,100.153 -29.905,0 -78.575,-49.093 -78.575,-100.153 0,-51.06 35.186,-84.747 78.575,-84.747 43.398,0 78.583,33.686 78.583,84.747 z"
             id="path15688" /><path
             style="fill:#a85d5d"
             d="m 305.868,149.307 c -13.375,-12.109 -58.177,-26.968 -102.864,0 -22.624,13.64 -39.092,73.95 -39.092,73.95 0,0 44.139,25.015 101.591,-2.016 34.396,-16.187 33.615,-7.703 43.428,7.031 5.844,8.734 24.873,15.015 24.873,15.015 0,0 14.812,-55.278 -27.936,-93.98 z"
             id="path15690" /><path
             style="fill:#434a54"
             d="M 383.991,0 H 128.007 C 104.43,0 85.337,19.093 85.337,42.654 v 426.657 c 0,23.562 19.093,42.671 42.67,42.671 h 255.984 c 23.561,0 42.654,-19.108 42.654,-42.671 V 42.654 C 426.645,19.093 407.552,0 383.991,0 Z m 21.342,469.311 c 0,11.766 -9.594,21.328 -21.342,21.328 H 128.007 c -11.765,0 -21.343,-9.562 -21.343,-21.328 V 42.654 c 0,-11.765 9.578,-21.327 21.343,-21.327 h 255.984 c 11.748,0 21.342,9.562 21.342,21.327 z"
             id="path15692" /><path
             style="fill:#434a54"
             d="m 96.008,405.313 v 63.998 c 0,17.641 14.343,32 31.999,32 h 255.984 c 17.654,0 31.998,-14.359 31.998,-32 v -63.998 z"
             id="path15694" /><path
             style="fill:#656d78"
             d="m 256.002,426.641 c -17.687,0 -31.999,14.328 -31.999,31.999 0,17.671 14.312,31.999 31.999,31.999 17.678,0 31.991,-14.328 31.991,-31.999 0,-17.671 -14.313,-31.999 -31.991,-31.999 z m 0,42.67 c -5.89,0 -10.671,-4.781 -10.671,-10.671 0,-5.875 4.781,-10.656 10.671,-10.656 5.875,0 10.657,4.781 10.657,10.656 0,5.89 -4.781,10.671 -10.657,10.671 z"
             id="path15696" /></g><g
           id="g15720"
           transform="matrix(0.1536,0,0,0.1536,56.9856,8.4284814)"><rect
             y="5.5"
             style="fill:#38454f"
             width="58"
             height="38"
             id="rect15700"
             x="0" /><path
             style="fill:#61b872"
             d="M 13.962,21.5 H 11.038 C 10.465,21.5 10,21.035 10,20.462 V 17.538 C 10,16.965 10.465,16.5 11.038,16.5 h 2.924 c 0.573,0 1.038,0.465 1.038,1.038 v 2.924 c 0,0.573 -0.465,1.038 -1.038,1.038 z"
             id="path15702" /><path
             style="fill:#48a0dc"
             d="M 24.962,21.5 H 22.038 C 21.465,21.5 21,21.035 21,20.462 V 17.538 C 21,16.965 21.465,16.5 22.038,16.5 h 2.924 c 0.573,0 1.038,0.465 1.038,1.038 v 2.924 c 0,0.573 -0.465,1.038 -1.038,1.038 z"
             id="path15704" /><path
             style="fill:#ebba16"
             d="M 35.962,21.5 H 33.038 C 32.465,21.5 32,21.035 32,20.462 V 17.538 C 32,16.965 32.465,16.5 33.038,16.5 h 2.924 c 0.573,0 1.038,0.465 1.038,1.038 v 2.924 c 0,0.573 -0.465,1.038 -1.038,1.038 z"
             id="path15706" /><path
             style="fill:#bf4d90"
             d="M 46.962,21.5 H 44.038 C 43.465,21.5 43,21.035 43,20.462 V 17.538 C 43,16.965 43.465,16.5 44.038,16.5 h 2.924 c 0.573,0 1.038,0.465 1.038,1.038 v 2.924 c 0,0.573 -0.465,1.038 -1.038,1.038 z"
             id="path15708" /><path
             style="fill:#dd352e"
             d="M 13.962,32.5 H 11.038 C 10.465,32.5 10,32.035 10,31.462 V 28.538 C 10,27.965 10.465,27.5 11.038,27.5 h 2.924 c 0.573,0 1.038,0.465 1.038,1.038 v 2.924 c 0,0.573 -0.465,1.038 -1.038,1.038 z"
             id="path15710" /><path
             style="fill:#a4e869"
             d="M 24.962,32.5 H 22.038 C 21.465,32.5 21,32.035 21,31.462 V 28.538 C 21,27.965 21.465,27.5 22.038,27.5 h 2.924 c 0.573,0 1.038,0.465 1.038,1.038 v 2.924 c 0,0.573 -0.465,1.038 -1.038,1.038 z"
             id="path15712" /><path
             style="fill:#50508a"
             d="M 35.962,32.5 H 33.038 C 32.465,32.5 32,32.035 32,31.462 V 28.538 C 32,27.965 32.465,27.5 33.038,27.5 h 2.924 c 0.573,0 1.038,0.465 1.038,1.038 v 2.924 c 0,0.573 -0.465,1.038 -1.038,1.038 z"
             id="path15714" /><path
             style="fill:#be7c6d"
             d="M 46.962,32.5 H 44.038 C 43.465,32.5 43,32.035 43,31.462 V 28.538 C 43,27.965 43.465,27.5 44.038,27.5 h 2.924 c 0.573,0 1.038,0.465 1.038,1.038 v 2.924 c 0,0.573 -0.465,1.038 -1.038,1.038 z"
             id="path15716" /><polygon
             style="fill:#afb6bb"
             points="28,49.5 15,49.5 15,52.5 43,52.5 43,49.5 30,49.5 30,43.5 28,43.5 "
             id="polygon15718" /></g><g
           id="g15742"
           transform="matrix(0.77003571,0,0,0.60848731,2.5230789,4.400439)"><rect
             y="5.5"
             style="fill:#38454f"
             width="58"
             height="38"
             id="rect15722"
             x="0" /><path
             style="fill:#61b872"
             d="M 13.962,21.5 H 11.038 C 10.465,21.5 10,21.035 10,20.462 V 17.538 C 10,16.965 10.465,16.5 11.038,16.5 h 2.924 c 0.573,0 1.038,0.465 1.038,1.038 v 2.924 c 0,0.573 -0.465,1.038 -1.038,1.038 z"
             id="path15724" /><path
             style="fill:#48a0dc"
             d="M 24.962,21.5 H 22.038 C 21.465,21.5 21,21.035 21,20.462 V 17.538 C 21,16.965 21.465,16.5 22.038,16.5 h 2.924 c 0.573,0 1.038,0.465 1.038,1.038 v 2.924 c 0,0.573 -0.465,1.038 -1.038,1.038 z"
             id="path15726" /><path
             style="fill:#ebba16"
             d="M 35.962,21.5 H 33.038 C 32.465,21.5 32,21.035 32,20.462 V 17.538 C 32,16.965 32.465,16.5 33.038,16.5 h 2.924 c 0.573,0 1.038,0.465 1.038,1.038 v 2.924 c 0,0.573 -0.465,1.038 -1.038,1.038 z"
             id="path15728" /><path
             style="fill:#bf4d90"
             d="M 46.962,21.5 H 44.038 C 43.465,21.5 43,21.035 43,20.462 V 17.538 C 43,16.965 43.465,16.5 44.038,16.5 h 2.924 c 0.573,0 1.038,0.465 1.038,1.038 v 2.924 c 0,0.573 -0.465,1.038 -1.038,1.038 z"
             id="path15730" /><path
             style="fill:#dd352e"
             d="M 13.962,32.5 H 11.038 C 10.465,32.5 10,32.035 10,31.462 V 28.538 C 10,27.965 10.465,27.5 11.038,27.5 h 2.924 c 0.573,0 1.038,0.465 1.038,1.038 v 2.924 c 0,0.573 -0.465,1.038 -1.038,1.038 z"
             id="path15732" /><path
             style="fill:#a4e869"
             d="M 24.962,32.5 H 22.038 C 21.465,32.5 21,32.035 21,31.462 V 28.538 C 21,27.965 21.465,27.5 22.038,27.5 h 2.924 c 0.573,0 1.038,0.465 1.038,1.038 v 2.924 c 0,0.573 -0.465,1.038 -1.038,1.038 z"
             id="path15734" /><path
             style="fill:#50508a"
             d="M 35.962,32.5 H 33.038 C 32.465,32.5 32,32.035 32,31.462 V 28.538 C 32,27.965 32.465,27.5 33.038,27.5 h 2.924 c 0.573,0 1.038,0.465 1.038,1.038 v 2.924 c 0,0.573 -0.465,1.038 -1.038,1.038 z"
             id="path15736" /><path
             style="fill:#be7c6d"
             d="M 46.962,32.5 H 44.038 C 43.465,32.5 43,32.035 43,31.462 V 28.538 C 43,27.965 43.465,27.5 44.038,27.5 h 2.924 c 0.573,0 1.038,0.465 1.038,1.038 v 2.924 c 0,0.573 -0.465,1.038 -1.038,1.038 z"
             id="path15738" /><polygon
             style="fill:#afb6bb"
             points="30,49.5 30,43.5 28,43.5 28,49.5 15,49.5 15,52.5 43,52.5 43,49.5 "
             id="polygon15740" /></g></g></g></g></clipPath><style
   id="style30742">.cls-1{fill:#ba9bc9;}.cls-2{fill:#8f6c56;}.cls-3{fill:#838bc5;}.cls-4{fill:#fcdd7c;}.cls-5{fill:#65c8d0;}</style>
	
	
	
	
	
	
	
	
</defs><sodipodi:namedview
   id="namedview1873"
   pagecolor="#ffffff"
   bordercolor="#000000"
   borderopacity="0.25"
   inkscape:showpageshadow="2"
   inkscape:pageopacity="0.79215686"
   inkscape:pagecheckerboard="0"
   inkscape:deskcolor="#d1d1d1"
   showgrid="false"
   inkscape:zoom="0.59"
   inkscape:cx="347.45763"
   inkscape:cy="255.9322"
   inkscape:window-width="1366"
   inkscape:window-height="675"
   inkscape:window-x="0"
   inkscape:window-y="0"
   inkscape:window-maximized="1"
   inkscape:current-layer="g12439" />



<g
   id="g12350"
   transform="translate(2.156201,-2.9135431)" /><g
   id="g12439"
   clip-path="none"
   transform="translate(2.2384625,-1.5851611)"><g
     id="g39808"><g
       id="g25505"
       transform="matrix(0.05553589,0,0,0.03660243,86.660874,-20.043255)"><path
         style="fill:#007eef"
         d="M 373.847,367.955 317.559,214.276 c 2.292,-2.245 36.691,-36.628 38.88,-38.817 38.66,-38.676 26.971,-32.65 36.092,-48.813 2.182,-3.033 3.521,-5.797 4.064,-8.247 2.45,-6.105 2.505,-9.941 0.803,-11.65 -1.694,-1.709 -5.53,-1.646 -11.65,0.803 -2.45,0.52 -5.215,1.875 -8.231,4.064 -16.171,9.137 -10.161,-2.568 -48.829,36.092 -2.182,2.182 -36.573,36.588 -38.802,38.88 L 136.208,130.3 c -2.741,-1 -5.797,-0.323 -7.877,1.741 l -11.414,11.398 c -1.52,1.536 -2.308,3.647 -2.15,5.797 0.126,1.827 0.89,3.505 2.166,4.766 0.228,0.228 0.504,0.48 0.772,0.693 l 117.996,89.427 c -34.225,37.691 -67.395,76.524 -85.472,100.447 l -34.477,-8.862 c -1.969,-0.52 -4.049,0.063 -5.474,1.481 l -3.017,3.033 c -1.197,1.197 -1.804,2.859 -1.646,4.537 0.095,1.339 0.709,2.584 1.646,3.537 0.228,0.228 0.488,0.433 0.756,0.63 l 25.726,18.046 c 0.772,0.536 1.646,0.803 2.521,0.906 0.11,0.874 0.37,1.772 0.906,2.521 l 18.046,25.726 c 0.197,0.276 0.417,0.52 0.646,0.772 0.929,0.922 2.166,1.52 3.537,1.646 1.678,0.158 3.34,-0.449 4.537,-1.646 l 3.033,-3.033 c 1.426,-1.418 1.985,-3.489 1.473,-5.459 l -8.838,-34.477 c 23.891,-18.093 62.724,-51.263 100.431,-85.48 l 89.435,118.012 c 0.189,0.26 0.425,0.52 0.67,0.756 1.26,1.26 2.954,2.064 4.758,2.182 2.174,0.142 4.285,-0.646 5.79,-2.182 l 11.429,-11.398 c 2.068,-2.065 2.73,-5.121 1.73,-7.862 z"
         id="path25476" /><path
         style="fill:#0453aa"
         d="M 373.847,367.955 317.559,214.276 c 2.292,-2.245 36.691,-36.628 38.88,-38.817 38.66,-38.676 26.971,-32.65 36.092,-48.813 2.182,-3.033 3.521,-5.797 4.064,-8.247 2.45,-6.105 2.505,-9.941 0.803,-11.65 -1.694,-1.709 -5.53,-1.646 -11.65,0.803 -2.45,0.52 -5.215,1.875 -8.231,4.064 -16.171,9.137 -10.161,-2.568 -48.829,36.092 -2.182,2.182 -36.573,36.588 -38.802,38.88 l -25.403,-9.295 -0.016,97.028 85.008,112.136 c 0.189,0.26 0.425,0.52 0.67,0.756 1.26,1.26 2.954,2.064 4.758,2.182 2.174,0.142 4.285,-0.646 5.79,-2.182 l 11.429,-11.398 c 2.063,-2.063 2.725,-5.119 1.725,-7.86 z"
         id="path25478" /><g
         id="g25484">
	<path
   style="fill:#007eef"
   d="m 41.889,262.372 c -5.679,0 -10.279,-4.6 -10.279,-10.279 0,-121.588 98.911,-220.475 220.459,-220.475 5.679,0 10.279,4.616 10.279,10.295 0,5.679 -4.592,10.256 -10.272,10.256 -110.23,0 -199.908,89.679 -199.908,199.924 10e-4,5.679 -4.599,10.279 -10.279,10.279 z"
   id="path25480" />
	<path
   style="fill:#007eef"
   d="m 252.077,472.552 c -5.679,0 -10.295,-4.616 -10.295,-10.295 0,-5.679 4.616,-10.279 10.295,-10.279 110.222,0 199.901,-89.679 199.901,-199.893 0,-5.679 4.608,-10.295 10.287,-10.295 5.679,0 10.279,4.616 10.279,10.295 -0.007,121.565 -98.91,220.467 -220.467,220.467 z"
   id="path25482" />
</g><g
         id="g25490">
	<path
   style="fill:#0453aa"
   d="m 234.701,87.552 c -3.938,0 -7.869,-1.489 -10.878,-4.506 -6.01,-6.002 -6.01,-15.738 0,-21.74 L 241.341,43.78 223.823,26.27 c -6.01,-6.018 -6.01,-15.738 0,-21.756 6.01,-6.018 15.746,-6.018 21.748,0 l 39.259,39.259 -39.259,39.259 c -3.001,3.031 -6.94,4.52 -10.87,4.52 z"
   id="path25486" />
	<path
   style="fill:#0453aa"
   d="m 269.446,416.618 c 3.938,-0.016 7.877,1.489 10.878,4.49 6.018,6.018 6.018,15.738 0,21.756 l -17.51,17.526 17.51,17.51 c 6.018,6.002 6.002,15.738 0,21.74 -6.002,6.018 -15.73,6.018 -21.74,0 l -39.274,-39.259 39.274,-39.243 c 3.001,-3.031 6.939,-4.52 10.862,-4.52 z"
   id="path25488" />
</g></g><g
       id="g27798"
       transform="matrix(0.06968155,0,0,0.05291214,46.068319,-26.518874)"><rect
         x="28"
         y="454"
         style="fill:#616161"
         width="148"
         height="28"
         id="rect27685" /><path
         style="fill:#b2dfdb"
         d="M 336,450 H 480 V 130 H 323.6 v 12 c 0,6.8 -5.2,12 -12,12 h -24.4 c -6.4,0 -11.6,-4.8 -11.6,-11.6 V 130 h -40.4 v 12 c 0,6.8 -5.2,12 -12,12 h -24.4 c -6.4,0 -11.6,-4.8 -11.6,-11.6 V 130 h -160 v 320 h 148 z"
         id="path27687" /><rect
         x="332"
         y="450"
         style="fill:#616161"
         width="148"
         height="32"
         id="rect27689" /><g
         id="g27711">
	<rect
   x="90"
   y="176"
   style="fill:#eeeeee"
   width="56"
   height="56"
   id="rect27691" />
	<rect
   x="178"
   y="176"
   style="fill:#eeeeee"
   width="60"
   height="60"
   id="rect27693" />
	<rect
   x="270"
   y="174"
   style="fill:#eeeeee"
   width="62"
   height="62"
   id="rect27695" />
	<rect
   x="366"
   y="176"
   style="fill:#eeeeee"
   width="56"
   height="56"
   id="rect27697" />
	<rect
   x="90"
   y="268"
   style="fill:#eeeeee"
   width="56"
   height="56"
   id="rect27699" />
	<rect
   x="178"
   y="268"
   style="fill:#eeeeee"
   width="60"
   height="60"
   id="rect27701" />
	<rect
   x="274"
   y="268"
   style="fill:#eeeeee"
   width="56"
   height="56"
   id="rect27703" />
	<rect
   x="366"
   y="268"
   style="fill:#eeeeee"
   width="56"
   height="56"
   id="rect27705" />
	<rect
   x="90"
   y="360"
   style="fill:#eeeeee"
   width="56"
   height="56"
   id="rect27707" />
	<rect
   x="366"
   y="360"
   style="fill:#eeeeee"
   width="56"
   height="56"
   id="rect27709" />
</g><path
         style="fill:#e57373"
         d="M 319.6,122.4 319.2,28 c 0,-2 -1.6,-2 -4,-2 h -28 c -2.4,0 -7.6,-1.6 -7.6,0.4 v 32 c 0,2.4 2.4,7.6 0,7.6 h -44 c 0,0 -4,-3.6 -4,-5.6 l -0.4,-31.2 c 0,-2 -2,-3.2 -4,-3.2 h -28 c -2.4,0 -7.6,-1.6 -7.6,0.4 v 96 23.6 c 0,2 5.2,3.6 7.6,3.6 h 28.4 c 2,0 4.4,-5.6 4.4,-7.6 v -36 c 0,-1.2 2,-0.4 2.8,-1.2 0.8,-0.8 -0.4,0.4 0.8,0.4 H 280 c 2.4,0 0,0 0,0 v 16.4 23.6 c 0,2 5.2,3.6 7.6,3.6 H 316 c 2,0 4,-3.6 4,-6 z"
         id="path27713" /><polygon
         style="fill:#78909c"
         points="260,362 252,362 180,362 180,450.4 180,482 252,482 260,482 328,482 328,450.4 328,362 "
         id="polygon27715" /><path
         d="m 276,132 h -40 c -2.4,0 -4,-1.6 -4,-4 0,-2.4 1.6,-4 4,-4 h 40 c 2.4,0 4,1.6 4,4 0,2.4 -1.6,4 -4,4 z"
         id="path27717" /><path
         d="M 482,488 H 26 c -2.4,0 -4,-1.6 -4,-4 V 128 c 0,-2.4 1.6,-4 4,-4 h 162 c 2.4,0 4,1.6 4,4 0,2.4 -1.6,4 -4,4 H 30 V 480 H 478 V 132 H 324 c -2.4,0 -4,-1.6 -4,-4 0,-2.4 1.6,-4 4,-4 h 158 c 2.4,0 4,1.6 4,4 v 356 c 0,2.4 -1.6,4 -4,4 z"
         id="path27719" /><path
         d="M 146,240 H 86 c -2.4,0 -4,-1.6 -4,-4 v -60 c 0,-2.4 1.6,-4 4,-4 h 60 c 2.4,0 4,1.6 4,4 v 60 c 0,2.4 -1.6,4 -4,4 z m -56,-8 h 52 V 180 H 90 Z"
         id="path27721" /><path
         d="m 238,240 h -60 c -2.4,0 -4,-1.6 -4,-4 v -60 c 0,-2.4 1.6,-4 4,-4 h 60 c 2.4,0 4,1.6 4,4 v 60 c 0,2.4 -1.6,4 -4,4 z m -56,-8 h 52 v -52 h -52 z"
         id="path27723" /><path
         d="m 330,240 h -60 c -2.4,0 -4,-1.6 -4,-4 v -60 c 0,-2.4 1.6,-4 4,-4 h 60 c 2.4,0 4,1.6 4,4 v 60 c 0,2.4 -1.6,4 -4,4 z m -56,-8 h 52 v -52 h -52 z"
         id="path27725" /><path
         d="m 422,240 h -60 c -2.4,0 -4,-1.6 -4,-4 v -60 c 0,-2.4 1.6,-4 4,-4 h 60 c 2.4,0 4,1.6 4,4 v 60 c 0,2.4 -1.6,4 -4,4 z m -56,-8 h 52 v -52 h -52 z"
         id="path27727" /><path
         d="M 146,332 H 86 c -2.4,0 -4,-1.6 -4,-4 v -60 c 0,-2.4 1.6,-4 4,-4 h 60 c 2.4,0 4,1.6 4,4 v 60 c 0,2.4 -1.6,4 -4,4 z m -56,-8 h 52 V 272 H 90 Z"
         id="path27729" /><path
         d="m 238,332 h -60 c -2.4,0 -4,-1.6 -4,-4 v -60 c 0,-2.4 1.6,-4 4,-4 h 60 c 2.4,0 4,1.6 4,4 v 60 c 0,2.4 -1.6,4 -4,4 z m -56,-8 h 52 v -52 h -52 z"
         id="path27731" /><path
         d="m 330,332 h -60 c -2.4,0 -4,-1.6 -4,-4 v -60 c 0,-2.4 1.6,-4 4,-4 h 60 c 2.4,0 4,1.6 4,4 v 60 c 0,2.4 -1.6,4 -4,4 z m -56,-8 h 52 v -52 h -52 z"
         id="path27733" /><path
         d="m 422,332 h -60 c -2.4,0 -4,-1.6 -4,-4 v -60 c 0,-2.4 1.6,-4 4,-4 h 60 c 2.4,0 4,1.6 4,4 v 60 c 0,2.4 -1.6,4 -4,4 z m -56,-8 h 52 v -52 h -52 z"
         id="path27735" /><path
         d="M 146,424 H 86 c -2.4,0 -4,-1.6 -4,-4 v -60 c 0,-2.4 1.6,-4 4,-4 h 60 c 2.4,0 4,1.6 4,4 v 60 c 0,2.4 -1.6,4 -4,4 z m -56,-8 h 52 V 364 H 90 Z"
         id="path27737" /><path
         d="m 422,424 h -60 c -2.4,0 -4,-1.6 -4,-4 v -60 c 0,-2.4 1.6,-4 4,-4 h 60 c 2.4,0 4,1.6 4,4 v 60 c 0,2.4 -1.6,4 -4,4 z m -56,-8 h 52 v -52 h -52 z"
         id="path27739" /><path
         d="M 176,456 H 28 c -2.4,0 -4,-1.6 -4,-4 0,-2.4 1.6,-4 4,-4 h 148 c 2.4,0 4,1.6 4,4 0,2.4 -1.6,4 -4,4 z"
         id="path27741" /><path
         d="m 480,456 h -12 c -2.4,0 -4,-1.6 -4,-4 0,-2.4 1.6,-4 4,-4 h 12 c 2.4,0 4,1.6 4,4 0,2.4 -1.6,4 -4,4 z"
         id="path27743" /><path
         d="M 436,456 H 332 c -2.4,0 -4,-1.6 -4,-4 0,-2.4 1.6,-4 4,-4 h 104 c 2.4,0 4,1.6 4,4 0,2.4 -1.6,4 -4,4 z"
         id="path27745" /><path
         d="m 254,378 c -2.4,0 -4,-1.6 -4,-4 v -12 c 0,-2.4 1.6,-4 4,-4 2.4,0 4,1.6 4,4 v 12 c 0,2.4 -1.6,4 -4,4 z"
         id="path27747" /><path
         d="m 254,482 c -2.4,0 -4,-1.6 -4,-4 v -72 c 0,-2.4 1.6,-4 4,-4 2.4,0 4,1.6 4,4 v 72 c 0,2.4 -1.6,4 -4,4 z"
         id="path27749" /><path
         d="M 504,488 H 4 c -2.4,0 -4,-1.6 -4,-4 0,-2.4 1.6,-4 4,-4 h 500 c 2.4,0 4,1.6 4,4 0,2.4 -1.6,4 -4,4 z"
         id="path27751" /><path
         d="M 315.6,156 H 284 c -3.6,0 -10,0 -10,-8.4 V 112 h -36.4 v 34.8 c 0,6.8 -2.8,9.2 -9.2,9.2 h -32.8 c -6.4,0 -9.6,-3.6 -9.6,-10.4 V 30 c 0,-2.8 1.2,-10 11.2,-10 h 29.6 c 8,0 9.2,4.8 9.2,10 v 32 h 38 V 30 c 0,-2.8 1.2,-10 11.2,-10 h 31.2 c 8,0 9.2,4.8 9.2,9.6 l 0.4,115.6 c -0.4,9.6 -7.2,10.8 -10.4,10.8 z M 282,148 c 0.8,0 1.6,0 2,0 h 31.6 c 1.6,0 2,0 2,-2.8 L 317.2,29.6 v 0 c 0,-0.8 0,-1.2 0,-1.6 -0.4,0 -0.8,0 -1.2,0 h -31.2 c -3.2,0 -3.2,0.4 -3.2,2 v 36 c 0,2.4 -1.6,4 -4,4 h -46 c -0.8,0 -2,-0.4 -2.8,-1.2 C 228,68 227.6,67.2 227.6,66 V 30 c 0,-0.8 0,-1.6 0,-2 -0.4,0 -0.4,0 -1.2,0 h -29.6 c -3.2,0 -3.2,0.4 -3.2,2 v 115.6 c 0,1.6 0,2 0.4,2.4 0,0 0.4,0 1.6,0 h 32.8 c 0.4,0 0.8,0 1.2,0 0,-0.4 0,-0.8 0,-1.2 V 108 c 0,-1.2 0.4,-2 1.2,-2.8 0.8,-0.8 1.6,-1.2 2.8,-1.2 H 278 c 2.4,0 4,1.6 4,4 v 39.6 c 0,0 0,0.4 0,0.4 z"
         id="path27753" /><path
         d="M 330,488 H 178 c -2.4,0 -4,-1.6 -4,-4 V 360 c 0,-2.4 1.6,-4 4,-4 h 152 c 2.4,0 4,1.6 4,4 v 124 c 0,2.4 -1.6,4 -4,4 z M 182,480 H 326 V 364 H 182 Z"
         id="path27755" /></g><g
       id="g29288"
       transform="matrix(0.03558599,0,0,0.02333964,2.0660959,-23.607278)"><path
         d="M 32,388.8 H 992 V 992 H 32 Z"
         fill="#fad97f"
         id="path29252" /><path
         d="M 496,121.6 395.2,60.8 496,0 Z"
         fill="#f2385a"
         id="path29254" /><path
         d="m 156.8,584 h 52.8 v 48 h -52.8 z m 0,-83.2 h 52.8 V 552 h -52.8 z m 84.8,83.2 h 52.8 v 48 H 241.6 Z M 240,500.8 h 52.8 V 552 H 240 Z"
         fill="#ffffff"
         id="path29256" /><path
         d="M 124.8,468.8 V 664 H 326.4 V 468.8 Z m 168,83.2 H 240 v -51.2 h 52.8 z m -83.2,80 h -52.8 v -48 h 52.8 z m 0,-80 h -52.8 v -51.2 h 52.8 z m 84.8,80 h -52.8 v -48 h 52.8 z"
         fill=""
         id="path29258" /><path
         d="M 443.2,500.8 H 496 V 552 h -52.8 z m 0,83.2 H 496 v 48 H 443.2 Z M 528,500.8 h 52.8 V 552 H 528 Z m 0,83.2 h 52.8 v 48 H 528 Z"
         fill="#ffffff"
         id="path29260" /><path
         d="M 411.2,468.8 V 664 H 612.8 V 468.8 Z M 496,584 v 48 H 443.2 V 584 Z M 443.2,552 V 500.8 H 496 V 552 Z m 84.8,80 v -48 h 52.8 v 48 z m 52.8,-80 H 528 v -51.2 h 52.8 z"
         fill=""
         id="path29262" /><path
         d="M 731.2,500.8 H 784 V 552 h -52.8 z m 83.2,0 h 52.8 V 552 h -52.8 z m 0,83.2 h 52.8 v 48 h -52.8 z m -84.8,0 h 52.8 v 48 h -52.8 z"
         fill="#ffffff"
         id="path29264" /><path
         d="M 699.2,468.8 V 664 H 900.8 V 468.8 Z M 782.4,632 h -52.8 v -48 h 52.8 z M 784,552 H 731.2 V 500.8 H 784 Z m 83.2,80 h -52.8 v -48 h 52.8 z m 0,-80 h -52.8 v -51.2 h 52.8 z"
         fill=""
         id="path29266" /><path
         d="M 427.2,808 H 596.8 V 992 H 427.2 Z"
         fill="#ffffff"
         id="path29268" /><path
         d="M 528,356.8 V 0 H 496 V 356.8 H 0 V 1024 H 1024 V 356.8 Z M 596.8,992 H 427.2 V 808 H 596.8 Z M 992,992 H 628.8 V 776 H 395.2 V 992 H 32 V 388.8 h 960 z"
         fill=""
         id="path29270" /></g><g
       id="g30807"
       transform="matrix(0.52295764,0,0,0.36616659,46.695188,9.1616401)"><rect
         class="cls-1"
         height="14"
         width="34"
         x="15"
         y="48"
         id="rect30746" /><path
         class="cls-2"
         d="M 21.46,33 H 23 V 31 H 21 L 19.84,26 H 21 V 24 H 19.36 L 18,18 h 12 l -4,-4 h -9 v -0.23 a 1,1 0 0 0 -1.94,0 L 15,14 H 6 l -4,4 h 12 l -1.4,6 H 11 v 2 h 1.17 L 11,31 H 9 v 2 h 1.54 L 8.21,43 H 7 v 2 h 4 v -2 h -0.74 l 0.5,-2.15 5.24,-4.28 5.24,4.28 0.5,2.15 H 21 v 2 h 4 v -2 h -1.21 z m -2.52,-2 h -5.11 l 4.22,-3.8 z M 17.31,24 H 14.69 L 16,18.4 Z m -3.08,2 h 2.16 l -2.74,2.47 z m -2.72,11.66 0.93,-4 2,1.62 z M 16,34 14.8,33 h 2.4 z m 1.58,1.29 2,-1.62 0.93,4 z"
         id="path30748" /><polygon
         class="cls-3"
         points="23,24 23,26 25,26 25,28 27,28 27,26 29,26 29,24 27,24 27,23 29,23 29,21 27,21 27,18 25,18 25,21 23,21 23,23 25,23 25,24 "
         id="polygon30750" /><polygon
         class="cls-3"
         points="5,18 5,21 3,21 3,23 5,23 5,24 3,24 3,26 5,26 5,28 7,28 7,26 9,26 9,24 7,24 7,23 9,23 9,21 7,21 7,18 "
         id="polygon30752" /><path
         class="cls-2"
         d="M 53.46,33 H 55 V 31 H 53 L 51.84,26 H 53 V 24 H 51.36 L 50,18 h 12 l -4,-4 h -9 v -0.23 a 1,1 0 0 0 -1.94,0 L 47,14 h -9 l -4,4 h 12 l -1.4,6 H 43 v 2 h 1.17 L 43,31 h -2 v 2 h 1.54 L 40.21,43 H 39 v 2 h 4 v -2 h -0.74 l 0.5,-2.15 5.24,-4.28 5.24,4.28 0.5,2.15 H 53 v 2 h 4 v -2 h -1.21 z m -2.52,-2 h -5.11 l 4.22,-3.8 z M 49.31,24 H 46.69 L 48,18.4 Z m -3.08,2 h 2.16 l -2.74,2.47 z m -2.72,11.66 0.93,-4 2,1.62 z M 48,34 46.8,33 h 2.4 z m 1.58,1.29 2,-1.62 0.93,4 z"
         id="path30754" /><polygon
         class="cls-3"
         points="55,24 55,26 57,26 57,28 59,28 59,26 61,26 61,24 59,24 59,23 61,23 61,21 59,21 59,18 57,18 57,21 55,21 55,23 57,23 57,24 "
         id="polygon30756" /><polygon
         class="cls-3"
         points="37,18 37,21 35,21 35,23 37,23 37,24 35,24 35,26 37,26 37,28 39,28 39,26 41,26 41,24 39,24 39,23 41,23 41,21 39,21 39,18 "
         id="polygon30758" /><path
         class="cls-4"
         d="M 16.89,10.45 15.11,9.55 16.38,7 H 14 A 1,1 0 0 1 13.11,5.55 l 2,-4 1.78,0.9 L 15.62,5 H 18 a 1,1 0 0 1 0.89,1.45 z"
         id="path30760" /><path
         class="cls-4"
         d="M 48.89,10.45 47.11,9.55 48.38,7 H 46 A 1,1 0 0 1 45.11,5.55 l 2,-4 1.78,0.9 L 47.62,5 H 50 a 1,1 0 0 1 0.89,1.45 z"
         id="path30762" /><polyline
         class="cls-3"
         points="39 62 39 52 32 42 25 52 25 62"
         id="polyline30764" /><polyline
         class="cls-5"
         points="30 62 30 58 34 58 34 62"
         id="polyline30766" /><rect
         class="cls-2"
         height="2"
         width="40"
         x="12"
         y="61"
         id="rect30768" /><rect
         class="cls-4"
         height="2"
         width="2"
         x="28"
         y="53"
         id="rect30770" /><rect
         class="cls-4"
         height="2"
         width="2"
         x="31"
         y="49"
         id="rect30772" /><rect
         class="cls-4"
         height="2"
         width="2"
         x="34"
         y="53"
         id="rect30774" /><rect
         class="cls-4"
         height="2"
         width="2"
         x="44"
         y="51"
         id="rect30776" /><rect
         class="cls-4"
         height="2"
         width="2"
         x="44"
         y="55"
         id="rect30778" /><rect
         class="cls-4"
         height="2"
         width="2"
         x="18"
         y="51"
         id="rect30780" /><rect
         class="cls-4"
         height="2"
         width="2"
         x="18"
         y="55"
         id="rect30782" /></g><g
       id="Layer_8"
       transform="matrix(0.56143057,0,0,0.3512764,1.6217937,10.822948)">

<polygon
   class="st0"
   points="62,16 60,16 42,34 42,38 50,38 50,34 62,22 "
   id="polygon32263" />

<path
   class="st1"
   d="m 54,31 h -8 v -2 h 7 v -7 c 0,-0.6 0.4,-1 1,-1 h 8 v 2 h -7 v 7 c 0,0.6 -0.4,1 -1,1 z"
   id="path32265" />

<path
   class="st2"
   d="m 60,35 c -1.7,0 -3,-1.3 -3,-3 h 2 c 0,0.6 0.4,1 1,1 0.6,0 1,-0.4 1,-1 0,-0.6 -0.4,-1 -1,-1 -0.6,0 -1,-0.4 -1,-1 v -6 h 2 v 5.2 c 1.6,0.6 2.4,2.3 1.8,3.8 -0.4,1.2 -1.5,2 -2.8,2 z"
   id="path32267" />

<rect
   class="st1"
   height="2"
   width="8"
   x="42"
   y="33"
   id="rect32269" />

<path
   class="st1"
   d="m 50,39 h -8 c -0.6,0 -1,-0.4 -1,-1 v -4 c 0,-0.3 0.1,-0.5 0.3,-0.7 l 18,-18 C 59.5,15.1 59.7,15 60,15 h 2 c 0.6,0 1,0.4 1,1 v 6 c 0,0.3 -0.1,0.5 -0.3,0.7 L 51,34.4 V 38 c 0,0.6 -0.4,1 -1,1 z m -7,-2 h 6 v -3 c 0,-0.3 0.1,-0.5 0.3,-0.7 L 61,21.6 V 17 H 60.4 L 43,34.4 Z"
   id="path32271" />

<rect
   class="st3"
   height="4"
   width="2"
   x="28"
   y="6"
   id="rect32273" />

<polyline
   class="st4"
   points="26,13 26,9 32,9 32,13  "
   id="polyline32275" />

<polygon
   class="st3"
   points="36,42 22,42 24,12 34,12 "
   id="polygon32277" />

<rect
   class="st4"
   height="10.2"
   transform="matrix(0.1961,-0.9806,0.9806,0.1961,5.6618,42.9068)"
   width="2"
   x="28"
   y="12.9"
   id="rect32279" />

<rect
   class="st4"
   height="2"
   width="12"
   x="23"
   y="22"
   id="rect32281" />

<rect
   class="st4"
   height="2"
   width="12"
   x="23"
   y="32"
   id="rect32283" />

<rect
   class="st4"
   height="2"
   transform="matrix(0.9864,-0.1641,0.1641,0.9864,-4.2013,5.138)"
   width="12.2"
   x="22.9"
   y="27"
   id="rect32285" />

<rect
   class="st4"
   height="14.1"
   transform="matrix(0.1414,-0.9899,0.9899,0.1414,-12.7194,61.3352)"
   width="2"
   x="28"
   y="30.9"
   id="rect32287" />

<path
   class="st4"
   d="M 36,43 H 22 c -0.6,0 -1,-0.4 -1,-1 0,0 0,0 0,-0.1 l 2,-30 C 23,11.4 23.5,11 24,11 h 10 c 0.5,0 1,0.4 1,0.9 l 2,30 c 0,0.6 -0.4,1.1 -1,1.1 0,0 0,0 0,0 z M 23.1,41 H 35 L 33.1,13 H 25 Z"
   id="path32289" />

<polyline
   class="st3"
   points="8,6 8,2 14,2 14,6  "
   id="polyline32291" />

<rect
   class="st0"
   height="30"
   width="10"
   x="6"
   y="6"
   id="rect32293" />

<path
   class="st1"
   d="m 15.3,36.7 -10,-10 c -0.4,-0.4 -0.4,-1 0,-1.4 L 14.6,16 5.3,6.7 6.7,5.3 l 10,10 c 0.4,0.4 0.4,1 0,1.4 l -9.3,9.3 9.3,9.3 z"
   id="path32295" />

<path
   class="st1"
   d="M 6.7,36.7 5.3,35.3 14.6,26 5.3,16.7 c -0.4,-0.4 -0.4,-1 0,-1.4 l 10,-10 1.4,1.4 -9.3,9.3 9.3,9.3 c 0.4,0.4 0.4,1 0,1.4 z"
   id="path32297" />

<path
   class="st1"
   d="M 16,37 H 6 C 5.4,37 5,36.6 5,36 V 6 C 5,5.4 5.4,5 6,5 h 10 c 0.6,0 1,0.4 1,1 v 30 c 0,0.6 -0.4,1 -1,1 z M 7,35 h 8 V 7 H 7 Z"
   id="path32299" />

<rect
   class="st5"
   height="6"
   width="14"
   x="4"
   y="36"
   id="rect32301" />

<polyline
   class="st5"
   points="62,42 58,38 40,38 40,42  "
   id="polyline32303" />

<rect
   class="st6"
   height="8"
   width="60"
   x="2"
   y="54"
   id="rect32305" />

<polyline
   class="st7"
   points="16,60.7 16,46 6,46 6,56.9  "
   id="polyline32307" />

<rect
   class="st8"
   height="4"
   width="60"
   x="2"
   y="42"
   id="rect32309" />

<polyline
   class="st8"
   points="48,61 48,46 58,46 58,56.8  "
   id="polyline32311" />

<rect
   class="st5"
   height="4"
   width="10"
   x="6"
   y="46"
   id="rect32313" />

<rect
   class="st5"
   height="4"
   width="10"
   x="48"
   y="46"
   id="rect32315" />

<polyline
   class="st7"
   points="52,59 52,50 48,50 48,61  "
   id="polyline32317" />

<polyline
   class="st8"
   points="12,59 12,50 16,50 16,60.5  "
   id="polyline32319" />

<path
   class="st6"
   d="m 44,12 c -1.1,0 -2,-0.9 -2,-2 0,-1.1 0.9,-2 2,-2 0.2,0 0.4,0 0.6,0.1 C 43.4,6.2 44,3.8 45.9,2.6 47.8,1.4 50.2,2 51.4,3.9 51.8,4.5 52,5.2 52,6 52,6.1 52,6.1 52,6.2 52.3,6.1 52.7,6 53,6 c 1.7,0 3,1.3 3,3 0,1.7 -1.3,3 -3,3 z"
   id="path32321" />

<path
   class="st9"
   d="M 61.6,62 58.5,58.9 C 57.9,58.3 57.2,58 56.4,58 h -0.7 c -0.8,0 -1.6,0.3 -2.1,0.9 l -1.7,1.7 c -0.9,0.9 -2.2,1.5 -3.5,1.5 h -0.7 c -1.3,0 -2.6,-0.5 -3.5,-1.5 L 42.5,58.9 C 41.9,58.3 41.2,58 40.4,58 h -0.7 c -0.8,0 -1.6,0.3 -2.1,0.9 l -1.7,1.7 c -0.9,0.9 -2.2,1.5 -3.5,1.5 h -0.7 c -1.3,0 -2.6,-0.5 -3.5,-1.5 L 26.5,58.9 C 25.9,58.3 25.2,58 24.4,58 h -0.7 c -0.8,0 -1.6,0.3 -2.1,0.9 l -1.7,1.7 c -0.9,0.9 -2.2,1.5 -3.5,1.5 h -0.7 c -1.3,0 -2.6,-0.5 -3.5,-1.5 L 10.5,58.9 C 9.9,58.3 9.1,58 8.3,58 H 7.7 C 6.9,58 6.1,58.3 5.6,58.9 L 2.4,62 H 2 v -2.4 l 2.1,-2.1 c 1,-1 2.2,-1.5 3.6,-1.5 h 0.7 c 1.3,0 2.6,0.5 3.5,1.5 l 1.7,1.7 c 0.6,0.6 1.3,0.9 2.1,0.9 h 0.7 c 0.8,0 1.6,-0.3 2.1,-0.9 l 1.7,-1.7 C 21.1,56.6 22.4,56 23.7,56 h 0.7 c 1.3,0 2.6,0.5 3.5,1.5 l 1.7,1.7 c 0.6,0.6 1.3,0.9 2.1,0.9 h 0.7 c 0.8,0 1.6,-0.3 2.1,-0.9 l 1.7,-1.7 C 37.1,56.6 38.4,56 39.7,56 h 0.7 c 1.3,0 2.6,0.5 3.5,1.5 l 1.7,1.7 c 0.6,0.6 1.3,0.9 2.1,0.9 h 0.7 c 0.8,0 1.6,-0.3 2.1,-0.9 l 1.7,-1.7 C 53.1,56.6 54.4,56 55.7,56 h 0.7 c 1.3,0 2.6,0.5 3.5,1.5 L 62,59.6 V 62 Z"
   id="path32323" />

</g><g
       id="g34607"
       transform="matrix(0.0617006,0,0,0.06594347,84.594466,2.7392661)"><path
         style="fill:#e7e8e3"
         d="m 512,402.282 c 0,16.716 -13.55,30.267 -30.265,30.267 H 30.265 C 13.55,432.549 0,418.996 0,402.282 V 109.717 C 0,93.001 13.55,79.451 30.265,79.451 h 451.469 c 16.716,0 30.265,13.551 30.265,30.266 z"
         id="path34542" /><path
         style="opacity:0.15;fill:#202121;enable-background:new"
         d="M 21.517,402.282 V 109.717 c 0,-16.716 13.552,-30.266 30.267,-30.266 H 30.264 C 13.55,79.451 0,93.003 0,109.717 v 292.565 c 0,16.716 13.55,30.267 30.265,30.267 h 21.52 c -16.715,0 -30.268,-13.553 -30.268,-30.267 z"
         id="path34544" /><g
         id="g34580">
	<rect
   x="44.889"
   y="179.38"
   style="fill:#d92b2b"
   width="88.300003"
   height="17.681999"
   id="rect34574" />
	<rect
   x="44.889"
   y="243.03"
   style="fill:#d92b2b"
   width="88.300003"
   height="17.681"
   id="rect34576" />
	<rect
   x="44.889"
   y="211.2"
   style="fill:#d92b2b"
   width="88.300003"
   height="17.681999"
   id="rect34578" />
</g></g><text
       xml:space="preserve"
       style="font-size:5.18336px;fill:none;stroke:#003f98;stroke-width:0.431946"
       x="95.79023"
       y="21.292984"
       id="text35026-9-62-1"
       transform="scale(0.99663864,1.0033727)"><tspan
         sodipodi:role="line"
         id="tspan35024-3-6-8"
         style="stroke-width:0.431946"
         x="95.79023"
         y="21.292984">Bank</tspan></text><text
       xml:space="preserve"
       style="font-size:5.18336px;fill:none;stroke:#003f98;stroke-width:0.431946"
       x="14.422725"
       y="4.6635132"
       id="text35026"
       transform="scale(0.99663864,1.0033727)"><tspan
         sodipodi:role="line"
         id="tspan35024"
         style="stroke-width:0.431946"
         x="14.422725"
         y="4.6635132">Okul</tspan></text><text
       xml:space="preserve"
       style="font-size:5.18336px;fill:none;stroke:#003f98;stroke-width:0.431946"
       x="54.335087"
       y="3.9089029"
       id="text35026-1"
       transform="scale(0.99663864,1.0033727)"><tspan
         sodipodi:role="line"
         id="tspan35024-2"
         style="stroke-width:0.431946"
         x="54.335087"
         y="3.9089029">Hastane</tspan></text><text
       xml:space="preserve"
       style="font-size:5.18336px;fill:none;stroke:#003f98;stroke-width:0.431946"
       x="91.416245"
       y="3.8343947"
       id="text35026-7"
       transform="scale(0.99663864,1.0033727)"><tspan
         sodipodi:role="line"
         id="tspan35024-0"
         style="stroke-width:0.431946"
         x="91.416245"
         y="3.8343947">Ulaşım</tspan></text><text
       xml:space="preserve"
       style="font-size:5.18336px;fill:none;stroke:#003f98;stroke-width:0.431946"
       x="8.6904612"
       y="38.81176"
       id="text35026-9"
       transform="scale(0.99663864,1.0033727)"><tspan
         sodipodi:role="line"
         id="tspan35024-3"
         style="stroke-width:0.431946"
         x="8.6904612"
         y="38.81176">Sanayi</tspan></text><text
       xml:space="preserve"
       style="font-size:5.18336px;fill:none;stroke:#003f98;stroke-width:0.431946"
       x="55.682819"
       y="38.811813"
       id="text35026-9-6"
       transform="scale(0.99663864,1.0033727)"><tspan
         sodipodi:role="line"
         id="tspan35024-3-0"
         style="stroke-width:0.431946"
         x="55.682819"
         y="38.811813">Enerji</tspan></text><text
       xml:space="preserve"
       style="font-size:5.18336px;fill:none;stroke:#003f98;stroke-width:0.431946"
       x="89.292931"
       y="38.628513"
       id="text35026-9-62"
       transform="scale(0.99663864,1.0033727)"><tspan
         sodipodi:role="line"
         id="tspan35024-3-6"
         style="stroke-width:0.431946"
         x="89.292931"
         y="38.628513">Bankacılık</tspan></text></g></g><style
   type="text/css"
   id="style32261">
	.st0{fill:#BF7D2C;}
	.st1{fill:#C9942C;}
	.st2{fill:#656A73;}
	.st3{fill:#7D828C;}
	.st4{fill:#5C6373;}
	.st5{fill:#4F4228;}
	.st6{fill:#91AAB4;}
	.st7{fill:#A88C55;}
	.st8{fill:#6B5936;}
	.st9{fill:#3E606F;}
</style></svg>
