<?xml version="1.0" encoding="UTF-8" standalone="no"?>
<!-- Uploaded to: SVG Repo, www.svgrepo.com, Generator: SVG Repo Mixer Tools -->

<svg
   version="1.1"
   id="Layer_1"
   viewBox="0 0 431.25787 188.38515"
   xml:space="preserve"
   sodipodi:docname="bilisimonemi-saglik-karpal.svg"
   width="431.25787"
   height="188.38515"
   inkscape:version="1.2.2 (b0a8486541, 2022-12-01)"
   xmlns:inkscape="http://www.inkscape.org/namespaces/inkscape"
   xmlns:sodipodi="http://sodipodi.sourceforge.net/DTD/sodipodi-0.dtd"
   xmlns="http://www.w3.org/2000/svg"
   xmlns:svg="http://www.w3.org/2000/svg"><defs
   id="defs69965" /><sodipodi:namedview
   id="namedview69963"
   pagecolor="#ffffff"
   bordercolor="#000000"
   borderopacity="0.25"
   inkscape:showpageshadow="2"
   inkscape:pageopacity="0.0"
   inkscape:pagecheckerboard="0"
   inkscape:deskcolor="#d1d1d1"
   showgrid="false"
   inkscape:zoom="1.0527344"
   inkscape:cx="215.62894"
   inkscape:cy="23.747681"
   inkscape:window-width="1366"
   inkscape:window-height="675"
   inkscape:window-x="0"
   inkscape:window-y="0"
   inkscape:window-maximized="1"
   inkscape:current-layer="Layer_1" />
<path
   style="fill:#d9a382;stroke-width:0.620207"
   d="m 314.50818,164.47311 v 0 c 6.33628,-4.42431 6.33628,-11.59744 0,-16.02176 l -21.8931,-15.28689 -22.94408,16.02229 21.8931,15.28689 c 6.33554,4.42379 16.60779,4.42379 22.94408,-4.6e-4 z"
   id="path69924" />
<path
   style="fill:#e6b393;stroke-width:0.620207"
   d="m 295.48522,126.22196 h 76.55274 l 5.03889,-10.73301 h 10.37245 c 8.96076,0 16.2248,-5.07214 16.2248,-11.329 v 0 c 0,-6.256861 -7.26404,-11.328991 -16.2248,-11.328991 H 377.07685 L 366.04309,70.172975 c 8.96076,0 16.22481,-5.072133 16.22481,-11.328995 0,-6.25686 -7.26405,-11.328993 -16.22481,-11.328993 h -45.21867 z"
   id="path69926" />
<path
   style="fill:#ffc6a3;stroke-width:0.620207"
   d="m 320.82442,59.289158 h 45.21867 c 5.86944,0 10.99368,2.183398 13.84304,5.442686 1.50076,-1.716972 2.38177,-3.727273 2.38177,-5.886309 0,-6.25686 -7.26405,-11.328993 -16.22481,-11.328993 h -45.21867 l -25.3392,78.705938 h 3.79049 z"
   id="path69928" />
<g
   id="g69934"
   transform="matrix(0.74221445,0,0,0.51825225,23.660309,-62.764953)">
	<path
   style="fill:#d9a382"
   d="m 498.025,365.812 v 0 c 0,-12.073 -9.787,-21.86 -21.86,-21.86 h -75.79 l -34.074,20.709 34.074,23.009 h 75.79 c 12.073,0.002 21.86,-9.784 21.86,-21.858 z"
   id="path69930" />
	<path
   style="fill:#d9a382"
   d="m 498.025,278.373 c 0,-12.073 -9.787,-21.86 -21.86,-21.86 H 366.301 v 43.719 h 109.864 c 12.073,10e-4 21.86,-9.786 21.86,-21.859 z"
   id="path69932" />
</g>



<rect
   y="62.109489"
   style="fill:#e6b393;stroke-width:0.620207"
   width="185.00883"
   height="61.442432"
   id="rect69942"
   x="23.660309" />
<rect
   y="62.109489"
   style="fill:#ffc6a3;stroke-width:0.620207"
   width="185.00883"
   height="11.772617"
   id="rect69944"
   x="23.660309" />
<path
   style="fill:#ffccaa;stroke-width:0.620207"
   d="m 279.78516,156.24897 22.94555,-16.02176 -2.97998,-2.08079 H 320.8259 V 47.516542 h -47.19741 c -16.90097,0 -32.88307,5.370648 -43.42697,14.593465 v 0 H 208.66988 V 123.554 h 21.5309 v 0 c 4.69376,4.10507 10.46893,7.44158 16.91878,9.88617 z"
   id="path69946" />
<path
   style="fill:#ffccaa;stroke-width:0.620207"
   d="m 273.62775,47.516542 c -16.90097,0 -32.88307,5.370648 -43.42697,14.593465 v 0 h -21.53164 v 11.772614 h 21.53164 v 0 c 10.54464,-9.222815 26.52674,-14.593463 43.42697,-14.593463 h 47.19741 V 47.516542 Z"
   id="path69948" />



<ellipse
   style="fill:#ff6465;stroke-width:1.61378"
   cx="178.78777"
   cy="83.013077"
   id="circle69956"
   rx="43.331837"
   ry="4.4688892" /><ellipse
   style="fill:#ff6465;stroke-width:1.61378"
   cx="185.11328"
   cy="111.50627"
   id="circle69956-2"
   rx="43.331837"
   ry="4.4688892" /><ellipse
   style="fill:#ff6465;stroke-width:1.61378"
   cx="187.22839"
   cy="99.691269"
   id="circle69956-28"
   rx="43.331837"
   ry="4.4688892" />

<rect
   x="266.04529"
   y="71.198074"
   style="fill:#e6b393;stroke-width:0.620207"
   width="29.441422"
   height="43.265251"
   id="rect69960" />
</svg>
