<?xml version="1.0" encoding="UTF-8" standalone="no"?>
<!-- Uploaded to: SVG Repo, www.svgrepo.com, Generator: SVG Repo Mixer Tools -->

<svg
   version="1.1"
   id="Layer_1"
   viewBox="0 0 662.20685 119.7773"
   xml:space="preserve"
   sodipodi:docname="image-photo-svgrepo-com.svg"
   width="662.20685"
   height="119.7773"
   inkscape:version="1.2.2 (b0a8486541, 2022-12-01)"
   xmlns:inkscape="http://www.inkscape.org/namespaces/inkscape"
   xmlns:sodipodi="http://sodipodi.sourceforge.net/DTD/sodipodi-0.dtd"
   xmlns="http://www.w3.org/2000/svg"
   xmlns:svg="http://www.w3.org/2000/svg"><defs
   id="defs51" /><sodipodi:namedview
   id="namedview49"
   pagecolor="#ffffff"
   bordercolor="#000000"
   borderopacity="0.25"
   inkscape:showpageshadow="2"
   inkscape:pageopacity="0.0"
   inkscape:pagecheckerboard="0"
   inkscape:deskcolor="#d1d1d1"
   showgrid="false"
   showguides="true"
   inkscape:zoom="1.0527344"
   inkscape:cx="402.76067"
   inkscape:cy="184.282"
   inkscape:window-width="1366"
   inkscape:window-height="675"
   inkscape:window-x="0"
   inkscape:window-y="0"
   inkscape:window-maximized="1"
   inkscape:current-layer="Layer_1" />











<g
   id="g364"
   transform="matrix(0.26882787,0,0,0.21807799,6.6493506,4.8947918)"><rect
     x="7.9180002"
     y="398.51501"
     style="fill:#afb6bb"
     width="496.16501"
     height="84.454002"
     id="rect2" /><polygon
     style="fill:#00a651"
     points="393.237,182.103 504.082,261.278 504.082,356.289 319.024,240.587 319.34,240.165 "
     id="polygon4" /><polygon
     style="fill:#36c63f"
     points="7.918,324.619 250.722,197.938 319.024,240.587 504.082,356.289 504.082,398.515 7.918,398.515 "
     id="polygon6" /><polygon
     style="fill:#009dd3"
     points="504.082,261.278 393.237,182.103 319.34,240.165 319.024,240.587 250.722,197.938 7.918,324.619 7.918,29.031 504.082,29.031 "
     id="polygon8" /><polygon
     style="fill:#0086be"
     points="256,29.031 7.918,29.031 7.918,324.619 250.722,197.938 256,201.234 "
     id="polygon10" /><polygon
     style="fill:#009547"
     points="504.082,356.289 504.082,307.311 353.901,213.01 319.34,240.165 319.024,240.587 "
     id="polygon12" /><polygon
     style="fill:#00ac4e"
     points="504.082,398.088 504.082,356.289 319.024,240.587 250.722,197.938 213.415,217.403 "
     id="polygon14" /><path
     style="fill:#ffd311"
     d="m 124.041,76.536 c 34.943,0 63.34,28.398 63.34,63.34 0,34.942 -28.398,63.34 -63.34,63.34 -34.942,0 -63.34,-28.398 -63.34,-63.34 0,-34.942 28.398,-63.34 63.34,-63.34 z"
     id="path16" /><path
     style="fill:#fabb1b"
     d="m 99.201,81.814 c -22.619,9.674 -38.5,32.132 -38.5,58.259 0,34.943 28.398,63.34 63.34,63.34 20.289,0 38.325,-9.612 49.923,-24.481 -35.765,-21.653 -62.825,-56.09 -74.763,-97.118 z"
     id="path18" /><path
     d="M 0,21.113 V 490.886 H 512 V 21.113 Z m 496.165,320.888 -163.51,-102.229 60.808,-47.778 102.702,73.359 z m 0,-305.053 V 245.893 L 393.011,172.211 318.38,230.85 251.075,188.824 15.835,311.557 V 36.948 Z m 0,438.104 H 15.835 v -68.619 h 480.33 z M 15.835,390.598 v -61.18 l 234.534,-122.366 64.458,40.247 181.338,113.377 v 29.922 H 15.835 Z"
     id="path20" /><path
     d="m 124.041,211.134 c 39.292,0 71.258,-31.966 71.258,-71.258 0,-39.292 -31.966,-71.258 -71.258,-71.258 -39.292,0 -71.258,31.966 -71.258,71.258 0,39.292 31.966,71.258 71.258,71.258 z m 0,-126.68 c 30.561,0 55.423,24.862 55.423,55.423 0,30.561 -24.862,55.423 -55.423,55.423 -30.561,0 -55.423,-24.862 -55.423,-55.423 0,-30.561 24.863,-55.423 55.423,-55.423 z"
     id="path22" /><g
     id="g46">
	<rect
   x="39.588001"
   y="432.82501"
   style="fill:#ffffff"
   width="258.63901"
   height="15.835"
   id="rect24" />
	<rect
   x="314.06201"
   y="432.82501"
   style="fill:#ffffff"
   width="26.392"
   height="15.835"
   id="rect26" />
	<rect
   x="356.289"
   y="432.82501"
   style="fill:#ffffff"
   width="26.392"
   height="15.835"
   id="rect28" />
	<rect
   x="398.51501"
   y="432.82501"
   style="fill:#ffffff"
   width="26.392"
   height="15.835"
   id="rect30" />
	
		<rect
   x="253.995"
   y="287.68201"
   transform="matrix(-0.8548,-0.519,0.519,-0.8548,478.0404,724.9606)"
   style="fill:#ffffff"
   width="172.901"
   height="15.835"
   id="rect32" />
	
		<rect
   x="381.38699"
   y="250.722"
   transform="matrix(-0.8575,-0.5145,0.5145,-0.8575,661.1055,700.394)"
   style="fill:#ffffff"
   width="92.330002"
   height="15.835"
   id="rect34" />
	<rect
   x="234.88699"
   y="79.175003"
   style="fill:#ffffff"
   width="137.237"
   height="15.835"
   id="rect36" />
	<rect
   x="393.237"
   y="79.175003"
   style="fill:#ffffff"
   width="26.392"
   height="15.835"
   id="rect38" />
	<rect
   x="287.67001"
   y="121.402"
   style="fill:#ffffff"
   width="26.392"
   height="15.835"
   id="rect40" />
	<rect
   x="245.44299"
   y="121.402"
   style="fill:#ffffff"
   width="26.392"
   height="15.835"
   id="rect42" />
	<rect
   x="329.897"
   y="121.402"
   style="fill:#ffffff"
   width="131.959"
   height="15.835"
   id="rect44" />
</g></g>
<g
   id="g407"
   transform="matrix(0.25471211,0,0,0.19750969,150.90674,7.6735786)"><circle
     style="fill:#334d5c"
     cx="256"
     cy="256"
     r="256"
     id="circle366" /><path
     style="opacity:0.1;enable-background:new"
     d="M 507.755,302.235 319.307,113.781 c -0.443,-0.523 -0.917,-0.997 -1.44,-1.44 v 0 c -2.171,-1.845 -4.949,-2.997 -8.016,-2.997 H 202.155 c -6.88,0 -12.459,5.579 -12.459,12.459 v 97.024 10.667 c 0,3.595 1.541,6.805 3.979,9.083 l 31.483,31.483 H 121.792 c -6.88,0 -12.459,5.579 -12.459,12.459 v 97.024 10.667 c 0,3.888 1.819,7.317 4.613,9.6 L 224.095,509.959 C 234.555,511.253 245.184,512 256,512 381.589,512 485.984,421.536 507.755,302.235 Z"
     id="path368" /><path
     style="fill:#f6c358"
     d="m 309.845,109.344 h -107.69 c -6.88,0 -12.459,5.579 -12.459,12.459 v 107.691 c 0,6.88 5.579,12.459 12.459,12.459 h 107.691 c 6.88,0 12.459,-5.579 12.459,-12.459 V 121.803 c -0.006,-6.88 -5.58,-12.459 -12.46,-12.459 z"
     id="path370" /><path
     style="fill:#fcd462"
     d="m 309.845,109.344 h -107.69 c -6.88,0 -12.459,5.579 -12.459,12.459 v 97.024 c 0,6.88 5.579,12.459 12.459,12.459 h 107.691 c 6.88,0 12.459,-5.579 12.459,-12.459 v -97.024 c -0.006,-6.88 -5.58,-12.459 -12.46,-12.459 z"
     id="path372" /><path
     style="fill:#3ea69b"
     d="M 229.477,270.053 H 121.792 c -6.88,0 -12.459,5.579 -12.459,12.459 v 107.691 c 0,6.88 5.579,12.459 12.459,12.459 h 107.691 c 6.88,0 12.459,-5.579 12.459,-12.459 V 282.512 c -0.006,-6.88 -5.585,-12.459 -12.465,-12.459 z"
     id="path374" /><path
     style="fill:#44c4a1"
     d="M 229.477,270.053 H 121.792 c -6.88,0 -12.459,5.579 -12.459,12.459 v 97.024 c 0,6.88 5.579,12.459 12.459,12.459 h 107.691 c 6.88,0 12.459,-5.579 12.459,-12.459 v -97.024 c -0.006,-6.88 -5.585,-12.459 -12.465,-12.459 z"
     id="path376" /><path
     style="fill:#d15241"
     d="M 390.208,270.053 H 282.523 c -6.88,0 -12.459,5.579 -12.459,12.459 v 107.691 c 0,6.88 5.579,12.459 12.459,12.459 h 107.691 c 6.88,0 12.459,-5.579 12.459,-12.459 V 282.512 c -0.006,-6.88 -5.585,-12.459 -12.465,-12.459 z"
     id="path378" /><path
     style="fill:#e56353"
     d="M 390.208,270.053 H 282.523 c -6.88,0 -12.459,5.579 -12.459,12.459 v 97.024 c 0,6.88 5.579,12.459 12.459,12.459 h 107.691 c 6.88,0 12.459,-5.579 12.459,-12.459 v -97.024 c -0.006,-6.88 -5.585,-12.459 -12.465,-12.459 z"
     id="path380" /><path
     style="fill:#dc8744"
     d="m 278.779,213.291 -7.003,-16.261 h -31.557 l -7.003,16.261 H 215.344 L 247.872,138 h 16.261 l 32.533,75.291 z m -22.731,-52.886 -9.477,21.861 h 18.848 z"
     id="path382" /><g
     id="g388">
	<path
   style="fill:#ffffff"
   d="m 178.544,374 h -32.96 v -75.291 h 29.296 c 5.099,0 9.493,0.603 13.195,1.829 3.701,1.221 6.485,2.869 8.352,4.955 3.376,3.872 5.056,8.256 5.056,13.141 0,5.888 -1.904,10.272 -5.707,13.141 -1.291,1.008 -2.192,1.637 -2.693,1.883 -0.507,0.256 -1.403,0.667 -2.693,1.237 4.661,1.008 8.379,3.109 11.141,6.304 2.768,3.2 4.149,7.163 4.149,11.904 0,5.243 -1.787,9.877 -5.381,13.893 -4.16,4.673 -11.408,7.004 -21.755,7.004 z m -16.155,-44.811 h 7.968 c 4.661,0 8.133,-0.501 10.395,-1.509 2.261,-0.997 3.392,-3.173 3.392,-6.512 0,-3.339 -1.045,-5.547 -3.12,-6.629 -2.085,-1.077 -5.6,-1.611 -10.565,-1.611 h -8.075 v 16.261 z m 0,30.592 h 11.525 c 4.805,0 8.416,-0.597 10.816,-1.781 2.411,-1.184 3.611,-3.515 3.611,-6.997 0,-3.488 -1.269,-5.787 -3.824,-6.896 -2.549,-1.115 -6.629,-1.664 -12.229,-1.664 h -9.904 v 17.339 h 0.005 z"
   id="path384" />
	<path
   style="fill:#ffffff"
   d="m 340.187,359.568 c 8.256,0 15.008,-3.259 20.251,-9.803 l 10.773,11.099 c -8.549,9.627 -18.619,14.427 -30.219,14.427 -11.595,0 -21.141,-3.653 -28.645,-10.987 -7.504,-7.328 -11.253,-16.565 -11.253,-27.733 0,-11.168 3.824,-20.485 11.467,-27.952 7.653,-7.467 17.008,-11.205 28.059,-11.205 12.352,0 22.693,4.709 31.024,14.112 l -10.448,11.845 c -5.312,-6.603 -11.92,-9.904 -19.819,-9.904 -6.32,0 -11.723,2.069 -16.208,6.197 -4.485,4.128 -6.731,9.685 -6.731,16.688 0,7.003 2.123,12.624 6.357,16.859 4.224,4.245 9.36,6.357 15.392,6.357 z"
   id="path386" />
</g></g><g
   id="g447"
   transform="matrix(0.24046748,0,0,0.1901276,290.35336,13.036191)"><circle
     style="fill:#999999"
     cx="256"
     cy="256"
     r="256"
     id="circle409" /><polygon
     style="fill:#ffffff"
     points="392,395.776 350.44,437.337 120.001,437.337 120.001,74.664 392,74.664 "
     id="polygon411" /><polygon
     style="fill:#cccccc"
     points="350.44,437.337 350.44,395.776 392,395.776 "
     id="polygon413" /><path
     style="fill:#3b3b3b"
     d="m 154.16,296.864 162.64,-129.496 -7,-8.864 30.584,-4.504 -11.504,28.8 -7,-8.864 L 160.168,303.8 c 0,0 -5.768,-6.832 -6.008,-6.936 z"
     id="path415" /><rect
     x="193.47701"
     y="322.51901"
     style="fill:#e21b1b"
     width="21.440001"
     height="35.664001"
     id="rect417" /><g
     id="g423">
	<rect
   x="157.733"
   y="340.32101"
   style="fill:#3b3b3b"
   width="21.440001"
   height="17.792"
   id="rect419" />
	<rect
   x="229.202"
   y="298.37"
   style="fill:#3b3b3b"
   width="21.440001"
   height="59.813"
   id="rect421" />
</g><rect
     x="264.93701"
     y="266.91901"
     style="fill:#e21b1b"
     width="21.440001"
     height="91.264"
     id="rect425" /><rect
     x="300.66101"
     y="238.55701"
     style="fill:#3b3b3b"
     width="21.440001"
     height="119.627"
     id="rect427" /><rect
     x="336.396"
     y="200.252"
     style="fill:#e21b1b"
     width="21.440001"
     height="158.08099"
     id="rect429" /></g><g
   id="g463"
   transform="matrix(0.17477297,0,0,0.19950615,421.27234,9.1975674)"><path
     style="fill:#ffffff"
     d="M 256,504 C 119.032,504 8,392.968 8,256 8,119.032 119.032,8 256,8 392.968,8 504,119.032 504,256 503.848,392.904 392.904,503.848 256,504 Z"
     id="path449" /><path
     style="fill:#cccccc"
     d="M 256,16 C 388.552,16 496,123.448 496,256 496,388.552 388.552,496 256,496 123.448,496 16,388.552 16,256 16.152,123.512 123.512,16.152 256,16 M 256,0 C 114.616,0 0,114.616 0,256 0,397.384 114.616,512 256,512 397.384,512 512,397.384 512,256 512,114.616 397.384,0 256,0 Z"
     id="path451" /><path
     style="fill:#e21b1b"
     d="M 390.536,114.2 211.752,150.336 V 321.32 c -10.544,-6.976 -22.944,-10.632 -35.592,-10.488 -30.216,0 -54.696,19.456 -54.696,43.488 0,24.032 24.48,43.488 54.696,43.488 30.216,0 54.696,-19.456 54.696,-43.488 V 221.888 L 369.736,200 v 100.24 c -10.2,-6.24 -21.936,-9.496 -33.888,-9.416 -30.216,0 -54.696,19.456 -54.696,43.488 0,24.032 24.48,43.488 54.696,43.488 30.216,0 54.696,-19.456 54.696,-43.488 -0.024,-1.616 -0.144,-3.232 -0.36,-4.84 h 0.36 z"
     id="path453" /></g><g
   id="g512"
   transform="matrix(0.24252183,0,0,0.23785805,531.38049,-1.9371053)"><rect
     y="383.086"
     width="511.95999"
     height="72.713997"
     id="rect465"
     x="0" /><g
     style="opacity:0.2"
     id="g469">
	<rect
   x="72.713997"
   y="383.086"
   style="fill:#ffffff"
   width="439.31"
   height="35.620998"
   id="rect467" />
</g><rect
     y="383.086"
     width="72.713997"
     height="72.713997"
     id="rect471"
     x="0" /><rect
     x="0.039999999"
     y="56.223999"
     style="fill:#e21b1b"
     width="511.92001"
     height="326.88599"
     id="rect473" /><polygon
     style="fill:#ffffff"
     points="26.19,437.042 55.436,420.155 26.19,403.268 "
     id="polygon475" /><rect
     x="107.68"
     y="414.716"
     style="fill:#999999"
     width="314.69501"
     height="7.9990001"
     id="rect477" /><circle
     style="fill:#e21b1b"
     cx="200.864"
     cy="419.79501"
     r="11.775"
     id="circle479" /><g
     id="g485">
	<rect
   x="453.21301"
   y="402.677"
   style="fill:#999999"
   width="7.9990001"
   height="31.997999"
   id="rect481" />
	<rect
   x="473.16299"
   y="402.677"
   style="fill:#999999"
   width="7.9990001"
   height="31.997999"
   id="rect483" />
</g><g
     id="g491">
	<polygon
   style="fill:#ffffff"
   points="230.102,259.144 296.361,220.891 230.102,182.638 "
   id="polygon487" />
	<path
   style="fill:#ffffff"
   d="m 255.98,309.532 c -49.876,0.008 -90.313,-40.429 -90.321,-90.305 -0.008,-49.876 40.429,-90.313 90.305,-90.321 49.876,-0.008 90.313,40.429 90.321,90.305 0,0.008 0,0.008 0,0.016 -0.048,49.852 -40.453,90.257 -90.305,90.305 z m 0,-172.619 c -45.46,-0.008 -82.314,36.845 -82.322,82.306 -0.008,45.461 36.845,82.314 82.306,82.322 45.461,0.008 82.314,-36.845 82.322,-82.306 v -0.008 c -0.048,-45.437 -36.87,-82.266 -82.306,-82.314 z"
   id="path489" />
</g></g></svg>
