<?xml version="1.0" encoding="UTF-8" standalone="no"?>
<!-- Uploaded to: SVG Repo, www.svgrepo.com, Generator: SVG Repo Mixer Tools -->

<svg
   fill="#000000"
   width="800px"
   height="800px"
   viewBox="0 0 1920 1920"
   version="1.1"
   id="svg4"
   sodipodi:docname="table-svgrepo-com.svg"
   inkscape:version="1.2.2 (b0a8486541, 2022-12-01)"
   xmlns:inkscape="http://www.inkscape.org/namespaces/inkscape"
   xmlns:sodipodi="http://sodipodi.sourceforge.net/DTD/sodipodi-0.dtd"
   xmlns="http://www.w3.org/2000/svg"
   xmlns:svg="http://www.w3.org/2000/svg">
  <defs
     id="defs8" />
  <sodipodi:namedview
     id="namedview6"
     pagecolor="#ffffff"
     bordercolor="#000000"
     borderopacity="0.25"
     inkscape:showpageshadow="2"
     inkscape:pageopacity="0.0"
     inkscape:pagecheckerboard="0"
     inkscape:deskcolor="#d1d1d1"
     showgrid="false"
     inkscape:zoom="0.67375"
     inkscape:cx="633.76623"
     inkscape:cy="400.74212"
     inkscape:window-width="1366"
     inkscape:window-height="675"
     inkscape:window-x="0"
     inkscape:window-y="0"
     inkscape:window-maximized="1"
     inkscape:current-layer="svg4" />
  <path
     d="M1800 1320v420c0 33-27 60-60 60h-420v-480h480Zm-600 0v480H720v-480h480Zm-600 0v480H180c-33 0-60-27-60-60v-420h480Zm1200-600v480h-480V720h480Zm-600 0v480H720V720h480Zm-600 0v480H120V720h480Zm1140-600c33 0 60 27 60 60v420h-480V120h420Zm-540 0v480H720V120h480Zm-600 0v480H120V180c0-33 27-60 60-60h420ZM1740 0H180C80.76 0 0 80.76 0 180v1560c0 99.24 80.76 180 180 180h1560c99.24 0 180-80.76 180-180V180c0-99.24-80.76-180-180-180Z"
     fill-rule="evenodd"
     id="path2" />
  <g
     aria-label="Önemli"
     transform="scale(0.76303673,1.3105529)"
     id="text298"
     style="font-weight:bold;font-size:145.233px;-inkscape-font-specification:'sans-serif, Bold';fill:#ff0000;stroke-width:5.19025">
    <path
       d="m 306.67651,278.97582 q 0,16.12087 -5.37362,28.17521 -5.22839,11.9091 -16.12087,18.58982 -10.89247,6.68072 -27.88473,6.68072 -16.84703,0 -27.88474,-6.68072 -10.89247,-6.68072 -16.2661,-18.73506 -5.22838,-12.05434 -5.22838,-28.1752 0,-16.12086 5.22838,-28.02997 5.37363,-11.9091 16.2661,-18.44459 11.03771,-6.68072 28.02997,-6.68072 16.84703,0 27.7395,6.68072 10.89248,6.53549 16.12087,18.58982 5.37362,11.90911 5.37362,28.02997 z m -75.6664,0 q 0,16.2661 6.24502,25.70624 6.24502,9.29492 20.04216,9.29492 14.0876,0 20.18738,-9.29492 6.09979,-9.44014 6.09979,-25.70624 0,-16.41133 -6.09979,-25.70624 -6.09978,-9.29491 -20.04215,-9.29491 -13.94237,0 -20.18739,9.29491 -6.24502,9.29491 -6.24502,25.70624 z m 1.88803,-72.03557 q 0,-5.08315 2.90466,-7.26165 2.90466,-2.32372 6.97119,-2.32372 4.06652,0 6.97118,2.32372 3.04989,2.1785 3.04989,7.26165 0,4.79269 -3.04989,7.11642 -2.90466,2.32373 -6.97118,2.32373 -4.06653,0 -6.97119,-2.32373 -2.90466,-2.32373 -2.90466,-7.11642 z m 28.6109,0 q 0,-5.08315 2.90466,-7.26165 2.90466,-2.32372 7.11642,-2.32372 4.06653,0 6.97119,2.32372 3.04989,2.1785 3.04989,7.26165 0,4.79269 -3.04989,7.11642 -2.90466,2.32373 -6.97119,2.32373 -4.21176,0 -7.11642,-2.32373 -2.90466,-2.32373 -2.90466,-7.11642 z"
       id="path554" />
    <path
       d="m 371.45036,250.21969 q 12.7805,0 20.47785,6.97118 7.69735,6.82595 7.69735,22.07542 v 51.70295 h -21.63972 v -46.32933 q 0,-8.56875 -3.04989,-12.7805 -3.04989,-4.35699 -9.73061,-4.35699 -9.87585,0 -13.50667,6.82595 -3.63083,6.68072 -3.63083,19.31599 v 37.32488 h -21.63971 v -79.29722 h 16.55656 l 2.90466,10.16631 h 1.16186 q 3.77606,-6.09979 10.31155,-8.85921 6.68071,-2.75943 14.0876,-2.75943 z"
       id="path556" />
    <path
       d="m 454.52357,250.21969 q 16.41133,0 25.99671,9.44014 9.58538,9.29492 9.58538,26.57764 v 10.45678 h -51.12202 q 0.29047,9.14968 5.37362,14.37807 5.22839,5.22839 14.37807,5.22839 7.69735,0 13.94237,-1.45233 6.24502,-1.59757 12.92574,-4.79269 v 16.70179 q -5.80932,2.90466 -12.34481,4.21176 -6.39025,1.45233 -15.53993,1.45233 -11.90911,0 -21.05878,-4.35699 -9.14968,-4.50222 -14.37807,-13.50667 -5.22839,-9.00445 -5.22839,-22.65635 0,-13.94237 4.64746,-23.09205 4.79269,-9.29491 13.2162,-13.94236 8.42351,-4.64746 19.60645,-4.64746 z m 0.14524,15.3947 q -6.24502,0 -10.45678,4.06652 -4.06652,4.06653 -4.79269,12.63527 h 30.3537 q -0.14523,-7.26165 -3.77606,-11.9091 -3.63082,-4.79269 -11.32817,-4.79269 z"
       id="path558" />
    <path
       d="m 600.77316,250.21969 q 13.50667,0 20.33262,6.97118 6.97118,6.82595 6.97118,22.07542 v 51.70295 h -21.63971 v -46.32933 q 0,-17.13749 -11.90911,-17.13749 -8.56875,0 -12.19957,6.09978 -3.63083,6.09979 -3.63083,17.5732 v 39.79384 h -21.63971 v -46.32933 q 0,-17.13749 -11.90911,-17.13749 -9.00445,0 -12.49004,6.82595 -3.34036,6.68072 -3.34036,19.31599 v 37.32488 h -21.63971 v -79.29722 h 16.55656 l 2.90466,10.16631 h 1.16186 q 3.63083,-6.09979 9.87585,-8.85921 6.39025,-2.75943 13.2162,-2.75943 8.71398,0 14.81377,2.90466 6.09978,2.75943 9.29491,8.71398 h 1.88803 q 3.63082,-6.09979 10.02107,-8.85921 6.53549,-2.75943 13.36144,-2.75943 z"
       id="path560" />
    <path
       d="M 671.93739,330.96924 H 650.29767 V 220.59216 h 21.63972 z"
       id="path562" />
    <path
       d="m 705.48626,220.59216 q 4.79269,0 8.27828,2.32373 3.48559,2.17849 3.48559,8.27828 0,5.95455 -3.48559,8.27828 -3.48559,2.32373 -8.27828,2.32373 -4.93792,0 -8.42352,-2.32373 -3.34035,-2.32373 -3.34035,-8.27828 0,-6.09979 3.34035,-8.27828 3.4856,-2.32373 8.42352,-2.32373 z m 10.74724,31.07986 v 79.29722 h -21.63972 v -79.29722 z"
       id="path564" />
  </g>
  <g
     aria-label="Önemsiz"
     transform="scale(0.76303673,1.3105529)"
     id="text298-3"
     style="font-weight:bold;font-size:145.233px;-inkscape-font-specification:'sans-serif, Bold';fill:#ff0000;stroke-width:5.19025">
    <path
       d="m 1835.6099,1207.0582 q 0,16.1209 -5.3736,28.1752 -5.2284,11.9091 -16.1209,18.5898 -10.8924,6.6808 -27.8847,6.6808 -16.847,0 -27.8847,-6.6808 -10.8925,-6.6807 -16.2661,-18.735 -5.2284,-12.0543 -5.2284,-28.1752 0,-16.1209 5.2284,-28.03 5.3736,-11.9091 16.2661,-18.4446 11.0377,-6.6807 28.0299,-6.6807 16.8471,0 27.7395,6.6807 10.8925,6.5355 16.1209,18.5899 5.3736,11.9091 5.3736,28.0299 z m -75.6664,0 q 0,16.2661 6.2451,25.7063 6.245,9.2949 20.0421,9.2949 14.0876,0 20.1874,-9.2949 6.0998,-9.4402 6.0998,-25.7063 0,-16.4113 -6.0998,-25.7062 -6.0998,-9.2949 -20.0422,-9.2949 -13.9423,0 -20.1873,9.2949 -6.2451,9.2949 -6.2451,25.7062 z m 1.8881,-72.0355 q 0,-5.0832 2.9046,-7.2617 2.9047,-2.3237 6.9712,-2.3237 4.0665,0 6.9712,2.3237 3.0499,2.1785 3.0499,7.2617 0,4.7926 -3.0499,7.1164 -2.9047,2.3237 -6.9712,2.3237 -4.0665,0 -6.9712,-2.3237 -2.9046,-2.3238 -2.9046,-7.1164 z m 28.6109,0 q 0,-5.0832 2.9046,-7.2617 2.9047,-2.3237 7.1164,-2.3237 4.0666,0 6.9712,2.3237 3.0499,2.1785 3.0499,7.2617 0,4.7926 -3.0499,7.1164 -2.9046,2.3237 -6.9712,2.3237 -4.2117,0 -7.1164,-2.3237 -2.9046,-2.3238 -2.9046,-7.1164 z"
       id="path539" />
    <path
       d="m 1900.3838,1178.3021 q 12.7805,0 20.4778,6.9712 7.6974,6.8259 7.6974,22.0754 v 51.7029 h -21.6397 v -46.3293 q 0,-8.5687 -3.0499,-12.7805 -3.0499,-4.357 -9.7306,-4.357 -9.8759,0 -13.5067,6.826 -3.6308,6.6807 -3.6308,19.316 v 37.3248 h -21.6397 v -79.2972 h 16.5565 l 2.9047,10.1663 h 1.1618 q 3.7761,-6.0998 10.3116,-8.8592 6.6807,-2.7594 14.0876,-2.7594 z"
       id="path541" />
    <path
       d="m 1983.457,1178.3021 q 16.4113,0 25.9967,9.4401 9.5854,9.2949 9.5854,26.5777 v 10.4567 h -51.122 q 0.2904,9.1497 5.3736,14.3781 5.2284,5.2284 14.3781,5.2284 7.6973,0 13.9423,-1.4523 6.245,-1.5976 12.9258,-4.7927 v 16.7018 q -5.8094,2.9046 -12.3448,4.2117 -6.3903,1.4524 -15.54,1.4524 -11.9091,0 -21.0588,-4.357 -9.1496,-4.5022 -14.378,-13.5067 -5.2284,-9.0044 -5.2284,-22.6563 0,-13.9424 4.6474,-23.0921 4.7927,-9.2949 13.2162,-13.9424 8.4236,-4.6474 19.6065,-4.6474 z m 0.1452,15.3947 q -6.245,0 -10.4567,4.0665 -4.0666,4.0665 -4.7927,12.6353 h 30.3537 q -0.1453,-7.2617 -3.7761,-11.9091 -3.6308,-4.7927 -11.3282,-4.7927 z"
       id="path543" />
    <path
       d="m 2129.7066,1178.3021 q 13.5067,0 20.3326,6.9712 6.9712,6.8259 6.9712,22.0754 v 51.7029 h -21.6397 v -46.3293 q 0,-17.1375 -11.9091,-17.1375 -8.5688,0 -12.1996,6.0998 -3.6308,6.0998 -3.6308,17.5732 v 39.7938 h -21.6397 v -46.3293 q 0,-17.1375 -11.9092,-17.1375 -9.0044,0 -12.49,6.826 -3.3404,6.6807 -3.3404,19.316 v 37.3248 h -21.6397 v -79.2972 h 16.5566 l 2.9047,10.1663 h 1.1618 q 3.6308,-6.0998 9.8759,-8.8592 6.3902,-2.7594 13.2162,-2.7594 8.7139,0 14.8137,2.9046 6.0998,2.7595 9.2949,8.714 h 1.8881 q 3.6308,-6.0998 10.021,-8.8592 6.5355,-2.7594 13.3615,-2.7594 z"
       id="path545" />
    <path
       d="m 2234.5649,1235.5239 q 0,12.0543 -8.5688,18.5898 -8.4235,6.3903 -25.2705,6.3903 -8.2783,0 -14.2329,-1.1619 -5.9545,-1.0166 -11.9091,-3.4856 v -17.8636 q 6.3903,2.9046 13.7972,4.7926 7.4069,1.8881 13.0709,1.8881 6.3903,0 9.0045,-1.8881 2.7594,-1.888 2.7594,-4.9379 0,-2.0332 -1.1618,-3.6308 -1.0167,-1.5976 -4.6475,-3.6308 -3.6308,-2.0333 -11.3282,-5.2284 -7.4069,-3.1951 -12.1995,-6.245 -4.7927,-3.1952 -7.1165,-7.5522 -2.3237,-4.5022 -2.3237,-11.1829 0,-11.0377 8.5688,-16.5566 8.5687,-5.5188 22.8015,-5.5188 7.4069,0 14.0876,1.4523 6.6808,1.4523 13.7972,4.7927 l -6.5355,15.5399 q -5.8093,-2.4689 -11.0377,-4.0665 -5.2284,-1.7428 -10.602,-1.7428 -9.5854,0 -9.5854,5.2284 0,1.888 1.1619,3.4856 1.3071,1.4523 4.7926,3.1951 3.6309,1.7428 10.6021,4.6475 6.8259,2.7594 11.7638,5.8093 4.938,2.9047 7.5521,7.4069 2.7595,4.357 2.7595,11.4734 z"
       id="path547" />
    <path
       d="m 2262.3043,1148.6746 q 4.7927,0 8.2783,2.3237 3.4856,2.1785 3.4856,8.2783 0,5.9545 -3.4856,8.2782 -3.4856,2.3238 -8.2783,2.3238 -4.9379,0 -8.4235,-2.3238 -3.3403,-2.3237 -3.3403,-8.2782 0,-6.0998 3.3403,-8.2783 3.4856,-2.3237 8.4235,-2.3237 z m 10.7473,31.0798 v 79.2972 h -21.6397 v -79.2972 z"
       id="path549" />
    <path
       d="m 2350.8965,1259.0516 h -62.5954 v -12.7805 l 36.7439,-49.9601 h -34.5655 v -16.5566 h 59.1099 v 14.0876 l -35.7273,48.6531 h 37.0344 z"
       id="path551" />
  </g>
</svg>
