<?xml version="1.0" encoding="UTF-8" standalone="no"?>
<!-- Uploaded to: SVG Repo, www.svgrepo.com, Generator: SVG Repo Mixer Tools -->

<svg
   fill="#000000"
   width="799.93835"
   height="443.63797"
   viewBox="0 -27.73 122.87053 68.142792"
   version="1.1"
   id="Layer_1"
   xml:space="preserve"
   sodipodi:docname="bilisimonemi-1.svg"
   inkscape:version="1.2.2 (b0a8486541, 2022-12-01)"
   xmlns:inkscape="http://www.inkscape.org/namespaces/inkscape"
   xmlns:sodipodi="http://sodipodi.sourceforge.net/DTD/sodipodi-0.dtd"
   xmlns="http://www.w3.org/2000/svg"
   xmlns:svg="http://www.w3.org/2000/svg"><defs
   id="defs1875"><clipPath
     clipPathUnits="userSpaceOnUse"
     id="clipPath15564"><g
       id="g15568"
       transform="translate(-2.6856513,-1.5887216)"><g
         inkscape:label="Clip"
         id="use15566"
         transform="translate(2.6856513,1.588721)"
         clip-path="url(#clipPath15564)"><g
           id="g15744"
           clip-path="none"
           transform="translate(2.6856513,1.588721)"><g
             id="g15572"
             transform="matrix(0.31600234,0,0,0.30689409,75.726475,8.9374409)">

<path
   d="m 79.93,51.37 c -0.53,-0.51 -0.32,-1.2 0.48,-1.54 0.8,-0.34 1.87,-0.2 2.41,0.3 3.78,3.6 1.96,6.52 0.21,9.32 -1.32,2.12 -2.59,4.15 -0.25,6.19 0.57,0.5 0.4,1.19 -0.37,1.55 -0.77,0.36 -1.86,0.26 -2.43,-0.24 -3.47,-3.03 -1.86,-5.62 -0.17,-8.32 1.41,-2.27 2.89,-4.63 0.12,-7.26 z M 14.57,28.11 h 73.65 c 0.96,0 1.74,0.78 1.74,1.74 v 12.26 h 24.13 c 1.46,0 2.79,-0.6 3.75,-1.56 0.96,-0.96 1.56,-2.29 1.56,-3.75 v -28 c 0,-1.46 -0.6,-2.79 -1.56,-3.75 -0.96,-0.96 -2.29,-1.56 -3.75,-1.56 H 8.8 C 7.34,3.49 6.01,4.09 5.05,5.05 4.08,6.01 3.48,7.34 3.48,8.8 v 28 c 0,1.46 0.6,2.79 1.56,3.75 0.96,0.96 2.29,1.56 3.75,1.56 h 4.03 V 29.85 c 0.01,-0.96 0.79,-1.74 1.75,-1.74 z m 71.91,3.48 H 16.31 V 41.68 H 86.48 Z M 15.21,13.64 c -0.96,0 -1.74,-0.78 -1.74,-1.74 0,-0.96 0.78,-1.74 1.74,-1.74 h 93.74 c 0.96,0 1.74,0.78 1.74,1.74 0,0.96 -0.78,1.74 -1.74,1.74 z m 83.37,18.35 c 1.36,0 2.46,1.1 2.46,2.46 0,1.36 -1.1,2.46 -2.46,2.46 -1.36,0 -2.46,-1.1 -2.46,-2.46 0,-1.36 1.11,-2.46 2.46,-2.46 z m 10.27,0 c 1.36,0 2.46,1.1 2.46,2.46 0,1.36 -1.1,2.46 -2.46,2.46 -1.36,0 -2.46,-1.1 -2.46,-2.46 0,-1.36 1.1,-2.46 2.46,-2.46 z M 8.8,0 h 105.29 c 2.42,0 4.62,0.99 6.21,2.58 1.59,1.59 2.58,3.79 2.58,6.21 V 36.8 c 0,2.42 -0.99,4.62 -2.58,6.21 -1.59,1.59 -3.79,2.58 -6.21,2.58 H 8.8 C 6.38,45.59 4.18,44.6 2.59,43.01 0.99,41.42 0,39.22 0,36.8 V 8.8 C 0,6.38 0.99,4.18 2.58,2.59 4.18,0.99 6.38,0 8.8,0 Z m 6.41,21.76 c -0.96,0 -1.74,-0.78 -1.74,-1.74 0,-0.96 0.78,-1.74 1.74,-1.74 h 93.74 c 0.96,0 1.74,0.78 1.74,1.74 0,0.96 -0.78,1.74 -1.74,1.74 z m 6.16,29.61 c -0.53,-0.51 -0.32,-1.2 0.48,-1.54 0.8,-0.34 1.87,-0.2 2.41,0.3 3.78,3.6 1.96,6.52 0.21,9.32 -1.32,2.12 -2.59,4.15 -0.25,6.19 0.57,0.5 0.4,1.19 -0.37,1.55 -0.77,0.36 -1.86,0.26 -2.43,-0.24 -3.47,-3.03 -1.86,-5.62 -0.17,-8.32 1.41,-2.27 2.88,-4.63 0.12,-7.26 z m 14.64,0 c -0.53,-0.51 -0.32,-1.2 0.48,-1.54 0.8,-0.34 1.87,-0.2 2.41,0.3 3.78,3.6 1.96,6.52 0.21,9.32 -1.32,2.12 -2.59,4.15 -0.25,6.19 0.57,0.5 0.4,1.19 -0.37,1.55 -0.77,0.36 -1.86,0.26 -2.43,-0.24 -3.47,-3.03 -1.86,-5.62 -0.17,-8.32 1.41,-2.27 2.88,-4.63 0.12,-7.26 z m 14.64,0 c -0.53,-0.51 -0.32,-1.2 0.48,-1.54 0.8,-0.34 1.87,-0.2 2.41,0.3 3.78,3.6 1.96,6.52 0.21,9.32 -1.32,2.12 -2.59,4.15 -0.25,6.19 0.57,0.5 0.4,1.19 -0.37,1.55 -0.77,0.36 -1.86,0.26 -2.43,-0.24 -3.47,-3.03 -1.86,-5.62 -0.17,-8.32 1.41,-2.27 2.89,-4.63 0.12,-7.26 z m 14.64,0 c -0.53,-0.51 -0.32,-1.2 0.48,-1.54 0.8,-0.34 1.87,-0.2 2.41,0.3 3.78,3.6 1.96,6.52 0.21,9.32 -1.32,2.12 -2.59,4.15 -0.25,6.19 0.57,0.5 0.4,1.19 -0.37,1.55 -0.77,0.36 -1.86,0.26 -2.43,-0.24 -3.47,-3.03 -1.85,-5.62 -0.17,-8.32 1.41,-2.27 2.89,-4.63 0.12,-7.26 z"
   id="path15570" />

</g><g
             id="g15584"
             transform="matrix(0.03702094,0,0,0.03373472,-3.5859266,-29.1693)"><path
               d="M 841.8938,97.371494 H 180.39938 c -13.50198,0 -24.45448,10.955576 -24.45448,24.454476 v 431.9762 c 0,1.20921 0.50887,2.22695 0.70136,3.37472 0.7628,11.39892 9.1689,21.20774 20.82583,22.86336 l 65.78361,9.23442 c 50.43966,7.25833 111.76937,16.11084 167.93665,22.16302 v 32.41417 H 186.83347 c -13.50197,0 -24.45447,10.9525 -24.45447,24.45447 V 904.3846 c 0,13.50197 10.9525,24.45447 24.45447,24.45447 h 652.19448 c 13.50198,0 24.45448,-10.9525 24.45448,-24.45447 V 668.30736 c 0,-13.50198 -10.9525,-24.45448 -24.45448,-24.45448 H 602.75617 v -31.07697 c 57.57,-5.85969 121.76659,-15.34804 173.79634,-22.99134 l 68.58803,-9.74329 c 12.41973,-1.78361 21.3347,-12.80164 20.95279,-25.09441 0,-0.38191 0.25393,-0.69829 0.25393,-1.1447 V 121.82699 c 10e-4,-13.4989 -10.95148,-24.455496 -24.45346,-24.455496 z"
               fill="#27323a"
               id="path15574" /><path
               d="m 211.28795,692.76184 h 603.2845 v 187.16828 h -603.2845 z"
               fill="#f4ce73"
               id="path15576" /><path
               d="m 460.10232,643.85186 v -27.89473 c 19.67806,1.46722 38.08444,2.42251 53.8789,2.42251 11.97331,0 25.59918,-0.63891 39.86497,-1.52969 v 27.00191 z m 357.33598,-109.2844 -48.01612,6.81498 c -80.37193,11.84635 -190.35462,28.08722 -255.43994,28.08722 -66.10613,0 -180.29187,-16.56135 -263.65661,-28.59609 L 204.8559,534.505 V 146.28147 h 612.58343 v 388.28599 z"
               fill="#ffffff"
               id="path15578" /><path
               d="m 599.25448,798.41349 h 163.60664 c 13.4989,0 24.45448,-10.9525 24.45448,-24.4555 0,-13.49891 -10.95558,-24.45448 -24.45448,-24.45448 H 599.25448 c -13.50197,0 -24.45447,10.95557 -24.45447,24.45448 0,13.503 10.9525,24.4555 24.45447,24.4555 z M 489.39978,541.12851 c 0,-12.03474 9.80473,-21.84357 21.84357,-21.84357 11.97331,0 21.78111,9.8078 21.78111,21.84357 0,11.97332 -9.8078,21.78112 -21.78111,21.78112 -12.03885,0 -21.84357,-9.80882 -21.84357,-21.78112 z M 250.77204,167.48921 c -8.9805,0 -16.30332,7.26139 -16.30332,16.30332 v 310.01712 c 0,9.04501 7.32282,16.30333 16.30332,16.30333 h 520.87709 c 8.98049,0 16.30332,-7.25832 16.30332,-16.30333 V 183.79253 c 0,-9.04193 -7.32283,-16.30332 -16.30332,-16.30332 z"
               fill="#27323a"
               id="path15580" /><path
               d="M 755.3458,200.09586 V 477.50633 H 267.07537 V 200.09586 Z"
               fill="#79ccbf"
               id="path15582" /></g><g
             id="g15646"
             transform="matrix(0.05673058,0,0,0.05992302,46.198684,8.3646221)"><path
               style="fill:#82afaf"
               d="m 427.2,479.2 c 0,8.8 -7.2,15.2 -15.2,15.2 H 82.4 c -8.8,0 -15.2,-7.2 -15.2,-15.2 V 15.2 C 67.2,6.4 74.4,0 82.4,0 h 328.8 c 8.8,0 15.2,7.2 15.2,15.2 v 464 z"
               id="path15586" /><path
               style="fill:#76a3a2"
               d="M 67.2,15.2 C 67.2,6.4 74.4,0 82.4,0 h 328.8 c 8.8,0 15.2,7.2 15.2,15.2 v 464 c 0,8.8 -7.2,15.2 -15.2,15.2"
               id="path15588" /><g
               id="g15594">
	<polygon
   style="fill:#669694"
   points="427.2,374.4 427.2,262.4 303.2,136.8 192,136.8 "
   id="polygon15590" />
	<path
   style="fill:#669694"
   d="M 412,23.2 H 82.4 c -8.8,0 -15.2,7.2 -15.2,15.2 v 90.4 h 360 V 38.4 c 0,-8 -7.2,-15.2 -15.2,-15.2 z"
   id="path15592" />
</g><path
               style="fill:#a3d0d1"
               d="M 412,0 H 82.4 c -8,0 -15.2,7.2 -15.2,15.2 v 90.4 h 360 V 15.2 C 427.2,7.2 420,0 412,0 Z"
               id="path15596" /><path
               style="fill:#91c4c4"
               d="M 427.2,106.4 V 15.2 C 427.2,6.4 420,0 412,0 H 82.4 c -8,0 -15.2,7.2 -15.2,15.2"
               id="path15598" /><path
               style="fill:#b3e0e0"
               d="M 412,0 H 82.4 c -8,0 -15.2,7.2 -15.2,15.2 v 7.2 c 0,-8.8 7.2,-15.2 15.2,-15.2 h 328.8 c 8.8,0 15.2,7.2 15.2,15.2 V 15.2 C 427.2,7.2 420,0 412,0 Z"
               id="path15600" /><path
               style="fill:#a3d0d1"
               d="m 67.2,464.8 v 14.4 c 0,8.8 7.2,15.2 15.2,15.2 h 328.8 c 8.8,0 15.2,-7.2 15.2,-15.2 v -14.4 z"
               id="path15602" /><rect
               x="67.199997"
               y="99.199997"
               style="fill:#b3e0e0"
               width="360"
               height="7.1999998"
               id="rect15604" /><path
               style="fill:#a3d0d1"
               d="m 308,136.8 c 0,5.6 -4,9.6 -9.6,9.6 H 196 c -5.6,0 -9.6,-4 -9.6,-9.6 v 0 c 0,-5.6 4,-9.6 9.6,-9.6 h 103.2 c 4.8,0 8.8,4.8 8.8,9.6 z"
               id="path15606" /><path
               style="fill:#b3e0e0"
               d="M 298.4,127.2 H 196 c -4,0 -8,2.4 -8.8,6.4 1.6,4 4.8,6.4 8.8,6.4 h 103.2 c 4,0 8,-2.4 8.8,-6.4 -1.6,-3.2 -4.8,-6.4 -9.6,-6.4 z"
               id="path15608" /><path
               style="fill:#137d8e"
               d="m 124,52 c 0,10.4 -8,18.4 -18.4,18.4 -10.4,0 -18.4,-8 -18.4,-18.4 0,-10.4 8,-20 18.4,-20 10.4,0 18.4,9.6 18.4,20 z"
               id="path15610" /><path
               style="fill:#72a2a5"
               d="m 124,52 c 0,10.4 -8,27.2 -18.4,27.2 -10.4,0 -18.4,-17.6 -18.4,-27.2 0,-10.4 8,-17.6 18.4,-17.6 10.4,0 18.4,7.2 18.4,17.6 z"
               id="path15612" /><circle
               style="fill:#185b6b"
               cx="105.6"
               cy="52"
               r="18.4"
               id="circle15614" /><path
               style="fill:#073b44"
               d="m 119.2,38.4 c 7.2,7.2 7.2,19.2 0,26.4 C 112,72 100,72 92.8,64.8"
               id="path15616" /><circle
               style="fill:#b8d7e0"
               cx="115.2"
               cy="42.400002"
               r="1.6"
               id="circle15618" /><path
               style="fill:#137d8e"
               d="m 168.8,52 c 0,10.4 -8,18.4 -18.4,18.4 -10.4,0 -18.4,-8 -18.4,-18.4 0,-10.4 8,-20 18.4,-20 10.4,0 18.4,9.6 18.4,20 z"
               id="path15620" /><path
               style="fill:#72a2a5"
               d="m 168.8,52 c 0,10.4 -8,27.2 -18.4,27.2 C 140,79.2 132,62.4 132,52 c 0,-10.4 8,-17.6 18.4,-17.6 10.4,0 18.4,7.2 18.4,17.6 z"
               id="path15622" /><circle
               style="fill:#185b6b"
               cx="150.39999"
               cy="52"
               r="18.4"
               id="circle15624" /><path
               style="fill:#073b44"
               d="m 163.2,38.4 c 7.2,7.2 7.2,19.2 0,26.4 -7.2,7.2 -19.2,7.2 -26.4,0"
               id="path15626" /><circle
               style="fill:#b8d7e0"
               cx="160"
               cy="42.400002"
               r="1.6"
               id="circle15628" /><path
               style="fill:#137d8e"
               d="m 213.6,52 c 0,10.4 -8,18.4 -18.4,18.4 -10.4,0 -18.4,-8 -18.4,-18.4 0,-10.4 8,-20 18.4,-20 10.4,0 18.4,9.6 18.4,20 z"
               id="path15630" /><path
               style="fill:#72a2a5"
               d="m 213.6,52 c 0,10.4 -8,27.2 -18.4,27.2 -10.4,0 -18.4,-16.8 -18.4,-27.2 0,-10.4 8,-17.6 18.4,-17.6 10.4,0 18.4,7.2 18.4,17.6 z"
               id="path15632" /><circle
               style="fill:#185b6b"
               cx="195.2"
               cy="52"
               r="18.4"
               id="circle15634" /><path
               style="fill:#073b44"
               d="m 208,38.4 c 7.2,7.2 7.2,19.2 0,26.4 -7.2,7.2 -19.2,7.2 -26.4,0"
               id="path15636" /><circle
               style="fill:#b8d7e0"
               cx="204.8"
               cy="42.400002"
               r="1.6"
               id="circle15638" /><path
               style="fill:#53ad8a"
               d="m 398.4,67.2 c 0,4 -3.2,7.2 -7.2,7.2 H 290.4 c -4,0 -7.2,-3.2 -7.2,-7.2 V 41.6 c 0,-4 3.2,-7.2 7.2,-7.2 h 100.8 c 4,0 7.2,3.2 7.2,7.2 z"
               id="path15640" /><path
               style="fill:#3ca589"
               d="M 391.2,34.4 H 290.4 c -4,0 -7.2,3.2 -7.2,7.2 v 23.2 c 0,4 3.2,7.2 7.2,7.2 h 100.8 c 4,0 7.2,-3.2 7.2,-7.2 V 41.6 c 0,-4 -3.2,-7.2 -7.2,-7.2 z"
               id="path15642" /><path
               style="fill:#319385"
               d="m 283.2,64.8 c 0,4 3.2,7.2 7.2,7.2 h 100.8 c 4,0 7.2,-3.2 7.2,-7.2 V 41.6 c 0,-4 -3.2,-7.2 -7.2,-7.2"
               id="path15644" /></g><g
             id="g15682"
             transform="matrix(0.0652863,0,0,0.06406848,83.040057,-28.334524)"><path
               style="fill:#54686c"
               d="M 126.527,136.399 H 41.796 c -17.312,0 -31.347,13.992 -31.347,31.251 v 248.812 c 0,17.26 14.035,31.251 31.347,31.251 h 428.408 c 17.312,0 31.347,-13.689 31.347,-30.948 V 167.651 c 0,-17.259 -14.035,-31.251 -31.347,-31.251 H 385.473 126.527 Z"
               id="path15648" /><g
               id="g15654">
	<path
   style="fill:#87a3aa"
   d="m 10.449,407.051 v 9.411 c 0,17.26 14.035,31.251 31.347,31.251 h 428.408 c 17.312,0 31.347,-13.689 31.347,-30.948 v -9.714 z"
   id="path15650" />
	<path
   style="fill:#87a3aa"
   d="M 470.204,136.399 H 385.473 126.527 41.796 c -17.312,0 -31.347,13.992 -31.347,31.251 v 7.377 h 491.102 v -7.377 c 0,-17.258 -14.035,-31.251 -31.347,-31.251 z"
   id="path15652" />
</g><circle
               style="fill:#54686c"
               cx="327.272"
               cy="292.332"
               r="114.719"
               id="circle15656" /><rect
               x="55.380001"
               y="99.830002"
               style="fill:#faf9f9"
               width="78.366997"
               height="36.570999"
               id="rect15658" /><polygon
               style="fill:#54686c"
               points="418.544,135.37 236.006,135.37 249.59,64.287 403.916,64.287 "
               id="polygon15660" /><circle
               style="fill:#87a3aa"
               cx="327.272"
               cy="292.332"
               r="77.198997"
               id="circle15662" /><circle
               style="fill:#54686c"
               cx="327.272"
               cy="292.332"
               r="42.369999"
               id="circle15664" /><path
               d="m 327.276,167.155 c -69.021,0 -125.173,56.152 -125.173,125.173 0,69.021 56.152,125.172 125.173,125.172 69.021,0 125.172,-56.152 125.172,-125.173 0,-69.021 -56.152,-125.172 -125.172,-125.172 z m 0,229.447 c -57.497,0 -104.275,-46.778 -104.275,-104.275 0,-57.497 46.778,-104.275 104.275,-104.275 57.497,0 104.274,46.779 104.274,104.275 0,57.496 -46.778,104.275 -104.274,104.275 z"
               id="path15666" /><path
               d="m 327.276,204.679 c -48.329,0 -87.648,39.318 -87.648,87.648 0,48.33 39.318,87.648 87.648,87.648 48.33,0 87.648,-39.318 87.648,-87.648 0,-48.33 -39.32,-87.648 -87.648,-87.648 z m 0,154.399 c -36.807,0 -66.75,-29.944 -66.75,-66.75 0,-36.806 29.944,-66.75 66.75,-66.75 36.806,0 66.75,29.944 66.75,66.75 0,36.806 -29.945,66.75 -66.75,66.75 z"
               id="path15668" /><path
               d="m 346.687,266.983 c 0.065,0.051 0.161,0.127 0.227,0.177 1.892,1.441 4.116,2.138 6.324,2.138 3.149,0 6.263,-1.418 8.318,-4.117 3.483,-4.57 2.619,-11.091 -1.919,-14.599 -4.504,-3.511 -11.004,-2.756 -14.582,1.715 -3.605,4.506 -2.874,11.082 1.632,14.686 z"
               id="path15670" /><path
               d="m 359.196,292.327 c 0,17.601 -14.319,31.921 -31.921,31.921 -17.601,0 -31.921,-14.319 -31.921,-31.921 0,-5.771 -4.678,-10.449 -10.449,-10.449 -5.771,0 -10.449,4.678 -10.449,10.449 0,29.124 23.694,52.819 52.819,52.819 29.124,0 52.819,-23.694 52.819,-52.819 0,-5.771 -4.678,-10.449 -10.449,-10.449 -5.771,0 -10.449,4.678 -10.449,10.449 z"
               id="path15672" /><path
               d="m 456.62,167.38 c -5.762,0 -10.449,4.687 -10.449,10.449 0,5.762 4.687,10.449 10.449,10.449 5.762,0 10.449,-4.687 10.449,-10.449 0,-5.762 -4.687,-10.449 -10.449,-10.449 z"
               id="path15674" /><path
               d="m 470.204,125.95 h -42.93 L 414.15,62.18 c -1,-4.857 -5.276,-8.342 -10.235,-8.342 H 249.59 c -5.014,0 -9.322,3.562 -10.263,8.488 l -12.158,63.625 H 144.197 V 99.828 c 0,-5.771 -4.678,-10.449 -10.449,-10.449 H 55.38 c -5.771,0 -10.449,4.678 -10.449,10.449 V 125.95 H 41.796 C 18.75,125.95 0,144.657 0,167.65 v 248.812 c 0,22.993 18.75,41.7 41.796,41.7 h 428.408 c 23.046,0 41.796,-18.57 41.796,-41.397 V 167.651 C 512,144.657 493.25,125.95 470.204,125.95 Z M 258.231,74.736 h 137.168 l 10.328,50.184 H 248.641 Z M 65.829,110.277 h 57.469 V 125.95 H 65.829 Z m 425.273,306.489 c 0,11.495 -9.179,20.499 -20.898,20.499 H 41.796 c -11.171,0 -20.297,-8.777 -20.845,-19.765 h 174.631 c 5.771,0 10.449,-4.678 10.449,-10.449 0,-5.771 -4.678,-10.449 -10.449,-10.449 H 20.898 V 188.053 h 174.683 c 5.771,0 10.449,-4.678 10.449,-10.449 0,-5.771 -4.678,-10.449 -10.449,-10.449 H 20.923 c 0.267,-11.24 9.518,-20.307 20.873,-20.307 h 428.408 c 11.523,0 20.898,9.332 20.898,20.802 z"
               id="path15676" /><path
               d="m 229.522,396.602 h -0.137 c -5.771,0 -10.449,4.678 -10.449,10.449 0,5.771 4.678,10.449 10.449,10.449 h 0.137 c 5.771,0 10.449,-4.678 10.449,-10.449 0,-5.771 -4.678,-10.449 -10.449,-10.449 z"
               id="path15678" /><path
               d="m 229.385,188.053 h 0.137 c 5.771,0 10.449,-4.678 10.449,-10.449 0,-5.771 -4.678,-10.449 -10.449,-10.449 h -0.137 c -5.771,0 -10.449,4.678 -10.449,10.449 0,5.771 4.678,10.449 10.449,10.449 z"
               id="path15680" /></g><g
             id="g15698"
             transform="matrix(0.04785007,0,0,0.05177577,47.739577,-25.414407)"><path
               style="fill:#48cfad"
               d="m 128.007,501.311 c -17.656,0 -31.999,-14.359 -31.999,-32 V 42.654 c 0,-17.64 14.343,-31.999 31.999,-31.999 h 255.984 c 17.654,0 31.998,14.359 31.998,31.999 v 426.657 c 0,17.641 -14.344,32 -31.998,32 z"
               id="path15684" /><path
               style="fill:#5d9cec"
               d="m 371.116,354.878 -0.906,-0.281 c -15.094,-4.094 -26.156,-7.983 -32.844,-10.562 -23.592,-9.078 -29.779,-15.641 -31.342,-18.733 -0.031,-0.109 -0.094,-0.234 -0.156,-0.344 l -0.188,-28.891 -100.911,1.156 -0.203,27.734 c -0.047,0.109 -0.094,0.234 -0.141,0.344 -1.578,3.093 -7.719,9.655 -31.343,18.749 -6.656,2.562 -17.75,6.452 -32.718,10.515 l -1.016,0.312 c -13.625,4.547 -22.78,17.312 -22.78,31.719 v 40.045 h 277.326 v -40.045 c 10e-4,-14.406 -9.153,-27.171 -22.778,-31.718 z"
               id="path15686" /><path
               style="fill:#eac6bb"
               d="m 333.803,243.288 c 0,51.061 -48.686,100.153 -78.583,100.153 -29.905,0 -78.575,-49.093 -78.575,-100.153 0,-51.06 35.186,-84.747 78.575,-84.747 43.398,0 78.583,33.686 78.583,84.747 z"
               id="path15688" /><path
               style="fill:#a85d5d"
               d="m 305.868,149.307 c -13.375,-12.109 -58.177,-26.968 -102.864,0 -22.624,13.64 -39.092,73.95 -39.092,73.95 0,0 44.139,25.015 101.591,-2.016 34.396,-16.187 33.615,-7.703 43.428,7.031 5.844,8.734 24.873,15.015 24.873,15.015 0,0 14.812,-55.278 -27.936,-93.98 z"
               id="path15690" /><path
               style="fill:#434a54"
               d="M 383.991,0 H 128.007 C 104.43,0 85.337,19.093 85.337,42.654 v 426.657 c 0,23.562 19.093,42.671 42.67,42.671 h 255.984 c 23.561,0 42.654,-19.108 42.654,-42.671 V 42.654 C 426.645,19.093 407.552,0 383.991,0 Z m 21.342,469.311 c 0,11.766 -9.594,21.328 -21.342,21.328 H 128.007 c -11.765,0 -21.343,-9.562 -21.343,-21.328 V 42.654 c 0,-11.765 9.578,-21.327 21.343,-21.327 h 255.984 c 11.748,0 21.342,9.562 21.342,21.327 z"
               id="path15692" /><path
               style="fill:#434a54"
               d="m 96.008,405.313 v 63.998 c 0,17.641 14.343,32 31.999,32 h 255.984 c 17.654,0 31.998,-14.359 31.998,-32 v -63.998 z"
               id="path15694" /><path
               style="fill:#656d78"
               d="m 256.002,426.641 c -17.687,0 -31.999,14.328 -31.999,31.999 0,17.671 14.312,31.999 31.999,31.999 17.678,0 31.991,-14.328 31.991,-31.999 0,-17.671 -14.313,-31.999 -31.991,-31.999 z m 0,42.67 c -5.89,0 -10.671,-4.781 -10.671,-10.671 0,-5.875 4.781,-10.656 10.671,-10.656 5.875,0 10.657,4.781 10.657,10.656 0,5.89 -4.781,10.671 -10.657,10.671 z"
               id="path15696" /></g><g
             id="g15720"
             transform="matrix(0.1536,0,0,0.1536,56.9856,8.4284814)"><rect
               y="5.5"
               style="fill:#38454f"
               width="58"
               height="38"
               id="rect15700"
               x="0" /><path
               style="fill:#61b872"
               d="M 13.962,21.5 H 11.038 C 10.465,21.5 10,21.035 10,20.462 V 17.538 C 10,16.965 10.465,16.5 11.038,16.5 h 2.924 c 0.573,0 1.038,0.465 1.038,1.038 v 2.924 c 0,0.573 -0.465,1.038 -1.038,1.038 z"
               id="path15702" /><path
               style="fill:#48a0dc"
               d="M 24.962,21.5 H 22.038 C 21.465,21.5 21,21.035 21,20.462 V 17.538 C 21,16.965 21.465,16.5 22.038,16.5 h 2.924 c 0.573,0 1.038,0.465 1.038,1.038 v 2.924 c 0,0.573 -0.465,1.038 -1.038,1.038 z"
               id="path15704" /><path
               style="fill:#ebba16"
               d="M 35.962,21.5 H 33.038 C 32.465,21.5 32,21.035 32,20.462 V 17.538 C 32,16.965 32.465,16.5 33.038,16.5 h 2.924 c 0.573,0 1.038,0.465 1.038,1.038 v 2.924 c 0,0.573 -0.465,1.038 -1.038,1.038 z"
               id="path15706" /><path
               style="fill:#bf4d90"
               d="M 46.962,21.5 H 44.038 C 43.465,21.5 43,21.035 43,20.462 V 17.538 C 43,16.965 43.465,16.5 44.038,16.5 h 2.924 c 0.573,0 1.038,0.465 1.038,1.038 v 2.924 c 0,0.573 -0.465,1.038 -1.038,1.038 z"
               id="path15708" /><path
               style="fill:#dd352e"
               d="M 13.962,32.5 H 11.038 C 10.465,32.5 10,32.035 10,31.462 V 28.538 C 10,27.965 10.465,27.5 11.038,27.5 h 2.924 c 0.573,0 1.038,0.465 1.038,1.038 v 2.924 c 0,0.573 -0.465,1.038 -1.038,1.038 z"
               id="path15710" /><path
               style="fill:#a4e869"
               d="M 24.962,32.5 H 22.038 C 21.465,32.5 21,32.035 21,31.462 V 28.538 C 21,27.965 21.465,27.5 22.038,27.5 h 2.924 c 0.573,0 1.038,0.465 1.038,1.038 v 2.924 c 0,0.573 -0.465,1.038 -1.038,1.038 z"
               id="path15712" /><path
               style="fill:#50508a"
               d="M 35.962,32.5 H 33.038 C 32.465,32.5 32,32.035 32,31.462 V 28.538 C 32,27.965 32.465,27.5 33.038,27.5 h 2.924 c 0.573,0 1.038,0.465 1.038,1.038 v 2.924 c 0,0.573 -0.465,1.038 -1.038,1.038 z"
               id="path15714" /><path
               style="fill:#be7c6d"
               d="M 46.962,32.5 H 44.038 C 43.465,32.5 43,32.035 43,31.462 V 28.538 C 43,27.965 43.465,27.5 44.038,27.5 h 2.924 c 0.573,0 1.038,0.465 1.038,1.038 v 2.924 c 0,0.573 -0.465,1.038 -1.038,1.038 z"
               id="path15716" /><polygon
               style="fill:#afb6bb"
               points="28,49.5 15,49.5 15,52.5 43,52.5 43,49.5 30,49.5 30,43.5 28,43.5 "
               id="polygon15718" /></g><g
             id="g15742"
             transform="matrix(0.77003571,0,0,0.60848731,2.5230789,4.400439)"><rect
               y="5.5"
               style="fill:#38454f"
               width="58"
               height="38"
               id="rect15722"
               x="0" /><path
               style="fill:#61b872"
               d="M 13.962,21.5 H 11.038 C 10.465,21.5 10,21.035 10,20.462 V 17.538 C 10,16.965 10.465,16.5 11.038,16.5 h 2.924 c 0.573,0 1.038,0.465 1.038,1.038 v 2.924 c 0,0.573 -0.465,1.038 -1.038,1.038 z"
               id="path15724" /><path
               style="fill:#48a0dc"
               d="M 24.962,21.5 H 22.038 C 21.465,21.5 21,21.035 21,20.462 V 17.538 C 21,16.965 21.465,16.5 22.038,16.5 h 2.924 c 0.573,0 1.038,0.465 1.038,1.038 v 2.924 c 0,0.573 -0.465,1.038 -1.038,1.038 z"
               id="path15726" /><path
               style="fill:#ebba16"
               d="M 35.962,21.5 H 33.038 C 32.465,21.5 32,21.035 32,20.462 V 17.538 C 32,16.965 32.465,16.5 33.038,16.5 h 2.924 c 0.573,0 1.038,0.465 1.038,1.038 v 2.924 c 0,0.573 -0.465,1.038 -1.038,1.038 z"
               id="path15728" /><path
               style="fill:#bf4d90"
               d="M 46.962,21.5 H 44.038 C 43.465,21.5 43,21.035 43,20.462 V 17.538 C 43,16.965 43.465,16.5 44.038,16.5 h 2.924 c 0.573,0 1.038,0.465 1.038,1.038 v 2.924 c 0,0.573 -0.465,1.038 -1.038,1.038 z"
               id="path15730" /><path
               style="fill:#dd352e"
               d="M 13.962,32.5 H 11.038 C 10.465,32.5 10,32.035 10,31.462 V 28.538 C 10,27.965 10.465,27.5 11.038,27.5 h 2.924 c 0.573,0 1.038,0.465 1.038,1.038 v 2.924 c 0,0.573 -0.465,1.038 -1.038,1.038 z"
               id="path15732" /><path
               style="fill:#a4e869"
               d="M 24.962,32.5 H 22.038 C 21.465,32.5 21,32.035 21,31.462 V 28.538 C 21,27.965 21.465,27.5 22.038,27.5 h 2.924 c 0.573,0 1.038,0.465 1.038,1.038 v 2.924 c 0,0.573 -0.465,1.038 -1.038,1.038 z"
               id="path15734" /><path
               style="fill:#50508a"
               d="M 35.962,32.5 H 33.038 C 32.465,32.5 32,32.035 32,31.462 V 28.538 C 32,27.965 32.465,27.5 33.038,27.5 h 2.924 c 0.573,0 1.038,0.465 1.038,1.038 v 2.924 c 0,0.573 -0.465,1.038 -1.038,1.038 z"
               id="path15736" /><path
               style="fill:#be7c6d"
               d="M 46.962,32.5 H 44.038 C 43.465,32.5 43,32.035 43,31.462 V 28.538 C 43,27.965 43.465,27.5 44.038,27.5 h 2.924 c 0.573,0 1.038,0.465 1.038,1.038 v 2.924 c 0,0.573 -0.465,1.038 -1.038,1.038 z"
               id="path15738" /><polygon
               style="fill:#afb6bb"
               points="30,49.5 30,43.5 28,43.5 28,49.5 15,49.5 15,52.5 43,52.5 43,49.5 "
               id="polygon15740" /></g></g></g></g></clipPath></defs><sodipodi:namedview
   id="namedview1873"
   pagecolor="#ffffff"
   bordercolor="#000000"
   borderopacity="0.25"
   inkscape:showpageshadow="2"
   inkscape:pageopacity="0.79215686"
   inkscape:pagecheckerboard="0"
   inkscape:deskcolor="#d1d1d1"
   showgrid="false"
   inkscape:zoom="0.59"
   inkscape:cx="272.0339"
   inkscape:cy="235.59322"
   inkscape:window-width="1366"
   inkscape:window-height="675"
   inkscape:window-x="0"
   inkscape:window-y="0"
   inkscape:window-maximized="1"
   inkscape:current-layer="g12439" />



<g
   id="g12350"
   transform="translate(2.156201,-2.9135431)" /><g
   id="g12439"
   clip-path="none"
   transform="translate(2.2384625,-1.5851611)"><g
     id="g576"
     transform="matrix(0.04820597,0,0,0.04652066,94.085433,12.932375)"><path
       style="fill:#b0b0b0"
       d="M 408.406,408.407 256,363.768 103.593,408.407 148.232,256.001 103.593,103.594 256,148.233 408.406,103.594 363.766,256 Z"
       id="path502" /><path
       style="fill:#8b8b8b"
       d="M 408.406,408.407 256,363.768 V 148.232 l 152.406,-44.639 -44.639,152.406 z"
       id="path504" /><g
       id="g510">
	<path
   style="fill:#ececed"
   d="m 256,322.555 c -17.778,0 -34.49,-6.923 -47.06,-19.493 -12.571,-12.57 -19.494,-29.283 -19.494,-47.06 0,-17.777 6.923,-34.49 19.494,-47.061 v 0 0 c 12.57,-12.57 29.283,-19.493 47.06,-19.493 17.777,0 34.49,6.923 47.06,19.493 12.571,12.57 19.494,29.283 19.494,47.06 0,17.777 -6.923,34.49 -19.494,47.061 -12.569,12.569 -29.283,19.493 -47.06,19.493 z m 0,-99.711 c -8.856,0 -17.183,3.449 -23.445,9.711 v 0 c -6.262,6.262 -9.712,14.588 -9.712,23.444 0,8.856 3.45,17.182 9.712,23.444 6.262,6.262 14.588,9.712 23.445,9.712 8.857,0 17.183,-3.449 23.445,-9.711 6.262,-6.262 9.712,-14.588 9.712,-23.445 0,-8.857 -3.45,-17.182 -9.712,-23.444 -6.262,-6.261 -14.589,-9.711 -23.445,-9.711 z"
   id="path506" />
	<circle
   style="fill:#ececed"
   cx="255.996"
   cy="255.99699"
   r="15.049"
   id="circle508" />
</g><path
       style="fill:#d7d7d7"
       d="m 256,240.951 c 8.312,0 15.049,6.738 15.049,15.049 0,8.311 -6.738,15.049 -15.049,15.049 0,-13.48 0,-24.828 0,-30.098 z"
       id="path512" /><path
       style="fill:#b0b0b0"
       d="m 400.886,224.591 c -29.694,0 -57.611,-11.564 -78.606,-32.56 -20.996,-20.996 -32.56,-48.913 -32.56,-78.606 0,-29.693 11.564,-57.611 32.56,-78.607 20.995,-20.996 48.913,-32.56 78.606,-32.56 29.693,0 57.61,11.564 78.606,32.56 v 0 c 43.344,43.344 43.344,113.87 0,157.213 -20.996,20.998 -48.913,32.56 -78.606,32.56 z m 0,-188.934 c -20.773,0 -40.302,8.089 -54.991,22.778 -14.689,14.688 -22.778,34.219 -22.778,54.991 0,20.772 8.089,40.302 22.778,54.991 14.688,14.688 34.217,22.778 54.991,22.778 20.774,0 40.302,-8.089 54.991,-22.778 30.321,-30.322 30.321,-79.659 0,-109.982 C 441.188,43.746 421.659,35.657 400.886,35.657 Z"
       id="path514" /><g
       id="g520">
	<path
   style="fill:#79bbbc"
   d="M 373.543,101.364 342.985,87.887 c 6.822,-15.467 19.259,-27.35 35.017,-33.463 15.759,-6.113 32.956,-5.722 48.423,1.1 l -13.478,30.557 c -7.301,-3.221 -15.422,-3.407 -22.867,-0.52 -7.442,2.887 -13.315,8.499 -16.537,15.803 z"
   id="path516" />
	<path
   style="fill:#79bbbc"
   d="M 424.564,172.111 412.068,141.14 c 7.402,-2.987 13.199,-8.678 16.322,-16.024 3.123,-7.346 3.196,-15.47 0.209,-22.872 L 459.57,89.746 c 6.326,15.676 6.168,32.876 -0.444,48.433 -6.611,15.556 -18.886,27.607 -34.562,33.932 z"
   id="path518" />
</g><path
       style="fill:#b0b0b0"
       d="m 400.886,509.741 c -29.694,0 -57.611,-11.564 -78.606,-32.56 -20.996,-20.996 -32.56,-48.914 -32.56,-78.607 0,-29.693 11.564,-57.611 32.56,-78.607 20.995,-20.996 48.913,-32.56 78.606,-32.56 29.693,0 57.61,11.564 78.606,32.56 43.344,43.344 43.344,113.87 0,157.214 v 0 c -20.996,20.998 -48.913,32.56 -78.606,32.56 z m 0,-188.934 c -20.773,0 -40.302,8.089 -54.991,22.778 -14.689,14.688 -22.778,34.217 -22.778,54.991 0,20.774 8.089,40.303 22.778,54.991 14.688,14.689 34.217,22.778 54.991,22.778 20.774,0 40.302,-8.089 54.991,-22.778 30.321,-30.322 30.321,-79.66 0,-109.982 -14.689,-14.689 -34.218,-22.778 -54.991,-22.778 z"
       id="path522" /><g
       id="g528">
	<path
   style="fill:#79bbbc"
   d="m 400.905,461.893 c -7.733,0 -15.477,-1.437 -22.903,-4.316 -15.758,-6.112 -28.195,-17.996 -35.017,-33.463 l 30.558,-13.477 c 3.222,7.304 9.094,12.916 16.537,15.802 7.443,2.887 15.564,2.702 22.867,-0.52 l 13.478,30.557 c -8.18,3.608 -16.842,5.417 -25.52,5.417 z"
   id="path524" />
	<path
   style="fill:#79bbbc"
   d="m 459.572,422.255 -30.971,-12.498 c 2.987,-7.402 2.912,-15.526 -0.209,-22.872 -3.123,-7.346 -8.92,-13.038 -16.322,-16.024 l 12.496,-30.971 c 15.676,6.324 27.95,18.376 34.563,33.932 6.611,15.557 6.768,32.757 0.443,48.433 z"
   id="path526" />
</g><path
       style="fill:#d7d7d7"
       d="m 111.114,224.591 c -29.693,0 -57.61,-11.564 -78.606,-32.56 C -10.836,148.688 -10.836,78.162 32.507,34.818 v 0 c 20.996,-20.996 48.914,-32.56 78.606,-32.56 29.694,0 57.611,11.564 78.606,32.56 20.996,20.996 32.56,48.914 32.56,78.607 0,29.693 -11.564,57.611 -32.56,78.607 -20.994,20.997 -48.912,32.559 -78.605,32.559 z M 56.123,58.435 c -30.321,30.322 -30.321,79.66 0,109.982 14.688,14.689 34.218,22.778 54.991,22.778 20.773,0 40.302,-8.089 54.991,-22.778 14.689,-14.688 22.778,-34.217 22.778,-54.991 0,-20.774 -8.089,-40.303 -22.778,-54.991 -14.689,-14.688 -34.217,-22.778 -54.991,-22.778 -20.774,0 -40.303,8.089 -54.991,22.778 z"
       id="path530" /><g
       id="g536">
	<path
   style="fill:#92e5ea"
   d="m 138.456,101.364 c -3.222,-7.304 -9.094,-12.916 -16.537,-15.802 -7.442,-2.886 -15.562,-2.701 -22.867,0.52 L 85.574,55.524 c 15.469,-6.822 32.663,-7.212 48.423,-1.1 15.758,6.112 28.195,17.996 35.017,33.463 z"
   id="path532" />
	<path
   style="fill:#92e5ea"
   d="M 87.435,172.111 C 71.759,165.787 59.485,153.735 52.872,138.179 46.26,122.622 46.102,105.422 52.428,89.746 l 30.971,12.498 c -2.987,7.402 -2.912,15.526 0.209,22.872 3.123,7.346 8.92,13.038 16.322,16.024 z"
   id="path534" />
</g><path
       style="fill:#d7d7d7"
       d="m 111.114,509.741 c -29.693,0 -57.61,-11.564 -78.606,-32.56 v 0 c -43.344,-43.344 -43.344,-113.87 0,-157.213 20.996,-20.996 48.914,-32.56 78.606,-32.56 29.694,0 57.611,11.564 78.606,32.56 20.996,20.996 32.56,48.913 32.56,78.606 0,29.693 -11.564,57.611 -32.56,78.607 -20.995,20.998 -48.913,32.56 -78.606,32.56 z M 56.123,453.566 c 14.688,14.688 34.218,22.777 54.991,22.777 20.773,0 40.302,-8.089 54.991,-22.777 14.689,-14.689 22.778,-34.219 22.778,-54.991 0,-20.772 -8.089,-40.301 -22.778,-54.991 -14.688,-14.689 -34.217,-22.778 -54.991,-22.778 -20.774,0 -40.302,8.089 -54.991,22.778 -30.321,30.323 -30.321,79.659 0,109.982 z"
       id="path538" /><g
       id="g544">
	<path
   style="fill:#92e5ea"
   d="m 111.094,461.893 c -8.679,0 -17.339,-1.809 -25.52,-5.417 l 13.478,-30.557 c 7.303,3.222 15.423,3.408 22.867,0.52 7.442,-2.887 13.315,-8.499 16.537,-15.802 l 30.558,13.477 c -6.822,15.467 -19.258,27.35 -35.017,33.463 -7.425,2.879 -15.171,4.316 -22.903,4.316 z"
   id="path540" />
	<path
   style="fill:#92e5ea"
   d="m 52.428,422.255 c -6.326,-15.676 -6.168,-32.876 0.444,-48.433 6.612,-15.557 18.887,-27.608 34.563,-33.932 l 12.496,30.971 c -7.402,2.987 -13.199,8.678 -16.322,16.024 -3.123,7.346 -3.196,15.47 -0.209,22.872 z"
   id="path542" />
</g><path
       style="fill:#d7d7d7"
       d="m 303.061,208.94 c -12.57,-12.571 -29.283,-19.493 -47.06,-19.493 v 33.398 c 8.856,0 17.183,3.449 23.445,9.712 6.262,6.262 9.712,14.588 9.712,23.444 0,8.856 -3.45,17.182 -9.712,23.445 -6.262,6.262 -14.588,9.711 -23.445,9.711 v 33.398 c 17.778,0 34.49,-6.923 47.06,-19.493 12.571,-12.571 19.494,-29.285 19.494,-47.061 0,-17.777 -6.923,-34.491 -19.494,-47.061 z"
       id="path546" /></g><g
     id="g625"
     transform="matrix(0.05871421,0,0,0.06180271,38.678467,6.563886)"><rect
       y="99.088997"
       style="fill:#dfdfe2"
       width="512"
       height="228.133"
       id="rect578"
       x="0" /><rect
       x="255.937"
       y="99.099998"
       style="fill:#d7d6d9"
       width="256.06299"
       height="228.133"
       id="rect580" /><g
       id="g588">
	<rect
   x="240.327"
   y="309.46899"
   style="fill:#dfdfe2"
   width="31.347"
   height="87.771004"
   id="rect582" />
	<path
   style="fill:#dfdfe2"
   d="m 186.204,374.665 c 0,3.803 -3.094,6.898 -6.897,6.898 h -30.931 v 31.347 h 30.931 c 21.088,0 38.244,-17.156 38.244,-38.245 v -65.2 h -31.347 z"
   id="path584" />
	<path
   style="fill:#dfdfe2"
   d="m 332.385,381.564 c -3.803,0 -6.897,-3.095 -6.897,-6.898 v -65.2 h -31.347 v 65.2 c 0,21.089 17.156,38.245 38.244,38.245 h 30.931 v -31.347 z"
   id="path586" />
</g><g
       id="g594">
	<rect
   x="255.937"
   y="309.46899"
   style="fill:#d7d6d9"
   width="15.736"
   height="87.771004"
   id="rect590" />
	<path
   style="fill:#d7d6d9"
   d="m 332.385,381.564 c -3.803,0 -6.897,-3.095 -6.897,-6.898 v -65.2 h -31.347 v 65.2 c 0,21.089 17.156,38.245 38.244,38.245 h 30.931 v -31.347 z"
   id="path592" />
</g><rect
       x="463.61099"
       y="269.06299"
       style="fill:#00cfb4"
       width="24.686001"
       height="24.686001"
       id="rect596" /><rect
       x="71.053001"
       y="211.771"
       style="fill:#57565c"
       width="369.89401"
       height="115.461"
       id="rect598" /><rect
       x="136.882"
       y="158.345"
       style="fill:#00cfb4"
       width="238.237"
       height="31.347"
       id="rect600" /><rect
       x="255.937"
       y="211.771"
       style="fill:#3e3d43"
       width="185.00999"
       height="115.461"
       id="rect602" /><rect
       x="255.937"
       y="158.356"
       style="fill:#00af94"
       width="119.181"
       height="31.347"
       id="rect604" /></g><g
     id="g654"
     transform="matrix(0.02596764,0,0,0.03036726,68.048265,10.472348)"><path
       d="M 164.05618,83.126044 H 862.19662 V 925.51396 H 164.05618 Z"
       fill="#e6e6e6"
       id="path627" /><path
       d="m 246.1696,583.2704 a 266.9568,265.19324 0 1 0 533.9136,0 266.9568,265.19324 0 1 0 -533.9136,0 z"
       fill="#ffffff"
       id="path629" /><path
       d="M 616.08391,583.2704 A 186.02667,186.02667 0 0 1 658.98951,464.23609 188.87111,188.87111 0 0 0 513.1264,395.75324 c -104.25458,0 -188.76871,83.95663 -188.76871,187.51716 0,103.56053 84.51413,187.51716 188.76871,187.51716 58.75484,0 111.24053,-26.68089 145.86311,-68.49423 A 185.9584,185.9584 0 0 1 616.08391,583.2704 Z"
       fill="#c0efff"
       id="path631" /><path
       d="m 393.29564,583.2704 a 119.83076,119.04569 0 1 0 239.66152,0 119.83076,119.04569 0 1 0 -239.66152,0 z"
       fill="#e6faff"
       id="path633" /><path
       d="M 862.21938,360.84622 A 14.904889,14.904889 0 0 0 847.2576,375.7056 v 521.65973 c 0,7.32729 -5.99609,13.28925 -13.38027,13.28925 H 309.88516 a 14.904889,14.904889 0 0 0 -14.9504,14.85938 14.904889,14.904889 0 0 0 14.9504,14.87075 h 523.99217 c 23.88196,0 43.30382,-19.28533 43.30383,-43.008 V 375.7056 A 14.904889,14.904889 0 0 0 862.21938,360.84622 Z M 833.87733,68.266667 H 192.39822 c -23.87058,0 -43.29244,19.296711 -43.29244,43.008003 v 786.09066 c 0,23.72267 19.42186,43.008 43.29244,43.008 h 67.62951 a 14.904889,14.904889 0 0 0 14.9504,-14.87075 14.904889,14.904889 0 0 0 -14.9504,-14.85938 H 192.39822 A 13.357511,13.357511 0 0 1 179.01796,897.35396 V 251.25547 h 668.22826 v 76.9024 a 14.904889,14.904889 0 0 0 14.9504,14.85937 14.904889,14.904889 0 0 0 14.96178,-14.85937 V 111.27467 C 877.18116,87.563378 857.75929,68.266667 833.87733,68.266667 Z M 319.86347,97.985422 V 126.53227 H 247.61458 V 97.985422 Z M 179.01796,111.27467 c 0,-7.32729 5.99608,-13.289247 13.38026,-13.289248 h 25.2928 v 43.406218 a 14.904889,14.904889 0 0 0 14.9504,14.85938 h 102.17245 a 14.904889,14.904889 0 0 0 14.9504,-14.85938 V 97.985422 h 27.8528 V 221.52533 H 179.01796 Z m 469.62915,110.25066 v -89.52035 a 14.904889,14.904889 0 0 0 -14.9504,-14.85938 14.904889,14.904889 0 0 0 -14.96178,14.85938 v 89.52035 H 407.552 V 97.985422 h 426.32533 c 7.3728,0 13.38027,5.961958 13.38027,13.289248 v 110.25066 z"
       fill=""
       id="path635" /><path
       d="m 706.33244,766.88498 c 6.26916,5.34755 15.71272,4.59662 21.0944,-1.62702 a 278.97173,278.97173 0 0 0 67.64089,-181.99894 c 0,-154.43058 -126.47538,-280.064 -281.92995,-280.064 -155.45458,0 -281.91858,125.6448 -281.91858,280.07538 0,154.4192 126.47538,280.05262 281.91858,280.05262 62.42987,0 121.58293,-19.85422 171.06489,-57.43502 a 14.791111,14.791111 0 0 0 2.79893,-20.82133 15.018667,15.018667 0 0 0 -20.98062,-2.77618 c -44.20267,33.56444 -97.0752,51.31378 -152.8832,51.31378 -138.9568,0 -252.0064,-112.29867 -252.0064,-250.33387 0,-138.0352 113.0496,-250.34524 252.0064,-250.34524 138.94542,0 251.99502,112.31004 251.99502,250.33386 0,59.64231 -21.46987,117.41867 -60.43876,162.66809 a 14.779733,14.779733 0 0 0 1.6384,20.95787 z"
       fill=""
       id="path637" /><path
       d="M 670.56071,454.79253 A 203.69636,203.69636 0 0 0 513.14916,380.88249 c -112.34418,0 -203.73049,90.79467 -203.73049,202.38791 a 201.38667,201.38667 0 0 0 26.45333,99.78311 15.007289,15.007289 0 0 0 20.38898,5.59787 14.813867,14.813867 0 0 0 5.62062,-20.26382 171.8272,171.8272 0 0 1 -22.53938,-85.10578 c 0,-95.20925 77.97191,-172.66916 173.80694,-172.66916 a 173.85244,173.85244 0 0 1 126.50951,54.24925 201.98969,201.98969 0 0 0 -38.51378,118.41991 c 0,42.51875 13.59644,84.10453 38.51378,118.40853 a 173.85244,173.85244 0 0 1 -126.50951,54.26062 c -47.53636,0 -91.90969,-18.71644 -124.96214,-52.66773 -5.7344,-5.89369 -15.21209,-6.0416 -21.15129,-0.34133 -5.9392,5.70026 -6.09849,15.10969 -0.35271,21.01475 38.74133,39.79947 90.76053,61.71307 146.47751,61.71307 a 203.66222,203.66222 0 0 0 157.41156,-73.89867 14.791111,14.791111 0 0 0 0,-18.87573 c -25.46347,-30.76551 -39.50365,-69.68889 -39.50365,-109.60213 0,-39.91325 14.0288,-78.83663 39.50365,-109.59076 a 14.870756,14.870756 0 0 0 -0.0114,-18.90987 z M 807.51502,118.79538 H 687.84356 c -8.27165,0 -14.9504,6.656 -14.9504,14.85938 0,8.20337 6.69013,14.85937 14.9504,14.85937 h 119.67146 c 8.27165,0 14.9504,-6.656 14.9504,-14.85937 0,-8.20338 -6.69013,-14.85938 -14.9504,-14.85938 z m 0,52.18986 H 687.84356 c -8.27165,0 -14.9504,6.656 -14.9504,14.85938 0,8.20338 6.69013,14.85938 14.9504,14.85938 h 119.67146 c 8.27165,0 14.9504,-6.656 14.9504,-14.85938 0,-8.20338 -6.69013,-14.85938 -14.9504,-14.85938 z"
       fill=""
       id="path639" /></g><g
     id="g691"
     transform="matrix(0.62806869,0,0,0.48210517,0.15408886,10.169957)"><rect
       y="5.5"
       style="fill:#38454f"
       width="58"
       height="38"
       id="rect656"
       x="0" /><path
       style="fill:#61b872"
       d="M 13.962,21.5 H 11.038 C 10.465,21.5 10,21.035 10,20.462 V 17.538 C 10,16.965 10.465,16.5 11.038,16.5 h 2.924 c 0.573,0 1.038,0.465 1.038,1.038 v 2.924 c 0,0.573 -0.465,1.038 -1.038,1.038 z"
       id="path658" /><path
       style="fill:#48a0dc"
       d="M 24.962,21.5 H 22.038 C 21.465,21.5 21,21.035 21,20.462 V 17.538 C 21,16.965 21.465,16.5 22.038,16.5 h 2.924 c 0.573,0 1.038,0.465 1.038,1.038 v 2.924 c 0,0.573 -0.465,1.038 -1.038,1.038 z"
       id="path660" /><path
       style="fill:#ebba16"
       d="M 35.962,21.5 H 33.038 C 32.465,21.5 32,21.035 32,20.462 V 17.538 C 32,16.965 32.465,16.5 33.038,16.5 h 2.924 c 0.573,0 1.038,0.465 1.038,1.038 v 2.924 c 0,0.573 -0.465,1.038 -1.038,1.038 z"
       id="path662" /><path
       style="fill:#bf4d90"
       d="M 46.962,21.5 H 44.038 C 43.465,21.5 43,21.035 43,20.462 V 17.538 C 43,16.965 43.465,16.5 44.038,16.5 h 2.924 c 0.573,0 1.038,0.465 1.038,1.038 v 2.924 c 0,0.573 -0.465,1.038 -1.038,1.038 z"
       id="path664" /><path
       style="fill:#dd352e"
       d="M 13.962,32.5 H 11.038 C 10.465,32.5 10,32.035 10,31.462 V 28.538 C 10,27.965 10.465,27.5 11.038,27.5 h 2.924 c 0.573,0 1.038,0.465 1.038,1.038 v 2.924 c 0,0.573 -0.465,1.038 -1.038,1.038 z"
       id="path666" /><path
       style="fill:#a4e869"
       d="M 24.962,32.5 H 22.038 C 21.465,32.5 21,32.035 21,31.462 V 28.538 C 21,27.965 21.465,27.5 22.038,27.5 h 2.924 c 0.573,0 1.038,0.465 1.038,1.038 v 2.924 c 0,0.573 -0.465,1.038 -1.038,1.038 z"
       id="path668" /><path
       style="fill:#50508a"
       d="M 35.962,32.5 H 33.038 C 32.465,32.5 32,32.035 32,31.462 V 28.538 C 32,27.965 32.465,27.5 33.038,27.5 h 2.924 c 0.573,0 1.038,0.465 1.038,1.038 v 2.924 c 0,0.573 -0.465,1.038 -1.038,1.038 z"
       id="path670" /><path
       style="fill:#be7c6d"
       d="M 46.962,32.5 H 44.038 C 43.465,32.5 43,32.035 43,31.462 V 28.538 C 43,27.965 43.465,27.5 44.038,27.5 h 2.924 c 0.573,0 1.038,0.465 1.038,1.038 v 2.924 c 0,0.573 -0.465,1.038 -1.038,1.038 z"
       id="path672" /><polygon
       style="fill:#afb6bb"
       points="43,52.5 43,49.5 30,49.5 30,43.5 28,43.5 28,49.5 15,49.5 15,52.5 "
       id="polygon674" /></g><g
     id="g764"
     transform="matrix(0.0508796,0,0,0.05561844,57.087829,-23.463917)"><path
       style="fill:#ccd1d9"
       d="m 410.649,170.64 h -82.811 c -5.875,0 -10.656,4.781 -10.656,10.672 v 53.335 c 0,5.891 4.781,10.664 10.656,10.664 h 82.812 c 5.906,0 10.688,-4.773 10.688,-10.664 v -53.335 c -0.001,-5.891 -4.782,-10.672 -10.689,-10.672 z"
       id="path693" /><g
       id="g699">
	<path
   style="fill:#434a54"
   d="m 346.65,490.652 c 0,0 -24.188,21.328 -106.664,21.328 -82.468,0 -106.671,-21.328 -106.671,-21.328 v -53.343 l -10.656,-53.28 h 234.678 l -10.687,53.28 z"
   id="path695" />
	<path
   style="fill:#434a54"
   d="m 133.331,21.336 c 0,0 24.203,-21.336 106.671,-21.336 82.492,0 106.679,21.336 106.679,21.336 v 53.335 l 10.655,53.273 H 122.644 L 133.332,74.671 V 21.336 Z"
   id="path697" />
</g><g
       style="opacity:0.1"
       id="g703">
	<path
   style="fill:#ffffff"
   d="M 346.682,42.663 V 21.336 C 346.682,21.336 322.494,0 240.003,0 157.535,0 133.332,21.336 133.332,21.336 v 21.327 c 0,0 24.203,-21.327 106.671,-21.327 82.491,0 106.679,21.327 106.679,21.327 z"
   id="path701" />
</g><g
       style="opacity:0.1"
       id="g707">
	<path
   style="fill:#ffffff"
   d="m 133.331,469.341 v 21.312 c 0,0 24.203,21.344 106.671,21.344 82.492,0 106.679,-21.344 106.679,-21.344 v -21.312 c 0,0 -24.188,21.312 -106.679,21.312 -82.468,-0.001 -106.671,-21.312 -106.671,-21.312 z"
   id="path705" />
</g><path
       style="fill:#ccd1d9"
       d="m 389.337,266.646 c -5.906,0 -10.688,4.773 -10.688,10.664 v 53.344 c 0,5.875 4.781,10.656 10.688,10.656 5.875,0 10.656,-4.781 10.656,-10.656 V 277.31 c 0,-5.89 -4.781,-10.664 -10.656,-10.664 z"
       id="path709" /><path
       style="fill:#656d78"
       d="M 346.65,106.64 H 133.315 c -23.562,0 -42.656,19.102 -42.656,42.672 v 213.343 c 0,23.562 19.094,42.655 42.656,42.655 H 346.65 c 23.562,0 42.687,-19.093 42.687,-42.655 V 149.311 c 0,-23.57 -19.125,-42.671 -42.687,-42.671 z"
       id="path711" /><path
       style="opacity:0.1;fill:#ffffff;enable-background:new"
       d="m 346.65,106.64 h -21.312 c 23.562,0 42.655,19.102 42.655,42.672 v 213.343 c 0,23.562 -19.094,42.655 -42.655,42.655 h 21.312 c 23.562,0 42.687,-19.093 42.687,-42.655 V 149.311 c 0,-23.57 -19.125,-42.671 -42.687,-42.671 z"
       id="path713" /><path
       style="fill:#48cfad"
       d="m 282.65,255.545 c 0,23.578 -19.086,42.672 -42.664,42.672 -23.562,0 -42.656,-19.094 -42.656,-42.672 0,-23.562 19.094,-42.664 42.656,-42.664 23.578,0 42.664,19.101 42.664,42.664 z"
       id="path715" /><path
       style="fill:#a0d468"
       d="m 357.337,255.975 c 0,17.68 -14.343,31.992 -31.999,31.992 -17.688,0 -32,-14.312 -32,-31.992 0,-17.672 14.312,-32 32,-32 17.656,0 31.999,14.328 31.999,32 z"
       id="path717" /><path
       style="fill:#ac92eb"
       d="m 186.659,255.975 c 0,17.68 -14.328,31.992 -32,31.992 -17.672,0 -32,-14.312 -32,-31.992 0,-17.672 14.328,-32 32,-32 17.672,0 32,14.328 32,32 z"
       id="path719" /><path
       style="fill:#ec87c0"
       d="m 298.65,153.593 c 15.312,8.836 20.562,28.406 11.719,43.711 -8.844,15.304 -28.406,20.546 -43.711,11.71 -15.312,-8.836 -20.546,-28.405 -11.718,-43.71 8.843,-15.305 28.429,-20.547 43.71,-11.711 z"
       id="path721" /><path
       style="fill:#ed5564"
       d="m 213.331,302.936 c 15.297,8.844 20.547,28.406 11.703,43.719 -8.828,15.297 -28.406,20.531 -43.703,11.703 -15.312,-8.828 -20.562,-28.406 -11.718,-43.703 8.843,-15.313 28.405,-20.563 43.718,-11.719 z"
       id="path723" /><path
       style="fill:#ffce54"
       d="m 181.331,153.593 c 15.297,-8.836 34.875,-3.594 43.703,11.711 8.844,15.305 3.594,34.874 -11.703,43.71 -15.312,8.836 -34.875,3.594 -43.718,-11.71 -8.844,-15.305 -3.594,-34.875 11.718,-43.711 z"
       id="path725" /><path
       style="fill:#5d9cec"
       d="m 266.658,302.936 c 15.305,-8.844 34.867,-3.594 43.711,11.719 8.844,15.297 3.594,34.875 -11.719,43.703 -15.281,8.828 -34.867,3.594 -43.71,-11.703 -8.828,-15.313 -3.594,-34.876 11.718,-43.719 z"
       id="path727" /><path
       style="fill:#ec87c0"
       d="m 154.659,202.639 c 0,5.898 -4.781,10.672 -10.672,10.672 -5.891,0 -10.672,-4.773 -10.672,-10.672 0,-5.882 4.781,-10.663 10.672,-10.663 5.891,0 10.672,4.781 10.672,10.663 z"
       id="path729" /><path
       style="fill:#ac92eb"
       d="m 346.65,202.639 c 0,5.898 -4.75,10.672 -10.656,10.672 -5.875,0 -10.656,-4.773 -10.656,-10.672 0,-5.882 4.781,-10.663 10.656,-10.663 5.906,0 10.656,4.781 10.656,10.663 z"
       id="path731" /><path
       style="fill:#a0d468"
       d="m 154.659,309.31 c 0,5.891 -4.781,10.672 -10.672,10.672 -5.891,0 -10.672,-4.781 -10.672,-10.672 0,-5.891 4.781,-10.656 10.672,-10.656 5.891,0 10.672,4.766 10.672,10.656 z"
       id="path733" /><path
       style="fill:#ed5564"
       d="m 346.65,309.31 c 0,5.891 -4.75,10.672 -10.656,10.672 -5.875,0 -10.656,-4.781 -10.656,-10.672 0,-5.891 4.781,-10.656 10.656,-10.656 5.906,0 10.656,4.766 10.656,10.656 z"
       id="path735" /></g><g
     id="g835"
     transform="matrix(0.03811861,0,0,0.03943612,81.634439,-29.714762)"><path
       d="M 910.3,851.7 H 173.6 c -27.4,0 -49.7,-22.3 -49.7,-49.7 V 305.5 c 0,-27.4 22.3,-49.7 49.7,-49.7 h 736.7 c 27.4,0 49.7,22.3 49.7,49.7 V 802 c 0,27.4 -22.3,49.7 -49.7,49.7 z"
       fill="#a7b8c6"
       id="path766" /><path
       d="m 913.7,235.6 c 0,-27.4 -22.3,-49.7 -49.7,-49.7 H 127.3 c -27.4,0 -49.7,22.3 -49.7,49.7 v 326.8 h 836.1 z"
       fill="#e7e2d3"
       id="path768" /><path
       d="M 127.3,781.7 H 864 c 27.4,0 49.7,-22.3 49.7,-49.7 V 481 H 77.5 v 251 c 0,27.4 22.3,49.7 49.8,49.7 z"
       fill="#4c4b4c"
       id="path770" /><path
       d="M 864,795.3 H 127.3 C 92.4,795.3 64,766.9 64,732 V 235.6 c 0,-34.9 28.4,-63.3 63.3,-63.3 H 864 c 34.9,0 63.3,28.4 63.3,63.3 V 732 c -0.1,34.9 -28.4,63.3 -63.3,63.3 z M 127.3,199.4 c -19.9,0 -36.2,16.2 -36.2,36.2 V 732 c 0,19.9 16.2,36.2 36.2,36.2 H 864 c 19.9,0 36.2,-16.2 36.2,-36.2 V 235.6 c 0,-19.9 -16.2,-36.2 -36.2,-36.2 z"
       fill="#3e3a39"
       id="path772" /><path
       d="m 495.6,459.9 m -187.6,0 a 187.6,187.6 0 1 0 375.2,0 187.6,187.6 0 1 0 -375.2,0 z"
       fill="#e7e2d3"
       id="path774" /><path
       d="M 495.6,655.1 C 388,655.1 300.5,567.6 300.5,460 c 0,-107.6 87.5,-195.1 195.1,-195.1 107.6,0 195.1,87.5 195.1,195.1 0,107.5 -87.5,195.1 -195.1,195.1 z m 0,-375.2 c -99.3,0 -180.1,80.8 -180.1,180.1 0,99.3 80.8,180 180.1,180 99.3,0 180.1,-80.8 180.1,-180.1 0,-99.3 -80.8,-180 -180.1,-180 z"
       fill="#595757"
       id="path776" /><path
       d="m 495.6,459.9 m -159,0 a 159,159 0 1 0 318,0 159,159 0 1 0 -318,0 z"
       fill="#666765"
       id="path778" /><path
       d="m 495.6,459.9 m -97.8,0 a 97.8,97.8 0 1 0 195.6,0 97.8,97.8 0 1 0 -195.6,0 z"
       fill="#95d4eb"
       id="path780" /><path
       d="m 495.6,563.7 c -57.2,0 -103.8,-46.6 -103.8,-103.8 0,-57.2 46.6,-103.8 103.8,-103.8 57.2,0 103.8,46.6 103.8,103.8 0,57.2 -46.6,103.8 -103.8,103.8 z m 0,-195.5 c -50.6,0 -91.7,41.2 -91.7,91.7 0,50.5 41.2,91.7 91.7,91.7 50.6,0 91.7,-41.2 91.7,-91.7 0,-50.5 -41.1,-91.7 -91.7,-91.7 z"
       fill="#595757"
       id="path782" /><path
       d="m 539.1,419.9 m -26.7,0 a 26.7,26.7 0 1 0 53.4,0 26.7,26.7 0 1 0 -53.4,0 z"
       fill="#ffffff"
       id="path784" /><path
       d="m 351.5,701 h 281.1 c 11.4,0 21.7,5.3 28.4,13.5 9,-3.4 15.5,-12.2 15.5,-22.4 0,-13.2 -10.8,-24 -24,-24 H 334.6 c -13.2,0 -24,10.8 -24,24 0,9.4 5.5,17.5 13.3,21.5 6.8,-7.7 16.6,-12.6 27.6,-12.6 z"
       fill="#1a1a1a"
       id="path786" /><path
       d="m 669.1,737.2 c 0,-8.6 -3,-16.4 -8.1,-22.6 -2.6,1 -5.5,1.6 -8.5,1.6 H 334.6 c -3.8,0 -7.4,-0.9 -10.6,-2.5 -5.5,6.3 -8.9,14.6 -8.9,23.6 L 301,800.6 c 0,19.9 17.7,36.2 39.4,36.2 h 303.5 c 21.7,0 39.4,-16.3 39.4,-36.2 z"
       fill="#e7e2d3"
       id="path788" /><path
       d="m 652.5,716.1 c 3,0 5.8,-0.6 8.5,-1.6 C 654.3,706.3 644.1,701 632.6,701 H 351.5 c -11,0 -20.8,4.9 -27.5,12.6 3.2,1.6 6.8,2.5 10.6,2.5 z"
       fill="#717071"
       id="path790" /><path
       d="m 792.4,413.5 m -33,0 a 33,33 0 1 0 66,0 33,33 0 1 0 -66,0 z"
       fill="#717071"
       id="path792" /><path
       d="m 792.4,449.4 c -19.8,0 -36,-16.1 -36,-36 0,-19.8 16.1,-36 36,-36 19.8,0 36,16.1 36,36 0,19.9 -16.1,36 -36,36 z m 0,-65.9 c -16.5,0 -30,13.4 -30,30 0,16.5 13.4,30 30,30 16.6,0 30,-13.4 30,-30 0,-16.6 -13.5,-30 -30,-30 z"
       fill="#595757"
       id="path794" /><path
       d="m 800.19389,406.23356 a 12.400003,9.3000021 55.105 1 0 15.25576,-10.64058 12.400003,9.3000021 55.105 1 0 -15.25576,10.64058 z"
       fill="#b4b4b5"
       id="path796" /><path
       d="m 173.4,413.5 m -33.1,0 a 33.1,33.1 0 1 0 66.2,0 33.1,33.1 0 1 0 -66.2,0 z"
       fill="#da8080"
       id="path798" /><path
       d="m 173.4,451.1 c -20.8,0 -37.7,-16.9 -37.7,-37.7 0,-20.8 16.9,-37.7 37.7,-37.7 20.8,0 37.7,16.9 37.7,37.7 0,20.8 -16.9,37.7 -37.7,37.7 z m 0,-66.3 c -15.8,0 -28.6,12.8 -28.6,28.6 0,15.8 12.8,28.6 28.6,28.6 15.8,0 28.6,-12.8 28.6,-28.6 0,-15.8 -12.8,-28.6 -28.6,-28.6 z"
       fill="#ffffff"
       id="path800" /><path
       d="m 212.6,336.3 h -78.4 c -2,0 -3.6,-1.6 -3.6,-3.6 V 285 c 0,-2 1.6,-3.6 3.6,-3.6 h 78.4 c 2,0 3.6,1.6 3.6,3.6 v 47.7 c 0,2 -1.6,3.6 -3.6,3.6 z"
       fill="#4c4b4c"
       id="path802" /><path
       d="m 822.5,336.3 h -52.4 c -1.7,0 -3,-1.4 -3,-3 v -52.4 c 0,-1.7 1.4,-3 3,-3 h 52.4 c 1.7,0 3,1.4 3,3 v 52.4 c 0,1.6 -1.3,3 -3,3 z"
       fill="#656767"
       id="path804" /><path
       d="m 816.4,339.3 h -40.2 c -6.7,0 -12.1,-5.4 -12.1,-12.1 V 287 c 0,-6.7 5.4,-12.1 12.1,-12.1 h 40.2 c 6.7,0 12.1,5.4 12.1,12.1 v 40.2 c 0.1,6.7 -5.4,12.1 -12.1,12.1 z m -40.2,-58.4 c -3.4,0 -6.1,2.7 -6.1,6.1 v 40.2 c 0,3.4 2.7,6.1 6.1,6.1 h 40.2 c 3.4,0 6.1,-2.7 6.1,-6.1 V 287 c 0,-3.4 -2.7,-6.1 -6.1,-6.1 z"
       fill="#3e3a39"
       id="path806" /></g><g
     id="g905"
     transform="matrix(0.0526175,0,0,0.09494263,1.6703046,-24.35253)"><polygon
       style="fill:#434a54"
       points="106.665,298.654 127.938,224.072 213.357,224.04 234.661,298.654 "
       id="polygon839" /><path
       style="fill:#5d9cec"
       d="m 21.34,234.664 c -5.883,0 -10.672,-4.781 -10.672,-10.687 V 21.328 c 0,-5.875 4.789,-10.656 10.672,-10.656 h 298.654 c 5.875,0 10.656,4.781 10.656,10.656 v 202.65 c 0,5.906 -4.781,10.687 -10.656,10.687 z"
       id="path841" /><g
       id="g847">
	<path
   style="fill:#656d78"
   d="M 319.994,0 H 21.34 C 9.559,0 0.005,9.547 0.005,21.328 v 202.65 c 0,11.78 9.554,21.343 21.335,21.343 h 298.654 c 11.781,0 21.342,-9.562 21.342,-21.343 V 21.328 C 341.336,9.547 331.775,0 319.994,0 Z m 0,223.978 H 21.34 V 21.328 h 298.654 z"
   id="path843" />
	<rect
   x="15.949"
   y="181.326"
   style="fill:#656d78"
   width="309.44"
   height="53.34"
   id="rect845" />
</g><path
       style="fill:#aab2bc"
       d="m 181.334,213.322 c 0,5.906 -4.781,10.656 -10.671,10.656 -5.891,0 -10.664,-4.75 -10.664,-10.656 0,-5.875 4.773,-10.656 10.664,-10.656 5.89,0 10.671,4.781 10.671,10.656 z"
       id="path849" /><path
       style="fill:#656d78"
       d="M 234.661,277.312 H 106.665 c -5.891,0 -10.664,4.781 -10.664,10.654 0,5.906 4.773,10.688 10.664,10.688 h 127.996 c 5.89,0 10.671,-4.781 10.671,-10.688 0,-5.872 -4.781,-10.654 -10.671,-10.654 z"
       id="path851" /><path
       style="fill:#ccd1d9"
       d="m 511.988,287.967 c 0,5.906 -4.781,10.688 -10.656,10.688 H 373.336 c -5.906,0 -10.688,-4.781 -10.688,-10.688 V 10.672 C 362.648,4.766 367.429,0 373.336,0 h 127.996 c 5.875,0 10.656,4.766 10.656,10.672 z"
       id="path853" /><g
       id="g861">
	<path
   style="fill:#aab2bc"
   d="m 405.334,63.998 h 63.998 c 5.875,0 10.656,-4.766 10.656,-10.672 0,-5.875 -4.781,-10.655 -10.656,-10.655 h -63.998 c -5.904,0 -10.686,4.781 -10.686,10.655 0,5.907 4.782,10.672 10.686,10.672 z"
   id="path855" />
	<path
   style="fill:#aab2bc"
   d="m 469.332,85.326 h -63.998 c -5.904,0 -10.686,4.781 -10.686,10.672 0,5.891 4.781,10.671 10.686,10.671 h 63.998 c 5.875,0 10.656,-4.781 10.656,-10.671 0,-5.89 -4.781,-10.672 -10.656,-10.672 z"
   id="path857" />
	<path
   style="fill:#aab2bc"
   d="m 469.332,127.981 h -63.998 c -5.904,0 -10.686,4.781 -10.686,10.687 0,5.875 4.781,10.656 10.686,10.656 h 63.998 c 5.875,0 10.656,-4.781 10.656,-10.656 0,-5.906 -4.781,-10.687 -10.656,-10.687 z"
   id="path859" />
</g><path
       style="fill:#ed5564"
       d="m 447.99,213.322 c 0,5.906 -4.781,10.656 -10.656,10.656 -5.906,0 -10.688,-4.75 -10.688,-10.656 0,-5.875 4.781,-10.656 10.688,-10.656 5.875,0 10.656,4.781 10.656,10.656 z"
       id="path863" /><polygon
       style="opacity:0.1;fill:#ffffff;enable-background:new"
       points="128,181.323 191.998,21.328 253.332,21.328 189.334,181.323 "
       id="polygon865" /></g><g
     id="g939"
     transform="matrix(0.60318736,0,0,0.52784016,29.508356,-24.806785)"><path
       style="fill:#424a60"
       d="M 41.595,58 H 16.405 C 14.525,58 13,56.475 13,54.595 V 3.405 C 13,1.525 14.525,0 16.405,0 H 41.594 C 43.475,0 45,1.525 45,3.405 V 54.594 C 45,56.475 43.475,58 41.595,58 Z"
       id="path907" /><rect
       x="13"
       y="6"
       style="fill:#e7eced"
       width="32"
       height="40"
       id="rect909" /><circle
       style="fill:#262b35"
       cx="29"
       cy="52"
       r="3"
       id="circle911" /><path
       style="fill:#262b35"
       d="M 29,4 H 25 C 24.447,4 24,3.553 24,3 24,2.447 24.447,2 25,2 h 4 c 0.553,0 1,0.447 1,1 0,0.553 -0.447,1 -1,1 z"
       id="path913" /><path
       style="fill:#262b35"
       d="M 33,4 H 32 C 31.447,4 31,3.553 31,3 31,2.447 31.447,2 32,2 h 1 c 0.553,0 1,0.447 1,1 0,0.553 -0.447,1 -1,1 z"
       id="path915" /><circle
       style="fill:#7383bf"
       cx="29"
       cy="21"
       r="12"
       id="circle917" /><path
       style="fill:#424a60"
       d="m 31.932,28.567 c -0.447,-0.224 -0.73,-0.681 -0.73,-1.181 v -1.358 c 0.097,-0.111 0.209,-0.253 0.327,-0.421 0.472,-0.666 0.828,-1.399 1.076,-2.168 0.444,-0.137 0.771,-0.547 0.771,-1.034 v -1.449 c 0,-0.319 -0.142,-0.604 -0.362,-0.803 v -2.096 c 0,0 0.43,-3.261 -3.986,-3.261 -4.416,0 -3.986,3.261 -3.986,3.261 v 2.096 c -0.221,0.199 -0.362,0.484 -0.362,0.803 v 1.449 c 0,0.382 0.201,0.718 0.501,0.912 0.362,1.577 1.311,2.711 1.311,2.711 v 1.325 c 0,0.483 -0.264,0.928 -0.688,1.159 l -3.233,1.763 c -0.221,0.12 -0.418,0.271 -0.597,0.439 C 23.951,32.146 26.373,33 29,33 c 2.623,0 5.041,-0.851 7.016,-2.278 -0.186,-0.165 -0.393,-0.309 -0.622,-0.424 z"
       id="path919" /><rect
       x="16"
       y="37"
       style="fill:#afb6bb"
       width="26"
       height="6"
       id="rect921" /><rect
       x="16"
       y="37"
       style="fill:#61b872"
       width="6"
       height="6"
       id="rect923" /></g></g></svg>
